<?xml version="1.0" encoding="utf-8" standalone="no"?>
<!DOCTYPE svg PUBLIC "-//W3C//DTD SVG 1.1//EN"
  "http://www.w3.org/Graphics/SVG/1.1/DTD/svg11.dtd">
<svg xmlns:xlink="http://www.w3.org/1999/xlink" width="578.486938pt" height="345.42825pt" viewBox="0 0 578.486938 345.42825" xmlns="http://www.w3.org/2000/svg" version="1.1">
 <metadata>
  <rdf:RDF xmlns:dc="http://purl.org/dc/elements/1.1/" xmlns:cc="http://creativecommons.org/ns#" xmlns:rdf="http://www.w3.org/1999/02/22-rdf-syntax-ns#">
   <cc:Work>
    <dc:type rdf:resource="http://purl.org/dc/dcmitype/StillImage"/>
    <dc:date>2024-11-14T11:01:25.044720</dc:date>
    <dc:format>image/svg+xml</dc:format>
    <dc:creator>
     <cc:Agent>
      <dc:title>Matplotlib v3.8.0, https://matplotlib.org/</dc:title>
     </cc:Agent>
    </dc:creator>
   </cc:Work>
  </rdf:RDF>
 </metadata>
 <defs>
  <style type="text/css">*{stroke-linejoin: round; stroke-linecap: butt}</style>
 </defs>
 <g id="figure_1">
  <g id="patch_1">
   <path d="M 0 345.42825 
L 578.486938 345.42825 
L 578.486938 -0 
L 0 -0 
L 0 345.42825 
z
" style="fill: none; opacity: 0"/>
  </g>
  <g id="axes_1">
   <g id="patch_2">
    <path d="M 44.210938 307.872 
L 401.330938 307.872 
L 401.330938 41.76 
L 44.210938 41.76 
z
" style="fill: #ffffff"/>
   </g>
   <g id="matplotlib.axis_1">
    <g id="xtick_1">
     <g id="line2d_1">
      <defs>
       <path id="m739455f2a9" d="M 0 0 
L 0 3.5 
" style="stroke: #000000; stroke-width: 0.8"/>
      </defs>
      <g>
       <use xlink:href="#m739455f2a9" x="69.727423" y="307.872" style="stroke: #000000; stroke-width: 0.8"/>
      </g>
     </g>
     <g id="text_1">
      <!-- -10 -->
      <g transform="translate(61.561017 322.470438) scale(0.1 -0.1)">
       <defs>
        <path id="DejaVuSans-2d" d="M 313 2009 
L 1997 2009 
L 1997 1497 
L 313 1497 
L 313 2009 
z
" transform="scale(0.015625)"/>
        <path id="DejaVuSans-31" d="M 794 531 
L 1825 531 
L 1825 4091 
L 703 3866 
L 703 4441 
L 1819 4666 
L 2450 4666 
L 2450 531 
L 3481 531 
L 3481 0 
L 794 0 
L 794 531 
z
" transform="scale(0.015625)"/>
        <path id="DejaVuSans-30" d="M 2034 4250 
Q 1547 4250 1301 3770 
Q 1056 3291 1056 2328 
Q 1056 1369 1301 889 
Q 1547 409 2034 409 
Q 2525 409 2770 889 
Q 3016 1369 3016 2328 
Q 3016 3291 2770 3770 
Q 2525 4250 2034 4250 
z
M 2034 4750 
Q 2819 4750 3233 4129 
Q 3647 3509 3647 2328 
Q 3647 1150 3233 529 
Q 2819 -91 2034 -91 
Q 1250 -91 836 529 
Q 422 1150 422 2328 
Q 422 3509 836 4129 
Q 1250 4750 2034 4750 
z
" transform="scale(0.015625)"/>
       </defs>
       <use xlink:href="#DejaVuSans-2d"/>
       <use xlink:href="#DejaVuSans-31" x="36.083984"/>
       <use xlink:href="#DejaVuSans-30" x="99.707031"/>
      </g>
     </g>
    </g>
    <g id="xtick_2">
     <g id="line2d_2">
      <g>
       <use xlink:href="#m739455f2a9" x="146.348086" y="307.872" style="stroke: #000000; stroke-width: 0.8"/>
      </g>
     </g>
     <g id="text_2">
      <!-- -5 -->
      <g transform="translate(141.36293 322.470438) scale(0.1 -0.1)">
       <defs>
        <path id="DejaVuSans-35" d="M 691 4666 
L 3169 4666 
L 3169 4134 
L 1269 4134 
L 1269 2991 
Q 1406 3038 1543 3061 
Q 1681 3084 1819 3084 
Q 2600 3084 3056 2656 
Q 3513 2228 3513 1497 
Q 3513 744 3044 326 
Q 2575 -91 1722 -91 
Q 1428 -91 1123 -41 
Q 819 9 494 109 
L 494 744 
Q 775 591 1075 516 
Q 1375 441 1709 441 
Q 2250 441 2565 725 
Q 2881 1009 2881 1497 
Q 2881 1984 2565 2268 
Q 2250 2553 1709 2553 
Q 1456 2553 1204 2497 
Q 953 2441 691 2322 
L 691 4666 
z
" transform="scale(0.015625)"/>
       </defs>
       <use xlink:href="#DejaVuSans-2d"/>
       <use xlink:href="#DejaVuSans-35" x="36.083984"/>
      </g>
     </g>
    </g>
    <g id="xtick_3">
     <g id="line2d_3">
      <g>
       <use xlink:href="#m739455f2a9" x="222.96875" y="307.872" style="stroke: #000000; stroke-width: 0.8"/>
      </g>
     </g>
     <g id="text_3">
      <!-- 0 -->
      <g transform="translate(219.7875 322.470438) scale(0.1 -0.1)">
       <use xlink:href="#DejaVuSans-30"/>
      </g>
     </g>
    </g>
    <g id="xtick_4">
     <g id="line2d_4">
      <g>
       <use xlink:href="#m739455f2a9" x="299.589413" y="307.872" style="stroke: #000000; stroke-width: 0.8"/>
      </g>
     </g>
     <g id="text_4">
      <!-- 5 -->
      <g transform="translate(296.408163 322.470438) scale(0.1 -0.1)">
       <use xlink:href="#DejaVuSans-35"/>
      </g>
     </g>
    </g>
    <g id="xtick_5">
     <g id="line2d_5">
      <g>
       <use xlink:href="#m739455f2a9" x="376.210076" y="307.872" style="stroke: #000000; stroke-width: 0.8"/>
      </g>
     </g>
     <g id="text_5">
      <!-- 10 -->
      <g transform="translate(369.847576 322.470438) scale(0.1 -0.1)">
       <use xlink:href="#DejaVuSans-31"/>
       <use xlink:href="#DejaVuSans-30" x="63.623047"/>
      </g>
     </g>
    </g>
    <g id="text_6">
     <!-- Re$(S_{21})$ [mV] -->
     <g transform="translate(190.770938 336.148562) scale(0.1 -0.1)">
      <defs>
       <path id="DejaVuSans-52" d="M 2841 2188 
Q 3044 2119 3236 1894 
Q 3428 1669 3622 1275 
L 4263 0 
L 3584 0 
L 2988 1197 
Q 2756 1666 2539 1819 
Q 2322 1972 1947 1972 
L 1259 1972 
L 1259 0 
L 628 0 
L 628 4666 
L 2053 4666 
Q 2853 4666 3247 4331 
Q 3641 3997 3641 3322 
Q 3641 2881 3436 2590 
Q 3231 2300 2841 2188 
z
M 1259 4147 
L 1259 2491 
L 2053 2491 
Q 2509 2491 2742 2702 
Q 2975 2913 2975 3322 
Q 2975 3731 2742 3939 
Q 2509 4147 2053 4147 
L 1259 4147 
z
" transform="scale(0.015625)"/>
       <path id="DejaVuSans-65" d="M 3597 1894 
L 3597 1613 
L 953 1613 
Q 991 1019 1311 708 
Q 1631 397 2203 397 
Q 2534 397 2845 478 
Q 3156 559 3463 722 
L 3463 178 
Q 3153 47 2828 -22 
Q 2503 -91 2169 -91 
Q 1331 -91 842 396 
Q 353 884 353 1716 
Q 353 2575 817 3079 
Q 1281 3584 2069 3584 
Q 2775 3584 3186 3129 
Q 3597 2675 3597 1894 
z
M 3022 2063 
Q 3016 2534 2758 2815 
Q 2500 3097 2075 3097 
Q 1594 3097 1305 2825 
Q 1016 2553 972 2059 
L 3022 2063 
z
" transform="scale(0.015625)"/>
       <path id="DejaVuSans-28" d="M 1984 4856 
Q 1566 4138 1362 3434 
Q 1159 2731 1159 2009 
Q 1159 1288 1364 580 
Q 1569 -128 1984 -844 
L 1484 -844 
Q 1016 -109 783 600 
Q 550 1309 550 2009 
Q 550 2706 781 3412 
Q 1013 4119 1484 4856 
L 1984 4856 
z
" transform="scale(0.015625)"/>
       <path id="DejaVuSans-Oblique-53" d="M 3859 4513 
L 3738 3897 
Q 3422 4066 3111 4152 
Q 2800 4238 2509 4238 
Q 1944 4238 1609 3991 
Q 1275 3744 1275 3334 
Q 1275 3109 1398 2989 
Q 1522 2869 2034 2731 
L 2413 2638 
Q 3053 2472 3303 2217 
Q 3553 1963 3553 1503 
Q 3553 797 2998 353 
Q 2444 -91 1538 -91 
Q 1166 -91 791 -17 
Q 416 56 38 206 
L 166 856 
Q 513 641 861 531 
Q 1209 422 1556 422 
Q 2147 422 2503 684 
Q 2859 947 2859 1369 
Q 2859 1650 2717 1795 
Q 2575 1941 2106 2059 
L 1728 2156 
Q 1081 2325 845 2545 
Q 609 2766 609 3163 
Q 609 3859 1145 4304 
Q 1681 4750 2541 4750 
Q 2875 4750 3203 4690 
Q 3531 4631 3859 4513 
z
" transform="scale(0.015625)"/>
       <path id="DejaVuSans-32" d="M 1228 531 
L 3431 531 
L 3431 0 
L 469 0 
L 469 531 
Q 828 903 1448 1529 
Q 2069 2156 2228 2338 
Q 2531 2678 2651 2914 
Q 2772 3150 2772 3378 
Q 2772 3750 2511 3984 
Q 2250 4219 1831 4219 
Q 1534 4219 1204 4116 
Q 875 4013 500 3803 
L 500 4441 
Q 881 4594 1212 4672 
Q 1544 4750 1819 4750 
Q 2544 4750 2975 4387 
Q 3406 4025 3406 3419 
Q 3406 3131 3298 2873 
Q 3191 2616 2906 2266 
Q 2828 2175 2409 1742 
Q 1991 1309 1228 531 
z
" transform="scale(0.015625)"/>
       <path id="DejaVuSans-29" d="M 513 4856 
L 1013 4856 
Q 1481 4119 1714 3412 
Q 1947 2706 1947 2009 
Q 1947 1309 1714 600 
Q 1481 -109 1013 -844 
L 513 -844 
Q 928 -128 1133 580 
Q 1338 1288 1338 2009 
Q 1338 2731 1133 3434 
Q 928 4138 513 4856 
z
" transform="scale(0.015625)"/>
       <path id="DejaVuSans-20" transform="scale(0.015625)"/>
       <path id="DejaVuSans-5b" d="M 550 4863 
L 1875 4863 
L 1875 4416 
L 1125 4416 
L 1125 -397 
L 1875 -397 
L 1875 -844 
L 550 -844 
L 550 4863 
z
" transform="scale(0.015625)"/>
       <path id="DejaVuSans-6d" d="M 3328 2828 
Q 3544 3216 3844 3400 
Q 4144 3584 4550 3584 
Q 5097 3584 5394 3201 
Q 5691 2819 5691 2113 
L 5691 0 
L 5113 0 
L 5113 2094 
Q 5113 2597 4934 2840 
Q 4756 3084 4391 3084 
Q 3944 3084 3684 2787 
Q 3425 2491 3425 1978 
L 3425 0 
L 2847 0 
L 2847 2094 
Q 2847 2600 2669 2842 
Q 2491 3084 2119 3084 
Q 1678 3084 1418 2786 
Q 1159 2488 1159 1978 
L 1159 0 
L 581 0 
L 581 3500 
L 1159 3500 
L 1159 2956 
Q 1356 3278 1631 3431 
Q 1906 3584 2284 3584 
Q 2666 3584 2933 3390 
Q 3200 3197 3328 2828 
z
" transform="scale(0.015625)"/>
       <path id="DejaVuSans-56" d="M 1831 0 
L 50 4666 
L 709 4666 
L 2188 738 
L 3669 4666 
L 4325 4666 
L 2547 0 
L 1831 0 
z
" transform="scale(0.015625)"/>
       <path id="DejaVuSans-5d" d="M 1947 4863 
L 1947 -844 
L 622 -844 
L 622 -397 
L 1369 -397 
L 1369 4416 
L 622 4416 
L 622 4863 
L 1947 4863 
z
" transform="scale(0.015625)"/>
      </defs>
      <use xlink:href="#DejaVuSans-52" transform="translate(0 0.015625)"/>
      <use xlink:href="#DejaVuSans-65" transform="translate(69.482422 0.015625)"/>
      <use xlink:href="#DejaVuSans-28" transform="translate(131.005859 0.015625)"/>
      <use xlink:href="#DejaVuSans-Oblique-53" transform="translate(170.019531 0.015625)"/>
      <use xlink:href="#DejaVuSans-32" transform="translate(233.496094 -16.390625) scale(0.7)"/>
      <use xlink:href="#DejaVuSans-31" transform="translate(278.032227 -16.390625) scale(0.7)"/>
      <use xlink:href="#DejaVuSans-29" transform="translate(325.302734 0.015625)"/>
      <use xlink:href="#DejaVuSans-20" transform="translate(364.316406 0.015625)"/>
      <use xlink:href="#DejaVuSans-5b" transform="translate(396.103516 0.015625)"/>
      <use xlink:href="#DejaVuSans-6d" transform="translate(435.117188 0.015625)"/>
      <use xlink:href="#DejaVuSans-56" transform="translate(532.529297 0.015625)"/>
      <use xlink:href="#DejaVuSans-5d" transform="translate(600.9375 0.015625)"/>
     </g>
    </g>
   </g>
   <g id="matplotlib.axis_2">
    <g id="ytick_1">
     <g id="line2d_6">
      <defs>
       <path id="ma6ea642ce0" d="M 0 0 
L -3.5 0 
" style="stroke: #000000; stroke-width: 0.8"/>
      </defs>
      <g>
       <use xlink:href="#ma6ea642ce0" x="44.210938" y="286.240219" style="stroke: #000000; stroke-width: 0.8"/>
      </g>
     </g>
     <g id="text_7">
      <!-- -10 -->
      <g transform="translate(20.878125 290.039438) scale(0.1 -0.1)">
       <use xlink:href="#DejaVuSans-2d"/>
       <use xlink:href="#DejaVuSans-31" x="36.083984"/>
       <use xlink:href="#DejaVuSans-30" x="99.707031"/>
      </g>
     </g>
    </g>
    <g id="ytick_2">
     <g id="line2d_7">
      <g>
       <use xlink:href="#ma6ea642ce0" x="44.210938" y="230.163536" style="stroke: #000000; stroke-width: 0.8"/>
      </g>
     </g>
     <g id="text_8">
      <!-- -5 -->
      <g transform="translate(27.240625 233.962755) scale(0.1 -0.1)">
       <use xlink:href="#DejaVuSans-2d"/>
       <use xlink:href="#DejaVuSans-35" x="36.083984"/>
      </g>
     </g>
    </g>
    <g id="ytick_3">
     <g id="line2d_8">
      <g>
       <use xlink:href="#ma6ea642ce0" x="44.210938" y="174.086853" style="stroke: #000000; stroke-width: 0.8"/>
      </g>
     </g>
     <g id="text_9">
      <!-- 0 -->
      <g transform="translate(30.848437 177.886072) scale(0.1 -0.1)">
       <use xlink:href="#DejaVuSans-30"/>
      </g>
     </g>
    </g>
    <g id="ytick_4">
     <g id="line2d_9">
      <g>
       <use xlink:href="#ma6ea642ce0" x="44.210938" y="118.010171" style="stroke: #000000; stroke-width: 0.8"/>
      </g>
     </g>
     <g id="text_10">
      <!-- 5 -->
      <g transform="translate(30.848437 121.809389) scale(0.1 -0.1)">
       <use xlink:href="#DejaVuSans-35"/>
      </g>
     </g>
    </g>
    <g id="ytick_5">
     <g id="line2d_10">
      <g>
       <use xlink:href="#ma6ea642ce0" x="44.210938" y="61.933488" style="stroke: #000000; stroke-width: 0.8"/>
      </g>
     </g>
     <g id="text_11">
      <!-- 10 -->
      <g transform="translate(24.485937 65.732707) scale(0.1 -0.1)">
       <use xlink:href="#DejaVuSans-31"/>
       <use xlink:href="#DejaVuSans-30" x="63.623047"/>
      </g>
     </g>
    </g>
    <g id="text_12">
     <!-- Im$(S_{21})$ [mV] -->
     <g transform="translate(14.798437 206.466) rotate(-90) scale(0.1 -0.1)">
      <defs>
       <path id="DejaVuSans-49" d="M 628 4666 
L 1259 4666 
L 1259 0 
L 628 0 
L 628 4666 
z
" transform="scale(0.015625)"/>
      </defs>
      <use xlink:href="#DejaVuSans-49" transform="translate(0 0.015625)"/>
      <use xlink:href="#DejaVuSans-6d" transform="translate(25.867188 0.015625)"/>
      <use xlink:href="#DejaVuSans-28" transform="translate(123.279297 0.015625)"/>
      <use xlink:href="#DejaVuSans-Oblique-53" transform="translate(162.292969 0.015625)"/>
      <use xlink:href="#DejaVuSans-32" transform="translate(225.769531 -16.390625) scale(0.7)"/>
      <use xlink:href="#DejaVuSans-31" transform="translate(270.305664 -16.390625) scale(0.7)"/>
      <use xlink:href="#DejaVuSans-29" transform="translate(317.576172 0.015625)"/>
      <use xlink:href="#DejaVuSans-20" transform="translate(356.589844 0.015625)"/>
      <use xlink:href="#DejaVuSans-5b" transform="translate(388.376953 0.015625)"/>
      <use xlink:href="#DejaVuSans-6d" transform="translate(427.390625 0.015625)"/>
      <use xlink:href="#DejaVuSans-56" transform="translate(524.802734 0.015625)"/>
      <use xlink:href="#DejaVuSans-5d" transform="translate(593.210938 0.015625)"/>
     </g>
    </g>
   </g>
   <g id="line2d_11">
    <path d="M 355.48385 248.071617 
L 347.574443 254.525752 
L 338.988047 260.760464 
L 330.097393 266.943093 
L 322.253314 271.959287 
L 311.274711 277.201999 
L 300.603802 281.294935 
L 290.356048 285.330799 
L 279.149294 288.259594 
L 267.588284 291.380869 
L 257.233214 293.111781 
L 243.618377 294.857754 
L 232.197626 295.465664 
L 220.312979 295.658527 
L 208.96277 295.496681 
L 196.953036 294.243352 
L 184.553298 292.281821 
L 173.124011 290.078435 
L 161.843348 287.034132 
L 150.864638 283.532671 
L 139.474347 279.00655 
L 130.202356 274.623601 
L 119.82396 268.808227 
L 109.970983 262.925904 
L 101.761977 256.436826 
L 94.047169 249.392691 
L 86.087471 242.18373 
L 79.988571 234.294618 
L 74.398091 226.684065 
L 70.04578 217.157266 
L 65.754653 208.852493 
L 62.691245 199.79495 
L 61.201454 190.286719 
L 60.443665 180.883211 
L 60.533233 171.392766 
L 62.515911 162.417049 
L 65.367825 152.444974 
L 69.367887 142.900251 
L 73.889269 133.650194 
L 81.067283 124.324672 
L 88.837745 115.784179 
L 98.778426 107.846952 
L 109.978408 100.99541 
L 122.576271 94.050861 
L 137.41218 89.164298 
L 154.591241 86.235553 
L 171.622724 85.33581 
L 191.126516 88.083626 
L 209.20254 95.184616 
L 224.28961 106.689045 
L 232.234384 124.851276 
L 227.550076 144.094444 
L 207.949364 158.551522 
L 179.969331 163.800914 
L 153.331664 156.93232 
L 135.007608 142.515962 
L 128.335302 125.154765 
L 129.453914 107.997117 
L 136.216599 93.249678 
L 148.19984 81.426867 
L 162.552493 71.476349 
L 177.577624 64.552033 
L 193.869177 59.300412 
L 209.009739 56.289916 
L 224.679966 54.533402 
L 239.415015 53.856 
L 254.373675 55.326205 
L 269.115166 56.477517 
L 283.054876 59.770936 
L 296.046817 63.486017 
L 308.613784 67.146579 
L 320.719514 72.871573 
L 332.143565 78.670909 
L 341.800104 84.986067 
L 351.199644 92.111599 
L 359.70679 99.178936 
L 367.466896 107.352587 
L 374.433065 115.075092 
L 380.461571 123.443685 
L 385.09821 132.225468 
" clip-path="url(#p52732b9c0e)" style="fill: none; stroke: #1f77b4; stroke-width: 1.5; stroke-linecap: square"/>
    <defs>
     <path id="mc213b75c63" d="M 0 1.5 
C 0.397805 1.5 0.77937 1.341951 1.06066 1.06066 
C 1.341951 0.77937 1.5 0.397805 1.5 0 
C 1.5 -0.397805 1.341951 -0.77937 1.06066 -1.06066 
C 0.77937 -1.341951 0.397805 -1.5 0 -1.5 
C -0.397805 -1.5 -0.77937 -1.341951 -1.06066 -1.06066 
C -1.341951 -0.77937 -1.5 -0.397805 -1.5 0 
C -1.5 0.397805 -1.341951 0.77937 -1.06066 1.06066 
C -0.77937 1.341951 -0.397805 1.5 0 1.5 
z
" style="stroke: #1f77b4"/>
    </defs>
    <g clip-path="url(#p52732b9c0e)">
     <use xlink:href="#mc213b75c63" x="355.48385" y="248.071617" style="fill: #1f77b4; stroke: #1f77b4"/>
     <use xlink:href="#mc213b75c63" x="347.574443" y="254.525752" style="fill: #1f77b4; stroke: #1f77b4"/>
     <use xlink:href="#mc213b75c63" x="338.988047" y="260.760464" style="fill: #1f77b4; stroke: #1f77b4"/>
     <use xlink:href="#mc213b75c63" x="330.097393" y="266.943093" style="fill: #1f77b4; stroke: #1f77b4"/>
     <use xlink:href="#mc213b75c63" x="322.253314" y="271.959287" style="fill: #1f77b4; stroke: #1f77b4"/>
     <use xlink:href="#mc213b75c63" x="311.274711" y="277.201999" style="fill: #1f77b4; stroke: #1f77b4"/>
     <use xlink:href="#mc213b75c63" x="300.603802" y="281.294935" style="fill: #1f77b4; stroke: #1f77b4"/>
     <use xlink:href="#mc213b75c63" x="290.356048" y="285.330799" style="fill: #1f77b4; stroke: #1f77b4"/>
     <use xlink:href="#mc213b75c63" x="279.149294" y="288.259594" style="fill: #1f77b4; stroke: #1f77b4"/>
     <use xlink:href="#mc213b75c63" x="267.588284" y="291.380869" style="fill: #1f77b4; stroke: #1f77b4"/>
     <use xlink:href="#mc213b75c63" x="257.233214" y="293.111781" style="fill: #1f77b4; stroke: #1f77b4"/>
     <use xlink:href="#mc213b75c63" x="243.618377" y="294.857754" style="fill: #1f77b4; stroke: #1f77b4"/>
     <use xlink:href="#mc213b75c63" x="232.197626" y="295.465664" style="fill: #1f77b4; stroke: #1f77b4"/>
     <use xlink:href="#mc213b75c63" x="220.312979" y="295.658527" style="fill: #1f77b4; stroke: #1f77b4"/>
     <use xlink:href="#mc213b75c63" x="208.96277" y="295.496681" style="fill: #1f77b4; stroke: #1f77b4"/>
     <use xlink:href="#mc213b75c63" x="196.953036" y="294.243352" style="fill: #1f77b4; stroke: #1f77b4"/>
     <use xlink:href="#mc213b75c63" x="184.553298" y="292.281821" style="fill: #1f77b4; stroke: #1f77b4"/>
     <use xlink:href="#mc213b75c63" x="173.124011" y="290.078435" style="fill: #1f77b4; stroke: #1f77b4"/>
     <use xlink:href="#mc213b75c63" x="161.843348" y="287.034132" style="fill: #1f77b4; stroke: #1f77b4"/>
     <use xlink:href="#mc213b75c63" x="150.864638" y="283.532671" style="fill: #1f77b4; stroke: #1f77b4"/>
     <use xlink:href="#mc213b75c63" x="139.474347" y="279.00655" style="fill: #1f77b4; stroke: #1f77b4"/>
     <use xlink:href="#mc213b75c63" x="130.202356" y="274.623601" style="fill: #1f77b4; stroke: #1f77b4"/>
     <use xlink:href="#mc213b75c63" x="119.82396" y="268.808227" style="fill: #1f77b4; stroke: #1f77b4"/>
     <use xlink:href="#mc213b75c63" x="109.970983" y="262.925904" style="fill: #1f77b4; stroke: #1f77b4"/>
     <use xlink:href="#mc213b75c63" x="101.761977" y="256.436826" style="fill: #1f77b4; stroke: #1f77b4"/>
     <use xlink:href="#mc213b75c63" x="94.047169" y="249.392691" style="fill: #1f77b4; stroke: #1f77b4"/>
     <use xlink:href="#mc213b75c63" x="86.087471" y="242.18373" style="fill: #1f77b4; stroke: #1f77b4"/>
     <use xlink:href="#mc213b75c63" x="79.988571" y="234.294618" style="fill: #1f77b4; stroke: #1f77b4"/>
     <use xlink:href="#mc213b75c63" x="74.398091" y="226.684065" style="fill: #1f77b4; stroke: #1f77b4"/>
     <use xlink:href="#mc213b75c63" x="70.04578" y="217.157266" style="fill: #1f77b4; stroke: #1f77b4"/>
     <use xlink:href="#mc213b75c63" x="65.754653" y="208.852493" style="fill: #1f77b4; stroke: #1f77b4"/>
     <use xlink:href="#mc213b75c63" x="62.691245" y="199.79495" style="fill: #1f77b4; stroke: #1f77b4"/>
     <use xlink:href="#mc213b75c63" x="61.201454" y="190.286719" style="fill: #1f77b4; stroke: #1f77b4"/>
     <use xlink:href="#mc213b75c63" x="60.443665" y="180.883211" style="fill: #1f77b4; stroke: #1f77b4"/>
     <use xlink:href="#mc213b75c63" x="60.533233" y="171.392766" style="fill: #1f77b4; stroke: #1f77b4"/>
     <use xlink:href="#mc213b75c63" x="62.515911" y="162.417049" style="fill: #1f77b4; stroke: #1f77b4"/>
     <use xlink:href="#mc213b75c63" x="65.367825" y="152.444974" style="fill: #1f77b4; stroke: #1f77b4"/>
     <use xlink:href="#mc213b75c63" x="69.367887" y="142.900251" style="fill: #1f77b4; stroke: #1f77b4"/>
     <use xlink:href="#mc213b75c63" x="73.889269" y="133.650194" style="fill: #1f77b4; stroke: #1f77b4"/>
     <use xlink:href="#mc213b75c63" x="81.067283" y="124.324672" style="fill: #1f77b4; stroke: #1f77b4"/>
     <use xlink:href="#mc213b75c63" x="88.837745" y="115.784179" style="fill: #1f77b4; stroke: #1f77b4"/>
     <use xlink:href="#mc213b75c63" x="98.778426" y="107.846952" style="fill: #1f77b4; stroke: #1f77b4"/>
     <use xlink:href="#mc213b75c63" x="109.978408" y="100.99541" style="fill: #1f77b4; stroke: #1f77b4"/>
     <use xlink:href="#mc213b75c63" x="122.576271" y="94.050861" style="fill: #1f77b4; stroke: #1f77b4"/>
     <use xlink:href="#mc213b75c63" x="137.41218" y="89.164298" style="fill: #1f77b4; stroke: #1f77b4"/>
     <use xlink:href="#mc213b75c63" x="154.591241" y="86.235553" style="fill: #1f77b4; stroke: #1f77b4"/>
     <use xlink:href="#mc213b75c63" x="171.622724" y="85.33581" style="fill: #1f77b4; stroke: #1f77b4"/>
     <use xlink:href="#mc213b75c63" x="191.126516" y="88.083626" style="fill: #1f77b4; stroke: #1f77b4"/>
     <use xlink:href="#mc213b75c63" x="209.20254" y="95.184616" style="fill: #1f77b4; stroke: #1f77b4"/>
     <use xlink:href="#mc213b75c63" x="224.28961" y="106.689045" style="fill: #1f77b4; stroke: #1f77b4"/>
     <use xlink:href="#mc213b75c63" x="232.234384" y="124.851276" style="fill: #1f77b4; stroke: #1f77b4"/>
     <use xlink:href="#mc213b75c63" x="227.550076" y="144.094444" style="fill: #1f77b4; stroke: #1f77b4"/>
     <use xlink:href="#mc213b75c63" x="207.949364" y="158.551522" style="fill: #1f77b4; stroke: #1f77b4"/>
     <use xlink:href="#mc213b75c63" x="179.969331" y="163.800914" style="fill: #1f77b4; stroke: #1f77b4"/>
     <use xlink:href="#mc213b75c63" x="153.331664" y="156.93232" style="fill: #1f77b4; stroke: #1f77b4"/>
     <use xlink:href="#mc213b75c63" x="135.007608" y="142.515962" style="fill: #1f77b4; stroke: #1f77b4"/>
     <use xlink:href="#mc213b75c63" x="128.335302" y="125.154765" style="fill: #1f77b4; stroke: #1f77b4"/>
     <use xlink:href="#mc213b75c63" x="129.453914" y="107.997117" style="fill: #1f77b4; stroke: #1f77b4"/>
     <use xlink:href="#mc213b75c63" x="136.216599" y="93.249678" style="fill: #1f77b4; stroke: #1f77b4"/>
     <use xlink:href="#mc213b75c63" x="148.19984" y="81.426867" style="fill: #1f77b4; stroke: #1f77b4"/>
     <use xlink:href="#mc213b75c63" x="162.552493" y="71.476349" style="fill: #1f77b4; stroke: #1f77b4"/>
     <use xlink:href="#mc213b75c63" x="177.577624" y="64.552033" style="fill: #1f77b4; stroke: #1f77b4"/>
     <use xlink:href="#mc213b75c63" x="193.869177" y="59.300412" style="fill: #1f77b4; stroke: #1f77b4"/>
     <use xlink:href="#mc213b75c63" x="209.009739" y="56.289916" style="fill: #1f77b4; stroke: #1f77b4"/>
     <use xlink:href="#mc213b75c63" x="224.679966" y="54.533402" style="fill: #1f77b4; stroke: #1f77b4"/>
     <use xlink:href="#mc213b75c63" x="239.415015" y="53.856" style="fill: #1f77b4; stroke: #1f77b4"/>
     <use xlink:href="#mc213b75c63" x="254.373675" y="55.326205" style="fill: #1f77b4; stroke: #1f77b4"/>
     <use xlink:href="#mc213b75c63" x="269.115166" y="56.477517" style="fill: #1f77b4; stroke: #1f77b4"/>
     <use xlink:href="#mc213b75c63" x="283.054876" y="59.770936" style="fill: #1f77b4; stroke: #1f77b4"/>
     <use xlink:href="#mc213b75c63" x="296.046817" y="63.486017" style="fill: #1f77b4; stroke: #1f77b4"/>
     <use xlink:href="#mc213b75c63" x="308.613784" y="67.146579" style="fill: #1f77b4; stroke: #1f77b4"/>
     <use xlink:href="#mc213b75c63" x="320.719514" y="72.871573" style="fill: #1f77b4; stroke: #1f77b4"/>
     <use xlink:href="#mc213b75c63" x="332.143565" y="78.670909" style="fill: #1f77b4; stroke: #1f77b4"/>
     <use xlink:href="#mc213b75c63" x="341.800104" y="84.986067" style="fill: #1f77b4; stroke: #1f77b4"/>
     <use xlink:href="#mc213b75c63" x="351.199644" y="92.111599" style="fill: #1f77b4; stroke: #1f77b4"/>
     <use xlink:href="#mc213b75c63" x="359.70679" y="99.178936" style="fill: #1f77b4; stroke: #1f77b4"/>
     <use xlink:href="#mc213b75c63" x="367.466896" y="107.352587" style="fill: #1f77b4; stroke: #1f77b4"/>
     <use xlink:href="#mc213b75c63" x="374.433065" y="115.075092" style="fill: #1f77b4; stroke: #1f77b4"/>
     <use xlink:href="#mc213b75c63" x="380.461571" y="123.443685" style="fill: #1f77b4; stroke: #1f77b4"/>
     <use xlink:href="#mc213b75c63" x="385.09821" y="132.225468" style="fill: #1f77b4; stroke: #1f77b4"/>
    </g>
   </g>
   <g id="line2d_12">
    <path d="M 355.109839 247.990825 
L 351.029806 251.75278 
L 346.747508 255.395433 
L 342.269307 258.912922 
L 337.601882 262.299564 
L 332.752213 265.549859 
L 327.727578 268.6585 
L 322.535537 271.620384 
L 317.183926 274.430615 
L 311.680848 277.084514 
L 306.034656 279.577628 
L 300.253945 281.905731 
L 294.347542 284.06484 
L 288.324492 286.05121 
L 282.194045 287.86135 
L 275.965646 289.492021 
L 269.648919 290.940247 
L 263.253659 292.203316 
L 256.789813 293.278786 
L 250.267471 294.164486 
L 243.696851 294.858527 
L 237.088285 295.359297 
L 230.452207 295.665468 
L 223.799138 295.776 
L 217.139672 295.690139 
L 210.484465 295.407421 
L 203.844218 294.927675 
L 197.229666 294.251021 
L 190.651563 293.377871 
L 184.120668 292.308932 
L 177.647737 291.045201 
L 171.243503 289.587969 
L 164.918669 287.93882 
L 158.683891 286.099625 
L 152.549771 284.072547 
L 146.526843 281.860032 
L 140.625561 279.464815 
L 134.856289 276.88991 
L 129.229295 274.138614 
L 123.754734 271.214498 
L 118.442646 268.12141 
L 113.302945 264.863468 
L 108.345413 261.445057 
L 103.579693 257.870829 
L 99.015285 254.145697 
L 94.661542 250.274833 
L 90.527667 246.263665 
L 86.622709 242.117876 
L 83.464553 238.461688 
L 80.486639 234.714835 
L 77.694406 230.881337 
L 75.093215 226.965349 
L 72.688355 222.971163 
L 70.485044 218.903208 
L 68.488437 214.766051 
L 66.703632 210.564404 
L 65.135676 206.303121 
L 63.789577 201.987212 
L 62.670309 197.621838 
L 61.78283 193.212331 
L 61.13209 188.764194 
L 60.723051 184.283119 
L 60.560699 179.775001 
L 60.65007 175.245955 
L 60.996265 170.702339 
L 61.604477 166.150782 
L 62.480015 161.598217 
L 63.41777 157.808881 
L 64.548203 154.028305 
L 65.874661 150.261116 
L 67.400602 146.512178 
L 69.129608 142.786624 
L 71.065401 139.089893 
L 73.211854 135.427771 
L 75.573004 131.806442 
L 78.153061 128.232548 
L 80.956421 124.713255 
L 83.987662 121.256336 
L 87.251546 117.870262 
L 90.753002 114.564317 
L 94.497104 111.348723 
L 98.489025 108.234795 
L 102.73397 105.235117 
L 107.237072 102.363749 
L 112.003247 99.636469 
L 117.036984 97.071048 
L 121.259186 95.148662 
L 125.656504 93.35417 
L 130.229752 91.700299 
L 134.978904 90.201147 
L 139.902814 88.872333 
L 144.998869 87.731156 
L 150.262555 86.796749 
L 155.68691 86.090229 
L 161.261861 85.634818 
L 166.973395 85.455928 
L 171.335498 85.519751 
L 175.753701 85.767029 
L 180.215548 86.210796 
L 184.705949 86.864599 
L 189.206779 87.742354 
L 193.696438 88.858132 
L 198.149386 90.225877 
L 202.53567 91.859023 
L 206.820459 93.769995 
L 209.601011 95.203744 
L 212.30547 96.768457 
L 214.919426 98.466179 
L 217.427319 100.29823 
L 219.812443 102.265056 
L 222.056995 104.366066 
L 224.142134 106.599461 
L 226.048105 108.962053 
L 227.754386 111.449075 
L 229.239903 114.054001 
L 230.483294 116.768362 
L 231.463236 119.581583 
L 232.158835 122.480849 
L 232.550076 125.451 
L 232.618328 128.474478 
L 232.346905 131.531339 
L 231.721651 134.599328 
L 230.731547 137.654047 
L 229.36931 140.669211 
L 227.631951 143.616998 
L 225.521275 146.468493 
L 223.044271 149.194222 
L 220.213382 151.764761 
L 217.046609 154.151395 
L 213.567444 156.326808 
L 209.804601 158.265776 
L 205.79157 159.945815 
L 201.565977 161.347774 
L 197.168798 162.456317 
L 192.643441 163.260297 
L 188.034752 163.752972 
L 183.387991 163.932084 
L 178.74781 163.799779 
L 174.157308 163.362394 
L 169.657174 162.630111 
L 165.284967 161.61652 
L 161.074546 160.338107 
L 157.055662 158.813692 
L 153.253716 157.063861 
L 149.68966 155.110399 
L 146.380049 152.975756 
L 143.337195 150.682567 
L 140.56943 148.253217 
L 138.081423 145.709483 
L 135.874557 143.072238 
L 133.94732 140.361226 
L 132.295717 137.594891 
L 130.913666 134.790274 
L 129.793375 131.962949 
L 128.925701 129.127008 
L 128.300471 126.295078 
L 127.90677 123.478365 
L 127.733192 120.686716 
L 127.768058 117.928702 
L 127.999599 115.211705 
L 128.416107 112.542009 
L 129.006058 109.924903 
L 129.758212 107.364768 
L 130.661685 104.865175 
L 131.706007 102.428972 
L 133.514801 98.898194 
L 135.586305 95.520026 
L 137.891247 92.29729 
L 140.402852 89.230938 
L 143.096772 86.320446 
L 145.950968 83.564143 
L 148.945566 80.959484 
L 152.062694 78.503279 
L 155.28632 76.191872 
L 159.725551 73.328349 
L 164.298835 70.705259 
L 168.980411 68.312443 
L 173.748111 66.139767 
L 178.582851 64.177305 
L 183.468185 62.415469 
L 188.389922 60.845088 
L 194.574743 59.138126 
L 200.776927 57.700796 
L 206.979276 56.518334 
L 213.167247 55.577122 
L 219.328467 54.864623 
L 225.452332 54.369306 
L 231.529683 54.080561 
L 237.552543 53.988621 
L 244.698243 54.125436 
L 251.744814 54.518419 
L 258.682955 55.154517 
L 265.504414 56.021754 
L 272.201783 57.109087 
L 278.76833 58.406283 
L 285.197882 59.903804 
L 291.484723 61.592717 
L 297.62352 63.464603 
L 303.609266 65.511488 
L 309.437234 67.725778 
L 315.102944 70.100204 
L 320.602137 72.627775 
L 325.930758 75.301735 
L 331.084939 78.115531 
L 336.060993 81.06278 
L 340.855404 84.137241 
L 345.464824 87.332797 
L 349.886071 90.643434 
L 354.11613 94.063222 
L 358.15215 97.586305 
L 361.991446 101.206886 
L 365.631505 104.919221 
L 369.069981 108.717607 
L 372.304703 112.59638 
L 375.333678 116.549902 
L 378.155089 120.572568 
L 380.767302 124.658793 
L 383.168869 128.803014 
L 385.008348 132.296835 
L 385.008348 132.296835 
" clip-path="url(#p52732b9c0e)" style="fill: none; stroke: #d62728; stroke-width: 1.5; stroke-linecap: square"/>
   </g>
   <g id="patch_3">
    <path d="M 44.210938 307.872 
L 44.210938 41.76 
" style="fill: none; stroke: #000000; stroke-width: 0.8; stroke-linejoin: miter; stroke-linecap: square"/>
   </g>
   <g id="patch_4">
    <path d="M 401.330938 307.872 
L 401.330938 41.76 
" style="fill: none; stroke: #000000; stroke-width: 0.8; stroke-linejoin: miter; stroke-linecap: square"/>
   </g>
   <g id="patch_5">
    <path d="M 44.210938 307.872 
L 401.330938 307.872 
" style="fill: none; stroke: #000000; stroke-width: 0.8; stroke-linejoin: miter; stroke-linecap: square"/>
   </g>
   <g id="patch_6">
    <path d="M 44.210938 41.76 
L 401.330938 41.76 
" style="fill: none; stroke: #000000; stroke-width: 0.8; stroke-linejoin: miter; stroke-linecap: square"/>
   </g>
   <g id="text_13">
    <g id="patch_7">
     <path d="M 419.186937 114.557163 
L 571.286938 114.557163 
Q 575.286938 114.557163 575.286938 110.557163 
L 575.286938 56.085913 
Q 575.286938 52.085913 571.286938 52.085913 
L 419.186937 52.085913 
Q 415.186937 52.085913 415.186937 56.085913 
L 415.186937 110.557163 
Q 415.186937 114.557163 419.186937 114.557163 
z
" style="fill: #ffffff; opacity: 0.5; stroke: #000000; stroke-linejoin: miter"/>
    </g>
    <!-- Summary: -->
    <g transform="translate(419.186937 62.664038) scale(0.1 -0.1)">
     <defs>
      <path id="DejaVuSans-53" d="M 3425 4513 
L 3425 3897 
Q 3066 4069 2747 4153 
Q 2428 4238 2131 4238 
Q 1616 4238 1336 4038 
Q 1056 3838 1056 3469 
Q 1056 3159 1242 3001 
Q 1428 2844 1947 2747 
L 2328 2669 
Q 3034 2534 3370 2195 
Q 3706 1856 3706 1288 
Q 3706 609 3251 259 
Q 2797 -91 1919 -91 
Q 1588 -91 1214 -16 
Q 841 59 441 206 
L 441 856 
Q 825 641 1194 531 
Q 1563 422 1919 422 
Q 2459 422 2753 634 
Q 3047 847 3047 1241 
Q 3047 1584 2836 1778 
Q 2625 1972 2144 2069 
L 1759 2144 
Q 1053 2284 737 2584 
Q 422 2884 422 3419 
Q 422 4038 858 4394 
Q 1294 4750 2059 4750 
Q 2388 4750 2728 4690 
Q 3069 4631 3425 4513 
z
" transform="scale(0.015625)"/>
      <path id="DejaVuSans-75" d="M 544 1381 
L 544 3500 
L 1119 3500 
L 1119 1403 
Q 1119 906 1312 657 
Q 1506 409 1894 409 
Q 2359 409 2629 706 
Q 2900 1003 2900 1516 
L 2900 3500 
L 3475 3500 
L 3475 0 
L 2900 0 
L 2900 538 
Q 2691 219 2414 64 
Q 2138 -91 1772 -91 
Q 1169 -91 856 284 
Q 544 659 544 1381 
z
M 1991 3584 
L 1991 3584 
z
" transform="scale(0.015625)"/>
      <path id="DejaVuSans-61" d="M 2194 1759 
Q 1497 1759 1228 1600 
Q 959 1441 959 1056 
Q 959 750 1161 570 
Q 1363 391 1709 391 
Q 2188 391 2477 730 
Q 2766 1069 2766 1631 
L 2766 1759 
L 2194 1759 
z
M 3341 1997 
L 3341 0 
L 2766 0 
L 2766 531 
Q 2569 213 2275 61 
Q 1981 -91 1556 -91 
Q 1019 -91 701 211 
Q 384 513 384 1019 
Q 384 1609 779 1909 
Q 1175 2209 1959 2209 
L 2766 2209 
L 2766 2266 
Q 2766 2663 2505 2880 
Q 2244 3097 1772 3097 
Q 1472 3097 1187 3025 
Q 903 2953 641 2809 
L 641 3341 
Q 956 3463 1253 3523 
Q 1550 3584 1831 3584 
Q 2591 3584 2966 3190 
Q 3341 2797 3341 1997 
z
" transform="scale(0.015625)"/>
      <path id="DejaVuSans-72" d="M 2631 2963 
Q 2534 3019 2420 3045 
Q 2306 3072 2169 3072 
Q 1681 3072 1420 2755 
Q 1159 2438 1159 1844 
L 1159 0 
L 581 0 
L 581 3500 
L 1159 3500 
L 1159 2956 
Q 1341 3275 1631 3429 
Q 1922 3584 2338 3584 
Q 2397 3584 2469 3576 
Q 2541 3569 2628 3553 
L 2631 2963 
z
" transform="scale(0.015625)"/>
      <path id="DejaVuSans-79" d="M 2059 -325 
Q 1816 -950 1584 -1140 
Q 1353 -1331 966 -1331 
L 506 -1331 
L 506 -850 
L 844 -850 
Q 1081 -850 1212 -737 
Q 1344 -625 1503 -206 
L 1606 56 
L 191 3500 
L 800 3500 
L 1894 763 
L 2988 3500 
L 3597 3500 
L 2059 -325 
z
" transform="scale(0.015625)"/>
      <path id="DejaVuSans-3a" d="M 750 794 
L 1409 794 
L 1409 0 
L 750 0 
L 750 794 
z
M 750 3309 
L 1409 3309 
L 1409 2516 
L 750 2516 
L 750 3309 
z
" transform="scale(0.015625)"/>
     </defs>
     <use xlink:href="#DejaVuSans-53"/>
     <use xlink:href="#DejaVuSans-75" x="63.476562"/>
     <use xlink:href="#DejaVuSans-6d" x="126.855469"/>
     <use xlink:href="#DejaVuSans-6d" x="224.267578"/>
     <use xlink:href="#DejaVuSans-61" x="321.679688"/>
     <use xlink:href="#DejaVuSans-72" x="382.958984"/>
     <use xlink:href="#DejaVuSans-79" x="424.072266"/>
     <use xlink:href="#DejaVuSans-3a" x="476.001953"/>
    </g>
    <!-- $Q_I$: 101.87$\pm$0.75 k -->
    <g transform="translate(419.186937 73.86185) scale(0.1 -0.1)">
     <defs>
      <path id="DejaVuSans-Oblique-51" d="M 2309 -84 
Q 2275 -88 2237 -89 
Q 2200 -91 2125 -91 
Q 1250 -91 756 411 
Q 263 913 263 1797 
Q 263 2319 452 2844 
Q 641 3369 978 3788 
Q 1369 4269 1858 4509 
Q 2347 4750 2938 4750 
Q 3794 4750 4287 4245 
Q 4781 3741 4781 2869 
Q 4781 1928 4265 1147 
Q 3750 366 2919 44 
L 3553 -825 
L 2847 -825 
L 2309 -84 
z
M 2919 4238 
Q 2400 4238 2003 3986 
Q 1606 3734 1313 3219 
Q 1125 2891 1026 2522 
Q 928 2153 928 1778 
Q 928 1128 1239 775 
Q 1550 422 2119 422 
Q 2631 422 3032 676 
Q 3434 931 3719 1434 
Q 3909 1772 4009 2142 
Q 4109 2513 4109 2881 
Q 4109 3528 3796 3883 
Q 3484 4238 2919 4238 
z
" transform="scale(0.015625)"/>
      <path id="DejaVuSans-Oblique-49" d="M 1081 4666 
L 1716 4666 
L 806 0 
L 172 0 
L 1081 4666 
z
" transform="scale(0.015625)"/>
      <path id="DejaVuSans-2e" d="M 684 794 
L 1344 794 
L 1344 0 
L 684 0 
L 684 794 
z
" transform="scale(0.015625)"/>
      <path id="DejaVuSans-38" d="M 2034 2216 
Q 1584 2216 1326 1975 
Q 1069 1734 1069 1313 
Q 1069 891 1326 650 
Q 1584 409 2034 409 
Q 2484 409 2743 651 
Q 3003 894 3003 1313 
Q 3003 1734 2745 1975 
Q 2488 2216 2034 2216 
z
M 1403 2484 
Q 997 2584 770 2862 
Q 544 3141 544 3541 
Q 544 4100 942 4425 
Q 1341 4750 2034 4750 
Q 2731 4750 3128 4425 
Q 3525 4100 3525 3541 
Q 3525 3141 3298 2862 
Q 3072 2584 2669 2484 
Q 3125 2378 3379 2068 
Q 3634 1759 3634 1313 
Q 3634 634 3220 271 
Q 2806 -91 2034 -91 
Q 1263 -91 848 271 
Q 434 634 434 1313 
Q 434 1759 690 2068 
Q 947 2378 1403 2484 
z
M 1172 3481 
Q 1172 3119 1398 2916 
Q 1625 2713 2034 2713 
Q 2441 2713 2670 2916 
Q 2900 3119 2900 3481 
Q 2900 3844 2670 4047 
Q 2441 4250 2034 4250 
Q 1625 4250 1398 4047 
Q 1172 3844 1172 3481 
z
" transform="scale(0.015625)"/>
      <path id="DejaVuSans-37" d="M 525 4666 
L 3525 4666 
L 3525 4397 
L 1831 0 
L 1172 0 
L 2766 4134 
L 525 4134 
L 525 4666 
z
" transform="scale(0.015625)"/>
      <path id="DejaVuSans-b1" d="M 2944 4013 
L 2944 2803 
L 4684 2803 
L 4684 2272 
L 2944 2272 
L 2944 1063 
L 2419 1063 
L 2419 2272 
L 678 2272 
L 678 2803 
L 2419 2803 
L 2419 4013 
L 2944 4013 
z
M 678 531 
L 4684 531 
L 4684 0 
L 678 0 
L 678 531 
z
" transform="scale(0.015625)"/>
      <path id="DejaVuSans-6b" d="M 581 4863 
L 1159 4863 
L 1159 1991 
L 2875 3500 
L 3609 3500 
L 1753 1863 
L 3688 0 
L 2938 0 
L 1159 1709 
L 1159 0 
L 581 0 
L 581 4863 
z
" transform="scale(0.015625)"/>
     </defs>
     <use xlink:href="#DejaVuSans-Oblique-51" transform="translate(0 0.015625)"/>
     <use xlink:href="#DejaVuSans-Oblique-49" transform="translate(78.710938 -16.390625) scale(0.7)"/>
     <use xlink:href="#DejaVuSans-3a" transform="translate(102.089844 0.015625)"/>
     <use xlink:href="#DejaVuSans-20" transform="translate(135.78125 0.015625)"/>
     <use xlink:href="#DejaVuSans-31" transform="translate(167.568359 0.015625)"/>
     <use xlink:href="#DejaVuSans-30" transform="translate(231.191406 0.015625)"/>
     <use xlink:href="#DejaVuSans-31" transform="translate(294.814453 0.015625)"/>
     <use xlink:href="#DejaVuSans-2e" transform="translate(358.4375 0.015625)"/>
     <use xlink:href="#DejaVuSans-38" transform="translate(387.599609 0.015625)"/>
     <use xlink:href="#DejaVuSans-37" transform="translate(451.222656 0.015625)"/>
     <use xlink:href="#DejaVuSans-b1" transform="translate(514.845703 0.015625)"/>
     <use xlink:href="#DejaVuSans-30" transform="translate(598.634766 0.015625)"/>
     <use xlink:href="#DejaVuSans-2e" transform="translate(662.257812 0.015625)"/>
     <use xlink:href="#DejaVuSans-37" transform="translate(686.294922 0.015625)"/>
     <use xlink:href="#DejaVuSans-35" transform="translate(749.917969 0.015625)"/>
     <use xlink:href="#DejaVuSans-20" transform="translate(813.541016 0.015625)"/>
     <use xlink:href="#DejaVuSans-6b" transform="translate(845.328125 0.015625)"/>
    </g>
    <!-- $Q_C$: 17.739$\pm$0.026 k -->
    <g transform="translate(419.186937 85.059663) scale(0.1 -0.1)">
     <defs>
      <path id="DejaVuSans-Oblique-43" d="M 4447 4306 
L 4319 3641 
Q 4019 3944 3683 4091 
Q 3347 4238 2956 4238 
Q 2422 4238 2017 3981 
Q 1613 3725 1319 3200 
Q 1131 2863 1032 2486 
Q 934 2109 934 1728 
Q 934 1091 1264 756 
Q 1594 422 2222 422 
Q 2656 422 3056 561 
Q 3456 700 3834 978 
L 3688 231 
Q 3316 72 2936 -9 
Q 2556 -91 2175 -91 
Q 1278 -91 773 396 
Q 269 884 269 1753 
Q 269 2309 461 2846 
Q 653 3384 1013 3828 
Q 1394 4300 1883 4525 
Q 2372 4750 3022 4750 
Q 3422 4750 3780 4639 
Q 4138 4528 4447 4306 
z
" transform="scale(0.015625)"/>
      <path id="DejaVuSans-33" d="M 2597 2516 
Q 3050 2419 3304 2112 
Q 3559 1806 3559 1356 
Q 3559 666 3084 287 
Q 2609 -91 1734 -91 
Q 1441 -91 1130 -33 
Q 819 25 488 141 
L 488 750 
Q 750 597 1062 519 
Q 1375 441 1716 441 
Q 2309 441 2620 675 
Q 2931 909 2931 1356 
Q 2931 1769 2642 2001 
Q 2353 2234 1838 2234 
L 1294 2234 
L 1294 2753 
L 1863 2753 
Q 2328 2753 2575 2939 
Q 2822 3125 2822 3475 
Q 2822 3834 2567 4026 
Q 2313 4219 1838 4219 
Q 1578 4219 1281 4162 
Q 984 4106 628 3988 
L 628 4550 
Q 988 4650 1302 4700 
Q 1616 4750 1894 4750 
Q 2613 4750 3031 4423 
Q 3450 4097 3450 3541 
Q 3450 3153 3228 2886 
Q 3006 2619 2597 2516 
z
" transform="scale(0.015625)"/>
      <path id="DejaVuSans-39" d="M 703 97 
L 703 672 
Q 941 559 1184 500 
Q 1428 441 1663 441 
Q 2288 441 2617 861 
Q 2947 1281 2994 2138 
Q 2813 1869 2534 1725 
Q 2256 1581 1919 1581 
Q 1219 1581 811 2004 
Q 403 2428 403 3163 
Q 403 3881 828 4315 
Q 1253 4750 1959 4750 
Q 2769 4750 3195 4129 
Q 3622 3509 3622 2328 
Q 3622 1225 3098 567 
Q 2575 -91 1691 -91 
Q 1453 -91 1209 -44 
Q 966 3 703 97 
z
M 1959 2075 
Q 2384 2075 2632 2365 
Q 2881 2656 2881 3163 
Q 2881 3666 2632 3958 
Q 2384 4250 1959 4250 
Q 1534 4250 1286 3958 
Q 1038 3666 1038 3163 
Q 1038 2656 1286 2365 
Q 1534 2075 1959 2075 
z
" transform="scale(0.015625)"/>
      <path id="DejaVuSans-36" d="M 2113 2584 
Q 1688 2584 1439 2293 
Q 1191 2003 1191 1497 
Q 1191 994 1439 701 
Q 1688 409 2113 409 
Q 2538 409 2786 701 
Q 3034 994 3034 1497 
Q 3034 2003 2786 2293 
Q 2538 2584 2113 2584 
z
M 3366 4563 
L 3366 3988 
Q 3128 4100 2886 4159 
Q 2644 4219 2406 4219 
Q 1781 4219 1451 3797 
Q 1122 3375 1075 2522 
Q 1259 2794 1537 2939 
Q 1816 3084 2150 3084 
Q 2853 3084 3261 2657 
Q 3669 2231 3669 1497 
Q 3669 778 3244 343 
Q 2819 -91 2113 -91 
Q 1303 -91 875 529 
Q 447 1150 447 2328 
Q 447 3434 972 4092 
Q 1497 4750 2381 4750 
Q 2619 4750 2861 4703 
Q 3103 4656 3366 4563 
z
" transform="scale(0.015625)"/>
     </defs>
     <use xlink:href="#DejaVuSans-Oblique-51" transform="translate(0 0.015625)"/>
     <use xlink:href="#DejaVuSans-Oblique-43" transform="translate(78.710938 -16.390625) scale(0.7)"/>
     <use xlink:href="#DejaVuSans-3a" transform="translate(130.322266 0.015625)"/>
     <use xlink:href="#DejaVuSans-20" transform="translate(164.013672 0.015625)"/>
     <use xlink:href="#DejaVuSans-31" transform="translate(195.800781 0.015625)"/>
     <use xlink:href="#DejaVuSans-37" transform="translate(259.423828 0.015625)"/>
     <use xlink:href="#DejaVuSans-2e" transform="translate(323.046875 0.015625)"/>
     <use xlink:href="#DejaVuSans-37" transform="translate(347.083984 0.015625)"/>
     <use xlink:href="#DejaVuSans-33" transform="translate(410.707031 0.015625)"/>
     <use xlink:href="#DejaVuSans-39" transform="translate(474.330078 0.015625)"/>
     <use xlink:href="#DejaVuSans-b1" transform="translate(537.953125 0.015625)"/>
     <use xlink:href="#DejaVuSans-30" transform="translate(621.742188 0.015625)"/>
     <use xlink:href="#DejaVuSans-2e" transform="translate(685.365234 0.015625)"/>
     <use xlink:href="#DejaVuSans-30" transform="translate(717.152344 0.015625)"/>
     <use xlink:href="#DejaVuSans-32" transform="translate(780.775391 0.015625)"/>
     <use xlink:href="#DejaVuSans-36" transform="translate(844.398438 0.015625)"/>
     <use xlink:href="#DejaVuSans-20" transform="translate(908.021484 0.015625)"/>
     <use xlink:href="#DejaVuSans-6b" transform="translate(939.808594 0.015625)"/>
    </g>
    <!-- $f_{res}$: 7.09640900$\pm$4.4e-07 GHz -->
    <g transform="translate(419.186937 96.257475) scale(0.1 -0.1)">
     <defs>
      <path id="DejaVuSans-Oblique-66" d="M 3059 4863 
L 2969 4384 
L 2419 4384 
Q 2106 4384 1964 4261 
Q 1822 4138 1753 3809 
L 1691 3500 
L 2638 3500 
L 2553 3053 
L 1606 3053 
L 1013 0 
L 434 0 
L 1031 3053 
L 481 3053 
L 563 3500 
L 1113 3500 
L 1159 3744 
Q 1278 4363 1576 4613 
Q 1875 4863 2516 4863 
L 3059 4863 
z
" transform="scale(0.015625)"/>
      <path id="DejaVuSans-Oblique-72" d="M 2853 2969 
Q 2766 3016 2653 3041 
Q 2541 3066 2413 3066 
Q 1953 3066 1609 2717 
Q 1266 2369 1153 1784 
L 800 0 
L 225 0 
L 909 3500 
L 1484 3500 
L 1375 2956 
Q 1603 3259 1920 3421 
Q 2238 3584 2597 3584 
Q 2691 3584 2781 3573 
Q 2872 3563 2963 3538 
L 2853 2969 
z
" transform="scale(0.015625)"/>
      <path id="DejaVuSans-Oblique-65" d="M 3078 2063 
Q 3088 2113 3092 2166 
Q 3097 2219 3097 2272 
Q 3097 2653 2873 2875 
Q 2650 3097 2266 3097 
Q 1838 3097 1509 2826 
Q 1181 2556 1013 2059 
L 3078 2063 
z
M 3578 1613 
L 903 1613 
Q 884 1494 878 1425 
Q 872 1356 872 1306 
Q 872 872 1139 634 
Q 1406 397 1894 397 
Q 2269 397 2603 481 
Q 2938 566 3225 728 
L 3116 159 
Q 2806 34 2476 -28 
Q 2147 -91 1806 -91 
Q 1078 -91 686 257 
Q 294 606 294 1247 
Q 294 1794 489 2264 
Q 684 2734 1063 3103 
Q 1306 3334 1642 3459 
Q 1978 3584 2356 3584 
Q 2950 3584 3301 3228 
Q 3653 2872 3653 2272 
Q 3653 2128 3634 1964 
Q 3616 1800 3578 1613 
z
" transform="scale(0.015625)"/>
      <path id="DejaVuSans-Oblique-73" d="M 3200 3397 
L 3091 2853 
Q 2863 2978 2609 3040 
Q 2356 3103 2088 3103 
Q 1634 3103 1373 2948 
Q 1113 2794 1113 2528 
Q 1113 2219 1719 2053 
Q 1766 2041 1788 2034 
L 1972 1978 
Q 2547 1819 2739 1644 
Q 2931 1469 2931 1166 
Q 2931 609 2489 259 
Q 2047 -91 1331 -91 
Q 1053 -91 747 -37 
Q 441 16 72 128 
L 184 722 
Q 500 559 806 475 
Q 1113 391 1394 391 
Q 1816 391 2080 572 
Q 2344 753 2344 1031 
Q 2344 1331 1650 1516 
L 1591 1531 
L 1394 1581 
Q 956 1697 753 1886 
Q 550 2075 550 2369 
Q 550 2928 970 3256 
Q 1391 3584 2113 3584 
Q 2397 3584 2667 3537 
Q 2938 3491 3200 3397 
z
" transform="scale(0.015625)"/>
      <path id="DejaVuSans-34" d="M 2419 4116 
L 825 1625 
L 2419 1625 
L 2419 4116 
z
M 2253 4666 
L 3047 4666 
L 3047 1625 
L 3713 1625 
L 3713 1100 
L 3047 1100 
L 3047 0 
L 2419 0 
L 2419 1100 
L 313 1100 
L 313 1709 
L 2253 4666 
z
" transform="scale(0.015625)"/>
      <path id="DejaVuSans-47" d="M 3809 666 
L 3809 1919 
L 2778 1919 
L 2778 2438 
L 4434 2438 
L 4434 434 
Q 4069 175 3628 42 
Q 3188 -91 2688 -91 
Q 1594 -91 976 548 
Q 359 1188 359 2328 
Q 359 3472 976 4111 
Q 1594 4750 2688 4750 
Q 3144 4750 3555 4637 
Q 3966 4525 4313 4306 
L 4313 3634 
Q 3963 3931 3569 4081 
Q 3175 4231 2741 4231 
Q 1884 4231 1454 3753 
Q 1025 3275 1025 2328 
Q 1025 1384 1454 906 
Q 1884 428 2741 428 
Q 3075 428 3337 486 
Q 3600 544 3809 666 
z
" transform="scale(0.015625)"/>
      <path id="DejaVuSans-48" d="M 628 4666 
L 1259 4666 
L 1259 2753 
L 3553 2753 
L 3553 4666 
L 4184 4666 
L 4184 0 
L 3553 0 
L 3553 2222 
L 1259 2222 
L 1259 0 
L 628 0 
L 628 4666 
z
" transform="scale(0.015625)"/>
      <path id="DejaVuSans-7a" d="M 353 3500 
L 3084 3500 
L 3084 2975 
L 922 459 
L 3084 459 
L 3084 0 
L 275 0 
L 275 525 
L 2438 3041 
L 353 3041 
L 353 3500 
z
" transform="scale(0.015625)"/>
     </defs>
     <use xlink:href="#DejaVuSans-Oblique-66" transform="translate(0 0.015625)"/>
     <use xlink:href="#DejaVuSans-Oblique-72" transform="translate(35.205078 -16.390625) scale(0.7)"/>
     <use xlink:href="#DejaVuSans-Oblique-65" transform="translate(63.984375 -16.390625) scale(0.7)"/>
     <use xlink:href="#DejaVuSans-Oblique-73" transform="translate(107.050781 -16.390625) scale(0.7)"/>
     <use xlink:href="#DejaVuSans-3a" transform="translate(146.254883 0.015625)"/>
     <use xlink:href="#DejaVuSans-20" transform="translate(179.946289 0.015625)"/>
     <use xlink:href="#DejaVuSans-37" transform="translate(211.733398 0.015625)"/>
     <use xlink:href="#DejaVuSans-2e" transform="translate(275.356445 0.015625)"/>
     <use xlink:href="#DejaVuSans-30" transform="translate(307.143555 0.015625)"/>
     <use xlink:href="#DejaVuSans-39" transform="translate(370.766602 0.015625)"/>
     <use xlink:href="#DejaVuSans-36" transform="translate(434.389648 0.015625)"/>
     <use xlink:href="#DejaVuSans-34" transform="translate(498.012695 0.015625)"/>
     <use xlink:href="#DejaVuSans-30" transform="translate(561.635742 0.015625)"/>
     <use xlink:href="#DejaVuSans-39" transform="translate(625.258789 0.015625)"/>
     <use xlink:href="#DejaVuSans-30" transform="translate(688.881836 0.015625)"/>
     <use xlink:href="#DejaVuSans-30" transform="translate(752.504883 0.015625)"/>
     <use xlink:href="#DejaVuSans-b1" transform="translate(816.12793 0.015625)"/>
     <use xlink:href="#DejaVuSans-34" transform="translate(899.916992 0.015625)"/>
     <use xlink:href="#DejaVuSans-2e" transform="translate(963.540039 0.015625)"/>
     <use xlink:href="#DejaVuSans-34" transform="translate(995.327148 0.015625)"/>
     <use xlink:href="#DejaVuSans-65" transform="translate(1058.950195 0.015625)"/>
     <use xlink:href="#DejaVuSans-2d" transform="translate(1120.473633 0.015625)"/>
     <use xlink:href="#DejaVuSans-30" transform="translate(1156.557617 0.015625)"/>
     <use xlink:href="#DejaVuSans-37" transform="translate(1220.180664 0.015625)"/>
     <use xlink:href="#DejaVuSans-20" transform="translate(1283.803711 0.015625)"/>
     <use xlink:href="#DejaVuSans-47" transform="translate(1315.59082 0.015625)"/>
     <use xlink:href="#DejaVuSans-48" transform="translate(1393.081055 0.015625)"/>
     <use xlink:href="#DejaVuSans-7a" transform="translate(1468.276367 0.015625)"/>
    </g>
    <!-- $f_{opt}$: 7.0964 GHz -->
    <g transform="translate(419.186937 107.457163) scale(0.1 -0.1)">
     <defs>
      <path id="DejaVuSans-Oblique-6f" d="M 1625 -91 
Q 1009 -91 651 289 
Q 294 669 294 1325 
Q 294 1706 417 2101 
Q 541 2497 738 2766 
Q 1047 3184 1428 3384 
Q 1809 3584 2291 3584 
Q 2888 3584 3255 3212 
Q 3622 2841 3622 2241 
Q 3622 1825 3500 1412 
Q 3378 1000 3181 728 
Q 2875 309 2494 109 
Q 2113 -91 1625 -91 
z
M 891 1344 
Q 891 869 1089 633 
Q 1288 397 1691 397 
Q 2269 397 2648 901 
Q 3028 1406 3028 2181 
Q 3028 2634 2825 2865 
Q 2622 3097 2228 3097 
Q 1903 3097 1650 2945 
Q 1397 2794 1197 2484 
Q 1050 2253 970 1956 
Q 891 1659 891 1344 
z
" transform="scale(0.015625)"/>
      <path id="DejaVuSans-Oblique-70" d="M 3175 2156 
Q 3175 2616 2975 2859 
Q 2775 3103 2400 3103 
Q 2144 3103 1911 2972 
Q 1678 2841 1497 2591 
Q 1319 2344 1212 1994 
Q 1106 1644 1106 1300 
Q 1106 863 1306 627 
Q 1506 391 1875 391 
Q 2147 391 2380 519 
Q 2613 647 2778 891 
Q 2956 1147 3065 1494 
Q 3175 1841 3175 2156 
z
M 1394 2969 
Q 1625 3272 1939 3428 
Q 2253 3584 2638 3584 
Q 3175 3584 3472 3232 
Q 3769 2881 3769 2247 
Q 3769 1728 3584 1258 
Q 3400 788 3053 416 
Q 2822 169 2531 39 
Q 2241 -91 1919 -91 
Q 1547 -91 1294 64 
Q 1041 219 916 525 
L 556 -1331 
L -19 -1331 
L 922 3500 
L 1497 3500 
L 1394 2969 
z
" transform="scale(0.015625)"/>
      <path id="DejaVuSans-Oblique-74" d="M 2706 3500 
L 2619 3053 
L 1472 3053 
L 1100 1153 
Q 1081 1047 1072 975 
Q 1063 903 1063 863 
Q 1063 663 1183 572 
Q 1303 481 1569 481 
L 2150 481 
L 2053 0 
L 1503 0 
Q 991 0 739 200 
Q 488 400 488 806 
Q 488 878 497 964 
Q 506 1050 525 1153 
L 897 3053 
L 409 3053 
L 500 3500 
L 978 3500 
L 1172 4494 
L 1747 4494 
L 1556 3500 
L 2706 3500 
z
" transform="scale(0.015625)"/>
     </defs>
     <use xlink:href="#DejaVuSans-Oblique-66" transform="translate(0 0.015625)"/>
     <use xlink:href="#DejaVuSans-Oblique-6f" transform="translate(35.205078 -16.390625) scale(0.7)"/>
     <use xlink:href="#DejaVuSans-Oblique-70" transform="translate(78.032227 -16.390625) scale(0.7)"/>
     <use xlink:href="#DejaVuSans-Oblique-74" transform="translate(122.46582 -16.390625) scale(0.7)"/>
     <use xlink:href="#DejaVuSans-3a" transform="translate(152.646484 0.015625)"/>
     <use xlink:href="#DejaVuSans-20" transform="translate(186.337891 0.015625)"/>
     <use xlink:href="#DejaVuSans-37" transform="translate(218.125 0.015625)"/>
     <use xlink:href="#DejaVuSans-2e" transform="translate(281.748047 0.015625)"/>
     <use xlink:href="#DejaVuSans-30" transform="translate(313.535156 0.015625)"/>
     <use xlink:href="#DejaVuSans-39" transform="translate(377.158203 0.015625)"/>
     <use xlink:href="#DejaVuSans-36" transform="translate(440.78125 0.015625)"/>
     <use xlink:href="#DejaVuSans-34" transform="translate(504.404297 0.015625)"/>
     <use xlink:href="#DejaVuSans-20" transform="translate(568.027344 0.015625)"/>
     <use xlink:href="#DejaVuSans-47" transform="translate(599.814453 0.015625)"/>
     <use xlink:href="#DejaVuSans-48" transform="translate(677.304688 0.015625)"/>
     <use xlink:href="#DejaVuSans-7a" transform="translate(752.5 0.015625)"/>
    </g>
   </g>
  </g>
  <g id="text_14">
   <!-- S21 Resonator spectroscopy q00 -->
   <g transform="translate(118.308125 16.318125) scale(0.12 -0.12)">
    <defs>
     <path id="DejaVuSans-73" d="M 2834 3397 
L 2834 2853 
Q 2591 2978 2328 3040 
Q 2066 3103 1784 3103 
Q 1356 3103 1142 2972 
Q 928 2841 928 2578 
Q 928 2378 1081 2264 
Q 1234 2150 1697 2047 
L 1894 2003 
Q 2506 1872 2764 1633 
Q 3022 1394 3022 966 
Q 3022 478 2636 193 
Q 2250 -91 1575 -91 
Q 1294 -91 989 -36 
Q 684 19 347 128 
L 347 722 
Q 666 556 975 473 
Q 1284 391 1588 391 
Q 1994 391 2212 530 
Q 2431 669 2431 922 
Q 2431 1156 2273 1281 
Q 2116 1406 1581 1522 
L 1381 1569 
Q 847 1681 609 1914 
Q 372 2147 372 2553 
Q 372 3047 722 3315 
Q 1072 3584 1716 3584 
Q 2034 3584 2315 3537 
Q 2597 3491 2834 3397 
z
" transform="scale(0.015625)"/>
     <path id="DejaVuSans-6f" d="M 1959 3097 
Q 1497 3097 1228 2736 
Q 959 2375 959 1747 
Q 959 1119 1226 758 
Q 1494 397 1959 397 
Q 2419 397 2687 759 
Q 2956 1122 2956 1747 
Q 2956 2369 2687 2733 
Q 2419 3097 1959 3097 
z
M 1959 3584 
Q 2709 3584 3137 3096 
Q 3566 2609 3566 1747 
Q 3566 888 3137 398 
Q 2709 -91 1959 -91 
Q 1206 -91 779 398 
Q 353 888 353 1747 
Q 353 2609 779 3096 
Q 1206 3584 1959 3584 
z
" transform="scale(0.015625)"/>
     <path id="DejaVuSans-6e" d="M 3513 2113 
L 3513 0 
L 2938 0 
L 2938 2094 
Q 2938 2591 2744 2837 
Q 2550 3084 2163 3084 
Q 1697 3084 1428 2787 
Q 1159 2491 1159 1978 
L 1159 0 
L 581 0 
L 581 3500 
L 1159 3500 
L 1159 2956 
Q 1366 3272 1645 3428 
Q 1925 3584 2291 3584 
Q 2894 3584 3203 3211 
Q 3513 2838 3513 2113 
z
" transform="scale(0.015625)"/>
     <path id="DejaVuSans-74" d="M 1172 4494 
L 1172 3500 
L 2356 3500 
L 2356 3053 
L 1172 3053 
L 1172 1153 
Q 1172 725 1289 603 
Q 1406 481 1766 481 
L 2356 481 
L 2356 0 
L 1766 0 
Q 1100 0 847 248 
Q 594 497 594 1153 
L 594 3053 
L 172 3053 
L 172 3500 
L 594 3500 
L 594 4494 
L 1172 4494 
z
" transform="scale(0.015625)"/>
     <path id="DejaVuSans-70" d="M 1159 525 
L 1159 -1331 
L 581 -1331 
L 581 3500 
L 1159 3500 
L 1159 2969 
Q 1341 3281 1617 3432 
Q 1894 3584 2278 3584 
Q 2916 3584 3314 3078 
Q 3713 2572 3713 1747 
Q 3713 922 3314 415 
Q 2916 -91 2278 -91 
Q 1894 -91 1617 61 
Q 1341 213 1159 525 
z
M 3116 1747 
Q 3116 2381 2855 2742 
Q 2594 3103 2138 3103 
Q 1681 3103 1420 2742 
Q 1159 2381 1159 1747 
Q 1159 1113 1420 752 
Q 1681 391 2138 391 
Q 2594 391 2855 752 
Q 3116 1113 3116 1747 
z
" transform="scale(0.015625)"/>
     <path id="DejaVuSans-63" d="M 3122 3366 
L 3122 2828 
Q 2878 2963 2633 3030 
Q 2388 3097 2138 3097 
Q 1578 3097 1268 2742 
Q 959 2388 959 1747 
Q 959 1106 1268 751 
Q 1578 397 2138 397 
Q 2388 397 2633 464 
Q 2878 531 3122 666 
L 3122 134 
Q 2881 22 2623 -34 
Q 2366 -91 2075 -91 
Q 1284 -91 818 406 
Q 353 903 353 1747 
Q 353 2603 823 3093 
Q 1294 3584 2113 3584 
Q 2378 3584 2631 3529 
Q 2884 3475 3122 3366 
z
" transform="scale(0.015625)"/>
     <path id="DejaVuSans-71" d="M 947 1747 
Q 947 1113 1208 752 
Q 1469 391 1925 391 
Q 2381 391 2643 752 
Q 2906 1113 2906 1747 
Q 2906 2381 2643 2742 
Q 2381 3103 1925 3103 
Q 1469 3103 1208 2742 
Q 947 2381 947 1747 
z
M 2906 525 
Q 2725 213 2448 61 
Q 2172 -91 1784 -91 
Q 1150 -91 751 415 
Q 353 922 353 1747 
Q 353 2572 751 3078 
Q 1150 3584 1784 3584 
Q 2172 3584 2448 3432 
Q 2725 3281 2906 2969 
L 2906 3500 
L 3481 3500 
L 3481 -1331 
L 2906 -1331 
L 2906 525 
z
" transform="scale(0.015625)"/>
    </defs>
    <use xlink:href="#DejaVuSans-53"/>
    <use xlink:href="#DejaVuSans-32" x="63.476562"/>
    <use xlink:href="#DejaVuSans-31" x="127.099609"/>
    <use xlink:href="#DejaVuSans-20" x="190.722656"/>
    <use xlink:href="#DejaVuSans-52" x="222.509766"/>
    <use xlink:href="#DejaVuSans-65" x="287.492188"/>
    <use xlink:href="#DejaVuSans-73" x="349.015625"/>
    <use xlink:href="#DejaVuSans-6f" x="401.115234"/>
    <use xlink:href="#DejaVuSans-6e" x="462.296875"/>
    <use xlink:href="#DejaVuSans-61" x="525.675781"/>
    <use xlink:href="#DejaVuSans-74" x="586.955078"/>
    <use xlink:href="#DejaVuSans-6f" x="626.164062"/>
    <use xlink:href="#DejaVuSans-72" x="687.345703"/>
    <use xlink:href="#DejaVuSans-20" x="728.458984"/>
    <use xlink:href="#DejaVuSans-73" x="760.246094"/>
    <use xlink:href="#DejaVuSans-70" x="812.345703"/>
    <use xlink:href="#DejaVuSans-65" x="875.822266"/>
    <use xlink:href="#DejaVuSans-63" x="937.345703"/>
    <use xlink:href="#DejaVuSans-74" x="992.326172"/>
    <use xlink:href="#DejaVuSans-72" x="1031.535156"/>
    <use xlink:href="#DejaVuSans-6f" x="1070.398438"/>
    <use xlink:href="#DejaVuSans-73" x="1131.580078"/>
    <use xlink:href="#DejaVuSans-63" x="1183.679688"/>
    <use xlink:href="#DejaVuSans-6f" x="1238.660156"/>
    <use xlink:href="#DejaVuSans-70" x="1299.841797"/>
    <use xlink:href="#DejaVuSans-79" x="1363.318359"/>
    <use xlink:href="#DejaVuSans-20" x="1422.498047"/>
    <use xlink:href="#DejaVuSans-71" x="1454.285156"/>
    <use xlink:href="#DejaVuSans-30" x="1517.761719"/>
    <use xlink:href="#DejaVuSans-30" x="1581.384766"/>
   </g>
   <!-- tuid: 20241114-110117-955-0b4834 -->
   <g transform="translate(107.164063 29.7555) scale(0.12 -0.12)">
    <defs>
     <path id="DejaVuSans-69" d="M 603 3500 
L 1178 3500 
L 1178 0 
L 603 0 
L 603 3500 
z
M 603 4863 
L 1178 4863 
L 1178 4134 
L 603 4134 
L 603 4863 
z
" transform="scale(0.015625)"/>
     <path id="DejaVuSans-64" d="M 2906 2969 
L 2906 4863 
L 3481 4863 
L 3481 0 
L 2906 0 
L 2906 525 
Q 2725 213 2448 61 
Q 2172 -91 1784 -91 
Q 1150 -91 751 415 
Q 353 922 353 1747 
Q 353 2572 751 3078 
Q 1150 3584 1784 3584 
Q 2172 3584 2448 3432 
Q 2725 3281 2906 2969 
z
M 947 1747 
Q 947 1113 1208 752 
Q 1469 391 1925 391 
Q 2381 391 2643 752 
Q 2906 1113 2906 1747 
Q 2906 2381 2643 2742 
Q 2381 3103 1925 3103 
Q 1469 3103 1208 2742 
Q 947 2381 947 1747 
z
" transform="scale(0.015625)"/>
     <path id="DejaVuSans-62" d="M 3116 1747 
Q 3116 2381 2855 2742 
Q 2594 3103 2138 3103 
Q 1681 3103 1420 2742 
Q 1159 2381 1159 1747 
Q 1159 1113 1420 752 
Q 1681 391 2138 391 
Q 2594 391 2855 752 
Q 3116 1113 3116 1747 
z
M 1159 2969 
Q 1341 3281 1617 3432 
Q 1894 3584 2278 3584 
Q 2916 3584 3314 3078 
Q 3713 2572 3713 1747 
Q 3713 922 3314 415 
Q 2916 -91 2278 -91 
Q 1894 -91 1617 61 
Q 1341 213 1159 525 
L 1159 0 
L 581 0 
L 581 4863 
L 1159 4863 
L 1159 2969 
z
" transform="scale(0.015625)"/>
    </defs>
    <use xlink:href="#DejaVuSans-74"/>
    <use xlink:href="#DejaVuSans-75" x="39.208984"/>
    <use xlink:href="#DejaVuSans-69" x="102.587891"/>
    <use xlink:href="#DejaVuSans-64" x="130.371094"/>
    <use xlink:href="#DejaVuSans-3a" x="193.847656"/>
    <use xlink:href="#DejaVuSans-20" x="227.539062"/>
    <use xlink:href="#DejaVuSans-32" x="259.326172"/>
    <use xlink:href="#DejaVuSans-30" x="322.949219"/>
    <use xlink:href="#DejaVuSans-32" x="386.572266"/>
    <use xlink:href="#DejaVuSans-34" x="450.195312"/>
    <use xlink:href="#DejaVuSans-31" x="513.818359"/>
    <use xlink:href="#DejaVuSans-31" x="577.441406"/>
    <use xlink:href="#DejaVuSans-31" x="641.064453"/>
    <use xlink:href="#DejaVuSans-34" x="704.6875"/>
    <use xlink:href="#DejaVuSans-2d" x="768.310547"/>
    <use xlink:href="#DejaVuSans-31" x="804.394531"/>
    <use xlink:href="#DejaVuSans-31" x="868.017578"/>
    <use xlink:href="#DejaVuSans-30" x="931.640625"/>
    <use xlink:href="#DejaVuSans-31" x="995.263672"/>
    <use xlink:href="#DejaVuSans-31" x="1058.886719"/>
    <use xlink:href="#DejaVuSans-37" x="1122.509766"/>
    <use xlink:href="#DejaVuSans-2d" x="1186.132812"/>
    <use xlink:href="#DejaVuSans-39" x="1222.216797"/>
    <use xlink:href="#DejaVuSans-35" x="1285.839844"/>
    <use xlink:href="#DejaVuSans-35" x="1349.462891"/>
    <use xlink:href="#DejaVuSans-2d" x="1413.085938"/>
    <use xlink:href="#DejaVuSans-30" x="1449.169922"/>
    <use xlink:href="#DejaVuSans-62" x="1512.792969"/>
    <use xlink:href="#DejaVuSans-34" x="1576.269531"/>
    <use xlink:href="#DejaVuSans-38" x="1639.892578"/>
    <use xlink:href="#DejaVuSans-33" x="1703.515625"/>
    <use xlink:href="#DejaVuSans-34" x="1767.138672"/>
   </g>
  </g>
 </g>
 <defs>
  <clipPath id="p52732b9c0e">
   <rect x="44.210938" y="41.76" width="357.12" height="266.112"/>
  </clipPath>
 </defs>
</svg>
