<?xml version="1.0" encoding="utf-8" standalone="no"?>
<!DOCTYPE svg PUBLIC "-//W3C//DTD SVG 1.1//EN"
  "http://www.w3.org/Graphics/SVG/1.1/DTD/svg11.dtd">
<svg xmlns:xlink="http://www.w3.org/1999/xlink" width="584.871312pt" height="345.42825pt" viewBox="0 0 584.871312 345.42825" xmlns="http://www.w3.org/2000/svg" version="1.1">
 <metadata>
  <rdf:RDF xmlns:dc="http://purl.org/dc/elements/1.1/" xmlns:cc="http://creativecommons.org/ns#" xmlns:rdf="http://www.w3.org/1999/02/22-rdf-syntax-ns#">
   <cc:Work>
    <dc:type rdf:resource="http://purl.org/dc/dcmitype/StillImage"/>
    <dc:date>2024-11-14T11:01:24.151489</dc:date>
    <dc:format>image/svg+xml</dc:format>
    <dc:creator>
     <cc:Agent>
      <dc:title>Matplotlib v3.8.0, https://matplotlib.org/</dc:title>
     </cc:Agent>
    </dc:creator>
   </cc:Work>
  </rdf:RDF>
 </metadata>
 <defs>
  <style type="text/css">*{stroke-linejoin: round; stroke-linecap: butt}</style>
 </defs>
 <g id="figure_1">
  <g id="patch_1">
   <path d="M 0 345.42825 
L 584.871312 345.42825 
L 584.871312 -0 
L 0 -0 
L 0 345.42825 
z
" style="fill: none; opacity: 0"/>
  </g>
  <g id="axes_1">
   <g id="patch_2">
    <path d="M 50.595313 162.72 
L 407.715312 162.72 
L 407.715312 41.76 
L 50.595313 41.76 
z
" style="fill: #ffffff"/>
   </g>
   <g id="line2d_1">
    <path d="M 281.579161 162.72 
L 281.579161 41.76 
" clip-path="url(#p3d0a2a677a)" style="fill: none; stroke-dasharray: 5.55,2.4; stroke-dashoffset: 0; stroke: #d3d3d3; stroke-width: 1.5"/>
   </g>
   <g id="line2d_2">
    <path d="M 280.524703 162.72 
L 280.524703 41.76 
" clip-path="url(#p3d0a2a677a)" style="fill: none; stroke-dasharray: 5.55,2.4; stroke-dashoffset: 0; stroke: #808080; stroke-width: 1.5"/>
   </g>
   <g id="matplotlib.axis_1">
    <g id="xtick_1">
     <g id="line2d_3">
      <defs>
       <path id="m53cc9092e2" d="M 0 0 
L 0 3.5 
" style="stroke: #000000; stroke-width: 0.8"/>
      </defs>
      <g>
       <use xlink:href="#m53cc9092e2" x="83.580993" y="162.72" style="stroke: #000000; stroke-width: 0.8"/>
      </g>
     </g>
    </g>
    <g id="xtick_2">
     <g id="line2d_4">
      <g>
       <use xlink:href="#m53cc9092e2" x="124.676505" y="162.72" style="stroke: #000000; stroke-width: 0.8"/>
      </g>
     </g>
    </g>
    <g id="xtick_3">
     <g id="line2d_5">
      <g>
       <use xlink:href="#m53cc9092e2" x="165.772017" y="162.72" style="stroke: #000000; stroke-width: 0.8"/>
      </g>
     </g>
    </g>
    <g id="xtick_4">
     <g id="line2d_6">
      <g>
       <use xlink:href="#m53cc9092e2" x="206.867529" y="162.72" style="stroke: #000000; stroke-width: 0.8"/>
      </g>
     </g>
    </g>
    <g id="xtick_5">
     <g id="line2d_7">
      <g>
       <use xlink:href="#m53cc9092e2" x="247.963041" y="162.72" style="stroke: #000000; stroke-width: 0.8"/>
      </g>
     </g>
    </g>
    <g id="xtick_6">
     <g id="line2d_8">
      <g>
       <use xlink:href="#m53cc9092e2" x="289.058553" y="162.72" style="stroke: #000000; stroke-width: 0.8"/>
      </g>
     </g>
    </g>
    <g id="xtick_7">
     <g id="line2d_9">
      <g>
       <use xlink:href="#m53cc9092e2" x="330.154065" y="162.72" style="stroke: #000000; stroke-width: 0.8"/>
      </g>
     </g>
    </g>
    <g id="xtick_8">
     <g id="line2d_10">
      <g>
       <use xlink:href="#m53cc9092e2" x="371.249577" y="162.72" style="stroke: #000000; stroke-width: 0.8"/>
      </g>
     </g>
    </g>
   </g>
   <g id="matplotlib.axis_2">
    <g id="ytick_1">
     <g id="line2d_11">
      <defs>
       <path id="m16f2f7b065" d="M 0 0 
L -3.5 0 
" style="stroke: #000000; stroke-width: 0.8"/>
      </defs>
      <g>
       <use xlink:href="#m16f2f7b065" x="50.595313" y="153.220761" style="stroke: #000000; stroke-width: 0.8"/>
      </g>
     </g>
     <g id="text_1">
      <!-- 2 -->
      <g transform="translate(37.232813 157.01998) scale(0.1 -0.1)">
       <defs>
        <path id="DejaVuSans-32" d="M 1228 531 
L 3431 531 
L 3431 0 
L 469 0 
L 469 531 
Q 828 903 1448 1529 
Q 2069 2156 2228 2338 
Q 2531 2678 2651 2914 
Q 2772 3150 2772 3378 
Q 2772 3750 2511 3984 
Q 2250 4219 1831 4219 
Q 1534 4219 1204 4116 
Q 875 4013 500 3803 
L 500 4441 
Q 881 4594 1212 4672 
Q 1544 4750 1819 4750 
Q 2544 4750 2975 4387 
Q 3406 4025 3406 3419 
Q 3406 3131 3298 2873 
Q 3191 2616 2906 2266 
Q 2828 2175 2409 1742 
Q 1991 1309 1228 531 
z
" transform="scale(0.015625)"/>
       </defs>
       <use xlink:href="#DejaVuSans-32"/>
      </g>
     </g>
    </g>
    <g id="ytick_2">
     <g id="line2d_12">
      <g>
       <use xlink:href="#m16f2f7b065" x="50.595313" y="130.249519" style="stroke: #000000; stroke-width: 0.8"/>
      </g>
     </g>
     <g id="text_2">
      <!-- 4 -->
      <g transform="translate(37.232813 134.048738) scale(0.1 -0.1)">
       <defs>
        <path id="DejaVuSans-34" d="M 2419 4116 
L 825 1625 
L 2419 1625 
L 2419 4116 
z
M 2253 4666 
L 3047 4666 
L 3047 1625 
L 3713 1625 
L 3713 1100 
L 3047 1100 
L 3047 0 
L 2419 0 
L 2419 1100 
L 313 1100 
L 313 1709 
L 2253 4666 
z
" transform="scale(0.015625)"/>
       </defs>
       <use xlink:href="#DejaVuSans-34"/>
      </g>
     </g>
    </g>
    <g id="ytick_3">
     <g id="line2d_13">
      <g>
       <use xlink:href="#m16f2f7b065" x="50.595313" y="107.278277" style="stroke: #000000; stroke-width: 0.8"/>
      </g>
     </g>
     <g id="text_3">
      <!-- 6 -->
      <g transform="translate(37.232813 111.077495) scale(0.1 -0.1)">
       <defs>
        <path id="DejaVuSans-36" d="M 2113 2584 
Q 1688 2584 1439 2293 
Q 1191 2003 1191 1497 
Q 1191 994 1439 701 
Q 1688 409 2113 409 
Q 2538 409 2786 701 
Q 3034 994 3034 1497 
Q 3034 2003 2786 2293 
Q 2538 2584 2113 2584 
z
M 3366 4563 
L 3366 3988 
Q 3128 4100 2886 4159 
Q 2644 4219 2406 4219 
Q 1781 4219 1451 3797 
Q 1122 3375 1075 2522 
Q 1259 2794 1537 2939 
Q 1816 3084 2150 3084 
Q 2853 3084 3261 2657 
Q 3669 2231 3669 1497 
Q 3669 778 3244 343 
Q 2819 -91 2113 -91 
Q 1303 -91 875 529 
Q 447 1150 447 2328 
Q 447 3434 972 4092 
Q 1497 4750 2381 4750 
Q 2619 4750 2861 4703 
Q 3103 4656 3366 4563 
z
" transform="scale(0.015625)"/>
       </defs>
       <use xlink:href="#DejaVuSans-36"/>
      </g>
     </g>
    </g>
    <g id="ytick_4">
     <g id="line2d_14">
      <g>
       <use xlink:href="#m16f2f7b065" x="50.595313" y="84.307034" style="stroke: #000000; stroke-width: 0.8"/>
      </g>
     </g>
     <g id="text_4">
      <!-- 8 -->
      <g transform="translate(37.232813 88.106253) scale(0.1 -0.1)">
       <defs>
        <path id="DejaVuSans-38" d="M 2034 2216 
Q 1584 2216 1326 1975 
Q 1069 1734 1069 1313 
Q 1069 891 1326 650 
Q 1584 409 2034 409 
Q 2484 409 2743 651 
Q 3003 894 3003 1313 
Q 3003 1734 2745 1975 
Q 2488 2216 2034 2216 
z
M 1403 2484 
Q 997 2584 770 2862 
Q 544 3141 544 3541 
Q 544 4100 942 4425 
Q 1341 4750 2034 4750 
Q 2731 4750 3128 4425 
Q 3525 4100 3525 3541 
Q 3525 3141 3298 2862 
Q 3072 2584 2669 2484 
Q 3125 2378 3379 2068 
Q 3634 1759 3634 1313 
Q 3634 634 3220 271 
Q 2806 -91 2034 -91 
Q 1263 -91 848 271 
Q 434 634 434 1313 
Q 434 1759 690 2068 
Q 947 2378 1403 2484 
z
M 1172 3481 
Q 1172 3119 1398 2916 
Q 1625 2713 2034 2713 
Q 2441 2713 2670 2916 
Q 2900 3119 2900 3481 
Q 2900 3844 2670 4047 
Q 2441 4250 2034 4250 
Q 1625 4250 1398 4047 
Q 1172 3844 1172 3481 
z
" transform="scale(0.015625)"/>
       </defs>
       <use xlink:href="#DejaVuSans-38"/>
      </g>
     </g>
    </g>
    <g id="ytick_5">
     <g id="line2d_15">
      <g>
       <use xlink:href="#m16f2f7b065" x="50.595313" y="61.335792" style="stroke: #000000; stroke-width: 0.8"/>
      </g>
     </g>
     <g id="text_5">
      <!-- 10 -->
      <g transform="translate(30.870313 65.135011) scale(0.1 -0.1)">
       <defs>
        <path id="DejaVuSans-31" d="M 794 531 
L 1825 531 
L 1825 4091 
L 703 3866 
L 703 4441 
L 1819 4666 
L 2450 4666 
L 2450 531 
L 3481 531 
L 3481 0 
L 794 0 
L 794 531 
z
" transform="scale(0.015625)"/>
        <path id="DejaVuSans-30" d="M 2034 4250 
Q 1547 4250 1301 3770 
Q 1056 3291 1056 2328 
Q 1056 1369 1301 889 
Q 1547 409 2034 409 
Q 2525 409 2770 889 
Q 3016 1369 3016 2328 
Q 3016 3291 2770 3770 
Q 2525 4250 2034 4250 
z
M 2034 4750 
Q 2819 4750 3233 4129 
Q 3647 3509 3647 2328 
Q 3647 1150 3233 529 
Q 2819 -91 2034 -91 
Q 1250 -91 836 529 
Q 422 1150 422 2328 
Q 422 3509 836 4129 
Q 1250 4750 2034 4750 
z
" transform="scale(0.015625)"/>
       </defs>
       <use xlink:href="#DejaVuSans-31"/>
       <use xlink:href="#DejaVuSans-30" x="63.623047"/>
      </g>
     </g>
    </g>
    <g id="text_6">
     <!-- $|S_{21}|$ [mV] -->
     <g transform="translate(24.470313 127.19) rotate(-90) scale(0.1 -0.1)">
      <defs>
       <path id="DejaVuSans-7c" d="M 1344 4891 
L 1344 -1509 
L 813 -1509 
L 813 4891 
L 1344 4891 
z
" transform="scale(0.015625)"/>
       <path id="DejaVuSans-Oblique-53" d="M 3859 4513 
L 3738 3897 
Q 3422 4066 3111 4152 
Q 2800 4238 2509 4238 
Q 1944 4238 1609 3991 
Q 1275 3744 1275 3334 
Q 1275 3109 1398 2989 
Q 1522 2869 2034 2731 
L 2413 2638 
Q 3053 2472 3303 2217 
Q 3553 1963 3553 1503 
Q 3553 797 2998 353 
Q 2444 -91 1538 -91 
Q 1166 -91 791 -17 
Q 416 56 38 206 
L 166 856 
Q 513 641 861 531 
Q 1209 422 1556 422 
Q 2147 422 2503 684 
Q 2859 947 2859 1369 
Q 2859 1650 2717 1795 
Q 2575 1941 2106 2059 
L 1728 2156 
Q 1081 2325 845 2545 
Q 609 2766 609 3163 
Q 609 3859 1145 4304 
Q 1681 4750 2541 4750 
Q 2875 4750 3203 4690 
Q 3531 4631 3859 4513 
z
" transform="scale(0.015625)"/>
       <path id="DejaVuSans-20" transform="scale(0.015625)"/>
       <path id="DejaVuSans-5b" d="M 550 4863 
L 1875 4863 
L 1875 4416 
L 1125 4416 
L 1125 -397 
L 1875 -397 
L 1875 -844 
L 550 -844 
L 550 4863 
z
" transform="scale(0.015625)"/>
       <path id="DejaVuSans-6d" d="M 3328 2828 
Q 3544 3216 3844 3400 
Q 4144 3584 4550 3584 
Q 5097 3584 5394 3201 
Q 5691 2819 5691 2113 
L 5691 0 
L 5113 0 
L 5113 2094 
Q 5113 2597 4934 2840 
Q 4756 3084 4391 3084 
Q 3944 3084 3684 2787 
Q 3425 2491 3425 1978 
L 3425 0 
L 2847 0 
L 2847 2094 
Q 2847 2600 2669 2842 
Q 2491 3084 2119 3084 
Q 1678 3084 1418 2786 
Q 1159 2488 1159 1978 
L 1159 0 
L 581 0 
L 581 3500 
L 1159 3500 
L 1159 2956 
Q 1356 3278 1631 3431 
Q 1906 3584 2284 3584 
Q 2666 3584 2933 3390 
Q 3200 3197 3328 2828 
z
" transform="scale(0.015625)"/>
       <path id="DejaVuSans-56" d="M 1831 0 
L 50 4666 
L 709 4666 
L 2188 738 
L 3669 4666 
L 4325 4666 
L 2547 0 
L 1831 0 
z
" transform="scale(0.015625)"/>
       <path id="DejaVuSans-5d" d="M 1947 4863 
L 1947 -844 
L 622 -844 
L 622 -397 
L 1369 -397 
L 1369 4416 
L 622 4416 
L 622 4863 
L 1947 4863 
z
" transform="scale(0.015625)"/>
      </defs>
      <use xlink:href="#DejaVuSans-7c" transform="translate(0 0.578125)"/>
      <use xlink:href="#DejaVuSans-Oblique-53" transform="translate(33.691406 0.578125)"/>
      <use xlink:href="#DejaVuSans-32" transform="translate(97.167969 -15.828125) scale(0.7)"/>
      <use xlink:href="#DejaVuSans-31" transform="translate(141.704102 -15.828125) scale(0.7)"/>
      <use xlink:href="#DejaVuSans-7c" transform="translate(188.974609 0.578125)"/>
      <use xlink:href="#DejaVuSans-20" transform="translate(222.666016 0.578125)"/>
      <use xlink:href="#DejaVuSans-5b" transform="translate(254.453125 0.578125)"/>
      <use xlink:href="#DejaVuSans-6d" transform="translate(293.466797 0.578125)"/>
      <use xlink:href="#DejaVuSans-56" transform="translate(390.878906 0.578125)"/>
      <use xlink:href="#DejaVuSans-5d" transform="translate(459.287109 0.578125)"/>
     </g>
    </g>
   </g>
   <g id="line2d_16">
    <path d="M 66.82804 51.269846 
L 70.937591 51.659352 
L 75.047142 51.932464 
L 79.156693 51.733038 
L 83.266245 51.356654 
L 87.375796 51.564424 
L 91.485347 51.933731 
L 95.594898 51.57301 
L 99.704449 51.916649 
L 103.814001 51.502708 
L 107.923552 51.622582 
L 112.033103 51.545956 
L 116.142654 51.695706 
L 120.252205 51.674595 
L 124.361757 51.413883 
L 128.471308 51.604434 
L 132.580859 51.771202 
L 136.69041 51.668729 
L 140.799962 51.780107 
L 144.909513 51.75999 
L 149.019064 51.848197 
L 153.128615 51.95416 
L 157.238166 52.150215 
L 161.347718 51.892764 
L 165.457269 52.235146 
L 169.56682 52.561016 
L 173.676371 52.139806 
L 177.785922 52.55457 
L 181.895474 52.492934 
L 186.005025 53.380179 
L 190.114576 53.096822 
L 194.224127 53.210945 
L 198.333678 53.815708 
L 202.44323 54.178824 
L 206.552781 54.413379 
L 210.662332 55.338315 
L 214.771883 56.006955 
L 218.881434 56.718275 
L 222.990986 57.028209 
L 227.100537 58.25623 
L 231.210088 59.265285 
L 235.319639 61.013701 
L 239.429191 63.165674 
L 243.538742 64.926117 
L 247.648293 68.137687 
L 251.757844 72.650393 
L 255.867395 77.490289 
L 259.976947 84.939876 
L 264.086498 94.732165 
L 268.196049 107.162838 
L 272.3056 125.293866 
L 276.415151 145.28545 
L 280.524703 156.702412 
L 284.634254 142.28562 
L 288.743805 121.120879 
L 292.853356 102.762901 
L 296.962907 89.346999 
L 301.072459 78.75693 
L 305.18201 70.924535 
L 309.291561 65.986765 
L 313.401112 61.767186 
L 317.510663 58.97181 
L 321.620215 56.633045 
L 325.729766 55.103372 
L 329.839317 53.75065 
L 333.948868 52.448152 
L 338.05842 52.312455 
L 342.167971 50.880559 
L 346.277522 50.757691 
L 350.387073 50.377392 
L 354.496624 49.248353 
L 358.606176 49.258656 
L 362.715727 48.739664 
L 366.825278 48.681694 
L 370.934829 48.579361 
L 375.04438 48.174606 
L 379.153932 48.128497 
L 383.263483 47.583956 
L 387.373034 47.258182 
L 391.482585 47.333653 
" clip-path="url(#p3d0a2a677a)" style="fill: none; stroke: #1f77b4; stroke-width: 1.5; stroke-linecap: square"/>
    <defs>
     <path id="m54cd224097" d="M 0 1.5 
C 0.397805 1.5 0.77937 1.341951 1.06066 1.06066 
C 1.341951 0.77937 1.5 0.397805 1.5 0 
C 1.5 -0.397805 1.341951 -0.77937 1.06066 -1.06066 
C 0.77937 -1.341951 0.397805 -1.5 0 -1.5 
C -0.397805 -1.5 -0.77937 -1.341951 -1.06066 -1.06066 
C -1.341951 -0.77937 -1.5 -0.397805 -1.5 0 
C -1.5 0.397805 -1.341951 0.77937 -1.06066 1.06066 
C -0.77937 1.341951 -0.397805 1.5 0 1.5 
z
" style="stroke: #1f77b4"/>
    </defs>
    <g clip-path="url(#p3d0a2a677a)">
     <use xlink:href="#m54cd224097" x="66.82804" y="51.269846" style="fill: #1f77b4; stroke: #1f77b4"/>
     <use xlink:href="#m54cd224097" x="70.937591" y="51.659352" style="fill: #1f77b4; stroke: #1f77b4"/>
     <use xlink:href="#m54cd224097" x="75.047142" y="51.932464" style="fill: #1f77b4; stroke: #1f77b4"/>
     <use xlink:href="#m54cd224097" x="79.156693" y="51.733038" style="fill: #1f77b4; stroke: #1f77b4"/>
     <use xlink:href="#m54cd224097" x="83.266245" y="51.356654" style="fill: #1f77b4; stroke: #1f77b4"/>
     <use xlink:href="#m54cd224097" x="87.375796" y="51.564424" style="fill: #1f77b4; stroke: #1f77b4"/>
     <use xlink:href="#m54cd224097" x="91.485347" y="51.933731" style="fill: #1f77b4; stroke: #1f77b4"/>
     <use xlink:href="#m54cd224097" x="95.594898" y="51.57301" style="fill: #1f77b4; stroke: #1f77b4"/>
     <use xlink:href="#m54cd224097" x="99.704449" y="51.916649" style="fill: #1f77b4; stroke: #1f77b4"/>
     <use xlink:href="#m54cd224097" x="103.814001" y="51.502708" style="fill: #1f77b4; stroke: #1f77b4"/>
     <use xlink:href="#m54cd224097" x="107.923552" y="51.622582" style="fill: #1f77b4; stroke: #1f77b4"/>
     <use xlink:href="#m54cd224097" x="112.033103" y="51.545956" style="fill: #1f77b4; stroke: #1f77b4"/>
     <use xlink:href="#m54cd224097" x="116.142654" y="51.695706" style="fill: #1f77b4; stroke: #1f77b4"/>
     <use xlink:href="#m54cd224097" x="120.252205" y="51.674595" style="fill: #1f77b4; stroke: #1f77b4"/>
     <use xlink:href="#m54cd224097" x="124.361757" y="51.413883" style="fill: #1f77b4; stroke: #1f77b4"/>
     <use xlink:href="#m54cd224097" x="128.471308" y="51.604434" style="fill: #1f77b4; stroke: #1f77b4"/>
     <use xlink:href="#m54cd224097" x="132.580859" y="51.771202" style="fill: #1f77b4; stroke: #1f77b4"/>
     <use xlink:href="#m54cd224097" x="136.69041" y="51.668729" style="fill: #1f77b4; stroke: #1f77b4"/>
     <use xlink:href="#m54cd224097" x="140.799962" y="51.780107" style="fill: #1f77b4; stroke: #1f77b4"/>
     <use xlink:href="#m54cd224097" x="144.909513" y="51.75999" style="fill: #1f77b4; stroke: #1f77b4"/>
     <use xlink:href="#m54cd224097" x="149.019064" y="51.848197" style="fill: #1f77b4; stroke: #1f77b4"/>
     <use xlink:href="#m54cd224097" x="153.128615" y="51.95416" style="fill: #1f77b4; stroke: #1f77b4"/>
     <use xlink:href="#m54cd224097" x="157.238166" y="52.150215" style="fill: #1f77b4; stroke: #1f77b4"/>
     <use xlink:href="#m54cd224097" x="161.347718" y="51.892764" style="fill: #1f77b4; stroke: #1f77b4"/>
     <use xlink:href="#m54cd224097" x="165.457269" y="52.235146" style="fill: #1f77b4; stroke: #1f77b4"/>
     <use xlink:href="#m54cd224097" x="169.56682" y="52.561016" style="fill: #1f77b4; stroke: #1f77b4"/>
     <use xlink:href="#m54cd224097" x="173.676371" y="52.139806" style="fill: #1f77b4; stroke: #1f77b4"/>
     <use xlink:href="#m54cd224097" x="177.785922" y="52.55457" style="fill: #1f77b4; stroke: #1f77b4"/>
     <use xlink:href="#m54cd224097" x="181.895474" y="52.492934" style="fill: #1f77b4; stroke: #1f77b4"/>
     <use xlink:href="#m54cd224097" x="186.005025" y="53.380179" style="fill: #1f77b4; stroke: #1f77b4"/>
     <use xlink:href="#m54cd224097" x="190.114576" y="53.096822" style="fill: #1f77b4; stroke: #1f77b4"/>
     <use xlink:href="#m54cd224097" x="194.224127" y="53.210945" style="fill: #1f77b4; stroke: #1f77b4"/>
     <use xlink:href="#m54cd224097" x="198.333678" y="53.815708" style="fill: #1f77b4; stroke: #1f77b4"/>
     <use xlink:href="#m54cd224097" x="202.44323" y="54.178824" style="fill: #1f77b4; stroke: #1f77b4"/>
     <use xlink:href="#m54cd224097" x="206.552781" y="54.413379" style="fill: #1f77b4; stroke: #1f77b4"/>
     <use xlink:href="#m54cd224097" x="210.662332" y="55.338315" style="fill: #1f77b4; stroke: #1f77b4"/>
     <use xlink:href="#m54cd224097" x="214.771883" y="56.006955" style="fill: #1f77b4; stroke: #1f77b4"/>
     <use xlink:href="#m54cd224097" x="218.881434" y="56.718275" style="fill: #1f77b4; stroke: #1f77b4"/>
     <use xlink:href="#m54cd224097" x="222.990986" y="57.028209" style="fill: #1f77b4; stroke: #1f77b4"/>
     <use xlink:href="#m54cd224097" x="227.100537" y="58.25623" style="fill: #1f77b4; stroke: #1f77b4"/>
     <use xlink:href="#m54cd224097" x="231.210088" y="59.265285" style="fill: #1f77b4; stroke: #1f77b4"/>
     <use xlink:href="#m54cd224097" x="235.319639" y="61.013701" style="fill: #1f77b4; stroke: #1f77b4"/>
     <use xlink:href="#m54cd224097" x="239.429191" y="63.165674" style="fill: #1f77b4; stroke: #1f77b4"/>
     <use xlink:href="#m54cd224097" x="243.538742" y="64.926117" style="fill: #1f77b4; stroke: #1f77b4"/>
     <use xlink:href="#m54cd224097" x="247.648293" y="68.137687" style="fill: #1f77b4; stroke: #1f77b4"/>
     <use xlink:href="#m54cd224097" x="251.757844" y="72.650393" style="fill: #1f77b4; stroke: #1f77b4"/>
     <use xlink:href="#m54cd224097" x="255.867395" y="77.490289" style="fill: #1f77b4; stroke: #1f77b4"/>
     <use xlink:href="#m54cd224097" x="259.976947" y="84.939876" style="fill: #1f77b4; stroke: #1f77b4"/>
     <use xlink:href="#m54cd224097" x="264.086498" y="94.732165" style="fill: #1f77b4; stroke: #1f77b4"/>
     <use xlink:href="#m54cd224097" x="268.196049" y="107.162838" style="fill: #1f77b4; stroke: #1f77b4"/>
     <use xlink:href="#m54cd224097" x="272.3056" y="125.293866" style="fill: #1f77b4; stroke: #1f77b4"/>
     <use xlink:href="#m54cd224097" x="276.415151" y="145.28545" style="fill: #1f77b4; stroke: #1f77b4"/>
     <use xlink:href="#m54cd224097" x="280.524703" y="156.702412" style="fill: #1f77b4; stroke: #1f77b4"/>
     <use xlink:href="#m54cd224097" x="284.634254" y="142.28562" style="fill: #1f77b4; stroke: #1f77b4"/>
     <use xlink:href="#m54cd224097" x="288.743805" y="121.120879" style="fill: #1f77b4; stroke: #1f77b4"/>
     <use xlink:href="#m54cd224097" x="292.853356" y="102.762901" style="fill: #1f77b4; stroke: #1f77b4"/>
     <use xlink:href="#m54cd224097" x="296.962907" y="89.346999" style="fill: #1f77b4; stroke: #1f77b4"/>
     <use xlink:href="#m54cd224097" x="301.072459" y="78.75693" style="fill: #1f77b4; stroke: #1f77b4"/>
     <use xlink:href="#m54cd224097" x="305.18201" y="70.924535" style="fill: #1f77b4; stroke: #1f77b4"/>
     <use xlink:href="#m54cd224097" x="309.291561" y="65.986765" style="fill: #1f77b4; stroke: #1f77b4"/>
     <use xlink:href="#m54cd224097" x="313.401112" y="61.767186" style="fill: #1f77b4; stroke: #1f77b4"/>
     <use xlink:href="#m54cd224097" x="317.510663" y="58.97181" style="fill: #1f77b4; stroke: #1f77b4"/>
     <use xlink:href="#m54cd224097" x="321.620215" y="56.633045" style="fill: #1f77b4; stroke: #1f77b4"/>
     <use xlink:href="#m54cd224097" x="325.729766" y="55.103372" style="fill: #1f77b4; stroke: #1f77b4"/>
     <use xlink:href="#m54cd224097" x="329.839317" y="53.75065" style="fill: #1f77b4; stroke: #1f77b4"/>
     <use xlink:href="#m54cd224097" x="333.948868" y="52.448152" style="fill: #1f77b4; stroke: #1f77b4"/>
     <use xlink:href="#m54cd224097" x="338.05842" y="52.312455" style="fill: #1f77b4; stroke: #1f77b4"/>
     <use xlink:href="#m54cd224097" x="342.167971" y="50.880559" style="fill: #1f77b4; stroke: #1f77b4"/>
     <use xlink:href="#m54cd224097" x="346.277522" y="50.757691" style="fill: #1f77b4; stroke: #1f77b4"/>
     <use xlink:href="#m54cd224097" x="350.387073" y="50.377392" style="fill: #1f77b4; stroke: #1f77b4"/>
     <use xlink:href="#m54cd224097" x="354.496624" y="49.248353" style="fill: #1f77b4; stroke: #1f77b4"/>
     <use xlink:href="#m54cd224097" x="358.606176" y="49.258656" style="fill: #1f77b4; stroke: #1f77b4"/>
     <use xlink:href="#m54cd224097" x="362.715727" y="48.739664" style="fill: #1f77b4; stroke: #1f77b4"/>
     <use xlink:href="#m54cd224097" x="366.825278" y="48.681694" style="fill: #1f77b4; stroke: #1f77b4"/>
     <use xlink:href="#m54cd224097" x="370.934829" y="48.579361" style="fill: #1f77b4; stroke: #1f77b4"/>
     <use xlink:href="#m54cd224097" x="375.04438" y="48.174606" style="fill: #1f77b4; stroke: #1f77b4"/>
     <use xlink:href="#m54cd224097" x="379.153932" y="48.128497" style="fill: #1f77b4; stroke: #1f77b4"/>
     <use xlink:href="#m54cd224097" x="383.263483" y="47.583956" style="fill: #1f77b4; stroke: #1f77b4"/>
     <use xlink:href="#m54cd224097" x="387.373034" y="47.258182" style="fill: #1f77b4; stroke: #1f77b4"/>
     <use xlink:href="#m54cd224097" x="391.482585" y="47.333653" style="fill: #1f77b4; stroke: #1f77b4"/>
    </g>
   </g>
   <g id="line2d_17">
    <path d="M 66.82804 51.542864 
L 109.400358 51.527943 
L 138.323535 51.72721 
L 159.447204 52.085862 
L 175.371201 52.570775 
L 187.720423 53.159339 
L 197.794788 53.856532 
L 205.919276 54.632315 
L 212.743846 55.496999 
L 218.593478 56.454573 
L 223.79315 57.534797 
L 228.342864 58.7168 
L 232.242618 59.960841 
L 235.817393 61.342564 
L 239.067188 62.852988 
L 241.992004 64.472177 
L 244.59184 66.166963 
L 246.866697 67.889668 
L 249.141553 69.881441 
L 251.41641 72.195461 
L 253.366287 74.484225 
L 255.316164 77.106156 
L 257.266041 80.118778 
L 259.215919 83.588983 
L 261.165796 87.593253 
L 262.790693 91.399322 
L 264.415591 95.687712 
L 266.040489 100.511053 
L 267.990366 107.0726 
L 269.940243 114.532972 
L 271.89012 122.895334 
L 274.164977 133.63063 
L 277.739751 150.699408 
L 278.71469 154.340595 
L 279.364649 156.089401 
L 280.014608 157.069437 
L 280.339588 157.221818 
L 280.664567 157.136292 
L 280.989547 156.814794 
L 281.639506 155.515098 
L 282.289465 153.480733 
L 283.264403 149.464351 
L 284.889301 141.413864 
L 289.763994 116.379063 
L 291.713871 107.610971 
L 293.663748 99.833249 
L 295.613625 93.040288 
L 297.563503 87.166791 
L 299.1884 82.90731 
L 300.813298 79.161817 
L 302.763175 75.262885 
L 304.713052 71.924195 
L 306.662929 69.060806 
L 308.612806 66.598992 
L 310.562684 64.475881 
L 312.83754 62.356757 
L 315.112397 60.557255 
L 317.387254 59.021032 
L 319.98709 57.52969 
L 322.911905 56.124998 
L 326.161701 54.833804 
L 329.736475 53.669856 
L 333.63623 52.636516 
L 338.185943 51.667491 
L 343.385616 50.791856 
L 349.560227 49.983942 
L 357.034756 49.241153 
L 366.134182 48.569787 
L 377.833445 47.945112 
L 391.482585 47.421476 
L 391.482585 47.421476 
" clip-path="url(#p3d0a2a677a)" style="fill: none; stroke: #d62728; stroke-width: 1.5; stroke-linecap: square"/>
   </g>
   <g id="line2d_18">
    <path d="M 66.82804 51.664896 
L 109.725337 51.592798 
L 138.973494 51.754119 
L 160.097163 52.084205 
L 176.02116 52.548517 
L 188.370382 53.123279 
L 198.119768 53.786286 
L 206.244256 54.550765 
L 213.068826 55.408086 
L 218.918457 56.362208 
L 223.79315 57.367734 
L 228.342864 58.536438 
L 232.242618 59.769386 
L 235.817393 61.141599 
L 239.067188 62.644405 
L 241.992004 64.258106 
L 244.59184 65.949648 
L 246.866697 67.671289 
L 249.141553 69.664241 
L 251.41641 71.982401 
L 253.366287 74.277754 
L 255.316164 76.909815 
L 257.266041 79.936928 
L 259.215919 83.426909 
L 261.165796 87.457225 
L 262.790693 91.290466 
L 264.415591 95.611451 
L 266.040489 100.472962 
L 267.990366 107.087178 
L 269.940243 114.605639 
L 271.89012 123.02653 
L 274.489956 135.415351 
L 277.414772 149.462173 
L 278.389711 153.329692 
L 279.03967 155.317745 
L 279.689629 156.61279 
L 280.014608 156.944313 
L 280.339588 157.044675 
L 280.664567 156.908566 
L 280.989547 156.540001 
L 281.639506 155.162344 
L 282.289465 153.074489 
L 283.264403 149.016901 
L 284.889301 140.961761 
L 289.439014 117.618672 
L 291.388892 108.769732 
L 293.338769 100.900692 
L 295.288646 94.015551 
L 297.238523 88.054193 
L 298.863421 83.726667 
L 300.813298 79.213955 
L 302.763175 75.348011 
L 304.713052 72.034798 
L 306.662929 69.190553 
L 308.612806 66.742651 
L 310.562684 64.629198 
L 312.83754 62.517067 
L 315.112397 60.720978 
L 317.712233 58.984619 
L 320.312069 57.522802 
L 323.236885 56.142135 
L 326.48668 54.869116 
L 330.061455 53.71765 
L 333.961209 52.691593 
L 338.510923 51.725372 
L 343.710595 50.848058 
L 349.885206 50.034036 
L 357.359735 49.280557 
L 366.459162 48.593904 
L 378.158425 47.948429 
L 391.482585 47.411951 
L 391.482585 47.411951 
" clip-path="url(#p3d0a2a677a)" style="fill: none; stroke: #9467bd; stroke-width: 1.5; stroke-linecap: square"/>
   </g>
   <g id="patch_3">
    <path d="M 50.595313 162.72 
L 50.595313 41.76 
" style="fill: none; stroke: #000000; stroke-width: 0.8; stroke-linejoin: miter; stroke-linecap: square"/>
   </g>
   <g id="patch_4">
    <path d="M 407.715312 162.72 
L 407.715312 41.76 
" style="fill: none; stroke: #000000; stroke-width: 0.8; stroke-linejoin: miter; stroke-linecap: square"/>
   </g>
   <g id="patch_5">
    <path d="M 50.595313 162.72 
L 407.715313 162.72 
" style="fill: none; stroke: #000000; stroke-width: 0.8; stroke-linejoin: miter; stroke-linecap: square"/>
   </g>
   <g id="patch_6">
    <path d="M 50.595313 41.76 
L 407.715313 41.76 
" style="fill: none; stroke: #000000; stroke-width: 0.8; stroke-linejoin: miter; stroke-linecap: square"/>
   </g>
   <g id="text_7">
    <g id="patch_7">
     <path d="M 425.571312 107.299562 
L 577.671312 107.299562 
Q 581.671312 107.299562 581.671312 103.299562 
L 581.671312 48.828312 
Q 581.671312 44.828312 577.671312 44.828312 
L 425.571312 44.828312 
Q 421.571312 44.828312 421.571312 48.828312 
L 421.571312 103.299562 
Q 421.571312 107.299562 425.571312 107.299562 
z
" style="fill: #ffffff; opacity: 0.5; stroke: #000000; stroke-linejoin: miter"/>
    </g>
    <!-- Summary: -->
    <g transform="translate(425.571312 55.406437) scale(0.1 -0.1)">
     <defs>
      <path id="DejaVuSans-53" d="M 3425 4513 
L 3425 3897 
Q 3066 4069 2747 4153 
Q 2428 4238 2131 4238 
Q 1616 4238 1336 4038 
Q 1056 3838 1056 3469 
Q 1056 3159 1242 3001 
Q 1428 2844 1947 2747 
L 2328 2669 
Q 3034 2534 3370 2195 
Q 3706 1856 3706 1288 
Q 3706 609 3251 259 
Q 2797 -91 1919 -91 
Q 1588 -91 1214 -16 
Q 841 59 441 206 
L 441 856 
Q 825 641 1194 531 
Q 1563 422 1919 422 
Q 2459 422 2753 634 
Q 3047 847 3047 1241 
Q 3047 1584 2836 1778 
Q 2625 1972 2144 2069 
L 1759 2144 
Q 1053 2284 737 2584 
Q 422 2884 422 3419 
Q 422 4038 858 4394 
Q 1294 4750 2059 4750 
Q 2388 4750 2728 4690 
Q 3069 4631 3425 4513 
z
" transform="scale(0.015625)"/>
      <path id="DejaVuSans-75" d="M 544 1381 
L 544 3500 
L 1119 3500 
L 1119 1403 
Q 1119 906 1312 657 
Q 1506 409 1894 409 
Q 2359 409 2629 706 
Q 2900 1003 2900 1516 
L 2900 3500 
L 3475 3500 
L 3475 0 
L 2900 0 
L 2900 538 
Q 2691 219 2414 64 
Q 2138 -91 1772 -91 
Q 1169 -91 856 284 
Q 544 659 544 1381 
z
M 1991 3584 
L 1991 3584 
z
" transform="scale(0.015625)"/>
      <path id="DejaVuSans-61" d="M 2194 1759 
Q 1497 1759 1228 1600 
Q 959 1441 959 1056 
Q 959 750 1161 570 
Q 1363 391 1709 391 
Q 2188 391 2477 730 
Q 2766 1069 2766 1631 
L 2766 1759 
L 2194 1759 
z
M 3341 1997 
L 3341 0 
L 2766 0 
L 2766 531 
Q 2569 213 2275 61 
Q 1981 -91 1556 -91 
Q 1019 -91 701 211 
Q 384 513 384 1019 
Q 384 1609 779 1909 
Q 1175 2209 1959 2209 
L 2766 2209 
L 2766 2266 
Q 2766 2663 2505 2880 
Q 2244 3097 1772 3097 
Q 1472 3097 1187 3025 
Q 903 2953 641 2809 
L 641 3341 
Q 956 3463 1253 3523 
Q 1550 3584 1831 3584 
Q 2591 3584 2966 3190 
Q 3341 2797 3341 1997 
z
" transform="scale(0.015625)"/>
      <path id="DejaVuSans-72" d="M 2631 2963 
Q 2534 3019 2420 3045 
Q 2306 3072 2169 3072 
Q 1681 3072 1420 2755 
Q 1159 2438 1159 1844 
L 1159 0 
L 581 0 
L 581 3500 
L 1159 3500 
L 1159 2956 
Q 1341 3275 1631 3429 
Q 1922 3584 2338 3584 
Q 2397 3584 2469 3576 
Q 2541 3569 2628 3553 
L 2631 2963 
z
" transform="scale(0.015625)"/>
      <path id="DejaVuSans-79" d="M 2059 -325 
Q 1816 -950 1584 -1140 
Q 1353 -1331 966 -1331 
L 506 -1331 
L 506 -850 
L 844 -850 
Q 1081 -850 1212 -737 
Q 1344 -625 1503 -206 
L 1606 56 
L 191 3500 
L 800 3500 
L 1894 763 
L 2988 3500 
L 3597 3500 
L 2059 -325 
z
" transform="scale(0.015625)"/>
      <path id="DejaVuSans-3a" d="M 750 794 
L 1409 794 
L 1409 0 
L 750 0 
L 750 794 
z
M 750 3309 
L 1409 3309 
L 1409 2516 
L 750 2516 
L 750 3309 
z
" transform="scale(0.015625)"/>
     </defs>
     <use xlink:href="#DejaVuSans-53"/>
     <use xlink:href="#DejaVuSans-75" x="63.476562"/>
     <use xlink:href="#DejaVuSans-6d" x="126.855469"/>
     <use xlink:href="#DejaVuSans-6d" x="224.267578"/>
     <use xlink:href="#DejaVuSans-61" x="321.679688"/>
     <use xlink:href="#DejaVuSans-72" x="382.958984"/>
     <use xlink:href="#DejaVuSans-79" x="424.072266"/>
     <use xlink:href="#DejaVuSans-3a" x="476.001953"/>
    </g>
    <!-- $Q_I$: 101.87$\pm$0.75 k -->
    <g transform="translate(425.571312 66.60425) scale(0.1 -0.1)">
     <defs>
      <path id="DejaVuSans-Oblique-51" d="M 2309 -84 
Q 2275 -88 2237 -89 
Q 2200 -91 2125 -91 
Q 1250 -91 756 411 
Q 263 913 263 1797 
Q 263 2319 452 2844 
Q 641 3369 978 3788 
Q 1369 4269 1858 4509 
Q 2347 4750 2938 4750 
Q 3794 4750 4287 4245 
Q 4781 3741 4781 2869 
Q 4781 1928 4265 1147 
Q 3750 366 2919 44 
L 3553 -825 
L 2847 -825 
L 2309 -84 
z
M 2919 4238 
Q 2400 4238 2003 3986 
Q 1606 3734 1313 3219 
Q 1125 2891 1026 2522 
Q 928 2153 928 1778 
Q 928 1128 1239 775 
Q 1550 422 2119 422 
Q 2631 422 3032 676 
Q 3434 931 3719 1434 
Q 3909 1772 4009 2142 
Q 4109 2513 4109 2881 
Q 4109 3528 3796 3883 
Q 3484 4238 2919 4238 
z
" transform="scale(0.015625)"/>
      <path id="DejaVuSans-Oblique-49" d="M 1081 4666 
L 1716 4666 
L 806 0 
L 172 0 
L 1081 4666 
z
" transform="scale(0.015625)"/>
      <path id="DejaVuSans-2e" d="M 684 794 
L 1344 794 
L 1344 0 
L 684 0 
L 684 794 
z
" transform="scale(0.015625)"/>
      <path id="DejaVuSans-37" d="M 525 4666 
L 3525 4666 
L 3525 4397 
L 1831 0 
L 1172 0 
L 2766 4134 
L 525 4134 
L 525 4666 
z
" transform="scale(0.015625)"/>
      <path id="DejaVuSans-b1" d="M 2944 4013 
L 2944 2803 
L 4684 2803 
L 4684 2272 
L 2944 2272 
L 2944 1063 
L 2419 1063 
L 2419 2272 
L 678 2272 
L 678 2803 
L 2419 2803 
L 2419 4013 
L 2944 4013 
z
M 678 531 
L 4684 531 
L 4684 0 
L 678 0 
L 678 531 
z
" transform="scale(0.015625)"/>
      <path id="DejaVuSans-35" d="M 691 4666 
L 3169 4666 
L 3169 4134 
L 1269 4134 
L 1269 2991 
Q 1406 3038 1543 3061 
Q 1681 3084 1819 3084 
Q 2600 3084 3056 2656 
Q 3513 2228 3513 1497 
Q 3513 744 3044 326 
Q 2575 -91 1722 -91 
Q 1428 -91 1123 -41 
Q 819 9 494 109 
L 494 744 
Q 775 591 1075 516 
Q 1375 441 1709 441 
Q 2250 441 2565 725 
Q 2881 1009 2881 1497 
Q 2881 1984 2565 2268 
Q 2250 2553 1709 2553 
Q 1456 2553 1204 2497 
Q 953 2441 691 2322 
L 691 4666 
z
" transform="scale(0.015625)"/>
      <path id="DejaVuSans-6b" d="M 581 4863 
L 1159 4863 
L 1159 1991 
L 2875 3500 
L 3609 3500 
L 1753 1863 
L 3688 0 
L 2938 0 
L 1159 1709 
L 1159 0 
L 581 0 
L 581 4863 
z
" transform="scale(0.015625)"/>
     </defs>
     <use xlink:href="#DejaVuSans-Oblique-51" transform="translate(0 0.015625)"/>
     <use xlink:href="#DejaVuSans-Oblique-49" transform="translate(78.710938 -16.390625) scale(0.7)"/>
     <use xlink:href="#DejaVuSans-3a" transform="translate(102.089844 0.015625)"/>
     <use xlink:href="#DejaVuSans-20" transform="translate(135.78125 0.015625)"/>
     <use xlink:href="#DejaVuSans-31" transform="translate(167.568359 0.015625)"/>
     <use xlink:href="#DejaVuSans-30" transform="translate(231.191406 0.015625)"/>
     <use xlink:href="#DejaVuSans-31" transform="translate(294.814453 0.015625)"/>
     <use xlink:href="#DejaVuSans-2e" transform="translate(358.4375 0.015625)"/>
     <use xlink:href="#DejaVuSans-38" transform="translate(387.599609 0.015625)"/>
     <use xlink:href="#DejaVuSans-37" transform="translate(451.222656 0.015625)"/>
     <use xlink:href="#DejaVuSans-b1" transform="translate(514.845703 0.015625)"/>
     <use xlink:href="#DejaVuSans-30" transform="translate(598.634766 0.015625)"/>
     <use xlink:href="#DejaVuSans-2e" transform="translate(662.257812 0.015625)"/>
     <use xlink:href="#DejaVuSans-37" transform="translate(686.294922 0.015625)"/>
     <use xlink:href="#DejaVuSans-35" transform="translate(749.917969 0.015625)"/>
     <use xlink:href="#DejaVuSans-20" transform="translate(813.541016 0.015625)"/>
     <use xlink:href="#DejaVuSans-6b" transform="translate(845.328125 0.015625)"/>
    </g>
    <!-- $Q_C$: 17.739$\pm$0.026 k -->
    <g transform="translate(425.571312 77.802062) scale(0.1 -0.1)">
     <defs>
      <path id="DejaVuSans-Oblique-43" d="M 4447 4306 
L 4319 3641 
Q 4019 3944 3683 4091 
Q 3347 4238 2956 4238 
Q 2422 4238 2017 3981 
Q 1613 3725 1319 3200 
Q 1131 2863 1032 2486 
Q 934 2109 934 1728 
Q 934 1091 1264 756 
Q 1594 422 2222 422 
Q 2656 422 3056 561 
Q 3456 700 3834 978 
L 3688 231 
Q 3316 72 2936 -9 
Q 2556 -91 2175 -91 
Q 1278 -91 773 396 
Q 269 884 269 1753 
Q 269 2309 461 2846 
Q 653 3384 1013 3828 
Q 1394 4300 1883 4525 
Q 2372 4750 3022 4750 
Q 3422 4750 3780 4639 
Q 4138 4528 4447 4306 
z
" transform="scale(0.015625)"/>
      <path id="DejaVuSans-33" d="M 2597 2516 
Q 3050 2419 3304 2112 
Q 3559 1806 3559 1356 
Q 3559 666 3084 287 
Q 2609 -91 1734 -91 
Q 1441 -91 1130 -33 
Q 819 25 488 141 
L 488 750 
Q 750 597 1062 519 
Q 1375 441 1716 441 
Q 2309 441 2620 675 
Q 2931 909 2931 1356 
Q 2931 1769 2642 2001 
Q 2353 2234 1838 2234 
L 1294 2234 
L 1294 2753 
L 1863 2753 
Q 2328 2753 2575 2939 
Q 2822 3125 2822 3475 
Q 2822 3834 2567 4026 
Q 2313 4219 1838 4219 
Q 1578 4219 1281 4162 
Q 984 4106 628 3988 
L 628 4550 
Q 988 4650 1302 4700 
Q 1616 4750 1894 4750 
Q 2613 4750 3031 4423 
Q 3450 4097 3450 3541 
Q 3450 3153 3228 2886 
Q 3006 2619 2597 2516 
z
" transform="scale(0.015625)"/>
      <path id="DejaVuSans-39" d="M 703 97 
L 703 672 
Q 941 559 1184 500 
Q 1428 441 1663 441 
Q 2288 441 2617 861 
Q 2947 1281 2994 2138 
Q 2813 1869 2534 1725 
Q 2256 1581 1919 1581 
Q 1219 1581 811 2004 
Q 403 2428 403 3163 
Q 403 3881 828 4315 
Q 1253 4750 1959 4750 
Q 2769 4750 3195 4129 
Q 3622 3509 3622 2328 
Q 3622 1225 3098 567 
Q 2575 -91 1691 -91 
Q 1453 -91 1209 -44 
Q 966 3 703 97 
z
M 1959 2075 
Q 2384 2075 2632 2365 
Q 2881 2656 2881 3163 
Q 2881 3666 2632 3958 
Q 2384 4250 1959 4250 
Q 1534 4250 1286 3958 
Q 1038 3666 1038 3163 
Q 1038 2656 1286 2365 
Q 1534 2075 1959 2075 
z
" transform="scale(0.015625)"/>
     </defs>
     <use xlink:href="#DejaVuSans-Oblique-51" transform="translate(0 0.015625)"/>
     <use xlink:href="#DejaVuSans-Oblique-43" transform="translate(78.710938 -16.390625) scale(0.7)"/>
     <use xlink:href="#DejaVuSans-3a" transform="translate(130.322266 0.015625)"/>
     <use xlink:href="#DejaVuSans-20" transform="translate(164.013672 0.015625)"/>
     <use xlink:href="#DejaVuSans-31" transform="translate(195.800781 0.015625)"/>
     <use xlink:href="#DejaVuSans-37" transform="translate(259.423828 0.015625)"/>
     <use xlink:href="#DejaVuSans-2e" transform="translate(323.046875 0.015625)"/>
     <use xlink:href="#DejaVuSans-37" transform="translate(347.083984 0.015625)"/>
     <use xlink:href="#DejaVuSans-33" transform="translate(410.707031 0.015625)"/>
     <use xlink:href="#DejaVuSans-39" transform="translate(474.330078 0.015625)"/>
     <use xlink:href="#DejaVuSans-b1" transform="translate(537.953125 0.015625)"/>
     <use xlink:href="#DejaVuSans-30" transform="translate(621.742188 0.015625)"/>
     <use xlink:href="#DejaVuSans-2e" transform="translate(685.365234 0.015625)"/>
     <use xlink:href="#DejaVuSans-30" transform="translate(717.152344 0.015625)"/>
     <use xlink:href="#DejaVuSans-32" transform="translate(780.775391 0.015625)"/>
     <use xlink:href="#DejaVuSans-36" transform="translate(844.398438 0.015625)"/>
     <use xlink:href="#DejaVuSans-20" transform="translate(908.021484 0.015625)"/>
     <use xlink:href="#DejaVuSans-6b" transform="translate(939.808594 0.015625)"/>
    </g>
    <!-- $f_{res}$: 7.09640900$\pm$4.4e-07 GHz -->
    <g transform="translate(425.571312 88.999875) scale(0.1 -0.1)">
     <defs>
      <path id="DejaVuSans-Oblique-66" d="M 3059 4863 
L 2969 4384 
L 2419 4384 
Q 2106 4384 1964 4261 
Q 1822 4138 1753 3809 
L 1691 3500 
L 2638 3500 
L 2553 3053 
L 1606 3053 
L 1013 0 
L 434 0 
L 1031 3053 
L 481 3053 
L 563 3500 
L 1113 3500 
L 1159 3744 
Q 1278 4363 1576 4613 
Q 1875 4863 2516 4863 
L 3059 4863 
z
" transform="scale(0.015625)"/>
      <path id="DejaVuSans-Oblique-72" d="M 2853 2969 
Q 2766 3016 2653 3041 
Q 2541 3066 2413 3066 
Q 1953 3066 1609 2717 
Q 1266 2369 1153 1784 
L 800 0 
L 225 0 
L 909 3500 
L 1484 3500 
L 1375 2956 
Q 1603 3259 1920 3421 
Q 2238 3584 2597 3584 
Q 2691 3584 2781 3573 
Q 2872 3563 2963 3538 
L 2853 2969 
z
" transform="scale(0.015625)"/>
      <path id="DejaVuSans-Oblique-65" d="M 3078 2063 
Q 3088 2113 3092 2166 
Q 3097 2219 3097 2272 
Q 3097 2653 2873 2875 
Q 2650 3097 2266 3097 
Q 1838 3097 1509 2826 
Q 1181 2556 1013 2059 
L 3078 2063 
z
M 3578 1613 
L 903 1613 
Q 884 1494 878 1425 
Q 872 1356 872 1306 
Q 872 872 1139 634 
Q 1406 397 1894 397 
Q 2269 397 2603 481 
Q 2938 566 3225 728 
L 3116 159 
Q 2806 34 2476 -28 
Q 2147 -91 1806 -91 
Q 1078 -91 686 257 
Q 294 606 294 1247 
Q 294 1794 489 2264 
Q 684 2734 1063 3103 
Q 1306 3334 1642 3459 
Q 1978 3584 2356 3584 
Q 2950 3584 3301 3228 
Q 3653 2872 3653 2272 
Q 3653 2128 3634 1964 
Q 3616 1800 3578 1613 
z
" transform="scale(0.015625)"/>
      <path id="DejaVuSans-Oblique-73" d="M 3200 3397 
L 3091 2853 
Q 2863 2978 2609 3040 
Q 2356 3103 2088 3103 
Q 1634 3103 1373 2948 
Q 1113 2794 1113 2528 
Q 1113 2219 1719 2053 
Q 1766 2041 1788 2034 
L 1972 1978 
Q 2547 1819 2739 1644 
Q 2931 1469 2931 1166 
Q 2931 609 2489 259 
Q 2047 -91 1331 -91 
Q 1053 -91 747 -37 
Q 441 16 72 128 
L 184 722 
Q 500 559 806 475 
Q 1113 391 1394 391 
Q 1816 391 2080 572 
Q 2344 753 2344 1031 
Q 2344 1331 1650 1516 
L 1591 1531 
L 1394 1581 
Q 956 1697 753 1886 
Q 550 2075 550 2369 
Q 550 2928 970 3256 
Q 1391 3584 2113 3584 
Q 2397 3584 2667 3537 
Q 2938 3491 3200 3397 
z
" transform="scale(0.015625)"/>
      <path id="DejaVuSans-65" d="M 3597 1894 
L 3597 1613 
L 953 1613 
Q 991 1019 1311 708 
Q 1631 397 2203 397 
Q 2534 397 2845 478 
Q 3156 559 3463 722 
L 3463 178 
Q 3153 47 2828 -22 
Q 2503 -91 2169 -91 
Q 1331 -91 842 396 
Q 353 884 353 1716 
Q 353 2575 817 3079 
Q 1281 3584 2069 3584 
Q 2775 3584 3186 3129 
Q 3597 2675 3597 1894 
z
M 3022 2063 
Q 3016 2534 2758 2815 
Q 2500 3097 2075 3097 
Q 1594 3097 1305 2825 
Q 1016 2553 972 2059 
L 3022 2063 
z
" transform="scale(0.015625)"/>
      <path id="DejaVuSans-2d" d="M 313 2009 
L 1997 2009 
L 1997 1497 
L 313 1497 
L 313 2009 
z
" transform="scale(0.015625)"/>
      <path id="DejaVuSans-47" d="M 3809 666 
L 3809 1919 
L 2778 1919 
L 2778 2438 
L 4434 2438 
L 4434 434 
Q 4069 175 3628 42 
Q 3188 -91 2688 -91 
Q 1594 -91 976 548 
Q 359 1188 359 2328 
Q 359 3472 976 4111 
Q 1594 4750 2688 4750 
Q 3144 4750 3555 4637 
Q 3966 4525 4313 4306 
L 4313 3634 
Q 3963 3931 3569 4081 
Q 3175 4231 2741 4231 
Q 1884 4231 1454 3753 
Q 1025 3275 1025 2328 
Q 1025 1384 1454 906 
Q 1884 428 2741 428 
Q 3075 428 3337 486 
Q 3600 544 3809 666 
z
" transform="scale(0.015625)"/>
      <path id="DejaVuSans-48" d="M 628 4666 
L 1259 4666 
L 1259 2753 
L 3553 2753 
L 3553 4666 
L 4184 4666 
L 4184 0 
L 3553 0 
L 3553 2222 
L 1259 2222 
L 1259 0 
L 628 0 
L 628 4666 
z
" transform="scale(0.015625)"/>
      <path id="DejaVuSans-7a" d="M 353 3500 
L 3084 3500 
L 3084 2975 
L 922 459 
L 3084 459 
L 3084 0 
L 275 0 
L 275 525 
L 2438 3041 
L 353 3041 
L 353 3500 
z
" transform="scale(0.015625)"/>
     </defs>
     <use xlink:href="#DejaVuSans-Oblique-66" transform="translate(0 0.015625)"/>
     <use xlink:href="#DejaVuSans-Oblique-72" transform="translate(35.205078 -16.390625) scale(0.7)"/>
     <use xlink:href="#DejaVuSans-Oblique-65" transform="translate(63.984375 -16.390625) scale(0.7)"/>
     <use xlink:href="#DejaVuSans-Oblique-73" transform="translate(107.050781 -16.390625) scale(0.7)"/>
     <use xlink:href="#DejaVuSans-3a" transform="translate(146.254883 0.015625)"/>
     <use xlink:href="#DejaVuSans-20" transform="translate(179.946289 0.015625)"/>
     <use xlink:href="#DejaVuSans-37" transform="translate(211.733398 0.015625)"/>
     <use xlink:href="#DejaVuSans-2e" transform="translate(275.356445 0.015625)"/>
     <use xlink:href="#DejaVuSans-30" transform="translate(307.143555 0.015625)"/>
     <use xlink:href="#DejaVuSans-39" transform="translate(370.766602 0.015625)"/>
     <use xlink:href="#DejaVuSans-36" transform="translate(434.389648 0.015625)"/>
     <use xlink:href="#DejaVuSans-34" transform="translate(498.012695 0.015625)"/>
     <use xlink:href="#DejaVuSans-30" transform="translate(561.635742 0.015625)"/>
     <use xlink:href="#DejaVuSans-39" transform="translate(625.258789 0.015625)"/>
     <use xlink:href="#DejaVuSans-30" transform="translate(688.881836 0.015625)"/>
     <use xlink:href="#DejaVuSans-30" transform="translate(752.504883 0.015625)"/>
     <use xlink:href="#DejaVuSans-b1" transform="translate(816.12793 0.015625)"/>
     <use xlink:href="#DejaVuSans-34" transform="translate(899.916992 0.015625)"/>
     <use xlink:href="#DejaVuSans-2e" transform="translate(963.540039 0.015625)"/>
     <use xlink:href="#DejaVuSans-34" transform="translate(995.327148 0.015625)"/>
     <use xlink:href="#DejaVuSans-65" transform="translate(1058.950195 0.015625)"/>
     <use xlink:href="#DejaVuSans-2d" transform="translate(1120.473633 0.015625)"/>
     <use xlink:href="#DejaVuSans-30" transform="translate(1156.557617 0.015625)"/>
     <use xlink:href="#DejaVuSans-37" transform="translate(1220.180664 0.015625)"/>
     <use xlink:href="#DejaVuSans-20" transform="translate(1283.803711 0.015625)"/>
     <use xlink:href="#DejaVuSans-47" transform="translate(1315.59082 0.015625)"/>
     <use xlink:href="#DejaVuSans-48" transform="translate(1393.081055 0.015625)"/>
     <use xlink:href="#DejaVuSans-7a" transform="translate(1468.276367 0.015625)"/>
    </g>
    <!-- $f_{opt}$: 7.0964 GHz -->
    <g transform="translate(425.571312 100.199562) scale(0.1 -0.1)">
     <defs>
      <path id="DejaVuSans-Oblique-6f" d="M 1625 -91 
Q 1009 -91 651 289 
Q 294 669 294 1325 
Q 294 1706 417 2101 
Q 541 2497 738 2766 
Q 1047 3184 1428 3384 
Q 1809 3584 2291 3584 
Q 2888 3584 3255 3212 
Q 3622 2841 3622 2241 
Q 3622 1825 3500 1412 
Q 3378 1000 3181 728 
Q 2875 309 2494 109 
Q 2113 -91 1625 -91 
z
M 891 1344 
Q 891 869 1089 633 
Q 1288 397 1691 397 
Q 2269 397 2648 901 
Q 3028 1406 3028 2181 
Q 3028 2634 2825 2865 
Q 2622 3097 2228 3097 
Q 1903 3097 1650 2945 
Q 1397 2794 1197 2484 
Q 1050 2253 970 1956 
Q 891 1659 891 1344 
z
" transform="scale(0.015625)"/>
      <path id="DejaVuSans-Oblique-70" d="M 3175 2156 
Q 3175 2616 2975 2859 
Q 2775 3103 2400 3103 
Q 2144 3103 1911 2972 
Q 1678 2841 1497 2591 
Q 1319 2344 1212 1994 
Q 1106 1644 1106 1300 
Q 1106 863 1306 627 
Q 1506 391 1875 391 
Q 2147 391 2380 519 
Q 2613 647 2778 891 
Q 2956 1147 3065 1494 
Q 3175 1841 3175 2156 
z
M 1394 2969 
Q 1625 3272 1939 3428 
Q 2253 3584 2638 3584 
Q 3175 3584 3472 3232 
Q 3769 2881 3769 2247 
Q 3769 1728 3584 1258 
Q 3400 788 3053 416 
Q 2822 169 2531 39 
Q 2241 -91 1919 -91 
Q 1547 -91 1294 64 
Q 1041 219 916 525 
L 556 -1331 
L -19 -1331 
L 922 3500 
L 1497 3500 
L 1394 2969 
z
" transform="scale(0.015625)"/>
      <path id="DejaVuSans-Oblique-74" d="M 2706 3500 
L 2619 3053 
L 1472 3053 
L 1100 1153 
Q 1081 1047 1072 975 
Q 1063 903 1063 863 
Q 1063 663 1183 572 
Q 1303 481 1569 481 
L 2150 481 
L 2053 0 
L 1503 0 
Q 991 0 739 200 
Q 488 400 488 806 
Q 488 878 497 964 
Q 506 1050 525 1153 
L 897 3053 
L 409 3053 
L 500 3500 
L 978 3500 
L 1172 4494 
L 1747 4494 
L 1556 3500 
L 2706 3500 
z
" transform="scale(0.015625)"/>
     </defs>
     <use xlink:href="#DejaVuSans-Oblique-66" transform="translate(0 0.015625)"/>
     <use xlink:href="#DejaVuSans-Oblique-6f" transform="translate(35.205078 -16.390625) scale(0.7)"/>
     <use xlink:href="#DejaVuSans-Oblique-70" transform="translate(78.032227 -16.390625) scale(0.7)"/>
     <use xlink:href="#DejaVuSans-Oblique-74" transform="translate(122.46582 -16.390625) scale(0.7)"/>
     <use xlink:href="#DejaVuSans-3a" transform="translate(152.646484 0.015625)"/>
     <use xlink:href="#DejaVuSans-20" transform="translate(186.337891 0.015625)"/>
     <use xlink:href="#DejaVuSans-37" transform="translate(218.125 0.015625)"/>
     <use xlink:href="#DejaVuSans-2e" transform="translate(281.748047 0.015625)"/>
     <use xlink:href="#DejaVuSans-30" transform="translate(313.535156 0.015625)"/>
     <use xlink:href="#DejaVuSans-39" transform="translate(377.158203 0.015625)"/>
     <use xlink:href="#DejaVuSans-36" transform="translate(440.78125 0.015625)"/>
     <use xlink:href="#DejaVuSans-34" transform="translate(504.404297 0.015625)"/>
     <use xlink:href="#DejaVuSans-20" transform="translate(568.027344 0.015625)"/>
     <use xlink:href="#DejaVuSans-47" transform="translate(599.814453 0.015625)"/>
     <use xlink:href="#DejaVuSans-48" transform="translate(677.304688 0.015625)"/>
     <use xlink:href="#DejaVuSans-7a" transform="translate(752.5 0.015625)"/>
    </g>
   </g>
   <g id="legend_1">
    <g id="patch_8">
     <path d="M 57.595313 157.72 
L 180.303125 157.72 
Q 182.303125 157.72 182.303125 155.72 
L 182.303125 82.3075 
Q 182.303125 80.3075 180.303125 80.3075 
L 57.595313 80.3075 
Q 55.595313 80.3075 55.595313 82.3075 
L 55.595313 155.72 
Q 55.595313 157.72 57.595313 157.72 
z
" style="fill: #ffffff; opacity: 0.8; stroke: #cccccc; stroke-linejoin: miter"/>
    </g>
    <g id="line2d_19">
     <path d="M 59.595313 88.405937 
L 69.595313 88.405937 
L 79.595313 88.405937 
" style="fill: none; stroke: #1f77b4; stroke-width: 1.5; stroke-linecap: square"/>
     <g>
      <use xlink:href="#m54cd224097" x="69.595313" y="88.405937" style="fill: #1f77b4; stroke: #1f77b4"/>
     </g>
    </g>
    <g id="text_8">
     <!-- Data -->
     <g transform="translate(87.595313 91.905937) scale(0.1 -0.1)">
      <defs>
       <path id="DejaVuSans-44" d="M 1259 4147 
L 1259 519 
L 2022 519 
Q 2988 519 3436 956 
Q 3884 1394 3884 2338 
Q 3884 3275 3436 3711 
Q 2988 4147 2022 4147 
L 1259 4147 
z
M 628 4666 
L 1925 4666 
Q 3281 4666 3915 4102 
Q 4550 3538 4550 2338 
Q 4550 1131 3912 565 
Q 3275 0 1925 0 
L 628 0 
L 628 4666 
z
" transform="scale(0.015625)"/>
       <path id="DejaVuSans-74" d="M 1172 4494 
L 1172 3500 
L 2356 3500 
L 2356 3053 
L 1172 3053 
L 1172 1153 
Q 1172 725 1289 603 
Q 1406 481 1766 481 
L 2356 481 
L 2356 0 
L 1766 0 
Q 1100 0 847 248 
Q 594 497 594 1153 
L 594 3053 
L 172 3053 
L 172 3500 
L 594 3500 
L 594 4494 
L 1172 4494 
z
" transform="scale(0.015625)"/>
      </defs>
      <use xlink:href="#DejaVuSans-44"/>
      <use xlink:href="#DejaVuSans-61" x="77.001953"/>
      <use xlink:href="#DejaVuSans-74" x="138.28125"/>
      <use xlink:href="#DejaVuSans-61" x="177.490234"/>
     </g>
    </g>
    <g id="line2d_20">
     <path d="M 59.595313 103.084062 
L 69.595313 103.084062 
L 79.595313 103.084062 
" style="fill: none; stroke: #d62728; stroke-width: 1.5; stroke-linecap: square"/>
    </g>
    <g id="text_9">
     <!-- Complex fit -->
     <g transform="translate(87.595313 106.584062) scale(0.1 -0.1)">
      <defs>
       <path id="DejaVuSans-43" d="M 4122 4306 
L 4122 3641 
Q 3803 3938 3442 4084 
Q 3081 4231 2675 4231 
Q 1875 4231 1450 3742 
Q 1025 3253 1025 2328 
Q 1025 1406 1450 917 
Q 1875 428 2675 428 
Q 3081 428 3442 575 
Q 3803 722 4122 1019 
L 4122 359 
Q 3791 134 3420 21 
Q 3050 -91 2638 -91 
Q 1578 -91 968 557 
Q 359 1206 359 2328 
Q 359 3453 968 4101 
Q 1578 4750 2638 4750 
Q 3056 4750 3426 4639 
Q 3797 4528 4122 4306 
z
" transform="scale(0.015625)"/>
       <path id="DejaVuSans-6f" d="M 1959 3097 
Q 1497 3097 1228 2736 
Q 959 2375 959 1747 
Q 959 1119 1226 758 
Q 1494 397 1959 397 
Q 2419 397 2687 759 
Q 2956 1122 2956 1747 
Q 2956 2369 2687 2733 
Q 2419 3097 1959 3097 
z
M 1959 3584 
Q 2709 3584 3137 3096 
Q 3566 2609 3566 1747 
Q 3566 888 3137 398 
Q 2709 -91 1959 -91 
Q 1206 -91 779 398 
Q 353 888 353 1747 
Q 353 2609 779 3096 
Q 1206 3584 1959 3584 
z
" transform="scale(0.015625)"/>
       <path id="DejaVuSans-70" d="M 1159 525 
L 1159 -1331 
L 581 -1331 
L 581 3500 
L 1159 3500 
L 1159 2969 
Q 1341 3281 1617 3432 
Q 1894 3584 2278 3584 
Q 2916 3584 3314 3078 
Q 3713 2572 3713 1747 
Q 3713 922 3314 415 
Q 2916 -91 2278 -91 
Q 1894 -91 1617 61 
Q 1341 213 1159 525 
z
M 3116 1747 
Q 3116 2381 2855 2742 
Q 2594 3103 2138 3103 
Q 1681 3103 1420 2742 
Q 1159 2381 1159 1747 
Q 1159 1113 1420 752 
Q 1681 391 2138 391 
Q 2594 391 2855 752 
Q 3116 1113 3116 1747 
z
" transform="scale(0.015625)"/>
       <path id="DejaVuSans-6c" d="M 603 4863 
L 1178 4863 
L 1178 0 
L 603 0 
L 603 4863 
z
" transform="scale(0.015625)"/>
       <path id="DejaVuSans-78" d="M 3513 3500 
L 2247 1797 
L 3578 0 
L 2900 0 
L 1881 1375 
L 863 0 
L 184 0 
L 1544 1831 
L 300 3500 
L 978 3500 
L 1906 2253 
L 2834 3500 
L 3513 3500 
z
" transform="scale(0.015625)"/>
       <path id="DejaVuSans-66" d="M 2375 4863 
L 2375 4384 
L 1825 4384 
Q 1516 4384 1395 4259 
Q 1275 4134 1275 3809 
L 1275 3500 
L 2222 3500 
L 2222 3053 
L 1275 3053 
L 1275 0 
L 697 0 
L 697 3053 
L 147 3053 
L 147 3500 
L 697 3500 
L 697 3744 
Q 697 4328 969 4595 
Q 1241 4863 1831 4863 
L 2375 4863 
z
" transform="scale(0.015625)"/>
       <path id="DejaVuSans-69" d="M 603 3500 
L 1178 3500 
L 1178 0 
L 603 0 
L 603 3500 
z
M 603 4863 
L 1178 4863 
L 1178 4134 
L 603 4134 
L 603 4863 
z
" transform="scale(0.015625)"/>
      </defs>
      <use xlink:href="#DejaVuSans-43"/>
      <use xlink:href="#DejaVuSans-6f" x="69.824219"/>
      <use xlink:href="#DejaVuSans-6d" x="131.005859"/>
      <use xlink:href="#DejaVuSans-70" x="228.417969"/>
      <use xlink:href="#DejaVuSans-6c" x="291.894531"/>
      <use xlink:href="#DejaVuSans-65" x="319.677734"/>
      <use xlink:href="#DejaVuSans-78" x="379.451172"/>
      <use xlink:href="#DejaVuSans-20" x="438.630859"/>
      <use xlink:href="#DejaVuSans-66" x="470.417969"/>
      <use xlink:href="#DejaVuSans-69" x="505.623047"/>
      <use xlink:href="#DejaVuSans-74" x="533.40625"/>
     </g>
    </g>
    <g id="line2d_21">
     <path d="M 59.595313 117.762187 
L 69.595313 117.762187 
L 79.595313 117.762187 
" style="fill: none; stroke-dasharray: 5.55,2.4; stroke-dashoffset: 0; stroke: #d3d3d3; stroke-width: 1.5"/>
    </g>
    <g id="text_10">
     <!-- Magnitude only fit -->
     <g transform="translate(87.595313 121.262187) scale(0.1 -0.1)">
      <defs>
       <path id="DejaVuSans-4d" d="M 628 4666 
L 1569 4666 
L 2759 1491 
L 3956 4666 
L 4897 4666 
L 4897 0 
L 4281 0 
L 4281 4097 
L 3078 897 
L 2444 897 
L 1241 4097 
L 1241 0 
L 628 0 
L 628 4666 
z
" transform="scale(0.015625)"/>
       <path id="DejaVuSans-67" d="M 2906 1791 
Q 2906 2416 2648 2759 
Q 2391 3103 1925 3103 
Q 1463 3103 1205 2759 
Q 947 2416 947 1791 
Q 947 1169 1205 825 
Q 1463 481 1925 481 
Q 2391 481 2648 825 
Q 2906 1169 2906 1791 
z
M 3481 434 
Q 3481 -459 3084 -895 
Q 2688 -1331 1869 -1331 
Q 1566 -1331 1297 -1286 
Q 1028 -1241 775 -1147 
L 775 -588 
Q 1028 -725 1275 -790 
Q 1522 -856 1778 -856 
Q 2344 -856 2625 -561 
Q 2906 -266 2906 331 
L 2906 616 
Q 2728 306 2450 153 
Q 2172 0 1784 0 
Q 1141 0 747 490 
Q 353 981 353 1791 
Q 353 2603 747 3093 
Q 1141 3584 1784 3584 
Q 2172 3584 2450 3431 
Q 2728 3278 2906 2969 
L 2906 3500 
L 3481 3500 
L 3481 434 
z
" transform="scale(0.015625)"/>
       <path id="DejaVuSans-6e" d="M 3513 2113 
L 3513 0 
L 2938 0 
L 2938 2094 
Q 2938 2591 2744 2837 
Q 2550 3084 2163 3084 
Q 1697 3084 1428 2787 
Q 1159 2491 1159 1978 
L 1159 0 
L 581 0 
L 581 3500 
L 1159 3500 
L 1159 2956 
Q 1366 3272 1645 3428 
Q 1925 3584 2291 3584 
Q 2894 3584 3203 3211 
Q 3513 2838 3513 2113 
z
" transform="scale(0.015625)"/>
       <path id="DejaVuSans-64" d="M 2906 2969 
L 2906 4863 
L 3481 4863 
L 3481 0 
L 2906 0 
L 2906 525 
Q 2725 213 2448 61 
Q 2172 -91 1784 -91 
Q 1150 -91 751 415 
Q 353 922 353 1747 
Q 353 2572 751 3078 
Q 1150 3584 1784 3584 
Q 2172 3584 2448 3432 
Q 2725 3281 2906 2969 
z
M 947 1747 
Q 947 1113 1208 752 
Q 1469 391 1925 391 
Q 2381 391 2643 752 
Q 2906 1113 2906 1747 
Q 2906 2381 2643 2742 
Q 2381 3103 1925 3103 
Q 1469 3103 1208 2742 
Q 947 2381 947 1747 
z
" transform="scale(0.015625)"/>
      </defs>
      <use xlink:href="#DejaVuSans-4d"/>
      <use xlink:href="#DejaVuSans-61" x="86.279297"/>
      <use xlink:href="#DejaVuSans-67" x="147.558594"/>
      <use xlink:href="#DejaVuSans-6e" x="211.035156"/>
      <use xlink:href="#DejaVuSans-69" x="274.414062"/>
      <use xlink:href="#DejaVuSans-74" x="302.197266"/>
      <use xlink:href="#DejaVuSans-75" x="341.40625"/>
      <use xlink:href="#DejaVuSans-64" x="404.785156"/>
      <use xlink:href="#DejaVuSans-65" x="468.261719"/>
      <use xlink:href="#DejaVuSans-20" x="529.785156"/>
      <use xlink:href="#DejaVuSans-6f" x="561.572266"/>
      <use xlink:href="#DejaVuSans-6e" x="622.753906"/>
      <use xlink:href="#DejaVuSans-6c" x="686.132812"/>
      <use xlink:href="#DejaVuSans-79" x="713.916016"/>
      <use xlink:href="#DejaVuSans-20" x="773.095703"/>
      <use xlink:href="#DejaVuSans-66" x="804.882812"/>
      <use xlink:href="#DejaVuSans-69" x="840.087891"/>
      <use xlink:href="#DejaVuSans-74" x="867.871094"/>
     </g>
    </g>
    <g id="line2d_22">
     <path d="M 59.595313 132.440313 
L 69.595313 132.440313 
L 79.595313 132.440313 
" style="fill: none; stroke-dasharray: 5.55,2.4; stroke-dashoffset: 0; stroke: #808080; stroke-width: 1.5"/>
    </g>
    <g id="text_11">
     <!-- $f_r$ -->
     <g transform="translate(87.595313 135.940313) scale(0.1 -0.1)">
      <use xlink:href="#DejaVuSans-Oblique-66" transform="translate(0 0.015625)"/>
      <use xlink:href="#DejaVuSans-Oblique-72" transform="translate(35.205078 -16.390625) scale(0.7)"/>
     </g>
    </g>
    <g id="line2d_23">
     <path d="M 59.595313 147.12 
L 69.595313 147.12 
L 79.595313 147.12 
" style="fill: none; stroke: #9467bd; stroke-width: 1.5; stroke-linecap: square"/>
    </g>
    <g id="text_12">
     <!-- $f_{opt}$ -->
     <g transform="translate(87.595313 150.62) scale(0.1 -0.1)">
      <use xlink:href="#DejaVuSans-Oblique-66" transform="translate(0 0.015625)"/>
      <use xlink:href="#DejaVuSans-Oblique-6f" transform="translate(35.205078 -16.390625) scale(0.7)"/>
      <use xlink:href="#DejaVuSans-Oblique-70" transform="translate(78.032227 -16.390625) scale(0.7)"/>
      <use xlink:href="#DejaVuSans-Oblique-74" transform="translate(122.46582 -16.390625) scale(0.7)"/>
     </g>
    </g>
   </g>
  </g>
  <g id="axes_2">
   <g id="patch_9">
    <path d="M 50.595313 307.872 
L 407.715312 307.872 
L 407.715312 186.912 
L 50.595313 186.912 
z
" style="fill: #ffffff"/>
   </g>
   <g id="line2d_24">
    <path d="M 281.579161 307.872 
L 281.579161 186.912 
" clip-path="url(#pba69c99639)" style="fill: none; stroke-dasharray: 5.55,2.4; stroke-dashoffset: 0; stroke: #d3d3d3; stroke-width: 1.5"/>
   </g>
   <g id="line2d_25">
    <path d="M 280.524703 307.872 
L 280.524703 186.912 
" clip-path="url(#pba69c99639)" style="fill: none; stroke-dasharray: 5.55,2.4; stroke-dashoffset: 0; stroke: #808080; stroke-width: 1.5"/>
   </g>
   <g id="matplotlib.axis_3">
    <g id="xtick_9">
     <g id="line2d_26">
      <g>
       <use xlink:href="#m53cc9092e2" x="83.580993" y="307.872" style="stroke: #000000; stroke-width: 0.8"/>
      </g>
     </g>
     <g id="text_13">
      <!-- 94 -->
      <g transform="translate(77.218493 322.470438) scale(0.1 -0.1)">
       <use xlink:href="#DejaVuSans-39"/>
       <use xlink:href="#DejaVuSans-34" x="63.623047"/>
      </g>
     </g>
    </g>
    <g id="xtick_10">
     <g id="line2d_27">
      <g>
       <use xlink:href="#m53cc9092e2" x="124.676505" y="307.872" style="stroke: #000000; stroke-width: 0.8"/>
      </g>
     </g>
     <g id="text_14">
      <!-- 94.5 -->
      <g transform="translate(113.543692 322.470438) scale(0.1 -0.1)">
       <use xlink:href="#DejaVuSans-39"/>
       <use xlink:href="#DejaVuSans-34" x="63.623047"/>
       <use xlink:href="#DejaVuSans-2e" x="127.246094"/>
       <use xlink:href="#DejaVuSans-35" x="159.033203"/>
      </g>
     </g>
    </g>
    <g id="xtick_11">
     <g id="line2d_28">
      <g>
       <use xlink:href="#m53cc9092e2" x="165.772017" y="307.872" style="stroke: #000000; stroke-width: 0.8"/>
      </g>
     </g>
     <g id="text_15">
      <!-- 95 -->
      <g transform="translate(159.409517 322.470438) scale(0.1 -0.1)">
       <use xlink:href="#DejaVuSans-39"/>
       <use xlink:href="#DejaVuSans-35" x="63.623047"/>
      </g>
     </g>
    </g>
    <g id="xtick_12">
     <g id="line2d_29">
      <g>
       <use xlink:href="#m53cc9092e2" x="206.867529" y="307.872" style="stroke: #000000; stroke-width: 0.8"/>
      </g>
     </g>
     <g id="text_16">
      <!-- 95.5 -->
      <g transform="translate(195.734716 322.470438) scale(0.1 -0.1)">
       <use xlink:href="#DejaVuSans-39"/>
       <use xlink:href="#DejaVuSans-35" x="63.623047"/>
       <use xlink:href="#DejaVuSans-2e" x="127.246094"/>
       <use xlink:href="#DejaVuSans-35" x="159.033203"/>
      </g>
     </g>
    </g>
    <g id="xtick_13">
     <g id="line2d_30">
      <g>
       <use xlink:href="#m53cc9092e2" x="247.963041" y="307.872" style="stroke: #000000; stroke-width: 0.8"/>
      </g>
     </g>
     <g id="text_17">
      <!-- 96 -->
      <g transform="translate(241.600541 322.470438) scale(0.1 -0.1)">
       <use xlink:href="#DejaVuSans-39"/>
       <use xlink:href="#DejaVuSans-36" x="63.623047"/>
      </g>
     </g>
    </g>
    <g id="xtick_14">
     <g id="line2d_31">
      <g>
       <use xlink:href="#m53cc9092e2" x="289.058553" y="307.872" style="stroke: #000000; stroke-width: 0.8"/>
      </g>
     </g>
     <g id="text_18">
      <!-- 96.5 -->
      <g transform="translate(277.925741 322.470438) scale(0.1 -0.1)">
       <use xlink:href="#DejaVuSans-39"/>
       <use xlink:href="#DejaVuSans-36" x="63.623047"/>
       <use xlink:href="#DejaVuSans-2e" x="127.246094"/>
       <use xlink:href="#DejaVuSans-35" x="159.033203"/>
      </g>
     </g>
    </g>
    <g id="xtick_15">
     <g id="line2d_32">
      <g>
       <use xlink:href="#m53cc9092e2" x="330.154065" y="307.872" style="stroke: #000000; stroke-width: 0.8"/>
      </g>
     </g>
     <g id="text_19">
      <!-- 97 -->
      <g transform="translate(323.791565 322.470438) scale(0.1 -0.1)">
       <use xlink:href="#DejaVuSans-39"/>
       <use xlink:href="#DejaVuSans-37" x="63.623047"/>
      </g>
     </g>
    </g>
    <g id="xtick_16">
     <g id="line2d_33">
      <g>
       <use xlink:href="#m53cc9092e2" x="371.249577" y="307.872" style="stroke: #000000; stroke-width: 0.8"/>
      </g>
     </g>
     <g id="text_20">
      <!-- 97.5 -->
      <g transform="translate(360.116765 322.470438) scale(0.1 -0.1)">
       <use xlink:href="#DejaVuSans-39"/>
       <use xlink:href="#DejaVuSans-37" x="63.623047"/>
       <use xlink:href="#DejaVuSans-2e" x="127.246094"/>
       <use xlink:href="#DejaVuSans-35" x="159.033203"/>
      </g>
     </g>
    </g>
    <g id="text_21">
     <!-- Readout frequency [MHz] -->
     <g transform="translate(165.548281 336.148562) scale(0.1 -0.1)">
      <defs>
       <path id="DejaVuSans-52" d="M 2841 2188 
Q 3044 2119 3236 1894 
Q 3428 1669 3622 1275 
L 4263 0 
L 3584 0 
L 2988 1197 
Q 2756 1666 2539 1819 
Q 2322 1972 1947 1972 
L 1259 1972 
L 1259 0 
L 628 0 
L 628 4666 
L 2053 4666 
Q 2853 4666 3247 4331 
Q 3641 3997 3641 3322 
Q 3641 2881 3436 2590 
Q 3231 2300 2841 2188 
z
M 1259 4147 
L 1259 2491 
L 2053 2491 
Q 2509 2491 2742 2702 
Q 2975 2913 2975 3322 
Q 2975 3731 2742 3939 
Q 2509 4147 2053 4147 
L 1259 4147 
z
" transform="scale(0.015625)"/>
       <path id="DejaVuSans-71" d="M 947 1747 
Q 947 1113 1208 752 
Q 1469 391 1925 391 
Q 2381 391 2643 752 
Q 2906 1113 2906 1747 
Q 2906 2381 2643 2742 
Q 2381 3103 1925 3103 
Q 1469 3103 1208 2742 
Q 947 2381 947 1747 
z
M 2906 525 
Q 2725 213 2448 61 
Q 2172 -91 1784 -91 
Q 1150 -91 751 415 
Q 353 922 353 1747 
Q 353 2572 751 3078 
Q 1150 3584 1784 3584 
Q 2172 3584 2448 3432 
Q 2725 3281 2906 2969 
L 2906 3500 
L 3481 3500 
L 3481 -1331 
L 2906 -1331 
L 2906 525 
z
" transform="scale(0.015625)"/>
       <path id="DejaVuSans-63" d="M 3122 3366 
L 3122 2828 
Q 2878 2963 2633 3030 
Q 2388 3097 2138 3097 
Q 1578 3097 1268 2742 
Q 959 2388 959 1747 
Q 959 1106 1268 751 
Q 1578 397 2138 397 
Q 2388 397 2633 464 
Q 2878 531 3122 666 
L 3122 134 
Q 2881 22 2623 -34 
Q 2366 -91 2075 -91 
Q 1284 -91 818 406 
Q 353 903 353 1747 
Q 353 2603 823 3093 
Q 1294 3584 2113 3584 
Q 2378 3584 2631 3529 
Q 2884 3475 3122 3366 
z
" transform="scale(0.015625)"/>
      </defs>
      <use xlink:href="#DejaVuSans-52"/>
      <use xlink:href="#DejaVuSans-65" x="64.982422"/>
      <use xlink:href="#DejaVuSans-61" x="126.505859"/>
      <use xlink:href="#DejaVuSans-64" x="187.785156"/>
      <use xlink:href="#DejaVuSans-6f" x="251.261719"/>
      <use xlink:href="#DejaVuSans-75" x="312.443359"/>
      <use xlink:href="#DejaVuSans-74" x="375.822266"/>
      <use xlink:href="#DejaVuSans-20" x="415.03125"/>
      <use xlink:href="#DejaVuSans-66" x="446.818359"/>
      <use xlink:href="#DejaVuSans-72" x="482.023438"/>
      <use xlink:href="#DejaVuSans-65" x="520.886719"/>
      <use xlink:href="#DejaVuSans-71" x="582.410156"/>
      <use xlink:href="#DejaVuSans-75" x="645.886719"/>
      <use xlink:href="#DejaVuSans-65" x="709.265625"/>
      <use xlink:href="#DejaVuSans-6e" x="770.789062"/>
      <use xlink:href="#DejaVuSans-63" x="834.167969"/>
      <use xlink:href="#DejaVuSans-79" x="889.148438"/>
      <use xlink:href="#DejaVuSans-20" x="948.328125"/>
      <use xlink:href="#DejaVuSans-5b" x="980.115234"/>
      <use xlink:href="#DejaVuSans-4d" x="1019.128906"/>
      <use xlink:href="#DejaVuSans-48" x="1105.408203"/>
      <use xlink:href="#DejaVuSans-7a" x="1180.603516"/>
      <use xlink:href="#DejaVuSans-5d" x="1233.09375"/>
     </g>
    </g>
    <g id="text_22">
     <!-- +7 GHz -->
     <g transform="translate(369.277812 335.148562) scale(0.1 -0.1)">
      <defs>
       <path id="DejaVuSans-2b" d="M 2944 4013 
L 2944 2272 
L 4684 2272 
L 4684 1741 
L 2944 1741 
L 2944 0 
L 2419 0 
L 2419 1741 
L 678 1741 
L 678 2272 
L 2419 2272 
L 2419 4013 
L 2944 4013 
z
" transform="scale(0.015625)"/>
      </defs>
      <use xlink:href="#DejaVuSans-2b"/>
      <use xlink:href="#DejaVuSans-37" x="83.789062"/>
      <use xlink:href="#DejaVuSans-20" x="147.412109"/>
      <use xlink:href="#DejaVuSans-47" x="179.199219"/>
      <use xlink:href="#DejaVuSans-48" x="256.689453"/>
      <use xlink:href="#DejaVuSans-7a" x="331.884766"/>
     </g>
    </g>
   </g>
   <g id="matplotlib.axis_4">
    <g id="ytick_6">
     <g id="line2d_34">
      <g>
       <use xlink:href="#m16f2f7b065" x="50.595313" y="277.97204" style="stroke: #000000; stroke-width: 0.8"/>
      </g>
     </g>
     <g id="text_23">
      <!-- -100 -->
      <g transform="translate(20.9 281.771258) scale(0.1 -0.1)">
       <use xlink:href="#DejaVuSans-2d"/>
       <use xlink:href="#DejaVuSans-31" x="36.083984"/>
       <use xlink:href="#DejaVuSans-30" x="99.707031"/>
       <use xlink:href="#DejaVuSans-30" x="163.330078"/>
      </g>
     </g>
    </g>
    <g id="ytick_7">
     <g id="line2d_35">
      <g>
       <use xlink:href="#m16f2f7b065" x="50.595313" y="247.395572" style="stroke: #000000; stroke-width: 0.8"/>
      </g>
     </g>
     <g id="text_24">
      <!-- 0 -->
      <g transform="translate(37.232813 251.19479) scale(0.1 -0.1)">
       <use xlink:href="#DejaVuSans-30"/>
      </g>
     </g>
    </g>
    <g id="ytick_8">
     <g id="line2d_36">
      <g>
       <use xlink:href="#m16f2f7b065" x="50.595313" y="216.819103" style="stroke: #000000; stroke-width: 0.8"/>
      </g>
     </g>
     <g id="text_25">
      <!-- 100 -->
      <g transform="translate(24.507813 220.618322) scale(0.1 -0.1)">
       <use xlink:href="#DejaVuSans-31"/>
       <use xlink:href="#DejaVuSans-30" x="63.623047"/>
       <use xlink:href="#DejaVuSans-30" x="127.246094"/>
      </g>
     </g>
    </g>
    <g id="text_26">
     <!-- $\angle S_{21}$ [deg] -->
     <g transform="translate(14.8 274.592) rotate(-90) scale(0.1 -0.1)">
      <defs>
       <path id="DejaVuSans-2220" d="M 5028 631 
L 5028 0 
L 547 0 
L 3525 4666 
L 4281 4666 
L 1716 631 
L 5028 631 
z
" transform="scale(0.015625)"/>
      </defs>
      <use xlink:href="#DejaVuSans-2220" transform="translate(0 0.015625)"/>
      <use xlink:href="#DejaVuSans-Oblique-53" transform="translate(89.648438 0.015625)"/>
      <use xlink:href="#DejaVuSans-32" transform="translate(153.125 -16.390625) scale(0.7)"/>
      <use xlink:href="#DejaVuSans-31" transform="translate(197.661133 -16.390625) scale(0.7)"/>
      <use xlink:href="#DejaVuSans-20" transform="translate(244.931641 0.015625)"/>
      <use xlink:href="#DejaVuSans-5b" transform="translate(276.71875 0.015625)"/>
      <use xlink:href="#DejaVuSans-64" transform="translate(315.732422 0.015625)"/>
      <use xlink:href="#DejaVuSans-65" transform="translate(379.208984 0.015625)"/>
      <use xlink:href="#DejaVuSans-67" transform="translate(440.732422 0.015625)"/>
      <use xlink:href="#DejaVuSans-5d" transform="translate(504.208984 0.015625)"/>
     </g>
    </g>
   </g>
   <g id="line2d_37">
    <path d="M 66.82804 258.812301 
L 70.937591 260.058453 
L 75.047142 261.334887 
L 79.156693 262.629801 
L 83.266245 263.726022 
L 87.375796 265.106073 
L 91.485347 266.376498 
L 95.594898 267.603657 
L 99.704449 268.858572 
L 103.814001 270.157379 
L 107.923552 271.276527 
L 112.033103 272.733448 
L 116.142654 273.940515 
L 120.252205 275.194463 
L 124.361757 276.390022 
L 128.471308 277.667599 
L 132.580859 279.005645 
L 136.69041 280.252643 
L 140.799962 281.521204 
L 144.909513 282.785332 
L 149.019064 284.153808 
L 153.128615 285.320022 
L 157.238166 286.702658 
L 161.347718 288.047114 
L 165.457269 289.324676 
L 169.56682 290.632542 
L 173.676371 291.974303 
L 177.785922 293.286437 
L 181.895474 294.540222 
L 186.005025 295.997398 
L 190.114576 297.292643 
L 194.224127 298.653506 
L 198.333678 300.050864 
L 202.44323 301.433312 
L 206.552781 192.754873 
L 210.662332 194.093195 
L 214.771883 195.607226 
L 218.881434 197.098837 
L 222.990986 198.575769 
L 227.100537 200.186009 
L 231.210088 201.746932 
L 235.319639 203.391068 
L 239.429191 205.038763 
L 243.538742 206.86568 
L 247.648293 208.746069 
L 251.757844 210.805438 
L 255.867395 212.85985 
L 259.976947 215.2409 
L 264.086498 217.651763 
L 268.196049 220.128013 
L 272.3056 222.274581 
L 276.415151 221.827164 
L 280.524703 209.088762 
L 284.634254 197.892222 
L 288.743805 198.045992 
L 292.853356 200.345667 
L 296.962907 203.133455 
L 301.072459 205.81117 
L 305.18201 208.212736 
L 309.291561 210.531215 
L 313.401112 212.748684 
L 317.510663 214.717913 
L 321.620215 216.662855 
L 325.729766 218.36116 
L 329.839317 220.060266 
L 333.948868 221.624797 
L 338.05842 223.225905 
L 342.167971 224.775789 
L 346.277522 226.310322 
L 350.387073 227.767715 
L 354.496624 229.16467 
L 358.606176 230.656037 
L 362.715727 232.089948 
L 366.825278 233.424117 
L 370.934829 234.817449 
L 375.04438 236.138693 
L 379.153932 237.533692 
L 383.263483 238.825505 
L 387.373034 240.143163 
L 391.482585 241.453864 
" clip-path="url(#pba69c99639)" style="fill: none; stroke: #1f77b4; stroke-width: 1.5; stroke-linecap: square"/>
    <g clip-path="url(#pba69c99639)">
     <use xlink:href="#m54cd224097" x="66.82804" y="258.812301" style="fill: #1f77b4; stroke: #1f77b4"/>
     <use xlink:href="#m54cd224097" x="70.937591" y="260.058453" style="fill: #1f77b4; stroke: #1f77b4"/>
     <use xlink:href="#m54cd224097" x="75.047142" y="261.334887" style="fill: #1f77b4; stroke: #1f77b4"/>
     <use xlink:href="#m54cd224097" x="79.156693" y="262.629801" style="fill: #1f77b4; stroke: #1f77b4"/>
     <use xlink:href="#m54cd224097" x="83.266245" y="263.726022" style="fill: #1f77b4; stroke: #1f77b4"/>
     <use xlink:href="#m54cd224097" x="87.375796" y="265.106073" style="fill: #1f77b4; stroke: #1f77b4"/>
     <use xlink:href="#m54cd224097" x="91.485347" y="266.376498" style="fill: #1f77b4; stroke: #1f77b4"/>
     <use xlink:href="#m54cd224097" x="95.594898" y="267.603657" style="fill: #1f77b4; stroke: #1f77b4"/>
     <use xlink:href="#m54cd224097" x="99.704449" y="268.858572" style="fill: #1f77b4; stroke: #1f77b4"/>
     <use xlink:href="#m54cd224097" x="103.814001" y="270.157379" style="fill: #1f77b4; stroke: #1f77b4"/>
     <use xlink:href="#m54cd224097" x="107.923552" y="271.276527" style="fill: #1f77b4; stroke: #1f77b4"/>
     <use xlink:href="#m54cd224097" x="112.033103" y="272.733448" style="fill: #1f77b4; stroke: #1f77b4"/>
     <use xlink:href="#m54cd224097" x="116.142654" y="273.940515" style="fill: #1f77b4; stroke: #1f77b4"/>
     <use xlink:href="#m54cd224097" x="120.252205" y="275.194463" style="fill: #1f77b4; stroke: #1f77b4"/>
     <use xlink:href="#m54cd224097" x="124.361757" y="276.390022" style="fill: #1f77b4; stroke: #1f77b4"/>
     <use xlink:href="#m54cd224097" x="128.471308" y="277.667599" style="fill: #1f77b4; stroke: #1f77b4"/>
     <use xlink:href="#m54cd224097" x="132.580859" y="279.005645" style="fill: #1f77b4; stroke: #1f77b4"/>
     <use xlink:href="#m54cd224097" x="136.69041" y="280.252643" style="fill: #1f77b4; stroke: #1f77b4"/>
     <use xlink:href="#m54cd224097" x="140.799962" y="281.521204" style="fill: #1f77b4; stroke: #1f77b4"/>
     <use xlink:href="#m54cd224097" x="144.909513" y="282.785332" style="fill: #1f77b4; stroke: #1f77b4"/>
     <use xlink:href="#m54cd224097" x="149.019064" y="284.153808" style="fill: #1f77b4; stroke: #1f77b4"/>
     <use xlink:href="#m54cd224097" x="153.128615" y="285.320022" style="fill: #1f77b4; stroke: #1f77b4"/>
     <use xlink:href="#m54cd224097" x="157.238166" y="286.702658" style="fill: #1f77b4; stroke: #1f77b4"/>
     <use xlink:href="#m54cd224097" x="161.347718" y="288.047114" style="fill: #1f77b4; stroke: #1f77b4"/>
     <use xlink:href="#m54cd224097" x="165.457269" y="289.324676" style="fill: #1f77b4; stroke: #1f77b4"/>
     <use xlink:href="#m54cd224097" x="169.56682" y="290.632542" style="fill: #1f77b4; stroke: #1f77b4"/>
     <use xlink:href="#m54cd224097" x="173.676371" y="291.974303" style="fill: #1f77b4; stroke: #1f77b4"/>
     <use xlink:href="#m54cd224097" x="177.785922" y="293.286437" style="fill: #1f77b4; stroke: #1f77b4"/>
     <use xlink:href="#m54cd224097" x="181.895474" y="294.540222" style="fill: #1f77b4; stroke: #1f77b4"/>
     <use xlink:href="#m54cd224097" x="186.005025" y="295.997398" style="fill: #1f77b4; stroke: #1f77b4"/>
     <use xlink:href="#m54cd224097" x="190.114576" y="297.292643" style="fill: #1f77b4; stroke: #1f77b4"/>
     <use xlink:href="#m54cd224097" x="194.224127" y="298.653506" style="fill: #1f77b4; stroke: #1f77b4"/>
     <use xlink:href="#m54cd224097" x="198.333678" y="300.050864" style="fill: #1f77b4; stroke: #1f77b4"/>
     <use xlink:href="#m54cd224097" x="202.44323" y="301.433312" style="fill: #1f77b4; stroke: #1f77b4"/>
     <use xlink:href="#m54cd224097" x="206.552781" y="192.754873" style="fill: #1f77b4; stroke: #1f77b4"/>
     <use xlink:href="#m54cd224097" x="210.662332" y="194.093195" style="fill: #1f77b4; stroke: #1f77b4"/>
     <use xlink:href="#m54cd224097" x="214.771883" y="195.607226" style="fill: #1f77b4; stroke: #1f77b4"/>
     <use xlink:href="#m54cd224097" x="218.881434" y="197.098837" style="fill: #1f77b4; stroke: #1f77b4"/>
     <use xlink:href="#m54cd224097" x="222.990986" y="198.575769" style="fill: #1f77b4; stroke: #1f77b4"/>
     <use xlink:href="#m54cd224097" x="227.100537" y="200.186009" style="fill: #1f77b4; stroke: #1f77b4"/>
     <use xlink:href="#m54cd224097" x="231.210088" y="201.746932" style="fill: #1f77b4; stroke: #1f77b4"/>
     <use xlink:href="#m54cd224097" x="235.319639" y="203.391068" style="fill: #1f77b4; stroke: #1f77b4"/>
     <use xlink:href="#m54cd224097" x="239.429191" y="205.038763" style="fill: #1f77b4; stroke: #1f77b4"/>
     <use xlink:href="#m54cd224097" x="243.538742" y="206.86568" style="fill: #1f77b4; stroke: #1f77b4"/>
     <use xlink:href="#m54cd224097" x="247.648293" y="208.746069" style="fill: #1f77b4; stroke: #1f77b4"/>
     <use xlink:href="#m54cd224097" x="251.757844" y="210.805438" style="fill: #1f77b4; stroke: #1f77b4"/>
     <use xlink:href="#m54cd224097" x="255.867395" y="212.85985" style="fill: #1f77b4; stroke: #1f77b4"/>
     <use xlink:href="#m54cd224097" x="259.976947" y="215.2409" style="fill: #1f77b4; stroke: #1f77b4"/>
     <use xlink:href="#m54cd224097" x="264.086498" y="217.651763" style="fill: #1f77b4; stroke: #1f77b4"/>
     <use xlink:href="#m54cd224097" x="268.196049" y="220.128013" style="fill: #1f77b4; stroke: #1f77b4"/>
     <use xlink:href="#m54cd224097" x="272.3056" y="222.274581" style="fill: #1f77b4; stroke: #1f77b4"/>
     <use xlink:href="#m54cd224097" x="276.415151" y="221.827164" style="fill: #1f77b4; stroke: #1f77b4"/>
     <use xlink:href="#m54cd224097" x="280.524703" y="209.088762" style="fill: #1f77b4; stroke: #1f77b4"/>
     <use xlink:href="#m54cd224097" x="284.634254" y="197.892222" style="fill: #1f77b4; stroke: #1f77b4"/>
     <use xlink:href="#m54cd224097" x="288.743805" y="198.045992" style="fill: #1f77b4; stroke: #1f77b4"/>
     <use xlink:href="#m54cd224097" x="292.853356" y="200.345667" style="fill: #1f77b4; stroke: #1f77b4"/>
     <use xlink:href="#m54cd224097" x="296.962907" y="203.133455" style="fill: #1f77b4; stroke: #1f77b4"/>
     <use xlink:href="#m54cd224097" x="301.072459" y="205.81117" style="fill: #1f77b4; stroke: #1f77b4"/>
     <use xlink:href="#m54cd224097" x="305.18201" y="208.212736" style="fill: #1f77b4; stroke: #1f77b4"/>
     <use xlink:href="#m54cd224097" x="309.291561" y="210.531215" style="fill: #1f77b4; stroke: #1f77b4"/>
     <use xlink:href="#m54cd224097" x="313.401112" y="212.748684" style="fill: #1f77b4; stroke: #1f77b4"/>
     <use xlink:href="#m54cd224097" x="317.510663" y="214.717913" style="fill: #1f77b4; stroke: #1f77b4"/>
     <use xlink:href="#m54cd224097" x="321.620215" y="216.662855" style="fill: #1f77b4; stroke: #1f77b4"/>
     <use xlink:href="#m54cd224097" x="325.729766" y="218.36116" style="fill: #1f77b4; stroke: #1f77b4"/>
     <use xlink:href="#m54cd224097" x="329.839317" y="220.060266" style="fill: #1f77b4; stroke: #1f77b4"/>
     <use xlink:href="#m54cd224097" x="333.948868" y="221.624797" style="fill: #1f77b4; stroke: #1f77b4"/>
     <use xlink:href="#m54cd224097" x="338.05842" y="223.225905" style="fill: #1f77b4; stroke: #1f77b4"/>
     <use xlink:href="#m54cd224097" x="342.167971" y="224.775789" style="fill: #1f77b4; stroke: #1f77b4"/>
     <use xlink:href="#m54cd224097" x="346.277522" y="226.310322" style="fill: #1f77b4; stroke: #1f77b4"/>
     <use xlink:href="#m54cd224097" x="350.387073" y="227.767715" style="fill: #1f77b4; stroke: #1f77b4"/>
     <use xlink:href="#m54cd224097" x="354.496624" y="229.16467" style="fill: #1f77b4; stroke: #1f77b4"/>
     <use xlink:href="#m54cd224097" x="358.606176" y="230.656037" style="fill: #1f77b4; stroke: #1f77b4"/>
     <use xlink:href="#m54cd224097" x="362.715727" y="232.089948" style="fill: #1f77b4; stroke: #1f77b4"/>
     <use xlink:href="#m54cd224097" x="366.825278" y="233.424117" style="fill: #1f77b4; stroke: #1f77b4"/>
     <use xlink:href="#m54cd224097" x="370.934829" y="234.817449" style="fill: #1f77b4; stroke: #1f77b4"/>
     <use xlink:href="#m54cd224097" x="375.04438" y="236.138693" style="fill: #1f77b4; stroke: #1f77b4"/>
     <use xlink:href="#m54cd224097" x="379.153932" y="237.533692" style="fill: #1f77b4; stroke: #1f77b4"/>
     <use xlink:href="#m54cd224097" x="383.263483" y="238.825505" style="fill: #1f77b4; stroke: #1f77b4"/>
     <use xlink:href="#m54cd224097" x="387.373034" y="240.143163" style="fill: #1f77b4; stroke: #1f77b4"/>
     <use xlink:href="#m54cd224097" x="391.482585" y="241.453864" style="fill: #1f77b4; stroke: #1f77b4"/>
    </g>
   </g>
   <g id="line2d_38">
    <path d="M 66.82804 258.826951 
L 122.074559 275.729409 
L 158.472266 287.084153 
L 183.820669 295.212161 
L 202.344502 301.374091 
L 205.269317 302.373818 
L 205.594297 192.410182 
L 218.918457 197.108262 
L 229.317802 201.001437 
L 237.76727 204.394724 
L 244.59184 207.359542 
L 250.441471 210.124964 
L 255.641144 212.811583 
L 260.840816 215.753951 
L 271.565141 222.011497 
L 272.865059 222.484507 
L 273.839997 222.678207 
L 274.814936 222.658208 
L 275.464895 222.475034 
L 276.114854 222.104612 
L 276.764813 221.486157 
L 277.414772 220.540618 
L 278.064731 219.172237 
L 278.71469 217.284526 
L 279.689629 213.401481 
L 281.964485 203.101927 
L 282.614444 201.101076 
L 283.264403 199.641774 
L 283.914362 198.632144 
L 284.564322 197.973792 
L 285.214281 197.583166 
L 285.86424 197.395231 
L 286.839178 197.389694 
L 287.814117 197.616429 
L 289.114035 198.152585 
L 291.063912 199.245895 
L 294.313707 201.386953 
L 301.463257 206.127463 
L 306.01297 208.850802 
L 310.887663 211.502116 
L 316.087335 214.080097 
L 322.261946 216.885394 
L 329.411496 219.880948 
L 337.860964 223.177411 
L 348.260308 226.991156 
L 361.259489 231.51452 
L 378.158425 237.145529 
L 391.482585 241.460192 
L 391.482585 241.460192 
" clip-path="url(#pba69c99639)" style="fill: none; stroke: #d62728; stroke-width: 1.5; stroke-linecap: square"/>
   </g>
   <g id="patch_10">
    <path d="M 50.595313 307.872 
L 50.595313 186.912 
" style="fill: none; stroke: #000000; stroke-width: 0.8; stroke-linejoin: miter; stroke-linecap: square"/>
   </g>
   <g id="patch_11">
    <path d="M 407.715312 307.872 
L 407.715312 186.912 
" style="fill: none; stroke: #000000; stroke-width: 0.8; stroke-linejoin: miter; stroke-linecap: square"/>
   </g>
   <g id="patch_12">
    <path d="M 50.595313 307.872 
L 407.715313 307.872 
" style="fill: none; stroke: #000000; stroke-width: 0.8; stroke-linejoin: miter; stroke-linecap: square"/>
   </g>
   <g id="patch_13">
    <path d="M 50.595313 186.912 
L 407.715313 186.912 
" style="fill: none; stroke: #000000; stroke-width: 0.8; stroke-linejoin: miter; stroke-linecap: square"/>
   </g>
  </g>
  <g id="text_27">
   <!-- S21 Resonator spectroscopy q00 -->
   <g transform="translate(124.6925 16.318125) scale(0.12 -0.12)">
    <defs>
     <path id="DejaVuSans-73" d="M 2834 3397 
L 2834 2853 
Q 2591 2978 2328 3040 
Q 2066 3103 1784 3103 
Q 1356 3103 1142 2972 
Q 928 2841 928 2578 
Q 928 2378 1081 2264 
Q 1234 2150 1697 2047 
L 1894 2003 
Q 2506 1872 2764 1633 
Q 3022 1394 3022 966 
Q 3022 478 2636 193 
Q 2250 -91 1575 -91 
Q 1294 -91 989 -36 
Q 684 19 347 128 
L 347 722 
Q 666 556 975 473 
Q 1284 391 1588 391 
Q 1994 391 2212 530 
Q 2431 669 2431 922 
Q 2431 1156 2273 1281 
Q 2116 1406 1581 1522 
L 1381 1569 
Q 847 1681 609 1914 
Q 372 2147 372 2553 
Q 372 3047 722 3315 
Q 1072 3584 1716 3584 
Q 2034 3584 2315 3537 
Q 2597 3491 2834 3397 
z
" transform="scale(0.015625)"/>
    </defs>
    <use xlink:href="#DejaVuSans-53"/>
    <use xlink:href="#DejaVuSans-32" x="63.476562"/>
    <use xlink:href="#DejaVuSans-31" x="127.099609"/>
    <use xlink:href="#DejaVuSans-20" x="190.722656"/>
    <use xlink:href="#DejaVuSans-52" x="222.509766"/>
    <use xlink:href="#DejaVuSans-65" x="287.492188"/>
    <use xlink:href="#DejaVuSans-73" x="349.015625"/>
    <use xlink:href="#DejaVuSans-6f" x="401.115234"/>
    <use xlink:href="#DejaVuSans-6e" x="462.296875"/>
    <use xlink:href="#DejaVuSans-61" x="525.675781"/>
    <use xlink:href="#DejaVuSans-74" x="586.955078"/>
    <use xlink:href="#DejaVuSans-6f" x="626.164062"/>
    <use xlink:href="#DejaVuSans-72" x="687.345703"/>
    <use xlink:href="#DejaVuSans-20" x="728.458984"/>
    <use xlink:href="#DejaVuSans-73" x="760.246094"/>
    <use xlink:href="#DejaVuSans-70" x="812.345703"/>
    <use xlink:href="#DejaVuSans-65" x="875.822266"/>
    <use xlink:href="#DejaVuSans-63" x="937.345703"/>
    <use xlink:href="#DejaVuSans-74" x="992.326172"/>
    <use xlink:href="#DejaVuSans-72" x="1031.535156"/>
    <use xlink:href="#DejaVuSans-6f" x="1070.398438"/>
    <use xlink:href="#DejaVuSans-73" x="1131.580078"/>
    <use xlink:href="#DejaVuSans-63" x="1183.679688"/>
    <use xlink:href="#DejaVuSans-6f" x="1238.660156"/>
    <use xlink:href="#DejaVuSans-70" x="1299.841797"/>
    <use xlink:href="#DejaVuSans-79" x="1363.318359"/>
    <use xlink:href="#DejaVuSans-20" x="1422.498047"/>
    <use xlink:href="#DejaVuSans-71" x="1454.285156"/>
    <use xlink:href="#DejaVuSans-30" x="1517.761719"/>
    <use xlink:href="#DejaVuSans-30" x="1581.384766"/>
   </g>
   <!-- tuid: 20241114-110117-955-0b4834 -->
   <g transform="translate(113.548438 29.7555) scale(0.12 -0.12)">
    <defs>
     <path id="DejaVuSans-62" d="M 3116 1747 
Q 3116 2381 2855 2742 
Q 2594 3103 2138 3103 
Q 1681 3103 1420 2742 
Q 1159 2381 1159 1747 
Q 1159 1113 1420 752 
Q 1681 391 2138 391 
Q 2594 391 2855 752 
Q 3116 1113 3116 1747 
z
M 1159 2969 
Q 1341 3281 1617 3432 
Q 1894 3584 2278 3584 
Q 2916 3584 3314 3078 
Q 3713 2572 3713 1747 
Q 3713 922 3314 415 
Q 2916 -91 2278 -91 
Q 1894 -91 1617 61 
Q 1341 213 1159 525 
L 1159 0 
L 581 0 
L 581 4863 
L 1159 4863 
L 1159 2969 
z
" transform="scale(0.015625)"/>
    </defs>
    <use xlink:href="#DejaVuSans-74"/>
    <use xlink:href="#DejaVuSans-75" x="39.208984"/>
    <use xlink:href="#DejaVuSans-69" x="102.587891"/>
    <use xlink:href="#DejaVuSans-64" x="130.371094"/>
    <use xlink:href="#DejaVuSans-3a" x="193.847656"/>
    <use xlink:href="#DejaVuSans-20" x="227.539062"/>
    <use xlink:href="#DejaVuSans-32" x="259.326172"/>
    <use xlink:href="#DejaVuSans-30" x="322.949219"/>
    <use xlink:href="#DejaVuSans-32" x="386.572266"/>
    <use xlink:href="#DejaVuSans-34" x="450.195312"/>
    <use xlink:href="#DejaVuSans-31" x="513.818359"/>
    <use xlink:href="#DejaVuSans-31" x="577.441406"/>
    <use xlink:href="#DejaVuSans-31" x="641.064453"/>
    <use xlink:href="#DejaVuSans-34" x="704.6875"/>
    <use xlink:href="#DejaVuSans-2d" x="768.310547"/>
    <use xlink:href="#DejaVuSans-31" x="804.394531"/>
    <use xlink:href="#DejaVuSans-31" x="868.017578"/>
    <use xlink:href="#DejaVuSans-30" x="931.640625"/>
    <use xlink:href="#DejaVuSans-31" x="995.263672"/>
    <use xlink:href="#DejaVuSans-31" x="1058.886719"/>
    <use xlink:href="#DejaVuSans-37" x="1122.509766"/>
    <use xlink:href="#DejaVuSans-2d" x="1186.132812"/>
    <use xlink:href="#DejaVuSans-39" x="1222.216797"/>
    <use xlink:href="#DejaVuSans-35" x="1285.839844"/>
    <use xlink:href="#DejaVuSans-35" x="1349.462891"/>
    <use xlink:href="#DejaVuSans-2d" x="1413.085938"/>
    <use xlink:href="#DejaVuSans-30" x="1449.169922"/>
    <use xlink:href="#DejaVuSans-62" x="1512.792969"/>
    <use xlink:href="#DejaVuSans-34" x="1576.269531"/>
    <use xlink:href="#DejaVuSans-38" x="1639.892578"/>
    <use xlink:href="#DejaVuSans-33" x="1703.515625"/>
    <use xlink:href="#DejaVuSans-34" x="1767.138672"/>
   </g>
  </g>
 </g>
 <defs>
  <clipPath id="p3d0a2a677a">
   <rect x="50.595313" y="41.76" width="357.12" height="120.96"/>
  </clipPath>
  <clipPath id="pba69c99639">
   <rect x="50.595313" y="186.912" width="357.12" height="120.96"/>
  </clipPath>
 </defs>
</svg>
