<?xml version="1.0" encoding="utf-8" standalone="no"?>
<!DOCTYPE svg PUBLIC "-//W3C//DTD SVG 1.1//EN"
  "http://www.w3.org/Graphics/SVG/1.1/DTD/svg11.dtd">
<svg xmlns:xlink="http://www.w3.org/1999/xlink" width="578.486938pt" height="345.42825pt" viewBox="0 0 578.486938 345.42825" xmlns="http://www.w3.org/2000/svg" version="1.1">
 <metadata>
  <rdf:RDF xmlns:dc="http://purl.org/dc/elements/1.1/" xmlns:cc="http://creativecommons.org/ns#" xmlns:rdf="http://www.w3.org/1999/02/22-rdf-syntax-ns#">
   <cc:Work>
    <dc:type rdf:resource="http://purl.org/dc/dcmitype/StillImage"/>
    <dc:date>2024-11-14T11:01:22.987658</dc:date>
    <dc:format>image/svg+xml</dc:format>
    <dc:creator>
     <cc:Agent>
      <dc:title>Matplotlib v3.8.0, https://matplotlib.org/</dc:title>
     </cc:Agent>
    </dc:creator>
   </cc:Work>
  </rdf:RDF>
 </metadata>
 <defs>
  <style type="text/css">*{stroke-linejoin: round; stroke-linecap: butt}</style>
 </defs>
 <g id="figure_1">
  <g id="patch_1">
   <path d="M 0 345.42825 
L 578.486938 345.42825 
L 578.486938 -0 
L 0 -0 
L 0 345.42825 
z
" style="fill: none; opacity: 0"/>
  </g>
  <g id="axes_1">
   <g id="patch_2">
    <path d="M 44.210938 162.72 
L 401.330938 162.72 
L 401.330938 41.76 
L 44.210938 41.76 
z
" style="fill: #ffffff"/>
   </g>
   <g id="line2d_1">
    <path d="M 275.194786 162.72 
L 275.194786 41.76 
" clip-path="url(#p463d76c720)" style="fill: none; stroke-dasharray: 5.55,2.4; stroke-dashoffset: 0; stroke: #d3d3d3; stroke-width: 1.5"/>
   </g>
   <g id="line2d_2">
    <path d="M 274.140328 162.72 
L 274.140328 41.76 
" clip-path="url(#p463d76c720)" style="fill: none; stroke-dasharray: 5.55,2.4; stroke-dashoffset: 0; stroke: #808080; stroke-width: 1.5"/>
   </g>
   <g id="matplotlib.axis_1">
    <g id="xtick_1">
     <g id="line2d_3">
      <defs>
       <path id="m8e06f61637" d="M 0 0 
L 0 3.5 
" style="stroke: #000000; stroke-width: 0.8"/>
      </defs>
      <g>
       <use xlink:href="#m8e06f61637" x="77.196618" y="162.72" style="stroke: #000000; stroke-width: 0.8"/>
      </g>
     </g>
    </g>
    <g id="xtick_2">
     <g id="line2d_4">
      <g>
       <use xlink:href="#m8e06f61637" x="118.29213" y="162.72" style="stroke: #000000; stroke-width: 0.8"/>
      </g>
     </g>
    </g>
    <g id="xtick_3">
     <g id="line2d_5">
      <g>
       <use xlink:href="#m8e06f61637" x="159.387642" y="162.72" style="stroke: #000000; stroke-width: 0.8"/>
      </g>
     </g>
    </g>
    <g id="xtick_4">
     <g id="line2d_6">
      <g>
       <use xlink:href="#m8e06f61637" x="200.483154" y="162.72" style="stroke: #000000; stroke-width: 0.8"/>
      </g>
     </g>
    </g>
    <g id="xtick_5">
     <g id="line2d_7">
      <g>
       <use xlink:href="#m8e06f61637" x="241.578666" y="162.72" style="stroke: #000000; stroke-width: 0.8"/>
      </g>
     </g>
    </g>
    <g id="xtick_6">
     <g id="line2d_8">
      <g>
       <use xlink:href="#m8e06f61637" x="282.674178" y="162.72" style="stroke: #000000; stroke-width: 0.8"/>
      </g>
     </g>
    </g>
    <g id="xtick_7">
     <g id="line2d_9">
      <g>
       <use xlink:href="#m8e06f61637" x="323.76969" y="162.72" style="stroke: #000000; stroke-width: 0.8"/>
      </g>
     </g>
    </g>
    <g id="xtick_8">
     <g id="line2d_10">
      <g>
       <use xlink:href="#m8e06f61637" x="364.865202" y="162.72" style="stroke: #000000; stroke-width: 0.8"/>
      </g>
     </g>
    </g>
   </g>
   <g id="matplotlib.axis_2">
    <g id="ytick_1">
     <g id="line2d_11">
      <defs>
       <path id="m84cc9f23af" d="M 0 0 
L -3.5 0 
" style="stroke: #000000; stroke-width: 0.8"/>
      </defs>
      <g>
       <use xlink:href="#m84cc9f23af" x="44.210938" y="154.077319" style="stroke: #000000; stroke-width: 0.8"/>
      </g>
     </g>
     <g id="text_1">
      <!-- -10 -->
      <g transform="translate(20.878125 157.876538) scale(0.1 -0.1)">
       <defs>
        <path id="DejaVuSans-2d" d="M 313 2009 
L 1997 2009 
L 1997 1497 
L 313 1497 
L 313 2009 
z
" transform="scale(0.015625)"/>
        <path id="DejaVuSans-31" d="M 794 531 
L 1825 531 
L 1825 4091 
L 703 3866 
L 703 4441 
L 1819 4666 
L 2450 4666 
L 2450 531 
L 3481 531 
L 3481 0 
L 794 0 
L 794 531 
z
" transform="scale(0.015625)"/>
        <path id="DejaVuSans-30" d="M 2034 4250 
Q 1547 4250 1301 3770 
Q 1056 3291 1056 2328 
Q 1056 1369 1301 889 
Q 1547 409 2034 409 
Q 2525 409 2770 889 
Q 3016 1369 3016 2328 
Q 3016 3291 2770 3770 
Q 2525 4250 2034 4250 
z
M 2034 4750 
Q 2819 4750 3233 4129 
Q 3647 3509 3647 2328 
Q 3647 1150 3233 529 
Q 2819 -91 2034 -91 
Q 1250 -91 836 529 
Q 422 1150 422 2328 
Q 422 3509 836 4129 
Q 1250 4750 2034 4750 
z
" transform="scale(0.015625)"/>
       </defs>
       <use xlink:href="#DejaVuSans-2d"/>
       <use xlink:href="#DejaVuSans-31" x="36.083984"/>
       <use xlink:href="#DejaVuSans-30" x="99.707031"/>
      </g>
     </g>
    </g>
    <g id="ytick_2">
     <g id="line2d_12">
      <g>
       <use xlink:href="#m84cc9f23af" x="44.210938" y="128.125159" style="stroke: #000000; stroke-width: 0.8"/>
      </g>
     </g>
     <g id="text_2">
      <!-- -5 -->
      <g transform="translate(27.240625 131.924378) scale(0.1 -0.1)">
       <defs>
        <path id="DejaVuSans-35" d="M 691 4666 
L 3169 4666 
L 3169 4134 
L 1269 4134 
L 1269 2991 
Q 1406 3038 1543 3061 
Q 1681 3084 1819 3084 
Q 2600 3084 3056 2656 
Q 3513 2228 3513 1497 
Q 3513 744 3044 326 
Q 2575 -91 1722 -91 
Q 1428 -91 1123 -41 
Q 819 9 494 109 
L 494 744 
Q 775 591 1075 516 
Q 1375 441 1709 441 
Q 2250 441 2565 725 
Q 2881 1009 2881 1497 
Q 2881 1984 2565 2268 
Q 2250 2553 1709 2553 
Q 1456 2553 1204 2497 
Q 953 2441 691 2322 
L 691 4666 
z
" transform="scale(0.015625)"/>
       </defs>
       <use xlink:href="#DejaVuSans-2d"/>
       <use xlink:href="#DejaVuSans-35" x="36.083984"/>
      </g>
     </g>
    </g>
    <g id="ytick_3">
     <g id="line2d_13">
      <g>
       <use xlink:href="#m84cc9f23af" x="44.210938" y="102.172999" style="stroke: #000000; stroke-width: 0.8"/>
      </g>
     </g>
     <g id="text_3">
      <!-- 0 -->
      <g transform="translate(30.848437 105.972218) scale(0.1 -0.1)">
       <use xlink:href="#DejaVuSans-30"/>
      </g>
     </g>
    </g>
    <g id="ytick_4">
     <g id="line2d_14">
      <g>
       <use xlink:href="#m84cc9f23af" x="44.210938" y="76.220839" style="stroke: #000000; stroke-width: 0.8"/>
      </g>
     </g>
     <g id="text_4">
      <!-- 5 -->
      <g transform="translate(30.848437 80.020058) scale(0.1 -0.1)">
       <use xlink:href="#DejaVuSans-35"/>
      </g>
     </g>
    </g>
    <g id="ytick_5">
     <g id="line2d_15">
      <g>
       <use xlink:href="#m84cc9f23af" x="44.210938" y="50.268679" style="stroke: #000000; stroke-width: 0.8"/>
      </g>
     </g>
     <g id="text_5">
      <!-- 10 -->
      <g transform="translate(24.485937 54.067898) scale(0.1 -0.1)">
       <use xlink:href="#DejaVuSans-31"/>
       <use xlink:href="#DejaVuSans-30" x="63.623047"/>
      </g>
     </g>
    </g>
    <g id="text_6">
     <!-- Re$(S_{21})$ [mV] -->
     <g transform="translate(14.798437 134.24) rotate(-90) scale(0.1 -0.1)">
      <defs>
       <path id="DejaVuSans-52" d="M 2841 2188 
Q 3044 2119 3236 1894 
Q 3428 1669 3622 1275 
L 4263 0 
L 3584 0 
L 2988 1197 
Q 2756 1666 2539 1819 
Q 2322 1972 1947 1972 
L 1259 1972 
L 1259 0 
L 628 0 
L 628 4666 
L 2053 4666 
Q 2853 4666 3247 4331 
Q 3641 3997 3641 3322 
Q 3641 2881 3436 2590 
Q 3231 2300 2841 2188 
z
M 1259 4147 
L 1259 2491 
L 2053 2491 
Q 2509 2491 2742 2702 
Q 2975 2913 2975 3322 
Q 2975 3731 2742 3939 
Q 2509 4147 2053 4147 
L 1259 4147 
z
" transform="scale(0.015625)"/>
       <path id="DejaVuSans-65" d="M 3597 1894 
L 3597 1613 
L 953 1613 
Q 991 1019 1311 708 
Q 1631 397 2203 397 
Q 2534 397 2845 478 
Q 3156 559 3463 722 
L 3463 178 
Q 3153 47 2828 -22 
Q 2503 -91 2169 -91 
Q 1331 -91 842 396 
Q 353 884 353 1716 
Q 353 2575 817 3079 
Q 1281 3584 2069 3584 
Q 2775 3584 3186 3129 
Q 3597 2675 3597 1894 
z
M 3022 2063 
Q 3016 2534 2758 2815 
Q 2500 3097 2075 3097 
Q 1594 3097 1305 2825 
Q 1016 2553 972 2059 
L 3022 2063 
z
" transform="scale(0.015625)"/>
       <path id="DejaVuSans-28" d="M 1984 4856 
Q 1566 4138 1362 3434 
Q 1159 2731 1159 2009 
Q 1159 1288 1364 580 
Q 1569 -128 1984 -844 
L 1484 -844 
Q 1016 -109 783 600 
Q 550 1309 550 2009 
Q 550 2706 781 3412 
Q 1013 4119 1484 4856 
L 1984 4856 
z
" transform="scale(0.015625)"/>
       <path id="DejaVuSans-Oblique-53" d="M 3859 4513 
L 3738 3897 
Q 3422 4066 3111 4152 
Q 2800 4238 2509 4238 
Q 1944 4238 1609 3991 
Q 1275 3744 1275 3334 
Q 1275 3109 1398 2989 
Q 1522 2869 2034 2731 
L 2413 2638 
Q 3053 2472 3303 2217 
Q 3553 1963 3553 1503 
Q 3553 797 2998 353 
Q 2444 -91 1538 -91 
Q 1166 -91 791 -17 
Q 416 56 38 206 
L 166 856 
Q 513 641 861 531 
Q 1209 422 1556 422 
Q 2147 422 2503 684 
Q 2859 947 2859 1369 
Q 2859 1650 2717 1795 
Q 2575 1941 2106 2059 
L 1728 2156 
Q 1081 2325 845 2545 
Q 609 2766 609 3163 
Q 609 3859 1145 4304 
Q 1681 4750 2541 4750 
Q 2875 4750 3203 4690 
Q 3531 4631 3859 4513 
z
" transform="scale(0.015625)"/>
       <path id="DejaVuSans-32" d="M 1228 531 
L 3431 531 
L 3431 0 
L 469 0 
L 469 531 
Q 828 903 1448 1529 
Q 2069 2156 2228 2338 
Q 2531 2678 2651 2914 
Q 2772 3150 2772 3378 
Q 2772 3750 2511 3984 
Q 2250 4219 1831 4219 
Q 1534 4219 1204 4116 
Q 875 4013 500 3803 
L 500 4441 
Q 881 4594 1212 4672 
Q 1544 4750 1819 4750 
Q 2544 4750 2975 4387 
Q 3406 4025 3406 3419 
Q 3406 3131 3298 2873 
Q 3191 2616 2906 2266 
Q 2828 2175 2409 1742 
Q 1991 1309 1228 531 
z
" transform="scale(0.015625)"/>
       <path id="DejaVuSans-29" d="M 513 4856 
L 1013 4856 
Q 1481 4119 1714 3412 
Q 1947 2706 1947 2009 
Q 1947 1309 1714 600 
Q 1481 -109 1013 -844 
L 513 -844 
Q 928 -128 1133 580 
Q 1338 1288 1338 2009 
Q 1338 2731 1133 3434 
Q 928 4138 513 4856 
z
" transform="scale(0.015625)"/>
       <path id="DejaVuSans-20" transform="scale(0.015625)"/>
       <path id="DejaVuSans-5b" d="M 550 4863 
L 1875 4863 
L 1875 4416 
L 1125 4416 
L 1125 -397 
L 1875 -397 
L 1875 -844 
L 550 -844 
L 550 4863 
z
" transform="scale(0.015625)"/>
       <path id="DejaVuSans-6d" d="M 3328 2828 
Q 3544 3216 3844 3400 
Q 4144 3584 4550 3584 
Q 5097 3584 5394 3201 
Q 5691 2819 5691 2113 
L 5691 0 
L 5113 0 
L 5113 2094 
Q 5113 2597 4934 2840 
Q 4756 3084 4391 3084 
Q 3944 3084 3684 2787 
Q 3425 2491 3425 1978 
L 3425 0 
L 2847 0 
L 2847 2094 
Q 2847 2600 2669 2842 
Q 2491 3084 2119 3084 
Q 1678 3084 1418 2786 
Q 1159 2488 1159 1978 
L 1159 0 
L 581 0 
L 581 3500 
L 1159 3500 
L 1159 2956 
Q 1356 3278 1631 3431 
Q 1906 3584 2284 3584 
Q 2666 3584 2933 3390 
Q 3200 3197 3328 2828 
z
" transform="scale(0.015625)"/>
       <path id="DejaVuSans-56" d="M 1831 0 
L 50 4666 
L 709 4666 
L 2188 738 
L 3669 4666 
L 4325 4666 
L 2547 0 
L 1831 0 
z
" transform="scale(0.015625)"/>
       <path id="DejaVuSans-5d" d="M 1947 4863 
L 1947 -844 
L 622 -844 
L 622 -397 
L 1369 -397 
L 1369 4416 
L 622 4416 
L 622 4863 
L 1947 4863 
z
" transform="scale(0.015625)"/>
      </defs>
      <use xlink:href="#DejaVuSans-52" transform="translate(0 0.015625)"/>
      <use xlink:href="#DejaVuSans-65" transform="translate(69.482422 0.015625)"/>
      <use xlink:href="#DejaVuSans-28" transform="translate(131.005859 0.015625)"/>
      <use xlink:href="#DejaVuSans-Oblique-53" transform="translate(170.019531 0.015625)"/>
      <use xlink:href="#DejaVuSans-32" transform="translate(233.496094 -16.390625) scale(0.7)"/>
      <use xlink:href="#DejaVuSans-31" transform="translate(278.032227 -16.390625) scale(0.7)"/>
      <use xlink:href="#DejaVuSans-29" transform="translate(325.302734 0.015625)"/>
      <use xlink:href="#DejaVuSans-20" transform="translate(364.316406 0.015625)"/>
      <use xlink:href="#DejaVuSans-5b" transform="translate(396.103516 0.015625)"/>
      <use xlink:href="#DejaVuSans-6d" transform="translate(435.117188 0.015625)"/>
      <use xlink:href="#DejaVuSans-56" transform="translate(532.529297 0.015625)"/>
      <use xlink:href="#DejaVuSans-5d" transform="translate(600.9375 0.015625)"/>
     </g>
    </g>
   </g>
   <g id="line2d_16">
    <path d="M 60.443665 57.288852 
L 64.553216 59.967845 
L 68.662767 62.87614 
L 72.772318 65.887491 
L 76.88187 68.544356 
L 80.991421 72.262915 
L 85.100972 75.877255 
L 89.210523 79.348269 
L 93.320074 83.144105 
L 97.429626 87.059931 
L 101.539177 90.567294 
L 105.648728 95.178771 
L 109.758279 99.04709 
L 113.86783 103.072534 
L 117.977382 106.91696 
L 122.086933 110.984773 
L 126.196484 115.184684 
L 130.306035 119.055894 
L 134.415587 122.876764 
L 138.525138 126.59536 
L 142.634689 130.453361 
L 146.74424 133.593874 
L 150.853791 137.109138 
L 154.963343 140.446436 
L 159.072894 143.226906 
L 163.182445 145.839986 
L 167.291996 148.536013 
L 171.401547 150.601769 
L 175.511099 152.495319 
L 179.62065 153.969489 
L 183.730201 155.422935 
L 187.839752 156.460541 
L 191.949303 156.965148 
L 196.058855 157.221818 
L 200.168406 157.19148 
L 204.277957 156.519928 
L 208.387508 155.553957 
L 212.497059 154.199098 
L 216.606611 152.667662 
L 220.716162 150.236399 
L 224.825713 147.604468 
L 228.935264 144.237464 
L 233.044816 140.443921 
L 237.154367 136.176903 
L 241.263918 131.151837 
L 245.373469 125.333123 
L 249.48302 119.564395 
L 253.592572 112.958272 
L 257.702123 106.835748 
L 261.811674 101.725611 
L 265.921225 99.034639 
L 270.030776 100.62126 
L 274.140328 107.26021 
L 278.249879 116.737318 
L 282.35943 125.759754 
L 286.468981 131.966289 
L 290.578532 134.226264 
L 294.688084 133.847379 
L 298.797635 131.556792 
L 302.907186 127.497952 
L 307.016737 122.63657 
L 311.126288 117.547413 
L 315.23584 112.029306 
L 319.345391 106.901051 
L 323.454942 101.593393 
L 327.564493 96.60249 
L 331.674045 91.535847 
L 335.783596 86.542761 
L 339.893147 81.821246 
L 344.002698 77.42075 
L 348.112249 73.164197 
L 352.221801 69.063869 
L 356.331352 65.194433 
L 360.440903 61.923669 
L 364.550454 58.739954 
L 368.660005 55.858501 
L 372.769557 53.230079 
L 376.879108 50.87057 
L 380.988659 48.828657 
L 385.09821 47.258182 
" clip-path="url(#p463d76c720)" style="fill: none; stroke: #1f77b4; stroke-width: 1.5; stroke-linecap: square"/>
    <defs>
     <path id="m22065eab8b" d="M 0 1.5 
C 0.397805 1.5 0.77937 1.341951 1.06066 1.06066 
C 1.341951 0.77937 1.5 0.397805 1.5 0 
C 1.5 -0.397805 1.341951 -0.77937 1.06066 -1.06066 
C 0.77937 -1.341951 0.397805 -1.5 0 -1.5 
C -0.397805 -1.5 -0.77937 -1.341951 -1.06066 -1.06066 
C -1.341951 -0.77937 -1.5 -0.397805 -1.5 0 
C -1.5 0.397805 -1.341951 0.77937 -1.06066 1.06066 
C -0.77937 1.341951 -0.397805 1.5 0 1.5 
z
" style="stroke: #1f77b4"/>
    </defs>
    <g clip-path="url(#p463d76c720)">
     <use xlink:href="#m22065eab8b" x="60.443665" y="57.288852" style="fill: #1f77b4; stroke: #1f77b4"/>
     <use xlink:href="#m22065eab8b" x="64.553216" y="59.967845" style="fill: #1f77b4; stroke: #1f77b4"/>
     <use xlink:href="#m22065eab8b" x="68.662767" y="62.87614" style="fill: #1f77b4; stroke: #1f77b4"/>
     <use xlink:href="#m22065eab8b" x="72.772318" y="65.887491" style="fill: #1f77b4; stroke: #1f77b4"/>
     <use xlink:href="#m22065eab8b" x="76.88187" y="68.544356" style="fill: #1f77b4; stroke: #1f77b4"/>
     <use xlink:href="#m22065eab8b" x="80.991421" y="72.262915" style="fill: #1f77b4; stroke: #1f77b4"/>
     <use xlink:href="#m22065eab8b" x="85.100972" y="75.877255" style="fill: #1f77b4; stroke: #1f77b4"/>
     <use xlink:href="#m22065eab8b" x="89.210523" y="79.348269" style="fill: #1f77b4; stroke: #1f77b4"/>
     <use xlink:href="#m22065eab8b" x="93.320074" y="83.144105" style="fill: #1f77b4; stroke: #1f77b4"/>
     <use xlink:href="#m22065eab8b" x="97.429626" y="87.059931" style="fill: #1f77b4; stroke: #1f77b4"/>
     <use xlink:href="#m22065eab8b" x="101.539177" y="90.567294" style="fill: #1f77b4; stroke: #1f77b4"/>
     <use xlink:href="#m22065eab8b" x="105.648728" y="95.178771" style="fill: #1f77b4; stroke: #1f77b4"/>
     <use xlink:href="#m22065eab8b" x="109.758279" y="99.04709" style="fill: #1f77b4; stroke: #1f77b4"/>
     <use xlink:href="#m22065eab8b" x="113.86783" y="103.072534" style="fill: #1f77b4; stroke: #1f77b4"/>
     <use xlink:href="#m22065eab8b" x="117.977382" y="106.91696" style="fill: #1f77b4; stroke: #1f77b4"/>
     <use xlink:href="#m22065eab8b" x="122.086933" y="110.984773" style="fill: #1f77b4; stroke: #1f77b4"/>
     <use xlink:href="#m22065eab8b" x="126.196484" y="115.184684" style="fill: #1f77b4; stroke: #1f77b4"/>
     <use xlink:href="#m22065eab8b" x="130.306035" y="119.055894" style="fill: #1f77b4; stroke: #1f77b4"/>
     <use xlink:href="#m22065eab8b" x="134.415587" y="122.876764" style="fill: #1f77b4; stroke: #1f77b4"/>
     <use xlink:href="#m22065eab8b" x="138.525138" y="126.59536" style="fill: #1f77b4; stroke: #1f77b4"/>
     <use xlink:href="#m22065eab8b" x="142.634689" y="130.453361" style="fill: #1f77b4; stroke: #1f77b4"/>
     <use xlink:href="#m22065eab8b" x="146.74424" y="133.593874" style="fill: #1f77b4; stroke: #1f77b4"/>
     <use xlink:href="#m22065eab8b" x="150.853791" y="137.109138" style="fill: #1f77b4; stroke: #1f77b4"/>
     <use xlink:href="#m22065eab8b" x="154.963343" y="140.446436" style="fill: #1f77b4; stroke: #1f77b4"/>
     <use xlink:href="#m22065eab8b" x="159.072894" y="143.226906" style="fill: #1f77b4; stroke: #1f77b4"/>
     <use xlink:href="#m22065eab8b" x="163.182445" y="145.839986" style="fill: #1f77b4; stroke: #1f77b4"/>
     <use xlink:href="#m22065eab8b" x="167.291996" y="148.536013" style="fill: #1f77b4; stroke: #1f77b4"/>
     <use xlink:href="#m22065eab8b" x="171.401547" y="150.601769" style="fill: #1f77b4; stroke: #1f77b4"/>
     <use xlink:href="#m22065eab8b" x="175.511099" y="152.495319" style="fill: #1f77b4; stroke: #1f77b4"/>
     <use xlink:href="#m22065eab8b" x="179.62065" y="153.969489" style="fill: #1f77b4; stroke: #1f77b4"/>
     <use xlink:href="#m22065eab8b" x="183.730201" y="155.422935" style="fill: #1f77b4; stroke: #1f77b4"/>
     <use xlink:href="#m22065eab8b" x="187.839752" y="156.460541" style="fill: #1f77b4; stroke: #1f77b4"/>
     <use xlink:href="#m22065eab8b" x="191.949303" y="156.965148" style="fill: #1f77b4; stroke: #1f77b4"/>
     <use xlink:href="#m22065eab8b" x="196.058855" y="157.221818" style="fill: #1f77b4; stroke: #1f77b4"/>
     <use xlink:href="#m22065eab8b" x="200.168406" y="157.19148" style="fill: #1f77b4; stroke: #1f77b4"/>
     <use xlink:href="#m22065eab8b" x="204.277957" y="156.519928" style="fill: #1f77b4; stroke: #1f77b4"/>
     <use xlink:href="#m22065eab8b" x="208.387508" y="155.553957" style="fill: #1f77b4; stroke: #1f77b4"/>
     <use xlink:href="#m22065eab8b" x="212.497059" y="154.199098" style="fill: #1f77b4; stroke: #1f77b4"/>
     <use xlink:href="#m22065eab8b" x="216.606611" y="152.667662" style="fill: #1f77b4; stroke: #1f77b4"/>
     <use xlink:href="#m22065eab8b" x="220.716162" y="150.236399" style="fill: #1f77b4; stroke: #1f77b4"/>
     <use xlink:href="#m22065eab8b" x="224.825713" y="147.604468" style="fill: #1f77b4; stroke: #1f77b4"/>
     <use xlink:href="#m22065eab8b" x="228.935264" y="144.237464" style="fill: #1f77b4; stroke: #1f77b4"/>
     <use xlink:href="#m22065eab8b" x="233.044816" y="140.443921" style="fill: #1f77b4; stroke: #1f77b4"/>
     <use xlink:href="#m22065eab8b" x="237.154367" y="136.176903" style="fill: #1f77b4; stroke: #1f77b4"/>
     <use xlink:href="#m22065eab8b" x="241.263918" y="131.151837" style="fill: #1f77b4; stroke: #1f77b4"/>
     <use xlink:href="#m22065eab8b" x="245.373469" y="125.333123" style="fill: #1f77b4; stroke: #1f77b4"/>
     <use xlink:href="#m22065eab8b" x="249.48302" y="119.564395" style="fill: #1f77b4; stroke: #1f77b4"/>
     <use xlink:href="#m22065eab8b" x="253.592572" y="112.958272" style="fill: #1f77b4; stroke: #1f77b4"/>
     <use xlink:href="#m22065eab8b" x="257.702123" y="106.835748" style="fill: #1f77b4; stroke: #1f77b4"/>
     <use xlink:href="#m22065eab8b" x="261.811674" y="101.725611" style="fill: #1f77b4; stroke: #1f77b4"/>
     <use xlink:href="#m22065eab8b" x="265.921225" y="99.034639" style="fill: #1f77b4; stroke: #1f77b4"/>
     <use xlink:href="#m22065eab8b" x="270.030776" y="100.62126" style="fill: #1f77b4; stroke: #1f77b4"/>
     <use xlink:href="#m22065eab8b" x="274.140328" y="107.26021" style="fill: #1f77b4; stroke: #1f77b4"/>
     <use xlink:href="#m22065eab8b" x="278.249879" y="116.737318" style="fill: #1f77b4; stroke: #1f77b4"/>
     <use xlink:href="#m22065eab8b" x="282.35943" y="125.759754" style="fill: #1f77b4; stroke: #1f77b4"/>
     <use xlink:href="#m22065eab8b" x="286.468981" y="131.966289" style="fill: #1f77b4; stroke: #1f77b4"/>
     <use xlink:href="#m22065eab8b" x="290.578532" y="134.226264" style="fill: #1f77b4; stroke: #1f77b4"/>
     <use xlink:href="#m22065eab8b" x="294.688084" y="133.847379" style="fill: #1f77b4; stroke: #1f77b4"/>
     <use xlink:href="#m22065eab8b" x="298.797635" y="131.556792" style="fill: #1f77b4; stroke: #1f77b4"/>
     <use xlink:href="#m22065eab8b" x="302.907186" y="127.497952" style="fill: #1f77b4; stroke: #1f77b4"/>
     <use xlink:href="#m22065eab8b" x="307.016737" y="122.63657" style="fill: #1f77b4; stroke: #1f77b4"/>
     <use xlink:href="#m22065eab8b" x="311.126288" y="117.547413" style="fill: #1f77b4; stroke: #1f77b4"/>
     <use xlink:href="#m22065eab8b" x="315.23584" y="112.029306" style="fill: #1f77b4; stroke: #1f77b4"/>
     <use xlink:href="#m22065eab8b" x="319.345391" y="106.901051" style="fill: #1f77b4; stroke: #1f77b4"/>
     <use xlink:href="#m22065eab8b" x="323.454942" y="101.593393" style="fill: #1f77b4; stroke: #1f77b4"/>
     <use xlink:href="#m22065eab8b" x="327.564493" y="96.60249" style="fill: #1f77b4; stroke: #1f77b4"/>
     <use xlink:href="#m22065eab8b" x="331.674045" y="91.535847" style="fill: #1f77b4; stroke: #1f77b4"/>
     <use xlink:href="#m22065eab8b" x="335.783596" y="86.542761" style="fill: #1f77b4; stroke: #1f77b4"/>
     <use xlink:href="#m22065eab8b" x="339.893147" y="81.821246" style="fill: #1f77b4; stroke: #1f77b4"/>
     <use xlink:href="#m22065eab8b" x="344.002698" y="77.42075" style="fill: #1f77b4; stroke: #1f77b4"/>
     <use xlink:href="#m22065eab8b" x="348.112249" y="73.164197" style="fill: #1f77b4; stroke: #1f77b4"/>
     <use xlink:href="#m22065eab8b" x="352.221801" y="69.063869" style="fill: #1f77b4; stroke: #1f77b4"/>
     <use xlink:href="#m22065eab8b" x="356.331352" y="65.194433" style="fill: #1f77b4; stroke: #1f77b4"/>
     <use xlink:href="#m22065eab8b" x="360.440903" y="61.923669" style="fill: #1f77b4; stroke: #1f77b4"/>
     <use xlink:href="#m22065eab8b" x="364.550454" y="58.739954" style="fill: #1f77b4; stroke: #1f77b4"/>
     <use xlink:href="#m22065eab8b" x="368.660005" y="55.858501" style="fill: #1f77b4; stroke: #1f77b4"/>
     <use xlink:href="#m22065eab8b" x="372.769557" y="53.230079" style="fill: #1f77b4; stroke: #1f77b4"/>
     <use xlink:href="#m22065eab8b" x="376.879108" y="50.87057" style="fill: #1f77b4; stroke: #1f77b4"/>
     <use xlink:href="#m22065eab8b" x="380.988659" y="48.828657" style="fill: #1f77b4; stroke: #1f77b4"/>
     <use xlink:href="#m22065eab8b" x="385.09821" y="47.258182" style="fill: #1f77b4; stroke: #1f77b4"/>
    </g>
   </g>
   <g id="line2d_17">
    <path d="M 60.443665 57.415533 
L 64.993378 60.247936 
L 69.543091 63.345648 
L 74.417784 66.937987 
L 79.617457 71.054122 
L 85.142109 75.713367 
L 91.31672 81.218664 
L 98.466269 87.906695 
L 107.565696 96.749931 
L 131.93916 120.614466 
L 138.76373 126.903703 
L 144.938341 132.292847 
L 150.462993 136.812847 
L 155.337686 140.523759 
L 159.887399 143.722664 
L 164.112133 146.441314 
L 168.336867 148.897087 
L 172.236621 150.913923 
L 176.136376 152.675572 
L 179.71115 154.053994 
L 183.285925 155.195167 
L 186.8607 156.088525 
L 190.110495 156.676857 
L 193.36029 157.044003 
L 196.610086 157.182177 
L 199.859881 157.083507 
L 202.784697 156.785552 
L 205.709512 156.283171 
L 208.634328 155.570042 
L 211.559144 154.639507 
L 214.48396 153.484479 
L 217.408775 152.097365 
L 220.333591 150.469978 
L 223.258407 148.593494 
L 226.183223 146.458447 
L 229.108038 144.054838 
L 232.032854 141.372438 
L 234.95767 138.401424 
L 237.882485 135.133599 
L 241.132281 131.14948 
L 244.382076 126.799291 
L 247.956851 121.626824 
L 252.831544 114.11663 
L 257.706236 106.700781 
L 259.981093 103.640437 
L 261.605991 101.775562 
L 262.905909 100.552058 
L 264.205827 99.62775 
L 265.180766 99.16556 
L 266.155704 98.927711 
L 267.130643 98.935857 
L 268.105581 99.208307 
L 269.08052 99.758511 
L 270.055458 100.593528 
L 271.030397 101.712636 
L 272.330315 103.628811 
L 273.630233 105.983231 
L 275.255131 109.422325 
L 277.854967 115.579385 
L 280.779783 122.431623 
L 282.72966 126.400203 
L 284.354557 129.144977 
L 285.654476 130.925158 
L 286.954394 132.325419 
L 288.254312 133.352947 
L 289.55423 134.02629 
L 290.529168 134.3143 
L 291.829087 134.432875 
L 293.129005 134.277017 
L 294.428923 133.878325 
L 295.728841 133.267182 
L 297.353738 132.247417 
L 299.303616 130.713358 
L 301.578472 128.587517 
L 304.178309 125.829365 
L 307.428104 122.045067 
L 311.977817 116.381403 
L 332.451527 90.465249 
L 337.976179 84.00947 
L 343.175852 78.267229 
L 348.050544 73.210508 
L 352.600258 68.798768 
L 357.149971 64.702663 
L 361.374705 61.195782 
L 365.599439 57.986367 
L 369.499193 55.296737 
L 373.398947 52.876432 
L 377.298702 50.731648 
L 380.873476 49.012125 
L 384.448251 47.531843 
L 385.09821 47.288619 
L 385.09821 47.288619 
" clip-path="url(#p463d76c720)" style="fill: none; stroke: #d62728; stroke-width: 1.5; stroke-linecap: square"/>
   </g>
   <g id="patch_3">
    <path d="M 44.210938 162.72 
L 44.210938 41.76 
" style="fill: none; stroke: #000000; stroke-width: 0.8; stroke-linejoin: miter; stroke-linecap: square"/>
   </g>
   <g id="patch_4">
    <path d="M 401.330938 162.72 
L 401.330938 41.76 
" style="fill: none; stroke: #000000; stroke-width: 0.8; stroke-linejoin: miter; stroke-linecap: square"/>
   </g>
   <g id="patch_5">
    <path d="M 44.210938 162.72 
L 401.330937 162.72 
" style="fill: none; stroke: #000000; stroke-width: 0.8; stroke-linejoin: miter; stroke-linecap: square"/>
   </g>
   <g id="patch_6">
    <path d="M 44.210938 41.76 
L 401.330937 41.76 
" style="fill: none; stroke: #000000; stroke-width: 0.8; stroke-linejoin: miter; stroke-linecap: square"/>
   </g>
   <g id="text_7">
    <g id="patch_7">
     <path d="M 419.186937 107.299562 
L 571.286938 107.299562 
Q 575.286938 107.299562 575.286938 103.299562 
L 575.286938 48.828312 
Q 575.286938 44.828312 571.286938 44.828312 
L 419.186937 44.828312 
Q 415.186937 44.828312 415.186937 48.828312 
L 415.186937 103.299562 
Q 415.186937 107.299562 419.186937 107.299562 
z
" style="fill: #ffffff; opacity: 0.5; stroke: #000000; stroke-linejoin: miter"/>
    </g>
    <!-- Summary: -->
    <g transform="translate(419.186937 55.406437) scale(0.1 -0.1)">
     <defs>
      <path id="DejaVuSans-53" d="M 3425 4513 
L 3425 3897 
Q 3066 4069 2747 4153 
Q 2428 4238 2131 4238 
Q 1616 4238 1336 4038 
Q 1056 3838 1056 3469 
Q 1056 3159 1242 3001 
Q 1428 2844 1947 2747 
L 2328 2669 
Q 3034 2534 3370 2195 
Q 3706 1856 3706 1288 
Q 3706 609 3251 259 
Q 2797 -91 1919 -91 
Q 1588 -91 1214 -16 
Q 841 59 441 206 
L 441 856 
Q 825 641 1194 531 
Q 1563 422 1919 422 
Q 2459 422 2753 634 
Q 3047 847 3047 1241 
Q 3047 1584 2836 1778 
Q 2625 1972 2144 2069 
L 1759 2144 
Q 1053 2284 737 2584 
Q 422 2884 422 3419 
Q 422 4038 858 4394 
Q 1294 4750 2059 4750 
Q 2388 4750 2728 4690 
Q 3069 4631 3425 4513 
z
" transform="scale(0.015625)"/>
      <path id="DejaVuSans-75" d="M 544 1381 
L 544 3500 
L 1119 3500 
L 1119 1403 
Q 1119 906 1312 657 
Q 1506 409 1894 409 
Q 2359 409 2629 706 
Q 2900 1003 2900 1516 
L 2900 3500 
L 3475 3500 
L 3475 0 
L 2900 0 
L 2900 538 
Q 2691 219 2414 64 
Q 2138 -91 1772 -91 
Q 1169 -91 856 284 
Q 544 659 544 1381 
z
M 1991 3584 
L 1991 3584 
z
" transform="scale(0.015625)"/>
      <path id="DejaVuSans-61" d="M 2194 1759 
Q 1497 1759 1228 1600 
Q 959 1441 959 1056 
Q 959 750 1161 570 
Q 1363 391 1709 391 
Q 2188 391 2477 730 
Q 2766 1069 2766 1631 
L 2766 1759 
L 2194 1759 
z
M 3341 1997 
L 3341 0 
L 2766 0 
L 2766 531 
Q 2569 213 2275 61 
Q 1981 -91 1556 -91 
Q 1019 -91 701 211 
Q 384 513 384 1019 
Q 384 1609 779 1909 
Q 1175 2209 1959 2209 
L 2766 2209 
L 2766 2266 
Q 2766 2663 2505 2880 
Q 2244 3097 1772 3097 
Q 1472 3097 1187 3025 
Q 903 2953 641 2809 
L 641 3341 
Q 956 3463 1253 3523 
Q 1550 3584 1831 3584 
Q 2591 3584 2966 3190 
Q 3341 2797 3341 1997 
z
" transform="scale(0.015625)"/>
      <path id="DejaVuSans-72" d="M 2631 2963 
Q 2534 3019 2420 3045 
Q 2306 3072 2169 3072 
Q 1681 3072 1420 2755 
Q 1159 2438 1159 1844 
L 1159 0 
L 581 0 
L 581 3500 
L 1159 3500 
L 1159 2956 
Q 1341 3275 1631 3429 
Q 1922 3584 2338 3584 
Q 2397 3584 2469 3576 
Q 2541 3569 2628 3553 
L 2631 2963 
z
" transform="scale(0.015625)"/>
      <path id="DejaVuSans-79" d="M 2059 -325 
Q 1816 -950 1584 -1140 
Q 1353 -1331 966 -1331 
L 506 -1331 
L 506 -850 
L 844 -850 
Q 1081 -850 1212 -737 
Q 1344 -625 1503 -206 
L 1606 56 
L 191 3500 
L 800 3500 
L 1894 763 
L 2988 3500 
L 3597 3500 
L 2059 -325 
z
" transform="scale(0.015625)"/>
      <path id="DejaVuSans-3a" d="M 750 794 
L 1409 794 
L 1409 0 
L 750 0 
L 750 794 
z
M 750 3309 
L 1409 3309 
L 1409 2516 
L 750 2516 
L 750 3309 
z
" transform="scale(0.015625)"/>
     </defs>
     <use xlink:href="#DejaVuSans-53"/>
     <use xlink:href="#DejaVuSans-75" x="63.476562"/>
     <use xlink:href="#DejaVuSans-6d" x="126.855469"/>
     <use xlink:href="#DejaVuSans-6d" x="224.267578"/>
     <use xlink:href="#DejaVuSans-61" x="321.679688"/>
     <use xlink:href="#DejaVuSans-72" x="382.958984"/>
     <use xlink:href="#DejaVuSans-79" x="424.072266"/>
     <use xlink:href="#DejaVuSans-3a" x="476.001953"/>
    </g>
    <!-- $Q_I$: 101.87$\pm$0.75 k -->
    <g transform="translate(419.186937 66.60425) scale(0.1 -0.1)">
     <defs>
      <path id="DejaVuSans-Oblique-51" d="M 2309 -84 
Q 2275 -88 2237 -89 
Q 2200 -91 2125 -91 
Q 1250 -91 756 411 
Q 263 913 263 1797 
Q 263 2319 452 2844 
Q 641 3369 978 3788 
Q 1369 4269 1858 4509 
Q 2347 4750 2938 4750 
Q 3794 4750 4287 4245 
Q 4781 3741 4781 2869 
Q 4781 1928 4265 1147 
Q 3750 366 2919 44 
L 3553 -825 
L 2847 -825 
L 2309 -84 
z
M 2919 4238 
Q 2400 4238 2003 3986 
Q 1606 3734 1313 3219 
Q 1125 2891 1026 2522 
Q 928 2153 928 1778 
Q 928 1128 1239 775 
Q 1550 422 2119 422 
Q 2631 422 3032 676 
Q 3434 931 3719 1434 
Q 3909 1772 4009 2142 
Q 4109 2513 4109 2881 
Q 4109 3528 3796 3883 
Q 3484 4238 2919 4238 
z
" transform="scale(0.015625)"/>
      <path id="DejaVuSans-Oblique-49" d="M 1081 4666 
L 1716 4666 
L 806 0 
L 172 0 
L 1081 4666 
z
" transform="scale(0.015625)"/>
      <path id="DejaVuSans-2e" d="M 684 794 
L 1344 794 
L 1344 0 
L 684 0 
L 684 794 
z
" transform="scale(0.015625)"/>
      <path id="DejaVuSans-38" d="M 2034 2216 
Q 1584 2216 1326 1975 
Q 1069 1734 1069 1313 
Q 1069 891 1326 650 
Q 1584 409 2034 409 
Q 2484 409 2743 651 
Q 3003 894 3003 1313 
Q 3003 1734 2745 1975 
Q 2488 2216 2034 2216 
z
M 1403 2484 
Q 997 2584 770 2862 
Q 544 3141 544 3541 
Q 544 4100 942 4425 
Q 1341 4750 2034 4750 
Q 2731 4750 3128 4425 
Q 3525 4100 3525 3541 
Q 3525 3141 3298 2862 
Q 3072 2584 2669 2484 
Q 3125 2378 3379 2068 
Q 3634 1759 3634 1313 
Q 3634 634 3220 271 
Q 2806 -91 2034 -91 
Q 1263 -91 848 271 
Q 434 634 434 1313 
Q 434 1759 690 2068 
Q 947 2378 1403 2484 
z
M 1172 3481 
Q 1172 3119 1398 2916 
Q 1625 2713 2034 2713 
Q 2441 2713 2670 2916 
Q 2900 3119 2900 3481 
Q 2900 3844 2670 4047 
Q 2441 4250 2034 4250 
Q 1625 4250 1398 4047 
Q 1172 3844 1172 3481 
z
" transform="scale(0.015625)"/>
      <path id="DejaVuSans-37" d="M 525 4666 
L 3525 4666 
L 3525 4397 
L 1831 0 
L 1172 0 
L 2766 4134 
L 525 4134 
L 525 4666 
z
" transform="scale(0.015625)"/>
      <path id="DejaVuSans-b1" d="M 2944 4013 
L 2944 2803 
L 4684 2803 
L 4684 2272 
L 2944 2272 
L 2944 1063 
L 2419 1063 
L 2419 2272 
L 678 2272 
L 678 2803 
L 2419 2803 
L 2419 4013 
L 2944 4013 
z
M 678 531 
L 4684 531 
L 4684 0 
L 678 0 
L 678 531 
z
" transform="scale(0.015625)"/>
      <path id="DejaVuSans-6b" d="M 581 4863 
L 1159 4863 
L 1159 1991 
L 2875 3500 
L 3609 3500 
L 1753 1863 
L 3688 0 
L 2938 0 
L 1159 1709 
L 1159 0 
L 581 0 
L 581 4863 
z
" transform="scale(0.015625)"/>
     </defs>
     <use xlink:href="#DejaVuSans-Oblique-51" transform="translate(0 0.015625)"/>
     <use xlink:href="#DejaVuSans-Oblique-49" transform="translate(78.710938 -16.390625) scale(0.7)"/>
     <use xlink:href="#DejaVuSans-3a" transform="translate(102.089844 0.015625)"/>
     <use xlink:href="#DejaVuSans-20" transform="translate(135.78125 0.015625)"/>
     <use xlink:href="#DejaVuSans-31" transform="translate(167.568359 0.015625)"/>
     <use xlink:href="#DejaVuSans-30" transform="translate(231.191406 0.015625)"/>
     <use xlink:href="#DejaVuSans-31" transform="translate(294.814453 0.015625)"/>
     <use xlink:href="#DejaVuSans-2e" transform="translate(358.4375 0.015625)"/>
     <use xlink:href="#DejaVuSans-38" transform="translate(387.599609 0.015625)"/>
     <use xlink:href="#DejaVuSans-37" transform="translate(451.222656 0.015625)"/>
     <use xlink:href="#DejaVuSans-b1" transform="translate(514.845703 0.015625)"/>
     <use xlink:href="#DejaVuSans-30" transform="translate(598.634766 0.015625)"/>
     <use xlink:href="#DejaVuSans-2e" transform="translate(662.257812 0.015625)"/>
     <use xlink:href="#DejaVuSans-37" transform="translate(686.294922 0.015625)"/>
     <use xlink:href="#DejaVuSans-35" transform="translate(749.917969 0.015625)"/>
     <use xlink:href="#DejaVuSans-20" transform="translate(813.541016 0.015625)"/>
     <use xlink:href="#DejaVuSans-6b" transform="translate(845.328125 0.015625)"/>
    </g>
    <!-- $Q_C$: 17.739$\pm$0.026 k -->
    <g transform="translate(419.186937 77.802062) scale(0.1 -0.1)">
     <defs>
      <path id="DejaVuSans-Oblique-43" d="M 4447 4306 
L 4319 3641 
Q 4019 3944 3683 4091 
Q 3347 4238 2956 4238 
Q 2422 4238 2017 3981 
Q 1613 3725 1319 3200 
Q 1131 2863 1032 2486 
Q 934 2109 934 1728 
Q 934 1091 1264 756 
Q 1594 422 2222 422 
Q 2656 422 3056 561 
Q 3456 700 3834 978 
L 3688 231 
Q 3316 72 2936 -9 
Q 2556 -91 2175 -91 
Q 1278 -91 773 396 
Q 269 884 269 1753 
Q 269 2309 461 2846 
Q 653 3384 1013 3828 
Q 1394 4300 1883 4525 
Q 2372 4750 3022 4750 
Q 3422 4750 3780 4639 
Q 4138 4528 4447 4306 
z
" transform="scale(0.015625)"/>
      <path id="DejaVuSans-33" d="M 2597 2516 
Q 3050 2419 3304 2112 
Q 3559 1806 3559 1356 
Q 3559 666 3084 287 
Q 2609 -91 1734 -91 
Q 1441 -91 1130 -33 
Q 819 25 488 141 
L 488 750 
Q 750 597 1062 519 
Q 1375 441 1716 441 
Q 2309 441 2620 675 
Q 2931 909 2931 1356 
Q 2931 1769 2642 2001 
Q 2353 2234 1838 2234 
L 1294 2234 
L 1294 2753 
L 1863 2753 
Q 2328 2753 2575 2939 
Q 2822 3125 2822 3475 
Q 2822 3834 2567 4026 
Q 2313 4219 1838 4219 
Q 1578 4219 1281 4162 
Q 984 4106 628 3988 
L 628 4550 
Q 988 4650 1302 4700 
Q 1616 4750 1894 4750 
Q 2613 4750 3031 4423 
Q 3450 4097 3450 3541 
Q 3450 3153 3228 2886 
Q 3006 2619 2597 2516 
z
" transform="scale(0.015625)"/>
      <path id="DejaVuSans-39" d="M 703 97 
L 703 672 
Q 941 559 1184 500 
Q 1428 441 1663 441 
Q 2288 441 2617 861 
Q 2947 1281 2994 2138 
Q 2813 1869 2534 1725 
Q 2256 1581 1919 1581 
Q 1219 1581 811 2004 
Q 403 2428 403 3163 
Q 403 3881 828 4315 
Q 1253 4750 1959 4750 
Q 2769 4750 3195 4129 
Q 3622 3509 3622 2328 
Q 3622 1225 3098 567 
Q 2575 -91 1691 -91 
Q 1453 -91 1209 -44 
Q 966 3 703 97 
z
M 1959 2075 
Q 2384 2075 2632 2365 
Q 2881 2656 2881 3163 
Q 2881 3666 2632 3958 
Q 2384 4250 1959 4250 
Q 1534 4250 1286 3958 
Q 1038 3666 1038 3163 
Q 1038 2656 1286 2365 
Q 1534 2075 1959 2075 
z
" transform="scale(0.015625)"/>
      <path id="DejaVuSans-36" d="M 2113 2584 
Q 1688 2584 1439 2293 
Q 1191 2003 1191 1497 
Q 1191 994 1439 701 
Q 1688 409 2113 409 
Q 2538 409 2786 701 
Q 3034 994 3034 1497 
Q 3034 2003 2786 2293 
Q 2538 2584 2113 2584 
z
M 3366 4563 
L 3366 3988 
Q 3128 4100 2886 4159 
Q 2644 4219 2406 4219 
Q 1781 4219 1451 3797 
Q 1122 3375 1075 2522 
Q 1259 2794 1537 2939 
Q 1816 3084 2150 3084 
Q 2853 3084 3261 2657 
Q 3669 2231 3669 1497 
Q 3669 778 3244 343 
Q 2819 -91 2113 -91 
Q 1303 -91 875 529 
Q 447 1150 447 2328 
Q 447 3434 972 4092 
Q 1497 4750 2381 4750 
Q 2619 4750 2861 4703 
Q 3103 4656 3366 4563 
z
" transform="scale(0.015625)"/>
     </defs>
     <use xlink:href="#DejaVuSans-Oblique-51" transform="translate(0 0.015625)"/>
     <use xlink:href="#DejaVuSans-Oblique-43" transform="translate(78.710938 -16.390625) scale(0.7)"/>
     <use xlink:href="#DejaVuSans-3a" transform="translate(130.322266 0.015625)"/>
     <use xlink:href="#DejaVuSans-20" transform="translate(164.013672 0.015625)"/>
     <use xlink:href="#DejaVuSans-31" transform="translate(195.800781 0.015625)"/>
     <use xlink:href="#DejaVuSans-37" transform="translate(259.423828 0.015625)"/>
     <use xlink:href="#DejaVuSans-2e" transform="translate(323.046875 0.015625)"/>
     <use xlink:href="#DejaVuSans-37" transform="translate(347.083984 0.015625)"/>
     <use xlink:href="#DejaVuSans-33" transform="translate(410.707031 0.015625)"/>
     <use xlink:href="#DejaVuSans-39" transform="translate(474.330078 0.015625)"/>
     <use xlink:href="#DejaVuSans-b1" transform="translate(537.953125 0.015625)"/>
     <use xlink:href="#DejaVuSans-30" transform="translate(621.742188 0.015625)"/>
     <use xlink:href="#DejaVuSans-2e" transform="translate(685.365234 0.015625)"/>
     <use xlink:href="#DejaVuSans-30" transform="translate(717.152344 0.015625)"/>
     <use xlink:href="#DejaVuSans-32" transform="translate(780.775391 0.015625)"/>
     <use xlink:href="#DejaVuSans-36" transform="translate(844.398438 0.015625)"/>
     <use xlink:href="#DejaVuSans-20" transform="translate(908.021484 0.015625)"/>
     <use xlink:href="#DejaVuSans-6b" transform="translate(939.808594 0.015625)"/>
    </g>
    <!-- $f_{res}$: 7.09640900$\pm$4.4e-07 GHz -->
    <g transform="translate(419.186937 88.999875) scale(0.1 -0.1)">
     <defs>
      <path id="DejaVuSans-Oblique-66" d="M 3059 4863 
L 2969 4384 
L 2419 4384 
Q 2106 4384 1964 4261 
Q 1822 4138 1753 3809 
L 1691 3500 
L 2638 3500 
L 2553 3053 
L 1606 3053 
L 1013 0 
L 434 0 
L 1031 3053 
L 481 3053 
L 563 3500 
L 1113 3500 
L 1159 3744 
Q 1278 4363 1576 4613 
Q 1875 4863 2516 4863 
L 3059 4863 
z
" transform="scale(0.015625)"/>
      <path id="DejaVuSans-Oblique-72" d="M 2853 2969 
Q 2766 3016 2653 3041 
Q 2541 3066 2413 3066 
Q 1953 3066 1609 2717 
Q 1266 2369 1153 1784 
L 800 0 
L 225 0 
L 909 3500 
L 1484 3500 
L 1375 2956 
Q 1603 3259 1920 3421 
Q 2238 3584 2597 3584 
Q 2691 3584 2781 3573 
Q 2872 3563 2963 3538 
L 2853 2969 
z
" transform="scale(0.015625)"/>
      <path id="DejaVuSans-Oblique-65" d="M 3078 2063 
Q 3088 2113 3092 2166 
Q 3097 2219 3097 2272 
Q 3097 2653 2873 2875 
Q 2650 3097 2266 3097 
Q 1838 3097 1509 2826 
Q 1181 2556 1013 2059 
L 3078 2063 
z
M 3578 1613 
L 903 1613 
Q 884 1494 878 1425 
Q 872 1356 872 1306 
Q 872 872 1139 634 
Q 1406 397 1894 397 
Q 2269 397 2603 481 
Q 2938 566 3225 728 
L 3116 159 
Q 2806 34 2476 -28 
Q 2147 -91 1806 -91 
Q 1078 -91 686 257 
Q 294 606 294 1247 
Q 294 1794 489 2264 
Q 684 2734 1063 3103 
Q 1306 3334 1642 3459 
Q 1978 3584 2356 3584 
Q 2950 3584 3301 3228 
Q 3653 2872 3653 2272 
Q 3653 2128 3634 1964 
Q 3616 1800 3578 1613 
z
" transform="scale(0.015625)"/>
      <path id="DejaVuSans-Oblique-73" d="M 3200 3397 
L 3091 2853 
Q 2863 2978 2609 3040 
Q 2356 3103 2088 3103 
Q 1634 3103 1373 2948 
Q 1113 2794 1113 2528 
Q 1113 2219 1719 2053 
Q 1766 2041 1788 2034 
L 1972 1978 
Q 2547 1819 2739 1644 
Q 2931 1469 2931 1166 
Q 2931 609 2489 259 
Q 2047 -91 1331 -91 
Q 1053 -91 747 -37 
Q 441 16 72 128 
L 184 722 
Q 500 559 806 475 
Q 1113 391 1394 391 
Q 1816 391 2080 572 
Q 2344 753 2344 1031 
Q 2344 1331 1650 1516 
L 1591 1531 
L 1394 1581 
Q 956 1697 753 1886 
Q 550 2075 550 2369 
Q 550 2928 970 3256 
Q 1391 3584 2113 3584 
Q 2397 3584 2667 3537 
Q 2938 3491 3200 3397 
z
" transform="scale(0.015625)"/>
      <path id="DejaVuSans-34" d="M 2419 4116 
L 825 1625 
L 2419 1625 
L 2419 4116 
z
M 2253 4666 
L 3047 4666 
L 3047 1625 
L 3713 1625 
L 3713 1100 
L 3047 1100 
L 3047 0 
L 2419 0 
L 2419 1100 
L 313 1100 
L 313 1709 
L 2253 4666 
z
" transform="scale(0.015625)"/>
      <path id="DejaVuSans-47" d="M 3809 666 
L 3809 1919 
L 2778 1919 
L 2778 2438 
L 4434 2438 
L 4434 434 
Q 4069 175 3628 42 
Q 3188 -91 2688 -91 
Q 1594 -91 976 548 
Q 359 1188 359 2328 
Q 359 3472 976 4111 
Q 1594 4750 2688 4750 
Q 3144 4750 3555 4637 
Q 3966 4525 4313 4306 
L 4313 3634 
Q 3963 3931 3569 4081 
Q 3175 4231 2741 4231 
Q 1884 4231 1454 3753 
Q 1025 3275 1025 2328 
Q 1025 1384 1454 906 
Q 1884 428 2741 428 
Q 3075 428 3337 486 
Q 3600 544 3809 666 
z
" transform="scale(0.015625)"/>
      <path id="DejaVuSans-48" d="M 628 4666 
L 1259 4666 
L 1259 2753 
L 3553 2753 
L 3553 4666 
L 4184 4666 
L 4184 0 
L 3553 0 
L 3553 2222 
L 1259 2222 
L 1259 0 
L 628 0 
L 628 4666 
z
" transform="scale(0.015625)"/>
      <path id="DejaVuSans-7a" d="M 353 3500 
L 3084 3500 
L 3084 2975 
L 922 459 
L 3084 459 
L 3084 0 
L 275 0 
L 275 525 
L 2438 3041 
L 353 3041 
L 353 3500 
z
" transform="scale(0.015625)"/>
     </defs>
     <use xlink:href="#DejaVuSans-Oblique-66" transform="translate(0 0.015625)"/>
     <use xlink:href="#DejaVuSans-Oblique-72" transform="translate(35.205078 -16.390625) scale(0.7)"/>
     <use xlink:href="#DejaVuSans-Oblique-65" transform="translate(63.984375 -16.390625) scale(0.7)"/>
     <use xlink:href="#DejaVuSans-Oblique-73" transform="translate(107.050781 -16.390625) scale(0.7)"/>
     <use xlink:href="#DejaVuSans-3a" transform="translate(146.254883 0.015625)"/>
     <use xlink:href="#DejaVuSans-20" transform="translate(179.946289 0.015625)"/>
     <use xlink:href="#DejaVuSans-37" transform="translate(211.733398 0.015625)"/>
     <use xlink:href="#DejaVuSans-2e" transform="translate(275.356445 0.015625)"/>
     <use xlink:href="#DejaVuSans-30" transform="translate(307.143555 0.015625)"/>
     <use xlink:href="#DejaVuSans-39" transform="translate(370.766602 0.015625)"/>
     <use xlink:href="#DejaVuSans-36" transform="translate(434.389648 0.015625)"/>
     <use xlink:href="#DejaVuSans-34" transform="translate(498.012695 0.015625)"/>
     <use xlink:href="#DejaVuSans-30" transform="translate(561.635742 0.015625)"/>
     <use xlink:href="#DejaVuSans-39" transform="translate(625.258789 0.015625)"/>
     <use xlink:href="#DejaVuSans-30" transform="translate(688.881836 0.015625)"/>
     <use xlink:href="#DejaVuSans-30" transform="translate(752.504883 0.015625)"/>
     <use xlink:href="#DejaVuSans-b1" transform="translate(816.12793 0.015625)"/>
     <use xlink:href="#DejaVuSans-34" transform="translate(899.916992 0.015625)"/>
     <use xlink:href="#DejaVuSans-2e" transform="translate(963.540039 0.015625)"/>
     <use xlink:href="#DejaVuSans-34" transform="translate(995.327148 0.015625)"/>
     <use xlink:href="#DejaVuSans-65" transform="translate(1058.950195 0.015625)"/>
     <use xlink:href="#DejaVuSans-2d" transform="translate(1120.473633 0.015625)"/>
     <use xlink:href="#DejaVuSans-30" transform="translate(1156.557617 0.015625)"/>
     <use xlink:href="#DejaVuSans-37" transform="translate(1220.180664 0.015625)"/>
     <use xlink:href="#DejaVuSans-20" transform="translate(1283.803711 0.015625)"/>
     <use xlink:href="#DejaVuSans-47" transform="translate(1315.59082 0.015625)"/>
     <use xlink:href="#DejaVuSans-48" transform="translate(1393.081055 0.015625)"/>
     <use xlink:href="#DejaVuSans-7a" transform="translate(1468.276367 0.015625)"/>
    </g>
    <!-- $f_{opt}$: 7.0964 GHz -->
    <g transform="translate(419.186937 100.199562) scale(0.1 -0.1)">
     <defs>
      <path id="DejaVuSans-Oblique-6f" d="M 1625 -91 
Q 1009 -91 651 289 
Q 294 669 294 1325 
Q 294 1706 417 2101 
Q 541 2497 738 2766 
Q 1047 3184 1428 3384 
Q 1809 3584 2291 3584 
Q 2888 3584 3255 3212 
Q 3622 2841 3622 2241 
Q 3622 1825 3500 1412 
Q 3378 1000 3181 728 
Q 2875 309 2494 109 
Q 2113 -91 1625 -91 
z
M 891 1344 
Q 891 869 1089 633 
Q 1288 397 1691 397 
Q 2269 397 2648 901 
Q 3028 1406 3028 2181 
Q 3028 2634 2825 2865 
Q 2622 3097 2228 3097 
Q 1903 3097 1650 2945 
Q 1397 2794 1197 2484 
Q 1050 2253 970 1956 
Q 891 1659 891 1344 
z
" transform="scale(0.015625)"/>
      <path id="DejaVuSans-Oblique-70" d="M 3175 2156 
Q 3175 2616 2975 2859 
Q 2775 3103 2400 3103 
Q 2144 3103 1911 2972 
Q 1678 2841 1497 2591 
Q 1319 2344 1212 1994 
Q 1106 1644 1106 1300 
Q 1106 863 1306 627 
Q 1506 391 1875 391 
Q 2147 391 2380 519 
Q 2613 647 2778 891 
Q 2956 1147 3065 1494 
Q 3175 1841 3175 2156 
z
M 1394 2969 
Q 1625 3272 1939 3428 
Q 2253 3584 2638 3584 
Q 3175 3584 3472 3232 
Q 3769 2881 3769 2247 
Q 3769 1728 3584 1258 
Q 3400 788 3053 416 
Q 2822 169 2531 39 
Q 2241 -91 1919 -91 
Q 1547 -91 1294 64 
Q 1041 219 916 525 
L 556 -1331 
L -19 -1331 
L 922 3500 
L 1497 3500 
L 1394 2969 
z
" transform="scale(0.015625)"/>
      <path id="DejaVuSans-Oblique-74" d="M 2706 3500 
L 2619 3053 
L 1472 3053 
L 1100 1153 
Q 1081 1047 1072 975 
Q 1063 903 1063 863 
Q 1063 663 1183 572 
Q 1303 481 1569 481 
L 2150 481 
L 2053 0 
L 1503 0 
Q 991 0 739 200 
Q 488 400 488 806 
Q 488 878 497 964 
Q 506 1050 525 1153 
L 897 3053 
L 409 3053 
L 500 3500 
L 978 3500 
L 1172 4494 
L 1747 4494 
L 1556 3500 
L 2706 3500 
z
" transform="scale(0.015625)"/>
     </defs>
     <use xlink:href="#DejaVuSans-Oblique-66" transform="translate(0 0.015625)"/>
     <use xlink:href="#DejaVuSans-Oblique-6f" transform="translate(35.205078 -16.390625) scale(0.7)"/>
     <use xlink:href="#DejaVuSans-Oblique-70" transform="translate(78.032227 -16.390625) scale(0.7)"/>
     <use xlink:href="#DejaVuSans-Oblique-74" transform="translate(122.46582 -16.390625) scale(0.7)"/>
     <use xlink:href="#DejaVuSans-3a" transform="translate(152.646484 0.015625)"/>
     <use xlink:href="#DejaVuSans-20" transform="translate(186.337891 0.015625)"/>
     <use xlink:href="#DejaVuSans-37" transform="translate(218.125 0.015625)"/>
     <use xlink:href="#DejaVuSans-2e" transform="translate(281.748047 0.015625)"/>
     <use xlink:href="#DejaVuSans-30" transform="translate(313.535156 0.015625)"/>
     <use xlink:href="#DejaVuSans-39" transform="translate(377.158203 0.015625)"/>
     <use xlink:href="#DejaVuSans-36" transform="translate(440.78125 0.015625)"/>
     <use xlink:href="#DejaVuSans-34" transform="translate(504.404297 0.015625)"/>
     <use xlink:href="#DejaVuSans-20" transform="translate(568.027344 0.015625)"/>
     <use xlink:href="#DejaVuSans-47" transform="translate(599.814453 0.015625)"/>
     <use xlink:href="#DejaVuSans-48" transform="translate(677.304688 0.015625)"/>
     <use xlink:href="#DejaVuSans-7a" transform="translate(752.5 0.015625)"/>
    </g>
   </g>
  </g>
  <g id="axes_2">
   <g id="patch_8">
    <path d="M 44.210938 307.872 
L 401.330938 307.872 
L 401.330938 186.912 
L 44.210938 186.912 
z
" style="fill: #ffffff"/>
   </g>
   <g id="line2d_18">
    <path d="M 275.194786 307.872 
L 275.194786 186.912 
" clip-path="url(#p8a4346846b)" style="fill: none; stroke-dasharray: 5.55,2.4; stroke-dashoffset: 0; stroke: #d3d3d3; stroke-width: 1.5"/>
   </g>
   <g id="line2d_19">
    <path d="M 274.140328 307.872 
L 274.140328 186.912 
" clip-path="url(#p8a4346846b)" style="fill: none; stroke-dasharray: 5.55,2.4; stroke-dashoffset: 0; stroke: #808080; stroke-width: 1.5"/>
   </g>
   <g id="matplotlib.axis_3">
    <g id="xtick_9">
     <g id="line2d_20">
      <g>
       <use xlink:href="#m8e06f61637" x="77.196618" y="307.872" style="stroke: #000000; stroke-width: 0.8"/>
      </g>
     </g>
     <g id="text_8">
      <!-- 94 -->
      <g transform="translate(70.834118 322.470438) scale(0.1 -0.1)">
       <use xlink:href="#DejaVuSans-39"/>
       <use xlink:href="#DejaVuSans-34" x="63.623047"/>
      </g>
     </g>
    </g>
    <g id="xtick_10">
     <g id="line2d_21">
      <g>
       <use xlink:href="#m8e06f61637" x="118.29213" y="307.872" style="stroke: #000000; stroke-width: 0.8"/>
      </g>
     </g>
     <g id="text_9">
      <!-- 94.5 -->
      <g transform="translate(107.159317 322.470438) scale(0.1 -0.1)">
       <use xlink:href="#DejaVuSans-39"/>
       <use xlink:href="#DejaVuSans-34" x="63.623047"/>
       <use xlink:href="#DejaVuSans-2e" x="127.246094"/>
       <use xlink:href="#DejaVuSans-35" x="159.033203"/>
      </g>
     </g>
    </g>
    <g id="xtick_11">
     <g id="line2d_22">
      <g>
       <use xlink:href="#m8e06f61637" x="159.387642" y="307.872" style="stroke: #000000; stroke-width: 0.8"/>
      </g>
     </g>
     <g id="text_10">
      <!-- 95 -->
      <g transform="translate(153.025142 322.470438) scale(0.1 -0.1)">
       <use xlink:href="#DejaVuSans-39"/>
       <use xlink:href="#DejaVuSans-35" x="63.623047"/>
      </g>
     </g>
    </g>
    <g id="xtick_12">
     <g id="line2d_23">
      <g>
       <use xlink:href="#m8e06f61637" x="200.483154" y="307.872" style="stroke: #000000; stroke-width: 0.8"/>
      </g>
     </g>
     <g id="text_11">
      <!-- 95.5 -->
      <g transform="translate(189.350341 322.470438) scale(0.1 -0.1)">
       <use xlink:href="#DejaVuSans-39"/>
       <use xlink:href="#DejaVuSans-35" x="63.623047"/>
       <use xlink:href="#DejaVuSans-2e" x="127.246094"/>
       <use xlink:href="#DejaVuSans-35" x="159.033203"/>
      </g>
     </g>
    </g>
    <g id="xtick_13">
     <g id="line2d_24">
      <g>
       <use xlink:href="#m8e06f61637" x="241.578666" y="307.872" style="stroke: #000000; stroke-width: 0.8"/>
      </g>
     </g>
     <g id="text_12">
      <!-- 96 -->
      <g transform="translate(235.216166 322.470438) scale(0.1 -0.1)">
       <use xlink:href="#DejaVuSans-39"/>
       <use xlink:href="#DejaVuSans-36" x="63.623047"/>
      </g>
     </g>
    </g>
    <g id="xtick_14">
     <g id="line2d_25">
      <g>
       <use xlink:href="#m8e06f61637" x="282.674178" y="307.872" style="stroke: #000000; stroke-width: 0.8"/>
      </g>
     </g>
     <g id="text_13">
      <!-- 96.5 -->
      <g transform="translate(271.541366 322.470438) scale(0.1 -0.1)">
       <use xlink:href="#DejaVuSans-39"/>
       <use xlink:href="#DejaVuSans-36" x="63.623047"/>
       <use xlink:href="#DejaVuSans-2e" x="127.246094"/>
       <use xlink:href="#DejaVuSans-35" x="159.033203"/>
      </g>
     </g>
    </g>
    <g id="xtick_15">
     <g id="line2d_26">
      <g>
       <use xlink:href="#m8e06f61637" x="323.76969" y="307.872" style="stroke: #000000; stroke-width: 0.8"/>
      </g>
     </g>
     <g id="text_14">
      <!-- 97 -->
      <g transform="translate(317.40719 322.470438) scale(0.1 -0.1)">
       <use xlink:href="#DejaVuSans-39"/>
       <use xlink:href="#DejaVuSans-37" x="63.623047"/>
      </g>
     </g>
    </g>
    <g id="xtick_16">
     <g id="line2d_27">
      <g>
       <use xlink:href="#m8e06f61637" x="364.865202" y="307.872" style="stroke: #000000; stroke-width: 0.8"/>
      </g>
     </g>
     <g id="text_15">
      <!-- 97.5 -->
      <g transform="translate(353.73239 322.470438) scale(0.1 -0.1)">
       <use xlink:href="#DejaVuSans-39"/>
       <use xlink:href="#DejaVuSans-37" x="63.623047"/>
       <use xlink:href="#DejaVuSans-2e" x="127.246094"/>
       <use xlink:href="#DejaVuSans-35" x="159.033203"/>
      </g>
     </g>
    </g>
    <g id="text_16">
     <!-- Readout frequency [MHz] -->
     <g transform="translate(159.163906 336.148562) scale(0.1 -0.1)">
      <defs>
       <path id="DejaVuSans-64" d="M 2906 2969 
L 2906 4863 
L 3481 4863 
L 3481 0 
L 2906 0 
L 2906 525 
Q 2725 213 2448 61 
Q 2172 -91 1784 -91 
Q 1150 -91 751 415 
Q 353 922 353 1747 
Q 353 2572 751 3078 
Q 1150 3584 1784 3584 
Q 2172 3584 2448 3432 
Q 2725 3281 2906 2969 
z
M 947 1747 
Q 947 1113 1208 752 
Q 1469 391 1925 391 
Q 2381 391 2643 752 
Q 2906 1113 2906 1747 
Q 2906 2381 2643 2742 
Q 2381 3103 1925 3103 
Q 1469 3103 1208 2742 
Q 947 2381 947 1747 
z
" transform="scale(0.015625)"/>
       <path id="DejaVuSans-6f" d="M 1959 3097 
Q 1497 3097 1228 2736 
Q 959 2375 959 1747 
Q 959 1119 1226 758 
Q 1494 397 1959 397 
Q 2419 397 2687 759 
Q 2956 1122 2956 1747 
Q 2956 2369 2687 2733 
Q 2419 3097 1959 3097 
z
M 1959 3584 
Q 2709 3584 3137 3096 
Q 3566 2609 3566 1747 
Q 3566 888 3137 398 
Q 2709 -91 1959 -91 
Q 1206 -91 779 398 
Q 353 888 353 1747 
Q 353 2609 779 3096 
Q 1206 3584 1959 3584 
z
" transform="scale(0.015625)"/>
       <path id="DejaVuSans-74" d="M 1172 4494 
L 1172 3500 
L 2356 3500 
L 2356 3053 
L 1172 3053 
L 1172 1153 
Q 1172 725 1289 603 
Q 1406 481 1766 481 
L 2356 481 
L 2356 0 
L 1766 0 
Q 1100 0 847 248 
Q 594 497 594 1153 
L 594 3053 
L 172 3053 
L 172 3500 
L 594 3500 
L 594 4494 
L 1172 4494 
z
" transform="scale(0.015625)"/>
       <path id="DejaVuSans-66" d="M 2375 4863 
L 2375 4384 
L 1825 4384 
Q 1516 4384 1395 4259 
Q 1275 4134 1275 3809 
L 1275 3500 
L 2222 3500 
L 2222 3053 
L 1275 3053 
L 1275 0 
L 697 0 
L 697 3053 
L 147 3053 
L 147 3500 
L 697 3500 
L 697 3744 
Q 697 4328 969 4595 
Q 1241 4863 1831 4863 
L 2375 4863 
z
" transform="scale(0.015625)"/>
       <path id="DejaVuSans-71" d="M 947 1747 
Q 947 1113 1208 752 
Q 1469 391 1925 391 
Q 2381 391 2643 752 
Q 2906 1113 2906 1747 
Q 2906 2381 2643 2742 
Q 2381 3103 1925 3103 
Q 1469 3103 1208 2742 
Q 947 2381 947 1747 
z
M 2906 525 
Q 2725 213 2448 61 
Q 2172 -91 1784 -91 
Q 1150 -91 751 415 
Q 353 922 353 1747 
Q 353 2572 751 3078 
Q 1150 3584 1784 3584 
Q 2172 3584 2448 3432 
Q 2725 3281 2906 2969 
L 2906 3500 
L 3481 3500 
L 3481 -1331 
L 2906 -1331 
L 2906 525 
z
" transform="scale(0.015625)"/>
       <path id="DejaVuSans-6e" d="M 3513 2113 
L 3513 0 
L 2938 0 
L 2938 2094 
Q 2938 2591 2744 2837 
Q 2550 3084 2163 3084 
Q 1697 3084 1428 2787 
Q 1159 2491 1159 1978 
L 1159 0 
L 581 0 
L 581 3500 
L 1159 3500 
L 1159 2956 
Q 1366 3272 1645 3428 
Q 1925 3584 2291 3584 
Q 2894 3584 3203 3211 
Q 3513 2838 3513 2113 
z
" transform="scale(0.015625)"/>
       <path id="DejaVuSans-63" d="M 3122 3366 
L 3122 2828 
Q 2878 2963 2633 3030 
Q 2388 3097 2138 3097 
Q 1578 3097 1268 2742 
Q 959 2388 959 1747 
Q 959 1106 1268 751 
Q 1578 397 2138 397 
Q 2388 397 2633 464 
Q 2878 531 3122 666 
L 3122 134 
Q 2881 22 2623 -34 
Q 2366 -91 2075 -91 
Q 1284 -91 818 406 
Q 353 903 353 1747 
Q 353 2603 823 3093 
Q 1294 3584 2113 3584 
Q 2378 3584 2631 3529 
Q 2884 3475 3122 3366 
z
" transform="scale(0.015625)"/>
       <path id="DejaVuSans-4d" d="M 628 4666 
L 1569 4666 
L 2759 1491 
L 3956 4666 
L 4897 4666 
L 4897 0 
L 4281 0 
L 4281 4097 
L 3078 897 
L 2444 897 
L 1241 4097 
L 1241 0 
L 628 0 
L 628 4666 
z
" transform="scale(0.015625)"/>
      </defs>
      <use xlink:href="#DejaVuSans-52"/>
      <use xlink:href="#DejaVuSans-65" x="64.982422"/>
      <use xlink:href="#DejaVuSans-61" x="126.505859"/>
      <use xlink:href="#DejaVuSans-64" x="187.785156"/>
      <use xlink:href="#DejaVuSans-6f" x="251.261719"/>
      <use xlink:href="#DejaVuSans-75" x="312.443359"/>
      <use xlink:href="#DejaVuSans-74" x="375.822266"/>
      <use xlink:href="#DejaVuSans-20" x="415.03125"/>
      <use xlink:href="#DejaVuSans-66" x="446.818359"/>
      <use xlink:href="#DejaVuSans-72" x="482.023438"/>
      <use xlink:href="#DejaVuSans-65" x="520.886719"/>
      <use xlink:href="#DejaVuSans-71" x="582.410156"/>
      <use xlink:href="#DejaVuSans-75" x="645.886719"/>
      <use xlink:href="#DejaVuSans-65" x="709.265625"/>
      <use xlink:href="#DejaVuSans-6e" x="770.789062"/>
      <use xlink:href="#DejaVuSans-63" x="834.167969"/>
      <use xlink:href="#DejaVuSans-79" x="889.148438"/>
      <use xlink:href="#DejaVuSans-20" x="948.328125"/>
      <use xlink:href="#DejaVuSans-5b" x="980.115234"/>
      <use xlink:href="#DejaVuSans-4d" x="1019.128906"/>
      <use xlink:href="#DejaVuSans-48" x="1105.408203"/>
      <use xlink:href="#DejaVuSans-7a" x="1180.603516"/>
      <use xlink:href="#DejaVuSans-5d" x="1233.09375"/>
     </g>
    </g>
    <g id="text_17">
     <!-- +7 GHz -->
     <g transform="translate(362.893438 335.148562) scale(0.1 -0.1)">
      <defs>
       <path id="DejaVuSans-2b" d="M 2944 4013 
L 2944 2272 
L 4684 2272 
L 4684 1741 
L 2944 1741 
L 2944 0 
L 2419 0 
L 2419 1741 
L 678 1741 
L 678 2272 
L 2419 2272 
L 2419 4013 
L 2944 4013 
z
" transform="scale(0.015625)"/>
      </defs>
      <use xlink:href="#DejaVuSans-2b"/>
      <use xlink:href="#DejaVuSans-37" x="83.789062"/>
      <use xlink:href="#DejaVuSans-20" x="147.412109"/>
      <use xlink:href="#DejaVuSans-47" x="179.199219"/>
      <use xlink:href="#DejaVuSans-48" x="256.689453"/>
      <use xlink:href="#DejaVuSans-7a" x="331.884766"/>
     </g>
    </g>
   </g>
   <g id="matplotlib.axis_4">
    <g id="ytick_6">
     <g id="line2d_28">
      <g>
       <use xlink:href="#m84cc9f23af" x="44.210938" y="298.039372" style="stroke: #000000; stroke-width: 0.8"/>
      </g>
     </g>
     <g id="text_18">
      <!-- -10 -->
      <g transform="translate(20.878125 301.838591) scale(0.1 -0.1)">
       <use xlink:href="#DejaVuSans-2d"/>
       <use xlink:href="#DejaVuSans-31" x="36.083984"/>
       <use xlink:href="#DejaVuSans-30" x="99.707031"/>
      </g>
     </g>
    </g>
    <g id="ytick_7">
     <g id="line2d_29">
      <g>
       <use xlink:href="#m84cc9f23af" x="44.210938" y="272.549971" style="stroke: #000000; stroke-width: 0.8"/>
      </g>
     </g>
     <g id="text_19">
      <!-- -5 -->
      <g transform="translate(27.240625 276.34919) scale(0.1 -0.1)">
       <use xlink:href="#DejaVuSans-2d"/>
       <use xlink:href="#DejaVuSans-35" x="36.083984"/>
      </g>
     </g>
    </g>
    <g id="ytick_8">
     <g id="line2d_30">
      <g>
       <use xlink:href="#m84cc9f23af" x="44.210938" y="247.06057" style="stroke: #000000; stroke-width: 0.8"/>
      </g>
     </g>
     <g id="text_20">
      <!-- 0 -->
      <g transform="translate(30.848437 250.859788) scale(0.1 -0.1)">
       <use xlink:href="#DejaVuSans-30"/>
      </g>
     </g>
    </g>
    <g id="ytick_9">
     <g id="line2d_31">
      <g>
       <use xlink:href="#m84cc9f23af" x="44.210938" y="221.571168" style="stroke: #000000; stroke-width: 0.8"/>
      </g>
     </g>
     <g id="text_21">
      <!-- 5 -->
      <g transform="translate(30.848437 225.370387) scale(0.1 -0.1)">
       <use xlink:href="#DejaVuSans-35"/>
      </g>
     </g>
    </g>
    <g id="ytick_10">
     <g id="line2d_32">
      <g>
       <use xlink:href="#m84cc9f23af" x="44.210938" y="196.081767" style="stroke: #000000; stroke-width: 0.8"/>
      </g>
     </g>
     <g id="text_22">
      <!-- 10 -->
      <g transform="translate(24.485937 199.880986) scale(0.1 -0.1)">
       <use xlink:href="#DejaVuSans-31"/>
       <use xlink:href="#DejaVuSans-30" x="63.623047"/>
      </g>
     </g>
    </g>
    <g id="text_23">
     <!-- Im$(S_{21})$ [mV] -->
     <g transform="translate(14.798437 279.042) rotate(-90) scale(0.1 -0.1)">
      <defs>
       <path id="DejaVuSans-49" d="M 628 4666 
L 1259 4666 
L 1259 0 
L 628 0 
L 628 4666 
z
" transform="scale(0.015625)"/>
      </defs>
      <use xlink:href="#DejaVuSans-49" transform="translate(0 0.015625)"/>
      <use xlink:href="#DejaVuSans-6d" transform="translate(25.867188 0.015625)"/>
      <use xlink:href="#DejaVuSans-28" transform="translate(123.279297 0.015625)"/>
      <use xlink:href="#DejaVuSans-Oblique-53" transform="translate(162.292969 0.015625)"/>
      <use xlink:href="#DejaVuSans-32" transform="translate(225.769531 -16.390625) scale(0.7)"/>
      <use xlink:href="#DejaVuSans-31" transform="translate(270.305664 -16.390625) scale(0.7)"/>
      <use xlink:href="#DejaVuSans-29" transform="translate(317.576172 0.015625)"/>
      <use xlink:href="#DejaVuSans-20" transform="translate(356.589844 0.015625)"/>
      <use xlink:href="#DejaVuSans-5b" transform="translate(388.376953 0.015625)"/>
      <use xlink:href="#DejaVuSans-6d" transform="translate(427.390625 0.015625)"/>
      <use xlink:href="#DejaVuSans-56" transform="translate(524.802734 0.015625)"/>
      <use xlink:href="#DejaVuSans-5d" transform="translate(593.210938 0.015625)"/>
     </g>
    </g>
   </g>
   <g id="line2d_33">
    <path d="M 60.443665 280.690008 
L 64.553216 283.623706 
L 68.662767 286.457665 
L 72.772318 289.267951 
L 76.88187 291.548039 
L 80.991421 293.931091 
L 85.100972 295.791516 
L 89.210523 297.625999 
L 93.320074 298.95727 
L 97.429626 300.376031 
L 101.539177 301.162809 
L 105.648728 301.956434 
L 109.758279 302.232757 
L 113.86783 302.320421 
L 117.977382 302.246855 
L 122.086933 301.67716 
L 126.196484 300.785555 
L 130.306035 299.784016 
L 134.415587 298.400242 
L 138.525138 296.808669 
L 142.634689 294.751341 
L 146.74424 292.759091 
L 150.853791 290.11574 
L 154.963343 287.441956 
L 159.072894 284.492375 
L 163.182445 281.290496 
L 167.291996 278.013695 
L 171.401547 274.427736 
L 175.511099 270.968393 
L 179.62065 266.63803 
L 183.730201 262.863133 
L 187.839752 258.746068 
L 191.949303 254.424145 
L 196.058855 250.149823 
L 200.168406 245.835985 
L 204.277957 241.756113 
L 208.387508 237.223352 
L 212.497059 232.884842 
L 216.606611 228.68027 
L 220.716162 224.441397 
L 224.825713 220.559354 
L 228.935264 216.951524 
L 233.044816 213.837186 
L 237.154367 210.680573 
L 241.263918 208.459408 
L 245.373469 207.128161 
L 249.48302 206.719186 
L 253.592572 207.968194 
L 257.702123 211.195916 
L 261.811674 216.425202 
L 265.921225 224.680762 
L 270.030776 233.427656 
L 274.140328 239.999055 
L 278.249879 242.385143 
L 282.35943 239.263055 
L 286.468981 232.710164 
L 290.578532 224.818711 
L 294.688084 217.019781 
L 298.797635 210.316399 
L 302.907186 204.942394 
L 307.016737 200.419431 
L 311.126288 197.272015 
L 315.23584 194.884914 
L 319.345391 193.516507 
L 323.454942 192.718092 
L 327.564493 192.410182 
L 331.674045 193.078457 
L 335.783596 193.601781 
L 339.893147 195.098789 
L 344.002698 196.787462 
L 348.112249 198.451354 
L 352.221801 201.053624 
L 356.331352 203.689686 
L 360.440903 206.560212 
L 364.550454 209.79909 
L 368.660005 213.011516 
L 372.769557 216.726812 
L 376.879108 220.237042 
L 380.988659 224.040948 
L 385.09821 228.032667 
" clip-path="url(#p8a4346846b)" style="fill: none; stroke: #1f77b4; stroke-width: 1.5; stroke-linecap: square"/>
    <g clip-path="url(#p8a4346846b)">
     <use xlink:href="#m22065eab8b" x="60.443665" y="280.690008" style="fill: #1f77b4; stroke: #1f77b4"/>
     <use xlink:href="#m22065eab8b" x="64.553216" y="283.623706" style="fill: #1f77b4; stroke: #1f77b4"/>
     <use xlink:href="#m22065eab8b" x="68.662767" y="286.457665" style="fill: #1f77b4; stroke: #1f77b4"/>
     <use xlink:href="#m22065eab8b" x="72.772318" y="289.267951" style="fill: #1f77b4; stroke: #1f77b4"/>
     <use xlink:href="#m22065eab8b" x="76.88187" y="291.548039" style="fill: #1f77b4; stroke: #1f77b4"/>
     <use xlink:href="#m22065eab8b" x="80.991421" y="293.931091" style="fill: #1f77b4; stroke: #1f77b4"/>
     <use xlink:href="#m22065eab8b" x="85.100972" y="295.791516" style="fill: #1f77b4; stroke: #1f77b4"/>
     <use xlink:href="#m22065eab8b" x="89.210523" y="297.625999" style="fill: #1f77b4; stroke: #1f77b4"/>
     <use xlink:href="#m22065eab8b" x="93.320074" y="298.95727" style="fill: #1f77b4; stroke: #1f77b4"/>
     <use xlink:href="#m22065eab8b" x="97.429626" y="300.376031" style="fill: #1f77b4; stroke: #1f77b4"/>
     <use xlink:href="#m22065eab8b" x="101.539177" y="301.162809" style="fill: #1f77b4; stroke: #1f77b4"/>
     <use xlink:href="#m22065eab8b" x="105.648728" y="301.956434" style="fill: #1f77b4; stroke: #1f77b4"/>
     <use xlink:href="#m22065eab8b" x="109.758279" y="302.232757" style="fill: #1f77b4; stroke: #1f77b4"/>
     <use xlink:href="#m22065eab8b" x="113.86783" y="302.320421" style="fill: #1f77b4; stroke: #1f77b4"/>
     <use xlink:href="#m22065eab8b" x="117.977382" y="302.246855" style="fill: #1f77b4; stroke: #1f77b4"/>
     <use xlink:href="#m22065eab8b" x="122.086933" y="301.67716" style="fill: #1f77b4; stroke: #1f77b4"/>
     <use xlink:href="#m22065eab8b" x="126.196484" y="300.785555" style="fill: #1f77b4; stroke: #1f77b4"/>
     <use xlink:href="#m22065eab8b" x="130.306035" y="299.784016" style="fill: #1f77b4; stroke: #1f77b4"/>
     <use xlink:href="#m22065eab8b" x="134.415587" y="298.400242" style="fill: #1f77b4; stroke: #1f77b4"/>
     <use xlink:href="#m22065eab8b" x="138.525138" y="296.808669" style="fill: #1f77b4; stroke: #1f77b4"/>
     <use xlink:href="#m22065eab8b" x="142.634689" y="294.751341" style="fill: #1f77b4; stroke: #1f77b4"/>
     <use xlink:href="#m22065eab8b" x="146.74424" y="292.759091" style="fill: #1f77b4; stroke: #1f77b4"/>
     <use xlink:href="#m22065eab8b" x="150.853791" y="290.11574" style="fill: #1f77b4; stroke: #1f77b4"/>
     <use xlink:href="#m22065eab8b" x="154.963343" y="287.441956" style="fill: #1f77b4; stroke: #1f77b4"/>
     <use xlink:href="#m22065eab8b" x="159.072894" y="284.492375" style="fill: #1f77b4; stroke: #1f77b4"/>
     <use xlink:href="#m22065eab8b" x="163.182445" y="281.290496" style="fill: #1f77b4; stroke: #1f77b4"/>
     <use xlink:href="#m22065eab8b" x="167.291996" y="278.013695" style="fill: #1f77b4; stroke: #1f77b4"/>
     <use xlink:href="#m22065eab8b" x="171.401547" y="274.427736" style="fill: #1f77b4; stroke: #1f77b4"/>
     <use xlink:href="#m22065eab8b" x="175.511099" y="270.968393" style="fill: #1f77b4; stroke: #1f77b4"/>
     <use xlink:href="#m22065eab8b" x="179.62065" y="266.63803" style="fill: #1f77b4; stroke: #1f77b4"/>
     <use xlink:href="#m22065eab8b" x="183.730201" y="262.863133" style="fill: #1f77b4; stroke: #1f77b4"/>
     <use xlink:href="#m22065eab8b" x="187.839752" y="258.746068" style="fill: #1f77b4; stroke: #1f77b4"/>
     <use xlink:href="#m22065eab8b" x="191.949303" y="254.424145" style="fill: #1f77b4; stroke: #1f77b4"/>
     <use xlink:href="#m22065eab8b" x="196.058855" y="250.149823" style="fill: #1f77b4; stroke: #1f77b4"/>
     <use xlink:href="#m22065eab8b" x="200.168406" y="245.835985" style="fill: #1f77b4; stroke: #1f77b4"/>
     <use xlink:href="#m22065eab8b" x="204.277957" y="241.756113" style="fill: #1f77b4; stroke: #1f77b4"/>
     <use xlink:href="#m22065eab8b" x="208.387508" y="237.223352" style="fill: #1f77b4; stroke: #1f77b4"/>
     <use xlink:href="#m22065eab8b" x="212.497059" y="232.884842" style="fill: #1f77b4; stroke: #1f77b4"/>
     <use xlink:href="#m22065eab8b" x="216.606611" y="228.68027" style="fill: #1f77b4; stroke: #1f77b4"/>
     <use xlink:href="#m22065eab8b" x="220.716162" y="224.441397" style="fill: #1f77b4; stroke: #1f77b4"/>
     <use xlink:href="#m22065eab8b" x="224.825713" y="220.559354" style="fill: #1f77b4; stroke: #1f77b4"/>
     <use xlink:href="#m22065eab8b" x="228.935264" y="216.951524" style="fill: #1f77b4; stroke: #1f77b4"/>
     <use xlink:href="#m22065eab8b" x="233.044816" y="213.837186" style="fill: #1f77b4; stroke: #1f77b4"/>
     <use xlink:href="#m22065eab8b" x="237.154367" y="210.680573" style="fill: #1f77b4; stroke: #1f77b4"/>
     <use xlink:href="#m22065eab8b" x="241.263918" y="208.459408" style="fill: #1f77b4; stroke: #1f77b4"/>
     <use xlink:href="#m22065eab8b" x="245.373469" y="207.128161" style="fill: #1f77b4; stroke: #1f77b4"/>
     <use xlink:href="#m22065eab8b" x="249.48302" y="206.719186" style="fill: #1f77b4; stroke: #1f77b4"/>
     <use xlink:href="#m22065eab8b" x="253.592572" y="207.968194" style="fill: #1f77b4; stroke: #1f77b4"/>
     <use xlink:href="#m22065eab8b" x="257.702123" y="211.195916" style="fill: #1f77b4; stroke: #1f77b4"/>
     <use xlink:href="#m22065eab8b" x="261.811674" y="216.425202" style="fill: #1f77b4; stroke: #1f77b4"/>
     <use xlink:href="#m22065eab8b" x="265.921225" y="224.680762" style="fill: #1f77b4; stroke: #1f77b4"/>
     <use xlink:href="#m22065eab8b" x="270.030776" y="233.427656" style="fill: #1f77b4; stroke: #1f77b4"/>
     <use xlink:href="#m22065eab8b" x="274.140328" y="239.999055" style="fill: #1f77b4; stroke: #1f77b4"/>
     <use xlink:href="#m22065eab8b" x="278.249879" y="242.385143" style="fill: #1f77b4; stroke: #1f77b4"/>
     <use xlink:href="#m22065eab8b" x="282.35943" y="239.263055" style="fill: #1f77b4; stroke: #1f77b4"/>
     <use xlink:href="#m22065eab8b" x="286.468981" y="232.710164" style="fill: #1f77b4; stroke: #1f77b4"/>
     <use xlink:href="#m22065eab8b" x="290.578532" y="224.818711" style="fill: #1f77b4; stroke: #1f77b4"/>
     <use xlink:href="#m22065eab8b" x="294.688084" y="217.019781" style="fill: #1f77b4; stroke: #1f77b4"/>
     <use xlink:href="#m22065eab8b" x="298.797635" y="210.316399" style="fill: #1f77b4; stroke: #1f77b4"/>
     <use xlink:href="#m22065eab8b" x="302.907186" y="204.942394" style="fill: #1f77b4; stroke: #1f77b4"/>
     <use xlink:href="#m22065eab8b" x="307.016737" y="200.419431" style="fill: #1f77b4; stroke: #1f77b4"/>
     <use xlink:href="#m22065eab8b" x="311.126288" y="197.272015" style="fill: #1f77b4; stroke: #1f77b4"/>
     <use xlink:href="#m22065eab8b" x="315.23584" y="194.884914" style="fill: #1f77b4; stroke: #1f77b4"/>
     <use xlink:href="#m22065eab8b" x="319.345391" y="193.516507" style="fill: #1f77b4; stroke: #1f77b4"/>
     <use xlink:href="#m22065eab8b" x="323.454942" y="192.718092" style="fill: #1f77b4; stroke: #1f77b4"/>
     <use xlink:href="#m22065eab8b" x="327.564493" y="192.410182" style="fill: #1f77b4; stroke: #1f77b4"/>
     <use xlink:href="#m22065eab8b" x="331.674045" y="193.078457" style="fill: #1f77b4; stroke: #1f77b4"/>
     <use xlink:href="#m22065eab8b" x="335.783596" y="193.601781" style="fill: #1f77b4; stroke: #1f77b4"/>
     <use xlink:href="#m22065eab8b" x="339.893147" y="195.098789" style="fill: #1f77b4; stroke: #1f77b4"/>
     <use xlink:href="#m22065eab8b" x="344.002698" y="196.787462" style="fill: #1f77b4; stroke: #1f77b4"/>
     <use xlink:href="#m22065eab8b" x="348.112249" y="198.451354" style="fill: #1f77b4; stroke: #1f77b4"/>
     <use xlink:href="#m22065eab8b" x="352.221801" y="201.053624" style="fill: #1f77b4; stroke: #1f77b4"/>
     <use xlink:href="#m22065eab8b" x="356.331352" y="203.689686" style="fill: #1f77b4; stroke: #1f77b4"/>
     <use xlink:href="#m22065eab8b" x="360.440903" y="206.560212" style="fill: #1f77b4; stroke: #1f77b4"/>
     <use xlink:href="#m22065eab8b" x="364.550454" y="209.79909" style="fill: #1f77b4; stroke: #1f77b4"/>
     <use xlink:href="#m22065eab8b" x="368.660005" y="213.011516" style="fill: #1f77b4; stroke: #1f77b4"/>
     <use xlink:href="#m22065eab8b" x="372.769557" y="216.726812" style="fill: #1f77b4; stroke: #1f77b4"/>
     <use xlink:href="#m22065eab8b" x="376.879108" y="220.237042" style="fill: #1f77b4; stroke: #1f77b4"/>
     <use xlink:href="#m22065eab8b" x="380.988659" y="224.040948" style="fill: #1f77b4; stroke: #1f77b4"/>
     <use xlink:href="#m22065eab8b" x="385.09821" y="228.032667" style="fill: #1f77b4; stroke: #1f77b4"/>
    </g>
   </g>
   <g id="line2d_34">
    <path d="M 60.443665 280.653284 
L 65.643337 284.481752 
L 70.51803 287.798162 
L 75.067743 290.632973 
L 79.617457 293.197185 
L 83.842191 295.321008 
L 88.066924 297.184394 
L 91.966679 298.66367 
L 95.866433 299.903863 
L 99.766187 300.898289 
L 103.340962 301.589114 
L 106.915737 302.065133 
L 110.490512 302.323576 
L 114.065286 302.362464 
L 117.640061 302.180613 
L 121.214836 301.777648 
L 124.789611 301.154 
L 128.364385 300.310915 
L 131.93916 299.250449 
L 135.838915 297.849042 
L 139.738669 296.197163 
L 143.638423 294.300745 
L 147.538177 292.166829 
L 151.762911 289.596538 
L 155.987645 286.768844 
L 160.537358 283.450953 
L 165.412051 279.602689 
L 170.611724 275.190916 
L 176.136376 270.192799 
L 181.986007 264.599722 
L 188.810577 257.75829 
L 197.585024 248.617774 
L 217.083796 228.169787 
L 222.933427 222.426957 
L 227.483141 218.256282 
L 231.382895 214.973787 
L 234.63269 212.510438 
L 237.557506 210.562059 
L 240.157342 209.094092 
L 242.432199 208.056154 
L 244.382076 207.383249 
L 246.331953 206.943636 
L 247.956851 206.781661 
L 249.581748 206.83071 
L 251.206646 207.116907 
L 252.831544 207.668372 
L 254.131462 208.320242 
L 255.43138 209.175695 
L 256.731298 210.249012 
L 258.356195 211.915844 
L 259.981093 213.959639 
L 261.605991 216.384482 
L 263.555868 219.77291 
L 265.830725 224.274775 
L 272.005336 236.914164 
L 273.305254 238.987822 
L 274.605172 240.632825 
L 275.58011 241.539055 
L 276.555049 242.139408 
L 277.529987 242.421859 
L 278.504926 242.384627 
L 279.479865 242.035791 
L 280.454803 241.392237 
L 281.429742 240.47809 
L 282.72966 238.889814 
L 284.029578 236.951805 
L 285.979455 233.56713 
L 288.904271 227.91334 
L 293.778964 218.487722 
L 296.3788 213.946252 
L 298.653657 210.363896 
L 300.928513 207.166748 
L 303.20337 204.350376 
L 305.478227 201.898103 
L 307.753083 199.787393 
L 310.02794 197.993712 
L 312.302797 196.49274 
L 314.577653 195.261524 
L 316.85251 194.279008 
L 319.127367 193.526186 
L 321.402223 192.986062 
L 324.00206 192.609889 
L 326.601896 192.471867 
L 329.201732 192.554505 
L 331.801568 192.842387 
L 334.726384 193.394615 
L 337.6512 194.172029 
L 340.900995 195.281196 
L 344.15079 196.6303 
L 347.725565 198.37088 
L 351.30034 200.359852 
L 355.200094 202.78998 
L 359.424828 205.702303 
L 363.974541 209.131743 
L 368.849234 213.105076 
L 374.048906 217.638654 
L 379.898538 223.043519 
L 385.09821 228.065107 
L 385.09821 228.065107 
" clip-path="url(#p8a4346846b)" style="fill: none; stroke: #d62728; stroke-width: 1.5; stroke-linecap: square"/>
   </g>
   <g id="patch_9">
    <path d="M 44.210938 307.872 
L 44.210938 186.912 
" style="fill: none; stroke: #000000; stroke-width: 0.8; stroke-linejoin: miter; stroke-linecap: square"/>
   </g>
   <g id="patch_10">
    <path d="M 401.330938 307.872 
L 401.330938 186.912 
" style="fill: none; stroke: #000000; stroke-width: 0.8; stroke-linejoin: miter; stroke-linecap: square"/>
   </g>
   <g id="patch_11">
    <path d="M 44.210938 307.872 
L 401.330937 307.872 
" style="fill: none; stroke: #000000; stroke-width: 0.8; stroke-linejoin: miter; stroke-linecap: square"/>
   </g>
   <g id="patch_12">
    <path d="M 44.210938 186.912 
L 401.330937 186.912 
" style="fill: none; stroke: #000000; stroke-width: 0.8; stroke-linejoin: miter; stroke-linecap: square"/>
   </g>
  </g>
  <g id="text_24">
   <!-- S21 Resonator spectroscopy q00 -->
   <g transform="translate(118.308125 16.318125) scale(0.12 -0.12)">
    <defs>
     <path id="DejaVuSans-73" d="M 2834 3397 
L 2834 2853 
Q 2591 2978 2328 3040 
Q 2066 3103 1784 3103 
Q 1356 3103 1142 2972 
Q 928 2841 928 2578 
Q 928 2378 1081 2264 
Q 1234 2150 1697 2047 
L 1894 2003 
Q 2506 1872 2764 1633 
Q 3022 1394 3022 966 
Q 3022 478 2636 193 
Q 2250 -91 1575 -91 
Q 1294 -91 989 -36 
Q 684 19 347 128 
L 347 722 
Q 666 556 975 473 
Q 1284 391 1588 391 
Q 1994 391 2212 530 
Q 2431 669 2431 922 
Q 2431 1156 2273 1281 
Q 2116 1406 1581 1522 
L 1381 1569 
Q 847 1681 609 1914 
Q 372 2147 372 2553 
Q 372 3047 722 3315 
Q 1072 3584 1716 3584 
Q 2034 3584 2315 3537 
Q 2597 3491 2834 3397 
z
" transform="scale(0.015625)"/>
     <path id="DejaVuSans-70" d="M 1159 525 
L 1159 -1331 
L 581 -1331 
L 581 3500 
L 1159 3500 
L 1159 2969 
Q 1341 3281 1617 3432 
Q 1894 3584 2278 3584 
Q 2916 3584 3314 3078 
Q 3713 2572 3713 1747 
Q 3713 922 3314 415 
Q 2916 -91 2278 -91 
Q 1894 -91 1617 61 
Q 1341 213 1159 525 
z
M 3116 1747 
Q 3116 2381 2855 2742 
Q 2594 3103 2138 3103 
Q 1681 3103 1420 2742 
Q 1159 2381 1159 1747 
Q 1159 1113 1420 752 
Q 1681 391 2138 391 
Q 2594 391 2855 752 
Q 3116 1113 3116 1747 
z
" transform="scale(0.015625)"/>
    </defs>
    <use xlink:href="#DejaVuSans-53"/>
    <use xlink:href="#DejaVuSans-32" x="63.476562"/>
    <use xlink:href="#DejaVuSans-31" x="127.099609"/>
    <use xlink:href="#DejaVuSans-20" x="190.722656"/>
    <use xlink:href="#DejaVuSans-52" x="222.509766"/>
    <use xlink:href="#DejaVuSans-65" x="287.492188"/>
    <use xlink:href="#DejaVuSans-73" x="349.015625"/>
    <use xlink:href="#DejaVuSans-6f" x="401.115234"/>
    <use xlink:href="#DejaVuSans-6e" x="462.296875"/>
    <use xlink:href="#DejaVuSans-61" x="525.675781"/>
    <use xlink:href="#DejaVuSans-74" x="586.955078"/>
    <use xlink:href="#DejaVuSans-6f" x="626.164062"/>
    <use xlink:href="#DejaVuSans-72" x="687.345703"/>
    <use xlink:href="#DejaVuSans-20" x="728.458984"/>
    <use xlink:href="#DejaVuSans-73" x="760.246094"/>
    <use xlink:href="#DejaVuSans-70" x="812.345703"/>
    <use xlink:href="#DejaVuSans-65" x="875.822266"/>
    <use xlink:href="#DejaVuSans-63" x="937.345703"/>
    <use xlink:href="#DejaVuSans-74" x="992.326172"/>
    <use xlink:href="#DejaVuSans-72" x="1031.535156"/>
    <use xlink:href="#DejaVuSans-6f" x="1070.398438"/>
    <use xlink:href="#DejaVuSans-73" x="1131.580078"/>
    <use xlink:href="#DejaVuSans-63" x="1183.679688"/>
    <use xlink:href="#DejaVuSans-6f" x="1238.660156"/>
    <use xlink:href="#DejaVuSans-70" x="1299.841797"/>
    <use xlink:href="#DejaVuSans-79" x="1363.318359"/>
    <use xlink:href="#DejaVuSans-20" x="1422.498047"/>
    <use xlink:href="#DejaVuSans-71" x="1454.285156"/>
    <use xlink:href="#DejaVuSans-30" x="1517.761719"/>
    <use xlink:href="#DejaVuSans-30" x="1581.384766"/>
   </g>
   <!-- tuid: 20241114-110117-955-0b4834 -->
   <g transform="translate(107.164063 29.7555) scale(0.12 -0.12)">
    <defs>
     <path id="DejaVuSans-69" d="M 603 3500 
L 1178 3500 
L 1178 0 
L 603 0 
L 603 3500 
z
M 603 4863 
L 1178 4863 
L 1178 4134 
L 603 4134 
L 603 4863 
z
" transform="scale(0.015625)"/>
     <path id="DejaVuSans-62" d="M 3116 1747 
Q 3116 2381 2855 2742 
Q 2594 3103 2138 3103 
Q 1681 3103 1420 2742 
Q 1159 2381 1159 1747 
Q 1159 1113 1420 752 
Q 1681 391 2138 391 
Q 2594 391 2855 752 
Q 3116 1113 3116 1747 
z
M 1159 2969 
Q 1341 3281 1617 3432 
Q 1894 3584 2278 3584 
Q 2916 3584 3314 3078 
Q 3713 2572 3713 1747 
Q 3713 922 3314 415 
Q 2916 -91 2278 -91 
Q 1894 -91 1617 61 
Q 1341 213 1159 525 
L 1159 0 
L 581 0 
L 581 4863 
L 1159 4863 
L 1159 2969 
z
" transform="scale(0.015625)"/>
    </defs>
    <use xlink:href="#DejaVuSans-74"/>
    <use xlink:href="#DejaVuSans-75" x="39.208984"/>
    <use xlink:href="#DejaVuSans-69" x="102.587891"/>
    <use xlink:href="#DejaVuSans-64" x="130.371094"/>
    <use xlink:href="#DejaVuSans-3a" x="193.847656"/>
    <use xlink:href="#DejaVuSans-20" x="227.539062"/>
    <use xlink:href="#DejaVuSans-32" x="259.326172"/>
    <use xlink:href="#DejaVuSans-30" x="322.949219"/>
    <use xlink:href="#DejaVuSans-32" x="386.572266"/>
    <use xlink:href="#DejaVuSans-34" x="450.195312"/>
    <use xlink:href="#DejaVuSans-31" x="513.818359"/>
    <use xlink:href="#DejaVuSans-31" x="577.441406"/>
    <use xlink:href="#DejaVuSans-31" x="641.064453"/>
    <use xlink:href="#DejaVuSans-34" x="704.6875"/>
    <use xlink:href="#DejaVuSans-2d" x="768.310547"/>
    <use xlink:href="#DejaVuSans-31" x="804.394531"/>
    <use xlink:href="#DejaVuSans-31" x="868.017578"/>
    <use xlink:href="#DejaVuSans-30" x="931.640625"/>
    <use xlink:href="#DejaVuSans-31" x="995.263672"/>
    <use xlink:href="#DejaVuSans-31" x="1058.886719"/>
    <use xlink:href="#DejaVuSans-37" x="1122.509766"/>
    <use xlink:href="#DejaVuSans-2d" x="1186.132812"/>
    <use xlink:href="#DejaVuSans-39" x="1222.216797"/>
    <use xlink:href="#DejaVuSans-35" x="1285.839844"/>
    <use xlink:href="#DejaVuSans-35" x="1349.462891"/>
    <use xlink:href="#DejaVuSans-2d" x="1413.085938"/>
    <use xlink:href="#DejaVuSans-30" x="1449.169922"/>
    <use xlink:href="#DejaVuSans-62" x="1512.792969"/>
    <use xlink:href="#DejaVuSans-34" x="1576.269531"/>
    <use xlink:href="#DejaVuSans-38" x="1639.892578"/>
    <use xlink:href="#DejaVuSans-33" x="1703.515625"/>
    <use xlink:href="#DejaVuSans-34" x="1767.138672"/>
   </g>
  </g>
 </g>
 <defs>
  <clipPath id="p463d76c720">
   <rect x="44.210938" y="41.76" width="357.12" height="120.96"/>
  </clipPath>
  <clipPath id="p8a4346846b">
   <rect x="44.210938" y="186.912" width="357.12" height="120.96"/>
  </clipPath>
 </defs>
</svg>
