<?xml version="1.0" encoding="utf-8" standalone="no"?>
<!DOCTYPE svg PUBLIC "-//W3C//DTD SVG 1.1//EN"
  "http://www.w3.org/Graphics/SVG/1.1/DTD/svg11.dtd">
<svg xmlns:xlink="http://www.w3.org/1999/xlink" width="672.279125pt" height="345.42825pt" viewBox="0 0 672.279125 345.42825" xmlns="http://www.w3.org/2000/svg" version="1.1">
 <metadata>
  <rdf:RDF xmlns:dc="http://purl.org/dc/elements/1.1/" xmlns:cc="http://creativecommons.org/ns#" xmlns:rdf="http://www.w3.org/1999/02/22-rdf-syntax-ns#">
   <cc:Work>
    <dc:type rdf:resource="http://purl.org/dc/dcmitype/StillImage"/>
    <dc:date>2024-11-14T12:24:00.513584</dc:date>
    <dc:format>image/svg+xml</dc:format>
    <dc:creator>
     <cc:Agent>
      <dc:title>Matplotlib v3.8.0, https://matplotlib.org/</dc:title>
     </cc:Agent>
    </dc:creator>
   </cc:Work>
  </rdf:RDF>
 </metadata>
 <defs>
  <style type="text/css">*{stroke-linejoin: round; stroke-linecap: butt}</style>
 </defs>
 <g id="figure_1">
  <g id="patch_1">
   <path d="M 0 345.42825 
L 672.279125 345.42825 
L 672.279125 -0 
L 0 -0 
L 0 345.42825 
z
" style="fill: none; opacity: 0"/>
  </g>
  <g id="axes_1">
   <g id="patch_2">
    <path d="M 44.203125 307.872 
L 401.323125 307.872 
L 401.323125 41.76 
L 44.203125 41.76 
z
" style="fill: #ffffff"/>
   </g>
   <g id="matplotlib.axis_1">
    <g id="xtick_1">
     <g id="line2d_1">
      <defs>
       <path id="mbd94b124dc" d="M 0 0 
L 0 3.5 
" style="stroke: #000000; stroke-width: 0.8"/>
      </defs>
      <g>
       <use xlink:href="#mbd94b124dc" x="59.540254" y="307.872" style="stroke: #000000; stroke-width: 0.8"/>
      </g>
     </g>
     <g id="text_1">
      <!-- 0 -->
      <g transform="translate(56.359004 322.470438) scale(0.1 -0.1)">
       <defs>
        <path id="DejaVuSans-30" d="M 2034 4250 
Q 1547 4250 1301 3770 
Q 1056 3291 1056 2328 
Q 1056 1369 1301 889 
Q 1547 409 2034 409 
Q 2525 409 2770 889 
Q 3016 1369 3016 2328 
Q 3016 3291 2770 3770 
Q 2525 4250 2034 4250 
z
M 2034 4750 
Q 2819 4750 3233 4129 
Q 3647 3509 3647 2328 
Q 3647 1150 3233 529 
Q 2819 -91 2034 -91 
Q 1250 -91 836 529 
Q 422 1150 422 2328 
Q 422 3509 836 4129 
Q 1250 4750 2034 4750 
z
" transform="scale(0.015625)"/>
       </defs>
       <use xlink:href="#DejaVuSans-30"/>
      </g>
     </g>
    </g>
    <g id="xtick_2">
     <g id="line2d_2">
      <g>
       <use xlink:href="#mbd94b124dc" x="104.320191" y="307.872" style="stroke: #000000; stroke-width: 0.8"/>
      </g>
     </g>
     <g id="text_2">
      <!-- 2 -->
      <g transform="translate(101.138941 322.470438) scale(0.1 -0.1)">
       <defs>
        <path id="DejaVuSans-32" d="M 1228 531 
L 3431 531 
L 3431 0 
L 469 0 
L 469 531 
Q 828 903 1448 1529 
Q 2069 2156 2228 2338 
Q 2531 2678 2651 2914 
Q 2772 3150 2772 3378 
Q 2772 3750 2511 3984 
Q 2250 4219 1831 4219 
Q 1534 4219 1204 4116 
Q 875 4013 500 3803 
L 500 4441 
Q 881 4594 1212 4672 
Q 1544 4750 1819 4750 
Q 2544 4750 2975 4387 
Q 3406 4025 3406 3419 
Q 3406 3131 3298 2873 
Q 3191 2616 2906 2266 
Q 2828 2175 2409 1742 
Q 1991 1309 1228 531 
z
" transform="scale(0.015625)"/>
       </defs>
       <use xlink:href="#DejaVuSans-32"/>
      </g>
     </g>
    </g>
    <g id="xtick_3">
     <g id="line2d_3">
      <g>
       <use xlink:href="#mbd94b124dc" x="149.100128" y="307.872" style="stroke: #000000; stroke-width: 0.8"/>
      </g>
     </g>
     <g id="text_3">
      <!-- 4 -->
      <g transform="translate(145.918878 322.470438) scale(0.1 -0.1)">
       <defs>
        <path id="DejaVuSans-34" d="M 2419 4116 
L 825 1625 
L 2419 1625 
L 2419 4116 
z
M 2253 4666 
L 3047 4666 
L 3047 1625 
L 3713 1625 
L 3713 1100 
L 3047 1100 
L 3047 0 
L 2419 0 
L 2419 1100 
L 313 1100 
L 313 1709 
L 2253 4666 
z
" transform="scale(0.015625)"/>
       </defs>
       <use xlink:href="#DejaVuSans-34"/>
      </g>
     </g>
    </g>
    <g id="xtick_4">
     <g id="line2d_4">
      <g>
       <use xlink:href="#mbd94b124dc" x="193.880065" y="307.872" style="stroke: #000000; stroke-width: 0.8"/>
      </g>
     </g>
     <g id="text_4">
      <!-- 6 -->
      <g transform="translate(190.698815 322.470438) scale(0.1 -0.1)">
       <defs>
        <path id="DejaVuSans-36" d="M 2113 2584 
Q 1688 2584 1439 2293 
Q 1191 2003 1191 1497 
Q 1191 994 1439 701 
Q 1688 409 2113 409 
Q 2538 409 2786 701 
Q 3034 994 3034 1497 
Q 3034 2003 2786 2293 
Q 2538 2584 2113 2584 
z
M 3366 4563 
L 3366 3988 
Q 3128 4100 2886 4159 
Q 2644 4219 2406 4219 
Q 1781 4219 1451 3797 
Q 1122 3375 1075 2522 
Q 1259 2794 1537 2939 
Q 1816 3084 2150 3084 
Q 2853 3084 3261 2657 
Q 3669 2231 3669 1497 
Q 3669 778 3244 343 
Q 2819 -91 2113 -91 
Q 1303 -91 875 529 
Q 447 1150 447 2328 
Q 447 3434 972 4092 
Q 1497 4750 2381 4750 
Q 2619 4750 2861 4703 
Q 3103 4656 3366 4563 
z
" transform="scale(0.015625)"/>
       </defs>
       <use xlink:href="#DejaVuSans-36"/>
      </g>
     </g>
    </g>
    <g id="xtick_5">
     <g id="line2d_5">
      <g>
       <use xlink:href="#mbd94b124dc" x="238.660003" y="307.872" style="stroke: #000000; stroke-width: 0.8"/>
      </g>
     </g>
     <g id="text_5">
      <!-- 8 -->
      <g transform="translate(235.478753 322.470438) scale(0.1 -0.1)">
       <defs>
        <path id="DejaVuSans-38" d="M 2034 2216 
Q 1584 2216 1326 1975 
Q 1069 1734 1069 1313 
Q 1069 891 1326 650 
Q 1584 409 2034 409 
Q 2484 409 2743 651 
Q 3003 894 3003 1313 
Q 3003 1734 2745 1975 
Q 2488 2216 2034 2216 
z
M 1403 2484 
Q 997 2584 770 2862 
Q 544 3141 544 3541 
Q 544 4100 942 4425 
Q 1341 4750 2034 4750 
Q 2731 4750 3128 4425 
Q 3525 4100 3525 3541 
Q 3525 3141 3298 2862 
Q 3072 2584 2669 2484 
Q 3125 2378 3379 2068 
Q 3634 1759 3634 1313 
Q 3634 634 3220 271 
Q 2806 -91 2034 -91 
Q 1263 -91 848 271 
Q 434 634 434 1313 
Q 434 1759 690 2068 
Q 947 2378 1403 2484 
z
M 1172 3481 
Q 1172 3119 1398 2916 
Q 1625 2713 2034 2713 
Q 2441 2713 2670 2916 
Q 2900 3119 2900 3481 
Q 2900 3844 2670 4047 
Q 2441 4250 2034 4250 
Q 1625 4250 1398 4047 
Q 1172 3844 1172 3481 
z
" transform="scale(0.015625)"/>
       </defs>
       <use xlink:href="#DejaVuSans-38"/>
      </g>
     </g>
    </g>
    <g id="xtick_6">
     <g id="line2d_6">
      <g>
       <use xlink:href="#mbd94b124dc" x="283.43994" y="307.872" style="stroke: #000000; stroke-width: 0.8"/>
      </g>
     </g>
     <g id="text_6">
      <!-- 10 -->
      <g transform="translate(277.07744 322.470438) scale(0.1 -0.1)">
       <defs>
        <path id="DejaVuSans-31" d="M 794 531 
L 1825 531 
L 1825 4091 
L 703 3866 
L 703 4441 
L 1819 4666 
L 2450 4666 
L 2450 531 
L 3481 531 
L 3481 0 
L 794 0 
L 794 531 
z
" transform="scale(0.015625)"/>
       </defs>
       <use xlink:href="#DejaVuSans-31"/>
       <use xlink:href="#DejaVuSans-30" x="63.623047"/>
      </g>
     </g>
    </g>
    <g id="xtick_7">
     <g id="line2d_7">
      <g>
       <use xlink:href="#mbd94b124dc" x="328.219877" y="307.872" style="stroke: #000000; stroke-width: 0.8"/>
      </g>
     </g>
     <g id="text_7">
      <!-- 12 -->
      <g transform="translate(321.857377 322.470438) scale(0.1 -0.1)">
       <use xlink:href="#DejaVuSans-31"/>
       <use xlink:href="#DejaVuSans-32" x="63.623047"/>
      </g>
     </g>
    </g>
    <g id="xtick_8">
     <g id="line2d_8">
      <g>
       <use xlink:href="#mbd94b124dc" x="372.999815" y="307.872" style="stroke: #000000; stroke-width: 0.8"/>
      </g>
     </g>
     <g id="text_8">
      <!-- 14 -->
      <g transform="translate(366.637315 322.470438) scale(0.1 -0.1)">
       <use xlink:href="#DejaVuSans-31"/>
       <use xlink:href="#DejaVuSans-34" x="63.623047"/>
      </g>
     </g>
    </g>
    <g id="text_9">
     <!-- Delay time [μs] -->
     <g transform="translate(184.262344 336.148562) scale(0.1 -0.1)">
      <defs>
       <path id="DejaVuSans-44" d="M 1259 4147 
L 1259 519 
L 2022 519 
Q 2988 519 3436 956 
Q 3884 1394 3884 2338 
Q 3884 3275 3436 3711 
Q 2988 4147 2022 4147 
L 1259 4147 
z
M 628 4666 
L 1925 4666 
Q 3281 4666 3915 4102 
Q 4550 3538 4550 2338 
Q 4550 1131 3912 565 
Q 3275 0 1925 0 
L 628 0 
L 628 4666 
z
" transform="scale(0.015625)"/>
       <path id="DejaVuSans-65" d="M 3597 1894 
L 3597 1613 
L 953 1613 
Q 991 1019 1311 708 
Q 1631 397 2203 397 
Q 2534 397 2845 478 
Q 3156 559 3463 722 
L 3463 178 
Q 3153 47 2828 -22 
Q 2503 -91 2169 -91 
Q 1331 -91 842 396 
Q 353 884 353 1716 
Q 353 2575 817 3079 
Q 1281 3584 2069 3584 
Q 2775 3584 3186 3129 
Q 3597 2675 3597 1894 
z
M 3022 2063 
Q 3016 2534 2758 2815 
Q 2500 3097 2075 3097 
Q 1594 3097 1305 2825 
Q 1016 2553 972 2059 
L 3022 2063 
z
" transform="scale(0.015625)"/>
       <path id="DejaVuSans-6c" d="M 603 4863 
L 1178 4863 
L 1178 0 
L 603 0 
L 603 4863 
z
" transform="scale(0.015625)"/>
       <path id="DejaVuSans-61" d="M 2194 1759 
Q 1497 1759 1228 1600 
Q 959 1441 959 1056 
Q 959 750 1161 570 
Q 1363 391 1709 391 
Q 2188 391 2477 730 
Q 2766 1069 2766 1631 
L 2766 1759 
L 2194 1759 
z
M 3341 1997 
L 3341 0 
L 2766 0 
L 2766 531 
Q 2569 213 2275 61 
Q 1981 -91 1556 -91 
Q 1019 -91 701 211 
Q 384 513 384 1019 
Q 384 1609 779 1909 
Q 1175 2209 1959 2209 
L 2766 2209 
L 2766 2266 
Q 2766 2663 2505 2880 
Q 2244 3097 1772 3097 
Q 1472 3097 1187 3025 
Q 903 2953 641 2809 
L 641 3341 
Q 956 3463 1253 3523 
Q 1550 3584 1831 3584 
Q 2591 3584 2966 3190 
Q 3341 2797 3341 1997 
z
" transform="scale(0.015625)"/>
       <path id="DejaVuSans-79" d="M 2059 -325 
Q 1816 -950 1584 -1140 
Q 1353 -1331 966 -1331 
L 506 -1331 
L 506 -850 
L 844 -850 
Q 1081 -850 1212 -737 
Q 1344 -625 1503 -206 
L 1606 56 
L 191 3500 
L 800 3500 
L 1894 763 
L 2988 3500 
L 3597 3500 
L 2059 -325 
z
" transform="scale(0.015625)"/>
       <path id="DejaVuSans-20" transform="scale(0.015625)"/>
       <path id="DejaVuSans-74" d="M 1172 4494 
L 1172 3500 
L 2356 3500 
L 2356 3053 
L 1172 3053 
L 1172 1153 
Q 1172 725 1289 603 
Q 1406 481 1766 481 
L 2356 481 
L 2356 0 
L 1766 0 
Q 1100 0 847 248 
Q 594 497 594 1153 
L 594 3053 
L 172 3053 
L 172 3500 
L 594 3500 
L 594 4494 
L 1172 4494 
z
" transform="scale(0.015625)"/>
       <path id="DejaVuSans-69" d="M 603 3500 
L 1178 3500 
L 1178 0 
L 603 0 
L 603 3500 
z
M 603 4863 
L 1178 4863 
L 1178 4134 
L 603 4134 
L 603 4863 
z
" transform="scale(0.015625)"/>
       <path id="DejaVuSans-6d" d="M 3328 2828 
Q 3544 3216 3844 3400 
Q 4144 3584 4550 3584 
Q 5097 3584 5394 3201 
Q 5691 2819 5691 2113 
L 5691 0 
L 5113 0 
L 5113 2094 
Q 5113 2597 4934 2840 
Q 4756 3084 4391 3084 
Q 3944 3084 3684 2787 
Q 3425 2491 3425 1978 
L 3425 0 
L 2847 0 
L 2847 2094 
Q 2847 2600 2669 2842 
Q 2491 3084 2119 3084 
Q 1678 3084 1418 2786 
Q 1159 2488 1159 1978 
L 1159 0 
L 581 0 
L 581 3500 
L 1159 3500 
L 1159 2956 
Q 1356 3278 1631 3431 
Q 1906 3584 2284 3584 
Q 2666 3584 2933 3390 
Q 3200 3197 3328 2828 
z
" transform="scale(0.015625)"/>
       <path id="DejaVuSans-5b" d="M 550 4863 
L 1875 4863 
L 1875 4416 
L 1125 4416 
L 1125 -397 
L 1875 -397 
L 1875 -844 
L 550 -844 
L 550 4863 
z
" transform="scale(0.015625)"/>
       <path id="DejaVuSans-3bc" d="M 544 -1331 
L 544 3500 
L 1119 3500 
L 1119 1325 
Q 1119 872 1334 640 
Q 1550 409 1972 409 
Q 2434 409 2667 671 
Q 2900 934 2900 1459 
L 2900 3500 
L 3475 3500 
L 3475 806 
Q 3475 619 3529 530 
Q 3584 441 3700 441 
Q 3728 441 3778 458 
Q 3828 475 3916 513 
L 3916 50 
Q 3788 -22 3673 -56 
Q 3559 -91 3450 -91 
Q 3234 -91 3106 31 
Q 2978 153 2931 403 
Q 2775 156 2548 32 
Q 2322 -91 2016 -91 
Q 1697 -91 1473 31 
Q 1250 153 1119 397 
L 1119 -1331 
L 544 -1331 
z
" transform="scale(0.015625)"/>
       <path id="DejaVuSans-73" d="M 2834 3397 
L 2834 2853 
Q 2591 2978 2328 3040 
Q 2066 3103 1784 3103 
Q 1356 3103 1142 2972 
Q 928 2841 928 2578 
Q 928 2378 1081 2264 
Q 1234 2150 1697 2047 
L 1894 2003 
Q 2506 1872 2764 1633 
Q 3022 1394 3022 966 
Q 3022 478 2636 193 
Q 2250 -91 1575 -91 
Q 1294 -91 989 -36 
Q 684 19 347 128 
L 347 722 
Q 666 556 975 473 
Q 1284 391 1588 391 
Q 1994 391 2212 530 
Q 2431 669 2431 922 
Q 2431 1156 2273 1281 
Q 2116 1406 1581 1522 
L 1381 1569 
Q 847 1681 609 1914 
Q 372 2147 372 2553 
Q 372 3047 722 3315 
Q 1072 3584 1716 3584 
Q 2034 3584 2315 3537 
Q 2597 3491 2834 3397 
z
" transform="scale(0.015625)"/>
       <path id="DejaVuSans-5d" d="M 1947 4863 
L 1947 -844 
L 622 -844 
L 622 -397 
L 1369 -397 
L 1369 4416 
L 622 4416 
L 622 4863 
L 1947 4863 
z
" transform="scale(0.015625)"/>
      </defs>
      <use xlink:href="#DejaVuSans-44"/>
      <use xlink:href="#DejaVuSans-65" x="77.001953"/>
      <use xlink:href="#DejaVuSans-6c" x="138.525391"/>
      <use xlink:href="#DejaVuSans-61" x="166.308594"/>
      <use xlink:href="#DejaVuSans-79" x="227.587891"/>
      <use xlink:href="#DejaVuSans-20" x="286.767578"/>
      <use xlink:href="#DejaVuSans-74" x="318.554688"/>
      <use xlink:href="#DejaVuSans-69" x="357.763672"/>
      <use xlink:href="#DejaVuSans-6d" x="385.546875"/>
      <use xlink:href="#DejaVuSans-65" x="482.958984"/>
      <use xlink:href="#DejaVuSans-20" x="544.482422"/>
      <use xlink:href="#DejaVuSans-5b" x="576.269531"/>
      <use xlink:href="#DejaVuSans-3bc" x="615.283203"/>
      <use xlink:href="#DejaVuSans-73" x="678.90625"/>
      <use xlink:href="#DejaVuSans-5d" x="731.005859"/>
     </g>
    </g>
   </g>
   <g id="matplotlib.axis_2">
    <g id="ytick_1">
     <g id="line2d_9">
      <defs>
       <path id="m567ee78539" d="M 0 0 
L -3.5 0 
" style="stroke: #000000; stroke-width: 0.8"/>
      </defs>
      <g>
       <use xlink:href="#m567ee78539" x="44.203125" y="295.776" style="stroke: #000000; stroke-width: 0.8"/>
      </g>
     </g>
     <g id="text_10">
      <!-- 0.0 -->
      <g transform="translate(21.3 299.575219) scale(0.1 -0.1)">
       <defs>
        <path id="DejaVuSans-2e" d="M 684 794 
L 1344 794 
L 1344 0 
L 684 0 
L 684 794 
z
" transform="scale(0.015625)"/>
       </defs>
       <use xlink:href="#DejaVuSans-30"/>
       <use xlink:href="#DejaVuSans-2e" x="63.623047"/>
       <use xlink:href="#DejaVuSans-30" x="95.410156"/>
      </g>
     </g>
    </g>
    <g id="ytick_2">
     <g id="line2d_10">
      <g>
       <use xlink:href="#m567ee78539" x="44.203125" y="247.392" style="stroke: #000000; stroke-width: 0.8"/>
      </g>
     </g>
     <g id="text_11">
      <!-- 0.2 -->
      <g transform="translate(21.3 251.191219) scale(0.1 -0.1)">
       <use xlink:href="#DejaVuSans-30"/>
       <use xlink:href="#DejaVuSans-2e" x="63.623047"/>
       <use xlink:href="#DejaVuSans-32" x="95.410156"/>
      </g>
     </g>
    </g>
    <g id="ytick_3">
     <g id="line2d_11">
      <g>
       <use xlink:href="#m567ee78539" x="44.203125" y="199.008" style="stroke: #000000; stroke-width: 0.8"/>
      </g>
     </g>
     <g id="text_12">
      <!-- 0.4 -->
      <g transform="translate(21.3 202.807219) scale(0.1 -0.1)">
       <use xlink:href="#DejaVuSans-30"/>
       <use xlink:href="#DejaVuSans-2e" x="63.623047"/>
       <use xlink:href="#DejaVuSans-34" x="95.410156"/>
      </g>
     </g>
    </g>
    <g id="ytick_4">
     <g id="line2d_12">
      <g>
       <use xlink:href="#m567ee78539" x="44.203125" y="150.624" style="stroke: #000000; stroke-width: 0.8"/>
      </g>
     </g>
     <g id="text_13">
      <!-- 0.6 -->
      <g transform="translate(21.3 154.423219) scale(0.1 -0.1)">
       <use xlink:href="#DejaVuSans-30"/>
       <use xlink:href="#DejaVuSans-2e" x="63.623047"/>
       <use xlink:href="#DejaVuSans-36" x="95.410156"/>
      </g>
     </g>
    </g>
    <g id="ytick_5">
     <g id="line2d_13">
      <g>
       <use xlink:href="#m567ee78539" x="44.203125" y="102.24" style="stroke: #000000; stroke-width: 0.8"/>
      </g>
     </g>
     <g id="text_14">
      <!-- 0.8 -->
      <g transform="translate(21.3 106.039219) scale(0.1 -0.1)">
       <use xlink:href="#DejaVuSans-30"/>
       <use xlink:href="#DejaVuSans-2e" x="63.623047"/>
       <use xlink:href="#DejaVuSans-38" x="95.410156"/>
      </g>
     </g>
    </g>
    <g id="ytick_6">
     <g id="line2d_14">
      <g>
       <use xlink:href="#m567ee78539" x="44.203125" y="53.856" style="stroke: #000000; stroke-width: 0.8"/>
      </g>
     </g>
     <g id="text_15">
      <!-- 1.0 -->
      <g transform="translate(21.3 57.655219) scale(0.1 -0.1)">
       <use xlink:href="#DejaVuSans-31"/>
       <use xlink:href="#DejaVuSans-2e" x="63.623047"/>
       <use xlink:href="#DejaVuSans-30" x="95.410156"/>
      </g>
     </g>
    </g>
    <g id="text_16">
     <!-- $|1\rangle$ population -->
     <g transform="translate(14.9 209.866) rotate(-90) scale(0.1 -0.1)">
      <defs>
       <path id="DejaVuSans-7c" d="M 1344 4891 
L 1344 -1509 
L 813 -1509 
L 813 4891 
L 1344 4891 
z
" transform="scale(0.015625)"/>
       <path id="DejaVuSans-27e9" d="M 1925 2006 
L 1044 -844 
L 513 -844 
L 1394 2006 
L 513 4856 
L 1044 4856 
L 1925 2006 
z
" transform="scale(0.015625)"/>
       <path id="DejaVuSans-70" d="M 1159 525 
L 1159 -1331 
L 581 -1331 
L 581 3500 
L 1159 3500 
L 1159 2969 
Q 1341 3281 1617 3432 
Q 1894 3584 2278 3584 
Q 2916 3584 3314 3078 
Q 3713 2572 3713 1747 
Q 3713 922 3314 415 
Q 2916 -91 2278 -91 
Q 1894 -91 1617 61 
Q 1341 213 1159 525 
z
M 3116 1747 
Q 3116 2381 2855 2742 
Q 2594 3103 2138 3103 
Q 1681 3103 1420 2742 
Q 1159 2381 1159 1747 
Q 1159 1113 1420 752 
Q 1681 391 2138 391 
Q 2594 391 2855 752 
Q 3116 1113 3116 1747 
z
" transform="scale(0.015625)"/>
       <path id="DejaVuSans-6f" d="M 1959 3097 
Q 1497 3097 1228 2736 
Q 959 2375 959 1747 
Q 959 1119 1226 758 
Q 1494 397 1959 397 
Q 2419 397 2687 759 
Q 2956 1122 2956 1747 
Q 2956 2369 2687 2733 
Q 2419 3097 1959 3097 
z
M 1959 3584 
Q 2709 3584 3137 3096 
Q 3566 2609 3566 1747 
Q 3566 888 3137 398 
Q 2709 -91 1959 -91 
Q 1206 -91 779 398 
Q 353 888 353 1747 
Q 353 2609 779 3096 
Q 1206 3584 1959 3584 
z
" transform="scale(0.015625)"/>
       <path id="DejaVuSans-75" d="M 544 1381 
L 544 3500 
L 1119 3500 
L 1119 1403 
Q 1119 906 1312 657 
Q 1506 409 1894 409 
Q 2359 409 2629 706 
Q 2900 1003 2900 1516 
L 2900 3500 
L 3475 3500 
L 3475 0 
L 2900 0 
L 2900 538 
Q 2691 219 2414 64 
Q 2138 -91 1772 -91 
Q 1169 -91 856 284 
Q 544 659 544 1381 
z
M 1991 3584 
L 1991 3584 
z
" transform="scale(0.015625)"/>
       <path id="DejaVuSans-6e" d="M 3513 2113 
L 3513 0 
L 2938 0 
L 2938 2094 
Q 2938 2591 2744 2837 
Q 2550 3084 2163 3084 
Q 1697 3084 1428 2787 
Q 1159 2491 1159 1978 
L 1159 0 
L 581 0 
L 581 3500 
L 1159 3500 
L 1159 2956 
Q 1366 3272 1645 3428 
Q 1925 3584 2291 3584 
Q 2894 3584 3203 3211 
Q 3513 2838 3513 2113 
z
" transform="scale(0.015625)"/>
      </defs>
      <use xlink:href="#DejaVuSans-7c" transform="translate(0 0.578125)"/>
      <use xlink:href="#DejaVuSans-31" transform="translate(33.691406 0.578125)"/>
      <use xlink:href="#DejaVuSans-27e9" transform="translate(97.314453 0.578125)"/>
      <use xlink:href="#DejaVuSans-20" transform="translate(136.328125 0.578125)"/>
      <use xlink:href="#DejaVuSans-70" transform="translate(168.115234 0.578125)"/>
      <use xlink:href="#DejaVuSans-6f" transform="translate(231.591797 0.578125)"/>
      <use xlink:href="#DejaVuSans-70" transform="translate(292.773438 0.578125)"/>
      <use xlink:href="#DejaVuSans-75" transform="translate(356.25 0.578125)"/>
      <use xlink:href="#DejaVuSans-6c" transform="translate(419.628906 0.578125)"/>
      <use xlink:href="#DejaVuSans-61" transform="translate(447.412109 0.578125)"/>
      <use xlink:href="#DejaVuSans-74" transform="translate(508.691406 0.578125)"/>
      <use xlink:href="#DejaVuSans-69" transform="translate(547.900391 0.578125)"/>
      <use xlink:href="#DejaVuSans-6f" transform="translate(575.683594 0.578125)"/>
      <use xlink:href="#DejaVuSans-6e" transform="translate(636.865234 0.578125)"/>
     </g>
    </g>
   </g>
   <g id="line2d_15">
    <defs>
     <path id="m33634b4f11" d="M 0 1.5 
C 0.397805 1.5 0.77937 1.341951 1.06066 1.06066 
C 1.341951 0.77937 1.5 0.397805 1.5 0 
C 1.5 -0.397805 1.341951 -0.77937 1.06066 -1.06066 
C 0.77937 -1.341951 0.397805 -1.5 0 -1.5 
C -0.397805 -1.5 -0.77937 -1.341951 -1.06066 -1.06066 
C -1.341951 -0.77937 -1.5 -0.397805 -1.5 0 
C -1.5 0.397805 -1.341951 0.77937 -1.06066 1.06066 
C -0.77937 1.341951 -0.397805 1.5 0 1.5 
z
" style="stroke: #1f77b4"/>
    </defs>
    <g clip-path="url(#p5e98f41f61)">
     <use xlink:href="#m33634b4f11" x="60.435852" y="54.87329" style="fill: #1f77b4; stroke: #1f77b4"/>
     <use xlink:href="#m33634b4f11" x="71.630837" y="85.552185" style="fill: #1f77b4; stroke: #1f77b4"/>
     <use xlink:href="#m33634b4f11" x="82.825821" y="161.589313" style="fill: #1f77b4; stroke: #1f77b4"/>
     <use xlink:href="#m33634b4f11" x="94.020805" y="242.034723" style="fill: #1f77b4; stroke: #1f77b4"/>
     <use xlink:href="#m33634b4f11" x="105.21579" y="284.247509" style="fill: #1f77b4; stroke: #1f77b4"/>
     <use xlink:href="#m33634b4f11" x="116.410774" y="275.054641" style="fill: #1f77b4; stroke: #1f77b4"/>
     <use xlink:href="#m33634b4f11" x="127.605758" y="220.749941" style="fill: #1f77b4; stroke: #1f77b4"/>
     <use xlink:href="#m33634b4f11" x="138.800743" y="147.834154" style="fill: #1f77b4; stroke: #1f77b4"/>
     <use xlink:href="#m33634b4f11" x="149.995727" y="86.01889" style="fill: #1f77b4; stroke: #1f77b4"/>
     <use xlink:href="#m33634b4f11" x="161.190711" y="64.945884" style="fill: #1f77b4; stroke: #1f77b4"/>
     <use xlink:href="#m33634b4f11" x="172.385696" y="94.466731" style="fill: #1f77b4; stroke: #1f77b4"/>
     <use xlink:href="#m33634b4f11" x="183.58068" y="158.56473" style="fill: #1f77b4; stroke: #1f77b4"/>
     <use xlink:href="#m33634b4f11" x="194.775664" y="224.745305" style="fill: #1f77b4; stroke: #1f77b4"/>
     <use xlink:href="#m33634b4f11" x="205.970649" y="269.154399" style="fill: #1f77b4; stroke: #1f77b4"/>
     <use xlink:href="#m33634b4f11" x="217.165633" y="262.170722" style="fill: #1f77b4; stroke: #1f77b4"/>
     <use xlink:href="#m33634b4f11" x="228.360617" y="215.689225" style="fill: #1f77b4; stroke: #1f77b4"/>
     <use xlink:href="#m33634b4f11" x="239.555601" y="148.930518" style="fill: #1f77b4; stroke: #1f77b4"/>
     <use xlink:href="#m33634b4f11" x="250.750586" y="104.286492" style="fill: #1f77b4; stroke: #1f77b4"/>
     <use xlink:href="#m33634b4f11" x="261.94557" y="90.859786" style="fill: #1f77b4; stroke: #1f77b4"/>
     <use xlink:href="#m33634b4f11" x="273.140554" y="109.987859" style="fill: #1f77b4; stroke: #1f77b4"/>
     <use xlink:href="#m33634b4f11" x="284.335539" y="166.24915" style="fill: #1f77b4; stroke: #1f77b4"/>
     <use xlink:href="#m33634b4f11" x="295.530523" y="220.514001" style="fill: #1f77b4; stroke: #1f77b4"/>
     <use xlink:href="#m33634b4f11" x="306.725507" y="254.786982" style="fill: #1f77b4; stroke: #1f77b4"/>
     <use xlink:href="#m33634b4f11" x="317.920492" y="239.83427" style="fill: #1f77b4; stroke: #1f77b4"/>
     <use xlink:href="#m33634b4f11" x="329.115476" y="205.125668" style="fill: #1f77b4; stroke: #1f77b4"/>
     <use xlink:href="#m33634b4f11" x="340.31046" y="148.06195" style="fill: #1f77b4; stroke: #1f77b4"/>
     <use xlink:href="#m33634b4f11" x="351.505445" y="110.685334" style="fill: #1f77b4; stroke: #1f77b4"/>
     <use xlink:href="#m33634b4f11" x="362.700429" y="99.595274" style="fill: #1f77b4; stroke: #1f77b4"/>
     <use xlink:href="#m33634b4f11" x="373.895413" y="295.776" style="fill: #1f77b4; stroke: #1f77b4"/>
     <use xlink:href="#m33634b4f11" x="385.090398" y="53.856" style="fill: #1f77b4; stroke: #1f77b4"/>
    </g>
   </g>
   <g id="line2d_16">
    <path d="M 60.435852 54.15519 
L 61.343554 54.838051 
L 62.251255 55.905514 
L 63.158957 57.35305 
L 64.066658 59.17492 
L 65.276927 62.174232 
L 66.487195 65.80694 
L 68.000031 71.202895 
L 69.512867 77.499343 
L 71.328269 86.158011 
L 73.143672 95.907691 
L 75.261642 108.485093 
L 77.682179 124.163807 
L 81.010418 147.337387 
L 91.297701 220.326955 
L 93.718238 235.526144 
L 95.836208 247.605792 
L 97.651611 256.890346 
L 99.467014 265.067049 
L 100.97985 270.962887 
L 102.492685 275.971702 
L 103.702954 279.312548 
L 104.913222 282.042686 
L 106.123491 284.148796 
L 107.031192 285.312887 
L 107.938894 286.117691 
L 108.846595 286.561632 
L 109.45173 286.656864 
L 110.056864 286.591674 
L 110.661998 286.366458 
L 111.5697 285.730016 
L 112.477401 284.738042 
L 113.385102 283.394739 
L 114.292804 281.705429 
L 115.503072 278.92604 
L 116.713341 275.561256 
L 118.226177 270.565073 
L 119.739012 264.736789 
L 121.554415 256.72381 
L 123.369818 247.702962 
L 125.487788 236.067768 
L 127.908325 221.565946 
L 131.236564 200.135563 
L 141.523847 132.660421 
L 143.944384 118.614633 
L 146.062354 107.453498 
L 147.877757 98.876421 
L 149.69316 91.32431 
L 151.205995 85.880161 
L 152.718831 81.256462 
L 153.9291 78.173655 
L 155.139368 75.655627 
L 156.349637 73.714658 
L 157.257338 72.643127 
L 158.16504 71.903803 
L 159.072741 71.498128 
L 159.980443 71.426464 
L 160.888144 71.688095 
L 161.795845 72.281235 
L 162.703547 73.203034 
L 163.611248 74.449592 
L 164.51895 76.015972 
L 165.729218 78.591549 
L 166.939487 81.708155 
L 168.452323 86.334171 
L 169.965158 91.729091 
L 171.780561 99.144519 
L 173.595964 107.491007 
L 175.713934 118.254565 
L 178.437038 133.413292 
L 181.765277 153.340757 
L 191.144858 210.450891 
L 193.867963 225.285465 
L 195.985933 235.749638 
L 198.103903 245.079275 
L 199.919306 252.054492 
L 201.432141 257.081547 
L 202.944977 261.349727 
L 204.155246 264.194414 
L 205.365514 266.516796 
L 206.575783 268.305553 
L 207.483484 269.291865 
L 208.391186 269.971007 
L 209.298887 270.341663 
L 210.206589 270.403512 
L 211.11429 270.157229 
L 212.021991 269.60448 
L 212.929693 268.747914 
L 213.837394 267.591151 
L 215.047663 265.589875 
L 216.257931 263.076598 
L 217.4682 260.067638 
L 218.981036 255.638725 
L 220.493871 250.508426 
L 222.309274 243.495845 
L 224.427244 234.255778 
L 226.847781 222.508227 
L 229.570886 208.111901 
L 233.504259 185.953013 
L 240.160736 148.264894 
L 243.186407 132.517659 
L 245.606944 121.085805 
L 247.724914 112.151439 
L 249.540317 105.407358 
L 251.053153 100.495073 
L 252.565989 96.270124 
L 254.078824 92.767025 
L 255.289093 90.503256 
L 256.499362 88.730605 
L 257.407063 87.728509 
L 258.314764 87.009823 
L 259.222466 86.57606 
L 260.130167 86.427811 
L 261.037869 86.564744 
L 261.94557 86.98561 
L 262.853272 87.68825 
L 263.760973 88.669601 
L 264.668674 89.925713 
L 265.878943 92.019472 
L 267.089212 94.579222 
L 268.602047 98.408971 
L 270.114883 102.903473 
L 271.930286 109.112998 
L 273.745689 116.132228 
L 275.863659 125.217691 
L 278.284196 136.579437 
L 281.309867 151.855264 
L 292.807419 211.178582 
L 295.227956 222.010126 
L 297.345926 230.544931 
L 299.161329 237.044981 
L 300.976732 242.708108 
L 302.489567 246.738588 
L 304.002403 250.107323 
L 305.212672 252.307513 
L 306.42294 254.055867 
L 307.633209 255.344084 
L 308.54091 256.00479 
L 309.448612 256.402056 
L 310.356313 256.53535 
L 311.264015 256.404989 
L 312.171716 256.01214 
L 313.079417 255.358812 
L 313.987119 254.447848 
L 315.197387 252.838911 
L 316.407656 250.789474 
L 317.617925 248.312931 
L 319.13076 244.640902 
L 320.643596 240.3622 
L 322.458999 234.485159 
L 324.274402 227.874119 
L 326.392372 219.352936 
L 329.115476 207.358411 
L 332.443715 191.599085 
L 341.823296 146.479035 
L 344.5464 134.770902 
L 346.66437 126.516334 
L 348.78234 119.160805 
L 350.597743 113.665123 
L 352.110579 109.70728 
L 353.623415 106.349946 
L 354.833683 104.114896 
L 356.043952 102.292947 
L 357.25422 100.892969 
L 358.161922 100.123859 
L 359.069623 99.597564 
L 359.977325 99.315094 
L 360.885026 99.276666 
L 361.792728 99.481714 
L 362.700429 99.928888 
L 362.700429 99.928888 
" clip-path="url(#p5e98f41f61)" style="fill: none; stroke: #d62728; stroke-width: 1.5; stroke-linecap: square"/>
   </g>
   <g id="patch_3">
    <path d="M 44.203125 307.872 
L 44.203125 41.76 
" style="fill: none; stroke: #000000; stroke-width: 0.8; stroke-linejoin: miter; stroke-linecap: square"/>
   </g>
   <g id="patch_4">
    <path d="M 401.323125 307.872 
L 401.323125 41.76 
" style="fill: none; stroke: #000000; stroke-width: 0.8; stroke-linejoin: miter; stroke-linecap: square"/>
   </g>
   <g id="patch_5">
    <path d="M 44.203125 307.872 
L 401.323125 307.872 
" style="fill: none; stroke: #000000; stroke-width: 0.8; stroke-linejoin: miter; stroke-linecap: square"/>
   </g>
   <g id="patch_6">
    <path d="M 44.203125 41.76 
L 401.323125 41.76 
" style="fill: none; stroke: #000000; stroke-width: 0.8; stroke-linejoin: miter; stroke-linecap: square"/>
   </g>
   <g id="text_17">
    <g id="patch_7">
     <path d="M 419.179125 160.914975 
L 665.079125 160.914975 
Q 669.079125 160.914975 669.079125 156.914975 
L 669.079125 55.085913 
Q 669.079125 51.085913 665.079125 51.085913 
L 419.179125 51.085913 
Q 415.179125 51.085913 415.179125 55.085913 
L 415.179125 156.914975 
Q 415.179125 160.914975 419.179125 160.914975 
z
" style="fill: #ffffff; opacity: 0.5; stroke: #000000; stroke-linejoin: miter"/>
    </g>
    <!-- Summary -->
    <g transform="translate(419.179125 62.664038) scale(0.1 -0.1)">
     <defs>
      <path id="DejaVuSans-53" d="M 3425 4513 
L 3425 3897 
Q 3066 4069 2747 4153 
Q 2428 4238 2131 4238 
Q 1616 4238 1336 4038 
Q 1056 3838 1056 3469 
Q 1056 3159 1242 3001 
Q 1428 2844 1947 2747 
L 2328 2669 
Q 3034 2534 3370 2195 
Q 3706 1856 3706 1288 
Q 3706 609 3251 259 
Q 2797 -91 1919 -91 
Q 1588 -91 1214 -16 
Q 841 59 441 206 
L 441 856 
Q 825 641 1194 531 
Q 1563 422 1919 422 
Q 2459 422 2753 634 
Q 3047 847 3047 1241 
Q 3047 1584 2836 1778 
Q 2625 1972 2144 2069 
L 1759 2144 
Q 1053 2284 737 2584 
Q 422 2884 422 3419 
Q 422 4038 858 4394 
Q 1294 4750 2059 4750 
Q 2388 4750 2728 4690 
Q 3069 4631 3425 4513 
z
" transform="scale(0.015625)"/>
      <path id="DejaVuSans-72" d="M 2631 2963 
Q 2534 3019 2420 3045 
Q 2306 3072 2169 3072 
Q 1681 3072 1420 2755 
Q 1159 2438 1159 1844 
L 1159 0 
L 581 0 
L 581 3500 
L 1159 3500 
L 1159 2956 
Q 1341 3275 1631 3429 
Q 1922 3584 2338 3584 
Q 2397 3584 2469 3576 
Q 2541 3569 2628 3553 
L 2631 2963 
z
" transform="scale(0.015625)"/>
     </defs>
     <use xlink:href="#DejaVuSans-53"/>
     <use xlink:href="#DejaVuSans-75" x="63.476562"/>
     <use xlink:href="#DejaVuSans-6d" x="126.855469"/>
     <use xlink:href="#DejaVuSans-6d" x="224.267578"/>
     <use xlink:href="#DejaVuSans-61" x="321.679688"/>
     <use xlink:href="#DejaVuSans-72" x="382.958984"/>
     <use xlink:href="#DejaVuSans-79" x="424.072266"/>
    </g>
    <!-- $T_2^*$: 28.6$\pm$1.2 μs -->
    <g transform="translate(419.179125 75.663725) scale(0.1 -0.1)">
     <defs>
      <path id="DejaVuSans-Oblique-54" d="M 378 4666 
L 4325 4666 
L 4225 4134 
L 2559 4134 
L 1759 0 
L 1125 0 
L 1925 4134 
L 275 4134 
L 378 4666 
z
" transform="scale(0.015625)"/>
      <path id="DejaVuSans-2a" d="M 3009 3897 
L 1888 3291 
L 3009 2681 
L 2828 2375 
L 1778 3009 
L 1778 1831 
L 1422 1831 
L 1422 3009 
L 372 2375 
L 191 2681 
L 1313 3291 
L 191 3897 
L 372 4206 
L 1422 3572 
L 1422 4750 
L 1778 4750 
L 1778 3572 
L 2828 4206 
L 3009 3897 
z
" transform="scale(0.015625)"/>
      <path id="DejaVuSans-3a" d="M 750 794 
L 1409 794 
L 1409 0 
L 750 0 
L 750 794 
z
M 750 3309 
L 1409 3309 
L 1409 2516 
L 750 2516 
L 750 3309 
z
" transform="scale(0.015625)"/>
      <path id="DejaVuSans-b1" d="M 2944 4013 
L 2944 2803 
L 4684 2803 
L 4684 2272 
L 2944 2272 
L 2944 1063 
L 2419 1063 
L 2419 2272 
L 678 2272 
L 678 2803 
L 2419 2803 
L 2419 4013 
L 2944 4013 
z
M 678 531 
L 4684 531 
L 4684 0 
L 678 0 
L 678 531 
z
" transform="scale(0.015625)"/>
     </defs>
     <use xlink:href="#DejaVuSans-Oblique-54" transform="translate(0 0.765625)"/>
     <use xlink:href="#DejaVuSans-2a" transform="translate(81.738451 39.046875) scale(0.7)"/>
     <use xlink:href="#DejaVuSans-32" transform="translate(61.083984 -26.578125) scale(0.7)"/>
     <use xlink:href="#DejaVuSans-3a" transform="translate(133.110521 0.765625)"/>
     <use xlink:href="#DejaVuSans-20" transform="translate(166.801927 0.765625)"/>
     <use xlink:href="#DejaVuSans-32" transform="translate(198.589036 0.765625)"/>
     <use xlink:href="#DejaVuSans-38" transform="translate(262.212083 0.765625)"/>
     <use xlink:href="#DejaVuSans-2e" transform="translate(325.83513 0.765625)"/>
     <use xlink:href="#DejaVuSans-36" transform="translate(357.62224 0.765625)"/>
     <use xlink:href="#DejaVuSans-b1" transform="translate(421.245286 0.765625)"/>
     <use xlink:href="#DejaVuSans-31" transform="translate(505.034349 0.765625)"/>
     <use xlink:href="#DejaVuSans-2e" transform="translate(568.657396 0.765625)"/>
     <use xlink:href="#DejaVuSans-32" transform="translate(594.944505 0.765625)"/>
     <use xlink:href="#DejaVuSans-20" transform="translate(658.567552 0.765625)"/>
     <use xlink:href="#DejaVuSans-3bc" transform="translate(690.354661 0.765625)"/>
     <use xlink:href="#DejaVuSans-73" transform="translate(753.977708 0.765625)"/>
    </g>
    <!--  -->
    <g transform="translate(419.179125 87.58185) scale(0.1 -0.1)"/>
    <!-- artificial detuning: 100 kHz -->
    <g transform="translate(419.179125 98.779663) scale(0.1 -0.1)">
     <defs>
      <path id="DejaVuSans-66" d="M 2375 4863 
L 2375 4384 
L 1825 4384 
Q 1516 4384 1395 4259 
Q 1275 4134 1275 3809 
L 1275 3500 
L 2222 3500 
L 2222 3053 
L 1275 3053 
L 1275 0 
L 697 0 
L 697 3053 
L 147 3053 
L 147 3500 
L 697 3500 
L 697 3744 
Q 697 4328 969 4595 
Q 1241 4863 1831 4863 
L 2375 4863 
z
" transform="scale(0.015625)"/>
      <path id="DejaVuSans-63" d="M 3122 3366 
L 3122 2828 
Q 2878 2963 2633 3030 
Q 2388 3097 2138 3097 
Q 1578 3097 1268 2742 
Q 959 2388 959 1747 
Q 959 1106 1268 751 
Q 1578 397 2138 397 
Q 2388 397 2633 464 
Q 2878 531 3122 666 
L 3122 134 
Q 2881 22 2623 -34 
Q 2366 -91 2075 -91 
Q 1284 -91 818 406 
Q 353 903 353 1747 
Q 353 2603 823 3093 
Q 1294 3584 2113 3584 
Q 2378 3584 2631 3529 
Q 2884 3475 3122 3366 
z
" transform="scale(0.015625)"/>
      <path id="DejaVuSans-64" d="M 2906 2969 
L 2906 4863 
L 3481 4863 
L 3481 0 
L 2906 0 
L 2906 525 
Q 2725 213 2448 61 
Q 2172 -91 1784 -91 
Q 1150 -91 751 415 
Q 353 922 353 1747 
Q 353 2572 751 3078 
Q 1150 3584 1784 3584 
Q 2172 3584 2448 3432 
Q 2725 3281 2906 2969 
z
M 947 1747 
Q 947 1113 1208 752 
Q 1469 391 1925 391 
Q 2381 391 2643 752 
Q 2906 1113 2906 1747 
Q 2906 2381 2643 2742 
Q 2381 3103 1925 3103 
Q 1469 3103 1208 2742 
Q 947 2381 947 1747 
z
" transform="scale(0.015625)"/>
      <path id="DejaVuSans-67" d="M 2906 1791 
Q 2906 2416 2648 2759 
Q 2391 3103 1925 3103 
Q 1463 3103 1205 2759 
Q 947 2416 947 1791 
Q 947 1169 1205 825 
Q 1463 481 1925 481 
Q 2391 481 2648 825 
Q 2906 1169 2906 1791 
z
M 3481 434 
Q 3481 -459 3084 -895 
Q 2688 -1331 1869 -1331 
Q 1566 -1331 1297 -1286 
Q 1028 -1241 775 -1147 
L 775 -588 
Q 1028 -725 1275 -790 
Q 1522 -856 1778 -856 
Q 2344 -856 2625 -561 
Q 2906 -266 2906 331 
L 2906 616 
Q 2728 306 2450 153 
Q 2172 0 1784 0 
Q 1141 0 747 490 
Q 353 981 353 1791 
Q 353 2603 747 3093 
Q 1141 3584 1784 3584 
Q 2172 3584 2450 3431 
Q 2728 3278 2906 2969 
L 2906 3500 
L 3481 3500 
L 3481 434 
z
" transform="scale(0.015625)"/>
      <path id="DejaVuSans-6b" d="M 581 4863 
L 1159 4863 
L 1159 1991 
L 2875 3500 
L 3609 3500 
L 1753 1863 
L 3688 0 
L 2938 0 
L 1159 1709 
L 1159 0 
L 581 0 
L 581 4863 
z
" transform="scale(0.015625)"/>
      <path id="DejaVuSans-48" d="M 628 4666 
L 1259 4666 
L 1259 2753 
L 3553 2753 
L 3553 4666 
L 4184 4666 
L 4184 0 
L 3553 0 
L 3553 2222 
L 1259 2222 
L 1259 0 
L 628 0 
L 628 4666 
z
" transform="scale(0.015625)"/>
      <path id="DejaVuSans-7a" d="M 353 3500 
L 3084 3500 
L 3084 2975 
L 922 459 
L 3084 459 
L 3084 0 
L 275 0 
L 275 525 
L 2438 3041 
L 353 3041 
L 353 3500 
z
" transform="scale(0.015625)"/>
     </defs>
     <use xlink:href="#DejaVuSans-61"/>
     <use xlink:href="#DejaVuSans-72" x="61.279297"/>
     <use xlink:href="#DejaVuSans-74" x="102.392578"/>
     <use xlink:href="#DejaVuSans-69" x="141.601562"/>
     <use xlink:href="#DejaVuSans-66" x="169.384766"/>
     <use xlink:href="#DejaVuSans-69" x="204.589844"/>
     <use xlink:href="#DejaVuSans-63" x="232.373047"/>
     <use xlink:href="#DejaVuSans-69" x="287.353516"/>
     <use xlink:href="#DejaVuSans-61" x="315.136719"/>
     <use xlink:href="#DejaVuSans-6c" x="376.416016"/>
     <use xlink:href="#DejaVuSans-20" x="404.199219"/>
     <use xlink:href="#DejaVuSans-64" x="435.986328"/>
     <use xlink:href="#DejaVuSans-65" x="499.462891"/>
     <use xlink:href="#DejaVuSans-74" x="560.986328"/>
     <use xlink:href="#DejaVuSans-75" x="600.195312"/>
     <use xlink:href="#DejaVuSans-6e" x="663.574219"/>
     <use xlink:href="#DejaVuSans-69" x="726.953125"/>
     <use xlink:href="#DejaVuSans-6e" x="754.736328"/>
     <use xlink:href="#DejaVuSans-67" x="818.115234"/>
     <use xlink:href="#DejaVuSans-3a" x="881.591797"/>
     <use xlink:href="#DejaVuSans-20" x="915.283203"/>
     <use xlink:href="#DejaVuSans-31" x="947.070312"/>
     <use xlink:href="#DejaVuSans-30" x="1010.693359"/>
     <use xlink:href="#DejaVuSans-30" x="1074.316406"/>
     <use xlink:href="#DejaVuSans-20" x="1137.939453"/>
     <use xlink:href="#DejaVuSans-6b" x="1169.726562"/>
     <use xlink:href="#DejaVuSans-48" x="1227.636719"/>
     <use xlink:href="#DejaVuSans-7a" x="1302.832031"/>
    </g>
    <!-- fitted detuning: 222.95$\pm$0.46 kHz -->
    <g transform="translate(419.179125 109.97935) scale(0.1 -0.1)">
     <defs>
      <path id="DejaVuSans-39" d="M 703 97 
L 703 672 
Q 941 559 1184 500 
Q 1428 441 1663 441 
Q 2288 441 2617 861 
Q 2947 1281 2994 2138 
Q 2813 1869 2534 1725 
Q 2256 1581 1919 1581 
Q 1219 1581 811 2004 
Q 403 2428 403 3163 
Q 403 3881 828 4315 
Q 1253 4750 1959 4750 
Q 2769 4750 3195 4129 
Q 3622 3509 3622 2328 
Q 3622 1225 3098 567 
Q 2575 -91 1691 -91 
Q 1453 -91 1209 -44 
Q 966 3 703 97 
z
M 1959 2075 
Q 2384 2075 2632 2365 
Q 2881 2656 2881 3163 
Q 2881 3666 2632 3958 
Q 2384 4250 1959 4250 
Q 1534 4250 1286 3958 
Q 1038 3666 1038 3163 
Q 1038 2656 1286 2365 
Q 1534 2075 1959 2075 
z
" transform="scale(0.015625)"/>
      <path id="DejaVuSans-35" d="M 691 4666 
L 3169 4666 
L 3169 4134 
L 1269 4134 
L 1269 2991 
Q 1406 3038 1543 3061 
Q 1681 3084 1819 3084 
Q 2600 3084 3056 2656 
Q 3513 2228 3513 1497 
Q 3513 744 3044 326 
Q 2575 -91 1722 -91 
Q 1428 -91 1123 -41 
Q 819 9 494 109 
L 494 744 
Q 775 591 1075 516 
Q 1375 441 1709 441 
Q 2250 441 2565 725 
Q 2881 1009 2881 1497 
Q 2881 1984 2565 2268 
Q 2250 2553 1709 2553 
Q 1456 2553 1204 2497 
Q 953 2441 691 2322 
L 691 4666 
z
" transform="scale(0.015625)"/>
     </defs>
     <use xlink:href="#DejaVuSans-66" transform="translate(0 0.015625)"/>
     <use xlink:href="#DejaVuSans-69" transform="translate(35.205078 0.015625)"/>
     <use xlink:href="#DejaVuSans-74" transform="translate(62.988281 0.015625)"/>
     <use xlink:href="#DejaVuSans-74" transform="translate(102.197266 0.015625)"/>
     <use xlink:href="#DejaVuSans-65" transform="translate(141.40625 0.015625)"/>
     <use xlink:href="#DejaVuSans-64" transform="translate(202.929688 0.015625)"/>
     <use xlink:href="#DejaVuSans-20" transform="translate(266.40625 0.015625)"/>
     <use xlink:href="#DejaVuSans-64" transform="translate(298.193359 0.015625)"/>
     <use xlink:href="#DejaVuSans-65" transform="translate(361.669922 0.015625)"/>
     <use xlink:href="#DejaVuSans-74" transform="translate(423.193359 0.015625)"/>
     <use xlink:href="#DejaVuSans-75" transform="translate(462.402344 0.015625)"/>
     <use xlink:href="#DejaVuSans-6e" transform="translate(525.78125 0.015625)"/>
     <use xlink:href="#DejaVuSans-69" transform="translate(589.160156 0.015625)"/>
     <use xlink:href="#DejaVuSans-6e" transform="translate(616.943359 0.015625)"/>
     <use xlink:href="#DejaVuSans-67" transform="translate(680.322266 0.015625)"/>
     <use xlink:href="#DejaVuSans-3a" transform="translate(743.798828 0.015625)"/>
     <use xlink:href="#DejaVuSans-20" transform="translate(777.490234 0.015625)"/>
     <use xlink:href="#DejaVuSans-32" transform="translate(809.277344 0.015625)"/>
     <use xlink:href="#DejaVuSans-32" transform="translate(872.900391 0.015625)"/>
     <use xlink:href="#DejaVuSans-32" transform="translate(936.523438 0.015625)"/>
     <use xlink:href="#DejaVuSans-2e" transform="translate(1000.146484 0.015625)"/>
     <use xlink:href="#DejaVuSans-39" transform="translate(1031.933594 0.015625)"/>
     <use xlink:href="#DejaVuSans-35" transform="translate(1095.556641 0.015625)"/>
     <use xlink:href="#DejaVuSans-b1" transform="translate(1159.179688 0.015625)"/>
     <use xlink:href="#DejaVuSans-30" transform="translate(1242.96875 0.015625)"/>
     <use xlink:href="#DejaVuSans-2e" transform="translate(1306.591797 0.015625)"/>
     <use xlink:href="#DejaVuSans-34" transform="translate(1338.378906 0.015625)"/>
     <use xlink:href="#DejaVuSans-36" transform="translate(1402.001953 0.015625)"/>
     <use xlink:href="#DejaVuSans-20" transform="translate(1465.625 0.015625)"/>
     <use xlink:href="#DejaVuSans-6b" transform="translate(1497.412109 0.015625)"/>
     <use xlink:href="#DejaVuSans-48" transform="translate(1555.322266 0.015625)"/>
     <use xlink:href="#DejaVuSans-7a" transform="translate(1630.517578 0.015625)"/>
    </g>
    <!-- actual detuning: 122.95$\pm$0.46 kHz -->
    <g transform="translate(419.179125 121.19935) scale(0.1 -0.1)">
     <use xlink:href="#DejaVuSans-61" transform="translate(0 0.015625)"/>
     <use xlink:href="#DejaVuSans-63" transform="translate(61.279297 0.015625)"/>
     <use xlink:href="#DejaVuSans-74" transform="translate(116.259766 0.015625)"/>
     <use xlink:href="#DejaVuSans-75" transform="translate(155.46875 0.015625)"/>
     <use xlink:href="#DejaVuSans-61" transform="translate(218.847656 0.015625)"/>
     <use xlink:href="#DejaVuSans-6c" transform="translate(280.126953 0.015625)"/>
     <use xlink:href="#DejaVuSans-20" transform="translate(307.910156 0.015625)"/>
     <use xlink:href="#DejaVuSans-64" transform="translate(339.697266 0.015625)"/>
     <use xlink:href="#DejaVuSans-65" transform="translate(403.173828 0.015625)"/>
     <use xlink:href="#DejaVuSans-74" transform="translate(464.697266 0.015625)"/>
     <use xlink:href="#DejaVuSans-75" transform="translate(503.90625 0.015625)"/>
     <use xlink:href="#DejaVuSans-6e" transform="translate(567.285156 0.015625)"/>
     <use xlink:href="#DejaVuSans-69" transform="translate(630.664062 0.015625)"/>
     <use xlink:href="#DejaVuSans-6e" transform="translate(658.447266 0.015625)"/>
     <use xlink:href="#DejaVuSans-67" transform="translate(721.826172 0.015625)"/>
     <use xlink:href="#DejaVuSans-3a" transform="translate(785.302734 0.015625)"/>
     <use xlink:href="#DejaVuSans-20" transform="translate(818.994141 0.015625)"/>
     <use xlink:href="#DejaVuSans-31" transform="translate(850.78125 0.015625)"/>
     <use xlink:href="#DejaVuSans-32" transform="translate(914.404297 0.015625)"/>
     <use xlink:href="#DejaVuSans-32" transform="translate(978.027344 0.015625)"/>
     <use xlink:href="#DejaVuSans-2e" transform="translate(1041.650391 0.015625)"/>
     <use xlink:href="#DejaVuSans-39" transform="translate(1073.4375 0.015625)"/>
     <use xlink:href="#DejaVuSans-35" transform="translate(1137.060547 0.015625)"/>
     <use xlink:href="#DejaVuSans-b1" transform="translate(1200.683594 0.015625)"/>
     <use xlink:href="#DejaVuSans-30" transform="translate(1284.472656 0.015625)"/>
     <use xlink:href="#DejaVuSans-2e" transform="translate(1348.095703 0.015625)"/>
     <use xlink:href="#DejaVuSans-34" transform="translate(1379.882812 0.015625)"/>
     <use xlink:href="#DejaVuSans-36" transform="translate(1443.505859 0.015625)"/>
     <use xlink:href="#DejaVuSans-20" transform="translate(1507.128906 0.015625)"/>
     <use xlink:href="#DejaVuSans-6b" transform="translate(1538.916016 0.015625)"/>
     <use xlink:href="#DejaVuSans-48" transform="translate(1596.826172 0.015625)"/>
     <use xlink:href="#DejaVuSans-7a" transform="translate(1672.021484 0.015625)"/>
    </g>
    <!--  -->
    <g transform="translate(419.179125 132.417475) scale(0.1 -0.1)"/>
    <!-- initial qubit frequency: 5.2123 GHz -->
    <g transform="translate(419.179125 143.615288) scale(0.1 -0.1)">
     <defs>
      <path id="DejaVuSans-71" d="M 947 1747 
Q 947 1113 1208 752 
Q 1469 391 1925 391 
Q 2381 391 2643 752 
Q 2906 1113 2906 1747 
Q 2906 2381 2643 2742 
Q 2381 3103 1925 3103 
Q 1469 3103 1208 2742 
Q 947 2381 947 1747 
z
M 2906 525 
Q 2725 213 2448 61 
Q 2172 -91 1784 -91 
Q 1150 -91 751 415 
Q 353 922 353 1747 
Q 353 2572 751 3078 
Q 1150 3584 1784 3584 
Q 2172 3584 2448 3432 
Q 2725 3281 2906 2969 
L 2906 3500 
L 3481 3500 
L 3481 -1331 
L 2906 -1331 
L 2906 525 
z
" transform="scale(0.015625)"/>
      <path id="DejaVuSans-62" d="M 3116 1747 
Q 3116 2381 2855 2742 
Q 2594 3103 2138 3103 
Q 1681 3103 1420 2742 
Q 1159 2381 1159 1747 
Q 1159 1113 1420 752 
Q 1681 391 2138 391 
Q 2594 391 2855 752 
Q 3116 1113 3116 1747 
z
M 1159 2969 
Q 1341 3281 1617 3432 
Q 1894 3584 2278 3584 
Q 2916 3584 3314 3078 
Q 3713 2572 3713 1747 
Q 3713 922 3314 415 
Q 2916 -91 2278 -91 
Q 1894 -91 1617 61 
Q 1341 213 1159 525 
L 1159 0 
L 581 0 
L 581 4863 
L 1159 4863 
L 1159 2969 
z
" transform="scale(0.015625)"/>
      <path id="DejaVuSans-33" d="M 2597 2516 
Q 3050 2419 3304 2112 
Q 3559 1806 3559 1356 
Q 3559 666 3084 287 
Q 2609 -91 1734 -91 
Q 1441 -91 1130 -33 
Q 819 25 488 141 
L 488 750 
Q 750 597 1062 519 
Q 1375 441 1716 441 
Q 2309 441 2620 675 
Q 2931 909 2931 1356 
Q 2931 1769 2642 2001 
Q 2353 2234 1838 2234 
L 1294 2234 
L 1294 2753 
L 1863 2753 
Q 2328 2753 2575 2939 
Q 2822 3125 2822 3475 
Q 2822 3834 2567 4026 
Q 2313 4219 1838 4219 
Q 1578 4219 1281 4162 
Q 984 4106 628 3988 
L 628 4550 
Q 988 4650 1302 4700 
Q 1616 4750 1894 4750 
Q 2613 4750 3031 4423 
Q 3450 4097 3450 3541 
Q 3450 3153 3228 2886 
Q 3006 2619 2597 2516 
z
" transform="scale(0.015625)"/>
      <path id="DejaVuSans-47" d="M 3809 666 
L 3809 1919 
L 2778 1919 
L 2778 2438 
L 4434 2438 
L 4434 434 
Q 4069 175 3628 42 
Q 3188 -91 2688 -91 
Q 1594 -91 976 548 
Q 359 1188 359 2328 
Q 359 3472 976 4111 
Q 1594 4750 2688 4750 
Q 3144 4750 3555 4637 
Q 3966 4525 4313 4306 
L 4313 3634 
Q 3963 3931 3569 4081 
Q 3175 4231 2741 4231 
Q 1884 4231 1454 3753 
Q 1025 3275 1025 2328 
Q 1025 1384 1454 906 
Q 1884 428 2741 428 
Q 3075 428 3337 486 
Q 3600 544 3809 666 
z
" transform="scale(0.015625)"/>
     </defs>
     <use xlink:href="#DejaVuSans-69"/>
     <use xlink:href="#DejaVuSans-6e" x="27.783203"/>
     <use xlink:href="#DejaVuSans-69" x="91.162109"/>
     <use xlink:href="#DejaVuSans-74" x="118.945312"/>
     <use xlink:href="#DejaVuSans-69" x="158.154297"/>
     <use xlink:href="#DejaVuSans-61" x="185.9375"/>
     <use xlink:href="#DejaVuSans-6c" x="247.216797"/>
     <use xlink:href="#DejaVuSans-20" x="275"/>
     <use xlink:href="#DejaVuSans-71" x="306.787109"/>
     <use xlink:href="#DejaVuSans-75" x="370.263672"/>
     <use xlink:href="#DejaVuSans-62" x="433.642578"/>
     <use xlink:href="#DejaVuSans-69" x="497.119141"/>
     <use xlink:href="#DejaVuSans-74" x="524.902344"/>
     <use xlink:href="#DejaVuSans-20" x="564.111328"/>
     <use xlink:href="#DejaVuSans-66" x="595.898438"/>
     <use xlink:href="#DejaVuSans-72" x="631.103516"/>
     <use xlink:href="#DejaVuSans-65" x="669.966797"/>
     <use xlink:href="#DejaVuSans-71" x="731.490234"/>
     <use xlink:href="#DejaVuSans-75" x="794.966797"/>
     <use xlink:href="#DejaVuSans-65" x="858.345703"/>
     <use xlink:href="#DejaVuSans-6e" x="919.869141"/>
     <use xlink:href="#DejaVuSans-63" x="983.248047"/>
     <use xlink:href="#DejaVuSans-79" x="1038.228516"/>
     <use xlink:href="#DejaVuSans-3a" x="1090.158203"/>
     <use xlink:href="#DejaVuSans-20" x="1123.849609"/>
     <use xlink:href="#DejaVuSans-35" x="1155.636719"/>
     <use xlink:href="#DejaVuSans-2e" x="1219.259766"/>
     <use xlink:href="#DejaVuSans-32" x="1251.046875"/>
     <use xlink:href="#DejaVuSans-31" x="1314.669922"/>
     <use xlink:href="#DejaVuSans-32" x="1378.292969"/>
     <use xlink:href="#DejaVuSans-33" x="1441.916016"/>
     <use xlink:href="#DejaVuSans-20" x="1505.539062"/>
     <use xlink:href="#DejaVuSans-47" x="1537.326172"/>
     <use xlink:href="#DejaVuSans-48" x="1614.816406"/>
     <use xlink:href="#DejaVuSans-7a" x="1690.011719"/>
    </g>
    <!-- fitted qubit frequency: 5.21220429$\pm$4.6e-07 GHz -->
    <g transform="translate(419.179125 154.814975) scale(0.1 -0.1)">
     <defs>
      <path id="DejaVuSans-2d" d="M 313 2009 
L 1997 2009 
L 1997 1497 
L 313 1497 
L 313 2009 
z
" transform="scale(0.015625)"/>
      <path id="DejaVuSans-37" d="M 525 4666 
L 3525 4666 
L 3525 4397 
L 1831 0 
L 1172 0 
L 2766 4134 
L 525 4134 
L 525 4666 
z
" transform="scale(0.015625)"/>
     </defs>
     <use xlink:href="#DejaVuSans-66" transform="translate(0 0.015625)"/>
     <use xlink:href="#DejaVuSans-69" transform="translate(35.205078 0.015625)"/>
     <use xlink:href="#DejaVuSans-74" transform="translate(62.988281 0.015625)"/>
     <use xlink:href="#DejaVuSans-74" transform="translate(102.197266 0.015625)"/>
     <use xlink:href="#DejaVuSans-65" transform="translate(141.40625 0.015625)"/>
     <use xlink:href="#DejaVuSans-64" transform="translate(202.929688 0.015625)"/>
     <use xlink:href="#DejaVuSans-20" transform="translate(266.40625 0.015625)"/>
     <use xlink:href="#DejaVuSans-71" transform="translate(298.193359 0.015625)"/>
     <use xlink:href="#DejaVuSans-75" transform="translate(361.669922 0.015625)"/>
     <use xlink:href="#DejaVuSans-62" transform="translate(425.048828 0.015625)"/>
     <use xlink:href="#DejaVuSans-69" transform="translate(488.525391 0.015625)"/>
     <use xlink:href="#DejaVuSans-74" transform="translate(516.308594 0.015625)"/>
     <use xlink:href="#DejaVuSans-20" transform="translate(555.517578 0.015625)"/>
     <use xlink:href="#DejaVuSans-66" transform="translate(587.304688 0.015625)"/>
     <use xlink:href="#DejaVuSans-72" transform="translate(622.509766 0.015625)"/>
     <use xlink:href="#DejaVuSans-65" transform="translate(663.623047 0.015625)"/>
     <use xlink:href="#DejaVuSans-71" transform="translate(725.146484 0.015625)"/>
     <use xlink:href="#DejaVuSans-75" transform="translate(788.623047 0.015625)"/>
     <use xlink:href="#DejaVuSans-65" transform="translate(852.001953 0.015625)"/>
     <use xlink:href="#DejaVuSans-6e" transform="translate(913.525391 0.015625)"/>
     <use xlink:href="#DejaVuSans-63" transform="translate(976.904297 0.015625)"/>
     <use xlink:href="#DejaVuSans-79" transform="translate(1031.884766 0.015625)"/>
     <use xlink:href="#DejaVuSans-3a" transform="translate(1091.064453 0.015625)"/>
     <use xlink:href="#DejaVuSans-20" transform="translate(1124.755859 0.015625)"/>
     <use xlink:href="#DejaVuSans-35" transform="translate(1156.542969 0.015625)"/>
     <use xlink:href="#DejaVuSans-2e" transform="translate(1220.166016 0.015625)"/>
     <use xlink:href="#DejaVuSans-32" transform="translate(1246.453125 0.015625)"/>
     <use xlink:href="#DejaVuSans-31" transform="translate(1310.076172 0.015625)"/>
     <use xlink:href="#DejaVuSans-32" transform="translate(1373.699219 0.015625)"/>
     <use xlink:href="#DejaVuSans-32" transform="translate(1437.322266 0.015625)"/>
     <use xlink:href="#DejaVuSans-30" transform="translate(1500.945312 0.015625)"/>
     <use xlink:href="#DejaVuSans-34" transform="translate(1564.568359 0.015625)"/>
     <use xlink:href="#DejaVuSans-32" transform="translate(1628.191406 0.015625)"/>
     <use xlink:href="#DejaVuSans-39" transform="translate(1690.064453 0.015625)"/>
     <use xlink:href="#DejaVuSans-b1" transform="translate(1753.6875 0.015625)"/>
     <use xlink:href="#DejaVuSans-34" transform="translate(1837.476562 0.015625)"/>
     <use xlink:href="#DejaVuSans-2e" transform="translate(1901.099609 0.015625)"/>
     <use xlink:href="#DejaVuSans-36" transform="translate(1932.886719 0.015625)"/>
     <use xlink:href="#DejaVuSans-65" transform="translate(1996.509766 0.015625)"/>
     <use xlink:href="#DejaVuSans-2d" transform="translate(2058.033203 0.015625)"/>
     <use xlink:href="#DejaVuSans-30" transform="translate(2094.117188 0.015625)"/>
     <use xlink:href="#DejaVuSans-37" transform="translate(2157.740234 0.015625)"/>
     <use xlink:href="#DejaVuSans-20" transform="translate(2221.363281 0.015625)"/>
     <use xlink:href="#DejaVuSans-47" transform="translate(2253.150391 0.015625)"/>
     <use xlink:href="#DejaVuSans-48" transform="translate(2330.640625 0.015625)"/>
     <use xlink:href="#DejaVuSans-7a" transform="translate(2405.835938 0.015625)"/>
    </g>
   </g>
  </g>
  <g id="text_18">
   <!--  Ramsey oscillation q00 at 5.2123 GHz -->
   <g transform="translate(100.59375 16.318125) scale(0.12 -0.12)">
    <defs>
     <path id="DejaVuSans-52" d="M 2841 2188 
Q 3044 2119 3236 1894 
Q 3428 1669 3622 1275 
L 4263 0 
L 3584 0 
L 2988 1197 
Q 2756 1666 2539 1819 
Q 2322 1972 1947 1972 
L 1259 1972 
L 1259 0 
L 628 0 
L 628 4666 
L 2053 4666 
Q 2853 4666 3247 4331 
Q 3641 3997 3641 3322 
Q 3641 2881 3436 2590 
Q 3231 2300 2841 2188 
z
M 1259 4147 
L 1259 2491 
L 2053 2491 
Q 2509 2491 2742 2702 
Q 2975 2913 2975 3322 
Q 2975 3731 2742 3939 
Q 2509 4147 2053 4147 
L 1259 4147 
z
" transform="scale(0.015625)"/>
    </defs>
    <use xlink:href="#DejaVuSans-20"/>
    <use xlink:href="#DejaVuSans-52" x="31.787109"/>
    <use xlink:href="#DejaVuSans-61" x="99.019531"/>
    <use xlink:href="#DejaVuSans-6d" x="160.298828"/>
    <use xlink:href="#DejaVuSans-73" x="257.710938"/>
    <use xlink:href="#DejaVuSans-65" x="309.810547"/>
    <use xlink:href="#DejaVuSans-79" x="371.333984"/>
    <use xlink:href="#DejaVuSans-20" x="430.513672"/>
    <use xlink:href="#DejaVuSans-6f" x="462.300781"/>
    <use xlink:href="#DejaVuSans-73" x="523.482422"/>
    <use xlink:href="#DejaVuSans-63" x="575.582031"/>
    <use xlink:href="#DejaVuSans-69" x="630.5625"/>
    <use xlink:href="#DejaVuSans-6c" x="658.345703"/>
    <use xlink:href="#DejaVuSans-6c" x="686.128906"/>
    <use xlink:href="#DejaVuSans-61" x="713.912109"/>
    <use xlink:href="#DejaVuSans-74" x="775.191406"/>
    <use xlink:href="#DejaVuSans-69" x="814.400391"/>
    <use xlink:href="#DejaVuSans-6f" x="842.183594"/>
    <use xlink:href="#DejaVuSans-6e" x="903.365234"/>
    <use xlink:href="#DejaVuSans-20" x="966.744141"/>
    <use xlink:href="#DejaVuSans-71" x="998.53125"/>
    <use xlink:href="#DejaVuSans-30" x="1062.007812"/>
    <use xlink:href="#DejaVuSans-30" x="1125.630859"/>
    <use xlink:href="#DejaVuSans-20" x="1189.253906"/>
    <use xlink:href="#DejaVuSans-61" x="1221.041016"/>
    <use xlink:href="#DejaVuSans-74" x="1282.320312"/>
    <use xlink:href="#DejaVuSans-20" x="1321.529297"/>
    <use xlink:href="#DejaVuSans-35" x="1353.316406"/>
    <use xlink:href="#DejaVuSans-2e" x="1416.939453"/>
    <use xlink:href="#DejaVuSans-32" x="1448.726562"/>
    <use xlink:href="#DejaVuSans-31" x="1512.349609"/>
    <use xlink:href="#DejaVuSans-32" x="1575.972656"/>
    <use xlink:href="#DejaVuSans-33" x="1639.595703"/>
    <use xlink:href="#DejaVuSans-20" x="1703.21875"/>
    <use xlink:href="#DejaVuSans-47" x="1735.005859"/>
    <use xlink:href="#DejaVuSans-48" x="1812.496094"/>
    <use xlink:href="#DejaVuSans-7a" x="1887.691406"/>
   </g>
   <!-- tuid: 20241114-122320-903-2ceb32 -->
   <g transform="translate(107.800313 29.7555) scale(0.12 -0.12)">
    <use xlink:href="#DejaVuSans-74"/>
    <use xlink:href="#DejaVuSans-75" x="39.208984"/>
    <use xlink:href="#DejaVuSans-69" x="102.587891"/>
    <use xlink:href="#DejaVuSans-64" x="130.371094"/>
    <use xlink:href="#DejaVuSans-3a" x="193.847656"/>
    <use xlink:href="#DejaVuSans-20" x="227.539062"/>
    <use xlink:href="#DejaVuSans-32" x="259.326172"/>
    <use xlink:href="#DejaVuSans-30" x="322.949219"/>
    <use xlink:href="#DejaVuSans-32" x="386.572266"/>
    <use xlink:href="#DejaVuSans-34" x="450.195312"/>
    <use xlink:href="#DejaVuSans-31" x="513.818359"/>
    <use xlink:href="#DejaVuSans-31" x="577.441406"/>
    <use xlink:href="#DejaVuSans-31" x="641.064453"/>
    <use xlink:href="#DejaVuSans-34" x="704.6875"/>
    <use xlink:href="#DejaVuSans-2d" x="768.310547"/>
    <use xlink:href="#DejaVuSans-31" x="804.394531"/>
    <use xlink:href="#DejaVuSans-32" x="868.017578"/>
    <use xlink:href="#DejaVuSans-32" x="931.640625"/>
    <use xlink:href="#DejaVuSans-33" x="995.263672"/>
    <use xlink:href="#DejaVuSans-32" x="1058.886719"/>
    <use xlink:href="#DejaVuSans-30" x="1122.509766"/>
    <use xlink:href="#DejaVuSans-2d" x="1186.132812"/>
    <use xlink:href="#DejaVuSans-39" x="1222.216797"/>
    <use xlink:href="#DejaVuSans-30" x="1285.839844"/>
    <use xlink:href="#DejaVuSans-33" x="1349.462891"/>
    <use xlink:href="#DejaVuSans-2d" x="1413.085938"/>
    <use xlink:href="#DejaVuSans-32" x="1449.169922"/>
    <use xlink:href="#DejaVuSans-63" x="1512.792969"/>
    <use xlink:href="#DejaVuSans-65" x="1567.773438"/>
    <use xlink:href="#DejaVuSans-62" x="1629.296875"/>
    <use xlink:href="#DejaVuSans-33" x="1692.773438"/>
    <use xlink:href="#DejaVuSans-32" x="1756.396484"/>
   </g>
  </g>
 </g>
 <defs>
  <clipPath id="p5e98f41f61">
   <rect x="44.203125" y="41.76" width="357.12" height="266.112"/>
  </clipPath>
 </defs>
</svg>
