<?xml version="1.0" encoding="utf-8" standalone="no"?>
<!DOCTYPE svg PUBLIC "-//W3C//DTD SVG 1.1//EN"
  "http://www.w3.org/Graphics/SVG/1.1/DTD/svg11.dtd">
<svg xmlns:xlink="http://www.w3.org/1999/xlink" width="411.285625pt" height="345.42825pt" viewBox="0 0 411.285625 345.42825" xmlns="http://www.w3.org/2000/svg" version="1.1">
 <metadata>
  <rdf:RDF xmlns:dc="http://purl.org/dc/elements/1.1/" xmlns:cc="http://creativecommons.org/ns#" xmlns:rdf="http://www.w3.org/1999/02/22-rdf-syntax-ns#">
   <cc:Work>
    <dc:type rdf:resource="http://purl.org/dc/dcmitype/StillImage"/>
    <dc:date>2024-11-14T11:24:00.545116</dc:date>
    <dc:format>image/svg+xml</dc:format>
    <dc:creator>
     <cc:Agent>
      <dc:title>Matplotlib v3.8.0, https://matplotlib.org/</dc:title>
     </cc:Agent>
    </dc:creator>
   </cc:Work>
  </rdf:RDF>
 </metadata>
 <defs>
  <style type="text/css">*{stroke-linejoin: round; stroke-linecap: butt}</style>
 </defs>
 <g id="figure_1">
  <g id="patch_1">
   <path d="M 0 345.42825 
L 411.285625 345.42825 
L 411.285625 -0 
L 0 -0 
L 0 345.42825 
z
" style="fill: none; opacity: 0"/>
  </g>
  <g id="axes_1">
   <g id="patch_2">
    <path d="M 46.965625 307.872 
L 404.085625 307.872 
L 404.085625 41.76 
L 46.965625 41.76 
z
" style="fill: #ffffff"/>
   </g>
   <g id="matplotlib.axis_1">
    <g id="xtick_1">
     <g id="line2d_1">
      <defs>
       <path id="m26a3f16d3d" d="M 0 0 
L 0 3.5 
" style="stroke: #000000; stroke-width: 0.8"/>
      </defs>
      <g>
       <use xlink:href="#m26a3f16d3d" x="49.885075" y="307.872" style="stroke: #000000; stroke-width: 0.8"/>
      </g>
     </g>
     <g id="text_1">
      <!-- 208 -->
      <g transform="translate(40.341325 322.470438) scale(0.1 -0.1)">
       <defs>
        <path id="DejaVuSans-32" d="M 1228 531 
L 3431 531 
L 3431 0 
L 469 0 
L 469 531 
Q 828 903 1448 1529 
Q 2069 2156 2228 2338 
Q 2531 2678 2651 2914 
Q 2772 3150 2772 3378 
Q 2772 3750 2511 3984 
Q 2250 4219 1831 4219 
Q 1534 4219 1204 4116 
Q 875 4013 500 3803 
L 500 4441 
Q 881 4594 1212 4672 
Q 1544 4750 1819 4750 
Q 2544 4750 2975 4387 
Q 3406 4025 3406 3419 
Q 3406 3131 3298 2873 
Q 3191 2616 2906 2266 
Q 2828 2175 2409 1742 
Q 1991 1309 1228 531 
z
" transform="scale(0.015625)"/>
        <path id="DejaVuSans-30" d="M 2034 4250 
Q 1547 4250 1301 3770 
Q 1056 3291 1056 2328 
Q 1056 1369 1301 889 
Q 1547 409 2034 409 
Q 2525 409 2770 889 
Q 3016 1369 3016 2328 
Q 3016 3291 2770 3770 
Q 2525 4250 2034 4250 
z
M 2034 4750 
Q 2819 4750 3233 4129 
Q 3647 3509 3647 2328 
Q 3647 1150 3233 529 
Q 2819 -91 2034 -91 
Q 1250 -91 836 529 
Q 422 1150 422 2328 
Q 422 3509 836 4129 
Q 1250 4750 2034 4750 
z
" transform="scale(0.015625)"/>
        <path id="DejaVuSans-38" d="M 2034 2216 
Q 1584 2216 1326 1975 
Q 1069 1734 1069 1313 
Q 1069 891 1326 650 
Q 1584 409 2034 409 
Q 2484 409 2743 651 
Q 3003 894 3003 1313 
Q 3003 1734 2745 1975 
Q 2488 2216 2034 2216 
z
M 1403 2484 
Q 997 2584 770 2862 
Q 544 3141 544 3541 
Q 544 4100 942 4425 
Q 1341 4750 2034 4750 
Q 2731 4750 3128 4425 
Q 3525 4100 3525 3541 
Q 3525 3141 3298 2862 
Q 3072 2584 2669 2484 
Q 3125 2378 3379 2068 
Q 3634 1759 3634 1313 
Q 3634 634 3220 271 
Q 2806 -91 2034 -91 
Q 1263 -91 848 271 
Q 434 634 434 1313 
Q 434 1759 690 2068 
Q 947 2378 1403 2484 
z
M 1172 3481 
Q 1172 3119 1398 2916 
Q 1625 2713 2034 2713 
Q 2441 2713 2670 2916 
Q 2900 3119 2900 3481 
Q 2900 3844 2670 4047 
Q 2441 4250 2034 4250 
Q 1625 4250 1398 4047 
Q 1172 3844 1172 3481 
z
" transform="scale(0.015625)"/>
       </defs>
       <use xlink:href="#DejaVuSans-32"/>
       <use xlink:href="#DejaVuSans-30" x="63.623047"/>
       <use xlink:href="#DejaVuSans-38" x="127.246094"/>
      </g>
     </g>
    </g>
    <g id="xtick_2">
     <g id="line2d_2">
      <g>
       <use xlink:href="#m26a3f16d3d" x="90.568602" y="307.872" style="stroke: #000000; stroke-width: 0.8"/>
      </g>
     </g>
     <g id="text_2">
      <!-- 209 -->
      <g transform="translate(81.024852 322.470438) scale(0.1 -0.1)">
       <defs>
        <path id="DejaVuSans-39" d="M 703 97 
L 703 672 
Q 941 559 1184 500 
Q 1428 441 1663 441 
Q 2288 441 2617 861 
Q 2947 1281 2994 2138 
Q 2813 1869 2534 1725 
Q 2256 1581 1919 1581 
Q 1219 1581 811 2004 
Q 403 2428 403 3163 
Q 403 3881 828 4315 
Q 1253 4750 1959 4750 
Q 2769 4750 3195 4129 
Q 3622 3509 3622 2328 
Q 3622 1225 3098 567 
Q 2575 -91 1691 -91 
Q 1453 -91 1209 -44 
Q 966 3 703 97 
z
M 1959 2075 
Q 2384 2075 2632 2365 
Q 2881 2656 2881 3163 
Q 2881 3666 2632 3958 
Q 2384 4250 1959 4250 
Q 1534 4250 1286 3958 
Q 1038 3666 1038 3163 
Q 1038 2656 1286 2365 
Q 1534 2075 1959 2075 
z
" transform="scale(0.015625)"/>
       </defs>
       <use xlink:href="#DejaVuSans-32"/>
       <use xlink:href="#DejaVuSans-30" x="63.623047"/>
       <use xlink:href="#DejaVuSans-39" x="127.246094"/>
      </g>
     </g>
    </g>
    <g id="xtick_3">
     <g id="line2d_3">
      <g>
       <use xlink:href="#m26a3f16d3d" x="131.252129" y="307.872" style="stroke: #000000; stroke-width: 0.8"/>
      </g>
     </g>
     <g id="text_3">
      <!-- 210 -->
      <g transform="translate(121.708379 322.470438) scale(0.1 -0.1)">
       <defs>
        <path id="DejaVuSans-31" d="M 794 531 
L 1825 531 
L 1825 4091 
L 703 3866 
L 703 4441 
L 1819 4666 
L 2450 4666 
L 2450 531 
L 3481 531 
L 3481 0 
L 794 0 
L 794 531 
z
" transform="scale(0.015625)"/>
       </defs>
       <use xlink:href="#DejaVuSans-32"/>
       <use xlink:href="#DejaVuSans-31" x="63.623047"/>
       <use xlink:href="#DejaVuSans-30" x="127.246094"/>
      </g>
     </g>
    </g>
    <g id="xtick_4">
     <g id="line2d_4">
      <g>
       <use xlink:href="#m26a3f16d3d" x="171.935656" y="307.872" style="stroke: #000000; stroke-width: 0.8"/>
      </g>
     </g>
     <g id="text_4">
      <!-- 211 -->
      <g transform="translate(162.391906 322.470438) scale(0.1 -0.1)">
       <use xlink:href="#DejaVuSans-32"/>
       <use xlink:href="#DejaVuSans-31" x="63.623047"/>
       <use xlink:href="#DejaVuSans-31" x="127.246094"/>
      </g>
     </g>
    </g>
    <g id="xtick_5">
     <g id="line2d_5">
      <g>
       <use xlink:href="#m26a3f16d3d" x="212.619183" y="307.872" style="stroke: #000000; stroke-width: 0.8"/>
      </g>
     </g>
     <g id="text_5">
      <!-- 212 -->
      <g transform="translate(203.075433 322.470438) scale(0.1 -0.1)">
       <use xlink:href="#DejaVuSans-32"/>
       <use xlink:href="#DejaVuSans-31" x="63.623047"/>
       <use xlink:href="#DejaVuSans-32" x="127.246094"/>
      </g>
     </g>
    </g>
    <g id="xtick_6">
     <g id="line2d_6">
      <g>
       <use xlink:href="#m26a3f16d3d" x="253.30271" y="307.872" style="stroke: #000000; stroke-width: 0.8"/>
      </g>
     </g>
     <g id="text_6">
      <!-- 213 -->
      <g transform="translate(243.75896 322.470438) scale(0.1 -0.1)">
       <defs>
        <path id="DejaVuSans-33" d="M 2597 2516 
Q 3050 2419 3304 2112 
Q 3559 1806 3559 1356 
Q 3559 666 3084 287 
Q 2609 -91 1734 -91 
Q 1441 -91 1130 -33 
Q 819 25 488 141 
L 488 750 
Q 750 597 1062 519 
Q 1375 441 1716 441 
Q 2309 441 2620 675 
Q 2931 909 2931 1356 
Q 2931 1769 2642 2001 
Q 2353 2234 1838 2234 
L 1294 2234 
L 1294 2753 
L 1863 2753 
Q 2328 2753 2575 2939 
Q 2822 3125 2822 3475 
Q 2822 3834 2567 4026 
Q 2313 4219 1838 4219 
Q 1578 4219 1281 4162 
Q 984 4106 628 3988 
L 628 4550 
Q 988 4650 1302 4700 
Q 1616 4750 1894 4750 
Q 2613 4750 3031 4423 
Q 3450 4097 3450 3541 
Q 3450 3153 3228 2886 
Q 3006 2619 2597 2516 
z
" transform="scale(0.015625)"/>
       </defs>
       <use xlink:href="#DejaVuSans-32"/>
       <use xlink:href="#DejaVuSans-31" x="63.623047"/>
       <use xlink:href="#DejaVuSans-33" x="127.246094"/>
      </g>
     </g>
    </g>
    <g id="xtick_7">
     <g id="line2d_7">
      <g>
       <use xlink:href="#m26a3f16d3d" x="293.986237" y="307.872" style="stroke: #000000; stroke-width: 0.8"/>
      </g>
     </g>
     <g id="text_7">
      <!-- 214 -->
      <g transform="translate(284.442487 322.470438) scale(0.1 -0.1)">
       <defs>
        <path id="DejaVuSans-34" d="M 2419 4116 
L 825 1625 
L 2419 1625 
L 2419 4116 
z
M 2253 4666 
L 3047 4666 
L 3047 1625 
L 3713 1625 
L 3713 1100 
L 3047 1100 
L 3047 0 
L 2419 0 
L 2419 1100 
L 313 1100 
L 313 1709 
L 2253 4666 
z
" transform="scale(0.015625)"/>
       </defs>
       <use xlink:href="#DejaVuSans-32"/>
       <use xlink:href="#DejaVuSans-31" x="63.623047"/>
       <use xlink:href="#DejaVuSans-34" x="127.246094"/>
      </g>
     </g>
    </g>
    <g id="xtick_8">
     <g id="line2d_8">
      <g>
       <use xlink:href="#m26a3f16d3d" x="334.669764" y="307.872" style="stroke: #000000; stroke-width: 0.8"/>
      </g>
     </g>
     <g id="text_8">
      <!-- 215 -->
      <g transform="translate(325.126014 322.470438) scale(0.1 -0.1)">
       <defs>
        <path id="DejaVuSans-35" d="M 691 4666 
L 3169 4666 
L 3169 4134 
L 1269 4134 
L 1269 2991 
Q 1406 3038 1543 3061 
Q 1681 3084 1819 3084 
Q 2600 3084 3056 2656 
Q 3513 2228 3513 1497 
Q 3513 744 3044 326 
Q 2575 -91 1722 -91 
Q 1428 -91 1123 -41 
Q 819 9 494 109 
L 494 744 
Q 775 591 1075 516 
Q 1375 441 1709 441 
Q 2250 441 2565 725 
Q 2881 1009 2881 1497 
Q 2881 1984 2565 2268 
Q 2250 2553 1709 2553 
Q 1456 2553 1204 2497 
Q 953 2441 691 2322 
L 691 4666 
z
" transform="scale(0.015625)"/>
       </defs>
       <use xlink:href="#DejaVuSans-32"/>
       <use xlink:href="#DejaVuSans-31" x="63.623047"/>
       <use xlink:href="#DejaVuSans-35" x="127.246094"/>
      </g>
     </g>
    </g>
    <g id="xtick_9">
     <g id="line2d_9">
      <g>
       <use xlink:href="#m26a3f16d3d" x="375.353291" y="307.872" style="stroke: #000000; stroke-width: 0.8"/>
      </g>
     </g>
     <g id="text_9">
      <!-- 216 -->
      <g transform="translate(365.809541 322.470438) scale(0.1 -0.1)">
       <defs>
        <path id="DejaVuSans-36" d="M 2113 2584 
Q 1688 2584 1439 2293 
Q 1191 2003 1191 1497 
Q 1191 994 1439 701 
Q 1688 409 2113 409 
Q 2538 409 2786 701 
Q 3034 994 3034 1497 
Q 3034 2003 2786 2293 
Q 2538 2584 2113 2584 
z
M 3366 4563 
L 3366 3988 
Q 3128 4100 2886 4159 
Q 2644 4219 2406 4219 
Q 1781 4219 1451 3797 
Q 1122 3375 1075 2522 
Q 1259 2794 1537 2939 
Q 1816 3084 2150 3084 
Q 2853 3084 3261 2657 
Q 3669 2231 3669 1497 
Q 3669 778 3244 343 
Q 2819 -91 2113 -91 
Q 1303 -91 875 529 
Q 447 1150 447 2328 
Q 447 3434 972 4092 
Q 1497 4750 2381 4750 
Q 2619 4750 2861 4703 
Q 3103 4656 3366 4563 
z
" transform="scale(0.015625)"/>
       </defs>
       <use xlink:href="#DejaVuSans-32"/>
       <use xlink:href="#DejaVuSans-31" x="63.623047"/>
       <use xlink:href="#DejaVuSans-36" x="127.246094"/>
      </g>
     </g>
    </g>
    <g id="text_10">
     <!-- Spec frequency [MHz] -->
     <g transform="translate(170.496719 336.148562) scale(0.1 -0.1)">
      <defs>
       <path id="DejaVuSans-53" d="M 3425 4513 
L 3425 3897 
Q 3066 4069 2747 4153 
Q 2428 4238 2131 4238 
Q 1616 4238 1336 4038 
Q 1056 3838 1056 3469 
Q 1056 3159 1242 3001 
Q 1428 2844 1947 2747 
L 2328 2669 
Q 3034 2534 3370 2195 
Q 3706 1856 3706 1288 
Q 3706 609 3251 259 
Q 2797 -91 1919 -91 
Q 1588 -91 1214 -16 
Q 841 59 441 206 
L 441 856 
Q 825 641 1194 531 
Q 1563 422 1919 422 
Q 2459 422 2753 634 
Q 3047 847 3047 1241 
Q 3047 1584 2836 1778 
Q 2625 1972 2144 2069 
L 1759 2144 
Q 1053 2284 737 2584 
Q 422 2884 422 3419 
Q 422 4038 858 4394 
Q 1294 4750 2059 4750 
Q 2388 4750 2728 4690 
Q 3069 4631 3425 4513 
z
" transform="scale(0.015625)"/>
       <path id="DejaVuSans-70" d="M 1159 525 
L 1159 -1331 
L 581 -1331 
L 581 3500 
L 1159 3500 
L 1159 2969 
Q 1341 3281 1617 3432 
Q 1894 3584 2278 3584 
Q 2916 3584 3314 3078 
Q 3713 2572 3713 1747 
Q 3713 922 3314 415 
Q 2916 -91 2278 -91 
Q 1894 -91 1617 61 
Q 1341 213 1159 525 
z
M 3116 1747 
Q 3116 2381 2855 2742 
Q 2594 3103 2138 3103 
Q 1681 3103 1420 2742 
Q 1159 2381 1159 1747 
Q 1159 1113 1420 752 
Q 1681 391 2138 391 
Q 2594 391 2855 752 
Q 3116 1113 3116 1747 
z
" transform="scale(0.015625)"/>
       <path id="DejaVuSans-65" d="M 3597 1894 
L 3597 1613 
L 953 1613 
Q 991 1019 1311 708 
Q 1631 397 2203 397 
Q 2534 397 2845 478 
Q 3156 559 3463 722 
L 3463 178 
Q 3153 47 2828 -22 
Q 2503 -91 2169 -91 
Q 1331 -91 842 396 
Q 353 884 353 1716 
Q 353 2575 817 3079 
Q 1281 3584 2069 3584 
Q 2775 3584 3186 3129 
Q 3597 2675 3597 1894 
z
M 3022 2063 
Q 3016 2534 2758 2815 
Q 2500 3097 2075 3097 
Q 1594 3097 1305 2825 
Q 1016 2553 972 2059 
L 3022 2063 
z
" transform="scale(0.015625)"/>
       <path id="DejaVuSans-63" d="M 3122 3366 
L 3122 2828 
Q 2878 2963 2633 3030 
Q 2388 3097 2138 3097 
Q 1578 3097 1268 2742 
Q 959 2388 959 1747 
Q 959 1106 1268 751 
Q 1578 397 2138 397 
Q 2388 397 2633 464 
Q 2878 531 3122 666 
L 3122 134 
Q 2881 22 2623 -34 
Q 2366 -91 2075 -91 
Q 1284 -91 818 406 
Q 353 903 353 1747 
Q 353 2603 823 3093 
Q 1294 3584 2113 3584 
Q 2378 3584 2631 3529 
Q 2884 3475 3122 3366 
z
" transform="scale(0.015625)"/>
       <path id="DejaVuSans-20" transform="scale(0.015625)"/>
       <path id="DejaVuSans-66" d="M 2375 4863 
L 2375 4384 
L 1825 4384 
Q 1516 4384 1395 4259 
Q 1275 4134 1275 3809 
L 1275 3500 
L 2222 3500 
L 2222 3053 
L 1275 3053 
L 1275 0 
L 697 0 
L 697 3053 
L 147 3053 
L 147 3500 
L 697 3500 
L 697 3744 
Q 697 4328 969 4595 
Q 1241 4863 1831 4863 
L 2375 4863 
z
" transform="scale(0.015625)"/>
       <path id="DejaVuSans-72" d="M 2631 2963 
Q 2534 3019 2420 3045 
Q 2306 3072 2169 3072 
Q 1681 3072 1420 2755 
Q 1159 2438 1159 1844 
L 1159 0 
L 581 0 
L 581 3500 
L 1159 3500 
L 1159 2956 
Q 1341 3275 1631 3429 
Q 1922 3584 2338 3584 
Q 2397 3584 2469 3576 
Q 2541 3569 2628 3553 
L 2631 2963 
z
" transform="scale(0.015625)"/>
       <path id="DejaVuSans-71" d="M 947 1747 
Q 947 1113 1208 752 
Q 1469 391 1925 391 
Q 2381 391 2643 752 
Q 2906 1113 2906 1747 
Q 2906 2381 2643 2742 
Q 2381 3103 1925 3103 
Q 1469 3103 1208 2742 
Q 947 2381 947 1747 
z
M 2906 525 
Q 2725 213 2448 61 
Q 2172 -91 1784 -91 
Q 1150 -91 751 415 
Q 353 922 353 1747 
Q 353 2572 751 3078 
Q 1150 3584 1784 3584 
Q 2172 3584 2448 3432 
Q 2725 3281 2906 2969 
L 2906 3500 
L 3481 3500 
L 3481 -1331 
L 2906 -1331 
L 2906 525 
z
" transform="scale(0.015625)"/>
       <path id="DejaVuSans-75" d="M 544 1381 
L 544 3500 
L 1119 3500 
L 1119 1403 
Q 1119 906 1312 657 
Q 1506 409 1894 409 
Q 2359 409 2629 706 
Q 2900 1003 2900 1516 
L 2900 3500 
L 3475 3500 
L 3475 0 
L 2900 0 
L 2900 538 
Q 2691 219 2414 64 
Q 2138 -91 1772 -91 
Q 1169 -91 856 284 
Q 544 659 544 1381 
z
M 1991 3584 
L 1991 3584 
z
" transform="scale(0.015625)"/>
       <path id="DejaVuSans-6e" d="M 3513 2113 
L 3513 0 
L 2938 0 
L 2938 2094 
Q 2938 2591 2744 2837 
Q 2550 3084 2163 3084 
Q 1697 3084 1428 2787 
Q 1159 2491 1159 1978 
L 1159 0 
L 581 0 
L 581 3500 
L 1159 3500 
L 1159 2956 
Q 1366 3272 1645 3428 
Q 1925 3584 2291 3584 
Q 2894 3584 3203 3211 
Q 3513 2838 3513 2113 
z
" transform="scale(0.015625)"/>
       <path id="DejaVuSans-79" d="M 2059 -325 
Q 1816 -950 1584 -1140 
Q 1353 -1331 966 -1331 
L 506 -1331 
L 506 -850 
L 844 -850 
Q 1081 -850 1212 -737 
Q 1344 -625 1503 -206 
L 1606 56 
L 191 3500 
L 800 3500 
L 1894 763 
L 2988 3500 
L 3597 3500 
L 2059 -325 
z
" transform="scale(0.015625)"/>
       <path id="DejaVuSans-5b" d="M 550 4863 
L 1875 4863 
L 1875 4416 
L 1125 4416 
L 1125 -397 
L 1875 -397 
L 1875 -844 
L 550 -844 
L 550 4863 
z
" transform="scale(0.015625)"/>
       <path id="DejaVuSans-4d" d="M 628 4666 
L 1569 4666 
L 2759 1491 
L 3956 4666 
L 4897 4666 
L 4897 0 
L 4281 0 
L 4281 4097 
L 3078 897 
L 2444 897 
L 1241 4097 
L 1241 0 
L 628 0 
L 628 4666 
z
" transform="scale(0.015625)"/>
       <path id="DejaVuSans-48" d="M 628 4666 
L 1259 4666 
L 1259 2753 
L 3553 2753 
L 3553 4666 
L 4184 4666 
L 4184 0 
L 3553 0 
L 3553 2222 
L 1259 2222 
L 1259 0 
L 628 0 
L 628 4666 
z
" transform="scale(0.015625)"/>
       <path id="DejaVuSans-7a" d="M 353 3500 
L 3084 3500 
L 3084 2975 
L 922 459 
L 3084 459 
L 3084 0 
L 275 0 
L 275 525 
L 2438 3041 
L 353 3041 
L 353 3500 
z
" transform="scale(0.015625)"/>
       <path id="DejaVuSans-5d" d="M 1947 4863 
L 1947 -844 
L 622 -844 
L 622 -397 
L 1369 -397 
L 1369 4416 
L 622 4416 
L 622 4863 
L 1947 4863 
z
" transform="scale(0.015625)"/>
      </defs>
      <use xlink:href="#DejaVuSans-53"/>
      <use xlink:href="#DejaVuSans-70" x="63.476562"/>
      <use xlink:href="#DejaVuSans-65" x="126.953125"/>
      <use xlink:href="#DejaVuSans-63" x="188.476562"/>
      <use xlink:href="#DejaVuSans-20" x="243.457031"/>
      <use xlink:href="#DejaVuSans-66" x="275.244141"/>
      <use xlink:href="#DejaVuSans-72" x="310.449219"/>
      <use xlink:href="#DejaVuSans-65" x="349.3125"/>
      <use xlink:href="#DejaVuSans-71" x="410.835938"/>
      <use xlink:href="#DejaVuSans-75" x="474.3125"/>
      <use xlink:href="#DejaVuSans-65" x="537.691406"/>
      <use xlink:href="#DejaVuSans-6e" x="599.214844"/>
      <use xlink:href="#DejaVuSans-63" x="662.59375"/>
      <use xlink:href="#DejaVuSans-79" x="717.574219"/>
      <use xlink:href="#DejaVuSans-20" x="776.753906"/>
      <use xlink:href="#DejaVuSans-5b" x="808.541016"/>
      <use xlink:href="#DejaVuSans-4d" x="847.554688"/>
      <use xlink:href="#DejaVuSans-48" x="933.833984"/>
      <use xlink:href="#DejaVuSans-7a" x="1009.029297"/>
      <use xlink:href="#DejaVuSans-5d" x="1061.519531"/>
     </g>
    </g>
    <g id="text_11">
     <!-- +5 GHz -->
     <g transform="translate(365.648125 335.148562) scale(0.1 -0.1)">
      <defs>
       <path id="DejaVuSans-2b" d="M 2944 4013 
L 2944 2272 
L 4684 2272 
L 4684 1741 
L 2944 1741 
L 2944 0 
L 2419 0 
L 2419 1741 
L 678 1741 
L 678 2272 
L 2419 2272 
L 2419 4013 
L 2944 4013 
z
" transform="scale(0.015625)"/>
       <path id="DejaVuSans-47" d="M 3809 666 
L 3809 1919 
L 2778 1919 
L 2778 2438 
L 4434 2438 
L 4434 434 
Q 4069 175 3628 42 
Q 3188 -91 2688 -91 
Q 1594 -91 976 548 
Q 359 1188 359 2328 
Q 359 3472 976 4111 
Q 1594 4750 2688 4750 
Q 3144 4750 3555 4637 
Q 3966 4525 4313 4306 
L 4313 3634 
Q 3963 3931 3569 4081 
Q 3175 4231 2741 4231 
Q 1884 4231 1454 3753 
Q 1025 3275 1025 2328 
Q 1025 1384 1454 906 
Q 1884 428 2741 428 
Q 3075 428 3337 486 
Q 3600 544 3809 666 
z
" transform="scale(0.015625)"/>
      </defs>
      <use xlink:href="#DejaVuSans-2b"/>
      <use xlink:href="#DejaVuSans-35" x="83.789062"/>
      <use xlink:href="#DejaVuSans-20" x="147.412109"/>
      <use xlink:href="#DejaVuSans-47" x="179.199219"/>
      <use xlink:href="#DejaVuSans-48" x="256.689453"/>
      <use xlink:href="#DejaVuSans-7a" x="331.884766"/>
     </g>
    </g>
   </g>
   <g id="matplotlib.axis_2">
    <g id="ytick_1">
     <g id="line2d_10">
      <defs>
       <path id="mf577018823" d="M 0 0 
L -3.5 0 
" style="stroke: #000000; stroke-width: 0.8"/>
      </defs>
      <g>
       <use xlink:href="#mf577018823" x="46.965625" y="280.617662" style="stroke: #000000; stroke-width: 0.8"/>
      </g>
     </g>
     <g id="text_12">
      <!-- 140 -->
      <g transform="translate(20.878125 284.416881) scale(0.1 -0.1)">
       <use xlink:href="#DejaVuSans-31"/>
       <use xlink:href="#DejaVuSans-34" x="63.623047"/>
       <use xlink:href="#DejaVuSans-30" x="127.246094"/>
      </g>
     </g>
    </g>
    <g id="ytick_2">
     <g id="line2d_11">
      <g>
       <use xlink:href="#mf577018823" x="46.965625" y="246.611635" style="stroke: #000000; stroke-width: 0.8"/>
      </g>
     </g>
     <g id="text_13">
      <!-- 142 -->
      <g transform="translate(20.878125 250.410854) scale(0.1 -0.1)">
       <use xlink:href="#DejaVuSans-31"/>
       <use xlink:href="#DejaVuSans-34" x="63.623047"/>
       <use xlink:href="#DejaVuSans-32" x="127.246094"/>
      </g>
     </g>
    </g>
    <g id="ytick_3">
     <g id="line2d_12">
      <g>
       <use xlink:href="#mf577018823" x="46.965625" y="212.605608" style="stroke: #000000; stroke-width: 0.8"/>
      </g>
     </g>
     <g id="text_14">
      <!-- 144 -->
      <g transform="translate(20.878125 216.404826) scale(0.1 -0.1)">
       <use xlink:href="#DejaVuSans-31"/>
       <use xlink:href="#DejaVuSans-34" x="63.623047"/>
       <use xlink:href="#DejaVuSans-34" x="127.246094"/>
      </g>
     </g>
    </g>
    <g id="ytick_4">
     <g id="line2d_13">
      <g>
       <use xlink:href="#mf577018823" x="46.965625" y="178.59958" style="stroke: #000000; stroke-width: 0.8"/>
      </g>
     </g>
     <g id="text_15">
      <!-- 146 -->
      <g transform="translate(20.878125 182.398799) scale(0.1 -0.1)">
       <use xlink:href="#DejaVuSans-31"/>
       <use xlink:href="#DejaVuSans-34" x="63.623047"/>
       <use xlink:href="#DejaVuSans-36" x="127.246094"/>
      </g>
     </g>
    </g>
    <g id="ytick_5">
     <g id="line2d_14">
      <g>
       <use xlink:href="#mf577018823" x="46.965625" y="144.593553" style="stroke: #000000; stroke-width: 0.8"/>
      </g>
     </g>
     <g id="text_16">
      <!-- 148 -->
      <g transform="translate(20.878125 148.392772) scale(0.1 -0.1)">
       <use xlink:href="#DejaVuSans-31"/>
       <use xlink:href="#DejaVuSans-34" x="63.623047"/>
       <use xlink:href="#DejaVuSans-38" x="127.246094"/>
      </g>
     </g>
    </g>
    <g id="ytick_6">
     <g id="line2d_15">
      <g>
       <use xlink:href="#mf577018823" x="46.965625" y="110.587526" style="stroke: #000000; stroke-width: 0.8"/>
      </g>
     </g>
     <g id="text_17">
      <!-- 150 -->
      <g transform="translate(20.878125 114.386744) scale(0.1 -0.1)">
       <use xlink:href="#DejaVuSans-31"/>
       <use xlink:href="#DejaVuSans-35" x="63.623047"/>
       <use xlink:href="#DejaVuSans-30" x="127.246094"/>
      </g>
     </g>
    </g>
    <g id="ytick_7">
     <g id="line2d_16">
      <g>
       <use xlink:href="#mf577018823" x="46.965625" y="76.581498" style="stroke: #000000; stroke-width: 0.8"/>
      </g>
     </g>
     <g id="text_18">
      <!-- 152 -->
      <g transform="translate(20.878125 80.380717) scale(0.1 -0.1)">
       <use xlink:href="#DejaVuSans-31"/>
       <use xlink:href="#DejaVuSans-35" x="63.623047"/>
       <use xlink:href="#DejaVuSans-32" x="127.246094"/>
      </g>
     </g>
    </g>
    <g id="ytick_8">
     <g id="line2d_17">
      <g>
       <use xlink:href="#mf577018823" x="46.965625" y="42.575471" style="stroke: #000000; stroke-width: 0.8"/>
      </g>
     </g>
     <g id="text_19">
      <!-- 154 -->
      <g transform="translate(20.878125 46.37469) scale(0.1 -0.1)">
       <use xlink:href="#DejaVuSans-31"/>
       <use xlink:href="#DejaVuSans-35" x="63.623047"/>
       <use xlink:href="#DejaVuSans-34" x="127.246094"/>
      </g>
     </g>
    </g>
    <g id="text_20">
     <!-- Phase0 [deg] -->
     <g transform="translate(14.798438 207.841781) rotate(-90) scale(0.1 -0.1)">
      <defs>
       <path id="DejaVuSans-50" d="M 1259 4147 
L 1259 2394 
L 2053 2394 
Q 2494 2394 2734 2622 
Q 2975 2850 2975 3272 
Q 2975 3691 2734 3919 
Q 2494 4147 2053 4147 
L 1259 4147 
z
M 628 4666 
L 2053 4666 
Q 2838 4666 3239 4311 
Q 3641 3956 3641 3272 
Q 3641 2581 3239 2228 
Q 2838 1875 2053 1875 
L 1259 1875 
L 1259 0 
L 628 0 
L 628 4666 
z
" transform="scale(0.015625)"/>
       <path id="DejaVuSans-68" d="M 3513 2113 
L 3513 0 
L 2938 0 
L 2938 2094 
Q 2938 2591 2744 2837 
Q 2550 3084 2163 3084 
Q 1697 3084 1428 2787 
Q 1159 2491 1159 1978 
L 1159 0 
L 581 0 
L 581 4863 
L 1159 4863 
L 1159 2956 
Q 1366 3272 1645 3428 
Q 1925 3584 2291 3584 
Q 2894 3584 3203 3211 
Q 3513 2838 3513 2113 
z
" transform="scale(0.015625)"/>
       <path id="DejaVuSans-61" d="M 2194 1759 
Q 1497 1759 1228 1600 
Q 959 1441 959 1056 
Q 959 750 1161 570 
Q 1363 391 1709 391 
Q 2188 391 2477 730 
Q 2766 1069 2766 1631 
L 2766 1759 
L 2194 1759 
z
M 3341 1997 
L 3341 0 
L 2766 0 
L 2766 531 
Q 2569 213 2275 61 
Q 1981 -91 1556 -91 
Q 1019 -91 701 211 
Q 384 513 384 1019 
Q 384 1609 779 1909 
Q 1175 2209 1959 2209 
L 2766 2209 
L 2766 2266 
Q 2766 2663 2505 2880 
Q 2244 3097 1772 3097 
Q 1472 3097 1187 3025 
Q 903 2953 641 2809 
L 641 3341 
Q 956 3463 1253 3523 
Q 1550 3584 1831 3584 
Q 2591 3584 2966 3190 
Q 3341 2797 3341 1997 
z
" transform="scale(0.015625)"/>
       <path id="DejaVuSans-73" d="M 2834 3397 
L 2834 2853 
Q 2591 2978 2328 3040 
Q 2066 3103 1784 3103 
Q 1356 3103 1142 2972 
Q 928 2841 928 2578 
Q 928 2378 1081 2264 
Q 1234 2150 1697 2047 
L 1894 2003 
Q 2506 1872 2764 1633 
Q 3022 1394 3022 966 
Q 3022 478 2636 193 
Q 2250 -91 1575 -91 
Q 1294 -91 989 -36 
Q 684 19 347 128 
L 347 722 
Q 666 556 975 473 
Q 1284 391 1588 391 
Q 1994 391 2212 530 
Q 2431 669 2431 922 
Q 2431 1156 2273 1281 
Q 2116 1406 1581 1522 
L 1381 1569 
Q 847 1681 609 1914 
Q 372 2147 372 2553 
Q 372 3047 722 3315 
Q 1072 3584 1716 3584 
Q 2034 3584 2315 3537 
Q 2597 3491 2834 3397 
z
" transform="scale(0.015625)"/>
       <path id="DejaVuSans-64" d="M 2906 2969 
L 2906 4863 
L 3481 4863 
L 3481 0 
L 2906 0 
L 2906 525 
Q 2725 213 2448 61 
Q 2172 -91 1784 -91 
Q 1150 -91 751 415 
Q 353 922 353 1747 
Q 353 2572 751 3078 
Q 1150 3584 1784 3584 
Q 2172 3584 2448 3432 
Q 2725 3281 2906 2969 
z
M 947 1747 
Q 947 1113 1208 752 
Q 1469 391 1925 391 
Q 2381 391 2643 752 
Q 2906 1113 2906 1747 
Q 2906 2381 2643 2742 
Q 2381 3103 1925 3103 
Q 1469 3103 1208 2742 
Q 947 2381 947 1747 
z
" transform="scale(0.015625)"/>
       <path id="DejaVuSans-67" d="M 2906 1791 
Q 2906 2416 2648 2759 
Q 2391 3103 1925 3103 
Q 1463 3103 1205 2759 
Q 947 2416 947 1791 
Q 947 1169 1205 825 
Q 1463 481 1925 481 
Q 2391 481 2648 825 
Q 2906 1169 2906 1791 
z
M 3481 434 
Q 3481 -459 3084 -895 
Q 2688 -1331 1869 -1331 
Q 1566 -1331 1297 -1286 
Q 1028 -1241 775 -1147 
L 775 -588 
Q 1028 -725 1275 -790 
Q 1522 -856 1778 -856 
Q 2344 -856 2625 -561 
Q 2906 -266 2906 331 
L 2906 616 
Q 2728 306 2450 153 
Q 2172 0 1784 0 
Q 1141 0 747 490 
Q 353 981 353 1791 
Q 353 2603 747 3093 
Q 1141 3584 1784 3584 
Q 2172 3584 2450 3431 
Q 2728 3278 2906 2969 
L 2906 3500 
L 3481 3500 
L 3481 434 
z
" transform="scale(0.015625)"/>
      </defs>
      <use xlink:href="#DejaVuSans-50"/>
      <use xlink:href="#DejaVuSans-68" x="60.302734"/>
      <use xlink:href="#DejaVuSans-61" x="123.681641"/>
      <use xlink:href="#DejaVuSans-73" x="184.960938"/>
      <use xlink:href="#DejaVuSans-65" x="237.060547"/>
      <use xlink:href="#DejaVuSans-30" x="298.583984"/>
      <use xlink:href="#DejaVuSans-20" x="362.207031"/>
      <use xlink:href="#DejaVuSans-5b" x="393.994141"/>
      <use xlink:href="#DejaVuSans-64" x="433.007812"/>
      <use xlink:href="#DejaVuSans-65" x="496.484375"/>
      <use xlink:href="#DejaVuSans-67" x="558.007812"/>
      <use xlink:href="#DejaVuSans-5d" x="621.484375"/>
     </g>
    </g>
   </g>
   <g id="line2d_18">
    <path d="M 63.198352 265.113454 
L 66.046199 285.027966 
L 68.894046 259.031275 
L 71.741893 240.037906 
L 74.58974 274.328961 
L 77.437587 271.730977 
L 80.285434 259.098405 
L 83.133281 244.600734 
L 85.981127 260.78207 
L 88.828974 282.180196 
L 91.676821 292.527821 
L 94.524668 251.940358 
L 97.372515 258.535124 
L 100.220362 285.095913 
L 103.068209 246.426585 
L 105.916056 243.961017 
L 108.763903 263.286678 
L 111.611749 269.742051 
L 114.459596 278.560486 
L 117.307443 245.661379 
L 120.15529 220.200326 
L 123.003137 221.37834 
L 125.850984 255.807096 
L 128.698831 255.18763 
L 131.546678 234.555477 
L 134.394525 252.704168 
L 137.242371 207.366394 
L 140.090218 247.151173 
L 142.938065 236.430037 
L 145.785912 270.132508 
L 148.633759 263.52359 
L 151.481606 246.114343 
L 154.329453 233.507503 
L 157.1773 260.263076 
L 160.025147 244.032227 
L 162.872993 230.34877 
L 165.72084 225.444726 
L 168.568687 236.034068 
L 171.416534 254.861479 
L 174.264381 236.006803 
L 177.112228 238.664149 
L 179.960075 253.769031 
L 182.807922 233.713911 
L 185.655769 259.943722 
L 188.503615 180.809713 
L 191.351462 285.051131 
L 194.199309 193.614495 
L 197.047156 248.400721 
L 199.895003 174.168625 
L 202.74285 204.209998 
L 205.590697 175.387378 
L 208.438544 164.480473 
L 211.286391 108.259123 
L 214.134237 179.623033 
L 216.982084 61.015274 
L 219.829931 53.856 
L 222.677778 64.203325 
L 225.525625 60.118685 
L 228.373472 165.662746 
L 231.221319 184.552605 
L 234.069166 150.001875 
L 236.917013 167.624841 
L 239.764859 231.936795 
L 242.612706 163.605993 
L 245.460553 221.425399 
L 248.3084 204.201322 
L 251.156247 245.122979 
L 254.004094 217.865035 
L 256.851941 266.94485 
L 259.699788 241.707944 
L 262.547635 259.930689 
L 265.395481 239.452256 
L 268.243328 239.031217 
L 271.091175 270.114538 
L 273.939022 264.967514 
L 276.786869 280.168769 
L 279.634716 225.450297 
L 282.482563 286.113639 
L 285.33041 253.376701 
L 288.178257 251.141221 
L 291.026103 275.877251 
L 293.87395 251.859546 
L 296.721797 277.948682 
L 299.569644 242.052952 
L 302.417491 270.895059 
L 305.265338 253.99193 
L 308.113185 288.292906 
L 310.961032 247.40761 
L 313.808879 223.53497 
L 316.656725 255.350596 
L 319.504572 263.806132 
L 322.352419 249.047938 
L 325.200266 264.099911 
L 328.048113 265.018458 
L 330.89596 272.291215 
L 333.743807 244.733539 
L 336.591654 253.508474 
L 339.439501 259.792891 
L 342.287347 255.810218 
L 345.135194 237.053215 
L 347.983041 252.80943 
L 350.830888 277.402781 
L 353.678735 277.366236 
L 356.526582 255.105426 
L 359.374429 238.779762 
L 362.222276 238.680306 
L 365.070123 249.618528 
L 367.917969 255.284794 
L 370.765816 263.474536 
L 373.613663 275.330659 
L 376.46151 282.551748 
L 379.309357 261.893355 
L 382.157204 267.054385 
L 385.005051 295.776 
L 387.852898 263.276635 
" clip-path="url(#pe718228175)" style="fill: none; stroke: #1f77b4; stroke-width: 1.5; stroke-linecap: square"/>
    <defs>
     <path id="m9eb3466ec7" d="M 0 1.5 
C 0.397805 1.5 0.77937 1.341951 1.06066 1.06066 
C 1.341951 0.77937 1.5 0.397805 1.5 0 
C 1.5 -0.397805 1.341951 -0.77937 1.06066 -1.06066 
C 0.77937 -1.341951 0.397805 -1.5 0 -1.5 
C -0.397805 -1.5 -0.77937 -1.341951 -1.06066 -1.06066 
C -1.341951 -0.77937 -1.5 -0.397805 -1.5 0 
C -1.5 0.397805 -1.341951 0.77937 -1.06066 1.06066 
C -0.77937 1.341951 -0.397805 1.5 0 1.5 
z
" style="stroke: #1f77b4"/>
    </defs>
    <g clip-path="url(#pe718228175)">
     <use xlink:href="#m9eb3466ec7" x="63.198352" y="265.113454" style="fill: #1f77b4; stroke: #1f77b4"/>
     <use xlink:href="#m9eb3466ec7" x="66.046199" y="285.027966" style="fill: #1f77b4; stroke: #1f77b4"/>
     <use xlink:href="#m9eb3466ec7" x="68.894046" y="259.031275" style="fill: #1f77b4; stroke: #1f77b4"/>
     <use xlink:href="#m9eb3466ec7" x="71.741893" y="240.037906" style="fill: #1f77b4; stroke: #1f77b4"/>
     <use xlink:href="#m9eb3466ec7" x="74.58974" y="274.328961" style="fill: #1f77b4; stroke: #1f77b4"/>
     <use xlink:href="#m9eb3466ec7" x="77.437587" y="271.730977" style="fill: #1f77b4; stroke: #1f77b4"/>
     <use xlink:href="#m9eb3466ec7" x="80.285434" y="259.098405" style="fill: #1f77b4; stroke: #1f77b4"/>
     <use xlink:href="#m9eb3466ec7" x="83.133281" y="244.600734" style="fill: #1f77b4; stroke: #1f77b4"/>
     <use xlink:href="#m9eb3466ec7" x="85.981127" y="260.78207" style="fill: #1f77b4; stroke: #1f77b4"/>
     <use xlink:href="#m9eb3466ec7" x="88.828974" y="282.180196" style="fill: #1f77b4; stroke: #1f77b4"/>
     <use xlink:href="#m9eb3466ec7" x="91.676821" y="292.527821" style="fill: #1f77b4; stroke: #1f77b4"/>
     <use xlink:href="#m9eb3466ec7" x="94.524668" y="251.940358" style="fill: #1f77b4; stroke: #1f77b4"/>
     <use xlink:href="#m9eb3466ec7" x="97.372515" y="258.535124" style="fill: #1f77b4; stroke: #1f77b4"/>
     <use xlink:href="#m9eb3466ec7" x="100.220362" y="285.095913" style="fill: #1f77b4; stroke: #1f77b4"/>
     <use xlink:href="#m9eb3466ec7" x="103.068209" y="246.426585" style="fill: #1f77b4; stroke: #1f77b4"/>
     <use xlink:href="#m9eb3466ec7" x="105.916056" y="243.961017" style="fill: #1f77b4; stroke: #1f77b4"/>
     <use xlink:href="#m9eb3466ec7" x="108.763903" y="263.286678" style="fill: #1f77b4; stroke: #1f77b4"/>
     <use xlink:href="#m9eb3466ec7" x="111.611749" y="269.742051" style="fill: #1f77b4; stroke: #1f77b4"/>
     <use xlink:href="#m9eb3466ec7" x="114.459596" y="278.560486" style="fill: #1f77b4; stroke: #1f77b4"/>
     <use xlink:href="#m9eb3466ec7" x="117.307443" y="245.661379" style="fill: #1f77b4; stroke: #1f77b4"/>
     <use xlink:href="#m9eb3466ec7" x="120.15529" y="220.200326" style="fill: #1f77b4; stroke: #1f77b4"/>
     <use xlink:href="#m9eb3466ec7" x="123.003137" y="221.37834" style="fill: #1f77b4; stroke: #1f77b4"/>
     <use xlink:href="#m9eb3466ec7" x="125.850984" y="255.807096" style="fill: #1f77b4; stroke: #1f77b4"/>
     <use xlink:href="#m9eb3466ec7" x="128.698831" y="255.18763" style="fill: #1f77b4; stroke: #1f77b4"/>
     <use xlink:href="#m9eb3466ec7" x="131.546678" y="234.555477" style="fill: #1f77b4; stroke: #1f77b4"/>
     <use xlink:href="#m9eb3466ec7" x="134.394525" y="252.704168" style="fill: #1f77b4; stroke: #1f77b4"/>
     <use xlink:href="#m9eb3466ec7" x="137.242371" y="207.366394" style="fill: #1f77b4; stroke: #1f77b4"/>
     <use xlink:href="#m9eb3466ec7" x="140.090218" y="247.151173" style="fill: #1f77b4; stroke: #1f77b4"/>
     <use xlink:href="#m9eb3466ec7" x="142.938065" y="236.430037" style="fill: #1f77b4; stroke: #1f77b4"/>
     <use xlink:href="#m9eb3466ec7" x="145.785912" y="270.132508" style="fill: #1f77b4; stroke: #1f77b4"/>
     <use xlink:href="#m9eb3466ec7" x="148.633759" y="263.52359" style="fill: #1f77b4; stroke: #1f77b4"/>
     <use xlink:href="#m9eb3466ec7" x="151.481606" y="246.114343" style="fill: #1f77b4; stroke: #1f77b4"/>
     <use xlink:href="#m9eb3466ec7" x="154.329453" y="233.507503" style="fill: #1f77b4; stroke: #1f77b4"/>
     <use xlink:href="#m9eb3466ec7" x="157.1773" y="260.263076" style="fill: #1f77b4; stroke: #1f77b4"/>
     <use xlink:href="#m9eb3466ec7" x="160.025147" y="244.032227" style="fill: #1f77b4; stroke: #1f77b4"/>
     <use xlink:href="#m9eb3466ec7" x="162.872993" y="230.34877" style="fill: #1f77b4; stroke: #1f77b4"/>
     <use xlink:href="#m9eb3466ec7" x="165.72084" y="225.444726" style="fill: #1f77b4; stroke: #1f77b4"/>
     <use xlink:href="#m9eb3466ec7" x="168.568687" y="236.034068" style="fill: #1f77b4; stroke: #1f77b4"/>
     <use xlink:href="#m9eb3466ec7" x="171.416534" y="254.861479" style="fill: #1f77b4; stroke: #1f77b4"/>
     <use xlink:href="#m9eb3466ec7" x="174.264381" y="236.006803" style="fill: #1f77b4; stroke: #1f77b4"/>
     <use xlink:href="#m9eb3466ec7" x="177.112228" y="238.664149" style="fill: #1f77b4; stroke: #1f77b4"/>
     <use xlink:href="#m9eb3466ec7" x="179.960075" y="253.769031" style="fill: #1f77b4; stroke: #1f77b4"/>
     <use xlink:href="#m9eb3466ec7" x="182.807922" y="233.713911" style="fill: #1f77b4; stroke: #1f77b4"/>
     <use xlink:href="#m9eb3466ec7" x="185.655769" y="259.943722" style="fill: #1f77b4; stroke: #1f77b4"/>
     <use xlink:href="#m9eb3466ec7" x="188.503615" y="180.809713" style="fill: #1f77b4; stroke: #1f77b4"/>
     <use xlink:href="#m9eb3466ec7" x="191.351462" y="285.051131" style="fill: #1f77b4; stroke: #1f77b4"/>
     <use xlink:href="#m9eb3466ec7" x="194.199309" y="193.614495" style="fill: #1f77b4; stroke: #1f77b4"/>
     <use xlink:href="#m9eb3466ec7" x="197.047156" y="248.400721" style="fill: #1f77b4; stroke: #1f77b4"/>
     <use xlink:href="#m9eb3466ec7" x="199.895003" y="174.168625" style="fill: #1f77b4; stroke: #1f77b4"/>
     <use xlink:href="#m9eb3466ec7" x="202.74285" y="204.209998" style="fill: #1f77b4; stroke: #1f77b4"/>
     <use xlink:href="#m9eb3466ec7" x="205.590697" y="175.387378" style="fill: #1f77b4; stroke: #1f77b4"/>
     <use xlink:href="#m9eb3466ec7" x="208.438544" y="164.480473" style="fill: #1f77b4; stroke: #1f77b4"/>
     <use xlink:href="#m9eb3466ec7" x="211.286391" y="108.259123" style="fill: #1f77b4; stroke: #1f77b4"/>
     <use xlink:href="#m9eb3466ec7" x="214.134237" y="179.623033" style="fill: #1f77b4; stroke: #1f77b4"/>
     <use xlink:href="#m9eb3466ec7" x="216.982084" y="61.015274" style="fill: #1f77b4; stroke: #1f77b4"/>
     <use xlink:href="#m9eb3466ec7" x="219.829931" y="53.856" style="fill: #1f77b4; stroke: #1f77b4"/>
     <use xlink:href="#m9eb3466ec7" x="222.677778" y="64.203325" style="fill: #1f77b4; stroke: #1f77b4"/>
     <use xlink:href="#m9eb3466ec7" x="225.525625" y="60.118685" style="fill: #1f77b4; stroke: #1f77b4"/>
     <use xlink:href="#m9eb3466ec7" x="228.373472" y="165.662746" style="fill: #1f77b4; stroke: #1f77b4"/>
     <use xlink:href="#m9eb3466ec7" x="231.221319" y="184.552605" style="fill: #1f77b4; stroke: #1f77b4"/>
     <use xlink:href="#m9eb3466ec7" x="234.069166" y="150.001875" style="fill: #1f77b4; stroke: #1f77b4"/>
     <use xlink:href="#m9eb3466ec7" x="236.917013" y="167.624841" style="fill: #1f77b4; stroke: #1f77b4"/>
     <use xlink:href="#m9eb3466ec7" x="239.764859" y="231.936795" style="fill: #1f77b4; stroke: #1f77b4"/>
     <use xlink:href="#m9eb3466ec7" x="242.612706" y="163.605993" style="fill: #1f77b4; stroke: #1f77b4"/>
     <use xlink:href="#m9eb3466ec7" x="245.460553" y="221.425399" style="fill: #1f77b4; stroke: #1f77b4"/>
     <use xlink:href="#m9eb3466ec7" x="248.3084" y="204.201322" style="fill: #1f77b4; stroke: #1f77b4"/>
     <use xlink:href="#m9eb3466ec7" x="251.156247" y="245.122979" style="fill: #1f77b4; stroke: #1f77b4"/>
     <use xlink:href="#m9eb3466ec7" x="254.004094" y="217.865035" style="fill: #1f77b4; stroke: #1f77b4"/>
     <use xlink:href="#m9eb3466ec7" x="256.851941" y="266.94485" style="fill: #1f77b4; stroke: #1f77b4"/>
     <use xlink:href="#m9eb3466ec7" x="259.699788" y="241.707944" style="fill: #1f77b4; stroke: #1f77b4"/>
     <use xlink:href="#m9eb3466ec7" x="262.547635" y="259.930689" style="fill: #1f77b4; stroke: #1f77b4"/>
     <use xlink:href="#m9eb3466ec7" x="265.395481" y="239.452256" style="fill: #1f77b4; stroke: #1f77b4"/>
     <use xlink:href="#m9eb3466ec7" x="268.243328" y="239.031217" style="fill: #1f77b4; stroke: #1f77b4"/>
     <use xlink:href="#m9eb3466ec7" x="271.091175" y="270.114538" style="fill: #1f77b4; stroke: #1f77b4"/>
     <use xlink:href="#m9eb3466ec7" x="273.939022" y="264.967514" style="fill: #1f77b4; stroke: #1f77b4"/>
     <use xlink:href="#m9eb3466ec7" x="276.786869" y="280.168769" style="fill: #1f77b4; stroke: #1f77b4"/>
     <use xlink:href="#m9eb3466ec7" x="279.634716" y="225.450297" style="fill: #1f77b4; stroke: #1f77b4"/>
     <use xlink:href="#m9eb3466ec7" x="282.482563" y="286.113639" style="fill: #1f77b4; stroke: #1f77b4"/>
     <use xlink:href="#m9eb3466ec7" x="285.33041" y="253.376701" style="fill: #1f77b4; stroke: #1f77b4"/>
     <use xlink:href="#m9eb3466ec7" x="288.178257" y="251.141221" style="fill: #1f77b4; stroke: #1f77b4"/>
     <use xlink:href="#m9eb3466ec7" x="291.026103" y="275.877251" style="fill: #1f77b4; stroke: #1f77b4"/>
     <use xlink:href="#m9eb3466ec7" x="293.87395" y="251.859546" style="fill: #1f77b4; stroke: #1f77b4"/>
     <use xlink:href="#m9eb3466ec7" x="296.721797" y="277.948682" style="fill: #1f77b4; stroke: #1f77b4"/>
     <use xlink:href="#m9eb3466ec7" x="299.569644" y="242.052952" style="fill: #1f77b4; stroke: #1f77b4"/>
     <use xlink:href="#m9eb3466ec7" x="302.417491" y="270.895059" style="fill: #1f77b4; stroke: #1f77b4"/>
     <use xlink:href="#m9eb3466ec7" x="305.265338" y="253.99193" style="fill: #1f77b4; stroke: #1f77b4"/>
     <use xlink:href="#m9eb3466ec7" x="308.113185" y="288.292906" style="fill: #1f77b4; stroke: #1f77b4"/>
     <use xlink:href="#m9eb3466ec7" x="310.961032" y="247.40761" style="fill: #1f77b4; stroke: #1f77b4"/>
     <use xlink:href="#m9eb3466ec7" x="313.808879" y="223.53497" style="fill: #1f77b4; stroke: #1f77b4"/>
     <use xlink:href="#m9eb3466ec7" x="316.656725" y="255.350596" style="fill: #1f77b4; stroke: #1f77b4"/>
     <use xlink:href="#m9eb3466ec7" x="319.504572" y="263.806132" style="fill: #1f77b4; stroke: #1f77b4"/>
     <use xlink:href="#m9eb3466ec7" x="322.352419" y="249.047938" style="fill: #1f77b4; stroke: #1f77b4"/>
     <use xlink:href="#m9eb3466ec7" x="325.200266" y="264.099911" style="fill: #1f77b4; stroke: #1f77b4"/>
     <use xlink:href="#m9eb3466ec7" x="328.048113" y="265.018458" style="fill: #1f77b4; stroke: #1f77b4"/>
     <use xlink:href="#m9eb3466ec7" x="330.89596" y="272.291215" style="fill: #1f77b4; stroke: #1f77b4"/>
     <use xlink:href="#m9eb3466ec7" x="333.743807" y="244.733539" style="fill: #1f77b4; stroke: #1f77b4"/>
     <use xlink:href="#m9eb3466ec7" x="336.591654" y="253.508474" style="fill: #1f77b4; stroke: #1f77b4"/>
     <use xlink:href="#m9eb3466ec7" x="339.439501" y="259.792891" style="fill: #1f77b4; stroke: #1f77b4"/>
     <use xlink:href="#m9eb3466ec7" x="342.287347" y="255.810218" style="fill: #1f77b4; stroke: #1f77b4"/>
     <use xlink:href="#m9eb3466ec7" x="345.135194" y="237.053215" style="fill: #1f77b4; stroke: #1f77b4"/>
     <use xlink:href="#m9eb3466ec7" x="347.983041" y="252.80943" style="fill: #1f77b4; stroke: #1f77b4"/>
     <use xlink:href="#m9eb3466ec7" x="350.830888" y="277.402781" style="fill: #1f77b4; stroke: #1f77b4"/>
     <use xlink:href="#m9eb3466ec7" x="353.678735" y="277.366236" style="fill: #1f77b4; stroke: #1f77b4"/>
     <use xlink:href="#m9eb3466ec7" x="356.526582" y="255.105426" style="fill: #1f77b4; stroke: #1f77b4"/>
     <use xlink:href="#m9eb3466ec7" x="359.374429" y="238.779762" style="fill: #1f77b4; stroke: #1f77b4"/>
     <use xlink:href="#m9eb3466ec7" x="362.222276" y="238.680306" style="fill: #1f77b4; stroke: #1f77b4"/>
     <use xlink:href="#m9eb3466ec7" x="365.070123" y="249.618528" style="fill: #1f77b4; stroke: #1f77b4"/>
     <use xlink:href="#m9eb3466ec7" x="367.917969" y="255.284794" style="fill: #1f77b4; stroke: #1f77b4"/>
     <use xlink:href="#m9eb3466ec7" x="370.765816" y="263.474536" style="fill: #1f77b4; stroke: #1f77b4"/>
     <use xlink:href="#m9eb3466ec7" x="373.613663" y="275.330659" style="fill: #1f77b4; stroke: #1f77b4"/>
     <use xlink:href="#m9eb3466ec7" x="376.46151" y="282.551748" style="fill: #1f77b4; stroke: #1f77b4"/>
     <use xlink:href="#m9eb3466ec7" x="379.309357" y="261.893355" style="fill: #1f77b4; stroke: #1f77b4"/>
     <use xlink:href="#m9eb3466ec7" x="382.157204" y="267.054385" style="fill: #1f77b4; stroke: #1f77b4"/>
     <use xlink:href="#m9eb3466ec7" x="385.005051" y="295.776" style="fill: #1f77b4; stroke: #1f77b4"/>
     <use xlink:href="#m9eb3466ec7" x="387.852898" y="263.276635" style="fill: #1f77b4; stroke: #1f77b4"/>
    </g>
   </g>
   <g id="patch_3">
    <path d="M 46.965625 307.872 
L 46.965625 41.76 
" style="fill: none; stroke: #000000; stroke-width: 0.8; stroke-linejoin: miter; stroke-linecap: square"/>
   </g>
   <g id="patch_4">
    <path d="M 404.085625 307.872 
L 404.085625 41.76 
" style="fill: none; stroke: #000000; stroke-width: 0.8; stroke-linejoin: miter; stroke-linecap: square"/>
   </g>
   <g id="patch_5">
    <path d="M 46.965625 307.872 
L 404.085625 307.872 
" style="fill: none; stroke: #000000; stroke-width: 0.8; stroke-linejoin: miter; stroke-linecap: square"/>
   </g>
   <g id="patch_6">
    <path d="M 46.965625 41.76 
L 404.085625 41.76 
" style="fill: none; stroke: #000000; stroke-width: 0.8; stroke-linejoin: miter; stroke-linecap: square"/>
   </g>
  </g>
  <g id="text_21">
   <!-- x0-y1 Pulsed spectroscopy q00 -->
   <g transform="translate(126.458125 16.318125) scale(0.12 -0.12)">
    <defs>
     <path id="DejaVuSans-78" d="M 3513 3500 
L 2247 1797 
L 3578 0 
L 2900 0 
L 1881 1375 
L 863 0 
L 184 0 
L 1544 1831 
L 300 3500 
L 978 3500 
L 1906 2253 
L 2834 3500 
L 3513 3500 
z
" transform="scale(0.015625)"/>
     <path id="DejaVuSans-2d" d="M 313 2009 
L 1997 2009 
L 1997 1497 
L 313 1497 
L 313 2009 
z
" transform="scale(0.015625)"/>
     <path id="DejaVuSans-6c" d="M 603 4863 
L 1178 4863 
L 1178 0 
L 603 0 
L 603 4863 
z
" transform="scale(0.015625)"/>
     <path id="DejaVuSans-74" d="M 1172 4494 
L 1172 3500 
L 2356 3500 
L 2356 3053 
L 1172 3053 
L 1172 1153 
Q 1172 725 1289 603 
Q 1406 481 1766 481 
L 2356 481 
L 2356 0 
L 1766 0 
Q 1100 0 847 248 
Q 594 497 594 1153 
L 594 3053 
L 172 3053 
L 172 3500 
L 594 3500 
L 594 4494 
L 1172 4494 
z
" transform="scale(0.015625)"/>
     <path id="DejaVuSans-6f" d="M 1959 3097 
Q 1497 3097 1228 2736 
Q 959 2375 959 1747 
Q 959 1119 1226 758 
Q 1494 397 1959 397 
Q 2419 397 2687 759 
Q 2956 1122 2956 1747 
Q 2956 2369 2687 2733 
Q 2419 3097 1959 3097 
z
M 1959 3584 
Q 2709 3584 3137 3096 
Q 3566 2609 3566 1747 
Q 3566 888 3137 398 
Q 2709 -91 1959 -91 
Q 1206 -91 779 398 
Q 353 888 353 1747 
Q 353 2609 779 3096 
Q 1206 3584 1959 3584 
z
" transform="scale(0.015625)"/>
    </defs>
    <use xlink:href="#DejaVuSans-78"/>
    <use xlink:href="#DejaVuSans-30" x="59.179688"/>
    <use xlink:href="#DejaVuSans-2d" x="122.802734"/>
    <use xlink:href="#DejaVuSans-79" x="157.136719"/>
    <use xlink:href="#DejaVuSans-31" x="216.316406"/>
    <use xlink:href="#DejaVuSans-20" x="279.939453"/>
    <use xlink:href="#DejaVuSans-50" x="311.726562"/>
    <use xlink:href="#DejaVuSans-75" x="370.279297"/>
    <use xlink:href="#DejaVuSans-6c" x="433.658203"/>
    <use xlink:href="#DejaVuSans-73" x="461.441406"/>
    <use xlink:href="#DejaVuSans-65" x="513.541016"/>
    <use xlink:href="#DejaVuSans-64" x="575.064453"/>
    <use xlink:href="#DejaVuSans-20" x="638.541016"/>
    <use xlink:href="#DejaVuSans-73" x="670.328125"/>
    <use xlink:href="#DejaVuSans-70" x="722.427734"/>
    <use xlink:href="#DejaVuSans-65" x="785.904297"/>
    <use xlink:href="#DejaVuSans-63" x="847.427734"/>
    <use xlink:href="#DejaVuSans-74" x="902.408203"/>
    <use xlink:href="#DejaVuSans-72" x="941.617188"/>
    <use xlink:href="#DejaVuSans-6f" x="980.480469"/>
    <use xlink:href="#DejaVuSans-73" x="1041.662109"/>
    <use xlink:href="#DejaVuSans-63" x="1093.761719"/>
    <use xlink:href="#DejaVuSans-6f" x="1148.742188"/>
    <use xlink:href="#DejaVuSans-70" x="1209.923828"/>
    <use xlink:href="#DejaVuSans-79" x="1273.400391"/>
    <use xlink:href="#DejaVuSans-20" x="1332.580078"/>
    <use xlink:href="#DejaVuSans-71" x="1364.367188"/>
    <use xlink:href="#DejaVuSans-30" x="1427.84375"/>
    <use xlink:href="#DejaVuSans-30" x="1491.466797"/>
   </g>
   <!-- tuid: 20241114-112307-498-505de8 -->
   <g transform="translate(110.044375 29.7555) scale(0.12 -0.12)">
    <defs>
     <path id="DejaVuSans-69" d="M 603 3500 
L 1178 3500 
L 1178 0 
L 603 0 
L 603 3500 
z
M 603 4863 
L 1178 4863 
L 1178 4134 
L 603 4134 
L 603 4863 
z
" transform="scale(0.015625)"/>
     <path id="DejaVuSans-3a" d="M 750 794 
L 1409 794 
L 1409 0 
L 750 0 
L 750 794 
z
M 750 3309 
L 1409 3309 
L 1409 2516 
L 750 2516 
L 750 3309 
z
" transform="scale(0.015625)"/>
     <path id="DejaVuSans-37" d="M 525 4666 
L 3525 4666 
L 3525 4397 
L 1831 0 
L 1172 0 
L 2766 4134 
L 525 4134 
L 525 4666 
z
" transform="scale(0.015625)"/>
    </defs>
    <use xlink:href="#DejaVuSans-74"/>
    <use xlink:href="#DejaVuSans-75" x="39.208984"/>
    <use xlink:href="#DejaVuSans-69" x="102.587891"/>
    <use xlink:href="#DejaVuSans-64" x="130.371094"/>
    <use xlink:href="#DejaVuSans-3a" x="193.847656"/>
    <use xlink:href="#DejaVuSans-20" x="227.539062"/>
    <use xlink:href="#DejaVuSans-32" x="259.326172"/>
    <use xlink:href="#DejaVuSans-30" x="322.949219"/>
    <use xlink:href="#DejaVuSans-32" x="386.572266"/>
    <use xlink:href="#DejaVuSans-34" x="450.195312"/>
    <use xlink:href="#DejaVuSans-31" x="513.818359"/>
    <use xlink:href="#DejaVuSans-31" x="577.441406"/>
    <use xlink:href="#DejaVuSans-31" x="641.064453"/>
    <use xlink:href="#DejaVuSans-34" x="704.6875"/>
    <use xlink:href="#DejaVuSans-2d" x="768.310547"/>
    <use xlink:href="#DejaVuSans-31" x="804.394531"/>
    <use xlink:href="#DejaVuSans-31" x="868.017578"/>
    <use xlink:href="#DejaVuSans-32" x="931.640625"/>
    <use xlink:href="#DejaVuSans-33" x="995.263672"/>
    <use xlink:href="#DejaVuSans-30" x="1058.886719"/>
    <use xlink:href="#DejaVuSans-37" x="1122.509766"/>
    <use xlink:href="#DejaVuSans-2d" x="1186.132812"/>
    <use xlink:href="#DejaVuSans-34" x="1222.216797"/>
    <use xlink:href="#DejaVuSans-39" x="1285.839844"/>
    <use xlink:href="#DejaVuSans-38" x="1349.462891"/>
    <use xlink:href="#DejaVuSans-2d" x="1413.085938"/>
    <use xlink:href="#DejaVuSans-35" x="1449.169922"/>
    <use xlink:href="#DejaVuSans-30" x="1512.792969"/>
    <use xlink:href="#DejaVuSans-35" x="1576.416016"/>
    <use xlink:href="#DejaVuSans-64" x="1640.039062"/>
    <use xlink:href="#DejaVuSans-65" x="1703.515625"/>
    <use xlink:href="#DejaVuSans-38" x="1765.039062"/>
   </g>
  </g>
 </g>
 <defs>
  <clipPath id="pe718228175">
   <rect x="46.965625" y="41.76" width="357.12" height="266.112"/>
  </clipPath>
 </defs>
</svg>
