<?xml version="1.0" encoding="utf-8" standalone="no"?>
<!DOCTYPE svg PUBLIC "-//W3C//DTD SVG 1.1//EN"
  "http://www.w3.org/Graphics/SVG/1.1/DTD/svg11.dtd">
<svg xmlns:xlink="http://www.w3.org/1999/xlink" width="710.430688pt" height="345.42825pt" viewBox="0 0 710.430688 345.42825" xmlns="http://www.w3.org/2000/svg" version="1.1">
 <metadata>
  <rdf:RDF xmlns:dc="http://purl.org/dc/elements/1.1/" xmlns:cc="http://creativecommons.org/ns#" xmlns:rdf="http://www.w3.org/1999/02/22-rdf-syntax-ns#">
   <cc:Work>
    <dc:type rdf:resource="http://purl.org/dc/dcmitype/StillImage"/>
    <dc:date>2024-11-14T10:53:23.276470</dc:date>
    <dc:format>image/svg+xml</dc:format>
    <dc:creator>
     <cc:Agent>
      <dc:title>Matplotlib v3.8.0, https://matplotlib.org/</dc:title>
     </cc:Agent>
    </dc:creator>
   </cc:Work>
  </rdf:RDF>
 </metadata>
 <defs>
  <style type="text/css">*{stroke-linejoin: round; stroke-linecap: butt}</style>
 </defs>
 <g id="figure_1">
  <g id="patch_1">
   <path d="M 0 345.42825 
L 710.430688 345.42825 
L 710.430688 -0 
L 0 -0 
L 0 345.42825 
z
" style="fill: none; opacity: 0"/>
  </g>
  <g id="axes_1">
   <g id="patch_2">
    <path d="M 50.573438 307.872 
L 407.693438 307.872 
L 407.693438 41.76 
L 50.573438 41.76 
z
" style="fill: #ffffff"/>
   </g>
   <g id="matplotlib.axis_1">
    <g id="xtick_1">
     <g id="line2d_1">
      <defs>
       <path id="m4ae744bed0" d="M 0 0 
L 0 3.5 
" style="stroke: #000000; stroke-width: 0.8"/>
      </defs>
      <g>
       <use xlink:href="#m4ae744bed0" x="83.773899" y="307.872" style="stroke: #000000; stroke-width: 0.8"/>
      </g>
     </g>
     <g id="text_1">
      <!-- 94 -->
      <g transform="translate(77.411399 322.470438) scale(0.1 -0.1)">
       <defs>
        <path id="DejaVuSans-39" d="M 703 97 
L 703 672 
Q 941 559 1184 500 
Q 1428 441 1663 441 
Q 2288 441 2617 861 
Q 2947 1281 2994 2138 
Q 2813 1869 2534 1725 
Q 2256 1581 1919 1581 
Q 1219 1581 811 2004 
Q 403 2428 403 3163 
Q 403 3881 828 4315 
Q 1253 4750 1959 4750 
Q 2769 4750 3195 4129 
Q 3622 3509 3622 2328 
Q 3622 1225 3098 567 
Q 2575 -91 1691 -91 
Q 1453 -91 1209 -44 
Q 966 3 703 97 
z
M 1959 2075 
Q 2384 2075 2632 2365 
Q 2881 2656 2881 3163 
Q 2881 3666 2632 3958 
Q 2384 4250 1959 4250 
Q 1534 4250 1286 3958 
Q 1038 3666 1038 3163 
Q 1038 2656 1286 2365 
Q 1534 2075 1959 2075 
z
" transform="scale(0.015625)"/>
        <path id="DejaVuSans-34" d="M 2419 4116 
L 825 1625 
L 2419 1625 
L 2419 4116 
z
M 2253 4666 
L 3047 4666 
L 3047 1625 
L 3713 1625 
L 3713 1100 
L 3047 1100 
L 3047 0 
L 2419 0 
L 2419 1100 
L 313 1100 
L 313 1709 
L 2253 4666 
z
" transform="scale(0.015625)"/>
       </defs>
       <use xlink:href="#DejaVuSans-39"/>
       <use xlink:href="#DejaVuSans-34" x="63.623047"/>
      </g>
     </g>
    </g>
    <g id="xtick_2">
     <g id="line2d_2">
      <g>
       <use xlink:href="#m4ae744bed0" x="125.396277" y="307.872" style="stroke: #000000; stroke-width: 0.8"/>
      </g>
     </g>
     <g id="text_2">
      <!-- 94.5 -->
      <g transform="translate(114.263464 322.470438) scale(0.1 -0.1)">
       <defs>
        <path id="DejaVuSans-2e" d="M 684 794 
L 1344 794 
L 1344 0 
L 684 0 
L 684 794 
z
" transform="scale(0.015625)"/>
        <path id="DejaVuSans-35" d="M 691 4666 
L 3169 4666 
L 3169 4134 
L 1269 4134 
L 1269 2991 
Q 1406 3038 1543 3061 
Q 1681 3084 1819 3084 
Q 2600 3084 3056 2656 
Q 3513 2228 3513 1497 
Q 3513 744 3044 326 
Q 2575 -91 1722 -91 
Q 1428 -91 1123 -41 
Q 819 9 494 109 
L 494 744 
Q 775 591 1075 516 
Q 1375 441 1709 441 
Q 2250 441 2565 725 
Q 2881 1009 2881 1497 
Q 2881 1984 2565 2268 
Q 2250 2553 1709 2553 
Q 1456 2553 1204 2497 
Q 953 2441 691 2322 
L 691 4666 
z
" transform="scale(0.015625)"/>
       </defs>
       <use xlink:href="#DejaVuSans-39"/>
       <use xlink:href="#DejaVuSans-34" x="63.623047"/>
       <use xlink:href="#DejaVuSans-2e" x="127.246094"/>
       <use xlink:href="#DejaVuSans-35" x="159.033203"/>
      </g>
     </g>
    </g>
    <g id="xtick_3">
     <g id="line2d_3">
      <g>
       <use xlink:href="#m4ae744bed0" x="167.018654" y="307.872" style="stroke: #000000; stroke-width: 0.8"/>
      </g>
     </g>
     <g id="text_3">
      <!-- 95 -->
      <g transform="translate(160.656154 322.470438) scale(0.1 -0.1)">
       <use xlink:href="#DejaVuSans-39"/>
       <use xlink:href="#DejaVuSans-35" x="63.623047"/>
      </g>
     </g>
    </g>
    <g id="xtick_4">
     <g id="line2d_4">
      <g>
       <use xlink:href="#m4ae744bed0" x="208.641032" y="307.872" style="stroke: #000000; stroke-width: 0.8"/>
      </g>
     </g>
     <g id="text_4">
      <!-- 95.5 -->
      <g transform="translate(197.508219 322.470438) scale(0.1 -0.1)">
       <use xlink:href="#DejaVuSans-39"/>
       <use xlink:href="#DejaVuSans-35" x="63.623047"/>
       <use xlink:href="#DejaVuSans-2e" x="127.246094"/>
       <use xlink:href="#DejaVuSans-35" x="159.033203"/>
      </g>
     </g>
    </g>
    <g id="xtick_5">
     <g id="line2d_5">
      <g>
       <use xlink:href="#m4ae744bed0" x="250.26341" y="307.872" style="stroke: #000000; stroke-width: 0.8"/>
      </g>
     </g>
     <g id="text_5">
      <!-- 96 -->
      <g transform="translate(243.90091 322.470438) scale(0.1 -0.1)">
       <defs>
        <path id="DejaVuSans-36" d="M 2113 2584 
Q 1688 2584 1439 2293 
Q 1191 2003 1191 1497 
Q 1191 994 1439 701 
Q 1688 409 2113 409 
Q 2538 409 2786 701 
Q 3034 994 3034 1497 
Q 3034 2003 2786 2293 
Q 2538 2584 2113 2584 
z
M 3366 4563 
L 3366 3988 
Q 3128 4100 2886 4159 
Q 2644 4219 2406 4219 
Q 1781 4219 1451 3797 
Q 1122 3375 1075 2522 
Q 1259 2794 1537 2939 
Q 1816 3084 2150 3084 
Q 2853 3084 3261 2657 
Q 3669 2231 3669 1497 
Q 3669 778 3244 343 
Q 2819 -91 2113 -91 
Q 1303 -91 875 529 
Q 447 1150 447 2328 
Q 447 3434 972 4092 
Q 1497 4750 2381 4750 
Q 2619 4750 2861 4703 
Q 3103 4656 3366 4563 
z
" transform="scale(0.015625)"/>
       </defs>
       <use xlink:href="#DejaVuSans-39"/>
       <use xlink:href="#DejaVuSans-36" x="63.623047"/>
      </g>
     </g>
    </g>
    <g id="xtick_6">
     <g id="line2d_6">
      <g>
       <use xlink:href="#m4ae744bed0" x="291.885787" y="307.872" style="stroke: #000000; stroke-width: 0.8"/>
      </g>
     </g>
     <g id="text_6">
      <!-- 96.5 -->
      <g transform="translate(280.752975 322.470438) scale(0.1 -0.1)">
       <use xlink:href="#DejaVuSans-39"/>
       <use xlink:href="#DejaVuSans-36" x="63.623047"/>
       <use xlink:href="#DejaVuSans-2e" x="127.246094"/>
       <use xlink:href="#DejaVuSans-35" x="159.033203"/>
      </g>
     </g>
    </g>
    <g id="xtick_7">
     <g id="line2d_7">
      <g>
       <use xlink:href="#m4ae744bed0" x="333.508165" y="307.872" style="stroke: #000000; stroke-width: 0.8"/>
      </g>
     </g>
     <g id="text_7">
      <!-- 97 -->
      <g transform="translate(327.145665 322.470438) scale(0.1 -0.1)">
       <defs>
        <path id="DejaVuSans-37" d="M 525 4666 
L 3525 4666 
L 3525 4397 
L 1831 0 
L 1172 0 
L 2766 4134 
L 525 4134 
L 525 4666 
z
" transform="scale(0.015625)"/>
       </defs>
       <use xlink:href="#DejaVuSans-39"/>
       <use xlink:href="#DejaVuSans-37" x="63.623047"/>
      </g>
     </g>
    </g>
    <g id="xtick_8">
     <g id="line2d_8">
      <g>
       <use xlink:href="#m4ae744bed0" x="375.130542" y="307.872" style="stroke: #000000; stroke-width: 0.8"/>
      </g>
     </g>
     <g id="text_8">
      <!-- 97.5 -->
      <g transform="translate(363.99773 322.470438) scale(0.1 -0.1)">
       <use xlink:href="#DejaVuSans-39"/>
       <use xlink:href="#DejaVuSans-37" x="63.623047"/>
       <use xlink:href="#DejaVuSans-2e" x="127.246094"/>
       <use xlink:href="#DejaVuSans-35" x="159.033203"/>
      </g>
     </g>
    </g>
    <g id="text_9">
     <!-- Readout frequency [MHz] -->
     <g transform="translate(165.526406 336.148562) scale(0.1 -0.1)">
      <defs>
       <path id="DejaVuSans-52" d="M 2841 2188 
Q 3044 2119 3236 1894 
Q 3428 1669 3622 1275 
L 4263 0 
L 3584 0 
L 2988 1197 
Q 2756 1666 2539 1819 
Q 2322 1972 1947 1972 
L 1259 1972 
L 1259 0 
L 628 0 
L 628 4666 
L 2053 4666 
Q 2853 4666 3247 4331 
Q 3641 3997 3641 3322 
Q 3641 2881 3436 2590 
Q 3231 2300 2841 2188 
z
M 1259 4147 
L 1259 2491 
L 2053 2491 
Q 2509 2491 2742 2702 
Q 2975 2913 2975 3322 
Q 2975 3731 2742 3939 
Q 2509 4147 2053 4147 
L 1259 4147 
z
" transform="scale(0.015625)"/>
       <path id="DejaVuSans-65" d="M 3597 1894 
L 3597 1613 
L 953 1613 
Q 991 1019 1311 708 
Q 1631 397 2203 397 
Q 2534 397 2845 478 
Q 3156 559 3463 722 
L 3463 178 
Q 3153 47 2828 -22 
Q 2503 -91 2169 -91 
Q 1331 -91 842 396 
Q 353 884 353 1716 
Q 353 2575 817 3079 
Q 1281 3584 2069 3584 
Q 2775 3584 3186 3129 
Q 3597 2675 3597 1894 
z
M 3022 2063 
Q 3016 2534 2758 2815 
Q 2500 3097 2075 3097 
Q 1594 3097 1305 2825 
Q 1016 2553 972 2059 
L 3022 2063 
z
" transform="scale(0.015625)"/>
       <path id="DejaVuSans-61" d="M 2194 1759 
Q 1497 1759 1228 1600 
Q 959 1441 959 1056 
Q 959 750 1161 570 
Q 1363 391 1709 391 
Q 2188 391 2477 730 
Q 2766 1069 2766 1631 
L 2766 1759 
L 2194 1759 
z
M 3341 1997 
L 3341 0 
L 2766 0 
L 2766 531 
Q 2569 213 2275 61 
Q 1981 -91 1556 -91 
Q 1019 -91 701 211 
Q 384 513 384 1019 
Q 384 1609 779 1909 
Q 1175 2209 1959 2209 
L 2766 2209 
L 2766 2266 
Q 2766 2663 2505 2880 
Q 2244 3097 1772 3097 
Q 1472 3097 1187 3025 
Q 903 2953 641 2809 
L 641 3341 
Q 956 3463 1253 3523 
Q 1550 3584 1831 3584 
Q 2591 3584 2966 3190 
Q 3341 2797 3341 1997 
z
" transform="scale(0.015625)"/>
       <path id="DejaVuSans-64" d="M 2906 2969 
L 2906 4863 
L 3481 4863 
L 3481 0 
L 2906 0 
L 2906 525 
Q 2725 213 2448 61 
Q 2172 -91 1784 -91 
Q 1150 -91 751 415 
Q 353 922 353 1747 
Q 353 2572 751 3078 
Q 1150 3584 1784 3584 
Q 2172 3584 2448 3432 
Q 2725 3281 2906 2969 
z
M 947 1747 
Q 947 1113 1208 752 
Q 1469 391 1925 391 
Q 2381 391 2643 752 
Q 2906 1113 2906 1747 
Q 2906 2381 2643 2742 
Q 2381 3103 1925 3103 
Q 1469 3103 1208 2742 
Q 947 2381 947 1747 
z
" transform="scale(0.015625)"/>
       <path id="DejaVuSans-6f" d="M 1959 3097 
Q 1497 3097 1228 2736 
Q 959 2375 959 1747 
Q 959 1119 1226 758 
Q 1494 397 1959 397 
Q 2419 397 2687 759 
Q 2956 1122 2956 1747 
Q 2956 2369 2687 2733 
Q 2419 3097 1959 3097 
z
M 1959 3584 
Q 2709 3584 3137 3096 
Q 3566 2609 3566 1747 
Q 3566 888 3137 398 
Q 2709 -91 1959 -91 
Q 1206 -91 779 398 
Q 353 888 353 1747 
Q 353 2609 779 3096 
Q 1206 3584 1959 3584 
z
" transform="scale(0.015625)"/>
       <path id="DejaVuSans-75" d="M 544 1381 
L 544 3500 
L 1119 3500 
L 1119 1403 
Q 1119 906 1312 657 
Q 1506 409 1894 409 
Q 2359 409 2629 706 
Q 2900 1003 2900 1516 
L 2900 3500 
L 3475 3500 
L 3475 0 
L 2900 0 
L 2900 538 
Q 2691 219 2414 64 
Q 2138 -91 1772 -91 
Q 1169 -91 856 284 
Q 544 659 544 1381 
z
M 1991 3584 
L 1991 3584 
z
" transform="scale(0.015625)"/>
       <path id="DejaVuSans-74" d="M 1172 4494 
L 1172 3500 
L 2356 3500 
L 2356 3053 
L 1172 3053 
L 1172 1153 
Q 1172 725 1289 603 
Q 1406 481 1766 481 
L 2356 481 
L 2356 0 
L 1766 0 
Q 1100 0 847 248 
Q 594 497 594 1153 
L 594 3053 
L 172 3053 
L 172 3500 
L 594 3500 
L 594 4494 
L 1172 4494 
z
" transform="scale(0.015625)"/>
       <path id="DejaVuSans-20" transform="scale(0.015625)"/>
       <path id="DejaVuSans-66" d="M 2375 4863 
L 2375 4384 
L 1825 4384 
Q 1516 4384 1395 4259 
Q 1275 4134 1275 3809 
L 1275 3500 
L 2222 3500 
L 2222 3053 
L 1275 3053 
L 1275 0 
L 697 0 
L 697 3053 
L 147 3053 
L 147 3500 
L 697 3500 
L 697 3744 
Q 697 4328 969 4595 
Q 1241 4863 1831 4863 
L 2375 4863 
z
" transform="scale(0.015625)"/>
       <path id="DejaVuSans-72" d="M 2631 2963 
Q 2534 3019 2420 3045 
Q 2306 3072 2169 3072 
Q 1681 3072 1420 2755 
Q 1159 2438 1159 1844 
L 1159 0 
L 581 0 
L 581 3500 
L 1159 3500 
L 1159 2956 
Q 1341 3275 1631 3429 
Q 1922 3584 2338 3584 
Q 2397 3584 2469 3576 
Q 2541 3569 2628 3553 
L 2631 2963 
z
" transform="scale(0.015625)"/>
       <path id="DejaVuSans-71" d="M 947 1747 
Q 947 1113 1208 752 
Q 1469 391 1925 391 
Q 2381 391 2643 752 
Q 2906 1113 2906 1747 
Q 2906 2381 2643 2742 
Q 2381 3103 1925 3103 
Q 1469 3103 1208 2742 
Q 947 2381 947 1747 
z
M 2906 525 
Q 2725 213 2448 61 
Q 2172 -91 1784 -91 
Q 1150 -91 751 415 
Q 353 922 353 1747 
Q 353 2572 751 3078 
Q 1150 3584 1784 3584 
Q 2172 3584 2448 3432 
Q 2725 3281 2906 2969 
L 2906 3500 
L 3481 3500 
L 3481 -1331 
L 2906 -1331 
L 2906 525 
z
" transform="scale(0.015625)"/>
       <path id="DejaVuSans-6e" d="M 3513 2113 
L 3513 0 
L 2938 0 
L 2938 2094 
Q 2938 2591 2744 2837 
Q 2550 3084 2163 3084 
Q 1697 3084 1428 2787 
Q 1159 2491 1159 1978 
L 1159 0 
L 581 0 
L 581 3500 
L 1159 3500 
L 1159 2956 
Q 1366 3272 1645 3428 
Q 1925 3584 2291 3584 
Q 2894 3584 3203 3211 
Q 3513 2838 3513 2113 
z
" transform="scale(0.015625)"/>
       <path id="DejaVuSans-63" d="M 3122 3366 
L 3122 2828 
Q 2878 2963 2633 3030 
Q 2388 3097 2138 3097 
Q 1578 3097 1268 2742 
Q 959 2388 959 1747 
Q 959 1106 1268 751 
Q 1578 397 2138 397 
Q 2388 397 2633 464 
Q 2878 531 3122 666 
L 3122 134 
Q 2881 22 2623 -34 
Q 2366 -91 2075 -91 
Q 1284 -91 818 406 
Q 353 903 353 1747 
Q 353 2603 823 3093 
Q 1294 3584 2113 3584 
Q 2378 3584 2631 3529 
Q 2884 3475 3122 3366 
z
" transform="scale(0.015625)"/>
       <path id="DejaVuSans-79" d="M 2059 -325 
Q 1816 -950 1584 -1140 
Q 1353 -1331 966 -1331 
L 506 -1331 
L 506 -850 
L 844 -850 
Q 1081 -850 1212 -737 
Q 1344 -625 1503 -206 
L 1606 56 
L 191 3500 
L 800 3500 
L 1894 763 
L 2988 3500 
L 3597 3500 
L 2059 -325 
z
" transform="scale(0.015625)"/>
       <path id="DejaVuSans-5b" d="M 550 4863 
L 1875 4863 
L 1875 4416 
L 1125 4416 
L 1125 -397 
L 1875 -397 
L 1875 -844 
L 550 -844 
L 550 4863 
z
" transform="scale(0.015625)"/>
       <path id="DejaVuSans-4d" d="M 628 4666 
L 1569 4666 
L 2759 1491 
L 3956 4666 
L 4897 4666 
L 4897 0 
L 4281 0 
L 4281 4097 
L 3078 897 
L 2444 897 
L 1241 4097 
L 1241 0 
L 628 0 
L 628 4666 
z
" transform="scale(0.015625)"/>
       <path id="DejaVuSans-48" d="M 628 4666 
L 1259 4666 
L 1259 2753 
L 3553 2753 
L 3553 4666 
L 4184 4666 
L 4184 0 
L 3553 0 
L 3553 2222 
L 1259 2222 
L 1259 0 
L 628 0 
L 628 4666 
z
" transform="scale(0.015625)"/>
       <path id="DejaVuSans-7a" d="M 353 3500 
L 3084 3500 
L 3084 2975 
L 922 459 
L 3084 459 
L 3084 0 
L 275 0 
L 275 525 
L 2438 3041 
L 353 3041 
L 353 3500 
z
" transform="scale(0.015625)"/>
       <path id="DejaVuSans-5d" d="M 1947 4863 
L 1947 -844 
L 622 -844 
L 622 -397 
L 1369 -397 
L 1369 4416 
L 622 4416 
L 622 4863 
L 1947 4863 
z
" transform="scale(0.015625)"/>
      </defs>
      <use xlink:href="#DejaVuSans-52"/>
      <use xlink:href="#DejaVuSans-65" x="64.982422"/>
      <use xlink:href="#DejaVuSans-61" x="126.505859"/>
      <use xlink:href="#DejaVuSans-64" x="187.785156"/>
      <use xlink:href="#DejaVuSans-6f" x="251.261719"/>
      <use xlink:href="#DejaVuSans-75" x="312.443359"/>
      <use xlink:href="#DejaVuSans-74" x="375.822266"/>
      <use xlink:href="#DejaVuSans-20" x="415.03125"/>
      <use xlink:href="#DejaVuSans-66" x="446.818359"/>
      <use xlink:href="#DejaVuSans-72" x="482.023438"/>
      <use xlink:href="#DejaVuSans-65" x="520.886719"/>
      <use xlink:href="#DejaVuSans-71" x="582.410156"/>
      <use xlink:href="#DejaVuSans-75" x="645.886719"/>
      <use xlink:href="#DejaVuSans-65" x="709.265625"/>
      <use xlink:href="#DejaVuSans-6e" x="770.789062"/>
      <use xlink:href="#DejaVuSans-63" x="834.167969"/>
      <use xlink:href="#DejaVuSans-79" x="889.148438"/>
      <use xlink:href="#DejaVuSans-20" x="948.328125"/>
      <use xlink:href="#DejaVuSans-5b" x="980.115234"/>
      <use xlink:href="#DejaVuSans-4d" x="1019.128906"/>
      <use xlink:href="#DejaVuSans-48" x="1105.408203"/>
      <use xlink:href="#DejaVuSans-7a" x="1180.603516"/>
      <use xlink:href="#DejaVuSans-5d" x="1233.09375"/>
     </g>
    </g>
    <g id="text_10">
     <!-- +7 GHz -->
     <g transform="translate(369.255938 335.148562) scale(0.1 -0.1)">
      <defs>
       <path id="DejaVuSans-2b" d="M 2944 4013 
L 2944 2272 
L 4684 2272 
L 4684 1741 
L 2944 1741 
L 2944 0 
L 2419 0 
L 2419 1741 
L 678 1741 
L 678 2272 
L 2419 2272 
L 2419 4013 
L 2944 4013 
z
" transform="scale(0.015625)"/>
       <path id="DejaVuSans-47" d="M 3809 666 
L 3809 1919 
L 2778 1919 
L 2778 2438 
L 4434 2438 
L 4434 434 
Q 4069 175 3628 42 
Q 3188 -91 2688 -91 
Q 1594 -91 976 548 
Q 359 1188 359 2328 
Q 359 3472 976 4111 
Q 1594 4750 2688 4750 
Q 3144 4750 3555 4637 
Q 3966 4525 4313 4306 
L 4313 3634 
Q 3963 3931 3569 4081 
Q 3175 4231 2741 4231 
Q 1884 4231 1454 3753 
Q 1025 3275 1025 2328 
Q 1025 1384 1454 906 
Q 1884 428 2741 428 
Q 3075 428 3337 486 
Q 3600 544 3809 666 
z
" transform="scale(0.015625)"/>
      </defs>
      <use xlink:href="#DejaVuSans-2b"/>
      <use xlink:href="#DejaVuSans-37" x="83.789062"/>
      <use xlink:href="#DejaVuSans-20" x="147.412109"/>
      <use xlink:href="#DejaVuSans-47" x="179.199219"/>
      <use xlink:href="#DejaVuSans-48" x="256.689453"/>
      <use xlink:href="#DejaVuSans-7a" x="331.884766"/>
     </g>
    </g>
   </g>
   <g id="matplotlib.axis_2">
    <g id="ytick_1">
     <g id="line2d_9">
      <defs>
       <path id="m6559c1e97d" d="M 0 0 
L -3.5 0 
" style="stroke: #000000; stroke-width: 0.8"/>
      </defs>
      <g>
       <use xlink:href="#m6559c1e97d" x="50.573438" y="275.767419" style="stroke: #000000; stroke-width: 0.8"/>
      </g>
     </g>
     <g id="text_11">
      <!-- -150 -->
      <g transform="translate(20.878125 279.566638) scale(0.1 -0.1)">
       <defs>
        <path id="DejaVuSans-2d" d="M 313 2009 
L 1997 2009 
L 1997 1497 
L 313 1497 
L 313 2009 
z
" transform="scale(0.015625)"/>
        <path id="DejaVuSans-31" d="M 794 531 
L 1825 531 
L 1825 4091 
L 703 3866 
L 703 4441 
L 1819 4666 
L 2450 4666 
L 2450 531 
L 3481 531 
L 3481 0 
L 794 0 
L 794 531 
z
" transform="scale(0.015625)"/>
        <path id="DejaVuSans-30" d="M 2034 4250 
Q 1547 4250 1301 3770 
Q 1056 3291 1056 2328 
Q 1056 1369 1301 889 
Q 1547 409 2034 409 
Q 2525 409 2770 889 
Q 3016 1369 3016 2328 
Q 3016 3291 2770 3770 
Q 2525 4250 2034 4250 
z
M 2034 4750 
Q 2819 4750 3233 4129 
Q 3647 3509 3647 2328 
Q 3647 1150 3233 529 
Q 2819 -91 2034 -91 
Q 1250 -91 836 529 
Q 422 1150 422 2328 
Q 422 3509 836 4129 
Q 1250 4750 2034 4750 
z
" transform="scale(0.015625)"/>
       </defs>
       <use xlink:href="#DejaVuSans-2d"/>
       <use xlink:href="#DejaVuSans-31" x="36.083984"/>
       <use xlink:href="#DejaVuSans-35" x="99.707031"/>
       <use xlink:href="#DejaVuSans-30" x="163.330078"/>
      </g>
     </g>
    </g>
    <g id="ytick_2">
     <g id="line2d_10">
      <g>
       <use xlink:href="#m6559c1e97d" x="50.573438" y="242.066493" style="stroke: #000000; stroke-width: 0.8"/>
      </g>
     </g>
     <g id="text_12">
      <!-- -100 -->
      <g transform="translate(20.878125 245.865712) scale(0.1 -0.1)">
       <use xlink:href="#DejaVuSans-2d"/>
       <use xlink:href="#DejaVuSans-31" x="36.083984"/>
       <use xlink:href="#DejaVuSans-30" x="99.707031"/>
       <use xlink:href="#DejaVuSans-30" x="163.330078"/>
      </g>
     </g>
    </g>
    <g id="ytick_3">
     <g id="line2d_11">
      <g>
       <use xlink:href="#m6559c1e97d" x="50.573438" y="208.365567" style="stroke: #000000; stroke-width: 0.8"/>
      </g>
     </g>
     <g id="text_13">
      <!-- -50 -->
      <g transform="translate(27.240625 212.164786) scale(0.1 -0.1)">
       <use xlink:href="#DejaVuSans-2d"/>
       <use xlink:href="#DejaVuSans-35" x="36.083984"/>
       <use xlink:href="#DejaVuSans-30" x="99.707031"/>
      </g>
     </g>
    </g>
    <g id="ytick_4">
     <g id="line2d_12">
      <g>
       <use xlink:href="#m6559c1e97d" x="50.573438" y="174.664641" style="stroke: #000000; stroke-width: 0.8"/>
      </g>
     </g>
     <g id="text_14">
      <!-- 0 -->
      <g transform="translate(37.210938 178.46386) scale(0.1 -0.1)">
       <use xlink:href="#DejaVuSans-30"/>
      </g>
     </g>
    </g>
    <g id="ytick_5">
     <g id="line2d_13">
      <g>
       <use xlink:href="#m6559c1e97d" x="50.573438" y="140.963715" style="stroke: #000000; stroke-width: 0.8"/>
      </g>
     </g>
     <g id="text_15">
      <!-- 50 -->
      <g transform="translate(30.848438 144.762934) scale(0.1 -0.1)">
       <use xlink:href="#DejaVuSans-35"/>
       <use xlink:href="#DejaVuSans-30" x="63.623047"/>
      </g>
     </g>
    </g>
    <g id="ytick_6">
     <g id="line2d_14">
      <g>
       <use xlink:href="#m6559c1e97d" x="50.573438" y="107.262789" style="stroke: #000000; stroke-width: 0.8"/>
      </g>
     </g>
     <g id="text_16">
      <!-- 100 -->
      <g transform="translate(24.485938 111.062008) scale(0.1 -0.1)">
       <use xlink:href="#DejaVuSans-31"/>
       <use xlink:href="#DejaVuSans-30" x="63.623047"/>
       <use xlink:href="#DejaVuSans-30" x="127.246094"/>
      </g>
     </g>
    </g>
    <g id="ytick_7">
     <g id="line2d_15">
      <g>
       <use xlink:href="#m6559c1e97d" x="50.573438" y="73.561863" style="stroke: #000000; stroke-width: 0.8"/>
      </g>
     </g>
     <g id="text_17">
      <!-- 150 -->
      <g transform="translate(24.485938 77.361082) scale(0.1 -0.1)">
       <use xlink:href="#DejaVuSans-31"/>
       <use xlink:href="#DejaVuSans-35" x="63.623047"/>
       <use xlink:href="#DejaVuSans-30" x="127.246094"/>
      </g>
     </g>
    </g>
    <g id="text_18">
     <!-- Phase0 [deg] -->
     <g transform="translate(14.798438 207.841781) rotate(-90) scale(0.1 -0.1)">
      <defs>
       <path id="DejaVuSans-50" d="M 1259 4147 
L 1259 2394 
L 2053 2394 
Q 2494 2394 2734 2622 
Q 2975 2850 2975 3272 
Q 2975 3691 2734 3919 
Q 2494 4147 2053 4147 
L 1259 4147 
z
M 628 4666 
L 2053 4666 
Q 2838 4666 3239 4311 
Q 3641 3956 3641 3272 
Q 3641 2581 3239 2228 
Q 2838 1875 2053 1875 
L 1259 1875 
L 1259 0 
L 628 0 
L 628 4666 
z
" transform="scale(0.015625)"/>
       <path id="DejaVuSans-68" d="M 3513 2113 
L 3513 0 
L 2938 0 
L 2938 2094 
Q 2938 2591 2744 2837 
Q 2550 3084 2163 3084 
Q 1697 3084 1428 2787 
Q 1159 2491 1159 1978 
L 1159 0 
L 581 0 
L 581 4863 
L 1159 4863 
L 1159 2956 
Q 1366 3272 1645 3428 
Q 1925 3584 2291 3584 
Q 2894 3584 3203 3211 
Q 3513 2838 3513 2113 
z
" transform="scale(0.015625)"/>
       <path id="DejaVuSans-73" d="M 2834 3397 
L 2834 2853 
Q 2591 2978 2328 3040 
Q 2066 3103 1784 3103 
Q 1356 3103 1142 2972 
Q 928 2841 928 2578 
Q 928 2378 1081 2264 
Q 1234 2150 1697 2047 
L 1894 2003 
Q 2506 1872 2764 1633 
Q 3022 1394 3022 966 
Q 3022 478 2636 193 
Q 2250 -91 1575 -91 
Q 1294 -91 989 -36 
Q 684 19 347 128 
L 347 722 
Q 666 556 975 473 
Q 1284 391 1588 391 
Q 1994 391 2212 530 
Q 2431 669 2431 922 
Q 2431 1156 2273 1281 
Q 2116 1406 1581 1522 
L 1381 1569 
Q 847 1681 609 1914 
Q 372 2147 372 2553 
Q 372 3047 722 3315 
Q 1072 3584 1716 3584 
Q 2034 3584 2315 3537 
Q 2597 3491 2834 3397 
z
" transform="scale(0.015625)"/>
       <path id="DejaVuSans-67" d="M 2906 1791 
Q 2906 2416 2648 2759 
Q 2391 3103 1925 3103 
Q 1463 3103 1205 2759 
Q 947 2416 947 1791 
Q 947 1169 1205 825 
Q 1463 481 1925 481 
Q 2391 481 2648 825 
Q 2906 1169 2906 1791 
z
M 3481 434 
Q 3481 -459 3084 -895 
Q 2688 -1331 1869 -1331 
Q 1566 -1331 1297 -1286 
Q 1028 -1241 775 -1147 
L 775 -588 
Q 1028 -725 1275 -790 
Q 1522 -856 1778 -856 
Q 2344 -856 2625 -561 
Q 2906 -266 2906 331 
L 2906 616 
Q 2728 306 2450 153 
Q 2172 0 1784 0 
Q 1141 0 747 490 
Q 353 981 353 1791 
Q 353 2603 747 3093 
Q 1141 3584 1784 3584 
Q 2172 3584 2450 3431 
Q 2728 3278 2906 2969 
L 2906 3500 
L 3481 3500 
L 3481 434 
z
" transform="scale(0.015625)"/>
      </defs>
      <use xlink:href="#DejaVuSans-50"/>
      <use xlink:href="#DejaVuSans-68" x="60.302734"/>
      <use xlink:href="#DejaVuSans-61" x="123.681641"/>
      <use xlink:href="#DejaVuSans-73" x="184.960938"/>
      <use xlink:href="#DejaVuSans-65" x="237.060547"/>
      <use xlink:href="#DejaVuSans-30" x="298.583984"/>
      <use xlink:href="#DejaVuSans-20" x="362.207031"/>
      <use xlink:href="#DejaVuSans-5b" x="393.994141"/>
      <use xlink:href="#DejaVuSans-64" x="433.007812"/>
      <use xlink:href="#DejaVuSans-65" x="496.484375"/>
      <use xlink:href="#DejaVuSans-67" x="558.007812"/>
      <use xlink:href="#DejaVuSans-5d" x="621.484375"/>
     </g>
    </g>
   </g>
   <g id="line2d_16">
    <path d="M 66.806165 199.645319 
L 75.13064 205.050953 
L 83.455116 211.315276 
L 91.779591 217.190779 
L 100.104067 222.116949 
L 108.428542 228.863036 
L 116.753018 233.791464 
L 125.077493 240.284476 
L 133.401969 245.086483 
L 141.726444 250.300802 
L 150.05092 257.200147 
L 158.375396 261.613092 
L 166.699871 267.343789 
L 175.024347 273.140731 
L 183.348822 277.460409 
L 191.673298 285.19046 
L 199.997773 290.090664 
L 208.322249 53.856 
L 216.646724 60.617029 
L 224.9712 66.445233 
L 233.295675 73.308949 
L 241.620151 82.094211 
L 249.944626 89.920525 
L 258.269102 98.175311 
L 266.593577 108.532893 
L 274.918053 115.607411 
L 283.242528 97.22704 
L 291.567004 68.804187 
L 299.891479 76.116969 
L 308.215955 88.819227 
L 316.540431 98.535948 
L 324.864906 106.045236 
L 333.189382 113.827982 
L 341.513857 121.221053 
L 349.838333 128.51507 
L 358.162808 134.343898 
L 366.487284 139.048829 
L 374.811759 147.285398 
L 383.136235 152.323879 
L 391.46071 158.793311 
" clip-path="url(#p8101149398)" style="fill: none; stroke: #440154; stroke-width: 1.5; stroke-linecap: square"/>
   </g>
   <g id="line2d_17">
    <path d="M 66.806165 199.956663 
L 75.13064 205.398456 
L 83.455116 210.802133 
L 91.779591 216.420804 
L 100.104067 222.046181 
L 108.428542 227.419965 
L 116.753018 233.041576 
L 125.077493 238.708498 
L 133.401969 244.285231 
L 141.726444 250.105583 
L 150.05092 255.602429 
L 158.375396 261.246793 
L 166.699871 267.051515 
L 175.024347 272.951593 
L 183.348822 278.671089 
L 191.673298 284.737099 
L 199.997773 290.669435 
L 208.322249 54.20316 
L 216.646724 60.83189 
L 224.9712 67.130538 
L 233.295675 74.074786 
L 241.620151 81.592716 
L 249.944626 89.514714 
L 258.269102 98.857934 
L 266.593577 108.987729 
L 274.918053 119.240501 
L 283.242528 91.085077 
L 291.567004 65.646304 
L 299.891479 76.945862 
L 308.215955 88.61908 
L 316.540431 98.369141 
L 324.864906 106.831693 
L 333.189382 114.498786 
L 341.513857 121.49055 
L 349.838333 128.19852 
L 358.162808 134.71235 
L 366.487284 140.869079 
L 374.811759 146.930473 
L 383.136235 152.819066 
L 391.46071 158.806504 
" clip-path="url(#p8101149398)" style="fill: none; stroke: #471365; stroke-width: 1.5; stroke-linecap: square"/>
   </g>
   <g id="line2d_18">
    <path d="M 66.806165 199.963574 
L 75.13064 205.352596 
L 83.455116 210.95077 
L 91.779591 216.425323 
L 100.104067 222.007921 
L 108.428542 227.495087 
L 116.753018 233.091641 
L 125.077493 238.760914 
L 133.401969 244.271845 
L 141.726444 249.946226 
L 150.05092 255.650299 
L 158.375396 261.246226 
L 166.699871 267.076941 
L 175.024347 272.902748 
L 183.348822 278.729672 
L 191.673298 284.683867 
L 199.997773 290.797902 
L 208.322249 54.287251 
L 216.646724 60.638804 
L 224.9712 67.176076 
L 233.295675 74.030268 
L 241.620151 81.319292 
L 249.944626 89.636616 
L 258.269102 98.759135 
L 266.593577 109.500451 
L 274.918053 119.310046 
L 283.242528 84.352661 
L 291.567004 65.765688 
L 299.891479 77.380326 
L 308.215955 88.706619 
L 316.540431 98.432676 
L 324.864906 106.833686 
L 333.189382 114.509387 
L 341.513857 121.473444 
L 349.838333 128.19913 
L 358.162808 134.604464 
L 366.487284 140.861327 
L 374.811759 146.945912 
L 383.136235 152.881926 
L 391.46071 158.873544 
" clip-path="url(#p8101149398)" style="fill: none; stroke: #482475; stroke-width: 1.5; stroke-linecap: square"/>
   </g>
   <g id="line2d_19">
    <path d="M 66.806165 199.927549 
L 75.13064 205.333612 
L 83.455116 210.858603 
L 91.779591 216.476164 
L 100.104067 221.882145 
L 108.428542 227.514939 
L 116.753018 233.123368 
L 125.077493 238.747444 
L 133.401969 244.296072 
L 141.726444 249.926215 
L 150.05092 255.606909 
L 158.375396 261.311773 
L 166.699871 267.073001 
L 175.024347 272.879474 
L 183.348822 278.694806 
L 191.673298 284.579506 
L 199.997773 290.699687 
L 208.322249 54.165328 
L 216.646724 60.585153 
L 224.9712 67.138577 
L 233.295675 74.036364 
L 241.620151 81.492951 
L 249.944626 89.623588 
L 258.269102 99.106865 
L 266.593577 110.029 
L 274.918053 119.805064 
L 283.242528 75.496639 
L 291.567004 65.827384 
L 299.891479 77.543956 
L 308.215955 88.848297 
L 316.540431 98.496609 
L 324.864906 106.863424 
L 333.189382 114.422965 
L 341.513857 121.544014 
L 349.838333 128.152888 
L 358.162808 134.593997 
L 366.487284 140.830487 
L 374.811759 146.933039 
L 383.136235 152.908308 
L 391.46071 158.682365 
" clip-path="url(#p8101149398)" style="fill: none; stroke: #463480; stroke-width: 1.5; stroke-linecap: square"/>
   </g>
   <g id="line2d_20">
    <path d="M 66.806165 199.876388 
L 75.13064 205.290614 
L 83.455116 210.909664 
L 91.779591 216.410874 
L 100.104067 221.970597 
L 108.428542 227.526555 
L 116.753018 233.055221 
L 125.077493 238.678447 
L 133.401969 244.299168 
L 141.726444 249.888519 
L 150.05092 255.57222 
L 158.375396 261.26385 
L 166.699871 267.020282 
L 175.024347 272.829083 
L 183.348822 278.651054 
L 191.673298 284.614282 
L 199.997773 290.607059 
L 208.322249 54.164662 
L 216.646724 60.539948 
L 224.9712 67.177517 
L 233.295675 74.075842 
L 241.620151 81.524739 
L 249.944626 89.715885 
L 258.269102 99.135742 
L 266.593577 110.240781 
L 274.918053 118.290077 
L 283.242528 68.484776 
L 291.567004 67.223189 
L 299.891479 78.442633 
L 308.215955 89.147838 
L 316.540431 98.590181 
L 324.864906 106.899664 
L 333.189382 114.446152 
L 341.513857 121.519142 
L 349.838333 128.205705 
L 358.162808 134.615545 
L 366.487284 140.775937 
L 374.811759 146.904035 
L 383.136235 152.842552 
L 391.46071 158.71881 
" clip-path="url(#p8101149398)" style="fill: none; stroke: #414487; stroke-width: 1.5; stroke-linecap: square"/>
   </g>
   <g id="line2d_21">
    <path d="M 66.806165 199.81488 
L 75.13064 205.32168 
L 83.455116 210.878089 
L 91.779591 216.375719 
L 100.104067 221.940388 
L 108.428542 227.454088 
L 116.753018 233.097636 
L 125.077493 238.642425 
L 133.401969 244.245142 
L 141.726444 249.911046 
L 150.05092 255.555672 
L 158.375396 261.252534 
L 166.699871 267.036573 
L 175.024347 272.87396 
L 183.348822 278.653744 
L 191.673298 284.614967 
L 199.997773 290.630051 
L 208.322249 54.18091 
L 216.646724 60.566153 
L 224.9712 67.094656 
L 233.295675 74.058676 
L 241.620151 81.530842 
L 249.944626 89.842526 
L 258.269102 99.562692 
L 266.593577 111.085142 
L 274.918053 116.75272 
L 283.242528 63.714638 
L 291.567004 67.690209 
L 299.891479 79.172503 
L 308.215955 89.767573 
L 316.540431 98.80938 
L 324.864906 107.045572 
L 333.189382 114.492761 
L 341.513857 121.514422 
L 349.838333 128.202087 
L 358.162808 134.563897 
L 366.487284 140.796873 
L 374.811759 146.856931 
L 383.136235 152.842024 
L 391.46071 158.719342 
" clip-path="url(#p8101149398)" style="fill: none; stroke: #3b528b; stroke-width: 1.5; stroke-linecap: square"/>
   </g>
   <g id="line2d_22">
    <path d="M 66.806165 199.806023 
L 75.13064 205.269962 
L 83.455116 210.843641 
L 91.779591 216.355706 
L 100.104067 221.897661 
L 108.428542 227.421909 
L 116.753018 233.015402 
L 125.077493 238.650302 
L 133.401969 244.24633 
L 141.726444 249.842651 
L 150.05092 255.55054 
L 158.375396 261.273825 
L 166.699871 266.98179 
L 175.024347 272.751768 
L 183.348822 278.624861 
L 191.673298 284.570864 
L 199.997773 290.642901 
L 208.322249 54.11756 
L 216.646724 60.575269 
L 224.9712 67.125399 
L 233.295675 74.050134 
L 241.620151 81.575713 
L 249.944626 89.954572 
L 258.269102 99.480154 
L 266.593577 110.697053 
L 274.918053 97.64918 
L 283.242528 70.998696 
L 291.567004 75.800476 
L 299.891479 83.956494 
L 308.215955 92.248625 
L 316.540431 100.125406 
L 324.864906 107.652079 
L 333.189382 114.769855 
L 341.513857 121.615567 
L 349.838333 128.19761 
L 358.162808 134.549834 
L 366.487284 140.783383 
L 374.811759 146.87268 
L 383.136235 152.854621 
L 391.46071 158.700195 
" clip-path="url(#p8101149398)" style="fill: none; stroke: #355f8d; stroke-width: 1.5; stroke-linecap: square"/>
   </g>
   <g id="line2d_23">
    <path d="M 66.806165 199.760434 
L 75.13064 205.277516 
L 83.455116 210.826792 
L 91.779591 216.307145 
L 100.104067 221.860324 
L 108.428542 227.428167 
L 116.753018 232.997062 
L 125.077493 238.586054 
L 133.401969 244.205788 
L 141.726444 249.841721 
L 150.05092 255.52181 
L 158.375396 261.228806 
L 166.699871 266.929394 
L 175.024347 272.757039 
L 183.348822 278.600422 
L 191.673298 284.562921 
L 199.997773 290.610867 
L 208.322249 54.191178 
L 216.646724 60.531022 
L 224.9712 67.132278 
L 233.295675 74.097214 
L 241.620151 81.705948 
L 249.944626 90.035801 
L 258.269102 100.100157 
L 266.593577 102.130701 
L 274.918053 76.559484 
L 283.242528 80.128676 
L 291.567004 85.943756 
L 299.891479 91.723773 
L 308.215955 97.238628 
L 316.540431 103.200611 
L 324.864906 109.27256 
L 333.189382 115.56087 
L 341.513857 121.993106 
L 349.838333 128.37889 
L 358.162808 134.651855 
L 366.487284 140.789822 
L 374.811759 146.833583 
L 383.136235 152.801761 
L 391.46071 158.686121 
" clip-path="url(#p8101149398)" style="fill: none; stroke: #2f6c8e; stroke-width: 1.5; stroke-linecap: square"/>
   </g>
   <g id="line2d_24">
    <path d="M 66.806165 199.757211 
L 75.13064 205.240919 
L 83.455116 210.758964 
L 91.779591 216.312039 
L 100.104067 221.851095 
L 108.428542 227.393252 
L 116.753018 232.98266 
L 125.077493 238.557788 
L 133.401969 244.175427 
L 141.726444 249.800079 
L 150.05092 255.470029 
L 158.375396 261.191126 
L 166.699871 266.934464 
L 175.024347 272.72997 
L 183.348822 278.610261 
L 191.673298 284.538495 
L 199.997773 290.601427 
L 208.322249 54.15616 
L 216.646724 60.568009 
L 224.9712 67.215578 
L 233.295675 74.180115 
L 241.620151 81.701575 
L 249.944626 90.000329 
L 258.269102 99.45929 
L 266.593577 79.822449 
L 274.918053 74.524092 
L 283.242528 80.759458 
L 291.567004 87.355483 
L 299.891479 93.187676 
L 308.215955 98.706375 
L 316.540431 104.485195 
L 324.864906 110.279263 
L 333.189382 116.455041 
L 341.513857 122.526934 
L 349.838333 128.629078 
L 358.162808 134.765115 
L 366.487284 140.839799 
L 374.811759 146.866254 
L 383.136235 152.777724 
L 391.46071 158.665765 
" clip-path="url(#p8101149398)" style="fill: none; stroke: #2a788e; stroke-width: 1.5; stroke-linecap: square"/>
   </g>
   <g id="line2d_25">
    <path d="M 66.806165 199.740599 
L 75.13064 205.23167 
L 83.455116 210.754029 
L 91.779591 216.268377 
L 100.104067 221.80411 
L 108.428542 227.369467 
L 116.753018 232.945055 
L 125.077493 238.551209 
L 133.401969 244.130003 
L 141.726444 249.787402 
L 150.05092 255.481761 
L 158.375396 261.147219 
L 166.699871 266.91724 
L 175.024347 272.724058 
L 183.348822 278.560341 
L 191.673298 284.521623 
L 199.997773 290.618931 
L 208.322249 54.118089 
L 216.646724 60.500118 
L 224.9712 67.17338 
L 233.295675 74.254225 
L 241.620151 81.808882 
L 249.944626 90.161085 
L 258.269102 95.98666 
L 266.593577 70.026245 
L 274.918053 75.690447 
L 283.242528 82.237035 
L 291.567004 88.071733 
L 299.891479 94.020413 
L 308.215955 99.93149 
L 316.540431 105.450674 
L 324.864906 110.977295 
L 333.189382 116.784088 
L 341.513857 122.772667 
L 349.838333 128.856108 
L 358.162808 134.907162 
L 366.487284 140.949201 
L 374.811759 146.903307 
L 383.136235 152.82569 
L 391.46071 158.663464 
" clip-path="url(#p8101149398)" style="fill: none; stroke: #25848e; stroke-width: 1.5; stroke-linecap: square"/>
   </g>
   <g id="line2d_26">
    <path d="M 66.806165 199.715721 
L 75.13064 205.235022 
L 83.455116 210.746756 
L 91.779591 216.279389 
L 100.104067 221.800616 
L 108.428542 227.354467 
L 116.753018 232.926542 
L 125.077493 238.526001 
L 133.401969 244.114227 
L 141.726444 249.772138 
L 150.05092 255.447431 
L 158.375396 261.155961 
L 166.699871 266.898463 
L 175.024347 272.675303 
L 183.348822 278.582071 
L 191.673298 284.554608 
L 199.997773 290.638964 
L 208.322249 54.188575 
L 216.646724 60.571292 
L 224.9712 67.278993 
L 233.295675 74.308739 
L 241.620151 81.812761 
L 249.944626 88.192173 
L 258.269102 71.562088 
L 266.593577 69.915831 
L 274.918053 76.490529 
L 283.242528 83.12982 
L 291.567004 88.788071 
L 299.891479 94.556495 
L 308.215955 100.354006 
L 316.540431 106.041788 
L 324.864906 111.915923 
L 333.189382 117.523994 
L 341.513857 123.336863 
L 349.838333 129.277439 
L 358.162808 135.13021 
L 366.487284 141.021333 
L 374.811759 146.915968 
L 383.136235 152.832287 
L 391.46071 158.652543 
" clip-path="url(#p8101149398)" style="fill: none; stroke: #21918c; stroke-width: 1.5; stroke-linecap: square"/>
   </g>
   <g id="line2d_27">
    <path d="M 66.806165 199.692401 
L 75.13064 205.202035 
L 83.455116 210.718305 
L 91.779591 216.249434 
L 100.104067 221.782995 
L 108.428542 227.337954 
L 116.753018 232.89716 
L 125.077493 238.523172 
L 133.401969 244.099507 
L 141.726444 249.738698 
L 150.05092 255.412905 
L 158.375396 261.125908 
L 166.699871 266.871241 
L 175.024347 272.67001 
L 183.348822 278.542235 
L 191.673298 284.520861 
L 199.997773 290.587506 
L 208.322249 54.168763 
L 216.646724 60.603772 
L 224.9712 67.314631 
L 233.295675 74.254064 
L 241.620151 80.598536 
L 249.944626 82.350044 
L 258.269102 65.803005 
L 266.593577 69.10391 
L 274.918053 76.029736 
L 283.242528 82.870341 
L 291.567004 89.146083 
L 299.891479 94.752601 
L 308.215955 100.633011 
L 316.540431 106.453406 
L 324.864906 112.197075 
L 333.189382 118.011363 
L 341.513857 123.62205 
L 349.838333 129.40509 
L 358.162808 135.235383 
L 366.487284 141.106473 
L 374.811759 146.984554 
L 383.136235 152.846637 
L 391.46071 158.666166 
" clip-path="url(#p8101149398)" style="fill: none; stroke: #1e9c89; stroke-width: 1.5; stroke-linecap: square"/>
   </g>
   <g id="line2d_28">
    <path d="M 66.806165 199.687461 
L 75.13064 205.184741 
L 83.455116 210.700357 
L 91.779591 216.225322 
L 100.104067 221.768358 
L 108.428542 227.311757 
L 116.753018 232.887952 
L 125.077493 238.503044 
L 133.401969 244.11104 
L 141.726444 249.756741 
L 150.05092 255.414349 
L 158.375396 261.116719 
L 166.699871 266.860824 
L 175.024347 272.682155 
L 183.348822 278.54983 
L 191.673298 284.507788 
L 199.997773 290.599765 
L 208.322249 54.196943 
L 216.646724 60.624249 
L 224.9712 67.375368 
L 233.295675 74.242119 
L 241.620151 80.710935 
L 249.944626 63.760763 
L 258.269102 62.344765 
L 266.593577 68.766759 
L 274.918053 76.145105 
L 283.242528 82.96448 
L 291.567004 89.527631 
L 299.891479 95.549705 
L 308.215955 101.352079 
L 316.540431 107.050196 
L 324.864906 112.857367 
L 333.189382 118.574795 
L 341.513857 124.294342 
L 349.838333 129.951114 
L 358.162808 135.656948 
L 366.487284 141.382285 
L 374.811759 147.156573 
L 383.136235 152.946707 
L 391.46071 158.710844 
" clip-path="url(#p8101149398)" style="fill: none; stroke: #22a884; stroke-width: 1.5; stroke-linecap: square"/>
   </g>
   <g id="line2d_29">
    <path d="M 66.806165 199.718344 
L 75.13064 205.233317 
L 83.455116 210.725102 
L 91.779591 216.238596 
L 100.104067 221.779173 
L 108.428542 227.33941 
L 116.753018 232.929231 
L 125.077493 238.507716 
L 133.401969 244.109613 
L 141.726444 249.760133 
L 150.05092 255.436254 
L 158.375396 261.135211 
L 166.699871 266.89856 
L 175.024347 272.703226 
L 183.348822 278.580386 
L 191.673298 284.53757 
L 199.997773 290.643801 
L 208.322249 54.255268 
L 216.646724 60.750316 
L 224.9712 67.489238 
L 233.295675 74.147981 
L 241.620151 77.065023 
L 249.944626 55.69326 
L 258.269102 60.476616 
L 266.593577 68.289466 
L 274.918053 76.130857 
L 283.242528 82.994534 
L 291.567004 89.728683 
L 299.891479 95.819232 
L 308.215955 101.715736 
L 316.540431 107.327198 
L 324.864906 113.11853 
L 333.189382 118.76067 
L 341.513857 124.429953 
L 349.838333 130.142786 
L 358.162808 135.807218 
L 366.487284 141.52065 
L 374.811759 147.278149 
L 383.136235 153.039693 
L 391.46071 158.795579 
" clip-path="url(#p8101149398)" style="fill: none; stroke: #2fb47c; stroke-width: 1.5; stroke-linecap: square"/>
   </g>
   <g id="line2d_30">
    <path d="M 66.806165 199.714973 
L 75.13064 205.216022 
L 83.455116 210.712706 
L 91.779591 216.246681 
L 100.104067 221.778892 
L 108.428542 227.335698 
L 116.753018 232.916255 
L 125.077493 238.487417 
L 133.401969 244.11342 
L 141.726444 249.759969 
L 150.05092 255.425747 
L 158.375396 261.123187 
L 166.699871 266.89352 
L 175.024347 272.687277 
L 183.348822 278.571144 
L 191.673298 284.527513 
L 199.997773 290.651318 
L 208.322249 54.243546 
L 216.646724 60.810627 
L 224.9712 67.724794 
L 233.295675 73.98447 
L 241.620151 295.776 
L 249.944626 294.555291 
L 258.269102 60.015372 
L 266.593577 68.207439 
L 274.918053 76.150887 
L 283.242528 83.326698 
L 291.567004 89.962022 
L 299.891479 96.256369 
L 308.215955 102.107547 
L 316.540431 107.919361 
L 324.864906 113.473375 
L 333.189382 119.129075 
L 341.513857 124.727257 
L 349.838333 130.376763 
L 358.162808 136.00489 
L 366.487284 141.632729 
L 374.811759 147.360816 
L 383.136235 153.091943 
L 391.46071 158.798383 
" clip-path="url(#p8101149398)" style="fill: none; stroke: #44bf70; stroke-width: 1.5; stroke-linecap: square"/>
   </g>
   <g id="line2d_31">
    <path d="M 66.806165 199.770412 
L 75.13064 205.274492 
L 83.455116 210.751506 
L 91.779591 216.280883 
L 100.104067 221.812728 
L 108.428542 227.360956 
L 116.753018 232.925323 
L 125.077493 238.517845 
L 133.401969 244.134446 
L 141.726444 249.794481 
L 150.05092 255.464003 
L 158.375396 261.173356 
L 166.699871 266.928892 
L 175.024347 272.732234 
L 183.348822 278.611429 
L 191.673298 284.585398 
L 199.997773 290.680019 
L 208.322249 54.371076 
L 216.646724 61.056532 
L 224.9712 68.023278 
L 233.295675 72.908519 
L 241.620151 288.439609 
L 249.944626 293.185373 
L 258.269102 59.646466 
L 266.593577 68.236724 
L 274.918053 75.980809 
L 283.242528 83.150646 
L 291.567004 89.653115 
L 299.891479 96.05962 
L 308.215955 101.999391 
L 316.540431 107.753726 
L 324.864906 113.523107 
L 333.189382 119.240004 
L 341.513857 124.901946 
L 349.838333 130.515677 
L 358.162808 136.174962 
L 366.487284 141.897621 
L 374.811759 147.527636 
L 383.136235 153.256298 
L 391.46071 158.960139 
" clip-path="url(#p8101149398)" style="fill: none; stroke: #5ec962; stroke-width: 1.5; stroke-linecap: square"/>
   </g>
   <g id="line2d_32">
    <path d="M 66.806165 199.833515 
L 75.13064 205.298001 
L 83.455116 210.790506 
L 91.779591 216.308971 
L 100.104067 221.839917 
L 108.428542 227.397758 
L 116.753018 232.946411 
L 125.077493 238.545846 
L 133.401969 244.162679 
L 141.726444 249.80567 
L 150.05092 255.479325 
L 158.375396 261.20089 
L 166.699871 266.950155 
L 175.024347 272.781603 
L 183.348822 278.671088 
L 191.673298 284.644555 
L 199.997773 290.777351 
L 208.322249 54.588141 
L 216.646724 61.461841 
L 224.9712 68.772097 
L 233.295675 64.500074 
L 241.620151 282.335969 
L 249.944626 292.094409 
L 258.269102 59.058665 
L 266.593577 67.960527 
L 274.918053 75.925726 
L 283.242528 83.124271 
L 291.567004 89.793822 
L 299.891479 96.152186 
L 308.215955 102.30644 
L 316.540431 108.067957 
L 324.864906 113.917078 
L 333.189382 119.594472 
L 341.513857 125.14422 
L 349.838333 130.822695 
L 358.162808 136.460918 
L 366.487284 142.111887 
L 374.811759 147.742577 
L 383.136235 153.397111 
L 391.46071 159.078994 
" clip-path="url(#p8101149398)" style="fill: none; stroke: #7ad151; stroke-width: 1.5; stroke-linecap: square"/>
   </g>
   <g id="line2d_33">
    <path d="M 66.806165 199.906867 
L 75.13064 205.361572 
L 83.455116 210.831495 
L 91.779591 216.355505 
L 100.104067 221.883253 
L 108.428542 227.429892 
L 116.753018 233.013445 
L 125.077493 238.605969 
L 133.401969 244.22744 
L 141.726444 249.857541 
L 150.05092 255.545272 
L 158.375396 261.242727 
L 166.699871 267.011373 
L 175.024347 272.841668 
L 183.348822 278.724153 
L 191.673298 284.718349 
L 199.997773 290.879302 
L 208.322249 54.714149 
L 216.646724 61.568162 
L 224.9712 71.047471 
L 233.295675 64.094701 
L 241.620151 281.74396 
L 249.944626 291.550824 
L 258.269102 58.944307 
L 266.593577 67.992482 
L 274.918053 75.972491 
L 283.242528 83.378658 
L 291.567004 90.175211 
L 299.891479 96.70087 
L 308.215955 102.920003 
L 316.540431 108.709613 
L 324.864906 114.359828 
L 333.189382 120.069317 
L 341.513857 125.674324 
L 349.838333 131.297991 
L 358.162808 136.909914 
L 366.487284 142.367654 
L 374.811759 147.97677 
L 383.136235 153.589367 
L 391.46071 159.225581 
" clip-path="url(#p8101149398)" style="fill: none; stroke: #9bd93c; stroke-width: 1.5; stroke-linecap: square"/>
   </g>
   <g id="line2d_34">
    <path d="M 66.806165 200.021443 
L 75.13064 205.432931 
L 83.455116 210.923885 
L 91.779591 216.424843 
L 100.104067 221.951086 
L 108.428542 227.50829 
L 116.753018 233.074615 
L 125.077493 238.677398 
L 133.401969 244.287453 
L 141.726444 249.950703 
L 150.05092 255.630837 
L 158.375396 261.339588 
L 166.699871 267.134792 
L 175.024347 272.929091 
L 183.348822 278.859438 
L 191.673298 284.867962 
L 199.997773 291.094896 
L 208.322249 55.074633 
L 216.646724 62.660569 
L 224.9712 77.036728 
L 233.295675 294.840048 
L 241.620151 279.55393 
L 249.944626 290.730573 
L 258.269102 58.780522 
L 266.593577 67.896252 
L 274.918053 75.939231 
L 283.242528 83.150746 
L 291.567004 90.019285 
L 299.891479 96.267034 
L 308.215955 102.698242 
L 316.540431 108.496171 
L 324.864906 114.276006 
L 333.189382 120.072714 
L 341.513857 125.752848 
L 349.838333 131.425209 
L 358.162808 137.014902 
L 366.487284 142.599536 
L 374.811759 148.182299 
L 383.136235 153.801148 
L 391.46071 159.421067 
" clip-path="url(#p8101149398)" style="fill: none; stroke: #bddf26; stroke-width: 1.5; stroke-linecap: square"/>
   </g>
   <g id="line2d_35">
    <path d="M 66.806165 200.075322 
L 75.13064 205.51352 
L 83.455116 211.000755 
L 91.779591 216.50247 
L 100.104067 222.03613 
L 108.428542 227.575156 
L 116.753018 233.149285 
L 125.077493 238.746889 
L 133.401969 244.367873 
L 141.726444 250.021006 
L 150.05092 255.688436 
L 158.375396 261.401547 
L 166.699871 267.179087 
L 175.024347 273.008219 
L 183.348822 278.912133 
L 191.673298 284.977177 
L 199.997773 291.353602 
L 208.322249 55.384671 
L 216.646724 65.461671 
L 224.9712 79.886658 
L 233.295675 292.283115 
L 241.620151 278.910091 
L 249.944626 290.257866 
L 258.269102 58.65767 
L 266.593577 67.850406 
L 274.918053 75.937331 
L 283.242528 83.365996 
L 291.567004 90.082096 
L 299.891479 96.361218 
L 308.215955 102.765512 
L 316.540431 108.705888 
L 324.864906 114.340801 
L 333.189382 120.137097 
L 341.513857 125.912791 
L 349.838333 131.496412 
L 358.162808 137.154283 
L 366.487284 142.733956 
L 374.811759 148.288154 
L 383.136235 153.905274 
L 391.46071 159.526065 
" clip-path="url(#p8101149398)" style="fill: none; stroke: #dfe318; stroke-width: 1.5; stroke-linecap: square"/>
   </g>
   <g id="line2d_36">
    <path d="M 66.806165 200.252814 
L 75.13064 205.663937 
L 83.455116 211.13679 
L 91.779591 216.641414 
L 100.104067 222.162103 
L 108.428542 227.694126 
L 116.753018 233.263405 
L 125.077493 238.848257 
L 133.401969 244.473158 
L 141.726444 250.124236 
L 150.05092 255.805293 
L 158.375396 261.504606 
L 166.699871 267.276858 
L 175.024347 273.106213 
L 183.348822 279.031805 
L 191.673298 285.230591 
L 199.997773 291.638466 
L 208.322249 56.120002 
L 216.646724 70.902335 
L 224.9712 84.425264 
L 233.295675 290.61304 
L 241.620151 278.149487 
L 249.944626 290.027778 
L 258.269102 58.600031 
L 266.593577 67.800378 
L 274.918053 75.912793 
L 283.242528 83.234493 
L 291.567004 90.134258 
L 299.891479 96.727411 
L 308.215955 102.815201 
L 316.540431 108.90146 
L 324.864906 114.754516 
L 333.189382 120.550249 
L 341.513857 126.234871 
L 349.838333 131.939479 
L 358.162808 137.471734 
L 366.487284 143.101817 
L 374.811759 148.64578 
L 383.136235 154.226141 
L 391.46071 159.79143 
" clip-path="url(#p8101149398)" style="fill: none; stroke: #fde725; stroke-width: 1.5; stroke-linecap: square"/>
   </g>
   <g id="patch_3">
    <path d="M 50.573438 307.872 
L 50.573438 41.76 
" style="fill: none; stroke: #000000; stroke-width: 0.8; stroke-linejoin: miter; stroke-linecap: square"/>
   </g>
   <g id="patch_4">
    <path d="M 407.693438 307.872 
L 407.693438 41.76 
" style="fill: none; stroke: #000000; stroke-width: 0.8; stroke-linejoin: miter; stroke-linecap: square"/>
   </g>
   <g id="patch_5">
    <path d="M 50.573438 307.872 
L 407.693438 307.872 
" style="fill: none; stroke: #000000; stroke-width: 0.8; stroke-linejoin: miter; stroke-linecap: square"/>
   </g>
   <g id="patch_6">
    <path d="M 50.573438 41.76 
L 407.693438 41.76 
" style="fill: none; stroke: #000000; stroke-width: 0.8; stroke-linejoin: miter; stroke-linecap: square"/>
   </g>
   <g id="legend_1">
    <g id="patch_7">
     <path d="M 427.549438 307.872 
L 701.230688 307.872 
Q 703.230688 307.872 703.230688 305.872 
L 703.230688 130.456375 
Q 703.230688 128.456375 701.230688 128.456375 
L 427.549438 128.456375 
Q 425.549438 128.456375 425.549438 130.456375 
L 425.549438 305.872 
Q 425.549438 307.872 427.549438 307.872 
z
" style="fill: #ffffff; opacity: 0.8; stroke: #cccccc; stroke-linejoin: miter"/>
    </g>
    <g id="text_19">
     <!-- q00 spec_ro Readout-spectroscopy pulse amplitude () -->
     <g transform="translate(429.549438 140.054812) scale(0.1 -0.1)">
      <defs>
       <path id="DejaVuSans-70" d="M 1159 525 
L 1159 -1331 
L 581 -1331 
L 581 3500 
L 1159 3500 
L 1159 2969 
Q 1341 3281 1617 3432 
Q 1894 3584 2278 3584 
Q 2916 3584 3314 3078 
Q 3713 2572 3713 1747 
Q 3713 922 3314 415 
Q 2916 -91 2278 -91 
Q 1894 -91 1617 61 
Q 1341 213 1159 525 
z
M 3116 1747 
Q 3116 2381 2855 2742 
Q 2594 3103 2138 3103 
Q 1681 3103 1420 2742 
Q 1159 2381 1159 1747 
Q 1159 1113 1420 752 
Q 1681 391 2138 391 
Q 2594 391 2855 752 
Q 3116 1113 3116 1747 
z
" transform="scale(0.015625)"/>
       <path id="DejaVuSans-5f" d="M 3263 -1063 
L 3263 -1509 
L -63 -1509 
L -63 -1063 
L 3263 -1063 
z
" transform="scale(0.015625)"/>
       <path id="DejaVuSans-6c" d="M 603 4863 
L 1178 4863 
L 1178 0 
L 603 0 
L 603 4863 
z
" transform="scale(0.015625)"/>
       <path id="DejaVuSans-6d" d="M 3328 2828 
Q 3544 3216 3844 3400 
Q 4144 3584 4550 3584 
Q 5097 3584 5394 3201 
Q 5691 2819 5691 2113 
L 5691 0 
L 5113 0 
L 5113 2094 
Q 5113 2597 4934 2840 
Q 4756 3084 4391 3084 
Q 3944 3084 3684 2787 
Q 3425 2491 3425 1978 
L 3425 0 
L 2847 0 
L 2847 2094 
Q 2847 2600 2669 2842 
Q 2491 3084 2119 3084 
Q 1678 3084 1418 2786 
Q 1159 2488 1159 1978 
L 1159 0 
L 581 0 
L 581 3500 
L 1159 3500 
L 1159 2956 
Q 1356 3278 1631 3431 
Q 1906 3584 2284 3584 
Q 2666 3584 2933 3390 
Q 3200 3197 3328 2828 
z
" transform="scale(0.015625)"/>
       <path id="DejaVuSans-69" d="M 603 3500 
L 1178 3500 
L 1178 0 
L 603 0 
L 603 3500 
z
M 603 4863 
L 1178 4863 
L 1178 4134 
L 603 4134 
L 603 4863 
z
" transform="scale(0.015625)"/>
       <path id="DejaVuSans-28" d="M 1984 4856 
Q 1566 4138 1362 3434 
Q 1159 2731 1159 2009 
Q 1159 1288 1364 580 
Q 1569 -128 1984 -844 
L 1484 -844 
Q 1016 -109 783 600 
Q 550 1309 550 2009 
Q 550 2706 781 3412 
Q 1013 4119 1484 4856 
L 1984 4856 
z
" transform="scale(0.015625)"/>
       <path id="DejaVuSans-29" d="M 513 4856 
L 1013 4856 
Q 1481 4119 1714 3412 
Q 1947 2706 1947 2009 
Q 1947 1309 1714 600 
Q 1481 -109 1013 -844 
L 513 -844 
Q 928 -128 1133 580 
Q 1338 1288 1338 2009 
Q 1338 2731 1133 3434 
Q 928 4138 513 4856 
z
" transform="scale(0.015625)"/>
      </defs>
      <use xlink:href="#DejaVuSans-71"/>
      <use xlink:href="#DejaVuSans-30" x="63.476562"/>
      <use xlink:href="#DejaVuSans-30" x="127.099609"/>
      <use xlink:href="#DejaVuSans-20" x="190.722656"/>
      <use xlink:href="#DejaVuSans-73" x="222.509766"/>
      <use xlink:href="#DejaVuSans-70" x="274.609375"/>
      <use xlink:href="#DejaVuSans-65" x="338.085938"/>
      <use xlink:href="#DejaVuSans-63" x="399.609375"/>
      <use xlink:href="#DejaVuSans-5f" x="454.589844"/>
      <use xlink:href="#DejaVuSans-72" x="504.589844"/>
      <use xlink:href="#DejaVuSans-6f" x="543.453125"/>
      <use xlink:href="#DejaVuSans-20" x="604.634766"/>
      <use xlink:href="#DejaVuSans-52" x="636.421875"/>
      <use xlink:href="#DejaVuSans-65" x="701.404297"/>
      <use xlink:href="#DejaVuSans-61" x="762.927734"/>
      <use xlink:href="#DejaVuSans-64" x="824.207031"/>
      <use xlink:href="#DejaVuSans-6f" x="887.683594"/>
      <use xlink:href="#DejaVuSans-75" x="948.865234"/>
      <use xlink:href="#DejaVuSans-74" x="1012.244141"/>
      <use xlink:href="#DejaVuSans-2d" x="1051.453125"/>
      <use xlink:href="#DejaVuSans-73" x="1087.537109"/>
      <use xlink:href="#DejaVuSans-70" x="1139.636719"/>
      <use xlink:href="#DejaVuSans-65" x="1203.113281"/>
      <use xlink:href="#DejaVuSans-63" x="1264.636719"/>
      <use xlink:href="#DejaVuSans-74" x="1319.617188"/>
      <use xlink:href="#DejaVuSans-72" x="1358.826172"/>
      <use xlink:href="#DejaVuSans-6f" x="1397.689453"/>
      <use xlink:href="#DejaVuSans-73" x="1458.871094"/>
      <use xlink:href="#DejaVuSans-63" x="1510.970703"/>
      <use xlink:href="#DejaVuSans-6f" x="1565.951172"/>
      <use xlink:href="#DejaVuSans-70" x="1627.132812"/>
      <use xlink:href="#DejaVuSans-79" x="1690.609375"/>
      <use xlink:href="#DejaVuSans-20" x="1749.789062"/>
      <use xlink:href="#DejaVuSans-70" x="1781.576172"/>
      <use xlink:href="#DejaVuSans-75" x="1845.052734"/>
      <use xlink:href="#DejaVuSans-6c" x="1908.431641"/>
      <use xlink:href="#DejaVuSans-73" x="1936.214844"/>
      <use xlink:href="#DejaVuSans-65" x="1988.314453"/>
      <use xlink:href="#DejaVuSans-20" x="2049.837891"/>
      <use xlink:href="#DejaVuSans-61" x="2081.625"/>
      <use xlink:href="#DejaVuSans-6d" x="2142.904297"/>
      <use xlink:href="#DejaVuSans-70" x="2240.316406"/>
      <use xlink:href="#DejaVuSans-6c" x="2303.792969"/>
      <use xlink:href="#DejaVuSans-69" x="2331.576172"/>
      <use xlink:href="#DejaVuSans-74" x="2359.359375"/>
      <use xlink:href="#DejaVuSans-75" x="2398.568359"/>
      <use xlink:href="#DejaVuSans-64" x="2461.947266"/>
      <use xlink:href="#DejaVuSans-65" x="2525.423828"/>
      <use xlink:href="#DejaVuSans-20" x="2586.947266"/>
      <use xlink:href="#DejaVuSans-28" x="2618.734375"/>
      <use xlink:href="#DejaVuSans-29" x="2657.748047"/>
     </g>
    </g>
    <g id="line2d_37">
     <path d="M 494.580688 151.511063 
L 504.580688 151.511063 
L 514.580688 151.511063 
" style="fill: none; stroke: #440154; stroke-width: 1.5; stroke-linecap: square"/>
    </g>
    <g id="text_20">
     <!-- 0.01 -->
     <g transform="translate(522.580688 155.011063) scale(0.1 -0.1)">
      <use xlink:href="#DejaVuSans-30"/>
      <use xlink:href="#DejaVuSans-2e" x="63.623047"/>
      <use xlink:href="#DejaVuSans-30" x="95.410156"/>
      <use xlink:href="#DejaVuSans-31" x="159.033203"/>
     </g>
    </g>
    <g id="line2d_38">
     <path d="M 494.580688 166.189188 
L 504.580688 166.189188 
L 514.580688 166.189188 
" style="fill: none; stroke: #471365; stroke-width: 1.5; stroke-linecap: square"/>
    </g>
    <g id="text_21">
     <!-- 0.0595 -->
     <g transform="translate(522.580688 169.689188) scale(0.1 -0.1)">
      <use xlink:href="#DejaVuSans-30"/>
      <use xlink:href="#DejaVuSans-2e" x="63.623047"/>
      <use xlink:href="#DejaVuSans-30" x="95.410156"/>
      <use xlink:href="#DejaVuSans-35" x="159.033203"/>
      <use xlink:href="#DejaVuSans-39" x="222.65625"/>
      <use xlink:href="#DejaVuSans-35" x="286.279297"/>
     </g>
    </g>
    <g id="line2d_39">
     <path d="M 494.580688 180.867313 
L 504.580688 180.867313 
L 514.580688 180.867313 
" style="fill: none; stroke: #482475; stroke-width: 1.5; stroke-linecap: square"/>
    </g>
    <g id="text_22">
     <!-- 0.109 -->
     <g transform="translate(522.580688 184.367313) scale(0.1 -0.1)">
      <use xlink:href="#DejaVuSans-30"/>
      <use xlink:href="#DejaVuSans-2e" x="63.623047"/>
      <use xlink:href="#DejaVuSans-31" x="95.410156"/>
      <use xlink:href="#DejaVuSans-30" x="159.033203"/>
      <use xlink:href="#DejaVuSans-39" x="222.65625"/>
     </g>
    </g>
    <g id="line2d_40">
     <path d="M 494.580688 195.545438 
L 504.580688 195.545438 
L 514.580688 195.545438 
" style="fill: none; stroke: #463480; stroke-width: 1.5; stroke-linecap: square"/>
    </g>
    <g id="text_23">
     <!-- 0.159 -->
     <g transform="translate(522.580688 199.045438) scale(0.1 -0.1)">
      <use xlink:href="#DejaVuSans-30"/>
      <use xlink:href="#DejaVuSans-2e" x="63.623047"/>
      <use xlink:href="#DejaVuSans-31" x="95.410156"/>
      <use xlink:href="#DejaVuSans-35" x="159.033203"/>
      <use xlink:href="#DejaVuSans-39" x="222.65625"/>
     </g>
    </g>
    <g id="line2d_41">
     <path d="M 494.580688 210.223563 
L 504.580688 210.223563 
L 514.580688 210.223563 
" style="fill: none; stroke: #414487; stroke-width: 1.5; stroke-linecap: square"/>
    </g>
    <g id="text_24">
     <!-- 0.208 -->
     <g transform="translate(522.580688 213.723563) scale(0.1 -0.1)">
      <defs>
       <path id="DejaVuSans-32" d="M 1228 531 
L 3431 531 
L 3431 0 
L 469 0 
L 469 531 
Q 828 903 1448 1529 
Q 2069 2156 2228 2338 
Q 2531 2678 2651 2914 
Q 2772 3150 2772 3378 
Q 2772 3750 2511 3984 
Q 2250 4219 1831 4219 
Q 1534 4219 1204 4116 
Q 875 4013 500 3803 
L 500 4441 
Q 881 4594 1212 4672 
Q 1544 4750 1819 4750 
Q 2544 4750 2975 4387 
Q 3406 4025 3406 3419 
Q 3406 3131 3298 2873 
Q 3191 2616 2906 2266 
Q 2828 2175 2409 1742 
Q 1991 1309 1228 531 
z
" transform="scale(0.015625)"/>
       <path id="DejaVuSans-38" d="M 2034 2216 
Q 1584 2216 1326 1975 
Q 1069 1734 1069 1313 
Q 1069 891 1326 650 
Q 1584 409 2034 409 
Q 2484 409 2743 651 
Q 3003 894 3003 1313 
Q 3003 1734 2745 1975 
Q 2488 2216 2034 2216 
z
M 1403 2484 
Q 997 2584 770 2862 
Q 544 3141 544 3541 
Q 544 4100 942 4425 
Q 1341 4750 2034 4750 
Q 2731 4750 3128 4425 
Q 3525 4100 3525 3541 
Q 3525 3141 3298 2862 
Q 3072 2584 2669 2484 
Q 3125 2378 3379 2068 
Q 3634 1759 3634 1313 
Q 3634 634 3220 271 
Q 2806 -91 2034 -91 
Q 1263 -91 848 271 
Q 434 634 434 1313 
Q 434 1759 690 2068 
Q 947 2378 1403 2484 
z
M 1172 3481 
Q 1172 3119 1398 2916 
Q 1625 2713 2034 2713 
Q 2441 2713 2670 2916 
Q 2900 3119 2900 3481 
Q 2900 3844 2670 4047 
Q 2441 4250 2034 4250 
Q 1625 4250 1398 4047 
Q 1172 3844 1172 3481 
z
" transform="scale(0.015625)"/>
      </defs>
      <use xlink:href="#DejaVuSans-30"/>
      <use xlink:href="#DejaVuSans-2e" x="63.623047"/>
      <use xlink:href="#DejaVuSans-32" x="95.410156"/>
      <use xlink:href="#DejaVuSans-30" x="159.033203"/>
      <use xlink:href="#DejaVuSans-38" x="222.65625"/>
     </g>
    </g>
    <g id="line2d_42">
     <path d="M 494.580688 224.901688 
L 504.580688 224.901688 
L 514.580688 224.901688 
" style="fill: none; stroke: #3b528b; stroke-width: 1.5; stroke-linecap: square"/>
    </g>
    <g id="text_25">
     <!-- 0.258 -->
     <g transform="translate(522.580688 228.401688) scale(0.1 -0.1)">
      <use xlink:href="#DejaVuSans-30"/>
      <use xlink:href="#DejaVuSans-2e" x="63.623047"/>
      <use xlink:href="#DejaVuSans-32" x="95.410156"/>
      <use xlink:href="#DejaVuSans-35" x="159.033203"/>
      <use xlink:href="#DejaVuSans-38" x="222.65625"/>
     </g>
    </g>
    <g id="line2d_43">
     <path d="M 494.580688 239.579813 
L 504.580688 239.579813 
L 514.580688 239.579813 
" style="fill: none; stroke: #355f8d; stroke-width: 1.5; stroke-linecap: square"/>
    </g>
    <g id="text_26">
     <!-- 0.307 -->
     <g transform="translate(522.580688 243.079813) scale(0.1 -0.1)">
      <defs>
       <path id="DejaVuSans-33" d="M 2597 2516 
Q 3050 2419 3304 2112 
Q 3559 1806 3559 1356 
Q 3559 666 3084 287 
Q 2609 -91 1734 -91 
Q 1441 -91 1130 -33 
Q 819 25 488 141 
L 488 750 
Q 750 597 1062 519 
Q 1375 441 1716 441 
Q 2309 441 2620 675 
Q 2931 909 2931 1356 
Q 2931 1769 2642 2001 
Q 2353 2234 1838 2234 
L 1294 2234 
L 1294 2753 
L 1863 2753 
Q 2328 2753 2575 2939 
Q 2822 3125 2822 3475 
Q 2822 3834 2567 4026 
Q 2313 4219 1838 4219 
Q 1578 4219 1281 4162 
Q 984 4106 628 3988 
L 628 4550 
Q 988 4650 1302 4700 
Q 1616 4750 1894 4750 
Q 2613 4750 3031 4423 
Q 3450 4097 3450 3541 
Q 3450 3153 3228 2886 
Q 3006 2619 2597 2516 
z
" transform="scale(0.015625)"/>
      </defs>
      <use xlink:href="#DejaVuSans-30"/>
      <use xlink:href="#DejaVuSans-2e" x="63.623047"/>
      <use xlink:href="#DejaVuSans-33" x="95.410156"/>
      <use xlink:href="#DejaVuSans-30" x="159.033203"/>
      <use xlink:href="#DejaVuSans-37" x="222.65625"/>
     </g>
    </g>
    <g id="line2d_44">
     <path d="M 494.580688 254.257938 
L 504.580688 254.257938 
L 514.580688 254.257938 
" style="fill: none; stroke: #2f6c8e; stroke-width: 1.5; stroke-linecap: square"/>
    </g>
    <g id="text_27">
     <!-- 0.357 -->
     <g transform="translate(522.580688 257.757938) scale(0.1 -0.1)">
      <use xlink:href="#DejaVuSans-30"/>
      <use xlink:href="#DejaVuSans-2e" x="63.623047"/>
      <use xlink:href="#DejaVuSans-33" x="95.410156"/>
      <use xlink:href="#DejaVuSans-35" x="159.033203"/>
      <use xlink:href="#DejaVuSans-37" x="222.65625"/>
     </g>
    </g>
    <g id="line2d_45">
     <path d="M 494.580688 268.936062 
L 504.580688 268.936062 
L 514.580688 268.936062 
" style="fill: none; stroke: #2a788e; stroke-width: 1.5; stroke-linecap: square"/>
    </g>
    <g id="text_28">
     <!-- 0.406 -->
     <g transform="translate(522.580688 272.436062) scale(0.1 -0.1)">
      <use xlink:href="#DejaVuSans-30"/>
      <use xlink:href="#DejaVuSans-2e" x="63.623047"/>
      <use xlink:href="#DejaVuSans-34" x="95.410156"/>
      <use xlink:href="#DejaVuSans-30" x="159.033203"/>
      <use xlink:href="#DejaVuSans-36" x="222.65625"/>
     </g>
    </g>
    <g id="line2d_46">
     <path d="M 494.580688 283.614187 
L 504.580688 283.614187 
L 514.580688 283.614187 
" style="fill: none; stroke: #25848e; stroke-width: 1.5; stroke-linecap: square"/>
    </g>
    <g id="text_29">
     <!-- 0.456 -->
     <g transform="translate(522.580688 287.114187) scale(0.1 -0.1)">
      <use xlink:href="#DejaVuSans-30"/>
      <use xlink:href="#DejaVuSans-2e" x="63.623047"/>
      <use xlink:href="#DejaVuSans-34" x="95.410156"/>
      <use xlink:href="#DejaVuSans-35" x="159.033203"/>
      <use xlink:href="#DejaVuSans-36" x="222.65625"/>
     </g>
    </g>
    <g id="line2d_47">
     <path d="M 494.580688 298.292312 
L 504.580688 298.292312 
L 514.580688 298.292312 
" style="fill: none; stroke: #21918c; stroke-width: 1.5; stroke-linecap: square"/>
    </g>
    <g id="text_30">
     <!-- 0.505 -->
     <g transform="translate(522.580688 301.792312) scale(0.1 -0.1)">
      <use xlink:href="#DejaVuSans-30"/>
      <use xlink:href="#DejaVuSans-2e" x="63.623047"/>
      <use xlink:href="#DejaVuSans-35" x="95.410156"/>
      <use xlink:href="#DejaVuSans-30" x="159.033203"/>
      <use xlink:href="#DejaVuSans-35" x="222.65625"/>
     </g>
    </g>
    <g id="line2d_48">
     <path d="M 577.571313 151.511063 
L 587.571313 151.511063 
L 597.571313 151.511063 
" style="fill: none; stroke: #1e9c89; stroke-width: 1.5; stroke-linecap: square"/>
    </g>
    <g id="text_31">
     <!-- 0.554 -->
     <g transform="translate(605.571313 155.011063) scale(0.1 -0.1)">
      <use xlink:href="#DejaVuSans-30"/>
      <use xlink:href="#DejaVuSans-2e" x="63.623047"/>
      <use xlink:href="#DejaVuSans-35" x="95.410156"/>
      <use xlink:href="#DejaVuSans-35" x="159.033203"/>
      <use xlink:href="#DejaVuSans-34" x="222.65625"/>
     </g>
    </g>
    <g id="line2d_49">
     <path d="M 577.571313 166.189188 
L 587.571313 166.189188 
L 597.571313 166.189188 
" style="fill: none; stroke: #22a884; stroke-width: 1.5; stroke-linecap: square"/>
    </g>
    <g id="text_32">
     <!-- 0.604 -->
     <g transform="translate(605.571313 169.689188) scale(0.1 -0.1)">
      <use xlink:href="#DejaVuSans-30"/>
      <use xlink:href="#DejaVuSans-2e" x="63.623047"/>
      <use xlink:href="#DejaVuSans-36" x="95.410156"/>
      <use xlink:href="#DejaVuSans-30" x="159.033203"/>
      <use xlink:href="#DejaVuSans-34" x="222.65625"/>
     </g>
    </g>
    <g id="line2d_50">
     <path d="M 577.571313 180.867313 
L 587.571313 180.867313 
L 597.571313 180.867313 
" style="fill: none; stroke: #2fb47c; stroke-width: 1.5; stroke-linecap: square"/>
    </g>
    <g id="text_33">
     <!-- 0.654 -->
     <g transform="translate(605.571313 184.367313) scale(0.1 -0.1)">
      <use xlink:href="#DejaVuSans-30"/>
      <use xlink:href="#DejaVuSans-2e" x="63.623047"/>
      <use xlink:href="#DejaVuSans-36" x="95.410156"/>
      <use xlink:href="#DejaVuSans-35" x="159.033203"/>
      <use xlink:href="#DejaVuSans-34" x="222.65625"/>
     </g>
    </g>
    <g id="line2d_51">
     <path d="M 577.571313 195.545438 
L 587.571313 195.545438 
L 597.571313 195.545438 
" style="fill: none; stroke: #44bf70; stroke-width: 1.5; stroke-linecap: square"/>
    </g>
    <g id="text_34">
     <!-- 0.703 -->
     <g transform="translate(605.571313 199.045438) scale(0.1 -0.1)">
      <use xlink:href="#DejaVuSans-30"/>
      <use xlink:href="#DejaVuSans-2e" x="63.623047"/>
      <use xlink:href="#DejaVuSans-37" x="95.410156"/>
      <use xlink:href="#DejaVuSans-30" x="159.033203"/>
      <use xlink:href="#DejaVuSans-33" x="222.65625"/>
     </g>
    </g>
    <g id="line2d_52">
     <path d="M 577.571313 210.223563 
L 587.571313 210.223563 
L 597.571313 210.223563 
" style="fill: none; stroke: #5ec962; stroke-width: 1.5; stroke-linecap: square"/>
    </g>
    <g id="text_35">
     <!-- 0.753 -->
     <g transform="translate(605.571313 213.723563) scale(0.1 -0.1)">
      <use xlink:href="#DejaVuSans-30"/>
      <use xlink:href="#DejaVuSans-2e" x="63.623047"/>
      <use xlink:href="#DejaVuSans-37" x="95.410156"/>
      <use xlink:href="#DejaVuSans-35" x="159.033203"/>
      <use xlink:href="#DejaVuSans-33" x="222.65625"/>
     </g>
    </g>
    <g id="line2d_53">
     <path d="M 577.571313 224.901688 
L 587.571313 224.901688 
L 597.571313 224.901688 
" style="fill: none; stroke: #7ad151; stroke-width: 1.5; stroke-linecap: square"/>
    </g>
    <g id="text_36">
     <!-- 0.802 -->
     <g transform="translate(605.571313 228.401688) scale(0.1 -0.1)">
      <use xlink:href="#DejaVuSans-30"/>
      <use xlink:href="#DejaVuSans-2e" x="63.623047"/>
      <use xlink:href="#DejaVuSans-38" x="95.410156"/>
      <use xlink:href="#DejaVuSans-30" x="159.033203"/>
      <use xlink:href="#DejaVuSans-32" x="222.65625"/>
     </g>
    </g>
    <g id="line2d_54">
     <path d="M 577.571313 239.579813 
L 587.571313 239.579813 
L 597.571313 239.579813 
" style="fill: none; stroke: #9bd93c; stroke-width: 1.5; stroke-linecap: square"/>
    </g>
    <g id="text_37">
     <!-- 0.852 -->
     <g transform="translate(605.571313 243.079813) scale(0.1 -0.1)">
      <use xlink:href="#DejaVuSans-30"/>
      <use xlink:href="#DejaVuSans-2e" x="63.623047"/>
      <use xlink:href="#DejaVuSans-38" x="95.410156"/>
      <use xlink:href="#DejaVuSans-35" x="159.033203"/>
      <use xlink:href="#DejaVuSans-32" x="222.65625"/>
     </g>
    </g>
    <g id="line2d_55">
     <path d="M 577.571313 254.257938 
L 587.571313 254.257938 
L 597.571313 254.257938 
" style="fill: none; stroke: #bddf26; stroke-width: 1.5; stroke-linecap: square"/>
    </g>
    <g id="text_38">
     <!-- 0.901 -->
     <g transform="translate(605.571313 257.757938) scale(0.1 -0.1)">
      <use xlink:href="#DejaVuSans-30"/>
      <use xlink:href="#DejaVuSans-2e" x="63.623047"/>
      <use xlink:href="#DejaVuSans-39" x="95.410156"/>
      <use xlink:href="#DejaVuSans-30" x="159.033203"/>
      <use xlink:href="#DejaVuSans-31" x="222.65625"/>
     </g>
    </g>
    <g id="line2d_56">
     <path d="M 577.571313 268.936062 
L 587.571313 268.936062 
L 597.571313 268.936062 
" style="fill: none; stroke: #dfe318; stroke-width: 1.5; stroke-linecap: square"/>
    </g>
    <g id="text_39">
     <!-- 0.951 -->
     <g transform="translate(605.571313 272.436062) scale(0.1 -0.1)">
      <use xlink:href="#DejaVuSans-30"/>
      <use xlink:href="#DejaVuSans-2e" x="63.623047"/>
      <use xlink:href="#DejaVuSans-39" x="95.410156"/>
      <use xlink:href="#DejaVuSans-35" x="159.033203"/>
      <use xlink:href="#DejaVuSans-31" x="222.65625"/>
     </g>
    </g>
    <g id="line2d_57">
     <path d="M 577.571313 283.614187 
L 587.571313 283.614187 
L 597.571313 283.614187 
" style="fill: none; stroke: #fde725; stroke-width: 1.5; stroke-linecap: square"/>
    </g>
    <g id="text_40">
     <!-- 1 -->
     <g transform="translate(605.571313 287.114187) scale(0.1 -0.1)">
      <use xlink:href="#DejaVuSans-31"/>
     </g>
    </g>
   </g>
  </g>
  <g id="text_41">
   <!-- x0x1-y1 Resonator power scan q00 -->
   <g transform="translate(117.329063 16.318125) scale(0.12 -0.12)">
    <defs>
     <path id="DejaVuSans-78" d="M 3513 3500 
L 2247 1797 
L 3578 0 
L 2900 0 
L 1881 1375 
L 863 0 
L 184 0 
L 1544 1831 
L 300 3500 
L 978 3500 
L 1906 2253 
L 2834 3500 
L 3513 3500 
z
" transform="scale(0.015625)"/>
     <path id="DejaVuSans-77" d="M 269 3500 
L 844 3500 
L 1563 769 
L 2278 3500 
L 2956 3500 
L 3675 769 
L 4391 3500 
L 4966 3500 
L 4050 0 
L 3372 0 
L 2619 2869 
L 1863 0 
L 1184 0 
L 269 3500 
z
" transform="scale(0.015625)"/>
    </defs>
    <use xlink:href="#DejaVuSans-78"/>
    <use xlink:href="#DejaVuSans-30" x="59.179688"/>
    <use xlink:href="#DejaVuSans-78" x="122.802734"/>
    <use xlink:href="#DejaVuSans-31" x="181.982422"/>
    <use xlink:href="#DejaVuSans-2d" x="245.605469"/>
    <use xlink:href="#DejaVuSans-79" x="279.939453"/>
    <use xlink:href="#DejaVuSans-31" x="339.119141"/>
    <use xlink:href="#DejaVuSans-20" x="402.742188"/>
    <use xlink:href="#DejaVuSans-52" x="434.529297"/>
    <use xlink:href="#DejaVuSans-65" x="499.511719"/>
    <use xlink:href="#DejaVuSans-73" x="561.035156"/>
    <use xlink:href="#DejaVuSans-6f" x="613.134766"/>
    <use xlink:href="#DejaVuSans-6e" x="674.316406"/>
    <use xlink:href="#DejaVuSans-61" x="737.695312"/>
    <use xlink:href="#DejaVuSans-74" x="798.974609"/>
    <use xlink:href="#DejaVuSans-6f" x="838.183594"/>
    <use xlink:href="#DejaVuSans-72" x="899.365234"/>
    <use xlink:href="#DejaVuSans-20" x="940.478516"/>
    <use xlink:href="#DejaVuSans-70" x="972.265625"/>
    <use xlink:href="#DejaVuSans-6f" x="1035.742188"/>
    <use xlink:href="#DejaVuSans-77" x="1096.923828"/>
    <use xlink:href="#DejaVuSans-65" x="1178.710938"/>
    <use xlink:href="#DejaVuSans-72" x="1240.234375"/>
    <use xlink:href="#DejaVuSans-20" x="1281.347656"/>
    <use xlink:href="#DejaVuSans-73" x="1313.134766"/>
    <use xlink:href="#DejaVuSans-63" x="1365.234375"/>
    <use xlink:href="#DejaVuSans-61" x="1420.214844"/>
    <use xlink:href="#DejaVuSans-6e" x="1481.494141"/>
    <use xlink:href="#DejaVuSans-20" x="1544.873047"/>
    <use xlink:href="#DejaVuSans-71" x="1576.660156"/>
    <use xlink:href="#DejaVuSans-30" x="1640.136719"/>
    <use xlink:href="#DejaVuSans-30" x="1703.759766"/>
   </g>
   <!-- tuid: 20241114-105254-080-27aa7f -->
   <g transform="translate(115.504688 29.7555) scale(0.12 -0.12)">
    <defs>
     <path id="DejaVuSans-3a" d="M 750 794 
L 1409 794 
L 1409 0 
L 750 0 
L 750 794 
z
M 750 3309 
L 1409 3309 
L 1409 2516 
L 750 2516 
L 750 3309 
z
" transform="scale(0.015625)"/>
    </defs>
    <use xlink:href="#DejaVuSans-74"/>
    <use xlink:href="#DejaVuSans-75" x="39.208984"/>
    <use xlink:href="#DejaVuSans-69" x="102.587891"/>
    <use xlink:href="#DejaVuSans-64" x="130.371094"/>
    <use xlink:href="#DejaVuSans-3a" x="193.847656"/>
    <use xlink:href="#DejaVuSans-20" x="227.539062"/>
    <use xlink:href="#DejaVuSans-32" x="259.326172"/>
    <use xlink:href="#DejaVuSans-30" x="322.949219"/>
    <use xlink:href="#DejaVuSans-32" x="386.572266"/>
    <use xlink:href="#DejaVuSans-34" x="450.195312"/>
    <use xlink:href="#DejaVuSans-31" x="513.818359"/>
    <use xlink:href="#DejaVuSans-31" x="577.441406"/>
    <use xlink:href="#DejaVuSans-31" x="641.064453"/>
    <use xlink:href="#DejaVuSans-34" x="704.6875"/>
    <use xlink:href="#DejaVuSans-2d" x="768.310547"/>
    <use xlink:href="#DejaVuSans-31" x="804.394531"/>
    <use xlink:href="#DejaVuSans-30" x="868.017578"/>
    <use xlink:href="#DejaVuSans-35" x="931.640625"/>
    <use xlink:href="#DejaVuSans-32" x="995.263672"/>
    <use xlink:href="#DejaVuSans-35" x="1058.886719"/>
    <use xlink:href="#DejaVuSans-34" x="1122.509766"/>
    <use xlink:href="#DejaVuSans-2d" x="1186.132812"/>
    <use xlink:href="#DejaVuSans-30" x="1222.216797"/>
    <use xlink:href="#DejaVuSans-38" x="1285.839844"/>
    <use xlink:href="#DejaVuSans-30" x="1349.462891"/>
    <use xlink:href="#DejaVuSans-2d" x="1413.085938"/>
    <use xlink:href="#DejaVuSans-32" x="1449.169922"/>
    <use xlink:href="#DejaVuSans-37" x="1512.792969"/>
    <use xlink:href="#DejaVuSans-61" x="1576.416016"/>
    <use xlink:href="#DejaVuSans-61" x="1637.695312"/>
    <use xlink:href="#DejaVuSans-37" x="1698.974609"/>
    <use xlink:href="#DejaVuSans-66" x="1762.597656"/>
   </g>
  </g>
 </g>
 <defs>
  <clipPath id="p8101149398">
   <rect x="50.573438" y="41.76" width="357.12" height="266.112"/>
  </clipPath>
 </defs>
</svg>
