<?xml version="1.0" encoding="utf-8" standalone="no"?>
<!DOCTYPE svg PUBLIC "-//W3C//DTD SVG 1.1//EN"
  "http://www.w3.org/Graphics/SVG/1.1/DTD/svg11.dtd">
<svg xmlns:xlink="http://www.w3.org/1999/xlink" width="706.822875pt" height="345.42825pt" viewBox="0 0 706.822875 345.42825" xmlns="http://www.w3.org/2000/svg" version="1.1">
 <metadata>
  <rdf:RDF xmlns:dc="http://purl.org/dc/elements/1.1/" xmlns:cc="http://creativecommons.org/ns#" xmlns:rdf="http://www.w3.org/1999/02/22-rdf-syntax-ns#">
   <cc:Work>
    <dc:type rdf:resource="http://purl.org/dc/dcmitype/StillImage"/>
    <dc:date>2024-11-14T10:53:22.107060</dc:date>
    <dc:format>image/svg+xml</dc:format>
    <dc:creator>
     <cc:Agent>
      <dc:title>Matplotlib v3.8.0, https://matplotlib.org/</dc:title>
     </cc:Agent>
    </dc:creator>
   </cc:Work>
  </rdf:RDF>
 </metadata>
 <defs>
  <style type="text/css">*{stroke-linejoin: round; stroke-linecap: butt}</style>
 </defs>
 <g id="figure_1">
  <g id="patch_1">
   <path d="M 0 345.42825 
L 706.822875 345.42825 
L 706.822875 -0 
L 0 -0 
L 0 345.42825 
z
" style="fill: none; opacity: 0"/>
  </g>
  <g id="axes_1">
   <g id="patch_2">
    <path d="M 46.965625 307.872 
L 404.085625 307.872 
L 404.085625 41.76 
L 46.965625 41.76 
z
" style="fill: #ffffff"/>
   </g>
   <g id="matplotlib.axis_1">
    <g id="xtick_1">
     <g id="line2d_1">
      <defs>
       <path id="ma330978c8a" d="M 0 0 
L 0 3.5 
" style="stroke: #000000; stroke-width: 0.8"/>
      </defs>
      <g>
       <use xlink:href="#ma330978c8a" x="80.166087" y="307.872" style="stroke: #000000; stroke-width: 0.8"/>
      </g>
     </g>
     <g id="text_1">
      <!-- 94 -->
      <g transform="translate(73.803587 322.470438) scale(0.1 -0.1)">
       <defs>
        <path id="DejaVuSans-39" d="M 703 97 
L 703 672 
Q 941 559 1184 500 
Q 1428 441 1663 441 
Q 2288 441 2617 861 
Q 2947 1281 2994 2138 
Q 2813 1869 2534 1725 
Q 2256 1581 1919 1581 
Q 1219 1581 811 2004 
Q 403 2428 403 3163 
Q 403 3881 828 4315 
Q 1253 4750 1959 4750 
Q 2769 4750 3195 4129 
Q 3622 3509 3622 2328 
Q 3622 1225 3098 567 
Q 2575 -91 1691 -91 
Q 1453 -91 1209 -44 
Q 966 3 703 97 
z
M 1959 2075 
Q 2384 2075 2632 2365 
Q 2881 2656 2881 3163 
Q 2881 3666 2632 3958 
Q 2384 4250 1959 4250 
Q 1534 4250 1286 3958 
Q 1038 3666 1038 3163 
Q 1038 2656 1286 2365 
Q 1534 2075 1959 2075 
z
" transform="scale(0.015625)"/>
        <path id="DejaVuSans-34" d="M 2419 4116 
L 825 1625 
L 2419 1625 
L 2419 4116 
z
M 2253 4666 
L 3047 4666 
L 3047 1625 
L 3713 1625 
L 3713 1100 
L 3047 1100 
L 3047 0 
L 2419 0 
L 2419 1100 
L 313 1100 
L 313 1709 
L 2253 4666 
z
" transform="scale(0.015625)"/>
       </defs>
       <use xlink:href="#DejaVuSans-39"/>
       <use xlink:href="#DejaVuSans-34" x="63.623047"/>
      </g>
     </g>
    </g>
    <g id="xtick_2">
     <g id="line2d_2">
      <g>
       <use xlink:href="#ma330978c8a" x="121.788464" y="307.872" style="stroke: #000000; stroke-width: 0.8"/>
      </g>
     </g>
     <g id="text_2">
      <!-- 94.5 -->
      <g transform="translate(110.655652 322.470438) scale(0.1 -0.1)">
       <defs>
        <path id="DejaVuSans-2e" d="M 684 794 
L 1344 794 
L 1344 0 
L 684 0 
L 684 794 
z
" transform="scale(0.015625)"/>
        <path id="DejaVuSans-35" d="M 691 4666 
L 3169 4666 
L 3169 4134 
L 1269 4134 
L 1269 2991 
Q 1406 3038 1543 3061 
Q 1681 3084 1819 3084 
Q 2600 3084 3056 2656 
Q 3513 2228 3513 1497 
Q 3513 744 3044 326 
Q 2575 -91 1722 -91 
Q 1428 -91 1123 -41 
Q 819 9 494 109 
L 494 744 
Q 775 591 1075 516 
Q 1375 441 1709 441 
Q 2250 441 2565 725 
Q 2881 1009 2881 1497 
Q 2881 1984 2565 2268 
Q 2250 2553 1709 2553 
Q 1456 2553 1204 2497 
Q 953 2441 691 2322 
L 691 4666 
z
" transform="scale(0.015625)"/>
       </defs>
       <use xlink:href="#DejaVuSans-39"/>
       <use xlink:href="#DejaVuSans-34" x="63.623047"/>
       <use xlink:href="#DejaVuSans-2e" x="127.246094"/>
       <use xlink:href="#DejaVuSans-35" x="159.033203"/>
      </g>
     </g>
    </g>
    <g id="xtick_3">
     <g id="line2d_3">
      <g>
       <use xlink:href="#ma330978c8a" x="163.410842" y="307.872" style="stroke: #000000; stroke-width: 0.8"/>
      </g>
     </g>
     <g id="text_3">
      <!-- 95 -->
      <g transform="translate(157.048342 322.470438) scale(0.1 -0.1)">
       <use xlink:href="#DejaVuSans-39"/>
       <use xlink:href="#DejaVuSans-35" x="63.623047"/>
      </g>
     </g>
    </g>
    <g id="xtick_4">
     <g id="line2d_4">
      <g>
       <use xlink:href="#ma330978c8a" x="205.033219" y="307.872" style="stroke: #000000; stroke-width: 0.8"/>
      </g>
     </g>
     <g id="text_4">
      <!-- 95.5 -->
      <g transform="translate(193.900407 322.470438) scale(0.1 -0.1)">
       <use xlink:href="#DejaVuSans-39"/>
       <use xlink:href="#DejaVuSans-35" x="63.623047"/>
       <use xlink:href="#DejaVuSans-2e" x="127.246094"/>
       <use xlink:href="#DejaVuSans-35" x="159.033203"/>
      </g>
     </g>
    </g>
    <g id="xtick_5">
     <g id="line2d_5">
      <g>
       <use xlink:href="#ma330978c8a" x="246.655597" y="307.872" style="stroke: #000000; stroke-width: 0.8"/>
      </g>
     </g>
     <g id="text_5">
      <!-- 96 -->
      <g transform="translate(240.293097 322.470438) scale(0.1 -0.1)">
       <defs>
        <path id="DejaVuSans-36" d="M 2113 2584 
Q 1688 2584 1439 2293 
Q 1191 2003 1191 1497 
Q 1191 994 1439 701 
Q 1688 409 2113 409 
Q 2538 409 2786 701 
Q 3034 994 3034 1497 
Q 3034 2003 2786 2293 
Q 2538 2584 2113 2584 
z
M 3366 4563 
L 3366 3988 
Q 3128 4100 2886 4159 
Q 2644 4219 2406 4219 
Q 1781 4219 1451 3797 
Q 1122 3375 1075 2522 
Q 1259 2794 1537 2939 
Q 1816 3084 2150 3084 
Q 2853 3084 3261 2657 
Q 3669 2231 3669 1497 
Q 3669 778 3244 343 
Q 2819 -91 2113 -91 
Q 1303 -91 875 529 
Q 447 1150 447 2328 
Q 447 3434 972 4092 
Q 1497 4750 2381 4750 
Q 2619 4750 2861 4703 
Q 3103 4656 3366 4563 
z
" transform="scale(0.015625)"/>
       </defs>
       <use xlink:href="#DejaVuSans-39"/>
       <use xlink:href="#DejaVuSans-36" x="63.623047"/>
      </g>
     </g>
    </g>
    <g id="xtick_6">
     <g id="line2d_6">
      <g>
       <use xlink:href="#ma330978c8a" x="288.277975" y="307.872" style="stroke: #000000; stroke-width: 0.8"/>
      </g>
     </g>
     <g id="text_6">
      <!-- 96.5 -->
      <g transform="translate(277.145162 322.470438) scale(0.1 -0.1)">
       <use xlink:href="#DejaVuSans-39"/>
       <use xlink:href="#DejaVuSans-36" x="63.623047"/>
       <use xlink:href="#DejaVuSans-2e" x="127.246094"/>
       <use xlink:href="#DejaVuSans-35" x="159.033203"/>
      </g>
     </g>
    </g>
    <g id="xtick_7">
     <g id="line2d_7">
      <g>
       <use xlink:href="#ma330978c8a" x="329.900352" y="307.872" style="stroke: #000000; stroke-width: 0.8"/>
      </g>
     </g>
     <g id="text_7">
      <!-- 97 -->
      <g transform="translate(323.537852 322.470438) scale(0.1 -0.1)">
       <defs>
        <path id="DejaVuSans-37" d="M 525 4666 
L 3525 4666 
L 3525 4397 
L 1831 0 
L 1172 0 
L 2766 4134 
L 525 4134 
L 525 4666 
z
" transform="scale(0.015625)"/>
       </defs>
       <use xlink:href="#DejaVuSans-39"/>
       <use xlink:href="#DejaVuSans-37" x="63.623047"/>
      </g>
     </g>
    </g>
    <g id="xtick_8">
     <g id="line2d_8">
      <g>
       <use xlink:href="#ma330978c8a" x="371.52273" y="307.872" style="stroke: #000000; stroke-width: 0.8"/>
      </g>
     </g>
     <g id="text_8">
      <!-- 97.5 -->
      <g transform="translate(360.389917 322.470438) scale(0.1 -0.1)">
       <use xlink:href="#DejaVuSans-39"/>
       <use xlink:href="#DejaVuSans-37" x="63.623047"/>
       <use xlink:href="#DejaVuSans-2e" x="127.246094"/>
       <use xlink:href="#DejaVuSans-35" x="159.033203"/>
      </g>
     </g>
    </g>
    <g id="text_9">
     <!-- Readout frequency [MHz] -->
     <g transform="translate(161.918594 336.148562) scale(0.1 -0.1)">
      <defs>
       <path id="DejaVuSans-52" d="M 2841 2188 
Q 3044 2119 3236 1894 
Q 3428 1669 3622 1275 
L 4263 0 
L 3584 0 
L 2988 1197 
Q 2756 1666 2539 1819 
Q 2322 1972 1947 1972 
L 1259 1972 
L 1259 0 
L 628 0 
L 628 4666 
L 2053 4666 
Q 2853 4666 3247 4331 
Q 3641 3997 3641 3322 
Q 3641 2881 3436 2590 
Q 3231 2300 2841 2188 
z
M 1259 4147 
L 1259 2491 
L 2053 2491 
Q 2509 2491 2742 2702 
Q 2975 2913 2975 3322 
Q 2975 3731 2742 3939 
Q 2509 4147 2053 4147 
L 1259 4147 
z
" transform="scale(0.015625)"/>
       <path id="DejaVuSans-65" d="M 3597 1894 
L 3597 1613 
L 953 1613 
Q 991 1019 1311 708 
Q 1631 397 2203 397 
Q 2534 397 2845 478 
Q 3156 559 3463 722 
L 3463 178 
Q 3153 47 2828 -22 
Q 2503 -91 2169 -91 
Q 1331 -91 842 396 
Q 353 884 353 1716 
Q 353 2575 817 3079 
Q 1281 3584 2069 3584 
Q 2775 3584 3186 3129 
Q 3597 2675 3597 1894 
z
M 3022 2063 
Q 3016 2534 2758 2815 
Q 2500 3097 2075 3097 
Q 1594 3097 1305 2825 
Q 1016 2553 972 2059 
L 3022 2063 
z
" transform="scale(0.015625)"/>
       <path id="DejaVuSans-61" d="M 2194 1759 
Q 1497 1759 1228 1600 
Q 959 1441 959 1056 
Q 959 750 1161 570 
Q 1363 391 1709 391 
Q 2188 391 2477 730 
Q 2766 1069 2766 1631 
L 2766 1759 
L 2194 1759 
z
M 3341 1997 
L 3341 0 
L 2766 0 
L 2766 531 
Q 2569 213 2275 61 
Q 1981 -91 1556 -91 
Q 1019 -91 701 211 
Q 384 513 384 1019 
Q 384 1609 779 1909 
Q 1175 2209 1959 2209 
L 2766 2209 
L 2766 2266 
Q 2766 2663 2505 2880 
Q 2244 3097 1772 3097 
Q 1472 3097 1187 3025 
Q 903 2953 641 2809 
L 641 3341 
Q 956 3463 1253 3523 
Q 1550 3584 1831 3584 
Q 2591 3584 2966 3190 
Q 3341 2797 3341 1997 
z
" transform="scale(0.015625)"/>
       <path id="DejaVuSans-64" d="M 2906 2969 
L 2906 4863 
L 3481 4863 
L 3481 0 
L 2906 0 
L 2906 525 
Q 2725 213 2448 61 
Q 2172 -91 1784 -91 
Q 1150 -91 751 415 
Q 353 922 353 1747 
Q 353 2572 751 3078 
Q 1150 3584 1784 3584 
Q 2172 3584 2448 3432 
Q 2725 3281 2906 2969 
z
M 947 1747 
Q 947 1113 1208 752 
Q 1469 391 1925 391 
Q 2381 391 2643 752 
Q 2906 1113 2906 1747 
Q 2906 2381 2643 2742 
Q 2381 3103 1925 3103 
Q 1469 3103 1208 2742 
Q 947 2381 947 1747 
z
" transform="scale(0.015625)"/>
       <path id="DejaVuSans-6f" d="M 1959 3097 
Q 1497 3097 1228 2736 
Q 959 2375 959 1747 
Q 959 1119 1226 758 
Q 1494 397 1959 397 
Q 2419 397 2687 759 
Q 2956 1122 2956 1747 
Q 2956 2369 2687 2733 
Q 2419 3097 1959 3097 
z
M 1959 3584 
Q 2709 3584 3137 3096 
Q 3566 2609 3566 1747 
Q 3566 888 3137 398 
Q 2709 -91 1959 -91 
Q 1206 -91 779 398 
Q 353 888 353 1747 
Q 353 2609 779 3096 
Q 1206 3584 1959 3584 
z
" transform="scale(0.015625)"/>
       <path id="DejaVuSans-75" d="M 544 1381 
L 544 3500 
L 1119 3500 
L 1119 1403 
Q 1119 906 1312 657 
Q 1506 409 1894 409 
Q 2359 409 2629 706 
Q 2900 1003 2900 1516 
L 2900 3500 
L 3475 3500 
L 3475 0 
L 2900 0 
L 2900 538 
Q 2691 219 2414 64 
Q 2138 -91 1772 -91 
Q 1169 -91 856 284 
Q 544 659 544 1381 
z
M 1991 3584 
L 1991 3584 
z
" transform="scale(0.015625)"/>
       <path id="DejaVuSans-74" d="M 1172 4494 
L 1172 3500 
L 2356 3500 
L 2356 3053 
L 1172 3053 
L 1172 1153 
Q 1172 725 1289 603 
Q 1406 481 1766 481 
L 2356 481 
L 2356 0 
L 1766 0 
Q 1100 0 847 248 
Q 594 497 594 1153 
L 594 3053 
L 172 3053 
L 172 3500 
L 594 3500 
L 594 4494 
L 1172 4494 
z
" transform="scale(0.015625)"/>
       <path id="DejaVuSans-20" transform="scale(0.015625)"/>
       <path id="DejaVuSans-66" d="M 2375 4863 
L 2375 4384 
L 1825 4384 
Q 1516 4384 1395 4259 
Q 1275 4134 1275 3809 
L 1275 3500 
L 2222 3500 
L 2222 3053 
L 1275 3053 
L 1275 0 
L 697 0 
L 697 3053 
L 147 3053 
L 147 3500 
L 697 3500 
L 697 3744 
Q 697 4328 969 4595 
Q 1241 4863 1831 4863 
L 2375 4863 
z
" transform="scale(0.015625)"/>
       <path id="DejaVuSans-72" d="M 2631 2963 
Q 2534 3019 2420 3045 
Q 2306 3072 2169 3072 
Q 1681 3072 1420 2755 
Q 1159 2438 1159 1844 
L 1159 0 
L 581 0 
L 581 3500 
L 1159 3500 
L 1159 2956 
Q 1341 3275 1631 3429 
Q 1922 3584 2338 3584 
Q 2397 3584 2469 3576 
Q 2541 3569 2628 3553 
L 2631 2963 
z
" transform="scale(0.015625)"/>
       <path id="DejaVuSans-71" d="M 947 1747 
Q 947 1113 1208 752 
Q 1469 391 1925 391 
Q 2381 391 2643 752 
Q 2906 1113 2906 1747 
Q 2906 2381 2643 2742 
Q 2381 3103 1925 3103 
Q 1469 3103 1208 2742 
Q 947 2381 947 1747 
z
M 2906 525 
Q 2725 213 2448 61 
Q 2172 -91 1784 -91 
Q 1150 -91 751 415 
Q 353 922 353 1747 
Q 353 2572 751 3078 
Q 1150 3584 1784 3584 
Q 2172 3584 2448 3432 
Q 2725 3281 2906 2969 
L 2906 3500 
L 3481 3500 
L 3481 -1331 
L 2906 -1331 
L 2906 525 
z
" transform="scale(0.015625)"/>
       <path id="DejaVuSans-6e" d="M 3513 2113 
L 3513 0 
L 2938 0 
L 2938 2094 
Q 2938 2591 2744 2837 
Q 2550 3084 2163 3084 
Q 1697 3084 1428 2787 
Q 1159 2491 1159 1978 
L 1159 0 
L 581 0 
L 581 3500 
L 1159 3500 
L 1159 2956 
Q 1366 3272 1645 3428 
Q 1925 3584 2291 3584 
Q 2894 3584 3203 3211 
Q 3513 2838 3513 2113 
z
" transform="scale(0.015625)"/>
       <path id="DejaVuSans-63" d="M 3122 3366 
L 3122 2828 
Q 2878 2963 2633 3030 
Q 2388 3097 2138 3097 
Q 1578 3097 1268 2742 
Q 959 2388 959 1747 
Q 959 1106 1268 751 
Q 1578 397 2138 397 
Q 2388 397 2633 464 
Q 2878 531 3122 666 
L 3122 134 
Q 2881 22 2623 -34 
Q 2366 -91 2075 -91 
Q 1284 -91 818 406 
Q 353 903 353 1747 
Q 353 2603 823 3093 
Q 1294 3584 2113 3584 
Q 2378 3584 2631 3529 
Q 2884 3475 3122 3366 
z
" transform="scale(0.015625)"/>
       <path id="DejaVuSans-79" d="M 2059 -325 
Q 1816 -950 1584 -1140 
Q 1353 -1331 966 -1331 
L 506 -1331 
L 506 -850 
L 844 -850 
Q 1081 -850 1212 -737 
Q 1344 -625 1503 -206 
L 1606 56 
L 191 3500 
L 800 3500 
L 1894 763 
L 2988 3500 
L 3597 3500 
L 2059 -325 
z
" transform="scale(0.015625)"/>
       <path id="DejaVuSans-5b" d="M 550 4863 
L 1875 4863 
L 1875 4416 
L 1125 4416 
L 1125 -397 
L 1875 -397 
L 1875 -844 
L 550 -844 
L 550 4863 
z
" transform="scale(0.015625)"/>
       <path id="DejaVuSans-4d" d="M 628 4666 
L 1569 4666 
L 2759 1491 
L 3956 4666 
L 4897 4666 
L 4897 0 
L 4281 0 
L 4281 4097 
L 3078 897 
L 2444 897 
L 1241 4097 
L 1241 0 
L 628 0 
L 628 4666 
z
" transform="scale(0.015625)"/>
       <path id="DejaVuSans-48" d="M 628 4666 
L 1259 4666 
L 1259 2753 
L 3553 2753 
L 3553 4666 
L 4184 4666 
L 4184 0 
L 3553 0 
L 3553 2222 
L 1259 2222 
L 1259 0 
L 628 0 
L 628 4666 
z
" transform="scale(0.015625)"/>
       <path id="DejaVuSans-7a" d="M 353 3500 
L 3084 3500 
L 3084 2975 
L 922 459 
L 3084 459 
L 3084 0 
L 275 0 
L 275 525 
L 2438 3041 
L 353 3041 
L 353 3500 
z
" transform="scale(0.015625)"/>
       <path id="DejaVuSans-5d" d="M 1947 4863 
L 1947 -844 
L 622 -844 
L 622 -397 
L 1369 -397 
L 1369 4416 
L 622 4416 
L 622 4863 
L 1947 4863 
z
" transform="scale(0.015625)"/>
      </defs>
      <use xlink:href="#DejaVuSans-52"/>
      <use xlink:href="#DejaVuSans-65" x="64.982422"/>
      <use xlink:href="#DejaVuSans-61" x="126.505859"/>
      <use xlink:href="#DejaVuSans-64" x="187.785156"/>
      <use xlink:href="#DejaVuSans-6f" x="251.261719"/>
      <use xlink:href="#DejaVuSans-75" x="312.443359"/>
      <use xlink:href="#DejaVuSans-74" x="375.822266"/>
      <use xlink:href="#DejaVuSans-20" x="415.03125"/>
      <use xlink:href="#DejaVuSans-66" x="446.818359"/>
      <use xlink:href="#DejaVuSans-72" x="482.023438"/>
      <use xlink:href="#DejaVuSans-65" x="520.886719"/>
      <use xlink:href="#DejaVuSans-71" x="582.410156"/>
      <use xlink:href="#DejaVuSans-75" x="645.886719"/>
      <use xlink:href="#DejaVuSans-65" x="709.265625"/>
      <use xlink:href="#DejaVuSans-6e" x="770.789062"/>
      <use xlink:href="#DejaVuSans-63" x="834.167969"/>
      <use xlink:href="#DejaVuSans-79" x="889.148438"/>
      <use xlink:href="#DejaVuSans-20" x="948.328125"/>
      <use xlink:href="#DejaVuSans-5b" x="980.115234"/>
      <use xlink:href="#DejaVuSans-4d" x="1019.128906"/>
      <use xlink:href="#DejaVuSans-48" x="1105.408203"/>
      <use xlink:href="#DejaVuSans-7a" x="1180.603516"/>
      <use xlink:href="#DejaVuSans-5d" x="1233.09375"/>
     </g>
    </g>
    <g id="text_10">
     <!-- +7 GHz -->
     <g transform="translate(365.648125 335.148562) scale(0.1 -0.1)">
      <defs>
       <path id="DejaVuSans-2b" d="M 2944 4013 
L 2944 2272 
L 4684 2272 
L 4684 1741 
L 2944 1741 
L 2944 0 
L 2419 0 
L 2419 1741 
L 678 1741 
L 678 2272 
L 2419 2272 
L 2419 4013 
L 2944 4013 
z
" transform="scale(0.015625)"/>
       <path id="DejaVuSans-47" d="M 3809 666 
L 3809 1919 
L 2778 1919 
L 2778 2438 
L 4434 2438 
L 4434 434 
Q 4069 175 3628 42 
Q 3188 -91 2688 -91 
Q 1594 -91 976 548 
Q 359 1188 359 2328 
Q 359 3472 976 4111 
Q 1594 4750 2688 4750 
Q 3144 4750 3555 4637 
Q 3966 4525 4313 4306 
L 4313 3634 
Q 3963 3931 3569 4081 
Q 3175 4231 2741 4231 
Q 1884 4231 1454 3753 
Q 1025 3275 1025 2328 
Q 1025 1384 1454 906 
Q 1884 428 2741 428 
Q 3075 428 3337 486 
Q 3600 544 3809 666 
z
" transform="scale(0.015625)"/>
      </defs>
      <use xlink:href="#DejaVuSans-2b"/>
      <use xlink:href="#DejaVuSans-37" x="83.789062"/>
      <use xlink:href="#DejaVuSans-20" x="147.412109"/>
      <use xlink:href="#DejaVuSans-47" x="179.199219"/>
      <use xlink:href="#DejaVuSans-48" x="256.689453"/>
      <use xlink:href="#DejaVuSans-7a" x="331.884766"/>
     </g>
    </g>
   </g>
   <g id="matplotlib.axis_2">
    <g id="ytick_1">
     <g id="line2d_9">
      <defs>
       <path id="m49110e4da6" d="M 0 0 
L -3.5 0 
" style="stroke: #000000; stroke-width: 0.8"/>
      </defs>
      <g>
       <use xlink:href="#m49110e4da6" x="46.965625" y="296.169166" style="stroke: #000000; stroke-width: 0.8"/>
      </g>
     </g>
     <g id="text_11">
      <!-- 0 -->
      <g transform="translate(33.603125 299.968384) scale(0.1 -0.1)">
       <defs>
        <path id="DejaVuSans-30" d="M 2034 4250 
Q 1547 4250 1301 3770 
Q 1056 3291 1056 2328 
Q 1056 1369 1301 889 
Q 1547 409 2034 409 
Q 2525 409 2770 889 
Q 3016 1369 3016 2328 
Q 3016 3291 2770 3770 
Q 2525 4250 2034 4250 
z
M 2034 4750 
Q 2819 4750 3233 4129 
Q 3647 3509 3647 2328 
Q 3647 1150 3233 529 
Q 2819 -91 2034 -91 
Q 1250 -91 836 529 
Q 422 1150 422 2328 
Q 422 3509 836 4129 
Q 1250 4750 2034 4750 
z
" transform="scale(0.015625)"/>
       </defs>
       <use xlink:href="#DejaVuSans-30"/>
      </g>
     </g>
    </g>
    <g id="ytick_2">
     <g id="line2d_10">
      <g>
       <use xlink:href="#m49110e4da6" x="46.965625" y="260.393452" style="stroke: #000000; stroke-width: 0.8"/>
      </g>
     </g>
     <g id="text_12">
      <!-- 20 -->
      <g transform="translate(27.240625 264.19267) scale(0.1 -0.1)">
       <defs>
        <path id="DejaVuSans-32" d="M 1228 531 
L 3431 531 
L 3431 0 
L 469 0 
L 469 531 
Q 828 903 1448 1529 
Q 2069 2156 2228 2338 
Q 2531 2678 2651 2914 
Q 2772 3150 2772 3378 
Q 2772 3750 2511 3984 
Q 2250 4219 1831 4219 
Q 1534 4219 1204 4116 
Q 875 4013 500 3803 
L 500 4441 
Q 881 4594 1212 4672 
Q 1544 4750 1819 4750 
Q 2544 4750 2975 4387 
Q 3406 4025 3406 3419 
Q 3406 3131 3298 2873 
Q 3191 2616 2906 2266 
Q 2828 2175 2409 1742 
Q 1991 1309 1228 531 
z
" transform="scale(0.015625)"/>
       </defs>
       <use xlink:href="#DejaVuSans-32"/>
       <use xlink:href="#DejaVuSans-30" x="63.623047"/>
      </g>
     </g>
    </g>
    <g id="ytick_3">
     <g id="line2d_11">
      <g>
       <use xlink:href="#m49110e4da6" x="46.965625" y="224.617737" style="stroke: #000000; stroke-width: 0.8"/>
      </g>
     </g>
     <g id="text_13">
      <!-- 40 -->
      <g transform="translate(27.240625 228.416956) scale(0.1 -0.1)">
       <use xlink:href="#DejaVuSans-34"/>
       <use xlink:href="#DejaVuSans-30" x="63.623047"/>
      </g>
     </g>
    </g>
    <g id="ytick_4">
     <g id="line2d_12">
      <g>
       <use xlink:href="#m49110e4da6" x="46.965625" y="188.842023" style="stroke: #000000; stroke-width: 0.8"/>
      </g>
     </g>
     <g id="text_14">
      <!-- 60 -->
      <g transform="translate(27.240625 192.641242) scale(0.1 -0.1)">
       <use xlink:href="#DejaVuSans-36"/>
       <use xlink:href="#DejaVuSans-30" x="63.623047"/>
      </g>
     </g>
    </g>
    <g id="ytick_5">
     <g id="line2d_13">
      <g>
       <use xlink:href="#m49110e4da6" x="46.965625" y="153.066309" style="stroke: #000000; stroke-width: 0.8"/>
      </g>
     </g>
     <g id="text_15">
      <!-- 80 -->
      <g transform="translate(27.240625 156.865528) scale(0.1 -0.1)">
       <defs>
        <path id="DejaVuSans-38" d="M 2034 2216 
Q 1584 2216 1326 1975 
Q 1069 1734 1069 1313 
Q 1069 891 1326 650 
Q 1584 409 2034 409 
Q 2484 409 2743 651 
Q 3003 894 3003 1313 
Q 3003 1734 2745 1975 
Q 2488 2216 2034 2216 
z
M 1403 2484 
Q 997 2584 770 2862 
Q 544 3141 544 3541 
Q 544 4100 942 4425 
Q 1341 4750 2034 4750 
Q 2731 4750 3128 4425 
Q 3525 4100 3525 3541 
Q 3525 3141 3298 2862 
Q 3072 2584 2669 2484 
Q 3125 2378 3379 2068 
Q 3634 1759 3634 1313 
Q 3634 634 3220 271 
Q 2806 -91 2034 -91 
Q 1263 -91 848 271 
Q 434 634 434 1313 
Q 434 1759 690 2068 
Q 947 2378 1403 2484 
z
M 1172 3481 
Q 1172 3119 1398 2916 
Q 1625 2713 2034 2713 
Q 2441 2713 2670 2916 
Q 2900 3119 2900 3481 
Q 2900 3844 2670 4047 
Q 2441 4250 2034 4250 
Q 1625 4250 1398 4047 
Q 1172 3844 1172 3481 
z
" transform="scale(0.015625)"/>
       </defs>
       <use xlink:href="#DejaVuSans-38"/>
       <use xlink:href="#DejaVuSans-30" x="63.623047"/>
      </g>
     </g>
    </g>
    <g id="ytick_6">
     <g id="line2d_14">
      <g>
       <use xlink:href="#m49110e4da6" x="46.965625" y="117.290595" style="stroke: #000000; stroke-width: 0.8"/>
      </g>
     </g>
     <g id="text_16">
      <!-- 100 -->
      <g transform="translate(20.878125 121.089814) scale(0.1 -0.1)">
       <defs>
        <path id="DejaVuSans-31" d="M 794 531 
L 1825 531 
L 1825 4091 
L 703 3866 
L 703 4441 
L 1819 4666 
L 2450 4666 
L 2450 531 
L 3481 531 
L 3481 0 
L 794 0 
L 794 531 
z
" transform="scale(0.015625)"/>
       </defs>
       <use xlink:href="#DejaVuSans-31"/>
       <use xlink:href="#DejaVuSans-30" x="63.623047"/>
       <use xlink:href="#DejaVuSans-30" x="127.246094"/>
      </g>
     </g>
    </g>
    <g id="ytick_7">
     <g id="line2d_15">
      <g>
       <use xlink:href="#m49110e4da6" x="46.965625" y="81.514881" style="stroke: #000000; stroke-width: 0.8"/>
      </g>
     </g>
     <g id="text_17">
      <!-- 120 -->
      <g transform="translate(20.878125 85.3141) scale(0.1 -0.1)">
       <use xlink:href="#DejaVuSans-31"/>
       <use xlink:href="#DejaVuSans-32" x="63.623047"/>
       <use xlink:href="#DejaVuSans-30" x="127.246094"/>
      </g>
     </g>
    </g>
    <g id="ytick_8">
     <g id="line2d_16">
      <g>
       <use xlink:href="#m49110e4da6" x="46.965625" y="45.739167" style="stroke: #000000; stroke-width: 0.8"/>
      </g>
     </g>
     <g id="text_18">
      <!-- 140 -->
      <g transform="translate(20.878125 49.538386) scale(0.1 -0.1)">
       <use xlink:href="#DejaVuSans-31"/>
       <use xlink:href="#DejaVuSans-34" x="63.623047"/>
       <use xlink:href="#DejaVuSans-30" x="127.246094"/>
      </g>
     </g>
    </g>
    <g id="text_19">
     <!-- Magnitude0 [mV] -->
     <g transform="translate(14.798438 218.268344) rotate(-90) scale(0.1 -0.1)">
      <defs>
       <path id="DejaVuSans-67" d="M 2906 1791 
Q 2906 2416 2648 2759 
Q 2391 3103 1925 3103 
Q 1463 3103 1205 2759 
Q 947 2416 947 1791 
Q 947 1169 1205 825 
Q 1463 481 1925 481 
Q 2391 481 2648 825 
Q 2906 1169 2906 1791 
z
M 3481 434 
Q 3481 -459 3084 -895 
Q 2688 -1331 1869 -1331 
Q 1566 -1331 1297 -1286 
Q 1028 -1241 775 -1147 
L 775 -588 
Q 1028 -725 1275 -790 
Q 1522 -856 1778 -856 
Q 2344 -856 2625 -561 
Q 2906 -266 2906 331 
L 2906 616 
Q 2728 306 2450 153 
Q 2172 0 1784 0 
Q 1141 0 747 490 
Q 353 981 353 1791 
Q 353 2603 747 3093 
Q 1141 3584 1784 3584 
Q 2172 3584 2450 3431 
Q 2728 3278 2906 2969 
L 2906 3500 
L 3481 3500 
L 3481 434 
z
" transform="scale(0.015625)"/>
       <path id="DejaVuSans-69" d="M 603 3500 
L 1178 3500 
L 1178 0 
L 603 0 
L 603 3500 
z
M 603 4863 
L 1178 4863 
L 1178 4134 
L 603 4134 
L 603 4863 
z
" transform="scale(0.015625)"/>
       <path id="DejaVuSans-6d" d="M 3328 2828 
Q 3544 3216 3844 3400 
Q 4144 3584 4550 3584 
Q 5097 3584 5394 3201 
Q 5691 2819 5691 2113 
L 5691 0 
L 5113 0 
L 5113 2094 
Q 5113 2597 4934 2840 
Q 4756 3084 4391 3084 
Q 3944 3084 3684 2787 
Q 3425 2491 3425 1978 
L 3425 0 
L 2847 0 
L 2847 2094 
Q 2847 2600 2669 2842 
Q 2491 3084 2119 3084 
Q 1678 3084 1418 2786 
Q 1159 2488 1159 1978 
L 1159 0 
L 581 0 
L 581 3500 
L 1159 3500 
L 1159 2956 
Q 1356 3278 1631 3431 
Q 1906 3584 2284 3584 
Q 2666 3584 2933 3390 
Q 3200 3197 3328 2828 
z
" transform="scale(0.015625)"/>
       <path id="DejaVuSans-56" d="M 1831 0 
L 50 4666 
L 709 4666 
L 2188 738 
L 3669 4666 
L 4325 4666 
L 2547 0 
L 1831 0 
z
" transform="scale(0.015625)"/>
      </defs>
      <use xlink:href="#DejaVuSans-4d"/>
      <use xlink:href="#DejaVuSans-61" x="86.279297"/>
      <use xlink:href="#DejaVuSans-67" x="147.558594"/>
      <use xlink:href="#DejaVuSans-6e" x="211.035156"/>
      <use xlink:href="#DejaVuSans-69" x="274.414062"/>
      <use xlink:href="#DejaVuSans-74" x="302.197266"/>
      <use xlink:href="#DejaVuSans-75" x="341.40625"/>
      <use xlink:href="#DejaVuSans-64" x="404.785156"/>
      <use xlink:href="#DejaVuSans-65" x="468.261719"/>
      <use xlink:href="#DejaVuSans-30" x="529.785156"/>
      <use xlink:href="#DejaVuSans-20" x="593.408203"/>
      <use xlink:href="#DejaVuSans-5b" x="625.195312"/>
      <use xlink:href="#DejaVuSans-6d" x="664.208984"/>
      <use xlink:href="#DejaVuSans-56" x="761.621094"/>
      <use xlink:href="#DejaVuSans-5d" x="830.029297"/>
     </g>
    </g>
   </g>
   <g id="line2d_17">
    <path d="M 63.198352 293.826945 
L 71.522828 293.787683 
L 79.847303 293.721599 
L 88.171779 293.727555 
L 96.496254 293.66635 
L 104.82073 293.725643 
L 113.145205 293.783266 
L 121.469681 293.788405 
L 129.794156 293.725796 
L 138.118632 293.81287 
L 146.443108 293.814012 
L 154.767583 293.777559 
L 163.092059 293.741433 
L 171.416534 293.717226 
L 179.74101 293.731648 
L 188.065485 293.784831 
L 196.389961 293.745006 
L 204.714436 293.730372 
L 213.038912 293.835151 
L 221.363387 293.827061 
L 229.687863 293.889321 
L 238.012338 293.981667 
L 246.336814 294.059643 
L 254.661289 294.251361 
L 262.985765 294.578906 
L 271.31024 295.18886 
L 279.634716 295.776 
L 287.959191 295.112661 
L 296.283667 294.388214 
L 304.608142 294.158596 
L 312.932618 294.028887 
L 321.257094 293.794385 
L 329.581569 293.805518 
L 337.906045 293.739877 
L 346.23052 293.707094 
L 354.554996 293.74054 
L 362.879471 293.744099 
L 371.203947 293.636302 
L 379.528422 293.625071 
L 387.852898 293.622923 
" clip-path="url(#pf8502aa40b)" style="fill: none; stroke: #440154; stroke-width: 1.5; stroke-linecap: square"/>
   </g>
   <g id="line2d_18">
    <path d="M 63.198352 281.784473 
L 71.522828 281.733223 
L 79.847303 281.731894 
L 88.171779 281.768317 
L 96.496254 281.616504 
L 104.82073 281.783824 
L 113.145205 281.739597 
L 121.469681 281.767984 
L 129.794156 281.811727 
L 138.118632 281.819896 
L 146.443108 281.831017 
L 154.767583 281.741775 
L 163.092059 281.888556 
L 171.416534 281.909519 
L 179.74101 281.935031 
L 188.065485 281.87567 
L 196.389961 282.020111 
L 204.714436 282.121179 
L 213.038912 282.21197 
L 221.363387 282.451867 
L 229.687863 282.679651 
L 238.012338 283.029865 
L 246.336814 283.712193 
L 254.661289 284.7932 
L 262.985765 286.7573 
L 271.31024 290.137146 
L 279.634716 293.886306 
L 287.959191 289.926915 
L 296.283667 286.093731 
L 304.608142 284.11581 
L 312.932618 282.938695 
L 321.257094 282.301779 
L 329.581569 281.996569 
L 337.906045 281.823794 
L 346.23052 281.684672 
L 354.554996 281.497823 
L 362.879471 281.439503 
L 371.203947 281.314093 
L 379.528422 281.39273 
L 387.852898 281.293104 
" clip-path="url(#pf8502aa40b)" style="fill: none; stroke: #471365; stroke-width: 1.5; stroke-linecap: square"/>
   </g>
   <g id="line2d_19">
    <path d="M 63.198352 269.803133 
L 71.522828 269.77902 
L 79.847303 269.834877 
L 88.171779 269.762996 
L 96.496254 269.737034 
L 104.82073 269.760993 
L 113.145205 269.813944 
L 121.469681 269.873357 
L 129.794156 269.770778 
L 138.118632 269.835071 
L 146.443108 269.77169 
L 154.767583 269.857929 
L 163.092059 269.915315 
L 171.416534 269.959952 
L 179.74101 269.989757 
L 188.065485 270.128313 
L 196.389961 270.274157 
L 204.714436 270.410031 
L 213.038912 270.69553 
L 221.363387 270.971625 
L 229.687863 271.387301 
L 238.012338 272.153867 
L 246.336814 273.359006 
L 254.661289 275.40502 
L 262.985765 279.006374 
L 271.31024 285.688369 
L 279.634716 291.986217 
L 287.959191 284.019507 
L 296.283667 277.511034 
L 304.608142 273.851794 
L 312.932618 271.888062 
L 321.257094 270.813239 
L 329.581569 270.141739 
L 337.906045 269.703971 
L 346.23052 269.423971 
L 354.554996 269.313031 
L 362.879471 269.172072 
L 371.203947 269.10748 
L 379.528422 268.964404 
L 387.852898 268.970633 
" clip-path="url(#pf8502aa40b)" style="fill: none; stroke: #482475; stroke-width: 1.5; stroke-linecap: square"/>
   </g>
   <g id="line2d_20">
    <path d="M 63.198352 257.924768 
L 71.522828 257.77324 
L 79.847303 257.788288 
L 88.171779 257.7817 
L 96.496254 257.833523 
L 104.82073 257.768596 
L 113.145205 257.797142 
L 121.469681 257.775269 
L 129.794156 257.769832 
L 138.118632 257.774954 
L 146.443108 257.820124 
L 154.767583 257.932448 
L 163.092059 257.999881 
L 171.416534 258.051501 
L 179.74101 258.21171 
L 188.065485 258.29715 
L 196.389961 258.451298 
L 204.714436 258.750378 
L 213.038912 259.055563 
L 221.363387 259.540473 
L 229.687863 260.249527 
L 238.012338 261.188719 
L 246.336814 263.025508 
L 254.661289 266.122177 
L 262.985765 271.707164 
L 271.31024 282.149915 
L 279.634716 289.711918 
L 287.959191 277.601893 
L 296.283667 268.601828 
L 304.608142 263.608142 
L 312.932618 260.840281 
L 321.257094 259.277591 
L 329.581569 258.302716 
L 337.906045 257.765245 
L 346.23052 257.44571 
L 354.554996 257.057439 
L 362.879471 256.920086 
L 371.203947 256.797706 
L 379.528422 256.664799 
L 387.852898 256.599385 
" clip-path="url(#pf8502aa40b)" style="fill: none; stroke: #463480; stroke-width: 1.5; stroke-linecap: square"/>
   </g>
   <g id="line2d_21">
    <path d="M 63.198352 245.882543 
L 71.522828 245.84122 
L 79.847303 245.843701 
L 88.171779 245.766792 
L 96.496254 245.924332 
L 104.82073 245.895644 
L 113.145205 245.865219 
L 121.469681 245.881714 
L 129.794156 245.923121 
L 138.118632 245.889415 
L 146.443108 245.976735 
L 154.767583 246.019207 
L 163.092059 246.017384 
L 171.416534 246.262183 
L 179.74101 246.352692 
L 188.065485 246.516517 
L 196.389961 246.753424 
L 204.714436 247.044718 
L 213.038912 247.469381 
L 221.363387 248.144938 
L 229.687863 249.054338 
L 238.012338 250.465338 
L 246.336814 252.934052 
L 254.661289 257.048174 
L 262.985765 265.009631 
L 271.31024 279.859023 
L 279.634716 285.371288 
L 287.959191 269.655246 
L 296.283667 258.942425 
L 304.608142 253.082248 
L 312.932618 249.662246 
L 321.257094 247.701542 
L 329.581569 246.525641 
L 337.906045 245.729929 
L 346.23052 245.215523 
L 354.554996 244.908331 
L 362.879471 244.686428 
L 371.203947 244.54611 
L 379.528422 244.28158 
L 387.852898 244.208278 
" clip-path="url(#pf8502aa40b)" style="fill: none; stroke: #414487; stroke-width: 1.5; stroke-linecap: square"/>
   </g>
   <g id="line2d_22">
    <path d="M 63.198352 233.986863 
L 71.522828 233.940121 
L 79.847303 233.918736 
L 88.171779 233.882868 
L 96.496254 233.931459 
L 104.82073 233.894025 
L 113.145205 233.883977 
L 121.469681 233.864316 
L 129.794156 234.015966 
L 138.118632 234.069139 
L 146.443108 234.059778 
L 154.767583 234.154672 
L 163.092059 234.268341 
L 171.416534 234.316254 
L 179.74101 234.518701 
L 188.065485 234.729444 
L 196.389961 235.010446 
L 204.714436 235.439912 
L 213.038912 235.996837 
L 221.363387 236.678867 
L 229.687863 237.934291 
L 238.012338 239.716921 
L 246.336814 242.616948 
L 254.661289 248.072408 
L 262.985765 258.99955 
L 271.31024 279.320718 
L 279.634716 279.919296 
L 287.959191 261.20351 
L 296.283667 249.160296 
L 304.608142 242.176844 
L 312.932618 238.414382 
L 321.257094 236.088999 
L 329.581569 234.704829 
L 337.906045 233.739759 
L 346.23052 233.124074 
L 354.554996 232.815492 
L 362.879471 232.404785 
L 371.203947 232.226411 
L 379.528422 232.09714 
L 387.852898 231.899634 
" clip-path="url(#pf8502aa40b)" style="fill: none; stroke: #3b528b; stroke-width: 1.5; stroke-linecap: square"/>
   </g>
   <g id="line2d_23">
    <path d="M 63.198352 221.984994 
L 71.522828 221.986678 
L 79.847303 221.963968 
L 88.171779 221.897797 
L 96.496254 221.996368 
L 104.82073 221.885706 
L 113.145205 221.951186 
L 121.469681 221.927601 
L 129.794156 222.06084 
L 138.118632 222.069676 
L 146.443108 222.092691 
L 154.767583 222.269144 
L 163.092059 222.376396 
L 171.416534 222.517366 
L 179.74101 222.715937 
L 188.065485 222.96571 
L 196.389961 223.279047 
L 204.714436 223.788554 
L 213.038912 224.440623 
L 221.363387 225.578079 
L 229.687863 227.0188 
L 238.012338 229.134857 
L 246.336814 232.879081 
L 254.661289 239.882802 
L 262.985765 254.763583 
L 271.31024 276.557878 
L 279.634716 262.180554 
L 287.959191 246.078438 
L 296.283667 236.270418 
L 304.608142 230.271457 
L 312.932618 226.635307 
L 321.257094 224.321751 
L 329.581569 222.806235 
L 337.906045 221.785224 
L 346.23052 221.098349 
L 354.554996 220.49036 
L 362.879471 220.152744 
L 371.203947 219.93773 
L 379.528422 219.682192 
L 387.852898 219.560181 
" clip-path="url(#pf8502aa40b)" style="fill: none; stroke: #355f8d; stroke-width: 1.5; stroke-linecap: square"/>
   </g>
   <g id="line2d_24">
    <path d="M 63.198352 210.125736 
L 71.522828 210.108442 
L 79.847303 210.107018 
L 88.171779 210.146905 
L 96.496254 210.141747 
L 104.82073 210.115027 
L 113.145205 210.112685 
L 121.469681 210.062875 
L 129.794156 210.111731 
L 138.118632 210.1588 
L 146.443108 210.281174 
L 154.767583 210.386405 
L 163.092059 210.4641 
L 171.416534 210.679586 
L 179.74101 210.891129 
L 188.065485 211.205486 
L 196.389961 211.58329 
L 204.714436 212.18557 
L 213.038912 213.055417 
L 221.363387 214.297874 
L 229.687863 215.878886 
L 238.012338 218.504217 
L 246.336814 223.230243 
L 254.661289 232.058311 
L 262.985765 253.789548 
L 271.31024 242.687035 
L 279.634716 221.758933 
L 287.959191 219.236407 
L 296.283667 216.815011 
L 304.608142 215.04262 
L 312.932618 213.327903 
L 321.257094 211.855971 
L 329.581569 210.673022 
L 337.906045 209.691982 
L 346.23052 209.036928 
L 354.554996 208.546547 
L 362.879471 208.090346 
L 371.203947 207.681115 
L 379.528422 207.50318 
L 387.852898 207.273358 
" clip-path="url(#pf8502aa40b)" style="fill: none; stroke: #2f6c8e; stroke-width: 1.5; stroke-linecap: square"/>
   </g>
   <g id="line2d_25">
    <path d="M 63.198352 198.263201 
L 71.522828 198.241842 
L 79.847303 198.257148 
L 88.171779 198.130048 
L 96.496254 198.183322 
L 104.82073 198.245479 
L 113.145205 198.190638 
L 121.469681 198.270821 
L 129.794156 198.21633 
L 138.118632 198.328511 
L 146.443108 198.421806 
L 154.767583 198.528372 
L 163.092059 198.712229 
L 171.416534 198.891346 
L 179.74101 199.197301 
L 188.065485 199.64926 
L 196.389961 199.918456 
L 204.714436 200.840005 
L 213.038912 201.808727 
L 221.363387 203.216423 
L 229.687863 205.022824 
L 238.012338 208.16726 
L 246.336814 214.189933 
L 254.661289 225.964887 
L 262.985765 245.127786 
L 271.31024 212.094308 
L 279.634716 207.121849 
L 287.959191 204.672533 
L 296.283667 203.135192 
L 304.608142 201.978262 
L 312.932618 200.668454 
L 321.257094 199.565426 
L 329.581569 198.486622 
L 337.906045 197.615449 
L 346.23052 196.846035 
L 354.554996 196.37152 
L 362.879471 195.860611 
L 371.203947 195.529381 
L 379.528422 195.285332 
L 387.852898 195.027339 
" clip-path="url(#pf8502aa40b)" style="fill: none; stroke: #2a788e; stroke-width: 1.5; stroke-linecap: square"/>
   </g>
   <g id="line2d_26">
    <path d="M 63.198352 186.421801 
L 71.522828 186.421748 
L 79.847303 186.424631 
L 88.171779 186.347311 
L 96.496254 186.346346 
L 104.82073 186.361132 
L 113.145205 186.469051 
L 121.469681 186.440472 
L 129.794156 186.454964 
L 138.118632 186.583517 
L 146.443108 186.604841 
L 154.767583 186.781594 
L 163.092059 186.921735 
L 171.416534 187.17319 
L 179.74101 187.533292 
L 188.065485 187.890467 
L 196.389961 188.493309 
L 204.714436 189.044209 
L 213.038912 190.187892 
L 221.363387 191.549541 
L 229.687863 193.871387 
L 238.012338 198.021503 
L 246.336814 205.452185 
L 254.661289 224.01901 
L 262.985765 213.905046 
L 271.31024 196.753711 
L 279.634716 193.487475 
L 287.959191 191.487133 
L 296.283667 190.082062 
L 304.608142 188.88913 
L 312.932618 188.027085 
L 321.257094 187.28908 
L 329.581569 186.360444 
L 337.906045 185.511858 
L 346.23052 184.727597 
L 354.554996 184.230425 
L 362.879471 183.790714 
L 371.203947 183.328168 
L 379.528422 183.031589 
L 387.852898 182.81601 
" clip-path="url(#pf8502aa40b)" style="fill: none; stroke: #25848e; stroke-width: 1.5; stroke-linecap: square"/>
   </g>
   <g id="line2d_27">
    <path d="M 63.198352 174.594983 
L 71.522828 174.60757 
L 79.847303 174.610126 
L 88.171779 174.538591 
L 96.496254 174.560195 
L 104.82073 174.520223 
L 113.145205 174.685502 
L 121.469681 174.583471 
L 129.794156 174.665508 
L 138.118632 174.760893 
L 146.443108 174.929789 
L 154.767583 175.02696 
L 163.092059 175.293468 
L 171.416534 175.497718 
L 179.74101 175.848446 
L 188.065485 176.382643 
L 196.389961 177.053394 
L 204.714436 177.821434 
L 213.038912 179.170045 
L 221.363387 180.899407 
L 229.687863 183.903169 
L 238.012338 188.7486 
L 246.336814 200.962271 
L 254.661289 221.953759 
L 262.985765 192.398267 
L 271.31024 183.825404 
L 279.634716 180.028451 
L 287.959191 178.894284 
L 296.283667 177.362278 
L 304.608142 176.413731 
L 312.932618 175.677868 
L 321.257094 174.675431 
L 329.581569 173.994926 
L 337.906045 173.256152 
L 346.23052 172.608829 
L 354.554996 172.11281 
L 362.879471 171.662186 
L 371.203947 171.233129 
L 379.528422 170.899098 
L 387.852898 170.678857 
" clip-path="url(#pf8502aa40b)" style="fill: none; stroke: #21918c; stroke-width: 1.5; stroke-linecap: square"/>
   </g>
   <g id="line2d_28">
    <path d="M 63.198352 162.854518 
L 71.522828 162.839121 
L 79.847303 162.810405 
L 88.171779 162.779419 
L 96.496254 162.829992 
L 104.82073 162.852892 
L 113.145205 162.832131 
L 121.469681 162.868709 
L 129.794156 162.865366 
L 138.118632 163.005268 
L 146.443108 163.199358 
L 154.767583 163.325982 
L 163.092059 163.512228 
L 171.416534 163.740877 
L 179.74101 164.239524 
L 188.065485 164.748502 
L 196.389961 165.466528 
L 204.714436 166.377985 
L 213.038912 167.748233 
L 221.363387 170.146233 
L 229.687863 174.562468 
L 238.012338 184.015789 
L 246.336814 202.83403 
L 254.661289 204.475095 
L 262.985765 179.302837 
L 271.31024 173.311811 
L 279.634716 169.075549 
L 287.959191 166.502755 
L 296.283667 165.501261 
L 304.608142 164.623791 
L 312.932618 163.605046 
L 321.257094 162.804229 
L 329.581569 161.795516 
L 337.906045 161.203892 
L 346.23052 160.613015 
L 354.554996 160.073987 
L 362.879471 159.453757 
L 371.203947 159.080261 
L 379.528422 158.722997 
L 387.852898 158.446676 
" clip-path="url(#pf8502aa40b)" style="fill: none; stroke: #1e9c89; stroke-width: 1.5; stroke-linecap: square"/>
   </g>
   <g id="line2d_29">
    <path d="M 63.198352 151.275737 
L 71.522828 151.301574 
L 79.847303 151.171071 
L 88.171779 151.201536 
L 96.496254 151.147851 
L 104.82073 151.173882 
L 113.145205 151.145224 
L 121.469681 151.145715 
L 129.794156 151.352073 
L 138.118632 151.34578 
L 146.443108 151.441395 
L 154.767583 151.660894 
L 163.092059 151.964645 
L 171.416534 152.23152 
L 179.74101 152.643054 
L 188.065485 153.263656 
L 196.389961 153.948154 
L 204.714436 155.236129 
L 213.038912 156.910603 
L 221.363387 159.447645 
L 229.687863 166.001091 
L 238.012338 175.744546 
L 246.336814 210.607452 
L 254.661289 185.782485 
L 262.985765 168.661801 
L 271.31024 161.424245 
L 279.634716 157.442314 
L 287.959191 154.202939 
L 296.283667 153.005172 
L 304.608142 151.787601 
L 312.932618 151.131346 
L 321.257094 150.287188 
L 329.581569 149.617805 
L 337.906045 148.915364 
L 346.23052 148.446249 
L 354.554996 147.957489 
L 362.879471 147.435135 
L 371.203947 147.049001 
L 379.528422 146.738825 
L 387.852898 146.416052 
" clip-path="url(#pf8502aa40b)" style="fill: none; stroke: #22a884; stroke-width: 1.5; stroke-linecap: square"/>
   </g>
   <g id="line2d_30">
    <path d="M 63.198352 139.860357 
L 71.522828 139.754764 
L 79.847303 139.74816 
L 88.171779 139.550529 
L 96.496254 139.627691 
L 104.82073 139.522174 
L 113.145205 139.673833 
L 121.469681 139.682987 
L 129.794156 139.683216 
L 138.118632 139.950957 
L 146.443108 139.994157 
L 154.767583 140.233136 
L 163.092059 140.53874 
L 171.416534 140.80967 
L 179.74101 141.290102 
L 188.065485 141.792945 
L 196.389961 142.840545 
L 204.714436 144.047482 
L 213.038912 145.824918 
L 221.363387 149.360125 
L 229.687863 159.573713 
L 238.012338 183.09038 
L 246.336814 198.100686 
L 254.661289 169.127911 
L 262.985765 157.946292 
L 271.31024 149.795372 
L 279.634716 145.592303 
L 287.959191 142.422299 
L 296.283667 140.86647 
L 304.608142 139.758184 
L 312.932618 139.300214 
L 321.257094 138.42637 
L 329.581569 137.748738 
L 337.906045 137.113338 
L 346.23052 136.497471 
L 354.554996 136.069032 
L 362.879471 135.607338 
L 371.203947 135.291544 
L 379.528422 134.903745 
L 387.852898 134.53645 
" clip-path="url(#pf8502aa40b)" style="fill: none; stroke: #2fb47c; stroke-width: 1.5; stroke-linecap: square"/>
   </g>
   <g id="line2d_31">
    <path d="M 63.198352 128.28229 
L 71.522828 128.149992 
L 79.847303 128.090015 
L 88.171779 128.181758 
L 96.496254 128.146583 
L 104.82073 128.107154 
L 113.145205 128.104071 
L 121.469681 128.177688 
L 129.794156 128.287494 
L 138.118632 128.344765 
L 146.443108 128.505761 
L 154.767583 128.744782 
L 163.092059 128.992257 
L 171.416534 129.428816 
L 179.74101 129.88367 
L 188.065485 130.522882 
L 196.389961 131.412926 
L 204.714436 132.70541 
L 213.038912 135.404345 
L 221.363387 142.687316 
L 229.687863 155.424398 
L 238.012338 215.350689 
L 246.336814 180.91123 
L 254.661289 158.645049 
L 262.985765 146.361088 
L 271.31024 137.838965 
L 279.634716 133.815392 
L 287.959191 130.776344 
L 296.283667 128.725033 
L 304.608142 127.701183 
L 312.932618 126.739959 
L 321.257094 126.180951 
L 329.581569 125.799965 
L 337.906045 125.185869 
L 346.23052 124.609471 
L 354.554996 124.152424 
L 362.879471 123.762287 
L 371.203947 123.212052 
L 379.528422 122.959378 
L 387.852898 122.575552 
" clip-path="url(#pf8502aa40b)" style="fill: none; stroke: #44bf70; stroke-width: 1.5; stroke-linecap: square"/>
   </g>
   <g id="line2d_32">
    <path d="M 63.198352 116.822499 
L 71.522828 116.832703 
L 79.847303 116.730756 
L 88.171779 116.686611 
L 96.496254 116.660721 
L 104.82073 116.70796 
L 113.145205 116.728522 
L 121.469681 116.781365 
L 129.794156 116.863821 
L 138.118632 116.932749 
L 146.443108 117.108242 
L 154.767583 117.354906 
L 163.092059 117.676494 
L 171.416534 118.070788 
L 179.74101 118.615446 
L 188.065485 119.299217 
L 196.389961 120.256393 
L 204.714436 121.891086 
L 213.038912 125.626887 
L 221.363387 133.562311 
L 229.687863 172.322402 
L 238.012338 211.342965 
L 246.336814 170.648527 
L 254.661289 146.979229 
L 262.985765 134.37208 
L 271.31024 127.270556 
L 279.634716 122.40308 
L 287.959191 119.947567 
L 296.283667 117.599432 
L 304.608142 116.201967 
L 312.932618 115.313007 
L 321.257094 114.669115 
L 329.581569 113.958471 
L 337.906045 113.345724 
L 346.23052 112.948314 
L 354.554996 112.351013 
L 362.879471 111.839571 
L 371.203947 111.424614 
L 379.528422 111.126827 
L 387.852898 110.768224 
" clip-path="url(#pf8502aa40b)" style="fill: none; stroke: #5ec962; stroke-width: 1.5; stroke-linecap: square"/>
   </g>
   <g id="line2d_33">
    <path d="M 63.198352 105.626833 
L 71.522828 105.53543 
L 79.847303 105.384728 
L 88.171779 105.439053 
L 96.496254 105.428353 
L 104.82073 105.361434 
L 113.145205 105.463245 
L 121.469681 105.434933 
L 129.794156 105.582748 
L 138.118632 105.673589 
L 146.443108 105.895818 
L 154.767583 106.175133 
L 163.092059 106.522712 
L 171.416534 106.90522 
L 179.74101 107.464162 
L 188.065485 108.292655 
L 196.389961 109.410513 
L 204.714436 111.942881 
L 213.038912 117.628097 
L 221.363387 134.421471 
L 229.687863 234.069672 
L 238.012338 201.25324 
L 246.336814 159.005114 
L 254.661289 136.279853 
L 262.985765 123.812002 
L 271.31024 116.302241 
L 279.634716 111.237722 
L 287.959191 108.27678 
L 296.283667 105.914823 
L 304.608142 104.555111 
L 312.932618 103.455108 
L 321.257094 102.568319 
L 329.581569 102.182652 
L 337.906045 101.650064 
L 346.23052 101.092875 
L 354.554996 100.638242 
L 362.879471 100.191824 
L 371.203947 99.688273 
L 379.528422 99.393519 
L 387.852898 99.070172 
" clip-path="url(#pf8502aa40b)" style="fill: none; stroke: #7ad151; stroke-width: 1.5; stroke-linecap: square"/>
   </g>
   <g id="line2d_34">
    <path d="M 63.198352 94.450522 
L 71.522828 94.36573 
L 79.847303 94.229803 
L 88.171779 94.21508 
L 96.496254 94.19515 
L 104.82073 94.23587 
L 113.145205 94.207162 
L 121.469681 94.310434 
L 129.794156 94.429284 
L 138.118632 94.548763 
L 146.443108 94.783204 
L 154.767583 95.040462 
L 163.092059 95.2605 
L 171.416534 95.824383 
L 179.74101 96.412926 
L 188.065485 97.311038 
L 196.389961 98.664108 
L 204.714436 101.467549 
L 213.038912 107.011059 
L 221.363387 148.187406 
L 229.687863 233.777018 
L 238.012338 196.524441 
L 246.336814 151.122999 
L 254.661289 126.833835 
L 262.985765 113.530952 
L 271.31024 105.872715 
L 279.634716 99.983968 
L 287.959191 96.55873 
L 296.283667 94.095912 
L 304.608142 92.528705 
L 312.932618 91.556755 
L 321.257094 91.005946 
L 329.581569 90.267693 
L 337.906045 89.862642 
L 346.23052 89.335432 
L 354.554996 88.972614 
L 362.879471 88.540099 
L 371.203947 88.122521 
L 379.528422 87.829431 
L 387.852898 87.479131 
" clip-path="url(#pf8502aa40b)" style="fill: none; stroke: #9bd93c; stroke-width: 1.5; stroke-linecap: square"/>
   </g>
   <g id="line2d_35">
    <path d="M 63.198352 83.575433 
L 71.522828 83.492441 
L 79.847303 83.312131 
L 88.171779 83.261042 
L 96.496254 83.282792 
L 104.82073 83.277928 
L 113.145205 83.316728 
L 121.469681 83.37834 
L 129.794156 83.557997 
L 138.118632 83.689086 
L 146.443108 83.99204 
L 154.767583 84.230859 
L 163.092059 84.579852 
L 171.416534 85.070213 
L 179.74101 85.843514 
L 188.065485 86.699411 
L 196.389961 88.502835 
L 204.714436 92.395714 
L 213.038912 104.253283 
L 221.363387 183.368045 
L 229.687863 251.392595 
L 238.012338 189.940134 
L 246.336814 141.078847 
L 254.661289 116.124264 
L 262.985765 102.56799 
L 271.31024 94.514594 
L 279.634716 89.724015 
L 287.959191 85.839076 
L 296.283667 83.916739 
L 304.608142 81.539864 
L 312.932618 80.629787 
L 321.257094 79.843906 
L 329.581569 79.165539 
L 337.906045 78.550869 
L 346.23052 78.122555 
L 354.554996 77.55153 
L 362.879471 77.163136 
L 371.203947 76.788341 
L 379.528422 76.496236 
L 387.852898 76.212813 
" clip-path="url(#pf8502aa40b)" style="fill: none; stroke: #bddf26; stroke-width: 1.5; stroke-linecap: square"/>
   </g>
   <g id="line2d_36">
    <path d="M 63.198352 72.736171 
L 71.522828 72.623098 
L 79.847303 72.515028 
L 88.171779 72.430246 
L 96.496254 72.422871 
L 104.82073 72.412731 
L 113.145205 72.468778 
L 121.469681 72.535447 
L 129.794156 72.64748 
L 138.118632 72.812427 
L 146.443108 73.025928 
L 154.767583 73.312202 
L 163.092059 73.694966 
L 171.416534 74.195005 
L 179.74101 75.002997 
L 188.065485 76.241421 
L 196.389961 78.696296 
L 204.714436 83.256466 
L 213.038912 111.324498 
L 221.363387 192.181299 
L 229.687863 249.812211 
L 238.012338 184.090311 
L 246.336814 132.331747 
L 254.661289 105.950078 
L 262.985765 92.477718 
L 271.31024 83.616784 
L 279.634716 78.11454 
L 287.959191 74.693744 
L 296.283667 72.708648 
L 304.608142 70.476404 
L 312.932618 69.462425 
L 321.257094 68.775409 
L 329.581569 67.948019 
L 337.906045 67.360987 
L 346.23052 66.893743 
L 354.554996 66.398192 
L 362.879471 65.978212 
L 371.203947 65.66345 
L 379.528422 65.243602 
L 387.852898 64.944333 
" clip-path="url(#pf8502aa40b)" style="fill: none; stroke: #dfe318; stroke-width: 1.5; stroke-linecap: square"/>
   </g>
   <g id="line2d_37">
    <path d="M 63.198352 62.011283 
L 71.522828 62.024921 
L 79.847303 61.732585 
L 88.171779 61.753625 
L 96.496254 61.730583 
L 104.82073 61.800244 
L 113.145205 61.725088 
L 121.469681 61.853437 
L 129.794156 61.916235 
L 138.118632 62.132504 
L 146.443108 62.34289 
L 154.767583 62.68374 
L 163.092059 63.141724 
L 171.416534 63.628491 
L 179.74101 64.565523 
L 188.065485 66.284916 
L 196.389961 69.125433 
L 204.714436 76.347374 
L 213.038912 128.24381 
L 221.363387 205.943496 
L 229.687863 252.113841 
L 238.012338 178.481682 
L 246.336814 123.737546 
L 254.661289 96.136797 
L 262.985765 81.709799 
L 271.31024 73.378106 
L 279.634716 67.784313 
L 287.959191 64.066223 
L 296.283667 61.411646 
L 304.608142 59.794331 
L 312.932618 58.433808 
L 321.257094 57.575328 
L 329.581569 56.810385 
L 337.906045 56.141249 
L 346.23052 55.581022 
L 354.554996 55.221308 
L 362.879471 54.788456 
L 371.203947 54.461548 
L 379.528422 54.180851 
L 387.852898 53.856 
" clip-path="url(#pf8502aa40b)" style="fill: none; stroke: #fde725; stroke-width: 1.5; stroke-linecap: square"/>
   </g>
   <g id="patch_3">
    <path d="M 46.965625 307.872 
L 46.965625 41.76 
" style="fill: none; stroke: #000000; stroke-width: 0.8; stroke-linejoin: miter; stroke-linecap: square"/>
   </g>
   <g id="patch_4">
    <path d="M 404.085625 307.872 
L 404.085625 41.76 
" style="fill: none; stroke: #000000; stroke-width: 0.8; stroke-linejoin: miter; stroke-linecap: square"/>
   </g>
   <g id="patch_5">
    <path d="M 46.965625 307.872 
L 404.085625 307.872 
" style="fill: none; stroke: #000000; stroke-width: 0.8; stroke-linejoin: miter; stroke-linecap: square"/>
   </g>
   <g id="patch_6">
    <path d="M 46.965625 41.76 
L 404.085625 41.76 
" style="fill: none; stroke: #000000; stroke-width: 0.8; stroke-linejoin: miter; stroke-linecap: square"/>
   </g>
   <g id="legend_1">
    <g id="patch_7">
     <path d="M 423.941625 307.872 
L 697.622875 307.872 
Q 699.622875 307.872 699.622875 305.872 
L 699.622875 130.456375 
Q 699.622875 128.456375 697.622875 128.456375 
L 423.941625 128.456375 
Q 421.941625 128.456375 421.941625 130.456375 
L 421.941625 305.872 
Q 421.941625 307.872 423.941625 307.872 
z
" style="fill: #ffffff; opacity: 0.8; stroke: #cccccc; stroke-linejoin: miter"/>
    </g>
    <g id="text_20">
     <!-- q00 spec_ro Readout-spectroscopy pulse amplitude () -->
     <g transform="translate(425.941625 140.054812) scale(0.1 -0.1)">
      <defs>
       <path id="DejaVuSans-73" d="M 2834 3397 
L 2834 2853 
Q 2591 2978 2328 3040 
Q 2066 3103 1784 3103 
Q 1356 3103 1142 2972 
Q 928 2841 928 2578 
Q 928 2378 1081 2264 
Q 1234 2150 1697 2047 
L 1894 2003 
Q 2506 1872 2764 1633 
Q 3022 1394 3022 966 
Q 3022 478 2636 193 
Q 2250 -91 1575 -91 
Q 1294 -91 989 -36 
Q 684 19 347 128 
L 347 722 
Q 666 556 975 473 
Q 1284 391 1588 391 
Q 1994 391 2212 530 
Q 2431 669 2431 922 
Q 2431 1156 2273 1281 
Q 2116 1406 1581 1522 
L 1381 1569 
Q 847 1681 609 1914 
Q 372 2147 372 2553 
Q 372 3047 722 3315 
Q 1072 3584 1716 3584 
Q 2034 3584 2315 3537 
Q 2597 3491 2834 3397 
z
" transform="scale(0.015625)"/>
       <path id="DejaVuSans-70" d="M 1159 525 
L 1159 -1331 
L 581 -1331 
L 581 3500 
L 1159 3500 
L 1159 2969 
Q 1341 3281 1617 3432 
Q 1894 3584 2278 3584 
Q 2916 3584 3314 3078 
Q 3713 2572 3713 1747 
Q 3713 922 3314 415 
Q 2916 -91 2278 -91 
Q 1894 -91 1617 61 
Q 1341 213 1159 525 
z
M 3116 1747 
Q 3116 2381 2855 2742 
Q 2594 3103 2138 3103 
Q 1681 3103 1420 2742 
Q 1159 2381 1159 1747 
Q 1159 1113 1420 752 
Q 1681 391 2138 391 
Q 2594 391 2855 752 
Q 3116 1113 3116 1747 
z
" transform="scale(0.015625)"/>
       <path id="DejaVuSans-5f" d="M 3263 -1063 
L 3263 -1509 
L -63 -1509 
L -63 -1063 
L 3263 -1063 
z
" transform="scale(0.015625)"/>
       <path id="DejaVuSans-2d" d="M 313 2009 
L 1997 2009 
L 1997 1497 
L 313 1497 
L 313 2009 
z
" transform="scale(0.015625)"/>
       <path id="DejaVuSans-6c" d="M 603 4863 
L 1178 4863 
L 1178 0 
L 603 0 
L 603 4863 
z
" transform="scale(0.015625)"/>
       <path id="DejaVuSans-28" d="M 1984 4856 
Q 1566 4138 1362 3434 
Q 1159 2731 1159 2009 
Q 1159 1288 1364 580 
Q 1569 -128 1984 -844 
L 1484 -844 
Q 1016 -109 783 600 
Q 550 1309 550 2009 
Q 550 2706 781 3412 
Q 1013 4119 1484 4856 
L 1984 4856 
z
" transform="scale(0.015625)"/>
       <path id="DejaVuSans-29" d="M 513 4856 
L 1013 4856 
Q 1481 4119 1714 3412 
Q 1947 2706 1947 2009 
Q 1947 1309 1714 600 
Q 1481 -109 1013 -844 
L 513 -844 
Q 928 -128 1133 580 
Q 1338 1288 1338 2009 
Q 1338 2731 1133 3434 
Q 928 4138 513 4856 
z
" transform="scale(0.015625)"/>
      </defs>
      <use xlink:href="#DejaVuSans-71"/>
      <use xlink:href="#DejaVuSans-30" x="63.476562"/>
      <use xlink:href="#DejaVuSans-30" x="127.099609"/>
      <use xlink:href="#DejaVuSans-20" x="190.722656"/>
      <use xlink:href="#DejaVuSans-73" x="222.509766"/>
      <use xlink:href="#DejaVuSans-70" x="274.609375"/>
      <use xlink:href="#DejaVuSans-65" x="338.085938"/>
      <use xlink:href="#DejaVuSans-63" x="399.609375"/>
      <use xlink:href="#DejaVuSans-5f" x="454.589844"/>
      <use xlink:href="#DejaVuSans-72" x="504.589844"/>
      <use xlink:href="#DejaVuSans-6f" x="543.453125"/>
      <use xlink:href="#DejaVuSans-20" x="604.634766"/>
      <use xlink:href="#DejaVuSans-52" x="636.421875"/>
      <use xlink:href="#DejaVuSans-65" x="701.404297"/>
      <use xlink:href="#DejaVuSans-61" x="762.927734"/>
      <use xlink:href="#DejaVuSans-64" x="824.207031"/>
      <use xlink:href="#DejaVuSans-6f" x="887.683594"/>
      <use xlink:href="#DejaVuSans-75" x="948.865234"/>
      <use xlink:href="#DejaVuSans-74" x="1012.244141"/>
      <use xlink:href="#DejaVuSans-2d" x="1051.453125"/>
      <use xlink:href="#DejaVuSans-73" x="1087.537109"/>
      <use xlink:href="#DejaVuSans-70" x="1139.636719"/>
      <use xlink:href="#DejaVuSans-65" x="1203.113281"/>
      <use xlink:href="#DejaVuSans-63" x="1264.636719"/>
      <use xlink:href="#DejaVuSans-74" x="1319.617188"/>
      <use xlink:href="#DejaVuSans-72" x="1358.826172"/>
      <use xlink:href="#DejaVuSans-6f" x="1397.689453"/>
      <use xlink:href="#DejaVuSans-73" x="1458.871094"/>
      <use xlink:href="#DejaVuSans-63" x="1510.970703"/>
      <use xlink:href="#DejaVuSans-6f" x="1565.951172"/>
      <use xlink:href="#DejaVuSans-70" x="1627.132812"/>
      <use xlink:href="#DejaVuSans-79" x="1690.609375"/>
      <use xlink:href="#DejaVuSans-20" x="1749.789062"/>
      <use xlink:href="#DejaVuSans-70" x="1781.576172"/>
      <use xlink:href="#DejaVuSans-75" x="1845.052734"/>
      <use xlink:href="#DejaVuSans-6c" x="1908.431641"/>
      <use xlink:href="#DejaVuSans-73" x="1936.214844"/>
      <use xlink:href="#DejaVuSans-65" x="1988.314453"/>
      <use xlink:href="#DejaVuSans-20" x="2049.837891"/>
      <use xlink:href="#DejaVuSans-61" x="2081.625"/>
      <use xlink:href="#DejaVuSans-6d" x="2142.904297"/>
      <use xlink:href="#DejaVuSans-70" x="2240.316406"/>
      <use xlink:href="#DejaVuSans-6c" x="2303.792969"/>
      <use xlink:href="#DejaVuSans-69" x="2331.576172"/>
      <use xlink:href="#DejaVuSans-74" x="2359.359375"/>
      <use xlink:href="#DejaVuSans-75" x="2398.568359"/>
      <use xlink:href="#DejaVuSans-64" x="2461.947266"/>
      <use xlink:href="#DejaVuSans-65" x="2525.423828"/>
      <use xlink:href="#DejaVuSans-20" x="2586.947266"/>
      <use xlink:href="#DejaVuSans-28" x="2618.734375"/>
      <use xlink:href="#DejaVuSans-29" x="2657.748047"/>
     </g>
    </g>
    <g id="line2d_38">
     <path d="M 490.972875 151.511063 
L 500.972875 151.511063 
L 510.972875 151.511063 
" style="fill: none; stroke: #440154; stroke-width: 1.5; stroke-linecap: square"/>
    </g>
    <g id="text_21">
     <!-- 0.01 -->
     <g transform="translate(518.972875 155.011063) scale(0.1 -0.1)">
      <use xlink:href="#DejaVuSans-30"/>
      <use xlink:href="#DejaVuSans-2e" x="63.623047"/>
      <use xlink:href="#DejaVuSans-30" x="95.410156"/>
      <use xlink:href="#DejaVuSans-31" x="159.033203"/>
     </g>
    </g>
    <g id="line2d_39">
     <path d="M 490.972875 166.189188 
L 500.972875 166.189188 
L 510.972875 166.189188 
" style="fill: none; stroke: #471365; stroke-width: 1.5; stroke-linecap: square"/>
    </g>
    <g id="text_22">
     <!-- 0.0595 -->
     <g transform="translate(518.972875 169.689188) scale(0.1 -0.1)">
      <use xlink:href="#DejaVuSans-30"/>
      <use xlink:href="#DejaVuSans-2e" x="63.623047"/>
      <use xlink:href="#DejaVuSans-30" x="95.410156"/>
      <use xlink:href="#DejaVuSans-35" x="159.033203"/>
      <use xlink:href="#DejaVuSans-39" x="222.65625"/>
      <use xlink:href="#DejaVuSans-35" x="286.279297"/>
     </g>
    </g>
    <g id="line2d_40">
     <path d="M 490.972875 180.867313 
L 500.972875 180.867313 
L 510.972875 180.867313 
" style="fill: none; stroke: #482475; stroke-width: 1.5; stroke-linecap: square"/>
    </g>
    <g id="text_23">
     <!-- 0.109 -->
     <g transform="translate(518.972875 184.367313) scale(0.1 -0.1)">
      <use xlink:href="#DejaVuSans-30"/>
      <use xlink:href="#DejaVuSans-2e" x="63.623047"/>
      <use xlink:href="#DejaVuSans-31" x="95.410156"/>
      <use xlink:href="#DejaVuSans-30" x="159.033203"/>
      <use xlink:href="#DejaVuSans-39" x="222.65625"/>
     </g>
    </g>
    <g id="line2d_41">
     <path d="M 490.972875 195.545438 
L 500.972875 195.545438 
L 510.972875 195.545438 
" style="fill: none; stroke: #463480; stroke-width: 1.5; stroke-linecap: square"/>
    </g>
    <g id="text_24">
     <!-- 0.159 -->
     <g transform="translate(518.972875 199.045438) scale(0.1 -0.1)">
      <use xlink:href="#DejaVuSans-30"/>
      <use xlink:href="#DejaVuSans-2e" x="63.623047"/>
      <use xlink:href="#DejaVuSans-31" x="95.410156"/>
      <use xlink:href="#DejaVuSans-35" x="159.033203"/>
      <use xlink:href="#DejaVuSans-39" x="222.65625"/>
     </g>
    </g>
    <g id="line2d_42">
     <path d="M 490.972875 210.223563 
L 500.972875 210.223563 
L 510.972875 210.223563 
" style="fill: none; stroke: #414487; stroke-width: 1.5; stroke-linecap: square"/>
    </g>
    <g id="text_25">
     <!-- 0.208 -->
     <g transform="translate(518.972875 213.723563) scale(0.1 -0.1)">
      <use xlink:href="#DejaVuSans-30"/>
      <use xlink:href="#DejaVuSans-2e" x="63.623047"/>
      <use xlink:href="#DejaVuSans-32" x="95.410156"/>
      <use xlink:href="#DejaVuSans-30" x="159.033203"/>
      <use xlink:href="#DejaVuSans-38" x="222.65625"/>
     </g>
    </g>
    <g id="line2d_43">
     <path d="M 490.972875 224.901688 
L 500.972875 224.901688 
L 510.972875 224.901688 
" style="fill: none; stroke: #3b528b; stroke-width: 1.5; stroke-linecap: square"/>
    </g>
    <g id="text_26">
     <!-- 0.258 -->
     <g transform="translate(518.972875 228.401688) scale(0.1 -0.1)">
      <use xlink:href="#DejaVuSans-30"/>
      <use xlink:href="#DejaVuSans-2e" x="63.623047"/>
      <use xlink:href="#DejaVuSans-32" x="95.410156"/>
      <use xlink:href="#DejaVuSans-35" x="159.033203"/>
      <use xlink:href="#DejaVuSans-38" x="222.65625"/>
     </g>
    </g>
    <g id="line2d_44">
     <path d="M 490.972875 239.579813 
L 500.972875 239.579813 
L 510.972875 239.579813 
" style="fill: none; stroke: #355f8d; stroke-width: 1.5; stroke-linecap: square"/>
    </g>
    <g id="text_27">
     <!-- 0.307 -->
     <g transform="translate(518.972875 243.079813) scale(0.1 -0.1)">
      <defs>
       <path id="DejaVuSans-33" d="M 2597 2516 
Q 3050 2419 3304 2112 
Q 3559 1806 3559 1356 
Q 3559 666 3084 287 
Q 2609 -91 1734 -91 
Q 1441 -91 1130 -33 
Q 819 25 488 141 
L 488 750 
Q 750 597 1062 519 
Q 1375 441 1716 441 
Q 2309 441 2620 675 
Q 2931 909 2931 1356 
Q 2931 1769 2642 2001 
Q 2353 2234 1838 2234 
L 1294 2234 
L 1294 2753 
L 1863 2753 
Q 2328 2753 2575 2939 
Q 2822 3125 2822 3475 
Q 2822 3834 2567 4026 
Q 2313 4219 1838 4219 
Q 1578 4219 1281 4162 
Q 984 4106 628 3988 
L 628 4550 
Q 988 4650 1302 4700 
Q 1616 4750 1894 4750 
Q 2613 4750 3031 4423 
Q 3450 4097 3450 3541 
Q 3450 3153 3228 2886 
Q 3006 2619 2597 2516 
z
" transform="scale(0.015625)"/>
      </defs>
      <use xlink:href="#DejaVuSans-30"/>
      <use xlink:href="#DejaVuSans-2e" x="63.623047"/>
      <use xlink:href="#DejaVuSans-33" x="95.410156"/>
      <use xlink:href="#DejaVuSans-30" x="159.033203"/>
      <use xlink:href="#DejaVuSans-37" x="222.65625"/>
     </g>
    </g>
    <g id="line2d_45">
     <path d="M 490.972875 254.257938 
L 500.972875 254.257938 
L 510.972875 254.257938 
" style="fill: none; stroke: #2f6c8e; stroke-width: 1.5; stroke-linecap: square"/>
    </g>
    <g id="text_28">
     <!-- 0.357 -->
     <g transform="translate(518.972875 257.757938) scale(0.1 -0.1)">
      <use xlink:href="#DejaVuSans-30"/>
      <use xlink:href="#DejaVuSans-2e" x="63.623047"/>
      <use xlink:href="#DejaVuSans-33" x="95.410156"/>
      <use xlink:href="#DejaVuSans-35" x="159.033203"/>
      <use xlink:href="#DejaVuSans-37" x="222.65625"/>
     </g>
    </g>
    <g id="line2d_46">
     <path d="M 490.972875 268.936062 
L 500.972875 268.936062 
L 510.972875 268.936062 
" style="fill: none; stroke: #2a788e; stroke-width: 1.5; stroke-linecap: square"/>
    </g>
    <g id="text_29">
     <!-- 0.406 -->
     <g transform="translate(518.972875 272.436062) scale(0.1 -0.1)">
      <use xlink:href="#DejaVuSans-30"/>
      <use xlink:href="#DejaVuSans-2e" x="63.623047"/>
      <use xlink:href="#DejaVuSans-34" x="95.410156"/>
      <use xlink:href="#DejaVuSans-30" x="159.033203"/>
      <use xlink:href="#DejaVuSans-36" x="222.65625"/>
     </g>
    </g>
    <g id="line2d_47">
     <path d="M 490.972875 283.614187 
L 500.972875 283.614187 
L 510.972875 283.614187 
" style="fill: none; stroke: #25848e; stroke-width: 1.5; stroke-linecap: square"/>
    </g>
    <g id="text_30">
     <!-- 0.456 -->
     <g transform="translate(518.972875 287.114187) scale(0.1 -0.1)">
      <use xlink:href="#DejaVuSans-30"/>
      <use xlink:href="#DejaVuSans-2e" x="63.623047"/>
      <use xlink:href="#DejaVuSans-34" x="95.410156"/>
      <use xlink:href="#DejaVuSans-35" x="159.033203"/>
      <use xlink:href="#DejaVuSans-36" x="222.65625"/>
     </g>
    </g>
    <g id="line2d_48">
     <path d="M 490.972875 298.292312 
L 500.972875 298.292312 
L 510.972875 298.292312 
" style="fill: none; stroke: #21918c; stroke-width: 1.5; stroke-linecap: square"/>
    </g>
    <g id="text_31">
     <!-- 0.505 -->
     <g transform="translate(518.972875 301.792312) scale(0.1 -0.1)">
      <use xlink:href="#DejaVuSans-30"/>
      <use xlink:href="#DejaVuSans-2e" x="63.623047"/>
      <use xlink:href="#DejaVuSans-35" x="95.410156"/>
      <use xlink:href="#DejaVuSans-30" x="159.033203"/>
      <use xlink:href="#DejaVuSans-35" x="222.65625"/>
     </g>
    </g>
    <g id="line2d_49">
     <path d="M 573.9635 151.511063 
L 583.9635 151.511063 
L 593.9635 151.511063 
" style="fill: none; stroke: #1e9c89; stroke-width: 1.5; stroke-linecap: square"/>
    </g>
    <g id="text_32">
     <!-- 0.554 -->
     <g transform="translate(601.9635 155.011063) scale(0.1 -0.1)">
      <use xlink:href="#DejaVuSans-30"/>
      <use xlink:href="#DejaVuSans-2e" x="63.623047"/>
      <use xlink:href="#DejaVuSans-35" x="95.410156"/>
      <use xlink:href="#DejaVuSans-35" x="159.033203"/>
      <use xlink:href="#DejaVuSans-34" x="222.65625"/>
     </g>
    </g>
    <g id="line2d_50">
     <path d="M 573.9635 166.189188 
L 583.9635 166.189188 
L 593.9635 166.189188 
" style="fill: none; stroke: #22a884; stroke-width: 1.5; stroke-linecap: square"/>
    </g>
    <g id="text_33">
     <!-- 0.604 -->
     <g transform="translate(601.9635 169.689188) scale(0.1 -0.1)">
      <use xlink:href="#DejaVuSans-30"/>
      <use xlink:href="#DejaVuSans-2e" x="63.623047"/>
      <use xlink:href="#DejaVuSans-36" x="95.410156"/>
      <use xlink:href="#DejaVuSans-30" x="159.033203"/>
      <use xlink:href="#DejaVuSans-34" x="222.65625"/>
     </g>
    </g>
    <g id="line2d_51">
     <path d="M 573.9635 180.867313 
L 583.9635 180.867313 
L 593.9635 180.867313 
" style="fill: none; stroke: #2fb47c; stroke-width: 1.5; stroke-linecap: square"/>
    </g>
    <g id="text_34">
     <!-- 0.654 -->
     <g transform="translate(601.9635 184.367313) scale(0.1 -0.1)">
      <use xlink:href="#DejaVuSans-30"/>
      <use xlink:href="#DejaVuSans-2e" x="63.623047"/>
      <use xlink:href="#DejaVuSans-36" x="95.410156"/>
      <use xlink:href="#DejaVuSans-35" x="159.033203"/>
      <use xlink:href="#DejaVuSans-34" x="222.65625"/>
     </g>
    </g>
    <g id="line2d_52">
     <path d="M 573.9635 195.545438 
L 583.9635 195.545438 
L 593.9635 195.545438 
" style="fill: none; stroke: #44bf70; stroke-width: 1.5; stroke-linecap: square"/>
    </g>
    <g id="text_35">
     <!-- 0.703 -->
     <g transform="translate(601.9635 199.045438) scale(0.1 -0.1)">
      <use xlink:href="#DejaVuSans-30"/>
      <use xlink:href="#DejaVuSans-2e" x="63.623047"/>
      <use xlink:href="#DejaVuSans-37" x="95.410156"/>
      <use xlink:href="#DejaVuSans-30" x="159.033203"/>
      <use xlink:href="#DejaVuSans-33" x="222.65625"/>
     </g>
    </g>
    <g id="line2d_53">
     <path d="M 573.9635 210.223563 
L 583.9635 210.223563 
L 593.9635 210.223563 
" style="fill: none; stroke: #5ec962; stroke-width: 1.5; stroke-linecap: square"/>
    </g>
    <g id="text_36">
     <!-- 0.753 -->
     <g transform="translate(601.9635 213.723563) scale(0.1 -0.1)">
      <use xlink:href="#DejaVuSans-30"/>
      <use xlink:href="#DejaVuSans-2e" x="63.623047"/>
      <use xlink:href="#DejaVuSans-37" x="95.410156"/>
      <use xlink:href="#DejaVuSans-35" x="159.033203"/>
      <use xlink:href="#DejaVuSans-33" x="222.65625"/>
     </g>
    </g>
    <g id="line2d_54">
     <path d="M 573.9635 224.901688 
L 583.9635 224.901688 
L 593.9635 224.901688 
" style="fill: none; stroke: #7ad151; stroke-width: 1.5; stroke-linecap: square"/>
    </g>
    <g id="text_37">
     <!-- 0.802 -->
     <g transform="translate(601.9635 228.401688) scale(0.1 -0.1)">
      <use xlink:href="#DejaVuSans-30"/>
      <use xlink:href="#DejaVuSans-2e" x="63.623047"/>
      <use xlink:href="#DejaVuSans-38" x="95.410156"/>
      <use xlink:href="#DejaVuSans-30" x="159.033203"/>
      <use xlink:href="#DejaVuSans-32" x="222.65625"/>
     </g>
    </g>
    <g id="line2d_55">
     <path d="M 573.9635 239.579813 
L 583.9635 239.579813 
L 593.9635 239.579813 
" style="fill: none; stroke: #9bd93c; stroke-width: 1.5; stroke-linecap: square"/>
    </g>
    <g id="text_38">
     <!-- 0.852 -->
     <g transform="translate(601.9635 243.079813) scale(0.1 -0.1)">
      <use xlink:href="#DejaVuSans-30"/>
      <use xlink:href="#DejaVuSans-2e" x="63.623047"/>
      <use xlink:href="#DejaVuSans-38" x="95.410156"/>
      <use xlink:href="#DejaVuSans-35" x="159.033203"/>
      <use xlink:href="#DejaVuSans-32" x="222.65625"/>
     </g>
    </g>
    <g id="line2d_56">
     <path d="M 573.9635 254.257938 
L 583.9635 254.257938 
L 593.9635 254.257938 
" style="fill: none; stroke: #bddf26; stroke-width: 1.5; stroke-linecap: square"/>
    </g>
    <g id="text_39">
     <!-- 0.901 -->
     <g transform="translate(601.9635 257.757938) scale(0.1 -0.1)">
      <use xlink:href="#DejaVuSans-30"/>
      <use xlink:href="#DejaVuSans-2e" x="63.623047"/>
      <use xlink:href="#DejaVuSans-39" x="95.410156"/>
      <use xlink:href="#DejaVuSans-30" x="159.033203"/>
      <use xlink:href="#DejaVuSans-31" x="222.65625"/>
     </g>
    </g>
    <g id="line2d_57">
     <path d="M 573.9635 268.936062 
L 583.9635 268.936062 
L 593.9635 268.936062 
" style="fill: none; stroke: #dfe318; stroke-width: 1.5; stroke-linecap: square"/>
    </g>
    <g id="text_40">
     <!-- 0.951 -->
     <g transform="translate(601.9635 272.436062) scale(0.1 -0.1)">
      <use xlink:href="#DejaVuSans-30"/>
      <use xlink:href="#DejaVuSans-2e" x="63.623047"/>
      <use xlink:href="#DejaVuSans-39" x="95.410156"/>
      <use xlink:href="#DejaVuSans-35" x="159.033203"/>
      <use xlink:href="#DejaVuSans-31" x="222.65625"/>
     </g>
    </g>
    <g id="line2d_58">
     <path d="M 573.9635 283.614187 
L 583.9635 283.614187 
L 593.9635 283.614187 
" style="fill: none; stroke: #fde725; stroke-width: 1.5; stroke-linecap: square"/>
    </g>
    <g id="text_41">
     <!-- 1 -->
     <g transform="translate(601.9635 287.114187) scale(0.1 -0.1)">
      <use xlink:href="#DejaVuSans-31"/>
     </g>
    </g>
   </g>
  </g>
  <g id="text_42">
   <!-- x0x1-y0 Resonator power scan q00 -->
   <g transform="translate(113.72125 16.318125) scale(0.12 -0.12)">
    <defs>
     <path id="DejaVuSans-78" d="M 3513 3500 
L 2247 1797 
L 3578 0 
L 2900 0 
L 1881 1375 
L 863 0 
L 184 0 
L 1544 1831 
L 300 3500 
L 978 3500 
L 1906 2253 
L 2834 3500 
L 3513 3500 
z
" transform="scale(0.015625)"/>
     <path id="DejaVuSans-77" d="M 269 3500 
L 844 3500 
L 1563 769 
L 2278 3500 
L 2956 3500 
L 3675 769 
L 4391 3500 
L 4966 3500 
L 4050 0 
L 3372 0 
L 2619 2869 
L 1863 0 
L 1184 0 
L 269 3500 
z
" transform="scale(0.015625)"/>
    </defs>
    <use xlink:href="#DejaVuSans-78"/>
    <use xlink:href="#DejaVuSans-30" x="59.179688"/>
    <use xlink:href="#DejaVuSans-78" x="122.802734"/>
    <use xlink:href="#DejaVuSans-31" x="181.982422"/>
    <use xlink:href="#DejaVuSans-2d" x="245.605469"/>
    <use xlink:href="#DejaVuSans-79" x="279.939453"/>
    <use xlink:href="#DejaVuSans-30" x="339.119141"/>
    <use xlink:href="#DejaVuSans-20" x="402.742188"/>
    <use xlink:href="#DejaVuSans-52" x="434.529297"/>
    <use xlink:href="#DejaVuSans-65" x="499.511719"/>
    <use xlink:href="#DejaVuSans-73" x="561.035156"/>
    <use xlink:href="#DejaVuSans-6f" x="613.134766"/>
    <use xlink:href="#DejaVuSans-6e" x="674.316406"/>
    <use xlink:href="#DejaVuSans-61" x="737.695312"/>
    <use xlink:href="#DejaVuSans-74" x="798.974609"/>
    <use xlink:href="#DejaVuSans-6f" x="838.183594"/>
    <use xlink:href="#DejaVuSans-72" x="899.365234"/>
    <use xlink:href="#DejaVuSans-20" x="940.478516"/>
    <use xlink:href="#DejaVuSans-70" x="972.265625"/>
    <use xlink:href="#DejaVuSans-6f" x="1035.742188"/>
    <use xlink:href="#DejaVuSans-77" x="1096.923828"/>
    <use xlink:href="#DejaVuSans-65" x="1178.710938"/>
    <use xlink:href="#DejaVuSans-72" x="1240.234375"/>
    <use xlink:href="#DejaVuSans-20" x="1281.347656"/>
    <use xlink:href="#DejaVuSans-73" x="1313.134766"/>
    <use xlink:href="#DejaVuSans-63" x="1365.234375"/>
    <use xlink:href="#DejaVuSans-61" x="1420.214844"/>
    <use xlink:href="#DejaVuSans-6e" x="1481.494141"/>
    <use xlink:href="#DejaVuSans-20" x="1544.873047"/>
    <use xlink:href="#DejaVuSans-71" x="1576.660156"/>
    <use xlink:href="#DejaVuSans-30" x="1640.136719"/>
    <use xlink:href="#DejaVuSans-30" x="1703.759766"/>
   </g>
   <!-- tuid: 20241114-105254-080-27aa7f -->
   <g transform="translate(111.896875 29.7555) scale(0.12 -0.12)">
    <defs>
     <path id="DejaVuSans-3a" d="M 750 794 
L 1409 794 
L 1409 0 
L 750 0 
L 750 794 
z
M 750 3309 
L 1409 3309 
L 1409 2516 
L 750 2516 
L 750 3309 
z
" transform="scale(0.015625)"/>
    </defs>
    <use xlink:href="#DejaVuSans-74"/>
    <use xlink:href="#DejaVuSans-75" x="39.208984"/>
    <use xlink:href="#DejaVuSans-69" x="102.587891"/>
    <use xlink:href="#DejaVuSans-64" x="130.371094"/>
    <use xlink:href="#DejaVuSans-3a" x="193.847656"/>
    <use xlink:href="#DejaVuSans-20" x="227.539062"/>
    <use xlink:href="#DejaVuSans-32" x="259.326172"/>
    <use xlink:href="#DejaVuSans-30" x="322.949219"/>
    <use xlink:href="#DejaVuSans-32" x="386.572266"/>
    <use xlink:href="#DejaVuSans-34" x="450.195312"/>
    <use xlink:href="#DejaVuSans-31" x="513.818359"/>
    <use xlink:href="#DejaVuSans-31" x="577.441406"/>
    <use xlink:href="#DejaVuSans-31" x="641.064453"/>
    <use xlink:href="#DejaVuSans-34" x="704.6875"/>
    <use xlink:href="#DejaVuSans-2d" x="768.310547"/>
    <use xlink:href="#DejaVuSans-31" x="804.394531"/>
    <use xlink:href="#DejaVuSans-30" x="868.017578"/>
    <use xlink:href="#DejaVuSans-35" x="931.640625"/>
    <use xlink:href="#DejaVuSans-32" x="995.263672"/>
    <use xlink:href="#DejaVuSans-35" x="1058.886719"/>
    <use xlink:href="#DejaVuSans-34" x="1122.509766"/>
    <use xlink:href="#DejaVuSans-2d" x="1186.132812"/>
    <use xlink:href="#DejaVuSans-30" x="1222.216797"/>
    <use xlink:href="#DejaVuSans-38" x="1285.839844"/>
    <use xlink:href="#DejaVuSans-30" x="1349.462891"/>
    <use xlink:href="#DejaVuSans-2d" x="1413.085938"/>
    <use xlink:href="#DejaVuSans-32" x="1449.169922"/>
    <use xlink:href="#DejaVuSans-37" x="1512.792969"/>
    <use xlink:href="#DejaVuSans-61" x="1576.416016"/>
    <use xlink:href="#DejaVuSans-61" x="1637.695312"/>
    <use xlink:href="#DejaVuSans-37" x="1698.974609"/>
    <use xlink:href="#DejaVuSans-66" x="1762.597656"/>
   </g>
  </g>
 </g>
 <defs>
  <clipPath id="pf8502aa40b">
   <rect x="46.965625" y="41.76" width="357.12" height="266.112"/>
  </clipPath>
 </defs>
</svg>
