<?xml version="1.0" encoding="utf-8" standalone="no"?>
<!DOCTYPE svg PUBLIC "-//W3C//DTD SVG 1.1//EN"
  "http://www.w3.org/Graphics/SVG/1.1/DTD/svg11.dtd">
<svg xmlns:xlink="http://www.w3.org/1999/xlink" width="723.335375pt" height="345.42825pt" viewBox="0 0 723.335375 345.42825" xmlns="http://www.w3.org/2000/svg" version="1.1">
 <metadata>
  <rdf:RDF xmlns:dc="http://purl.org/dc/elements/1.1/" xmlns:cc="http://creativecommons.org/ns#" xmlns:rdf="http://www.w3.org/1999/02/22-rdf-syntax-ns#">
   <cc:Work>
    <dc:type rdf:resource="http://purl.org/dc/dcmitype/StillImage"/>
    <dc:date>2024-11-14T11:29:27.748615</dc:date>
    <dc:format>image/svg+xml</dc:format>
    <dc:creator>
     <cc:Agent>
      <dc:title>Matplotlib v3.8.0, https://matplotlib.org/</dc:title>
     </cc:Agent>
    </dc:creator>
   </cc:Work>
  </rdf:RDF>
 </metadata>
 <defs>
  <style type="text/css">*{stroke-linejoin: round; stroke-linecap: butt}</style>
 </defs>
 <g id="figure_1">
  <g id="patch_1">
   <path d="M 0 345.42825 
L 723.335375 345.42825 
L 723.335375 -0 
L 0 -0 
L 0 345.42825 
z
" style="fill: none; opacity: 0"/>
  </g>
  <g id="axes_1">
   <g id="patch_2">
    <path d="M 43.78125 307.872 
L 400.90125 307.872 
L 400.90125 41.76 
L 43.78125 41.76 
z
" style="fill: #ffffff"/>
   </g>
   <g id="matplotlib.axis_1">
    <g id="xtick_1">
     <g id="line2d_1">
      <defs>
       <path id="m4ebe4fe900" d="M 0 0 
L 0 3.5 
" style="stroke: #000000; stroke-width: 0.8"/>
      </defs>
      <g>
       <use xlink:href="#m4ebe4fe900" x="111.188173" y="307.872" style="stroke: #000000; stroke-width: 0.8"/>
      </g>
     </g>
     <g id="text_1">
      <!-- 50 -->
      <g transform="translate(104.825673 322.470438) scale(0.1 -0.1)">
       <defs>
        <path id="DejaVuSans-35" d="M 691 4666 
L 3169 4666 
L 3169 4134 
L 1269 4134 
L 1269 2991 
Q 1406 3038 1543 3061 
Q 1681 3084 1819 3084 
Q 2600 3084 3056 2656 
Q 3513 2228 3513 1497 
Q 3513 744 3044 326 
Q 2575 -91 1722 -91 
Q 1428 -91 1123 -41 
Q 819 9 494 109 
L 494 744 
Q 775 591 1075 516 
Q 1375 441 1709 441 
Q 2250 441 2565 725 
Q 2881 1009 2881 1497 
Q 2881 1984 2565 2268 
Q 2250 2553 1709 2553 
Q 1456 2553 1204 2497 
Q 953 2441 691 2322 
L 691 4666 
z
" transform="scale(0.015625)"/>
        <path id="DejaVuSans-30" d="M 2034 4250 
Q 1547 4250 1301 3770 
Q 1056 3291 1056 2328 
Q 1056 1369 1301 889 
Q 1547 409 2034 409 
Q 2525 409 2770 889 
Q 3016 1369 3016 2328 
Q 3016 3291 2770 3770 
Q 2525 4250 2034 4250 
z
M 2034 4750 
Q 2819 4750 3233 4129 
Q 3647 3509 3647 2328 
Q 3647 1150 3233 529 
Q 2819 -91 2034 -91 
Q 1250 -91 836 529 
Q 422 1150 422 2328 
Q 422 3509 836 4129 
Q 1250 4750 2034 4750 
z
" transform="scale(0.015625)"/>
       </defs>
       <use xlink:href="#DejaVuSans-35"/>
       <use xlink:href="#DejaVuSans-30" x="63.623047"/>
      </g>
     </g>
    </g>
    <g id="xtick_2">
     <g id="line2d_2">
      <g>
       <use xlink:href="#m4ebe4fe900" x="179.107534" y="307.872" style="stroke: #000000; stroke-width: 0.8"/>
      </g>
     </g>
     <g id="text_2">
      <!-- 100 -->
      <g transform="translate(169.563784 322.470438) scale(0.1 -0.1)">
       <defs>
        <path id="DejaVuSans-31" d="M 794 531 
L 1825 531 
L 1825 4091 
L 703 3866 
L 703 4441 
L 1819 4666 
L 2450 4666 
L 2450 531 
L 3481 531 
L 3481 0 
L 794 0 
L 794 531 
z
" transform="scale(0.015625)"/>
       </defs>
       <use xlink:href="#DejaVuSans-31"/>
       <use xlink:href="#DejaVuSans-30" x="63.623047"/>
       <use xlink:href="#DejaVuSans-30" x="127.246094"/>
      </g>
     </g>
    </g>
    <g id="xtick_3">
     <g id="line2d_3">
      <g>
       <use xlink:href="#m4ebe4fe900" x="247.026895" y="307.872" style="stroke: #000000; stroke-width: 0.8"/>
      </g>
     </g>
     <g id="text_3">
      <!-- 150 -->
      <g transform="translate(237.483145 322.470438) scale(0.1 -0.1)">
       <use xlink:href="#DejaVuSans-31"/>
       <use xlink:href="#DejaVuSans-35" x="63.623047"/>
       <use xlink:href="#DejaVuSans-30" x="127.246094"/>
      </g>
     </g>
    </g>
    <g id="xtick_4">
     <g id="line2d_4">
      <g>
       <use xlink:href="#m4ebe4fe900" x="314.946256" y="307.872" style="stroke: #000000; stroke-width: 0.8"/>
      </g>
     </g>
     <g id="text_4">
      <!-- 200 -->
      <g transform="translate(305.402506 322.470438) scale(0.1 -0.1)">
       <defs>
        <path id="DejaVuSans-32" d="M 1228 531 
L 3431 531 
L 3431 0 
L 469 0 
L 469 531 
Q 828 903 1448 1529 
Q 2069 2156 2228 2338 
Q 2531 2678 2651 2914 
Q 2772 3150 2772 3378 
Q 2772 3750 2511 3984 
Q 2250 4219 1831 4219 
Q 1534 4219 1204 4116 
Q 875 4013 500 3803 
L 500 4441 
Q 881 4594 1212 4672 
Q 1544 4750 1819 4750 
Q 2544 4750 2975 4387 
Q 3406 4025 3406 3419 
Q 3406 3131 3298 2873 
Q 3191 2616 2906 2266 
Q 2828 2175 2409 1742 
Q 1991 1309 1228 531 
z
" transform="scale(0.015625)"/>
       </defs>
       <use xlink:href="#DejaVuSans-32"/>
       <use xlink:href="#DejaVuSans-30" x="63.623047"/>
       <use xlink:href="#DejaVuSans-30" x="127.246094"/>
      </g>
     </g>
    </g>
    <g id="xtick_5">
     <g id="line2d_5">
      <g>
       <use xlink:href="#m4ebe4fe900" x="382.865617" y="307.872" style="stroke: #000000; stroke-width: 0.8"/>
      </g>
     </g>
     <g id="text_5">
      <!-- 250 -->
      <g transform="translate(373.321867 322.470438) scale(0.1 -0.1)">
       <use xlink:href="#DejaVuSans-32"/>
       <use xlink:href="#DejaVuSans-35" x="63.623047"/>
       <use xlink:href="#DejaVuSans-30" x="127.246094"/>
      </g>
     </g>
    </g>
    <g id="text_6">
     <!-- Spec frequency [MHz] -->
     <g transform="translate(167.312344 336.148562) scale(0.1 -0.1)">
      <defs>
       <path id="DejaVuSans-53" d="M 3425 4513 
L 3425 3897 
Q 3066 4069 2747 4153 
Q 2428 4238 2131 4238 
Q 1616 4238 1336 4038 
Q 1056 3838 1056 3469 
Q 1056 3159 1242 3001 
Q 1428 2844 1947 2747 
L 2328 2669 
Q 3034 2534 3370 2195 
Q 3706 1856 3706 1288 
Q 3706 609 3251 259 
Q 2797 -91 1919 -91 
Q 1588 -91 1214 -16 
Q 841 59 441 206 
L 441 856 
Q 825 641 1194 531 
Q 1563 422 1919 422 
Q 2459 422 2753 634 
Q 3047 847 3047 1241 
Q 3047 1584 2836 1778 
Q 2625 1972 2144 2069 
L 1759 2144 
Q 1053 2284 737 2584 
Q 422 2884 422 3419 
Q 422 4038 858 4394 
Q 1294 4750 2059 4750 
Q 2388 4750 2728 4690 
Q 3069 4631 3425 4513 
z
" transform="scale(0.015625)"/>
       <path id="DejaVuSans-70" d="M 1159 525 
L 1159 -1331 
L 581 -1331 
L 581 3500 
L 1159 3500 
L 1159 2969 
Q 1341 3281 1617 3432 
Q 1894 3584 2278 3584 
Q 2916 3584 3314 3078 
Q 3713 2572 3713 1747 
Q 3713 922 3314 415 
Q 2916 -91 2278 -91 
Q 1894 -91 1617 61 
Q 1341 213 1159 525 
z
M 3116 1747 
Q 3116 2381 2855 2742 
Q 2594 3103 2138 3103 
Q 1681 3103 1420 2742 
Q 1159 2381 1159 1747 
Q 1159 1113 1420 752 
Q 1681 391 2138 391 
Q 2594 391 2855 752 
Q 3116 1113 3116 1747 
z
" transform="scale(0.015625)"/>
       <path id="DejaVuSans-65" d="M 3597 1894 
L 3597 1613 
L 953 1613 
Q 991 1019 1311 708 
Q 1631 397 2203 397 
Q 2534 397 2845 478 
Q 3156 559 3463 722 
L 3463 178 
Q 3153 47 2828 -22 
Q 2503 -91 2169 -91 
Q 1331 -91 842 396 
Q 353 884 353 1716 
Q 353 2575 817 3079 
Q 1281 3584 2069 3584 
Q 2775 3584 3186 3129 
Q 3597 2675 3597 1894 
z
M 3022 2063 
Q 3016 2534 2758 2815 
Q 2500 3097 2075 3097 
Q 1594 3097 1305 2825 
Q 1016 2553 972 2059 
L 3022 2063 
z
" transform="scale(0.015625)"/>
       <path id="DejaVuSans-63" d="M 3122 3366 
L 3122 2828 
Q 2878 2963 2633 3030 
Q 2388 3097 2138 3097 
Q 1578 3097 1268 2742 
Q 959 2388 959 1747 
Q 959 1106 1268 751 
Q 1578 397 2138 397 
Q 2388 397 2633 464 
Q 2878 531 3122 666 
L 3122 134 
Q 2881 22 2623 -34 
Q 2366 -91 2075 -91 
Q 1284 -91 818 406 
Q 353 903 353 1747 
Q 353 2603 823 3093 
Q 1294 3584 2113 3584 
Q 2378 3584 2631 3529 
Q 2884 3475 3122 3366 
z
" transform="scale(0.015625)"/>
       <path id="DejaVuSans-20" transform="scale(0.015625)"/>
       <path id="DejaVuSans-66" d="M 2375 4863 
L 2375 4384 
L 1825 4384 
Q 1516 4384 1395 4259 
Q 1275 4134 1275 3809 
L 1275 3500 
L 2222 3500 
L 2222 3053 
L 1275 3053 
L 1275 0 
L 697 0 
L 697 3053 
L 147 3053 
L 147 3500 
L 697 3500 
L 697 3744 
Q 697 4328 969 4595 
Q 1241 4863 1831 4863 
L 2375 4863 
z
" transform="scale(0.015625)"/>
       <path id="DejaVuSans-72" d="M 2631 2963 
Q 2534 3019 2420 3045 
Q 2306 3072 2169 3072 
Q 1681 3072 1420 2755 
Q 1159 2438 1159 1844 
L 1159 0 
L 581 0 
L 581 3500 
L 1159 3500 
L 1159 2956 
Q 1341 3275 1631 3429 
Q 1922 3584 2338 3584 
Q 2397 3584 2469 3576 
Q 2541 3569 2628 3553 
L 2631 2963 
z
" transform="scale(0.015625)"/>
       <path id="DejaVuSans-71" d="M 947 1747 
Q 947 1113 1208 752 
Q 1469 391 1925 391 
Q 2381 391 2643 752 
Q 2906 1113 2906 1747 
Q 2906 2381 2643 2742 
Q 2381 3103 1925 3103 
Q 1469 3103 1208 2742 
Q 947 2381 947 1747 
z
M 2906 525 
Q 2725 213 2448 61 
Q 2172 -91 1784 -91 
Q 1150 -91 751 415 
Q 353 922 353 1747 
Q 353 2572 751 3078 
Q 1150 3584 1784 3584 
Q 2172 3584 2448 3432 
Q 2725 3281 2906 2969 
L 2906 3500 
L 3481 3500 
L 3481 -1331 
L 2906 -1331 
L 2906 525 
z
" transform="scale(0.015625)"/>
       <path id="DejaVuSans-75" d="M 544 1381 
L 544 3500 
L 1119 3500 
L 1119 1403 
Q 1119 906 1312 657 
Q 1506 409 1894 409 
Q 2359 409 2629 706 
Q 2900 1003 2900 1516 
L 2900 3500 
L 3475 3500 
L 3475 0 
L 2900 0 
L 2900 538 
Q 2691 219 2414 64 
Q 2138 -91 1772 -91 
Q 1169 -91 856 284 
Q 544 659 544 1381 
z
M 1991 3584 
L 1991 3584 
z
" transform="scale(0.015625)"/>
       <path id="DejaVuSans-6e" d="M 3513 2113 
L 3513 0 
L 2938 0 
L 2938 2094 
Q 2938 2591 2744 2837 
Q 2550 3084 2163 3084 
Q 1697 3084 1428 2787 
Q 1159 2491 1159 1978 
L 1159 0 
L 581 0 
L 581 3500 
L 1159 3500 
L 1159 2956 
Q 1366 3272 1645 3428 
Q 1925 3584 2291 3584 
Q 2894 3584 3203 3211 
Q 3513 2838 3513 2113 
z
" transform="scale(0.015625)"/>
       <path id="DejaVuSans-79" d="M 2059 -325 
Q 1816 -950 1584 -1140 
Q 1353 -1331 966 -1331 
L 506 -1331 
L 506 -850 
L 844 -850 
Q 1081 -850 1212 -737 
Q 1344 -625 1503 -206 
L 1606 56 
L 191 3500 
L 800 3500 
L 1894 763 
L 2988 3500 
L 3597 3500 
L 2059 -325 
z
" transform="scale(0.015625)"/>
       <path id="DejaVuSans-5b" d="M 550 4863 
L 1875 4863 
L 1875 4416 
L 1125 4416 
L 1125 -397 
L 1875 -397 
L 1875 -844 
L 550 -844 
L 550 4863 
z
" transform="scale(0.015625)"/>
       <path id="DejaVuSans-4d" d="M 628 4666 
L 1569 4666 
L 2759 1491 
L 3956 4666 
L 4897 4666 
L 4897 0 
L 4281 0 
L 4281 4097 
L 3078 897 
L 2444 897 
L 1241 4097 
L 1241 0 
L 628 0 
L 628 4666 
z
" transform="scale(0.015625)"/>
       <path id="DejaVuSans-48" d="M 628 4666 
L 1259 4666 
L 1259 2753 
L 3553 2753 
L 3553 4666 
L 4184 4666 
L 4184 0 
L 3553 0 
L 3553 2222 
L 1259 2222 
L 1259 0 
L 628 0 
L 628 4666 
z
" transform="scale(0.015625)"/>
       <path id="DejaVuSans-7a" d="M 353 3500 
L 3084 3500 
L 3084 2975 
L 922 459 
L 3084 459 
L 3084 0 
L 275 0 
L 275 525 
L 2438 3041 
L 353 3041 
L 353 3500 
z
" transform="scale(0.015625)"/>
       <path id="DejaVuSans-5d" d="M 1947 4863 
L 1947 -844 
L 622 -844 
L 622 -397 
L 1369 -397 
L 1369 4416 
L 622 4416 
L 622 4863 
L 1947 4863 
z
" transform="scale(0.015625)"/>
      </defs>
      <use xlink:href="#DejaVuSans-53"/>
      <use xlink:href="#DejaVuSans-70" x="63.476562"/>
      <use xlink:href="#DejaVuSans-65" x="126.953125"/>
      <use xlink:href="#DejaVuSans-63" x="188.476562"/>
      <use xlink:href="#DejaVuSans-20" x="243.457031"/>
      <use xlink:href="#DejaVuSans-66" x="275.244141"/>
      <use xlink:href="#DejaVuSans-72" x="310.449219"/>
      <use xlink:href="#DejaVuSans-65" x="349.3125"/>
      <use xlink:href="#DejaVuSans-71" x="410.835938"/>
      <use xlink:href="#DejaVuSans-75" x="474.3125"/>
      <use xlink:href="#DejaVuSans-65" x="537.691406"/>
      <use xlink:href="#DejaVuSans-6e" x="599.214844"/>
      <use xlink:href="#DejaVuSans-63" x="662.59375"/>
      <use xlink:href="#DejaVuSans-79" x="717.574219"/>
      <use xlink:href="#DejaVuSans-20" x="776.753906"/>
      <use xlink:href="#DejaVuSans-5b" x="808.541016"/>
      <use xlink:href="#DejaVuSans-4d" x="847.554688"/>
      <use xlink:href="#DejaVuSans-48" x="933.833984"/>
      <use xlink:href="#DejaVuSans-7a" x="1009.029297"/>
      <use xlink:href="#DejaVuSans-5d" x="1061.519531"/>
     </g>
    </g>
    <g id="text_7">
     <!-- +5 GHz -->
     <g transform="translate(362.46375 335.148562) scale(0.1 -0.1)">
      <defs>
       <path id="DejaVuSans-2b" d="M 2944 4013 
L 2944 2272 
L 4684 2272 
L 4684 1741 
L 2944 1741 
L 2944 0 
L 2419 0 
L 2419 1741 
L 678 1741 
L 678 2272 
L 2419 2272 
L 2419 4013 
L 2944 4013 
z
" transform="scale(0.015625)"/>
       <path id="DejaVuSans-47" d="M 3809 666 
L 3809 1919 
L 2778 1919 
L 2778 2438 
L 4434 2438 
L 4434 434 
Q 4069 175 3628 42 
Q 3188 -91 2688 -91 
Q 1594 -91 976 548 
Q 359 1188 359 2328 
Q 359 3472 976 4111 
Q 1594 4750 2688 4750 
Q 3144 4750 3555 4637 
Q 3966 4525 4313 4306 
L 4313 3634 
Q 3963 3931 3569 4081 
Q 3175 4231 2741 4231 
Q 1884 4231 1454 3753 
Q 1025 3275 1025 2328 
Q 1025 1384 1454 906 
Q 1884 428 2741 428 
Q 3075 428 3337 486 
Q 3600 544 3809 666 
z
" transform="scale(0.015625)"/>
      </defs>
      <use xlink:href="#DejaVuSans-2b"/>
      <use xlink:href="#DejaVuSans-35" x="83.789062"/>
      <use xlink:href="#DejaVuSans-20" x="147.412109"/>
      <use xlink:href="#DejaVuSans-47" x="179.199219"/>
      <use xlink:href="#DejaVuSans-48" x="256.689453"/>
      <use xlink:href="#DejaVuSans-7a" x="331.884766"/>
     </g>
    </g>
   </g>
   <g id="matplotlib.axis_2">
    <g id="ytick_1">
     <g id="line2d_6">
      <defs>
       <path id="m61a7693f4d" d="M 0 0 
L -3.5 0 
" style="stroke: #000000; stroke-width: 0.8"/>
      </defs>
      <g>
       <use xlink:href="#m61a7693f4d" x="43.78125" y="276.524376" style="stroke: #000000; stroke-width: 0.8"/>
      </g>
     </g>
     <g id="text_8">
      <!-- 2 -->
      <g transform="translate(30.41875 280.323595) scale(0.1 -0.1)">
       <use xlink:href="#DejaVuSans-32"/>
      </g>
     </g>
    </g>
    <g id="ytick_2">
     <g id="line2d_7">
      <g>
       <use xlink:href="#m61a7693f4d" x="43.78125" y="240.532162" style="stroke: #000000; stroke-width: 0.8"/>
      </g>
     </g>
     <g id="text_9">
      <!-- 2.5 -->
      <g transform="translate(20.878125 244.331381) scale(0.1 -0.1)">
       <defs>
        <path id="DejaVuSans-2e" d="M 684 794 
L 1344 794 
L 1344 0 
L 684 0 
L 684 794 
z
" transform="scale(0.015625)"/>
       </defs>
       <use xlink:href="#DejaVuSans-32"/>
       <use xlink:href="#DejaVuSans-2e" x="63.623047"/>
       <use xlink:href="#DejaVuSans-35" x="95.410156"/>
      </g>
     </g>
    </g>
    <g id="ytick_3">
     <g id="line2d_8">
      <g>
       <use xlink:href="#m61a7693f4d" x="43.78125" y="204.539948" style="stroke: #000000; stroke-width: 0.8"/>
      </g>
     </g>
     <g id="text_10">
      <!-- 3 -->
      <g transform="translate(30.41875 208.339167) scale(0.1 -0.1)">
       <defs>
        <path id="DejaVuSans-33" d="M 2597 2516 
Q 3050 2419 3304 2112 
Q 3559 1806 3559 1356 
Q 3559 666 3084 287 
Q 2609 -91 1734 -91 
Q 1441 -91 1130 -33 
Q 819 25 488 141 
L 488 750 
Q 750 597 1062 519 
Q 1375 441 1716 441 
Q 2309 441 2620 675 
Q 2931 909 2931 1356 
Q 2931 1769 2642 2001 
Q 2353 2234 1838 2234 
L 1294 2234 
L 1294 2753 
L 1863 2753 
Q 2328 2753 2575 2939 
Q 2822 3125 2822 3475 
Q 2822 3834 2567 4026 
Q 2313 4219 1838 4219 
Q 1578 4219 1281 4162 
Q 984 4106 628 3988 
L 628 4550 
Q 988 4650 1302 4700 
Q 1616 4750 1894 4750 
Q 2613 4750 3031 4423 
Q 3450 4097 3450 3541 
Q 3450 3153 3228 2886 
Q 3006 2619 2597 2516 
z
" transform="scale(0.015625)"/>
       </defs>
       <use xlink:href="#DejaVuSans-33"/>
      </g>
     </g>
    </g>
    <g id="ytick_4">
     <g id="line2d_9">
      <g>
       <use xlink:href="#m61a7693f4d" x="43.78125" y="168.547734" style="stroke: #000000; stroke-width: 0.8"/>
      </g>
     </g>
     <g id="text_11">
      <!-- 3.5 -->
      <g transform="translate(20.878125 172.346953) scale(0.1 -0.1)">
       <use xlink:href="#DejaVuSans-33"/>
       <use xlink:href="#DejaVuSans-2e" x="63.623047"/>
       <use xlink:href="#DejaVuSans-35" x="95.410156"/>
      </g>
     </g>
    </g>
    <g id="ytick_5">
     <g id="line2d_10">
      <g>
       <use xlink:href="#m61a7693f4d" x="43.78125" y="132.55552" style="stroke: #000000; stroke-width: 0.8"/>
      </g>
     </g>
     <g id="text_12">
      <!-- 4 -->
      <g transform="translate(30.41875 136.354739) scale(0.1 -0.1)">
       <defs>
        <path id="DejaVuSans-34" d="M 2419 4116 
L 825 1625 
L 2419 1625 
L 2419 4116 
z
M 2253 4666 
L 3047 4666 
L 3047 1625 
L 3713 1625 
L 3713 1100 
L 3047 1100 
L 3047 0 
L 2419 0 
L 2419 1100 
L 313 1100 
L 313 1709 
L 2253 4666 
z
" transform="scale(0.015625)"/>
       </defs>
       <use xlink:href="#DejaVuSans-34"/>
      </g>
     </g>
    </g>
    <g id="ytick_6">
     <g id="line2d_11">
      <g>
       <use xlink:href="#m61a7693f4d" x="43.78125" y="96.563306" style="stroke: #000000; stroke-width: 0.8"/>
      </g>
     </g>
     <g id="text_13">
      <!-- 4.5 -->
      <g transform="translate(20.878125 100.362525) scale(0.1 -0.1)">
       <use xlink:href="#DejaVuSans-34"/>
       <use xlink:href="#DejaVuSans-2e" x="63.623047"/>
       <use xlink:href="#DejaVuSans-35" x="95.410156"/>
      </g>
     </g>
    </g>
    <g id="ytick_7">
     <g id="line2d_12">
      <g>
       <use xlink:href="#m61a7693f4d" x="43.78125" y="60.571092" style="stroke: #000000; stroke-width: 0.8"/>
      </g>
     </g>
     <g id="text_14">
      <!-- 5 -->
      <g transform="translate(30.41875 64.370311) scale(0.1 -0.1)">
       <use xlink:href="#DejaVuSans-35"/>
      </g>
     </g>
    </g>
    <g id="text_15">
     <!-- Magnitude0 [mV] -->
     <g transform="translate(14.798438 218.268344) rotate(-90) scale(0.1 -0.1)">
      <defs>
       <path id="DejaVuSans-61" d="M 2194 1759 
Q 1497 1759 1228 1600 
Q 959 1441 959 1056 
Q 959 750 1161 570 
Q 1363 391 1709 391 
Q 2188 391 2477 730 
Q 2766 1069 2766 1631 
L 2766 1759 
L 2194 1759 
z
M 3341 1997 
L 3341 0 
L 2766 0 
L 2766 531 
Q 2569 213 2275 61 
Q 1981 -91 1556 -91 
Q 1019 -91 701 211 
Q 384 513 384 1019 
Q 384 1609 779 1909 
Q 1175 2209 1959 2209 
L 2766 2209 
L 2766 2266 
Q 2766 2663 2505 2880 
Q 2244 3097 1772 3097 
Q 1472 3097 1187 3025 
Q 903 2953 641 2809 
L 641 3341 
Q 956 3463 1253 3523 
Q 1550 3584 1831 3584 
Q 2591 3584 2966 3190 
Q 3341 2797 3341 1997 
z
" transform="scale(0.015625)"/>
       <path id="DejaVuSans-67" d="M 2906 1791 
Q 2906 2416 2648 2759 
Q 2391 3103 1925 3103 
Q 1463 3103 1205 2759 
Q 947 2416 947 1791 
Q 947 1169 1205 825 
Q 1463 481 1925 481 
Q 2391 481 2648 825 
Q 2906 1169 2906 1791 
z
M 3481 434 
Q 3481 -459 3084 -895 
Q 2688 -1331 1869 -1331 
Q 1566 -1331 1297 -1286 
Q 1028 -1241 775 -1147 
L 775 -588 
Q 1028 -725 1275 -790 
Q 1522 -856 1778 -856 
Q 2344 -856 2625 -561 
Q 2906 -266 2906 331 
L 2906 616 
Q 2728 306 2450 153 
Q 2172 0 1784 0 
Q 1141 0 747 490 
Q 353 981 353 1791 
Q 353 2603 747 3093 
Q 1141 3584 1784 3584 
Q 2172 3584 2450 3431 
Q 2728 3278 2906 2969 
L 2906 3500 
L 3481 3500 
L 3481 434 
z
" transform="scale(0.015625)"/>
       <path id="DejaVuSans-69" d="M 603 3500 
L 1178 3500 
L 1178 0 
L 603 0 
L 603 3500 
z
M 603 4863 
L 1178 4863 
L 1178 4134 
L 603 4134 
L 603 4863 
z
" transform="scale(0.015625)"/>
       <path id="DejaVuSans-74" d="M 1172 4494 
L 1172 3500 
L 2356 3500 
L 2356 3053 
L 1172 3053 
L 1172 1153 
Q 1172 725 1289 603 
Q 1406 481 1766 481 
L 2356 481 
L 2356 0 
L 1766 0 
Q 1100 0 847 248 
Q 594 497 594 1153 
L 594 3053 
L 172 3053 
L 172 3500 
L 594 3500 
L 594 4494 
L 1172 4494 
z
" transform="scale(0.015625)"/>
       <path id="DejaVuSans-64" d="M 2906 2969 
L 2906 4863 
L 3481 4863 
L 3481 0 
L 2906 0 
L 2906 525 
Q 2725 213 2448 61 
Q 2172 -91 1784 -91 
Q 1150 -91 751 415 
Q 353 922 353 1747 
Q 353 2572 751 3078 
Q 1150 3584 1784 3584 
Q 2172 3584 2448 3432 
Q 2725 3281 2906 2969 
z
M 947 1747 
Q 947 1113 1208 752 
Q 1469 391 1925 391 
Q 2381 391 2643 752 
Q 2906 1113 2906 1747 
Q 2906 2381 2643 2742 
Q 2381 3103 1925 3103 
Q 1469 3103 1208 2742 
Q 947 2381 947 1747 
z
" transform="scale(0.015625)"/>
       <path id="DejaVuSans-6d" d="M 3328 2828 
Q 3544 3216 3844 3400 
Q 4144 3584 4550 3584 
Q 5097 3584 5394 3201 
Q 5691 2819 5691 2113 
L 5691 0 
L 5113 0 
L 5113 2094 
Q 5113 2597 4934 2840 
Q 4756 3084 4391 3084 
Q 3944 3084 3684 2787 
Q 3425 2491 3425 1978 
L 3425 0 
L 2847 0 
L 2847 2094 
Q 2847 2600 2669 2842 
Q 2491 3084 2119 3084 
Q 1678 3084 1418 2786 
Q 1159 2488 1159 1978 
L 1159 0 
L 581 0 
L 581 3500 
L 1159 3500 
L 1159 2956 
Q 1356 3278 1631 3431 
Q 1906 3584 2284 3584 
Q 2666 3584 2933 3390 
Q 3200 3197 3328 2828 
z
" transform="scale(0.015625)"/>
       <path id="DejaVuSans-56" d="M 1831 0 
L 50 4666 
L 709 4666 
L 2188 738 
L 3669 4666 
L 4325 4666 
L 2547 0 
L 1831 0 
z
" transform="scale(0.015625)"/>
      </defs>
      <use xlink:href="#DejaVuSans-4d"/>
      <use xlink:href="#DejaVuSans-61" x="86.279297"/>
      <use xlink:href="#DejaVuSans-67" x="147.558594"/>
      <use xlink:href="#DejaVuSans-6e" x="211.035156"/>
      <use xlink:href="#DejaVuSans-69" x="274.414062"/>
      <use xlink:href="#DejaVuSans-74" x="302.197266"/>
      <use xlink:href="#DejaVuSans-75" x="341.40625"/>
      <use xlink:href="#DejaVuSans-64" x="404.785156"/>
      <use xlink:href="#DejaVuSans-65" x="468.261719"/>
      <use xlink:href="#DejaVuSans-30" x="529.785156"/>
      <use xlink:href="#DejaVuSans-20" x="593.408203"/>
      <use xlink:href="#DejaVuSans-5b" x="625.195312"/>
      <use xlink:href="#DejaVuSans-6d" x="664.208984"/>
      <use xlink:href="#DejaVuSans-56" x="761.621094"/>
      <use xlink:href="#DejaVuSans-5d" x="830.029297"/>
     </g>
    </g>
   </g>
   <g id="line2d_13">
    <path d="M 60.013977 294.664358 
L 61.372364 293.362629 
L 62.730752 286.526492 
L 64.089139 292.561755 
L 65.447526 288.194038 
L 66.805913 290.69104 
L 68.164301 291.247789 
L 69.522688 287.966558 
L 70.881075 288.860115 
L 72.239462 290.54407 
L 73.597849 290.297371 
L 74.956237 287.280636 
L 76.314624 294.151223 
L 77.673011 289.046349 
L 79.031398 292.54819 
L 80.389786 290.5613 
L 81.748173 293.745989 
L 83.10656 290.634369 
L 84.464947 288.97917 
L 85.823334 284.103861 
L 87.181722 293.835611 
L 88.540109 294.174987 
L 89.898496 285.964685 
L 91.256883 289.347756 
L 92.615271 291.40192 
L 93.973658 293.953647 
L 95.332045 288.190617 
L 96.690432 287.926309 
L 98.048819 289.991606 
L 99.407207 293.261679 
L 100.765594 294.413434 
L 102.123981 291.722909 
L 103.482368 290.711342 
L 104.840756 291.231309 
L 106.199143 293.001983 
L 107.55753 289.662397 
L 108.915917 291.021984 
L 110.274304 293.666283 
L 111.632692 287.461744 
L 112.991079 292.133467 
L 114.349466 290.851589 
L 115.707853 294.341851 
L 117.06624 288.698386 
L 118.424628 291.090581 
L 119.783015 292.554742 
L 121.141402 292.57564 
L 122.499789 287.202896 
L 123.858177 292.267639 
L 125.216564 294.378214 
L 126.574951 292.338545 
L 127.933338 292.978132 
L 129.291725 292.732139 
L 130.650113 291.331954 
L 132.0085 292.651145 
L 133.366887 288.810207 
L 134.725274 287.655602 
L 136.083662 293.007243 
L 137.442049 289.400304 
L 138.800436 291.011985 
L 140.158823 290.000954 
L 141.51721 289.218544 
L 142.875598 289.211635 
L 144.233985 287.983941 
L 145.592372 287.798158 
L 146.950759 289.537401 
L 148.309147 291.945201 
L 149.667534 286.967485 
L 151.025921 288.820053 
L 152.384308 290.932767 
L 153.742695 284.66905 
L 155.101083 292.564647 
L 156.45947 288.355904 
L 157.817857 283.59499 
L 159.176244 292.703111 
L 160.534632 289.876164 
L 161.893019 291.955594 
L 163.251406 290.271611 
L 164.609793 286.714225 
L 165.96818 294.97651 
L 167.326568 289.270845 
L 168.684955 289.16396 
L 170.043342 289.949985 
L 171.401729 290.010731 
L 172.760116 287.657325 
L 174.118504 288.933055 
L 175.476891 287.586673 
L 176.835278 291.541825 
L 178.193665 288.576245 
L 180.91044 294.457761 
L 182.268827 286.707334 
L 183.627214 286.950419 
L 184.985601 291.147485 
L 186.343989 288.626885 
L 187.702376 291.3471 
L 189.060763 288.329012 
L 190.41915 288.945538 
L 191.777538 292.10133 
L 193.135925 290.446605 
L 194.494312 290.960365 
L 195.852699 289.933942 
L 197.211086 294.380198 
L 198.569474 291.358402 
L 199.927861 292.822609 
L 201.286248 288.855883 
L 202.644635 291.37681 
L 204.003023 290.233555 
L 205.36141 288.745115 
L 206.719797 291.118281 
L 208.078184 290.220211 
L 209.436571 289.466581 
L 210.794959 295.776 
L 212.153346 291.885489 
L 213.511733 293.250078 
L 214.87012 289.65733 
L 216.228508 290.647689 
L 217.586895 293.522711 
L 218.945282 292.811745 
L 220.303669 293.920782 
L 221.662056 292.513033 
L 223.020444 291.735872 
L 224.378831 289.155873 
L 225.737218 289.418221 
L 227.095605 290.79561 
L 228.453992 291.295061 
L 229.81238 290.457278 
L 231.170767 288.994468 
L 232.529154 289.842973 
L 233.887541 289.530981 
L 235.245929 286.332419 
L 236.604316 289.928177 
L 237.962703 288.833351 
L 239.32109 286.323365 
L 240.679477 291.865536 
L 242.037865 292.967616 
L 243.396252 284.575694 
L 244.754639 290.727075 
L 246.113026 288.531118 
L 247.471414 290.06068 
L 248.829801 289.691174 
L 250.188188 287.331107 
L 251.546575 289.817419 
L 252.904962 288.70282 
L 254.26335 289.66669 
L 255.621737 290.049107 
L 256.980124 287.631101 
L 258.338511 293.968466 
L 259.696899 292.229409 
L 261.055286 289.087487 
L 262.413673 288.17475 
L 263.77206 292.371968 
L 265.130447 291.828864 
L 266.488835 290.949599 
L 269.205609 293.035451 
L 270.563996 289.468926 
L 271.922384 290.322412 
L 273.280771 290.10473 
L 274.639158 290.558968 
L 275.997545 293.935239 
L 277.355932 292.32818 
L 278.71432 287.839697 
L 280.072707 287.492133 
L 281.431094 290.055305 
L 282.789481 287.328204 
L 284.147868 288.998968 
L 285.506256 285.770094 
L 286.864643 291.616484 
L 288.22303 282.201839 
L 289.581417 289.552537 
L 290.939805 289.492857 
L 292.298192 292.849913 
L 293.656579 284.035772 
L 295.014966 293.329716 
L 296.373353 285.397998 
L 297.731741 288.648834 
L 299.090128 285.578772 
L 300.448515 291.320439 
L 301.806902 289.161737 
L 303.16529 290.74549 
L 304.523677 290.499993 
L 305.882064 292.602305 
L 307.240451 290.559757 
L 308.598838 290.139541 
L 309.957226 292.26929 
L 311.315613 289.231871 
L 312.674 285.411023 
L 314.032387 291.520573 
L 315.390775 291.337538 
L 316.749162 289.212318 
L 318.107549 287.538739 
L 319.465936 288.905687 
L 320.824323 285.706353 
L 322.182711 289.280077 
L 323.541098 288.375656 
L 324.899485 294.138739 
L 326.257872 285.101565 
L 327.61626 286.206043 
L 328.974647 286.947468 
L 330.333034 275.451595 
L 331.691421 67.238076 
L 333.049808 282.802276 
L 334.408196 287.238559 
L 335.766583 284.846394 
L 337.12497 290.551735 
L 338.483357 292.356753 
L 339.841744 288.487307 
L 341.200132 286.986058 
L 342.558519 290.821363 
L 343.916906 292.198688 
L 345.275293 289.818753 
L 346.633681 291.313596 
L 347.992068 289.282708 
L 349.350455 286.110753 
L 350.708842 290.546008 
L 352.067229 289.752435 
L 353.425617 291.369108 
L 354.784004 285.650461 
L 356.142391 286.683958 
L 357.500778 285.155401 
L 358.859166 286.980424 
L 360.217553 288.52542 
L 361.57594 291.026005 
L 362.934327 291.104882 
L 364.292714 289.045873 
L 365.651102 292.572965 
L 367.009489 289.286378 
L 368.367876 289.316201 
L 369.726263 289.20103 
L 371.084651 289.733353 
L 372.443038 293.22497 
L 373.801425 292.318361 
L 375.159812 287.338499 
L 376.518199 290.538835 
L 377.876587 293.003161 
L 379.234974 287.615999 
L 380.593361 292.983674 
L 383.310136 290.539625 
L 384.668523 290.226323 
L 384.668523 290.226323 
" clip-path="url(#p44710ee95c)" style="fill: none; stroke: #440154; stroke-width: 1.5; stroke-linecap: square"/>
   </g>
   <g id="line2d_14">
    <path d="M 60.013977 291.496177 
L 61.372364 290.522449 
L 62.730752 287.853025 
L 64.089139 288.396764 
L 65.447526 289.660837 
L 66.805913 288.705176 
L 68.164301 289.441462 
L 69.522688 284.458696 
L 70.881075 289.000268 
L 72.239462 285.090817 
L 73.597849 288.12227 
L 74.956237 292.439814 
L 76.314624 289.07858 
L 77.673011 289.167186 
L 79.031398 283.273208 
L 80.389786 284.588151 
L 81.748173 289.804901 
L 83.10656 292.2813 
L 84.464947 287.904648 
L 85.823334 284.215043 
L 87.181722 288.17537 
L 88.540109 289.218926 
L 89.898496 282.305515 
L 91.256883 280.397127 
L 92.615271 289.040518 
L 93.973658 284.998572 
L 95.332045 289.706752 
L 96.690432 289.558897 
L 98.048819 282.037592 
L 99.407207 279.856821 
L 100.765594 283.26191 
L 102.123981 279.285742 
L 103.482368 248.792818 
L 104.840756 234.463871 
L 106.199143 271.199962 
L 107.55753 288.55546 
L 108.915917 288.21711 
L 110.274304 281.40337 
L 112.991079 292.597438 
L 114.349466 288.050449 
L 115.707853 289.130612 
L 117.06624 292.068603 
L 118.424628 291.269048 
L 119.783015 289.217096 
L 121.141402 289.958048 
L 122.499789 290.94547 
L 123.858177 281.597291 
L 125.216564 288.936278 
L 126.574951 290.286058 
L 127.933338 288.885858 
L 129.291725 282.221606 
L 130.650113 282.695897 
L 132.0085 283.971189 
L 133.366887 283.526537 
L 134.725274 287.113026 
L 136.083662 287.402355 
L 137.442049 287.875856 
L 138.800436 290.220918 
L 140.158823 283.513831 
L 141.51721 291.645861 
L 142.875598 288.260988 
L 144.233985 290.818946 
L 145.592372 282.032967 
L 146.950759 289.319454 
L 148.309147 289.937344 
L 149.667534 288.466938 
L 151.025921 285.868876 
L 152.384308 288.076388 
L 153.742695 284.465178 
L 155.101083 278.466918 
L 156.45947 280.195062 
L 157.817857 284.038038 
L 159.176244 280.763456 
L 160.534632 282.720646 
L 161.893019 281.452119 
L 163.251406 279.939697 
L 164.609793 266.034818 
L 165.96818 228.038526 
L 167.326568 216.681409 
L 168.684955 274.374815 
L 170.043342 271.316804 
L 171.401729 278.315077 
L 172.760116 278.089427 
L 174.118504 287.406677 
L 175.476891 287.073654 
L 176.835278 287.693487 
L 178.193665 290.904112 
L 179.552053 289.326928 
L 180.91044 274.484899 
L 182.268827 287.773568 
L 183.627214 285.523146 
L 184.985601 287.994191 
L 186.343989 287.353667 
L 187.702376 282.511496 
L 189.060763 285.15471 
L 190.41915 283.287027 
L 191.777538 280.432263 
L 193.135925 276.168283 
L 194.494312 282.688133 
L 195.852699 280.274585 
L 197.211086 283.654828 
L 198.569474 281.4037 
L 199.927861 278.834515 
L 201.286248 284.203748 
L 202.644635 278.221521 
L 204.003023 281.283621 
L 205.36141 275.366064 
L 206.719797 272.679445 
L 208.078184 275.936581 
L 209.436571 279.805862 
L 210.794959 281.556484 
L 212.153346 280.451843 
L 213.511733 287.777998 
L 214.87012 274.988984 
L 216.228508 282.178994 
L 217.586895 281.279807 
L 218.945282 278.860808 
L 220.303669 274.631776 
L 221.662056 275.292467 
L 223.020444 274.566553 
L 224.378831 273.165443 
L 225.737218 278.348312 
L 227.095605 265.457837 
L 228.453992 281.129746 
L 229.81238 282.509021 
L 231.170767 281.600599 
L 232.529154 285.046944 
L 233.887541 285.22978 
L 235.245929 286.313729 
L 236.604316 279.82212 
L 237.962703 269.173227 
L 239.32109 261.271634 
L 240.679477 259.211434 
L 242.037865 271.861397 
L 243.396252 278.911804 
L 244.754639 287.196364 
L 246.113026 284.928475 
L 248.829801 249.974581 
L 250.188188 291.518909 
L 251.546575 265.999746 
L 254.26335 284.728154 
L 255.621737 287.285954 
L 256.980124 258.676116 
L 258.338511 279.312963 
L 259.696899 255.012215 
L 261.055286 280.917219 
L 262.413673 280.997461 
L 263.77206 265.796667 
L 265.130447 237.24939 
L 266.488835 254.701749 
L 267.847222 279.318274 
L 269.205609 250.586677 
L 270.563996 224.775466 
L 271.922384 266.968038 
L 273.280771 273.981745 
L 274.639158 222.832831 
L 275.997545 245.811593 
L 277.355932 255.453099 
L 278.71432 202.645868 
L 280.072707 265.657859 
L 281.431094 208.138537 
L 282.789481 250.383314 
L 284.147868 242.006608 
L 285.506256 256.200174 
L 286.864643 212.415357 
L 288.22303 272.555834 
L 289.581417 186.039969 
L 290.939805 226.425046 
L 292.298192 238.33387 
L 293.656579 208.529414 
L 295.014966 199.791067 
L 296.373353 206.492528 
L 297.731741 176.015997 
L 299.090128 173.342831 
L 300.448515 141.246287 
L 301.806902 167.176359 
L 303.16529 215.228816 
L 304.523677 152.573159 
L 305.882064 224.984464 
L 307.240451 154.183843 
L 308.598838 216.461152 
L 309.957226 236.633627 
L 311.315613 246.919478 
L 312.674 197.362312 
L 314.032387 126.769213 
L 315.390775 165.240207 
L 316.749162 214.797067 
L 318.107549 139.111779 
L 319.465936 91.440754 
L 320.824323 61.378422 
L 322.182711 108.890094 
L 323.541098 68.819325 
L 324.899485 72.558702 
L 326.257872 116.776223 
L 327.61626 70.828902 
L 328.974647 224.83594 
L 330.333034 86.217751 
L 331.691421 173.74745 
L 333.049808 53.856 
L 334.408196 56.675754 
L 335.766583 230.279425 
L 337.12497 181.354771 
L 338.483357 62.712644 
L 339.841744 78.513513 
L 341.200132 178.878425 
L 342.558519 251.288376 
L 343.916906 111.701772 
L 345.275293 259.659942 
L 346.633681 265.976535 
L 347.992068 184.855913 
L 349.350455 156.49875 
L 350.708842 142.846039 
L 352.067229 187.795158 
L 353.425617 136.173906 
L 354.784004 153.430441 
L 356.142391 265.08581 
L 357.500778 150.924722 
L 358.859166 249.78868 
L 360.217553 203.860652 
L 361.57594 190.763552 
L 362.934327 163.553684 
L 364.292714 176.900647 
L 365.651102 171.857687 
L 367.009489 166.190431 
L 368.367876 182.233916 
L 369.726263 219.174464 
L 371.084651 266.298165 
L 372.443038 267.694918 
L 373.801425 197.421281 
L 375.159812 227.458429 
L 376.518199 277.340063 
L 377.876587 222.549542 
L 379.234974 250.566919 
L 380.593361 177.253375 
L 381.951748 240.774045 
L 383.310136 255.304849 
L 384.668523 258.364337 
L 384.668523 258.364337 
" clip-path="url(#p44710ee95c)" style="fill: none; stroke: #fde725; stroke-width: 1.5; stroke-linecap: square"/>
   </g>
   <g id="patch_3">
    <path d="M 43.78125 307.872 
L 43.78125 41.76 
" style="fill: none; stroke: #000000; stroke-width: 0.8; stroke-linejoin: miter; stroke-linecap: square"/>
   </g>
   <g id="patch_4">
    <path d="M 400.90125 307.872 
L 400.90125 41.76 
" style="fill: none; stroke: #000000; stroke-width: 0.8; stroke-linejoin: miter; stroke-linecap: square"/>
   </g>
   <g id="patch_5">
    <path d="M 43.78125 307.872 
L 400.90125 307.872 
" style="fill: none; stroke: #000000; stroke-width: 0.8; stroke-linejoin: miter; stroke-linecap: square"/>
   </g>
   <g id="patch_6">
    <path d="M 43.78125 41.76 
L 400.90125 41.76 
" style="fill: none; stroke: #000000; stroke-width: 0.8; stroke-linejoin: miter; stroke-linecap: square"/>
   </g>
   <g id="legend_1">
    <g id="patch_7">
     <path d="M 420.75725 307.872 
L 714.135375 307.872 
Q 716.135375 307.872 716.135375 305.872 
L 716.135375 262.5595 
Q 716.135375 260.5595 714.135375 260.5595 
L 420.75725 260.5595 
Q 418.75725 260.5595 418.75725 262.5595 
L 418.75725 305.872 
Q 418.75725 307.872 420.75725 307.872 
z
" style="fill: #ffffff; opacity: 0.8; stroke: #cccccc; stroke-linejoin: miter"/>
    </g>
    <g id="text_16">
     <!-- q00 spec_mw Microwave-spectroscopy pulse amplitude () -->
     <g transform="translate(422.75725 272.157938) scale(0.1 -0.1)">
      <defs>
       <path id="DejaVuSans-73" d="M 2834 3397 
L 2834 2853 
Q 2591 2978 2328 3040 
Q 2066 3103 1784 3103 
Q 1356 3103 1142 2972 
Q 928 2841 928 2578 
Q 928 2378 1081 2264 
Q 1234 2150 1697 2047 
L 1894 2003 
Q 2506 1872 2764 1633 
Q 3022 1394 3022 966 
Q 3022 478 2636 193 
Q 2250 -91 1575 -91 
Q 1294 -91 989 -36 
Q 684 19 347 128 
L 347 722 
Q 666 556 975 473 
Q 1284 391 1588 391 
Q 1994 391 2212 530 
Q 2431 669 2431 922 
Q 2431 1156 2273 1281 
Q 2116 1406 1581 1522 
L 1381 1569 
Q 847 1681 609 1914 
Q 372 2147 372 2553 
Q 372 3047 722 3315 
Q 1072 3584 1716 3584 
Q 2034 3584 2315 3537 
Q 2597 3491 2834 3397 
z
" transform="scale(0.015625)"/>
       <path id="DejaVuSans-5f" d="M 3263 -1063 
L 3263 -1509 
L -63 -1509 
L -63 -1063 
L 3263 -1063 
z
" transform="scale(0.015625)"/>
       <path id="DejaVuSans-77" d="M 269 3500 
L 844 3500 
L 1563 769 
L 2278 3500 
L 2956 3500 
L 3675 769 
L 4391 3500 
L 4966 3500 
L 4050 0 
L 3372 0 
L 2619 2869 
L 1863 0 
L 1184 0 
L 269 3500 
z
" transform="scale(0.015625)"/>
       <path id="DejaVuSans-6f" d="M 1959 3097 
Q 1497 3097 1228 2736 
Q 959 2375 959 1747 
Q 959 1119 1226 758 
Q 1494 397 1959 397 
Q 2419 397 2687 759 
Q 2956 1122 2956 1747 
Q 2956 2369 2687 2733 
Q 2419 3097 1959 3097 
z
M 1959 3584 
Q 2709 3584 3137 3096 
Q 3566 2609 3566 1747 
Q 3566 888 3137 398 
Q 2709 -91 1959 -91 
Q 1206 -91 779 398 
Q 353 888 353 1747 
Q 353 2609 779 3096 
Q 1206 3584 1959 3584 
z
" transform="scale(0.015625)"/>
       <path id="DejaVuSans-76" d="M 191 3500 
L 800 3500 
L 1894 563 
L 2988 3500 
L 3597 3500 
L 2284 0 
L 1503 0 
L 191 3500 
z
" transform="scale(0.015625)"/>
       <path id="DejaVuSans-2d" d="M 313 2009 
L 1997 2009 
L 1997 1497 
L 313 1497 
L 313 2009 
z
" transform="scale(0.015625)"/>
       <path id="DejaVuSans-6c" d="M 603 4863 
L 1178 4863 
L 1178 0 
L 603 0 
L 603 4863 
z
" transform="scale(0.015625)"/>
       <path id="DejaVuSans-28" d="M 1984 4856 
Q 1566 4138 1362 3434 
Q 1159 2731 1159 2009 
Q 1159 1288 1364 580 
Q 1569 -128 1984 -844 
L 1484 -844 
Q 1016 -109 783 600 
Q 550 1309 550 2009 
Q 550 2706 781 3412 
Q 1013 4119 1484 4856 
L 1984 4856 
z
" transform="scale(0.015625)"/>
       <path id="DejaVuSans-29" d="M 513 4856 
L 1013 4856 
Q 1481 4119 1714 3412 
Q 1947 2706 1947 2009 
Q 1947 1309 1714 600 
Q 1481 -109 1013 -844 
L 513 -844 
Q 928 -128 1133 580 
Q 1338 1288 1338 2009 
Q 1338 2731 1133 3434 
Q 928 4138 513 4856 
z
" transform="scale(0.015625)"/>
      </defs>
      <use xlink:href="#DejaVuSans-71"/>
      <use xlink:href="#DejaVuSans-30" x="63.476562"/>
      <use xlink:href="#DejaVuSans-30" x="127.099609"/>
      <use xlink:href="#DejaVuSans-20" x="190.722656"/>
      <use xlink:href="#DejaVuSans-73" x="222.509766"/>
      <use xlink:href="#DejaVuSans-70" x="274.609375"/>
      <use xlink:href="#DejaVuSans-65" x="338.085938"/>
      <use xlink:href="#DejaVuSans-63" x="399.609375"/>
      <use xlink:href="#DejaVuSans-5f" x="454.589844"/>
      <use xlink:href="#DejaVuSans-6d" x="504.589844"/>
      <use xlink:href="#DejaVuSans-77" x="602.001953"/>
      <use xlink:href="#DejaVuSans-20" x="683.789062"/>
      <use xlink:href="#DejaVuSans-4d" x="715.576172"/>
      <use xlink:href="#DejaVuSans-69" x="801.855469"/>
      <use xlink:href="#DejaVuSans-63" x="829.638672"/>
      <use xlink:href="#DejaVuSans-72" x="884.619141"/>
      <use xlink:href="#DejaVuSans-6f" x="923.482422"/>
      <use xlink:href="#DejaVuSans-77" x="984.664062"/>
      <use xlink:href="#DejaVuSans-61" x="1066.451172"/>
      <use xlink:href="#DejaVuSans-76" x="1127.730469"/>
      <use xlink:href="#DejaVuSans-65" x="1186.910156"/>
      <use xlink:href="#DejaVuSans-2d" x="1248.433594"/>
      <use xlink:href="#DejaVuSans-73" x="1284.517578"/>
      <use xlink:href="#DejaVuSans-70" x="1336.617188"/>
      <use xlink:href="#DejaVuSans-65" x="1400.09375"/>
      <use xlink:href="#DejaVuSans-63" x="1461.617188"/>
      <use xlink:href="#DejaVuSans-74" x="1516.597656"/>
      <use xlink:href="#DejaVuSans-72" x="1555.806641"/>
      <use xlink:href="#DejaVuSans-6f" x="1594.669922"/>
      <use xlink:href="#DejaVuSans-73" x="1655.851562"/>
      <use xlink:href="#DejaVuSans-63" x="1707.951172"/>
      <use xlink:href="#DejaVuSans-6f" x="1762.931641"/>
      <use xlink:href="#DejaVuSans-70" x="1824.113281"/>
      <use xlink:href="#DejaVuSans-79" x="1887.589844"/>
      <use xlink:href="#DejaVuSans-20" x="1946.769531"/>
      <use xlink:href="#DejaVuSans-70" x="1978.556641"/>
      <use xlink:href="#DejaVuSans-75" x="2042.033203"/>
      <use xlink:href="#DejaVuSans-6c" x="2105.412109"/>
      <use xlink:href="#DejaVuSans-73" x="2133.195312"/>
      <use xlink:href="#DejaVuSans-65" x="2185.294922"/>
      <use xlink:href="#DejaVuSans-20" x="2246.818359"/>
      <use xlink:href="#DejaVuSans-61" x="2278.605469"/>
      <use xlink:href="#DejaVuSans-6d" x="2339.884766"/>
      <use xlink:href="#DejaVuSans-70" x="2437.296875"/>
      <use xlink:href="#DejaVuSans-6c" x="2500.773438"/>
      <use xlink:href="#DejaVuSans-69" x="2528.556641"/>
      <use xlink:href="#DejaVuSans-74" x="2556.339844"/>
      <use xlink:href="#DejaVuSans-75" x="2595.548828"/>
      <use xlink:href="#DejaVuSans-64" x="2658.927734"/>
      <use xlink:href="#DejaVuSans-65" x="2722.404297"/>
      <use xlink:href="#DejaVuSans-20" x="2783.927734"/>
      <use xlink:href="#DejaVuSans-28" x="2815.714844"/>
      <use xlink:href="#DejaVuSans-29" x="2854.728516"/>
     </g>
    </g>
    <g id="line2d_15">
     <path d="M 539.13225 283.614187 
L 549.13225 283.614187 
L 559.13225 283.614187 
" style="fill: none; stroke: #440154; stroke-width: 1.5; stroke-linecap: square"/>
    </g>
    <g id="text_17">
     <!-- 0.001 -->
     <g transform="translate(567.13225 287.114187) scale(0.1 -0.1)">
      <use xlink:href="#DejaVuSans-30"/>
      <use xlink:href="#DejaVuSans-2e" x="63.623047"/>
      <use xlink:href="#DejaVuSans-30" x="95.410156"/>
      <use xlink:href="#DejaVuSans-30" x="159.033203"/>
      <use xlink:href="#DejaVuSans-31" x="222.65625"/>
     </g>
    </g>
    <g id="line2d_16">
     <path d="M 539.13225 298.292312 
L 549.13225 298.292312 
L 559.13225 298.292312 
" style="fill: none; stroke: #fde725; stroke-width: 1.5; stroke-linecap: square"/>
    </g>
    <g id="text_18">
     <!-- 0.081 -->
     <g transform="translate(567.13225 301.792312) scale(0.1 -0.1)">
      <defs>
       <path id="DejaVuSans-38" d="M 2034 2216 
Q 1584 2216 1326 1975 
Q 1069 1734 1069 1313 
Q 1069 891 1326 650 
Q 1584 409 2034 409 
Q 2484 409 2743 651 
Q 3003 894 3003 1313 
Q 3003 1734 2745 1975 
Q 2488 2216 2034 2216 
z
M 1403 2484 
Q 997 2584 770 2862 
Q 544 3141 544 3541 
Q 544 4100 942 4425 
Q 1341 4750 2034 4750 
Q 2731 4750 3128 4425 
Q 3525 4100 3525 3541 
Q 3525 3141 3298 2862 
Q 3072 2584 2669 2484 
Q 3125 2378 3379 2068 
Q 3634 1759 3634 1313 
Q 3634 634 3220 271 
Q 2806 -91 2034 -91 
Q 1263 -91 848 271 
Q 434 634 434 1313 
Q 434 1759 690 2068 
Q 947 2378 1403 2484 
z
M 1172 3481 
Q 1172 3119 1398 2916 
Q 1625 2713 2034 2713 
Q 2441 2713 2670 2916 
Q 2900 3119 2900 3481 
Q 2900 3844 2670 4047 
Q 2441 4250 2034 4250 
Q 1625 4250 1398 4047 
Q 1172 3844 1172 3481 
z
" transform="scale(0.015625)"/>
      </defs>
      <use xlink:href="#DejaVuSans-30"/>
      <use xlink:href="#DejaVuSans-2e" x="63.623047"/>
      <use xlink:href="#DejaVuSans-30" x="95.410156"/>
      <use xlink:href="#DejaVuSans-38" x="159.033203"/>
      <use xlink:href="#DejaVuSans-31" x="222.65625"/>
     </g>
    </g>
   </g>
  </g>
  <g id="text_19">
   <!-- x0x1-y0 Pulsed spectroscopy vs power q00 -->
   <g transform="translate(86.86875 16.318125) scale(0.12 -0.12)">
    <defs>
     <path id="DejaVuSans-78" d="M 3513 3500 
L 2247 1797 
L 3578 0 
L 2900 0 
L 1881 1375 
L 863 0 
L 184 0 
L 1544 1831 
L 300 3500 
L 978 3500 
L 1906 2253 
L 2834 3500 
L 3513 3500 
z
" transform="scale(0.015625)"/>
     <path id="DejaVuSans-50" d="M 1259 4147 
L 1259 2394 
L 2053 2394 
Q 2494 2394 2734 2622 
Q 2975 2850 2975 3272 
Q 2975 3691 2734 3919 
Q 2494 4147 2053 4147 
L 1259 4147 
z
M 628 4666 
L 2053 4666 
Q 2838 4666 3239 4311 
Q 3641 3956 3641 3272 
Q 3641 2581 3239 2228 
Q 2838 1875 2053 1875 
L 1259 1875 
L 1259 0 
L 628 0 
L 628 4666 
z
" transform="scale(0.015625)"/>
    </defs>
    <use xlink:href="#DejaVuSans-78"/>
    <use xlink:href="#DejaVuSans-30" x="59.179688"/>
    <use xlink:href="#DejaVuSans-78" x="122.802734"/>
    <use xlink:href="#DejaVuSans-31" x="181.982422"/>
    <use xlink:href="#DejaVuSans-2d" x="245.605469"/>
    <use xlink:href="#DejaVuSans-79" x="279.939453"/>
    <use xlink:href="#DejaVuSans-30" x="339.119141"/>
    <use xlink:href="#DejaVuSans-20" x="402.742188"/>
    <use xlink:href="#DejaVuSans-50" x="434.529297"/>
    <use xlink:href="#DejaVuSans-75" x="493.082031"/>
    <use xlink:href="#DejaVuSans-6c" x="556.460938"/>
    <use xlink:href="#DejaVuSans-73" x="584.244141"/>
    <use xlink:href="#DejaVuSans-65" x="636.34375"/>
    <use xlink:href="#DejaVuSans-64" x="697.867188"/>
    <use xlink:href="#DejaVuSans-20" x="761.34375"/>
    <use xlink:href="#DejaVuSans-73" x="793.130859"/>
    <use xlink:href="#DejaVuSans-70" x="845.230469"/>
    <use xlink:href="#DejaVuSans-65" x="908.707031"/>
    <use xlink:href="#DejaVuSans-63" x="970.230469"/>
    <use xlink:href="#DejaVuSans-74" x="1025.210938"/>
    <use xlink:href="#DejaVuSans-72" x="1064.419922"/>
    <use xlink:href="#DejaVuSans-6f" x="1103.283203"/>
    <use xlink:href="#DejaVuSans-73" x="1164.464844"/>
    <use xlink:href="#DejaVuSans-63" x="1216.564453"/>
    <use xlink:href="#DejaVuSans-6f" x="1271.544922"/>
    <use xlink:href="#DejaVuSans-70" x="1332.726562"/>
    <use xlink:href="#DejaVuSans-79" x="1396.203125"/>
    <use xlink:href="#DejaVuSans-20" x="1455.382812"/>
    <use xlink:href="#DejaVuSans-76" x="1487.169922"/>
    <use xlink:href="#DejaVuSans-73" x="1546.349609"/>
    <use xlink:href="#DejaVuSans-20" x="1598.449219"/>
    <use xlink:href="#DejaVuSans-70" x="1630.236328"/>
    <use xlink:href="#DejaVuSans-6f" x="1693.712891"/>
    <use xlink:href="#DejaVuSans-77" x="1754.894531"/>
    <use xlink:href="#DejaVuSans-65" x="1836.681641"/>
    <use xlink:href="#DejaVuSans-72" x="1898.205078"/>
    <use xlink:href="#DejaVuSans-20" x="1939.318359"/>
    <use xlink:href="#DejaVuSans-71" x="1971.105469"/>
    <use xlink:href="#DejaVuSans-30" x="2034.582031"/>
    <use xlink:href="#DejaVuSans-30" x="2098.205078"/>
   </g>
   <!-- tuid: 20241114-112555-435-e6ae7a -->
   <g transform="translate(107.258438 29.7555) scale(0.12 -0.12)">
    <defs>
     <path id="DejaVuSans-3a" d="M 750 794 
L 1409 794 
L 1409 0 
L 750 0 
L 750 794 
z
M 750 3309 
L 1409 3309 
L 1409 2516 
L 750 2516 
L 750 3309 
z
" transform="scale(0.015625)"/>
     <path id="DejaVuSans-36" d="M 2113 2584 
Q 1688 2584 1439 2293 
Q 1191 2003 1191 1497 
Q 1191 994 1439 701 
Q 1688 409 2113 409 
Q 2538 409 2786 701 
Q 3034 994 3034 1497 
Q 3034 2003 2786 2293 
Q 2538 2584 2113 2584 
z
M 3366 4563 
L 3366 3988 
Q 3128 4100 2886 4159 
Q 2644 4219 2406 4219 
Q 1781 4219 1451 3797 
Q 1122 3375 1075 2522 
Q 1259 2794 1537 2939 
Q 1816 3084 2150 3084 
Q 2853 3084 3261 2657 
Q 3669 2231 3669 1497 
Q 3669 778 3244 343 
Q 2819 -91 2113 -91 
Q 1303 -91 875 529 
Q 447 1150 447 2328 
Q 447 3434 972 4092 
Q 1497 4750 2381 4750 
Q 2619 4750 2861 4703 
Q 3103 4656 3366 4563 
z
" transform="scale(0.015625)"/>
     <path id="DejaVuSans-37" d="M 525 4666 
L 3525 4666 
L 3525 4397 
L 1831 0 
L 1172 0 
L 2766 4134 
L 525 4134 
L 525 4666 
z
" transform="scale(0.015625)"/>
    </defs>
    <use xlink:href="#DejaVuSans-74"/>
    <use xlink:href="#DejaVuSans-75" x="39.208984"/>
    <use xlink:href="#DejaVuSans-69" x="102.587891"/>
    <use xlink:href="#DejaVuSans-64" x="130.371094"/>
    <use xlink:href="#DejaVuSans-3a" x="193.847656"/>
    <use xlink:href="#DejaVuSans-20" x="227.539062"/>
    <use xlink:href="#DejaVuSans-32" x="259.326172"/>
    <use xlink:href="#DejaVuSans-30" x="322.949219"/>
    <use xlink:href="#DejaVuSans-32" x="386.572266"/>
    <use xlink:href="#DejaVuSans-34" x="450.195312"/>
    <use xlink:href="#DejaVuSans-31" x="513.818359"/>
    <use xlink:href="#DejaVuSans-31" x="577.441406"/>
    <use xlink:href="#DejaVuSans-31" x="641.064453"/>
    <use xlink:href="#DejaVuSans-34" x="704.6875"/>
    <use xlink:href="#DejaVuSans-2d" x="768.310547"/>
    <use xlink:href="#DejaVuSans-31" x="804.394531"/>
    <use xlink:href="#DejaVuSans-31" x="868.017578"/>
    <use xlink:href="#DejaVuSans-32" x="931.640625"/>
    <use xlink:href="#DejaVuSans-35" x="995.263672"/>
    <use xlink:href="#DejaVuSans-35" x="1058.886719"/>
    <use xlink:href="#DejaVuSans-35" x="1122.509766"/>
    <use xlink:href="#DejaVuSans-2d" x="1186.132812"/>
    <use xlink:href="#DejaVuSans-34" x="1222.216797"/>
    <use xlink:href="#DejaVuSans-33" x="1285.839844"/>
    <use xlink:href="#DejaVuSans-35" x="1349.462891"/>
    <use xlink:href="#DejaVuSans-2d" x="1413.085938"/>
    <use xlink:href="#DejaVuSans-65" x="1449.169922"/>
    <use xlink:href="#DejaVuSans-36" x="1510.693359"/>
    <use xlink:href="#DejaVuSans-61" x="1574.316406"/>
    <use xlink:href="#DejaVuSans-65" x="1635.595703"/>
    <use xlink:href="#DejaVuSans-37" x="1697.119141"/>
    <use xlink:href="#DejaVuSans-61" x="1760.742188"/>
   </g>
  </g>
 </g>
 <defs>
  <clipPath id="p44710ee95c">
   <rect x="43.78125" y="41.76" width="357.12" height="266.112"/>
  </clipPath>
 </defs>
</svg>
