<?xml version="1.0" encoding="utf-8" standalone="no"?>
<!DOCTYPE svg PUBLIC "-//W3C//DTD SVG 1.1//EN"
  "http://www.w3.org/Graphics/SVG/1.1/DTD/svg11.dtd">
<svg xmlns:xlink="http://www.w3.org/1999/xlink" width="726.51975pt" height="345.42825pt" viewBox="0 0 726.51975 345.42825" xmlns="http://www.w3.org/2000/svg" version="1.1">
 <metadata>
  <rdf:RDF xmlns:dc="http://purl.org/dc/elements/1.1/" xmlns:cc="http://creativecommons.org/ns#" xmlns:rdf="http://www.w3.org/1999/02/22-rdf-syntax-ns#">
   <cc:Work>
    <dc:type rdf:resource="http://purl.org/dc/dcmitype/StillImage"/>
    <dc:date>2024-11-14T11:29:28.595361</dc:date>
    <dc:format>image/svg+xml</dc:format>
    <dc:creator>
     <cc:Agent>
      <dc:title>Matplotlib v3.8.0, https://matplotlib.org/</dc:title>
     </cc:Agent>
    </dc:creator>
   </cc:Work>
  </rdf:RDF>
 </metadata>
 <defs>
  <style type="text/css">*{stroke-linejoin: round; stroke-linecap: butt}</style>
 </defs>
 <g id="figure_1">
  <g id="patch_1">
   <path d="M 0 345.42825 
L 726.51975 345.42825 
L 726.51975 -0 
L 0 -0 
L 0 345.42825 
z
" style="fill: none; opacity: 0"/>
  </g>
  <g id="axes_1">
   <g id="patch_2">
    <path d="M 46.965625 307.872 
L 404.085625 307.872 
L 404.085625 41.76 
L 46.965625 41.76 
z
" style="fill: #ffffff"/>
   </g>
   <g id="matplotlib.axis_1">
    <g id="xtick_1">
     <g id="line2d_1">
      <defs>
       <path id="m561da6935c" d="M 0 0 
L 0 3.5 
" style="stroke: #000000; stroke-width: 0.8"/>
      </defs>
      <g>
       <use xlink:href="#m561da6935c" x="114.372548" y="307.872" style="stroke: #000000; stroke-width: 0.8"/>
      </g>
     </g>
     <g id="text_1">
      <!-- 50 -->
      <g transform="translate(108.010048 322.470438) scale(0.1 -0.1)">
       <defs>
        <path id="DejaVuSans-35" d="M 691 4666 
L 3169 4666 
L 3169 4134 
L 1269 4134 
L 1269 2991 
Q 1406 3038 1543 3061 
Q 1681 3084 1819 3084 
Q 2600 3084 3056 2656 
Q 3513 2228 3513 1497 
Q 3513 744 3044 326 
Q 2575 -91 1722 -91 
Q 1428 -91 1123 -41 
Q 819 9 494 109 
L 494 744 
Q 775 591 1075 516 
Q 1375 441 1709 441 
Q 2250 441 2565 725 
Q 2881 1009 2881 1497 
Q 2881 1984 2565 2268 
Q 2250 2553 1709 2553 
Q 1456 2553 1204 2497 
Q 953 2441 691 2322 
L 691 4666 
z
" transform="scale(0.015625)"/>
        <path id="DejaVuSans-30" d="M 2034 4250 
Q 1547 4250 1301 3770 
Q 1056 3291 1056 2328 
Q 1056 1369 1301 889 
Q 1547 409 2034 409 
Q 2525 409 2770 889 
Q 3016 1369 3016 2328 
Q 3016 3291 2770 3770 
Q 2525 4250 2034 4250 
z
M 2034 4750 
Q 2819 4750 3233 4129 
Q 3647 3509 3647 2328 
Q 3647 1150 3233 529 
Q 2819 -91 2034 -91 
Q 1250 -91 836 529 
Q 422 1150 422 2328 
Q 422 3509 836 4129 
Q 1250 4750 2034 4750 
z
" transform="scale(0.015625)"/>
       </defs>
       <use xlink:href="#DejaVuSans-35"/>
       <use xlink:href="#DejaVuSans-30" x="63.623047"/>
      </g>
     </g>
    </g>
    <g id="xtick_2">
     <g id="line2d_2">
      <g>
       <use xlink:href="#m561da6935c" x="182.291909" y="307.872" style="stroke: #000000; stroke-width: 0.8"/>
      </g>
     </g>
     <g id="text_2">
      <!-- 100 -->
      <g transform="translate(172.748159 322.470438) scale(0.1 -0.1)">
       <defs>
        <path id="DejaVuSans-31" d="M 794 531 
L 1825 531 
L 1825 4091 
L 703 3866 
L 703 4441 
L 1819 4666 
L 2450 4666 
L 2450 531 
L 3481 531 
L 3481 0 
L 794 0 
L 794 531 
z
" transform="scale(0.015625)"/>
       </defs>
       <use xlink:href="#DejaVuSans-31"/>
       <use xlink:href="#DejaVuSans-30" x="63.623047"/>
       <use xlink:href="#DejaVuSans-30" x="127.246094"/>
      </g>
     </g>
    </g>
    <g id="xtick_3">
     <g id="line2d_3">
      <g>
       <use xlink:href="#m561da6935c" x="250.21127" y="307.872" style="stroke: #000000; stroke-width: 0.8"/>
      </g>
     </g>
     <g id="text_3">
      <!-- 150 -->
      <g transform="translate(240.66752 322.470438) scale(0.1 -0.1)">
       <use xlink:href="#DejaVuSans-31"/>
       <use xlink:href="#DejaVuSans-35" x="63.623047"/>
       <use xlink:href="#DejaVuSans-30" x="127.246094"/>
      </g>
     </g>
    </g>
    <g id="xtick_4">
     <g id="line2d_4">
      <g>
       <use xlink:href="#m561da6935c" x="318.130631" y="307.872" style="stroke: #000000; stroke-width: 0.8"/>
      </g>
     </g>
     <g id="text_4">
      <!-- 200 -->
      <g transform="translate(308.586881 322.470438) scale(0.1 -0.1)">
       <defs>
        <path id="DejaVuSans-32" d="M 1228 531 
L 3431 531 
L 3431 0 
L 469 0 
L 469 531 
Q 828 903 1448 1529 
Q 2069 2156 2228 2338 
Q 2531 2678 2651 2914 
Q 2772 3150 2772 3378 
Q 2772 3750 2511 3984 
Q 2250 4219 1831 4219 
Q 1534 4219 1204 4116 
Q 875 4013 500 3803 
L 500 4441 
Q 881 4594 1212 4672 
Q 1544 4750 1819 4750 
Q 2544 4750 2975 4387 
Q 3406 4025 3406 3419 
Q 3406 3131 3298 2873 
Q 3191 2616 2906 2266 
Q 2828 2175 2409 1742 
Q 1991 1309 1228 531 
z
" transform="scale(0.015625)"/>
       </defs>
       <use xlink:href="#DejaVuSans-32"/>
       <use xlink:href="#DejaVuSans-30" x="63.623047"/>
       <use xlink:href="#DejaVuSans-30" x="127.246094"/>
      </g>
     </g>
    </g>
    <g id="xtick_5">
     <g id="line2d_5">
      <g>
       <use xlink:href="#m561da6935c" x="386.049992" y="307.872" style="stroke: #000000; stroke-width: 0.8"/>
      </g>
     </g>
     <g id="text_5">
      <!-- 250 -->
      <g transform="translate(376.506242 322.470438) scale(0.1 -0.1)">
       <use xlink:href="#DejaVuSans-32"/>
       <use xlink:href="#DejaVuSans-35" x="63.623047"/>
       <use xlink:href="#DejaVuSans-30" x="127.246094"/>
      </g>
     </g>
    </g>
    <g id="text_6">
     <!-- Spec frequency [MHz] -->
     <g transform="translate(170.496719 336.148562) scale(0.1 -0.1)">
      <defs>
       <path id="DejaVuSans-53" d="M 3425 4513 
L 3425 3897 
Q 3066 4069 2747 4153 
Q 2428 4238 2131 4238 
Q 1616 4238 1336 4038 
Q 1056 3838 1056 3469 
Q 1056 3159 1242 3001 
Q 1428 2844 1947 2747 
L 2328 2669 
Q 3034 2534 3370 2195 
Q 3706 1856 3706 1288 
Q 3706 609 3251 259 
Q 2797 -91 1919 -91 
Q 1588 -91 1214 -16 
Q 841 59 441 206 
L 441 856 
Q 825 641 1194 531 
Q 1563 422 1919 422 
Q 2459 422 2753 634 
Q 3047 847 3047 1241 
Q 3047 1584 2836 1778 
Q 2625 1972 2144 2069 
L 1759 2144 
Q 1053 2284 737 2584 
Q 422 2884 422 3419 
Q 422 4038 858 4394 
Q 1294 4750 2059 4750 
Q 2388 4750 2728 4690 
Q 3069 4631 3425 4513 
z
" transform="scale(0.015625)"/>
       <path id="DejaVuSans-70" d="M 1159 525 
L 1159 -1331 
L 581 -1331 
L 581 3500 
L 1159 3500 
L 1159 2969 
Q 1341 3281 1617 3432 
Q 1894 3584 2278 3584 
Q 2916 3584 3314 3078 
Q 3713 2572 3713 1747 
Q 3713 922 3314 415 
Q 2916 -91 2278 -91 
Q 1894 -91 1617 61 
Q 1341 213 1159 525 
z
M 3116 1747 
Q 3116 2381 2855 2742 
Q 2594 3103 2138 3103 
Q 1681 3103 1420 2742 
Q 1159 2381 1159 1747 
Q 1159 1113 1420 752 
Q 1681 391 2138 391 
Q 2594 391 2855 752 
Q 3116 1113 3116 1747 
z
" transform="scale(0.015625)"/>
       <path id="DejaVuSans-65" d="M 3597 1894 
L 3597 1613 
L 953 1613 
Q 991 1019 1311 708 
Q 1631 397 2203 397 
Q 2534 397 2845 478 
Q 3156 559 3463 722 
L 3463 178 
Q 3153 47 2828 -22 
Q 2503 -91 2169 -91 
Q 1331 -91 842 396 
Q 353 884 353 1716 
Q 353 2575 817 3079 
Q 1281 3584 2069 3584 
Q 2775 3584 3186 3129 
Q 3597 2675 3597 1894 
z
M 3022 2063 
Q 3016 2534 2758 2815 
Q 2500 3097 2075 3097 
Q 1594 3097 1305 2825 
Q 1016 2553 972 2059 
L 3022 2063 
z
" transform="scale(0.015625)"/>
       <path id="DejaVuSans-63" d="M 3122 3366 
L 3122 2828 
Q 2878 2963 2633 3030 
Q 2388 3097 2138 3097 
Q 1578 3097 1268 2742 
Q 959 2388 959 1747 
Q 959 1106 1268 751 
Q 1578 397 2138 397 
Q 2388 397 2633 464 
Q 2878 531 3122 666 
L 3122 134 
Q 2881 22 2623 -34 
Q 2366 -91 2075 -91 
Q 1284 -91 818 406 
Q 353 903 353 1747 
Q 353 2603 823 3093 
Q 1294 3584 2113 3584 
Q 2378 3584 2631 3529 
Q 2884 3475 3122 3366 
z
" transform="scale(0.015625)"/>
       <path id="DejaVuSans-20" transform="scale(0.015625)"/>
       <path id="DejaVuSans-66" d="M 2375 4863 
L 2375 4384 
L 1825 4384 
Q 1516 4384 1395 4259 
Q 1275 4134 1275 3809 
L 1275 3500 
L 2222 3500 
L 2222 3053 
L 1275 3053 
L 1275 0 
L 697 0 
L 697 3053 
L 147 3053 
L 147 3500 
L 697 3500 
L 697 3744 
Q 697 4328 969 4595 
Q 1241 4863 1831 4863 
L 2375 4863 
z
" transform="scale(0.015625)"/>
       <path id="DejaVuSans-72" d="M 2631 2963 
Q 2534 3019 2420 3045 
Q 2306 3072 2169 3072 
Q 1681 3072 1420 2755 
Q 1159 2438 1159 1844 
L 1159 0 
L 581 0 
L 581 3500 
L 1159 3500 
L 1159 2956 
Q 1341 3275 1631 3429 
Q 1922 3584 2338 3584 
Q 2397 3584 2469 3576 
Q 2541 3569 2628 3553 
L 2631 2963 
z
" transform="scale(0.015625)"/>
       <path id="DejaVuSans-71" d="M 947 1747 
Q 947 1113 1208 752 
Q 1469 391 1925 391 
Q 2381 391 2643 752 
Q 2906 1113 2906 1747 
Q 2906 2381 2643 2742 
Q 2381 3103 1925 3103 
Q 1469 3103 1208 2742 
Q 947 2381 947 1747 
z
M 2906 525 
Q 2725 213 2448 61 
Q 2172 -91 1784 -91 
Q 1150 -91 751 415 
Q 353 922 353 1747 
Q 353 2572 751 3078 
Q 1150 3584 1784 3584 
Q 2172 3584 2448 3432 
Q 2725 3281 2906 2969 
L 2906 3500 
L 3481 3500 
L 3481 -1331 
L 2906 -1331 
L 2906 525 
z
" transform="scale(0.015625)"/>
       <path id="DejaVuSans-75" d="M 544 1381 
L 544 3500 
L 1119 3500 
L 1119 1403 
Q 1119 906 1312 657 
Q 1506 409 1894 409 
Q 2359 409 2629 706 
Q 2900 1003 2900 1516 
L 2900 3500 
L 3475 3500 
L 3475 0 
L 2900 0 
L 2900 538 
Q 2691 219 2414 64 
Q 2138 -91 1772 -91 
Q 1169 -91 856 284 
Q 544 659 544 1381 
z
M 1991 3584 
L 1991 3584 
z
" transform="scale(0.015625)"/>
       <path id="DejaVuSans-6e" d="M 3513 2113 
L 3513 0 
L 2938 0 
L 2938 2094 
Q 2938 2591 2744 2837 
Q 2550 3084 2163 3084 
Q 1697 3084 1428 2787 
Q 1159 2491 1159 1978 
L 1159 0 
L 581 0 
L 581 3500 
L 1159 3500 
L 1159 2956 
Q 1366 3272 1645 3428 
Q 1925 3584 2291 3584 
Q 2894 3584 3203 3211 
Q 3513 2838 3513 2113 
z
" transform="scale(0.015625)"/>
       <path id="DejaVuSans-79" d="M 2059 -325 
Q 1816 -950 1584 -1140 
Q 1353 -1331 966 -1331 
L 506 -1331 
L 506 -850 
L 844 -850 
Q 1081 -850 1212 -737 
Q 1344 -625 1503 -206 
L 1606 56 
L 191 3500 
L 800 3500 
L 1894 763 
L 2988 3500 
L 3597 3500 
L 2059 -325 
z
" transform="scale(0.015625)"/>
       <path id="DejaVuSans-5b" d="M 550 4863 
L 1875 4863 
L 1875 4416 
L 1125 4416 
L 1125 -397 
L 1875 -397 
L 1875 -844 
L 550 -844 
L 550 4863 
z
" transform="scale(0.015625)"/>
       <path id="DejaVuSans-4d" d="M 628 4666 
L 1569 4666 
L 2759 1491 
L 3956 4666 
L 4897 4666 
L 4897 0 
L 4281 0 
L 4281 4097 
L 3078 897 
L 2444 897 
L 1241 4097 
L 1241 0 
L 628 0 
L 628 4666 
z
" transform="scale(0.015625)"/>
       <path id="DejaVuSans-48" d="M 628 4666 
L 1259 4666 
L 1259 2753 
L 3553 2753 
L 3553 4666 
L 4184 4666 
L 4184 0 
L 3553 0 
L 3553 2222 
L 1259 2222 
L 1259 0 
L 628 0 
L 628 4666 
z
" transform="scale(0.015625)"/>
       <path id="DejaVuSans-7a" d="M 353 3500 
L 3084 3500 
L 3084 2975 
L 922 459 
L 3084 459 
L 3084 0 
L 275 0 
L 275 525 
L 2438 3041 
L 353 3041 
L 353 3500 
z
" transform="scale(0.015625)"/>
       <path id="DejaVuSans-5d" d="M 1947 4863 
L 1947 -844 
L 622 -844 
L 622 -397 
L 1369 -397 
L 1369 4416 
L 622 4416 
L 622 4863 
L 1947 4863 
z
" transform="scale(0.015625)"/>
      </defs>
      <use xlink:href="#DejaVuSans-53"/>
      <use xlink:href="#DejaVuSans-70" x="63.476562"/>
      <use xlink:href="#DejaVuSans-65" x="126.953125"/>
      <use xlink:href="#DejaVuSans-63" x="188.476562"/>
      <use xlink:href="#DejaVuSans-20" x="243.457031"/>
      <use xlink:href="#DejaVuSans-66" x="275.244141"/>
      <use xlink:href="#DejaVuSans-72" x="310.449219"/>
      <use xlink:href="#DejaVuSans-65" x="349.3125"/>
      <use xlink:href="#DejaVuSans-71" x="410.835938"/>
      <use xlink:href="#DejaVuSans-75" x="474.3125"/>
      <use xlink:href="#DejaVuSans-65" x="537.691406"/>
      <use xlink:href="#DejaVuSans-6e" x="599.214844"/>
      <use xlink:href="#DejaVuSans-63" x="662.59375"/>
      <use xlink:href="#DejaVuSans-79" x="717.574219"/>
      <use xlink:href="#DejaVuSans-20" x="776.753906"/>
      <use xlink:href="#DejaVuSans-5b" x="808.541016"/>
      <use xlink:href="#DejaVuSans-4d" x="847.554688"/>
      <use xlink:href="#DejaVuSans-48" x="933.833984"/>
      <use xlink:href="#DejaVuSans-7a" x="1009.029297"/>
      <use xlink:href="#DejaVuSans-5d" x="1061.519531"/>
     </g>
    </g>
    <g id="text_7">
     <!-- +5 GHz -->
     <g transform="translate(365.648125 335.148562) scale(0.1 -0.1)">
      <defs>
       <path id="DejaVuSans-2b" d="M 2944 4013 
L 2944 2272 
L 4684 2272 
L 4684 1741 
L 2944 1741 
L 2944 0 
L 2419 0 
L 2419 1741 
L 678 1741 
L 678 2272 
L 2419 2272 
L 2419 4013 
L 2944 4013 
z
" transform="scale(0.015625)"/>
       <path id="DejaVuSans-47" d="M 3809 666 
L 3809 1919 
L 2778 1919 
L 2778 2438 
L 4434 2438 
L 4434 434 
Q 4069 175 3628 42 
Q 3188 -91 2688 -91 
Q 1594 -91 976 548 
Q 359 1188 359 2328 
Q 359 3472 976 4111 
Q 1594 4750 2688 4750 
Q 3144 4750 3555 4637 
Q 3966 4525 4313 4306 
L 4313 3634 
Q 3963 3931 3569 4081 
Q 3175 4231 2741 4231 
Q 1884 4231 1454 3753 
Q 1025 3275 1025 2328 
Q 1025 1384 1454 906 
Q 1884 428 2741 428 
Q 3075 428 3337 486 
Q 3600 544 3809 666 
z
" transform="scale(0.015625)"/>
      </defs>
      <use xlink:href="#DejaVuSans-2b"/>
      <use xlink:href="#DejaVuSans-35" x="83.789062"/>
      <use xlink:href="#DejaVuSans-20" x="147.412109"/>
      <use xlink:href="#DejaVuSans-47" x="179.199219"/>
      <use xlink:href="#DejaVuSans-48" x="256.689453"/>
      <use xlink:href="#DejaVuSans-7a" x="331.884766"/>
     </g>
    </g>
   </g>
   <g id="matplotlib.axis_2">
    <g id="ytick_1">
     <g id="line2d_6">
      <defs>
       <path id="m48425ec67f" d="M 0 0 
L -3.5 0 
" style="stroke: #000000; stroke-width: 0.8"/>
      </defs>
      <g>
       <use xlink:href="#m48425ec67f" x="46.965625" y="302.529958" style="stroke: #000000; stroke-width: 0.8"/>
      </g>
     </g>
     <g id="text_8">
      <!-- 138 -->
      <g transform="translate(20.878125 306.329177) scale(0.1 -0.1)">
       <defs>
        <path id="DejaVuSans-33" d="M 2597 2516 
Q 3050 2419 3304 2112 
Q 3559 1806 3559 1356 
Q 3559 666 3084 287 
Q 2609 -91 1734 -91 
Q 1441 -91 1130 -33 
Q 819 25 488 141 
L 488 750 
Q 750 597 1062 519 
Q 1375 441 1716 441 
Q 2309 441 2620 675 
Q 2931 909 2931 1356 
Q 2931 1769 2642 2001 
Q 2353 2234 1838 2234 
L 1294 2234 
L 1294 2753 
L 1863 2753 
Q 2328 2753 2575 2939 
Q 2822 3125 2822 3475 
Q 2822 3834 2567 4026 
Q 2313 4219 1838 4219 
Q 1578 4219 1281 4162 
Q 984 4106 628 3988 
L 628 4550 
Q 988 4650 1302 4700 
Q 1616 4750 1894 4750 
Q 2613 4750 3031 4423 
Q 3450 4097 3450 3541 
Q 3450 3153 3228 2886 
Q 3006 2619 2597 2516 
z
" transform="scale(0.015625)"/>
        <path id="DejaVuSans-38" d="M 2034 2216 
Q 1584 2216 1326 1975 
Q 1069 1734 1069 1313 
Q 1069 891 1326 650 
Q 1584 409 2034 409 
Q 2484 409 2743 651 
Q 3003 894 3003 1313 
Q 3003 1734 2745 1975 
Q 2488 2216 2034 2216 
z
M 1403 2484 
Q 997 2584 770 2862 
Q 544 3141 544 3541 
Q 544 4100 942 4425 
Q 1341 4750 2034 4750 
Q 2731 4750 3128 4425 
Q 3525 4100 3525 3541 
Q 3525 3141 3298 2862 
Q 3072 2584 2669 2484 
Q 3125 2378 3379 2068 
Q 3634 1759 3634 1313 
Q 3634 634 3220 271 
Q 2806 -91 2034 -91 
Q 1263 -91 848 271 
Q 434 634 434 1313 
Q 434 1759 690 2068 
Q 947 2378 1403 2484 
z
M 1172 3481 
Q 1172 3119 1398 2916 
Q 1625 2713 2034 2713 
Q 2441 2713 2670 2916 
Q 2900 3119 2900 3481 
Q 2900 3844 2670 4047 
Q 2441 4250 2034 4250 
Q 1625 4250 1398 4047 
Q 1172 3844 1172 3481 
z
" transform="scale(0.015625)"/>
       </defs>
       <use xlink:href="#DejaVuSans-31"/>
       <use xlink:href="#DejaVuSans-33" x="63.623047"/>
       <use xlink:href="#DejaVuSans-38" x="127.246094"/>
      </g>
     </g>
    </g>
    <g id="ytick_2">
     <g id="line2d_7">
      <g>
       <use xlink:href="#m48425ec67f" x="46.965625" y="271.373492" style="stroke: #000000; stroke-width: 0.8"/>
      </g>
     </g>
     <g id="text_9">
      <!-- 140 -->
      <g transform="translate(20.878125 275.172711) scale(0.1 -0.1)">
       <defs>
        <path id="DejaVuSans-34" d="M 2419 4116 
L 825 1625 
L 2419 1625 
L 2419 4116 
z
M 2253 4666 
L 3047 4666 
L 3047 1625 
L 3713 1625 
L 3713 1100 
L 3047 1100 
L 3047 0 
L 2419 0 
L 2419 1100 
L 313 1100 
L 313 1709 
L 2253 4666 
z
" transform="scale(0.015625)"/>
       </defs>
       <use xlink:href="#DejaVuSans-31"/>
       <use xlink:href="#DejaVuSans-34" x="63.623047"/>
       <use xlink:href="#DejaVuSans-30" x="127.246094"/>
      </g>
     </g>
    </g>
    <g id="ytick_3">
     <g id="line2d_8">
      <g>
       <use xlink:href="#m48425ec67f" x="46.965625" y="240.217026" style="stroke: #000000; stroke-width: 0.8"/>
      </g>
     </g>
     <g id="text_10">
      <!-- 142 -->
      <g transform="translate(20.878125 244.016245) scale(0.1 -0.1)">
       <use xlink:href="#DejaVuSans-31"/>
       <use xlink:href="#DejaVuSans-34" x="63.623047"/>
       <use xlink:href="#DejaVuSans-32" x="127.246094"/>
      </g>
     </g>
    </g>
    <g id="ytick_4">
     <g id="line2d_9">
      <g>
       <use xlink:href="#m48425ec67f" x="46.965625" y="209.06056" style="stroke: #000000; stroke-width: 0.8"/>
      </g>
     </g>
     <g id="text_11">
      <!-- 144 -->
      <g transform="translate(20.878125 212.859779) scale(0.1 -0.1)">
       <use xlink:href="#DejaVuSans-31"/>
       <use xlink:href="#DejaVuSans-34" x="63.623047"/>
       <use xlink:href="#DejaVuSans-34" x="127.246094"/>
      </g>
     </g>
    </g>
    <g id="ytick_5">
     <g id="line2d_10">
      <g>
       <use xlink:href="#m48425ec67f" x="46.965625" y="177.904094" style="stroke: #000000; stroke-width: 0.8"/>
      </g>
     </g>
     <g id="text_12">
      <!-- 146 -->
      <g transform="translate(20.878125 181.703313) scale(0.1 -0.1)">
       <defs>
        <path id="DejaVuSans-36" d="M 2113 2584 
Q 1688 2584 1439 2293 
Q 1191 2003 1191 1497 
Q 1191 994 1439 701 
Q 1688 409 2113 409 
Q 2538 409 2786 701 
Q 3034 994 3034 1497 
Q 3034 2003 2786 2293 
Q 2538 2584 2113 2584 
z
M 3366 4563 
L 3366 3988 
Q 3128 4100 2886 4159 
Q 2644 4219 2406 4219 
Q 1781 4219 1451 3797 
Q 1122 3375 1075 2522 
Q 1259 2794 1537 2939 
Q 1816 3084 2150 3084 
Q 2853 3084 3261 2657 
Q 3669 2231 3669 1497 
Q 3669 778 3244 343 
Q 2819 -91 2113 -91 
Q 1303 -91 875 529 
Q 447 1150 447 2328 
Q 447 3434 972 4092 
Q 1497 4750 2381 4750 
Q 2619 4750 2861 4703 
Q 3103 4656 3366 4563 
z
" transform="scale(0.015625)"/>
       </defs>
       <use xlink:href="#DejaVuSans-31"/>
       <use xlink:href="#DejaVuSans-34" x="63.623047"/>
       <use xlink:href="#DejaVuSans-36" x="127.246094"/>
      </g>
     </g>
    </g>
    <g id="ytick_6">
     <g id="line2d_11">
      <g>
       <use xlink:href="#m48425ec67f" x="46.965625" y="146.747628" style="stroke: #000000; stroke-width: 0.8"/>
      </g>
     </g>
     <g id="text_13">
      <!-- 148 -->
      <g transform="translate(20.878125 150.546847) scale(0.1 -0.1)">
       <use xlink:href="#DejaVuSans-31"/>
       <use xlink:href="#DejaVuSans-34" x="63.623047"/>
       <use xlink:href="#DejaVuSans-38" x="127.246094"/>
      </g>
     </g>
    </g>
    <g id="ytick_7">
     <g id="line2d_12">
      <g>
       <use xlink:href="#m48425ec67f" x="46.965625" y="115.591162" style="stroke: #000000; stroke-width: 0.8"/>
      </g>
     </g>
     <g id="text_14">
      <!-- 150 -->
      <g transform="translate(20.878125 119.39038) scale(0.1 -0.1)">
       <use xlink:href="#DejaVuSans-31"/>
       <use xlink:href="#DejaVuSans-35" x="63.623047"/>
       <use xlink:href="#DejaVuSans-30" x="127.246094"/>
      </g>
     </g>
    </g>
    <g id="ytick_8">
     <g id="line2d_13">
      <g>
       <use xlink:href="#m48425ec67f" x="46.965625" y="84.434696" style="stroke: #000000; stroke-width: 0.8"/>
      </g>
     </g>
     <g id="text_15">
      <!-- 152 -->
      <g transform="translate(20.878125 88.233914) scale(0.1 -0.1)">
       <use xlink:href="#DejaVuSans-31"/>
       <use xlink:href="#DejaVuSans-35" x="63.623047"/>
       <use xlink:href="#DejaVuSans-32" x="127.246094"/>
      </g>
     </g>
    </g>
    <g id="ytick_9">
     <g id="line2d_14">
      <g>
       <use xlink:href="#m48425ec67f" x="46.965625" y="53.27823" style="stroke: #000000; stroke-width: 0.8"/>
      </g>
     </g>
     <g id="text_16">
      <!-- 154 -->
      <g transform="translate(20.878125 57.077448) scale(0.1 -0.1)">
       <use xlink:href="#DejaVuSans-31"/>
       <use xlink:href="#DejaVuSans-35" x="63.623047"/>
       <use xlink:href="#DejaVuSans-34" x="127.246094"/>
      </g>
     </g>
    </g>
    <g id="text_17">
     <!-- Phase0 [deg] -->
     <g transform="translate(14.798438 207.841781) rotate(-90) scale(0.1 -0.1)">
      <defs>
       <path id="DejaVuSans-50" d="M 1259 4147 
L 1259 2394 
L 2053 2394 
Q 2494 2394 2734 2622 
Q 2975 2850 2975 3272 
Q 2975 3691 2734 3919 
Q 2494 4147 2053 4147 
L 1259 4147 
z
M 628 4666 
L 2053 4666 
Q 2838 4666 3239 4311 
Q 3641 3956 3641 3272 
Q 3641 2581 3239 2228 
Q 2838 1875 2053 1875 
L 1259 1875 
L 1259 0 
L 628 0 
L 628 4666 
z
" transform="scale(0.015625)"/>
       <path id="DejaVuSans-68" d="M 3513 2113 
L 3513 0 
L 2938 0 
L 2938 2094 
Q 2938 2591 2744 2837 
Q 2550 3084 2163 3084 
Q 1697 3084 1428 2787 
Q 1159 2491 1159 1978 
L 1159 0 
L 581 0 
L 581 4863 
L 1159 4863 
L 1159 2956 
Q 1366 3272 1645 3428 
Q 1925 3584 2291 3584 
Q 2894 3584 3203 3211 
Q 3513 2838 3513 2113 
z
" transform="scale(0.015625)"/>
       <path id="DejaVuSans-61" d="M 2194 1759 
Q 1497 1759 1228 1600 
Q 959 1441 959 1056 
Q 959 750 1161 570 
Q 1363 391 1709 391 
Q 2188 391 2477 730 
Q 2766 1069 2766 1631 
L 2766 1759 
L 2194 1759 
z
M 3341 1997 
L 3341 0 
L 2766 0 
L 2766 531 
Q 2569 213 2275 61 
Q 1981 -91 1556 -91 
Q 1019 -91 701 211 
Q 384 513 384 1019 
Q 384 1609 779 1909 
Q 1175 2209 1959 2209 
L 2766 2209 
L 2766 2266 
Q 2766 2663 2505 2880 
Q 2244 3097 1772 3097 
Q 1472 3097 1187 3025 
Q 903 2953 641 2809 
L 641 3341 
Q 956 3463 1253 3523 
Q 1550 3584 1831 3584 
Q 2591 3584 2966 3190 
Q 3341 2797 3341 1997 
z
" transform="scale(0.015625)"/>
       <path id="DejaVuSans-73" d="M 2834 3397 
L 2834 2853 
Q 2591 2978 2328 3040 
Q 2066 3103 1784 3103 
Q 1356 3103 1142 2972 
Q 928 2841 928 2578 
Q 928 2378 1081 2264 
Q 1234 2150 1697 2047 
L 1894 2003 
Q 2506 1872 2764 1633 
Q 3022 1394 3022 966 
Q 3022 478 2636 193 
Q 2250 -91 1575 -91 
Q 1294 -91 989 -36 
Q 684 19 347 128 
L 347 722 
Q 666 556 975 473 
Q 1284 391 1588 391 
Q 1994 391 2212 530 
Q 2431 669 2431 922 
Q 2431 1156 2273 1281 
Q 2116 1406 1581 1522 
L 1381 1569 
Q 847 1681 609 1914 
Q 372 2147 372 2553 
Q 372 3047 722 3315 
Q 1072 3584 1716 3584 
Q 2034 3584 2315 3537 
Q 2597 3491 2834 3397 
z
" transform="scale(0.015625)"/>
       <path id="DejaVuSans-64" d="M 2906 2969 
L 2906 4863 
L 3481 4863 
L 3481 0 
L 2906 0 
L 2906 525 
Q 2725 213 2448 61 
Q 2172 -91 1784 -91 
Q 1150 -91 751 415 
Q 353 922 353 1747 
Q 353 2572 751 3078 
Q 1150 3584 1784 3584 
Q 2172 3584 2448 3432 
Q 2725 3281 2906 2969 
z
M 947 1747 
Q 947 1113 1208 752 
Q 1469 391 1925 391 
Q 2381 391 2643 752 
Q 2906 1113 2906 1747 
Q 2906 2381 2643 2742 
Q 2381 3103 1925 3103 
Q 1469 3103 1208 2742 
Q 947 2381 947 1747 
z
" transform="scale(0.015625)"/>
       <path id="DejaVuSans-67" d="M 2906 1791 
Q 2906 2416 2648 2759 
Q 2391 3103 1925 3103 
Q 1463 3103 1205 2759 
Q 947 2416 947 1791 
Q 947 1169 1205 825 
Q 1463 481 1925 481 
Q 2391 481 2648 825 
Q 2906 1169 2906 1791 
z
M 3481 434 
Q 3481 -459 3084 -895 
Q 2688 -1331 1869 -1331 
Q 1566 -1331 1297 -1286 
Q 1028 -1241 775 -1147 
L 775 -588 
Q 1028 -725 1275 -790 
Q 1522 -856 1778 -856 
Q 2344 -856 2625 -561 
Q 2906 -266 2906 331 
L 2906 616 
Q 2728 306 2450 153 
Q 2172 0 1784 0 
Q 1141 0 747 490 
Q 353 981 353 1791 
Q 353 2603 747 3093 
Q 1141 3584 1784 3584 
Q 2172 3584 2450 3431 
Q 2728 3278 2906 2969 
L 2906 3500 
L 3481 3500 
L 3481 434 
z
" transform="scale(0.015625)"/>
      </defs>
      <use xlink:href="#DejaVuSans-50"/>
      <use xlink:href="#DejaVuSans-68" x="60.302734"/>
      <use xlink:href="#DejaVuSans-61" x="123.681641"/>
      <use xlink:href="#DejaVuSans-73" x="184.960938"/>
      <use xlink:href="#DejaVuSans-65" x="237.060547"/>
      <use xlink:href="#DejaVuSans-30" x="298.583984"/>
      <use xlink:href="#DejaVuSans-20" x="362.207031"/>
      <use xlink:href="#DejaVuSans-5b" x="393.994141"/>
      <use xlink:href="#DejaVuSans-64" x="433.007812"/>
      <use xlink:href="#DejaVuSans-65" x="496.484375"/>
      <use xlink:href="#DejaVuSans-67" x="558.007812"/>
      <use xlink:href="#DejaVuSans-5d" x="621.484375"/>
     </g>
    </g>
   </g>
   <g id="line2d_15">
    <path d="M 63.198352 286.906488 
L 64.556739 250.496635 
L 65.915127 247.371592 
L 67.273514 283.83728 
L 68.631901 231.363406 
L 71.348676 284.731134 
L 72.707063 242.981952 
L 74.06545 242.536308 
L 75.423837 254.035004 
L 76.782224 274.652382 
L 78.140612 242.934665 
L 79.498999 246.941914 
L 80.857386 244.834437 
L 82.215773 285.7869 
L 83.574161 273.890717 
L 84.932548 271.929027 
L 86.290935 289.799701 
L 87.649322 248.387875 
L 89.007709 234.699645 
L 90.366097 257.806459 
L 91.724484 258.231328 
L 93.082871 261.952032 
L 94.441258 259.148658 
L 95.799646 295.570906 
L 97.158033 290.415373 
L 98.51642 268.07939 
L 99.874807 250.385493 
L 101.233194 247.19773 
L 102.591582 243.175572 
L 103.949969 267.903476 
L 105.308356 255.499267 
L 106.666743 248.214978 
L 108.025131 262.166064 
L 109.383518 277.385993 
L 110.741905 253.15548 
L 112.100292 284.898649 
L 113.458679 265.555219 
L 114.817067 233.597189 
L 116.175454 266.289846 
L 117.533841 247.127051 
L 118.892228 257.272563 
L 120.250615 256.12212 
L 121.609003 257.159626 
L 122.96739 245.686895 
L 124.325777 267.148734 
L 125.684164 275.194027 
L 127.042552 262.069622 
L 128.400939 270.908789 
L 129.759326 259.318595 
L 131.117713 250.426085 
L 132.4761 270.102034 
L 133.834488 274.931547 
L 135.192875 271.953017 
L 136.551262 254.265239 
L 137.909649 281.720708 
L 139.268037 263.604881 
L 140.626424 247.698138 
L 141.984811 272.415851 
L 143.343198 244.722824 
L 144.701585 247.956611 
L 147.41836 266.731841 
L 148.776747 259.668112 
L 150.135134 264.708379 
L 151.493522 249.320828 
L 152.851909 240.002734 
L 154.210296 241.05897 
L 155.568683 262.75559 
L 156.92707 245.087264 
L 158.285458 263.296566 
L 159.643845 267.682388 
L 161.002232 249.96051 
L 162.360619 256.966371 
L 163.719007 264.654813 
L 165.077394 268.555996 
L 166.435781 254.24208 
L 167.794168 253.22596 
L 169.152555 255.075706 
L 170.510943 256.354421 
L 171.86933 235.045176 
L 173.227717 285.878816 
L 174.586104 248.532836 
L 175.944491 263.439016 
L 177.302879 267.723831 
L 178.661266 242.4864 
L 180.019653 240.951038 
L 181.37804 243.115502 
L 182.736428 264.997627 
L 184.094815 275.315127 
L 185.453202 238.914602 
L 186.811589 209.752398 
L 188.169976 245.884244 
L 190.886751 295.776 
L 192.245138 268.836875 
L 193.603525 246.246527 
L 194.961913 263.825304 
L 196.3203 256.227929 
L 197.678687 261.562468 
L 199.037074 269.386248 
L 200.395461 254.180612 
L 201.753849 240.418999 
L 203.112236 249.910863 
L 204.470623 250.707666 
L 205.82901 243.838055 
L 207.187398 235.660263 
L 208.545785 267.992044 
L 209.904172 254.746362 
L 211.262559 262.507114 
L 212.620946 251.380632 
L 213.979334 256.444061 
L 215.337721 261.062986 
L 216.696108 274.024915 
L 218.054495 243.242274 
L 219.412883 255.367359 
L 220.77127 242.887266 
L 222.129657 273.610276 
L 223.488044 257.869386 
L 224.846431 248.825727 
L 226.204819 250.387122 
L 227.563206 240.073219 
L 228.921593 236.798098 
L 230.27998 241.625047 
L 231.638367 251.381071 
L 232.996755 243.638626 
L 234.355142 247.430865 
L 235.713529 231.113663 
L 237.071916 248.159894 
L 238.430304 260.062023 
L 239.788691 244.080771 
L 241.147078 249.830044 
L 242.505465 231.00993 
L 243.863852 261.015691 
L 245.22224 245.137821 
L 246.580627 219.133455 
L 247.939014 235.324443 
L 249.297401 229.777298 
L 250.655789 244.813932 
L 252.014176 240.727614 
L 253.372563 256.774509 
L 254.73095 259.380108 
L 256.089337 248.10341 
L 257.447725 228.632758 
L 258.806112 240.126522 
L 260.164499 262.643411 
L 261.522886 251.661198 
L 262.881274 245.564589 
L 264.239661 236.443932 
L 265.598048 256.146389 
L 266.956435 237.350862 
L 268.314822 256.020439 
L 269.67321 251.212789 
L 271.031597 259.447976 
L 272.389984 241.90048 
L 273.748371 229.342103 
L 275.106759 246.293293 
L 276.465146 258.785783 
L 277.823533 255.652679 
L 279.18192 274.625328 
L 280.540307 276.395636 
L 281.898695 255.834919 
L 283.257082 232.128795 
L 284.615469 251.150313 
L 285.973856 251.34687 
L 287.332243 264.745088 
L 288.690631 229.681689 
L 290.049018 276.790567 
L 291.407405 240.772942 
L 292.765792 258.455348 
L 294.12418 233.760495 
L 295.482567 251.657793 
L 296.840954 230.86566 
L 298.199341 239.933387 
L 299.557728 258.613299 
L 300.916116 261.602213 
L 302.274503 252.442967 
L 303.63289 265.72308 
L 304.991277 230.37209 
L 306.349665 250.463288 
L 307.708052 247.787336 
L 309.066439 260.326816 
L 310.424826 233.615642 
L 311.783213 229.076746 
L 313.141601 247.86422 
L 314.499988 239.437674 
L 315.858375 230.240068 
L 317.216762 267.223316 
L 318.57515 259.432749 
L 319.933537 212.252022 
L 321.291924 225.734876 
L 322.650311 249.691901 
L 324.008698 218.926463 
L 325.367086 242.459105 
L 326.725473 257.151393 
L 328.08386 279.670684 
L 329.442247 234.660611 
L 330.800635 225.161383 
L 332.159022 252.395417 
L 333.517409 216.468642 
L 334.875796 68.233211 
L 336.234183 232.359584 
L 337.592571 258.564941 
L 338.950958 238.182683 
L 340.309345 252.384648 
L 341.667732 248.385036 
L 343.026119 237.715116 
L 345.742894 264.640062 
L 347.101281 229.149199 
L 348.459668 238.983967 
L 349.818056 216.979361 
L 351.176443 243.223186 
L 352.53483 262.670019 
L 353.893217 237.016739 
L 355.251604 251.266846 
L 356.609992 258.388431 
L 357.968379 269.132543 
L 359.326766 235.891865 
L 360.685153 217.228702 
L 362.043541 252.465023 
L 363.401928 232.398257 
L 364.760315 266.783145 
L 366.118702 244.8096 
L 367.477089 242.277864 
L 368.835477 223.133973 
L 370.193864 260.305318 
L 371.552251 260.076522 
L 372.910638 228.126021 
L 374.269026 236.846981 
L 375.627413 253.867099 
L 376.9858 258.109973 
L 378.344187 235.36563 
L 379.702574 234.54848 
L 381.060962 248.819692 
L 382.419349 247.809707 
L 383.777736 244.384951 
L 385.136123 254.299263 
L 386.494511 255.439733 
L 387.852898 268.627229 
L 387.852898 268.627229 
" clip-path="url(#pf3e78cee2e)" style="fill: none; stroke: #440154; stroke-width: 1.5; stroke-linecap: square"/>
   </g>
   <g id="line2d_16">
    <path d="M 63.198352 264.333421 
L 64.556739 244.515214 
L 65.915127 239.520481 
L 67.273514 241.737864 
L 68.631901 274.361414 
L 69.990288 243.444236 
L 71.348676 257.664131 
L 72.707063 231.373103 
L 74.06545 259.588621 
L 75.423837 240.087796 
L 76.782224 261.530059 
L 78.140612 266.952299 
L 79.498999 232.702782 
L 80.857386 259.932728 
L 82.215773 239.110394 
L 83.574161 252.224852 
L 84.932548 235.473331 
L 86.290935 264.517112 
L 87.649322 234.653736 
L 89.007709 240.202043 
L 90.366097 251.081743 
L 91.724484 252.757137 
L 93.082871 260.245493 
L 94.441258 229.77612 
L 95.799646 263.744797 
L 97.158033 250.471591 
L 98.51642 253.936642 
L 99.874807 233.074953 
L 101.233194 228.522092 
L 102.591582 243.915936 
L 103.949969 226.858602 
L 105.308356 215.542621 
L 106.666743 168.028544 
L 108.025131 152.342104 
L 109.383518 211.42388 
L 110.741905 223.285905 
L 112.100292 232.056592 
L 113.458679 234.103523 
L 114.817067 242.914202 
L 116.175454 265.510576 
L 117.533841 248.026614 
L 118.892228 251.52578 
L 120.250615 280.572949 
L 121.609003 249.361772 
L 122.96739 235.388993 
L 124.325777 244.103301 
L 125.684164 261.088568 
L 127.042552 234.745779 
L 128.400939 240.157889 
L 129.759326 246.238718 
L 131.117713 256.451569 
L 132.4761 242.811676 
L 133.834488 227.1187 
L 135.192875 240.910611 
L 136.551262 260.116244 
L 137.909649 247.329915 
L 139.268037 258.025344 
L 140.626424 225.85601 
L 141.984811 239.436647 
L 143.343198 230.224532 
L 144.701585 246.476237 
L 146.059973 246.539537 
L 147.41836 246.176606 
L 148.776747 248.689608 
L 150.135134 251.558892 
L 151.493522 251.052337 
L 152.851909 251.317804 
L 154.210296 261.693258 
L 155.568683 239.310734 
L 156.92707 255.551995 
L 158.285458 227.374179 
L 159.643845 216.55991 
L 161.002232 230.038892 
L 162.360619 216.688079 
L 163.719007 253.742565 
L 165.077394 242.2113 
L 166.435781 240.591095 
L 167.794168 225.125047 
L 169.152555 186.107258 
L 170.510943 181.552378 
L 171.86933 240.100276 
L 173.227717 212.034162 
L 174.586104 232.724264 
L 175.944491 234.205828 
L 177.302879 244.624074 
L 178.661266 229.894946 
L 180.019653 256.253938 
L 181.37804 262.517512 
L 182.736428 240.654742 
L 184.094815 207.806801 
L 185.453202 266.526927 
L 186.811589 239.628835 
L 188.169976 238.979951 
L 189.528364 252.205151 
L 190.886751 230.451233 
L 192.245138 236.563741 
L 194.961913 220.883886 
L 196.3203 206.851122 
L 197.678687 234.18394 
L 199.037074 227.968847 
L 200.395461 232.673756 
L 201.753849 235.250631 
L 203.112236 225.934895 
L 204.470623 248.080951 
L 205.82901 228.810075 
L 207.187398 223.255385 
L 208.545785 212.757117 
L 209.904172 206.709884 
L 211.262559 243.877831 
L 212.620946 222.591562 
L 213.979334 219.27075 
L 215.337721 219.663639 
L 216.696108 236.585835 
L 218.054495 200.561133 
L 219.412883 230.09997 
L 220.77127 211.136987 
L 222.129657 218.666581 
L 223.488044 202.684333 
L 224.846431 209.420552 
L 226.204819 213.705383 
L 227.563206 207.203979 
L 228.921593 211.053576 
L 230.27998 178.784011 
L 231.638367 242.762089 
L 234.355142 209.523125 
L 235.713529 238.939703 
L 237.071916 244.553552 
L 238.430304 258.467305 
L 239.788691 224.87301 
L 241.147078 213.636663 
L 242.505465 189.535225 
L 243.863852 196.599287 
L 245.22224 214.915856 
L 246.580627 228.119406 
L 247.939014 249.803349 
L 249.297401 235.081095 
L 250.655789 212.58144 
L 252.014176 170.055299 
L 253.372563 244.756899 
L 254.73095 197.454939 
L 256.089337 218.173644 
L 257.447725 226.784066 
L 258.806112 244.35724 
L 260.164499 191.550349 
L 261.522886 215.849721 
L 262.881274 180.120275 
L 264.239661 242.388943 
L 265.598048 239.992624 
L 266.956435 200.049027 
L 268.314822 172.00871 
L 269.67321 191.807659 
L 271.031597 220.612612 
L 272.389984 180.197284 
L 273.748371 164.88602 
L 275.106759 189.186067 
L 276.465146 219.445024 
L 277.823533 147.110404 
L 279.18192 171.637428 
L 280.540307 185.106466 
L 281.898695 120.585069 
L 283.257082 183.360579 
L 284.615469 144.770155 
L 285.973856 177.281943 
L 287.332243 158.224413 
L 288.690631 176.103493 
L 290.049018 134.553199 
L 291.407405 199.438602 
L 292.765792 104.2342 
L 294.12418 156.801838 
L 295.482567 172.988034 
L 296.840954 128.050094 
L 298.199341 126.928536 
L 299.557728 119.368849 
L 300.916116 100.79502 
L 302.274503 107.765841 
L 303.63289 93.751661 
L 304.991277 99.918818 
L 306.349665 134.020408 
L 307.708052 100.12052 
L 309.066439 158.434177 
L 310.424826 108.923543 
L 311.783213 143.168088 
L 313.141601 164.564705 
L 314.499988 177.74556 
L 315.858375 117.096607 
L 317.216762 76.656374 
L 318.57515 100.803133 
L 319.933537 139.106839 
L 321.291924 88.652633 
L 322.650311 71.6927 
L 324.008698 57.109663 
L 325.367086 76.376932 
L 326.725473 63.971465 
L 328.08386 64.959748 
L 329.442247 76.880614 
L 330.800635 58.582563 
L 332.159022 150.606479 
L 333.517409 66.589785 
L 334.875796 117.058435 
L 336.234183 57.705078 
L 337.592571 53.856 
L 338.950958 152.67276 
L 340.309345 110.338203 
L 341.667732 55.550867 
L 343.026119 66.16978 
L 344.384507 104.952568 
L 345.742894 176.506434 
L 347.101281 81.219449 
L 348.459668 192.771254 
L 349.818056 205.516516 
L 351.176443 118.042855 
L 352.53483 94.518225 
L 353.893217 91.71774 
L 355.251604 122.748036 
L 356.609992 87.343901 
L 357.968379 88.275363 
L 359.326766 200.85491 
L 360.685153 99.176514 
L 362.043541 162.620774 
L 363.401928 118.821734 
L 364.760315 113.98065 
L 366.118702 97.358824 
L 367.477089 107.092434 
L 368.835477 109.797926 
L 370.193864 95.269083 
L 371.552251 105.878518 
L 372.910638 139.695262 
L 374.269026 203.817231 
L 375.627413 194.93078 
L 376.9858 121.129631 
L 378.344187 149.848812 
L 379.702574 201.821236 
L 381.060962 145.4599 
L 382.419349 166.157458 
L 383.777736 104.197449 
L 385.136123 179.806286 
L 386.494511 182.773734 
L 387.852898 184.317156 
L 387.852898 184.317156 
" clip-path="url(#pf3e78cee2e)" style="fill: none; stroke: #fde725; stroke-width: 1.5; stroke-linecap: square"/>
   </g>
   <g id="patch_3">
    <path d="M 46.965625 307.872 
L 46.965625 41.76 
" style="fill: none; stroke: #000000; stroke-width: 0.8; stroke-linejoin: miter; stroke-linecap: square"/>
   </g>
   <g id="patch_4">
    <path d="M 404.085625 307.872 
L 404.085625 41.76 
" style="fill: none; stroke: #000000; stroke-width: 0.8; stroke-linejoin: miter; stroke-linecap: square"/>
   </g>
   <g id="patch_5">
    <path d="M 46.965625 307.872 
L 404.085625 307.872 
" style="fill: none; stroke: #000000; stroke-width: 0.8; stroke-linejoin: miter; stroke-linecap: square"/>
   </g>
   <g id="patch_6">
    <path d="M 46.965625 41.76 
L 404.085625 41.76 
" style="fill: none; stroke: #000000; stroke-width: 0.8; stroke-linejoin: miter; stroke-linecap: square"/>
   </g>
   <g id="legend_1">
    <g id="patch_7">
     <path d="M 423.941625 307.872 
L 717.31975 307.872 
Q 719.31975 307.872 719.31975 305.872 
L 719.31975 262.5595 
Q 719.31975 260.5595 717.31975 260.5595 
L 423.941625 260.5595 
Q 421.941625 260.5595 421.941625 262.5595 
L 421.941625 305.872 
Q 421.941625 307.872 423.941625 307.872 
z
" style="fill: #ffffff; opacity: 0.8; stroke: #cccccc; stroke-linejoin: miter"/>
    </g>
    <g id="text_18">
     <!-- q00 spec_mw Microwave-spectroscopy pulse amplitude () -->
     <g transform="translate(425.941625 272.157938) scale(0.1 -0.1)">
      <defs>
       <path id="DejaVuSans-5f" d="M 3263 -1063 
L 3263 -1509 
L -63 -1509 
L -63 -1063 
L 3263 -1063 
z
" transform="scale(0.015625)"/>
       <path id="DejaVuSans-6d" d="M 3328 2828 
Q 3544 3216 3844 3400 
Q 4144 3584 4550 3584 
Q 5097 3584 5394 3201 
Q 5691 2819 5691 2113 
L 5691 0 
L 5113 0 
L 5113 2094 
Q 5113 2597 4934 2840 
Q 4756 3084 4391 3084 
Q 3944 3084 3684 2787 
Q 3425 2491 3425 1978 
L 3425 0 
L 2847 0 
L 2847 2094 
Q 2847 2600 2669 2842 
Q 2491 3084 2119 3084 
Q 1678 3084 1418 2786 
Q 1159 2488 1159 1978 
L 1159 0 
L 581 0 
L 581 3500 
L 1159 3500 
L 1159 2956 
Q 1356 3278 1631 3431 
Q 1906 3584 2284 3584 
Q 2666 3584 2933 3390 
Q 3200 3197 3328 2828 
z
" transform="scale(0.015625)"/>
       <path id="DejaVuSans-77" d="M 269 3500 
L 844 3500 
L 1563 769 
L 2278 3500 
L 2956 3500 
L 3675 769 
L 4391 3500 
L 4966 3500 
L 4050 0 
L 3372 0 
L 2619 2869 
L 1863 0 
L 1184 0 
L 269 3500 
z
" transform="scale(0.015625)"/>
       <path id="DejaVuSans-69" d="M 603 3500 
L 1178 3500 
L 1178 0 
L 603 0 
L 603 3500 
z
M 603 4863 
L 1178 4863 
L 1178 4134 
L 603 4134 
L 603 4863 
z
" transform="scale(0.015625)"/>
       <path id="DejaVuSans-6f" d="M 1959 3097 
Q 1497 3097 1228 2736 
Q 959 2375 959 1747 
Q 959 1119 1226 758 
Q 1494 397 1959 397 
Q 2419 397 2687 759 
Q 2956 1122 2956 1747 
Q 2956 2369 2687 2733 
Q 2419 3097 1959 3097 
z
M 1959 3584 
Q 2709 3584 3137 3096 
Q 3566 2609 3566 1747 
Q 3566 888 3137 398 
Q 2709 -91 1959 -91 
Q 1206 -91 779 398 
Q 353 888 353 1747 
Q 353 2609 779 3096 
Q 1206 3584 1959 3584 
z
" transform="scale(0.015625)"/>
       <path id="DejaVuSans-76" d="M 191 3500 
L 800 3500 
L 1894 563 
L 2988 3500 
L 3597 3500 
L 2284 0 
L 1503 0 
L 191 3500 
z
" transform="scale(0.015625)"/>
       <path id="DejaVuSans-2d" d="M 313 2009 
L 1997 2009 
L 1997 1497 
L 313 1497 
L 313 2009 
z
" transform="scale(0.015625)"/>
       <path id="DejaVuSans-74" d="M 1172 4494 
L 1172 3500 
L 2356 3500 
L 2356 3053 
L 1172 3053 
L 1172 1153 
Q 1172 725 1289 603 
Q 1406 481 1766 481 
L 2356 481 
L 2356 0 
L 1766 0 
Q 1100 0 847 248 
Q 594 497 594 1153 
L 594 3053 
L 172 3053 
L 172 3500 
L 594 3500 
L 594 4494 
L 1172 4494 
z
" transform="scale(0.015625)"/>
       <path id="DejaVuSans-6c" d="M 603 4863 
L 1178 4863 
L 1178 0 
L 603 0 
L 603 4863 
z
" transform="scale(0.015625)"/>
       <path id="DejaVuSans-28" d="M 1984 4856 
Q 1566 4138 1362 3434 
Q 1159 2731 1159 2009 
Q 1159 1288 1364 580 
Q 1569 -128 1984 -844 
L 1484 -844 
Q 1016 -109 783 600 
Q 550 1309 550 2009 
Q 550 2706 781 3412 
Q 1013 4119 1484 4856 
L 1984 4856 
z
" transform="scale(0.015625)"/>
       <path id="DejaVuSans-29" d="M 513 4856 
L 1013 4856 
Q 1481 4119 1714 3412 
Q 1947 2706 1947 2009 
Q 1947 1309 1714 600 
Q 1481 -109 1013 -844 
L 513 -844 
Q 928 -128 1133 580 
Q 1338 1288 1338 2009 
Q 1338 2731 1133 3434 
Q 928 4138 513 4856 
z
" transform="scale(0.015625)"/>
      </defs>
      <use xlink:href="#DejaVuSans-71"/>
      <use xlink:href="#DejaVuSans-30" x="63.476562"/>
      <use xlink:href="#DejaVuSans-30" x="127.099609"/>
      <use xlink:href="#DejaVuSans-20" x="190.722656"/>
      <use xlink:href="#DejaVuSans-73" x="222.509766"/>
      <use xlink:href="#DejaVuSans-70" x="274.609375"/>
      <use xlink:href="#DejaVuSans-65" x="338.085938"/>
      <use xlink:href="#DejaVuSans-63" x="399.609375"/>
      <use xlink:href="#DejaVuSans-5f" x="454.589844"/>
      <use xlink:href="#DejaVuSans-6d" x="504.589844"/>
      <use xlink:href="#DejaVuSans-77" x="602.001953"/>
      <use xlink:href="#DejaVuSans-20" x="683.789062"/>
      <use xlink:href="#DejaVuSans-4d" x="715.576172"/>
      <use xlink:href="#DejaVuSans-69" x="801.855469"/>
      <use xlink:href="#DejaVuSans-63" x="829.638672"/>
      <use xlink:href="#DejaVuSans-72" x="884.619141"/>
      <use xlink:href="#DejaVuSans-6f" x="923.482422"/>
      <use xlink:href="#DejaVuSans-77" x="984.664062"/>
      <use xlink:href="#DejaVuSans-61" x="1066.451172"/>
      <use xlink:href="#DejaVuSans-76" x="1127.730469"/>
      <use xlink:href="#DejaVuSans-65" x="1186.910156"/>
      <use xlink:href="#DejaVuSans-2d" x="1248.433594"/>
      <use xlink:href="#DejaVuSans-73" x="1284.517578"/>
      <use xlink:href="#DejaVuSans-70" x="1336.617188"/>
      <use xlink:href="#DejaVuSans-65" x="1400.09375"/>
      <use xlink:href="#DejaVuSans-63" x="1461.617188"/>
      <use xlink:href="#DejaVuSans-74" x="1516.597656"/>
      <use xlink:href="#DejaVuSans-72" x="1555.806641"/>
      <use xlink:href="#DejaVuSans-6f" x="1594.669922"/>
      <use xlink:href="#DejaVuSans-73" x="1655.851562"/>
      <use xlink:href="#DejaVuSans-63" x="1707.951172"/>
      <use xlink:href="#DejaVuSans-6f" x="1762.931641"/>
      <use xlink:href="#DejaVuSans-70" x="1824.113281"/>
      <use xlink:href="#DejaVuSans-79" x="1887.589844"/>
      <use xlink:href="#DejaVuSans-20" x="1946.769531"/>
      <use xlink:href="#DejaVuSans-70" x="1978.556641"/>
      <use xlink:href="#DejaVuSans-75" x="2042.033203"/>
      <use xlink:href="#DejaVuSans-6c" x="2105.412109"/>
      <use xlink:href="#DejaVuSans-73" x="2133.195312"/>
      <use xlink:href="#DejaVuSans-65" x="2185.294922"/>
      <use xlink:href="#DejaVuSans-20" x="2246.818359"/>
      <use xlink:href="#DejaVuSans-61" x="2278.605469"/>
      <use xlink:href="#DejaVuSans-6d" x="2339.884766"/>
      <use xlink:href="#DejaVuSans-70" x="2437.296875"/>
      <use xlink:href="#DejaVuSans-6c" x="2500.773438"/>
      <use xlink:href="#DejaVuSans-69" x="2528.556641"/>
      <use xlink:href="#DejaVuSans-74" x="2556.339844"/>
      <use xlink:href="#DejaVuSans-75" x="2595.548828"/>
      <use xlink:href="#DejaVuSans-64" x="2658.927734"/>
      <use xlink:href="#DejaVuSans-65" x="2722.404297"/>
      <use xlink:href="#DejaVuSans-20" x="2783.927734"/>
      <use xlink:href="#DejaVuSans-28" x="2815.714844"/>
      <use xlink:href="#DejaVuSans-29" x="2854.728516"/>
     </g>
    </g>
    <g id="line2d_17">
     <path d="M 542.316625 283.614187 
L 552.316625 283.614187 
L 562.316625 283.614187 
" style="fill: none; stroke: #440154; stroke-width: 1.5; stroke-linecap: square"/>
    </g>
    <g id="text_19">
     <!-- 0.001 -->
     <g transform="translate(570.316625 287.114187) scale(0.1 -0.1)">
      <defs>
       <path id="DejaVuSans-2e" d="M 684 794 
L 1344 794 
L 1344 0 
L 684 0 
L 684 794 
z
" transform="scale(0.015625)"/>
      </defs>
      <use xlink:href="#DejaVuSans-30"/>
      <use xlink:href="#DejaVuSans-2e" x="63.623047"/>
      <use xlink:href="#DejaVuSans-30" x="95.410156"/>
      <use xlink:href="#DejaVuSans-30" x="159.033203"/>
      <use xlink:href="#DejaVuSans-31" x="222.65625"/>
     </g>
    </g>
    <g id="line2d_18">
     <path d="M 542.316625 298.292312 
L 552.316625 298.292312 
L 562.316625 298.292312 
" style="fill: none; stroke: #fde725; stroke-width: 1.5; stroke-linecap: square"/>
    </g>
    <g id="text_20">
     <!-- 0.081 -->
     <g transform="translate(570.316625 301.792312) scale(0.1 -0.1)">
      <use xlink:href="#DejaVuSans-30"/>
      <use xlink:href="#DejaVuSans-2e" x="63.623047"/>
      <use xlink:href="#DejaVuSans-30" x="95.410156"/>
      <use xlink:href="#DejaVuSans-38" x="159.033203"/>
      <use xlink:href="#DejaVuSans-31" x="222.65625"/>
     </g>
    </g>
   </g>
  </g>
  <g id="text_21">
   <!-- x0x1-y1 Pulsed spectroscopy vs power q00 -->
   <g transform="translate(90.053125 16.318125) scale(0.12 -0.12)">
    <defs>
     <path id="DejaVuSans-78" d="M 3513 3500 
L 2247 1797 
L 3578 0 
L 2900 0 
L 1881 1375 
L 863 0 
L 184 0 
L 1544 1831 
L 300 3500 
L 978 3500 
L 1906 2253 
L 2834 3500 
L 3513 3500 
z
" transform="scale(0.015625)"/>
    </defs>
    <use xlink:href="#DejaVuSans-78"/>
    <use xlink:href="#DejaVuSans-30" x="59.179688"/>
    <use xlink:href="#DejaVuSans-78" x="122.802734"/>
    <use xlink:href="#DejaVuSans-31" x="181.982422"/>
    <use xlink:href="#DejaVuSans-2d" x="245.605469"/>
    <use xlink:href="#DejaVuSans-79" x="279.939453"/>
    <use xlink:href="#DejaVuSans-31" x="339.119141"/>
    <use xlink:href="#DejaVuSans-20" x="402.742188"/>
    <use xlink:href="#DejaVuSans-50" x="434.529297"/>
    <use xlink:href="#DejaVuSans-75" x="493.082031"/>
    <use xlink:href="#DejaVuSans-6c" x="556.460938"/>
    <use xlink:href="#DejaVuSans-73" x="584.244141"/>
    <use xlink:href="#DejaVuSans-65" x="636.34375"/>
    <use xlink:href="#DejaVuSans-64" x="697.867188"/>
    <use xlink:href="#DejaVuSans-20" x="761.34375"/>
    <use xlink:href="#DejaVuSans-73" x="793.130859"/>
    <use xlink:href="#DejaVuSans-70" x="845.230469"/>
    <use xlink:href="#DejaVuSans-65" x="908.707031"/>
    <use xlink:href="#DejaVuSans-63" x="970.230469"/>
    <use xlink:href="#DejaVuSans-74" x="1025.210938"/>
    <use xlink:href="#DejaVuSans-72" x="1064.419922"/>
    <use xlink:href="#DejaVuSans-6f" x="1103.283203"/>
    <use xlink:href="#DejaVuSans-73" x="1164.464844"/>
    <use xlink:href="#DejaVuSans-63" x="1216.564453"/>
    <use xlink:href="#DejaVuSans-6f" x="1271.544922"/>
    <use xlink:href="#DejaVuSans-70" x="1332.726562"/>
    <use xlink:href="#DejaVuSans-79" x="1396.203125"/>
    <use xlink:href="#DejaVuSans-20" x="1455.382812"/>
    <use xlink:href="#DejaVuSans-76" x="1487.169922"/>
    <use xlink:href="#DejaVuSans-73" x="1546.349609"/>
    <use xlink:href="#DejaVuSans-20" x="1598.449219"/>
    <use xlink:href="#DejaVuSans-70" x="1630.236328"/>
    <use xlink:href="#DejaVuSans-6f" x="1693.712891"/>
    <use xlink:href="#DejaVuSans-77" x="1754.894531"/>
    <use xlink:href="#DejaVuSans-65" x="1836.681641"/>
    <use xlink:href="#DejaVuSans-72" x="1898.205078"/>
    <use xlink:href="#DejaVuSans-20" x="1939.318359"/>
    <use xlink:href="#DejaVuSans-71" x="1971.105469"/>
    <use xlink:href="#DejaVuSans-30" x="2034.582031"/>
    <use xlink:href="#DejaVuSans-30" x="2098.205078"/>
   </g>
   <!-- tuid: 20241114-112555-435-e6ae7a -->
   <g transform="translate(110.442813 29.7555) scale(0.12 -0.12)">
    <defs>
     <path id="DejaVuSans-3a" d="M 750 794 
L 1409 794 
L 1409 0 
L 750 0 
L 750 794 
z
M 750 3309 
L 1409 3309 
L 1409 2516 
L 750 2516 
L 750 3309 
z
" transform="scale(0.015625)"/>
     <path id="DejaVuSans-37" d="M 525 4666 
L 3525 4666 
L 3525 4397 
L 1831 0 
L 1172 0 
L 2766 4134 
L 525 4134 
L 525 4666 
z
" transform="scale(0.015625)"/>
    </defs>
    <use xlink:href="#DejaVuSans-74"/>
    <use xlink:href="#DejaVuSans-75" x="39.208984"/>
    <use xlink:href="#DejaVuSans-69" x="102.587891"/>
    <use xlink:href="#DejaVuSans-64" x="130.371094"/>
    <use xlink:href="#DejaVuSans-3a" x="193.847656"/>
    <use xlink:href="#DejaVuSans-20" x="227.539062"/>
    <use xlink:href="#DejaVuSans-32" x="259.326172"/>
    <use xlink:href="#DejaVuSans-30" x="322.949219"/>
    <use xlink:href="#DejaVuSans-32" x="386.572266"/>
    <use xlink:href="#DejaVuSans-34" x="450.195312"/>
    <use xlink:href="#DejaVuSans-31" x="513.818359"/>
    <use xlink:href="#DejaVuSans-31" x="577.441406"/>
    <use xlink:href="#DejaVuSans-31" x="641.064453"/>
    <use xlink:href="#DejaVuSans-34" x="704.6875"/>
    <use xlink:href="#DejaVuSans-2d" x="768.310547"/>
    <use xlink:href="#DejaVuSans-31" x="804.394531"/>
    <use xlink:href="#DejaVuSans-31" x="868.017578"/>
    <use xlink:href="#DejaVuSans-32" x="931.640625"/>
    <use xlink:href="#DejaVuSans-35" x="995.263672"/>
    <use xlink:href="#DejaVuSans-35" x="1058.886719"/>
    <use xlink:href="#DejaVuSans-35" x="1122.509766"/>
    <use xlink:href="#DejaVuSans-2d" x="1186.132812"/>
    <use xlink:href="#DejaVuSans-34" x="1222.216797"/>
    <use xlink:href="#DejaVuSans-33" x="1285.839844"/>
    <use xlink:href="#DejaVuSans-35" x="1349.462891"/>
    <use xlink:href="#DejaVuSans-2d" x="1413.085938"/>
    <use xlink:href="#DejaVuSans-65" x="1449.169922"/>
    <use xlink:href="#DejaVuSans-36" x="1510.693359"/>
    <use xlink:href="#DejaVuSans-61" x="1574.316406"/>
    <use xlink:href="#DejaVuSans-65" x="1635.595703"/>
    <use xlink:href="#DejaVuSans-37" x="1697.119141"/>
    <use xlink:href="#DejaVuSans-61" x="1760.742188"/>
   </g>
  </g>
 </g>
 <defs>
  <clipPath id="pf3e78cee2e">
   <rect x="46.965625" y="41.76" width="357.12" height="266.112"/>
  </clipPath>
 </defs>
</svg>
