<?xml version="1.0" encoding="utf-8" standalone="no"?>
<!DOCTYPE svg PUBLIC "-//W3C//DTD SVG 1.1//EN"
  "http://www.w3.org/Graphics/SVG/1.1/DTD/svg11.dtd">
<svg xmlns:xlink="http://www.w3.org/1999/xlink" width="600.516625pt" height="345.42825pt" viewBox="0 0 600.516625 345.42825" xmlns="http://www.w3.org/2000/svg" version="1.1">
 <metadata>
  <rdf:RDF xmlns:dc="http://purl.org/dc/elements/1.1/" xmlns:cc="http://creativecommons.org/ns#" xmlns:rdf="http://www.w3.org/1999/02/22-rdf-syntax-ns#">
   <cc:Work>
    <dc:type rdf:resource="http://purl.org/dc/dcmitype/StillImage"/>
    <dc:date>2024-11-14T11:24:01.322446</dc:date>
    <dc:format>image/svg+xml</dc:format>
    <dc:creator>
     <cc:Agent>
      <dc:title>Matplotlib v3.8.0, https://matplotlib.org/</dc:title>
     </cc:Agent>
    </dc:creator>
   </cc:Work>
  </rdf:RDF>
 </metadata>
 <defs>
  <style type="text/css">*{stroke-linejoin: round; stroke-linecap: butt}</style>
 </defs>
 <g id="figure_1">
  <g id="patch_1">
   <path d="M 0 345.42825 
L 600.516625 345.42825 
L 600.516625 -0 
L 0 -0 
L 0 345.42825 
z
" style="fill: none; opacity: 0"/>
  </g>
  <g id="axes_1">
   <g id="patch_2">
    <path d="M 43.78125 307.872 
L 400.90125 307.872 
L 400.90125 41.76 
L 43.78125 41.76 
z
" style="fill: #ffffff"/>
   </g>
   <g id="matplotlib.axis_1">
    <g id="xtick_1">
     <g id="line2d_1">
      <defs>
       <path id="mca99266cd1" d="M 0 0 
L 0 3.5 
" style="stroke: #000000; stroke-width: 0.8"/>
      </defs>
      <g>
       <use xlink:href="#mca99266cd1" x="46.7007" y="307.872" style="stroke: #000000; stroke-width: 0.8"/>
      </g>
     </g>
     <g id="text_1">
      <!-- 208 -->
      <g transform="translate(37.15695 322.470438) scale(0.1 -0.1)">
       <defs>
        <path id="DejaVuSans-32" d="M 1228 531 
L 3431 531 
L 3431 0 
L 469 0 
L 469 531 
Q 828 903 1448 1529 
Q 2069 2156 2228 2338 
Q 2531 2678 2651 2914 
Q 2772 3150 2772 3378 
Q 2772 3750 2511 3984 
Q 2250 4219 1831 4219 
Q 1534 4219 1204 4116 
Q 875 4013 500 3803 
L 500 4441 
Q 881 4594 1212 4672 
Q 1544 4750 1819 4750 
Q 2544 4750 2975 4387 
Q 3406 4025 3406 3419 
Q 3406 3131 3298 2873 
Q 3191 2616 2906 2266 
Q 2828 2175 2409 1742 
Q 1991 1309 1228 531 
z
" transform="scale(0.015625)"/>
        <path id="DejaVuSans-30" d="M 2034 4250 
Q 1547 4250 1301 3770 
Q 1056 3291 1056 2328 
Q 1056 1369 1301 889 
Q 1547 409 2034 409 
Q 2525 409 2770 889 
Q 3016 1369 3016 2328 
Q 3016 3291 2770 3770 
Q 2525 4250 2034 4250 
z
M 2034 4750 
Q 2819 4750 3233 4129 
Q 3647 3509 3647 2328 
Q 3647 1150 3233 529 
Q 2819 -91 2034 -91 
Q 1250 -91 836 529 
Q 422 1150 422 2328 
Q 422 3509 836 4129 
Q 1250 4750 2034 4750 
z
" transform="scale(0.015625)"/>
        <path id="DejaVuSans-38" d="M 2034 2216 
Q 1584 2216 1326 1975 
Q 1069 1734 1069 1313 
Q 1069 891 1326 650 
Q 1584 409 2034 409 
Q 2484 409 2743 651 
Q 3003 894 3003 1313 
Q 3003 1734 2745 1975 
Q 2488 2216 2034 2216 
z
M 1403 2484 
Q 997 2584 770 2862 
Q 544 3141 544 3541 
Q 544 4100 942 4425 
Q 1341 4750 2034 4750 
Q 2731 4750 3128 4425 
Q 3525 4100 3525 3541 
Q 3525 3141 3298 2862 
Q 3072 2584 2669 2484 
Q 3125 2378 3379 2068 
Q 3634 1759 3634 1313 
Q 3634 634 3220 271 
Q 2806 -91 2034 -91 
Q 1263 -91 848 271 
Q 434 634 434 1313 
Q 434 1759 690 2068 
Q 947 2378 1403 2484 
z
M 1172 3481 
Q 1172 3119 1398 2916 
Q 1625 2713 2034 2713 
Q 2441 2713 2670 2916 
Q 2900 3119 2900 3481 
Q 2900 3844 2670 4047 
Q 2441 4250 2034 4250 
Q 1625 4250 1398 4047 
Q 1172 3844 1172 3481 
z
" transform="scale(0.015625)"/>
       </defs>
       <use xlink:href="#DejaVuSans-32"/>
       <use xlink:href="#DejaVuSans-30" x="63.623047"/>
       <use xlink:href="#DejaVuSans-38" x="127.246094"/>
      </g>
     </g>
    </g>
    <g id="xtick_2">
     <g id="line2d_2">
      <g>
       <use xlink:href="#mca99266cd1" x="87.384227" y="307.872" style="stroke: #000000; stroke-width: 0.8"/>
      </g>
     </g>
     <g id="text_2">
      <!-- 209 -->
      <g transform="translate(77.840477 322.470438) scale(0.1 -0.1)">
       <defs>
        <path id="DejaVuSans-39" d="M 703 97 
L 703 672 
Q 941 559 1184 500 
Q 1428 441 1663 441 
Q 2288 441 2617 861 
Q 2947 1281 2994 2138 
Q 2813 1869 2534 1725 
Q 2256 1581 1919 1581 
Q 1219 1581 811 2004 
Q 403 2428 403 3163 
Q 403 3881 828 4315 
Q 1253 4750 1959 4750 
Q 2769 4750 3195 4129 
Q 3622 3509 3622 2328 
Q 3622 1225 3098 567 
Q 2575 -91 1691 -91 
Q 1453 -91 1209 -44 
Q 966 3 703 97 
z
M 1959 2075 
Q 2384 2075 2632 2365 
Q 2881 2656 2881 3163 
Q 2881 3666 2632 3958 
Q 2384 4250 1959 4250 
Q 1534 4250 1286 3958 
Q 1038 3666 1038 3163 
Q 1038 2656 1286 2365 
Q 1534 2075 1959 2075 
z
" transform="scale(0.015625)"/>
       </defs>
       <use xlink:href="#DejaVuSans-32"/>
       <use xlink:href="#DejaVuSans-30" x="63.623047"/>
       <use xlink:href="#DejaVuSans-39" x="127.246094"/>
      </g>
     </g>
    </g>
    <g id="xtick_3">
     <g id="line2d_3">
      <g>
       <use xlink:href="#mca99266cd1" x="128.067754" y="307.872" style="stroke: #000000; stroke-width: 0.8"/>
      </g>
     </g>
     <g id="text_3">
      <!-- 210 -->
      <g transform="translate(118.524004 322.470438) scale(0.1 -0.1)">
       <defs>
        <path id="DejaVuSans-31" d="M 794 531 
L 1825 531 
L 1825 4091 
L 703 3866 
L 703 4441 
L 1819 4666 
L 2450 4666 
L 2450 531 
L 3481 531 
L 3481 0 
L 794 0 
L 794 531 
z
" transform="scale(0.015625)"/>
       </defs>
       <use xlink:href="#DejaVuSans-32"/>
       <use xlink:href="#DejaVuSans-31" x="63.623047"/>
       <use xlink:href="#DejaVuSans-30" x="127.246094"/>
      </g>
     </g>
    </g>
    <g id="xtick_4">
     <g id="line2d_4">
      <g>
       <use xlink:href="#mca99266cd1" x="168.751281" y="307.872" style="stroke: #000000; stroke-width: 0.8"/>
      </g>
     </g>
     <g id="text_4">
      <!-- 211 -->
      <g transform="translate(159.207531 322.470438) scale(0.1 -0.1)">
       <use xlink:href="#DejaVuSans-32"/>
       <use xlink:href="#DejaVuSans-31" x="63.623047"/>
       <use xlink:href="#DejaVuSans-31" x="127.246094"/>
      </g>
     </g>
    </g>
    <g id="xtick_5">
     <g id="line2d_5">
      <g>
       <use xlink:href="#mca99266cd1" x="209.434808" y="307.872" style="stroke: #000000; stroke-width: 0.8"/>
      </g>
     </g>
     <g id="text_5">
      <!-- 212 -->
      <g transform="translate(199.891058 322.470438) scale(0.1 -0.1)">
       <use xlink:href="#DejaVuSans-32"/>
       <use xlink:href="#DejaVuSans-31" x="63.623047"/>
       <use xlink:href="#DejaVuSans-32" x="127.246094"/>
      </g>
     </g>
    </g>
    <g id="xtick_6">
     <g id="line2d_6">
      <g>
       <use xlink:href="#mca99266cd1" x="250.118335" y="307.872" style="stroke: #000000; stroke-width: 0.8"/>
      </g>
     </g>
     <g id="text_6">
      <!-- 213 -->
      <g transform="translate(240.574585 322.470438) scale(0.1 -0.1)">
       <defs>
        <path id="DejaVuSans-33" d="M 2597 2516 
Q 3050 2419 3304 2112 
Q 3559 1806 3559 1356 
Q 3559 666 3084 287 
Q 2609 -91 1734 -91 
Q 1441 -91 1130 -33 
Q 819 25 488 141 
L 488 750 
Q 750 597 1062 519 
Q 1375 441 1716 441 
Q 2309 441 2620 675 
Q 2931 909 2931 1356 
Q 2931 1769 2642 2001 
Q 2353 2234 1838 2234 
L 1294 2234 
L 1294 2753 
L 1863 2753 
Q 2328 2753 2575 2939 
Q 2822 3125 2822 3475 
Q 2822 3834 2567 4026 
Q 2313 4219 1838 4219 
Q 1578 4219 1281 4162 
Q 984 4106 628 3988 
L 628 4550 
Q 988 4650 1302 4700 
Q 1616 4750 1894 4750 
Q 2613 4750 3031 4423 
Q 3450 4097 3450 3541 
Q 3450 3153 3228 2886 
Q 3006 2619 2597 2516 
z
" transform="scale(0.015625)"/>
       </defs>
       <use xlink:href="#DejaVuSans-32"/>
       <use xlink:href="#DejaVuSans-31" x="63.623047"/>
       <use xlink:href="#DejaVuSans-33" x="127.246094"/>
      </g>
     </g>
    </g>
    <g id="xtick_7">
     <g id="line2d_7">
      <g>
       <use xlink:href="#mca99266cd1" x="290.801862" y="307.872" style="stroke: #000000; stroke-width: 0.8"/>
      </g>
     </g>
     <g id="text_7">
      <!-- 214 -->
      <g transform="translate(281.258112 322.470438) scale(0.1 -0.1)">
       <defs>
        <path id="DejaVuSans-34" d="M 2419 4116 
L 825 1625 
L 2419 1625 
L 2419 4116 
z
M 2253 4666 
L 3047 4666 
L 3047 1625 
L 3713 1625 
L 3713 1100 
L 3047 1100 
L 3047 0 
L 2419 0 
L 2419 1100 
L 313 1100 
L 313 1709 
L 2253 4666 
z
" transform="scale(0.015625)"/>
       </defs>
       <use xlink:href="#DejaVuSans-32"/>
       <use xlink:href="#DejaVuSans-31" x="63.623047"/>
       <use xlink:href="#DejaVuSans-34" x="127.246094"/>
      </g>
     </g>
    </g>
    <g id="xtick_8">
     <g id="line2d_8">
      <g>
       <use xlink:href="#mca99266cd1" x="331.485389" y="307.872" style="stroke: #000000; stroke-width: 0.8"/>
      </g>
     </g>
     <g id="text_8">
      <!-- 215 -->
      <g transform="translate(321.941639 322.470438) scale(0.1 -0.1)">
       <defs>
        <path id="DejaVuSans-35" d="M 691 4666 
L 3169 4666 
L 3169 4134 
L 1269 4134 
L 1269 2991 
Q 1406 3038 1543 3061 
Q 1681 3084 1819 3084 
Q 2600 3084 3056 2656 
Q 3513 2228 3513 1497 
Q 3513 744 3044 326 
Q 2575 -91 1722 -91 
Q 1428 -91 1123 -41 
Q 819 9 494 109 
L 494 744 
Q 775 591 1075 516 
Q 1375 441 1709 441 
Q 2250 441 2565 725 
Q 2881 1009 2881 1497 
Q 2881 1984 2565 2268 
Q 2250 2553 1709 2553 
Q 1456 2553 1204 2497 
Q 953 2441 691 2322 
L 691 4666 
z
" transform="scale(0.015625)"/>
       </defs>
       <use xlink:href="#DejaVuSans-32"/>
       <use xlink:href="#DejaVuSans-31" x="63.623047"/>
       <use xlink:href="#DejaVuSans-35" x="127.246094"/>
      </g>
     </g>
    </g>
    <g id="xtick_9">
     <g id="line2d_9">
      <g>
       <use xlink:href="#mca99266cd1" x="372.168916" y="307.872" style="stroke: #000000; stroke-width: 0.8"/>
      </g>
     </g>
     <g id="text_9">
      <!-- 216 -->
      <g transform="translate(362.625166 322.470438) scale(0.1 -0.1)">
       <defs>
        <path id="DejaVuSans-36" d="M 2113 2584 
Q 1688 2584 1439 2293 
Q 1191 2003 1191 1497 
Q 1191 994 1439 701 
Q 1688 409 2113 409 
Q 2538 409 2786 701 
Q 3034 994 3034 1497 
Q 3034 2003 2786 2293 
Q 2538 2584 2113 2584 
z
M 3366 4563 
L 3366 3988 
Q 3128 4100 2886 4159 
Q 2644 4219 2406 4219 
Q 1781 4219 1451 3797 
Q 1122 3375 1075 2522 
Q 1259 2794 1537 2939 
Q 1816 3084 2150 3084 
Q 2853 3084 3261 2657 
Q 3669 2231 3669 1497 
Q 3669 778 3244 343 
Q 2819 -91 2113 -91 
Q 1303 -91 875 529 
Q 447 1150 447 2328 
Q 447 3434 972 4092 
Q 1497 4750 2381 4750 
Q 2619 4750 2861 4703 
Q 3103 4656 3366 4563 
z
" transform="scale(0.015625)"/>
       </defs>
       <use xlink:href="#DejaVuSans-32"/>
       <use xlink:href="#DejaVuSans-31" x="63.623047"/>
       <use xlink:href="#DejaVuSans-36" x="127.246094"/>
      </g>
     </g>
    </g>
    <g id="text_10">
     <!-- Spec frequency [MHz] -->
     <g transform="translate(167.312344 336.148562) scale(0.1 -0.1)">
      <defs>
       <path id="DejaVuSans-53" d="M 3425 4513 
L 3425 3897 
Q 3066 4069 2747 4153 
Q 2428 4238 2131 4238 
Q 1616 4238 1336 4038 
Q 1056 3838 1056 3469 
Q 1056 3159 1242 3001 
Q 1428 2844 1947 2747 
L 2328 2669 
Q 3034 2534 3370 2195 
Q 3706 1856 3706 1288 
Q 3706 609 3251 259 
Q 2797 -91 1919 -91 
Q 1588 -91 1214 -16 
Q 841 59 441 206 
L 441 856 
Q 825 641 1194 531 
Q 1563 422 1919 422 
Q 2459 422 2753 634 
Q 3047 847 3047 1241 
Q 3047 1584 2836 1778 
Q 2625 1972 2144 2069 
L 1759 2144 
Q 1053 2284 737 2584 
Q 422 2884 422 3419 
Q 422 4038 858 4394 
Q 1294 4750 2059 4750 
Q 2388 4750 2728 4690 
Q 3069 4631 3425 4513 
z
" transform="scale(0.015625)"/>
       <path id="DejaVuSans-70" d="M 1159 525 
L 1159 -1331 
L 581 -1331 
L 581 3500 
L 1159 3500 
L 1159 2969 
Q 1341 3281 1617 3432 
Q 1894 3584 2278 3584 
Q 2916 3584 3314 3078 
Q 3713 2572 3713 1747 
Q 3713 922 3314 415 
Q 2916 -91 2278 -91 
Q 1894 -91 1617 61 
Q 1341 213 1159 525 
z
M 3116 1747 
Q 3116 2381 2855 2742 
Q 2594 3103 2138 3103 
Q 1681 3103 1420 2742 
Q 1159 2381 1159 1747 
Q 1159 1113 1420 752 
Q 1681 391 2138 391 
Q 2594 391 2855 752 
Q 3116 1113 3116 1747 
z
" transform="scale(0.015625)"/>
       <path id="DejaVuSans-65" d="M 3597 1894 
L 3597 1613 
L 953 1613 
Q 991 1019 1311 708 
Q 1631 397 2203 397 
Q 2534 397 2845 478 
Q 3156 559 3463 722 
L 3463 178 
Q 3153 47 2828 -22 
Q 2503 -91 2169 -91 
Q 1331 -91 842 396 
Q 353 884 353 1716 
Q 353 2575 817 3079 
Q 1281 3584 2069 3584 
Q 2775 3584 3186 3129 
Q 3597 2675 3597 1894 
z
M 3022 2063 
Q 3016 2534 2758 2815 
Q 2500 3097 2075 3097 
Q 1594 3097 1305 2825 
Q 1016 2553 972 2059 
L 3022 2063 
z
" transform="scale(0.015625)"/>
       <path id="DejaVuSans-63" d="M 3122 3366 
L 3122 2828 
Q 2878 2963 2633 3030 
Q 2388 3097 2138 3097 
Q 1578 3097 1268 2742 
Q 959 2388 959 1747 
Q 959 1106 1268 751 
Q 1578 397 2138 397 
Q 2388 397 2633 464 
Q 2878 531 3122 666 
L 3122 134 
Q 2881 22 2623 -34 
Q 2366 -91 2075 -91 
Q 1284 -91 818 406 
Q 353 903 353 1747 
Q 353 2603 823 3093 
Q 1294 3584 2113 3584 
Q 2378 3584 2631 3529 
Q 2884 3475 3122 3366 
z
" transform="scale(0.015625)"/>
       <path id="DejaVuSans-20" transform="scale(0.015625)"/>
       <path id="DejaVuSans-66" d="M 2375 4863 
L 2375 4384 
L 1825 4384 
Q 1516 4384 1395 4259 
Q 1275 4134 1275 3809 
L 1275 3500 
L 2222 3500 
L 2222 3053 
L 1275 3053 
L 1275 0 
L 697 0 
L 697 3053 
L 147 3053 
L 147 3500 
L 697 3500 
L 697 3744 
Q 697 4328 969 4595 
Q 1241 4863 1831 4863 
L 2375 4863 
z
" transform="scale(0.015625)"/>
       <path id="DejaVuSans-72" d="M 2631 2963 
Q 2534 3019 2420 3045 
Q 2306 3072 2169 3072 
Q 1681 3072 1420 2755 
Q 1159 2438 1159 1844 
L 1159 0 
L 581 0 
L 581 3500 
L 1159 3500 
L 1159 2956 
Q 1341 3275 1631 3429 
Q 1922 3584 2338 3584 
Q 2397 3584 2469 3576 
Q 2541 3569 2628 3553 
L 2631 2963 
z
" transform="scale(0.015625)"/>
       <path id="DejaVuSans-71" d="M 947 1747 
Q 947 1113 1208 752 
Q 1469 391 1925 391 
Q 2381 391 2643 752 
Q 2906 1113 2906 1747 
Q 2906 2381 2643 2742 
Q 2381 3103 1925 3103 
Q 1469 3103 1208 2742 
Q 947 2381 947 1747 
z
M 2906 525 
Q 2725 213 2448 61 
Q 2172 -91 1784 -91 
Q 1150 -91 751 415 
Q 353 922 353 1747 
Q 353 2572 751 3078 
Q 1150 3584 1784 3584 
Q 2172 3584 2448 3432 
Q 2725 3281 2906 2969 
L 2906 3500 
L 3481 3500 
L 3481 -1331 
L 2906 -1331 
L 2906 525 
z
" transform="scale(0.015625)"/>
       <path id="DejaVuSans-75" d="M 544 1381 
L 544 3500 
L 1119 3500 
L 1119 1403 
Q 1119 906 1312 657 
Q 1506 409 1894 409 
Q 2359 409 2629 706 
Q 2900 1003 2900 1516 
L 2900 3500 
L 3475 3500 
L 3475 0 
L 2900 0 
L 2900 538 
Q 2691 219 2414 64 
Q 2138 -91 1772 -91 
Q 1169 -91 856 284 
Q 544 659 544 1381 
z
M 1991 3584 
L 1991 3584 
z
" transform="scale(0.015625)"/>
       <path id="DejaVuSans-6e" d="M 3513 2113 
L 3513 0 
L 2938 0 
L 2938 2094 
Q 2938 2591 2744 2837 
Q 2550 3084 2163 3084 
Q 1697 3084 1428 2787 
Q 1159 2491 1159 1978 
L 1159 0 
L 581 0 
L 581 3500 
L 1159 3500 
L 1159 2956 
Q 1366 3272 1645 3428 
Q 1925 3584 2291 3584 
Q 2894 3584 3203 3211 
Q 3513 2838 3513 2113 
z
" transform="scale(0.015625)"/>
       <path id="DejaVuSans-79" d="M 2059 -325 
Q 1816 -950 1584 -1140 
Q 1353 -1331 966 -1331 
L 506 -1331 
L 506 -850 
L 844 -850 
Q 1081 -850 1212 -737 
Q 1344 -625 1503 -206 
L 1606 56 
L 191 3500 
L 800 3500 
L 1894 763 
L 2988 3500 
L 3597 3500 
L 2059 -325 
z
" transform="scale(0.015625)"/>
       <path id="DejaVuSans-5b" d="M 550 4863 
L 1875 4863 
L 1875 4416 
L 1125 4416 
L 1125 -397 
L 1875 -397 
L 1875 -844 
L 550 -844 
L 550 4863 
z
" transform="scale(0.015625)"/>
       <path id="DejaVuSans-4d" d="M 628 4666 
L 1569 4666 
L 2759 1491 
L 3956 4666 
L 4897 4666 
L 4897 0 
L 4281 0 
L 4281 4097 
L 3078 897 
L 2444 897 
L 1241 4097 
L 1241 0 
L 628 0 
L 628 4666 
z
" transform="scale(0.015625)"/>
       <path id="DejaVuSans-48" d="M 628 4666 
L 1259 4666 
L 1259 2753 
L 3553 2753 
L 3553 4666 
L 4184 4666 
L 4184 0 
L 3553 0 
L 3553 2222 
L 1259 2222 
L 1259 0 
L 628 0 
L 628 4666 
z
" transform="scale(0.015625)"/>
       <path id="DejaVuSans-7a" d="M 353 3500 
L 3084 3500 
L 3084 2975 
L 922 459 
L 3084 459 
L 3084 0 
L 275 0 
L 275 525 
L 2438 3041 
L 353 3041 
L 353 3500 
z
" transform="scale(0.015625)"/>
       <path id="DejaVuSans-5d" d="M 1947 4863 
L 1947 -844 
L 622 -844 
L 622 -397 
L 1369 -397 
L 1369 4416 
L 622 4416 
L 622 4863 
L 1947 4863 
z
" transform="scale(0.015625)"/>
      </defs>
      <use xlink:href="#DejaVuSans-53"/>
      <use xlink:href="#DejaVuSans-70" x="63.476562"/>
      <use xlink:href="#DejaVuSans-65" x="126.953125"/>
      <use xlink:href="#DejaVuSans-63" x="188.476562"/>
      <use xlink:href="#DejaVuSans-20" x="243.457031"/>
      <use xlink:href="#DejaVuSans-66" x="275.244141"/>
      <use xlink:href="#DejaVuSans-72" x="310.449219"/>
      <use xlink:href="#DejaVuSans-65" x="349.3125"/>
      <use xlink:href="#DejaVuSans-71" x="410.835938"/>
      <use xlink:href="#DejaVuSans-75" x="474.3125"/>
      <use xlink:href="#DejaVuSans-65" x="537.691406"/>
      <use xlink:href="#DejaVuSans-6e" x="599.214844"/>
      <use xlink:href="#DejaVuSans-63" x="662.59375"/>
      <use xlink:href="#DejaVuSans-79" x="717.574219"/>
      <use xlink:href="#DejaVuSans-20" x="776.753906"/>
      <use xlink:href="#DejaVuSans-5b" x="808.541016"/>
      <use xlink:href="#DejaVuSans-4d" x="847.554688"/>
      <use xlink:href="#DejaVuSans-48" x="933.833984"/>
      <use xlink:href="#DejaVuSans-7a" x="1009.029297"/>
      <use xlink:href="#DejaVuSans-5d" x="1061.519531"/>
     </g>
    </g>
    <g id="text_11">
     <!-- +5 GHz -->
     <g transform="translate(362.46375 335.148562) scale(0.1 -0.1)">
      <defs>
       <path id="DejaVuSans-2b" d="M 2944 4013 
L 2944 2272 
L 4684 2272 
L 4684 1741 
L 2944 1741 
L 2944 0 
L 2419 0 
L 2419 1741 
L 678 1741 
L 678 2272 
L 2419 2272 
L 2419 4013 
L 2944 4013 
z
" transform="scale(0.015625)"/>
       <path id="DejaVuSans-47" d="M 3809 666 
L 3809 1919 
L 2778 1919 
L 2778 2438 
L 4434 2438 
L 4434 434 
Q 4069 175 3628 42 
Q 3188 -91 2688 -91 
Q 1594 -91 976 548 
Q 359 1188 359 2328 
Q 359 3472 976 4111 
Q 1594 4750 2688 4750 
Q 3144 4750 3555 4637 
Q 3966 4525 4313 4306 
L 4313 3634 
Q 3963 3931 3569 4081 
Q 3175 4231 2741 4231 
Q 1884 4231 1454 3753 
Q 1025 3275 1025 2328 
Q 1025 1384 1454 906 
Q 1884 428 2741 428 
Q 3075 428 3337 486 
Q 3600 544 3809 666 
z
" transform="scale(0.015625)"/>
      </defs>
      <use xlink:href="#DejaVuSans-2b"/>
      <use xlink:href="#DejaVuSans-35" x="83.789062"/>
      <use xlink:href="#DejaVuSans-20" x="147.412109"/>
      <use xlink:href="#DejaVuSans-47" x="179.199219"/>
      <use xlink:href="#DejaVuSans-48" x="256.689453"/>
      <use xlink:href="#DejaVuSans-7a" x="331.884766"/>
     </g>
    </g>
   </g>
   <g id="matplotlib.axis_2">
    <g id="ytick_1">
     <g id="line2d_10">
      <defs>
       <path id="mcdc992d2e0" d="M 0 0 
L -3.5 0 
" style="stroke: #000000; stroke-width: 0.8"/>
      </defs>
      <g>
       <use xlink:href="#mcdc992d2e0" x="43.78125" y="279.102357" style="stroke: #000000; stroke-width: 0.8"/>
      </g>
     </g>
     <g id="text_12">
      <!-- 2 -->
      <g transform="translate(30.41875 282.901576) scale(0.1 -0.1)">
       <use xlink:href="#DejaVuSans-32"/>
      </g>
     </g>
    </g>
    <g id="ytick_2">
     <g id="line2d_11">
      <g>
       <use xlink:href="#mcdc992d2e0" x="43.78125" y="243.36959" style="stroke: #000000; stroke-width: 0.8"/>
      </g>
     </g>
     <g id="text_13">
      <!-- 2.5 -->
      <g transform="translate(20.878125 247.168809) scale(0.1 -0.1)">
       <defs>
        <path id="DejaVuSans-2e" d="M 684 794 
L 1344 794 
L 1344 0 
L 684 0 
L 684 794 
z
" transform="scale(0.015625)"/>
       </defs>
       <use xlink:href="#DejaVuSans-32"/>
       <use xlink:href="#DejaVuSans-2e" x="63.623047"/>
       <use xlink:href="#DejaVuSans-35" x="95.410156"/>
      </g>
     </g>
    </g>
    <g id="ytick_3">
     <g id="line2d_12">
      <g>
       <use xlink:href="#mcdc992d2e0" x="43.78125" y="207.636823" style="stroke: #000000; stroke-width: 0.8"/>
      </g>
     </g>
     <g id="text_14">
      <!-- 3 -->
      <g transform="translate(30.41875 211.436042) scale(0.1 -0.1)">
       <use xlink:href="#DejaVuSans-33"/>
      </g>
     </g>
    </g>
    <g id="ytick_4">
     <g id="line2d_13">
      <g>
       <use xlink:href="#mcdc992d2e0" x="43.78125" y="171.904056" style="stroke: #000000; stroke-width: 0.8"/>
      </g>
     </g>
     <g id="text_15">
      <!-- 3.5 -->
      <g transform="translate(20.878125 175.703275) scale(0.1 -0.1)">
       <use xlink:href="#DejaVuSans-33"/>
       <use xlink:href="#DejaVuSans-2e" x="63.623047"/>
       <use xlink:href="#DejaVuSans-35" x="95.410156"/>
      </g>
     </g>
    </g>
    <g id="ytick_5">
     <g id="line2d_14">
      <g>
       <use xlink:href="#mcdc992d2e0" x="43.78125" y="136.171289" style="stroke: #000000; stroke-width: 0.8"/>
      </g>
     </g>
     <g id="text_16">
      <!-- 4 -->
      <g transform="translate(30.41875 139.970508) scale(0.1 -0.1)">
       <use xlink:href="#DejaVuSans-34"/>
      </g>
     </g>
    </g>
    <g id="ytick_6">
     <g id="line2d_15">
      <g>
       <use xlink:href="#mcdc992d2e0" x="43.78125" y="100.438522" style="stroke: #000000; stroke-width: 0.8"/>
      </g>
     </g>
     <g id="text_17">
      <!-- 4.5 -->
      <g transform="translate(20.878125 104.237741) scale(0.1 -0.1)">
       <use xlink:href="#DejaVuSans-34"/>
       <use xlink:href="#DejaVuSans-2e" x="63.623047"/>
       <use xlink:href="#DejaVuSans-35" x="95.410156"/>
      </g>
     </g>
    </g>
    <g id="ytick_7">
     <g id="line2d_16">
      <g>
       <use xlink:href="#mcdc992d2e0" x="43.78125" y="64.705755" style="stroke: #000000; stroke-width: 0.8"/>
      </g>
     </g>
     <g id="text_18">
      <!-- 5 -->
      <g transform="translate(30.41875 68.504974) scale(0.1 -0.1)">
       <use xlink:href="#DejaVuSans-35"/>
      </g>
     </g>
    </g>
    <g id="text_19">
     <!-- Output voltage [mV] -->
     <g transform="translate(14.798438 226.237094) rotate(-90) scale(0.1 -0.1)">
      <defs>
       <path id="DejaVuSans-4f" d="M 2522 4238 
Q 1834 4238 1429 3725 
Q 1025 3213 1025 2328 
Q 1025 1447 1429 934 
Q 1834 422 2522 422 
Q 3209 422 3611 934 
Q 4013 1447 4013 2328 
Q 4013 3213 3611 3725 
Q 3209 4238 2522 4238 
z
M 2522 4750 
Q 3503 4750 4090 4092 
Q 4678 3434 4678 2328 
Q 4678 1225 4090 567 
Q 3503 -91 2522 -91 
Q 1538 -91 948 565 
Q 359 1222 359 2328 
Q 359 3434 948 4092 
Q 1538 4750 2522 4750 
z
" transform="scale(0.015625)"/>
       <path id="DejaVuSans-74" d="M 1172 4494 
L 1172 3500 
L 2356 3500 
L 2356 3053 
L 1172 3053 
L 1172 1153 
Q 1172 725 1289 603 
Q 1406 481 1766 481 
L 2356 481 
L 2356 0 
L 1766 0 
Q 1100 0 847 248 
Q 594 497 594 1153 
L 594 3053 
L 172 3053 
L 172 3500 
L 594 3500 
L 594 4494 
L 1172 4494 
z
" transform="scale(0.015625)"/>
       <path id="DejaVuSans-76" d="M 191 3500 
L 800 3500 
L 1894 563 
L 2988 3500 
L 3597 3500 
L 2284 0 
L 1503 0 
L 191 3500 
z
" transform="scale(0.015625)"/>
       <path id="DejaVuSans-6f" d="M 1959 3097 
Q 1497 3097 1228 2736 
Q 959 2375 959 1747 
Q 959 1119 1226 758 
Q 1494 397 1959 397 
Q 2419 397 2687 759 
Q 2956 1122 2956 1747 
Q 2956 2369 2687 2733 
Q 2419 3097 1959 3097 
z
M 1959 3584 
Q 2709 3584 3137 3096 
Q 3566 2609 3566 1747 
Q 3566 888 3137 398 
Q 2709 -91 1959 -91 
Q 1206 -91 779 398 
Q 353 888 353 1747 
Q 353 2609 779 3096 
Q 1206 3584 1959 3584 
z
" transform="scale(0.015625)"/>
       <path id="DejaVuSans-6c" d="M 603 4863 
L 1178 4863 
L 1178 0 
L 603 0 
L 603 4863 
z
" transform="scale(0.015625)"/>
       <path id="DejaVuSans-61" d="M 2194 1759 
Q 1497 1759 1228 1600 
Q 959 1441 959 1056 
Q 959 750 1161 570 
Q 1363 391 1709 391 
Q 2188 391 2477 730 
Q 2766 1069 2766 1631 
L 2766 1759 
L 2194 1759 
z
M 3341 1997 
L 3341 0 
L 2766 0 
L 2766 531 
Q 2569 213 2275 61 
Q 1981 -91 1556 -91 
Q 1019 -91 701 211 
Q 384 513 384 1019 
Q 384 1609 779 1909 
Q 1175 2209 1959 2209 
L 2766 2209 
L 2766 2266 
Q 2766 2663 2505 2880 
Q 2244 3097 1772 3097 
Q 1472 3097 1187 3025 
Q 903 2953 641 2809 
L 641 3341 
Q 956 3463 1253 3523 
Q 1550 3584 1831 3584 
Q 2591 3584 2966 3190 
Q 3341 2797 3341 1997 
z
" transform="scale(0.015625)"/>
       <path id="DejaVuSans-67" d="M 2906 1791 
Q 2906 2416 2648 2759 
Q 2391 3103 1925 3103 
Q 1463 3103 1205 2759 
Q 947 2416 947 1791 
Q 947 1169 1205 825 
Q 1463 481 1925 481 
Q 2391 481 2648 825 
Q 2906 1169 2906 1791 
z
M 3481 434 
Q 3481 -459 3084 -895 
Q 2688 -1331 1869 -1331 
Q 1566 -1331 1297 -1286 
Q 1028 -1241 775 -1147 
L 775 -588 
Q 1028 -725 1275 -790 
Q 1522 -856 1778 -856 
Q 2344 -856 2625 -561 
Q 2906 -266 2906 331 
L 2906 616 
Q 2728 306 2450 153 
Q 2172 0 1784 0 
Q 1141 0 747 490 
Q 353 981 353 1791 
Q 353 2603 747 3093 
Q 1141 3584 1784 3584 
Q 2172 3584 2450 3431 
Q 2728 3278 2906 2969 
L 2906 3500 
L 3481 3500 
L 3481 434 
z
" transform="scale(0.015625)"/>
       <path id="DejaVuSans-6d" d="M 3328 2828 
Q 3544 3216 3844 3400 
Q 4144 3584 4550 3584 
Q 5097 3584 5394 3201 
Q 5691 2819 5691 2113 
L 5691 0 
L 5113 0 
L 5113 2094 
Q 5113 2597 4934 2840 
Q 4756 3084 4391 3084 
Q 3944 3084 3684 2787 
Q 3425 2491 3425 1978 
L 3425 0 
L 2847 0 
L 2847 2094 
Q 2847 2600 2669 2842 
Q 2491 3084 2119 3084 
Q 1678 3084 1418 2786 
Q 1159 2488 1159 1978 
L 1159 0 
L 581 0 
L 581 3500 
L 1159 3500 
L 1159 2956 
Q 1356 3278 1631 3431 
Q 1906 3584 2284 3584 
Q 2666 3584 2933 3390 
Q 3200 3197 3328 2828 
z
" transform="scale(0.015625)"/>
       <path id="DejaVuSans-56" d="M 1831 0 
L 50 4666 
L 709 4666 
L 2188 738 
L 3669 4666 
L 4325 4666 
L 2547 0 
L 1831 0 
z
" transform="scale(0.015625)"/>
      </defs>
      <use xlink:href="#DejaVuSans-4f"/>
      <use xlink:href="#DejaVuSans-75" x="78.710938"/>
      <use xlink:href="#DejaVuSans-74" x="142.089844"/>
      <use xlink:href="#DejaVuSans-70" x="181.298828"/>
      <use xlink:href="#DejaVuSans-75" x="244.775391"/>
      <use xlink:href="#DejaVuSans-74" x="308.154297"/>
      <use xlink:href="#DejaVuSans-20" x="347.363281"/>
      <use xlink:href="#DejaVuSans-76" x="379.150391"/>
      <use xlink:href="#DejaVuSans-6f" x="438.330078"/>
      <use xlink:href="#DejaVuSans-6c" x="499.511719"/>
      <use xlink:href="#DejaVuSans-74" x="527.294922"/>
      <use xlink:href="#DejaVuSans-61" x="566.503906"/>
      <use xlink:href="#DejaVuSans-67" x="627.783203"/>
      <use xlink:href="#DejaVuSans-65" x="691.259766"/>
      <use xlink:href="#DejaVuSans-20" x="752.783203"/>
      <use xlink:href="#DejaVuSans-5b" x="784.570312"/>
      <use xlink:href="#DejaVuSans-6d" x="823.583984"/>
      <use xlink:href="#DejaVuSans-56" x="920.996094"/>
      <use xlink:href="#DejaVuSans-5d" x="989.404297"/>
     </g>
    </g>
   </g>
   <g id="line2d_17">
    <defs>
     <path id="m6fa8f7e3c8" d="M 0 1.5 
C 0.397805 1.5 0.77937 1.341951 1.06066 1.06066 
C 1.341951 0.77937 1.5 0.397805 1.5 0 
C 1.5 -0.397805 1.341951 -0.77937 1.06066 -1.06066 
C 0.77937 -1.341951 0.397805 -1.5 0 -1.5 
C -0.397805 -1.5 -0.77937 -1.341951 -1.06066 -1.06066 
C -1.341951 -0.77937 -1.5 -0.397805 -1.5 0 
C -1.5 0.397805 -1.341951 0.77937 -1.06066 1.06066 
C -0.77937 1.341951 -0.397805 1.5 0 1.5 
z
" style="stroke: #1f77b4"/>
    </defs>
    <g clip-path="url(#p43fd4852a0)">
     <use xlink:href="#m6fa8f7e3c8" x="60.013977" y="295.776" style="fill: #1f77b4; stroke: #1f77b4"/>
     <use xlink:href="#m6fa8f7e3c8" x="62.861824" y="290.559997" style="fill: #1f77b4; stroke: #1f77b4"/>
     <use xlink:href="#m6fa8f7e3c8" x="65.709671" y="289.141522" style="fill: #1f77b4; stroke: #1f77b4"/>
     <use xlink:href="#m6fa8f7e3c8" x="68.557518" y="279.792471" style="fill: #1f77b4; stroke: #1f77b4"/>
     <use xlink:href="#m6fa8f7e3c8" x="71.405365" y="290.929184" style="fill: #1f77b4; stroke: #1f77b4"/>
     <use xlink:href="#m6fa8f7e3c8" x="74.253212" y="292.963689" style="fill: #1f77b4; stroke: #1f77b4"/>
     <use xlink:href="#m6fa8f7e3c8" x="77.101059" y="287.340122" style="fill: #1f77b4; stroke: #1f77b4"/>
     <use xlink:href="#m6fa8f7e3c8" x="79.948906" y="291.397407" style="fill: #1f77b4; stroke: #1f77b4"/>
     <use xlink:href="#m6fa8f7e3c8" x="82.796752" y="290.570228" style="fill: #1f77b4; stroke: #1f77b4"/>
     <use xlink:href="#m6fa8f7e3c8" x="85.644599" y="295.595144" style="fill: #1f77b4; stroke: #1f77b4"/>
     <use xlink:href="#m6fa8f7e3c8" x="88.492446" y="289.345296" style="fill: #1f77b4; stroke: #1f77b4"/>
     <use xlink:href="#m6fa8f7e3c8" x="91.340293" y="290.201334" style="fill: #1f77b4; stroke: #1f77b4"/>
     <use xlink:href="#m6fa8f7e3c8" x="94.18814" y="292.00257" style="fill: #1f77b4; stroke: #1f77b4"/>
     <use xlink:href="#m6fa8f7e3c8" x="97.035987" y="292.877155" style="fill: #1f77b4; stroke: #1f77b4"/>
     <use xlink:href="#m6fa8f7e3c8" x="99.883834" y="291.186391" style="fill: #1f77b4; stroke: #1f77b4"/>
     <use xlink:href="#m6fa8f7e3c8" x="102.731681" y="287.885084" style="fill: #1f77b4; stroke: #1f77b4"/>
     <use xlink:href="#m6fa8f7e3c8" x="105.579528" y="289.270995" style="fill: #1f77b4; stroke: #1f77b4"/>
     <use xlink:href="#m6fa8f7e3c8" x="108.427374" y="287.908007" style="fill: #1f77b4; stroke: #1f77b4"/>
     <use xlink:href="#m6fa8f7e3c8" x="111.275221" y="288.005399" style="fill: #1f77b4; stroke: #1f77b4"/>
     <use xlink:href="#m6fa8f7e3c8" x="114.123068" y="287.522413" style="fill: #1f77b4; stroke: #1f77b4"/>
     <use xlink:href="#m6fa8f7e3c8" x="116.970915" y="288.633965" style="fill: #1f77b4; stroke: #1f77b4"/>
     <use xlink:href="#m6fa8f7e3c8" x="119.818762" y="289.83709" style="fill: #1f77b4; stroke: #1f77b4"/>
     <use xlink:href="#m6fa8f7e3c8" x="122.666609" y="286.899628" style="fill: #1f77b4; stroke: #1f77b4"/>
     <use xlink:href="#m6fa8f7e3c8" x="125.514456" y="283.781428" style="fill: #1f77b4; stroke: #1f77b4"/>
     <use xlink:href="#m6fa8f7e3c8" x="128.362303" y="280.070588" style="fill: #1f77b4; stroke: #1f77b4"/>
     <use xlink:href="#m6fa8f7e3c8" x="131.21015" y="287.081322" style="fill: #1f77b4; stroke: #1f77b4"/>
     <use xlink:href="#m6fa8f7e3c8" x="134.057996" y="277.574736" style="fill: #1f77b4; stroke: #1f77b4"/>
     <use xlink:href="#m6fa8f7e3c8" x="136.905843" y="280.003442" style="fill: #1f77b4; stroke: #1f77b4"/>
     <use xlink:href="#m6fa8f7e3c8" x="139.75369" y="278.071585" style="fill: #1f77b4; stroke: #1f77b4"/>
     <use xlink:href="#m6fa8f7e3c8" x="142.601537" y="287.349252" style="fill: #1f77b4; stroke: #1f77b4"/>
     <use xlink:href="#m6fa8f7e3c8" x="145.449384" y="290.252571" style="fill: #1f77b4; stroke: #1f77b4"/>
     <use xlink:href="#m6fa8f7e3c8" x="148.297231" y="285.512791" style="fill: #1f77b4; stroke: #1f77b4"/>
     <use xlink:href="#m6fa8f7e3c8" x="151.145078" y="286.230288" style="fill: #1f77b4; stroke: #1f77b4"/>
     <use xlink:href="#m6fa8f7e3c8" x="153.992925" y="286.525549" style="fill: #1f77b4; stroke: #1f77b4"/>
     <use xlink:href="#m6fa8f7e3c8" x="156.840772" y="286.393051" style="fill: #1f77b4; stroke: #1f77b4"/>
     <use xlink:href="#m6fa8f7e3c8" x="159.688618" y="279.989173" style="fill: #1f77b4; stroke: #1f77b4"/>
     <use xlink:href="#m6fa8f7e3c8" x="162.536465" y="280.757685" style="fill: #1f77b4; stroke: #1f77b4"/>
     <use xlink:href="#m6fa8f7e3c8" x="165.384312" y="283.642528" style="fill: #1f77b4; stroke: #1f77b4"/>
     <use xlink:href="#m6fa8f7e3c8" x="168.232159" y="290.63652" style="fill: #1f77b4; stroke: #1f77b4"/>
     <use xlink:href="#m6fa8f7e3c8" x="171.080006" y="282.727384" style="fill: #1f77b4; stroke: #1f77b4"/>
     <use xlink:href="#m6fa8f7e3c8" x="173.927853" y="273.649963" style="fill: #1f77b4; stroke: #1f77b4"/>
     <use xlink:href="#m6fa8f7e3c8" x="176.7757" y="286.783391" style="fill: #1f77b4; stroke: #1f77b4"/>
     <use xlink:href="#m6fa8f7e3c8" x="179.623547" y="275.642092" style="fill: #1f77b4; stroke: #1f77b4"/>
     <use xlink:href="#m6fa8f7e3c8" x="182.471394" y="288.210991" style="fill: #1f77b4; stroke: #1f77b4"/>
     <use xlink:href="#m6fa8f7e3c8" x="185.31924" y="246.488206" style="fill: #1f77b4; stroke: #1f77b4"/>
     <use xlink:href="#m6fa8f7e3c8" x="188.167087" y="291.505442" style="fill: #1f77b4; stroke: #1f77b4"/>
     <use xlink:href="#m6fa8f7e3c8" x="191.014934" y="248.943035" style="fill: #1f77b4; stroke: #1f77b4"/>
     <use xlink:href="#m6fa8f7e3c8" x="193.862781" y="284.629651" style="fill: #1f77b4; stroke: #1f77b4"/>
     <use xlink:href="#m6fa8f7e3c8" x="196.710628" y="248.452702" style="fill: #1f77b4; stroke: #1f77b4"/>
     <use xlink:href="#m6fa8f7e3c8" x="199.558475" y="268.983584" style="fill: #1f77b4; stroke: #1f77b4"/>
     <use xlink:href="#m6fa8f7e3c8" x="202.406322" y="229.284019" style="fill: #1f77b4; stroke: #1f77b4"/>
     <use xlink:href="#m6fa8f7e3c8" x="205.254169" y="232.043006" style="fill: #1f77b4; stroke: #1f77b4"/>
     <use xlink:href="#m6fa8f7e3c8" x="208.102016" y="174.405101" style="fill: #1f77b4; stroke: #1f77b4"/>
     <use xlink:href="#m6fa8f7e3c8" x="210.949862" y="241.490289" style="fill: #1f77b4; stroke: #1f77b4"/>
     <use xlink:href="#m6fa8f7e3c8" x="213.797709" y="84.005419" style="fill: #1f77b4; stroke: #1f77b4"/>
     <use xlink:href="#m6fa8f7e3c8" x="216.645556" y="63.577636" style="fill: #1f77b4; stroke: #1f77b4"/>
     <use xlink:href="#m6fa8f7e3c8" x="219.493403" y="84.543538" style="fill: #1f77b4; stroke: #1f77b4"/>
     <use xlink:href="#m6fa8f7e3c8" x="222.34125" y="77.550209" style="fill: #1f77b4; stroke: #1f77b4"/>
     <use xlink:href="#m6fa8f7e3c8" x="225.189097" y="233.08736" style="fill: #1f77b4; stroke: #1f77b4"/>
     <use xlink:href="#m6fa8f7e3c8" x="228.036944" y="249.573666" style="fill: #1f77b4; stroke: #1f77b4"/>
     <use xlink:href="#m6fa8f7e3c8" x="230.884791" y="228.231239" style="fill: #1f77b4; stroke: #1f77b4"/>
     <use xlink:href="#m6fa8f7e3c8" x="233.732638" y="230.503853" style="fill: #1f77b4; stroke: #1f77b4"/>
     <use xlink:href="#m6fa8f7e3c8" x="236.580484" y="271.268878" style="fill: #1f77b4; stroke: #1f77b4"/>
     <use xlink:href="#m6fa8f7e3c8" x="239.428331" y="232.317944" style="fill: #1f77b4; stroke: #1f77b4"/>
     <use xlink:href="#m6fa8f7e3c8" x="242.276178" y="282.764862" style="fill: #1f77b4; stroke: #1f77b4"/>
     <use xlink:href="#m6fa8f7e3c8" x="245.124025" y="259.8133" style="fill: #1f77b4; stroke: #1f77b4"/>
     <use xlink:href="#m6fa8f7e3c8" x="247.971872" y="285.735044" style="fill: #1f77b4; stroke: #1f77b4"/>
     <use xlink:href="#m6fa8f7e3c8" x="250.819719" y="266.221843" style="fill: #1f77b4; stroke: #1f77b4"/>
     <use xlink:href="#m6fa8f7e3c8" x="253.667566" y="285.426982" style="fill: #1f77b4; stroke: #1f77b4"/>
     <use xlink:href="#m6fa8f7e3c8" x="256.515413" y="278.049932" style="fill: #1f77b4; stroke: #1f77b4"/>
     <use xlink:href="#m6fa8f7e3c8" x="259.36326" y="282.716153" style="fill: #1f77b4; stroke: #1f77b4"/>
     <use xlink:href="#m6fa8f7e3c8" x="262.211106" y="292.104312" style="fill: #1f77b4; stroke: #1f77b4"/>
     <use xlink:href="#m6fa8f7e3c8" x="265.058953" y="284.119084" style="fill: #1f77b4; stroke: #1f77b4"/>
     <use xlink:href="#m6fa8f7e3c8" x="267.9068" y="292.367743" style="fill: #1f77b4; stroke: #1f77b4"/>
     <use xlink:href="#m6fa8f7e3c8" x="270.754647" y="284.349801" style="fill: #1f77b4; stroke: #1f77b4"/>
     <use xlink:href="#m6fa8f7e3c8" x="273.602494" y="290.868674" style="fill: #1f77b4; stroke: #1f77b4"/>
     <use xlink:href="#m6fa8f7e3c8" x="276.450341" y="272.316936" style="fill: #1f77b4; stroke: #1f77b4"/>
     <use xlink:href="#m6fa8f7e3c8" x="279.298188" y="293.418018" style="fill: #1f77b4; stroke: #1f77b4"/>
     <use xlink:href="#m6fa8f7e3c8" x="282.146035" y="279.729783" style="fill: #1f77b4; stroke: #1f77b4"/>
     <use xlink:href="#m6fa8f7e3c8" x="284.993882" y="284.414102" style="fill: #1f77b4; stroke: #1f77b4"/>
     <use xlink:href="#m6fa8f7e3c8" x="287.841728" y="288.635314" style="fill: #1f77b4; stroke: #1f77b4"/>
     <use xlink:href="#m6fa8f7e3c8" x="290.689575" y="287.786727" style="fill: #1f77b4; stroke: #1f77b4"/>
     <use xlink:href="#m6fa8f7e3c8" x="293.537422" y="287.898874" style="fill: #1f77b4; stroke: #1f77b4"/>
     <use xlink:href="#m6fa8f7e3c8" x="296.385269" y="283.836961" style="fill: #1f77b4; stroke: #1f77b4"/>
     <use xlink:href="#m6fa8f7e3c8" x="299.233116" y="288.28427" style="fill: #1f77b4; stroke: #1f77b4"/>
     <use xlink:href="#m6fa8f7e3c8" x="302.080963" y="284.937964" style="fill: #1f77b4; stroke: #1f77b4"/>
     <use xlink:href="#m6fa8f7e3c8" x="304.92881" y="294.213651" style="fill: #1f77b4; stroke: #1f77b4"/>
     <use xlink:href="#m6fa8f7e3c8" x="307.776657" y="285.021465" style="fill: #1f77b4; stroke: #1f77b4"/>
     <use xlink:href="#m6fa8f7e3c8" x="310.624504" y="282.702426" style="fill: #1f77b4; stroke: #1f77b4"/>
     <use xlink:href="#m6fa8f7e3c8" x="313.47235" y="290.253797" style="fill: #1f77b4; stroke: #1f77b4"/>
     <use xlink:href="#m6fa8f7e3c8" x="316.320197" y="286.601119" style="fill: #1f77b4; stroke: #1f77b4"/>
     <use xlink:href="#m6fa8f7e3c8" x="319.168044" y="286.165629" style="fill: #1f77b4; stroke: #1f77b4"/>
     <use xlink:href="#m6fa8f7e3c8" x="322.015891" y="286.010011" style="fill: #1f77b4; stroke: #1f77b4"/>
     <use xlink:href="#m6fa8f7e3c8" x="324.863738" y="290.116688" style="fill: #1f77b4; stroke: #1f77b4"/>
     <use xlink:href="#m6fa8f7e3c8" x="327.711585" y="285.588032" style="fill: #1f77b4; stroke: #1f77b4"/>
     <use xlink:href="#m6fa8f7e3c8" x="330.559432" y="291.083827" style="fill: #1f77b4; stroke: #1f77b4"/>
     <use xlink:href="#m6fa8f7e3c8" x="333.407279" y="287.061651" style="fill: #1f77b4; stroke: #1f77b4"/>
     <use xlink:href="#m6fa8f7e3c8" x="336.255126" y="287.274757" style="fill: #1f77b4; stroke: #1f77b4"/>
     <use xlink:href="#m6fa8f7e3c8" x="339.102972" y="288.443089" style="fill: #1f77b4; stroke: #1f77b4"/>
     <use xlink:href="#m6fa8f7e3c8" x="341.950819" y="291.633824" style="fill: #1f77b4; stroke: #1f77b4"/>
     <use xlink:href="#m6fa8f7e3c8" x="344.798666" y="292.575297" style="fill: #1f77b4; stroke: #1f77b4"/>
     <use xlink:href="#m6fa8f7e3c8" x="347.646513" y="291.83024" style="fill: #1f77b4; stroke: #1f77b4"/>
     <use xlink:href="#m6fa8f7e3c8" x="350.49436" y="290.346151" style="fill: #1f77b4; stroke: #1f77b4"/>
     <use xlink:href="#m6fa8f7e3c8" x="353.342207" y="287.479875" style="fill: #1f77b4; stroke: #1f77b4"/>
     <use xlink:href="#m6fa8f7e3c8" x="356.190054" y="280.198735" style="fill: #1f77b4; stroke: #1f77b4"/>
     <use xlink:href="#m6fa8f7e3c8" x="359.037901" y="288.188376" style="fill: #1f77b4; stroke: #1f77b4"/>
     <use xlink:href="#m6fa8f7e3c8" x="361.885748" y="284.373667" style="fill: #1f77b4; stroke: #1f77b4"/>
     <use xlink:href="#m6fa8f7e3c8" x="364.733594" y="289.784853" style="fill: #1f77b4; stroke: #1f77b4"/>
     <use xlink:href="#m6fa8f7e3c8" x="367.581441" y="293.297482" style="fill: #1f77b4; stroke: #1f77b4"/>
     <use xlink:href="#m6fa8f7e3c8" x="370.429288" y="291.199111" style="fill: #1f77b4; stroke: #1f77b4"/>
     <use xlink:href="#m6fa8f7e3c8" x="373.277135" y="293.401526" style="fill: #1f77b4; stroke: #1f77b4"/>
     <use xlink:href="#m6fa8f7e3c8" x="376.124982" y="288.738317" style="fill: #1f77b4; stroke: #1f77b4"/>
     <use xlink:href="#m6fa8f7e3c8" x="378.972829" y="291.726045" style="fill: #1f77b4; stroke: #1f77b4"/>
     <use xlink:href="#m6fa8f7e3c8" x="381.820676" y="290.125292" style="fill: #1f77b4; stroke: #1f77b4"/>
     <use xlink:href="#m6fa8f7e3c8" x="384.668523" y="289.587758" style="fill: #1f77b4; stroke: #1f77b4"/>
    </g>
   </g>
   <g id="line2d_18">
    <path d="M 60.013977 287.669636 
L 98.686541 287.353563 
L 121.760087 286.959074 
L 137.359104 286.480989 
L 148.408408 285.932434 
L 156.857876 285.299633 
L 163.357466 284.603245 
L 168.557139 283.840982 
L 173.106852 282.950354 
L 176.681627 282.04029 
L 179.931422 280.988145 
L 182.856238 279.790829 
L 185.131094 278.640373 
L 187.405951 277.237388 
L 189.355828 275.775456 
L 191.305705 274.00403 
L 192.930603 272.226468 
L 194.555501 270.100319 
L 196.180398 267.531599 
L 197.480316 265.074471 
L 198.780234 262.169147 
L 200.080153 258.705958 
L 201.380071 254.54222 
L 202.679989 249.491054 
L 203.979907 243.306627 
L 205.279825 235.665513 
L 206.254764 228.728988 
L 207.229702 220.517049 
L 208.204641 210.770194 
L 209.179579 199.197186 
L 210.154518 185.498973 
L 211.454436 163.516457 
L 212.754354 137.269855 
L 216.004149 68.380956 
L 216.654108 59.675189 
L 217.304067 54.733951 
L 217.629047 53.856 
L 217.954026 54.08242 
L 218.279006 55.406835 
L 218.603985 57.792316 
L 219.253945 65.462979 
L 219.903904 76.324334 
L 221.203822 103.767747 
L 223.478678 153.556498 
L 224.778596 177.28241 
L 226.078515 196.676414 
L 227.378433 212.200261 
L 228.678351 224.548745 
L 229.978269 234.389139 
L 231.278187 242.27857 
L 232.578105 248.655675 
L 233.878023 253.857125 
L 235.177941 258.138951 
L 236.477859 261.695716 
L 237.777777 264.675852 
L 239.077696 267.19332 
L 240.702593 269.821941 
L 242.327491 271.994962 
L 243.952388 273.809645 
L 245.902266 275.616018 
L 247.852143 277.105119 
L 250.126999 278.53263 
L 252.401856 279.701969 
L 255.001692 280.795975 
L 257.926508 281.791133 
L 261.501283 282.75531 
L 265.401037 283.576129 
L 270.27573 284.361913 
L 276.125361 285.062078 
L 283.274911 285.680032 
L 292.374338 286.227239 
L 304.073601 286.694866 
L 319.997597 287.093628 
L 342.746164 287.422109 
L 377.518973 287.680489 
L 384.668523 287.714711 
L 384.668523 287.714711 
" clip-path="url(#p43fd4852a0)" style="fill: none; stroke: #d62728; stroke-width: 1.5; stroke-linecap: square"/>
   </g>
   <g id="line2d_19">
    <path d="M 60.013977 265.840418 
L 71.063281 264.68966 
L 80.487687 263.492809 
L 88.937155 262.203 
L 96.411684 260.846278 
L 103.236254 259.387043 
L 109.410865 257.843496 
L 114.935517 256.243585 
L 120.135189 254.51022 
L 125.009882 252.645476 
L 129.559596 250.656025 
L 133.784329 248.554132 
L 137.684084 246.358563 
L 141.258859 244.095289 
L 144.833633 241.554265 
L 148.083429 238.966632 
L 151.333224 236.075048 
L 154.25804 233.175946 
L 157.182855 229.956974 
L 160.107671 226.375235 
L 162.707507 222.847612 
L 165.307343 218.956388 
L 167.90718 214.658913 
L 170.507016 209.908413 
L 173.106852 204.654333 
L 175.706688 198.843165 
L 178.306524 192.420041 
L 180.906361 185.331412 
L 183.506197 177.529311 
L 186.106033 168.977726 
L 188.705869 159.661743 
L 191.630685 148.292545 
L 194.88048 134.683693 
L 199.430193 114.524994 
L 203.979907 94.609871 
L 206.254764 85.524601 
L 208.204641 78.5946 
L 209.829538 73.619472 
L 211.129456 70.264855 
L 212.429374 67.536875 
L 213.404313 65.935724 
L 214.379252 64.737145 
L 215.35419 63.955521 
L 216.004149 63.670986 
L 216.654108 63.577652 
L 217.304067 63.676029 
L 217.954026 63.965579 
L 218.603985 64.444721 
L 219.578924 65.51296 
L 220.553863 66.988815 
L 221.528801 68.854813 
L 222.828719 71.911917 
L 224.128637 75.563444 
L 225.753535 80.858741 
L 227.703412 88.093227 
L 229.978269 97.423705 
L 233.553044 113.145537 
L 239.727655 140.308256 
L 242.97745 153.524289 
L 245.902266 164.476354 
L 248.502102 173.404998 
L 251.101938 181.573472 
L 253.701774 189.008714 
L 256.30161 195.753745 
L 258.901447 201.860011 
L 261.501283 207.38215 
L 264.101119 212.374598 
L 266.700955 216.889511 
L 269.300791 220.975597 
L 271.900628 224.677561 
L 274.825443 228.433437 
L 277.750259 231.8059 
L 280.675075 234.84037 
L 283.59989 237.576674 
L 286.849686 240.309512 
L 290.099481 242.758538 
L 293.674256 245.166992 
L 297.249031 247.315446 
L 301.148785 249.402853 
L 305.373519 251.404448 
L 309.923232 253.302158 
L 314.797925 255.083975 
L 319.997597 256.743141 
L 325.522249 258.277235 
L 331.69686 259.75991 
L 338.52143 261.164162 
L 345.995959 262.472181 
L 354.445427 263.718031 
L 363.869833 264.876304 
L 374.594157 265.962481 
L 384.668523 266.807273 
L 384.668523 266.807273 
" clip-path="url(#p43fd4852a0)" style="fill: none; stroke-dasharray: 5.55,2.4; stroke-dashoffset: 0; stroke: #808080; stroke-width: 1.5"/>
   </g>
   <g id="patch_3">
    <path d="M 43.78125 307.872 
L 43.78125 41.76 
" style="fill: none; stroke: #000000; stroke-width: 0.8; stroke-linejoin: miter; stroke-linecap: square"/>
   </g>
   <g id="patch_4">
    <path d="M 400.90125 307.872 
L 400.90125 41.76 
" style="fill: none; stroke: #000000; stroke-width: 0.8; stroke-linejoin: miter; stroke-linecap: square"/>
   </g>
   <g id="patch_5">
    <path d="M 43.78125 307.872 
L 400.90125 307.872 
" style="fill: none; stroke: #000000; stroke-width: 0.8; stroke-linejoin: miter; stroke-linecap: square"/>
   </g>
   <g id="patch_6">
    <path d="M 43.78125 41.76 
L 400.90125 41.76 
" style="fill: none; stroke: #000000; stroke-width: 0.8; stroke-linejoin: miter; stroke-linecap: square"/>
   </g>
   <g id="text_20">
    <g id="patch_7">
     <path d="M 418.75725 79.941538 
L 593.316625 79.941538 
Q 597.316625 79.941538 597.316625 75.941538 
L 597.316625 55.0656 
Q 597.316625 51.0656 593.316625 51.0656 
L 418.75725 51.0656 
Q 414.75725 51.0656 414.75725 55.0656 
L 414.75725 75.941538 
Q 414.75725 79.941538 418.75725 79.941538 
z
" style="fill: #ffffff; opacity: 0.5; stroke: #000000; stroke-linejoin: miter"/>
    </g>
    <!-- Fit unsuccessful. Analysis detected -->
    <g transform="translate(418.75725 62.664038) scale(0.1 -0.1)">
     <defs>
      <path id="DejaVuSans-46" d="M 628 4666 
L 3309 4666 
L 3309 4134 
L 1259 4134 
L 1259 2759 
L 3109 2759 
L 3109 2228 
L 1259 2228 
L 1259 0 
L 628 0 
L 628 4666 
z
" transform="scale(0.015625)"/>
      <path id="DejaVuSans-69" d="M 603 3500 
L 1178 3500 
L 1178 0 
L 603 0 
L 603 3500 
z
M 603 4863 
L 1178 4863 
L 1178 4134 
L 603 4134 
L 603 4863 
z
" transform="scale(0.015625)"/>
      <path id="DejaVuSans-73" d="M 2834 3397 
L 2834 2853 
Q 2591 2978 2328 3040 
Q 2066 3103 1784 3103 
Q 1356 3103 1142 2972 
Q 928 2841 928 2578 
Q 928 2378 1081 2264 
Q 1234 2150 1697 2047 
L 1894 2003 
Q 2506 1872 2764 1633 
Q 3022 1394 3022 966 
Q 3022 478 2636 193 
Q 2250 -91 1575 -91 
Q 1294 -91 989 -36 
Q 684 19 347 128 
L 347 722 
Q 666 556 975 473 
Q 1284 391 1588 391 
Q 1994 391 2212 530 
Q 2431 669 2431 922 
Q 2431 1156 2273 1281 
Q 2116 1406 1581 1522 
L 1381 1569 
Q 847 1681 609 1914 
Q 372 2147 372 2553 
Q 372 3047 722 3315 
Q 1072 3584 1716 3584 
Q 2034 3584 2315 3537 
Q 2597 3491 2834 3397 
z
" transform="scale(0.015625)"/>
      <path id="DejaVuSans-41" d="M 2188 4044 
L 1331 1722 
L 3047 1722 
L 2188 4044 
z
M 1831 4666 
L 2547 4666 
L 4325 0 
L 3669 0 
L 3244 1197 
L 1141 1197 
L 716 0 
L 50 0 
L 1831 4666 
z
" transform="scale(0.015625)"/>
      <path id="DejaVuSans-64" d="M 2906 2969 
L 2906 4863 
L 3481 4863 
L 3481 0 
L 2906 0 
L 2906 525 
Q 2725 213 2448 61 
Q 2172 -91 1784 -91 
Q 1150 -91 751 415 
Q 353 922 353 1747 
Q 353 2572 751 3078 
Q 1150 3584 1784 3584 
Q 2172 3584 2448 3432 
Q 2725 3281 2906 2969 
z
M 947 1747 
Q 947 1113 1208 752 
Q 1469 391 1925 391 
Q 2381 391 2643 752 
Q 2906 1113 2906 1747 
Q 2906 2381 2643 2742 
Q 2381 3103 1925 3103 
Q 1469 3103 1208 2742 
Q 947 2381 947 1747 
z
" transform="scale(0.015625)"/>
     </defs>
     <use xlink:href="#DejaVuSans-46"/>
     <use xlink:href="#DejaVuSans-69" x="50.269531"/>
     <use xlink:href="#DejaVuSans-74" x="78.052734"/>
     <use xlink:href="#DejaVuSans-20" x="117.261719"/>
     <use xlink:href="#DejaVuSans-75" x="149.048828"/>
     <use xlink:href="#DejaVuSans-6e" x="212.427734"/>
     <use xlink:href="#DejaVuSans-73" x="275.806641"/>
     <use xlink:href="#DejaVuSans-75" x="327.90625"/>
     <use xlink:href="#DejaVuSans-63" x="391.285156"/>
     <use xlink:href="#DejaVuSans-63" x="446.265625"/>
     <use xlink:href="#DejaVuSans-65" x="501.246094"/>
     <use xlink:href="#DejaVuSans-73" x="562.769531"/>
     <use xlink:href="#DejaVuSans-73" x="614.869141"/>
     <use xlink:href="#DejaVuSans-66" x="666.96875"/>
     <use xlink:href="#DejaVuSans-75" x="702.173828"/>
     <use xlink:href="#DejaVuSans-6c" x="765.552734"/>
     <use xlink:href="#DejaVuSans-2e" x="793.335938"/>
     <use xlink:href="#DejaVuSans-20" x="825.123047"/>
     <use xlink:href="#DejaVuSans-41" x="856.910156"/>
     <use xlink:href="#DejaVuSans-6e" x="925.318359"/>
     <use xlink:href="#DejaVuSans-61" x="988.697266"/>
     <use xlink:href="#DejaVuSans-6c" x="1049.976562"/>
     <use xlink:href="#DejaVuSans-79" x="1077.759766"/>
     <use xlink:href="#DejaVuSans-73" x="1136.939453"/>
     <use xlink:href="#DejaVuSans-69" x="1189.039062"/>
     <use xlink:href="#DejaVuSans-73" x="1216.822266"/>
     <use xlink:href="#DejaVuSans-20" x="1268.921875"/>
     <use xlink:href="#DejaVuSans-64" x="1300.708984"/>
     <use xlink:href="#DejaVuSans-65" x="1364.185547"/>
     <use xlink:href="#DejaVuSans-74" x="1425.708984"/>
     <use xlink:href="#DejaVuSans-65" x="1464.917969"/>
     <use xlink:href="#DejaVuSans-63" x="1526.441406"/>
     <use xlink:href="#DejaVuSans-74" x="1581.421875"/>
     <use xlink:href="#DejaVuSans-65" x="1620.630859"/>
     <use xlink:href="#DejaVuSans-64" x="1682.154297"/>
    </g>
    <!-- bad data or failed fit. -->
    <g transform="translate(418.75725 73.86185) scale(0.1 -0.1)">
     <defs>
      <path id="DejaVuSans-62" d="M 3116 1747 
Q 3116 2381 2855 2742 
Q 2594 3103 2138 3103 
Q 1681 3103 1420 2742 
Q 1159 2381 1159 1747 
Q 1159 1113 1420 752 
Q 1681 391 2138 391 
Q 2594 391 2855 752 
Q 3116 1113 3116 1747 
z
M 1159 2969 
Q 1341 3281 1617 3432 
Q 1894 3584 2278 3584 
Q 2916 3584 3314 3078 
Q 3713 2572 3713 1747 
Q 3713 922 3314 415 
Q 2916 -91 2278 -91 
Q 1894 -91 1617 61 
Q 1341 213 1159 525 
L 1159 0 
L 581 0 
L 581 4863 
L 1159 4863 
L 1159 2969 
z
" transform="scale(0.015625)"/>
     </defs>
     <use xlink:href="#DejaVuSans-62"/>
     <use xlink:href="#DejaVuSans-61" x="63.476562"/>
     <use xlink:href="#DejaVuSans-64" x="124.755859"/>
     <use xlink:href="#DejaVuSans-20" x="188.232422"/>
     <use xlink:href="#DejaVuSans-64" x="220.019531"/>
     <use xlink:href="#DejaVuSans-61" x="283.496094"/>
     <use xlink:href="#DejaVuSans-74" x="344.775391"/>
     <use xlink:href="#DejaVuSans-61" x="383.984375"/>
     <use xlink:href="#DejaVuSans-20" x="445.263672"/>
     <use xlink:href="#DejaVuSans-6f" x="477.050781"/>
     <use xlink:href="#DejaVuSans-72" x="538.232422"/>
     <use xlink:href="#DejaVuSans-20" x="579.345703"/>
     <use xlink:href="#DejaVuSans-66" x="611.132812"/>
     <use xlink:href="#DejaVuSans-61" x="646.337891"/>
     <use xlink:href="#DejaVuSans-69" x="707.617188"/>
     <use xlink:href="#DejaVuSans-6c" x="735.400391"/>
     <use xlink:href="#DejaVuSans-65" x="763.183594"/>
     <use xlink:href="#DejaVuSans-64" x="824.707031"/>
     <use xlink:href="#DejaVuSans-20" x="888.183594"/>
     <use xlink:href="#DejaVuSans-66" x="919.970703"/>
     <use xlink:href="#DejaVuSans-69" x="955.175781"/>
     <use xlink:href="#DejaVuSans-74" x="982.958984"/>
     <use xlink:href="#DejaVuSans-2e" x="1022.167969"/>
    </g>
   </g>
  </g>
  <g id="text_21">
   <!-- S21 Pulsed spectroscopy q00 -->
   <g transform="translate(128.626875 16.318125) scale(0.12 -0.12)">
    <defs>
     <path id="DejaVuSans-50" d="M 1259 4147 
L 1259 2394 
L 2053 2394 
Q 2494 2394 2734 2622 
Q 2975 2850 2975 3272 
Q 2975 3691 2734 3919 
Q 2494 4147 2053 4147 
L 1259 4147 
z
M 628 4666 
L 2053 4666 
Q 2838 4666 3239 4311 
Q 3641 3956 3641 3272 
Q 3641 2581 3239 2228 
Q 2838 1875 2053 1875 
L 1259 1875 
L 1259 0 
L 628 0 
L 628 4666 
z
" transform="scale(0.015625)"/>
    </defs>
    <use xlink:href="#DejaVuSans-53"/>
    <use xlink:href="#DejaVuSans-32" x="63.476562"/>
    <use xlink:href="#DejaVuSans-31" x="127.099609"/>
    <use xlink:href="#DejaVuSans-20" x="190.722656"/>
    <use xlink:href="#DejaVuSans-50" x="222.509766"/>
    <use xlink:href="#DejaVuSans-75" x="281.0625"/>
    <use xlink:href="#DejaVuSans-6c" x="344.441406"/>
    <use xlink:href="#DejaVuSans-73" x="372.224609"/>
    <use xlink:href="#DejaVuSans-65" x="424.324219"/>
    <use xlink:href="#DejaVuSans-64" x="485.847656"/>
    <use xlink:href="#DejaVuSans-20" x="549.324219"/>
    <use xlink:href="#DejaVuSans-73" x="581.111328"/>
    <use xlink:href="#DejaVuSans-70" x="633.210938"/>
    <use xlink:href="#DejaVuSans-65" x="696.6875"/>
    <use xlink:href="#DejaVuSans-63" x="758.210938"/>
    <use xlink:href="#DejaVuSans-74" x="813.191406"/>
    <use xlink:href="#DejaVuSans-72" x="852.400391"/>
    <use xlink:href="#DejaVuSans-6f" x="891.263672"/>
    <use xlink:href="#DejaVuSans-73" x="952.445312"/>
    <use xlink:href="#DejaVuSans-63" x="1004.544922"/>
    <use xlink:href="#DejaVuSans-6f" x="1059.525391"/>
    <use xlink:href="#DejaVuSans-70" x="1120.707031"/>
    <use xlink:href="#DejaVuSans-79" x="1184.183594"/>
    <use xlink:href="#DejaVuSans-20" x="1243.363281"/>
    <use xlink:href="#DejaVuSans-71" x="1275.150391"/>
    <use xlink:href="#DejaVuSans-30" x="1338.626953"/>
    <use xlink:href="#DejaVuSans-30" x="1402.25"/>
   </g>
   <!-- tuid: 20241114-112307-498-505de8 -->
   <g transform="translate(106.86 29.7555) scale(0.12 -0.12)">
    <defs>
     <path id="DejaVuSans-3a" d="M 750 794 
L 1409 794 
L 1409 0 
L 750 0 
L 750 794 
z
M 750 3309 
L 1409 3309 
L 1409 2516 
L 750 2516 
L 750 3309 
z
" transform="scale(0.015625)"/>
     <path id="DejaVuSans-2d" d="M 313 2009 
L 1997 2009 
L 1997 1497 
L 313 1497 
L 313 2009 
z
" transform="scale(0.015625)"/>
     <path id="DejaVuSans-37" d="M 525 4666 
L 3525 4666 
L 3525 4397 
L 1831 0 
L 1172 0 
L 2766 4134 
L 525 4134 
L 525 4666 
z
" transform="scale(0.015625)"/>
    </defs>
    <use xlink:href="#DejaVuSans-74"/>
    <use xlink:href="#DejaVuSans-75" x="39.208984"/>
    <use xlink:href="#DejaVuSans-69" x="102.587891"/>
    <use xlink:href="#DejaVuSans-64" x="130.371094"/>
    <use xlink:href="#DejaVuSans-3a" x="193.847656"/>
    <use xlink:href="#DejaVuSans-20" x="227.539062"/>
    <use xlink:href="#DejaVuSans-32" x="259.326172"/>
    <use xlink:href="#DejaVuSans-30" x="322.949219"/>
    <use xlink:href="#DejaVuSans-32" x="386.572266"/>
    <use xlink:href="#DejaVuSans-34" x="450.195312"/>
    <use xlink:href="#DejaVuSans-31" x="513.818359"/>
    <use xlink:href="#DejaVuSans-31" x="577.441406"/>
    <use xlink:href="#DejaVuSans-31" x="641.064453"/>
    <use xlink:href="#DejaVuSans-34" x="704.6875"/>
    <use xlink:href="#DejaVuSans-2d" x="768.310547"/>
    <use xlink:href="#DejaVuSans-31" x="804.394531"/>
    <use xlink:href="#DejaVuSans-31" x="868.017578"/>
    <use xlink:href="#DejaVuSans-32" x="931.640625"/>
    <use xlink:href="#DejaVuSans-33" x="995.263672"/>
    <use xlink:href="#DejaVuSans-30" x="1058.886719"/>
    <use xlink:href="#DejaVuSans-37" x="1122.509766"/>
    <use xlink:href="#DejaVuSans-2d" x="1186.132812"/>
    <use xlink:href="#DejaVuSans-34" x="1222.216797"/>
    <use xlink:href="#DejaVuSans-39" x="1285.839844"/>
    <use xlink:href="#DejaVuSans-38" x="1349.462891"/>
    <use xlink:href="#DejaVuSans-2d" x="1413.085938"/>
    <use xlink:href="#DejaVuSans-35" x="1449.169922"/>
    <use xlink:href="#DejaVuSans-30" x="1512.792969"/>
    <use xlink:href="#DejaVuSans-35" x="1576.416016"/>
    <use xlink:href="#DejaVuSans-64" x="1640.039062"/>
    <use xlink:href="#DejaVuSans-65" x="1703.515625"/>
    <use xlink:href="#DejaVuSans-38" x="1765.039062"/>
   </g>
  </g>
 </g>
 <defs>
  <clipPath id="p43fd4852a0">
   <rect x="43.78125" y="41.76" width="357.12" height="266.112"/>
  </clipPath>
 </defs>
</svg>
