<?xml version="1.0" encoding="utf-8" standalone="no"?>
<!DOCTYPE svg PUBLIC "-//W3C//DTD SVG 1.1//EN"
  "http://www.w3.org/Graphics/SVG/1.1/DTD/svg11.dtd">
<svg xmlns:xlink="http://www.w3.org/1999/xlink" width="726.51975pt" height="345.42825pt" viewBox="0 0 726.51975 345.42825" xmlns="http://www.w3.org/2000/svg" version="1.1">
 <metadata>
  <rdf:RDF xmlns:dc="http://purl.org/dc/elements/1.1/" xmlns:cc="http://creativecommons.org/ns#" xmlns:rdf="http://www.w3.org/1999/02/22-rdf-syntax-ns#">
   <cc:Work>
    <dc:type rdf:resource="http://purl.org/dc/dcmitype/StillImage"/>
    <dc:date>2024-11-14T11:50:39.771446</dc:date>
    <dc:format>image/svg+xml</dc:format>
    <dc:creator>
     <cc:Agent>
      <dc:title>Matplotlib v3.8.0, https://matplotlib.org/</dc:title>
     </cc:Agent>
    </dc:creator>
   </cc:Work>
  </rdf:RDF>
 </metadata>
 <defs>
  <style type="text/css">*{stroke-linejoin: round; stroke-linecap: butt}</style>
 </defs>
 <g id="figure_1">
  <g id="patch_1">
   <path d="M 0 345.42825 
L 726.51975 345.42825 
L 726.51975 -0 
L 0 -0 
L 0 345.42825 
z
" style="fill: none; opacity: 0"/>
  </g>
  <g id="axes_1">
   <g id="patch_2">
    <path d="M 46.965625 307.872 
L 404.085625 307.872 
L 404.085625 41.76 
L 46.965625 41.76 
z
" style="fill: #ffffff"/>
   </g>
   <g id="matplotlib.axis_1">
    <g id="xtick_1">
     <g id="line2d_1">
      <defs>
       <path id="ma5794bdc31" d="M 0 0 
L 0 3.5 
" style="stroke: #000000; stroke-width: 0.8"/>
      </defs>
      <g>
       <use xlink:href="#ma5794bdc31" x="49.350274" y="307.872" style="stroke: #000000; stroke-width: 0.8"/>
      </g>
     </g>
     <g id="text_1">
      <!-- -50 -->
      <g transform="translate(41.183868 322.470438) scale(0.1 -0.1)">
       <defs>
        <path id="DejaVuSans-2d" d="M 313 2009 
L 1997 2009 
L 1997 1497 
L 313 1497 
L 313 2009 
z
" transform="scale(0.015625)"/>
        <path id="DejaVuSans-35" d="M 691 4666 
L 3169 4666 
L 3169 4134 
L 1269 4134 
L 1269 2991 
Q 1406 3038 1543 3061 
Q 1681 3084 1819 3084 
Q 2600 3084 3056 2656 
Q 3513 2228 3513 1497 
Q 3513 744 3044 326 
Q 2575 -91 1722 -91 
Q 1428 -91 1123 -41 
Q 819 9 494 109 
L 494 744 
Q 775 591 1075 516 
Q 1375 441 1709 441 
Q 2250 441 2565 725 
Q 2881 1009 2881 1497 
Q 2881 1984 2565 2268 
Q 2250 2553 1709 2553 
Q 1456 2553 1204 2497 
Q 953 2441 691 2322 
L 691 4666 
z
" transform="scale(0.015625)"/>
        <path id="DejaVuSans-30" d="M 2034 4250 
Q 1547 4250 1301 3770 
Q 1056 3291 1056 2328 
Q 1056 1369 1301 889 
Q 1547 409 2034 409 
Q 2525 409 2770 889 
Q 3016 1369 3016 2328 
Q 3016 3291 2770 3770 
Q 2525 4250 2034 4250 
z
M 2034 4750 
Q 2819 4750 3233 4129 
Q 3647 3509 3647 2328 
Q 3647 1150 3233 529 
Q 2819 -91 2034 -91 
Q 1250 -91 836 529 
Q 422 1150 422 2328 
Q 422 3509 836 4129 
Q 1250 4750 2034 4750 
z
" transform="scale(0.015625)"/>
       </defs>
       <use xlink:href="#DejaVuSans-2d"/>
       <use xlink:href="#DejaVuSans-35" x="36.083984"/>
       <use xlink:href="#DejaVuSans-30" x="99.707031"/>
      </g>
     </g>
    </g>
    <g id="xtick_2">
     <g id="line2d_2">
      <g>
       <use xlink:href="#ma5794bdc31" x="105.518881" y="307.872" style="stroke: #000000; stroke-width: 0.8"/>
      </g>
     </g>
     <g id="text_2">
      <!-- 0 -->
      <g transform="translate(102.337631 322.470438) scale(0.1 -0.1)">
       <use xlink:href="#DejaVuSans-30"/>
      </g>
     </g>
    </g>
    <g id="xtick_3">
     <g id="line2d_3">
      <g>
       <use xlink:href="#ma5794bdc31" x="161.687487" y="307.872" style="stroke: #000000; stroke-width: 0.8"/>
      </g>
     </g>
     <g id="text_3">
      <!-- 50 -->
      <g transform="translate(155.324987 322.470438) scale(0.1 -0.1)">
       <use xlink:href="#DejaVuSans-35"/>
       <use xlink:href="#DejaVuSans-30" x="63.623047"/>
      </g>
     </g>
    </g>
    <g id="xtick_4">
     <g id="line2d_4">
      <g>
       <use xlink:href="#ma5794bdc31" x="217.856094" y="307.872" style="stroke: #000000; stroke-width: 0.8"/>
      </g>
     </g>
     <g id="text_4">
      <!-- 100 -->
      <g transform="translate(208.312344 322.470438) scale(0.1 -0.1)">
       <defs>
        <path id="DejaVuSans-31" d="M 794 531 
L 1825 531 
L 1825 4091 
L 703 3866 
L 703 4441 
L 1819 4666 
L 2450 4666 
L 2450 531 
L 3481 531 
L 3481 0 
L 794 0 
L 794 531 
z
" transform="scale(0.015625)"/>
       </defs>
       <use xlink:href="#DejaVuSans-31"/>
       <use xlink:href="#DejaVuSans-30" x="63.623047"/>
       <use xlink:href="#DejaVuSans-30" x="127.246094"/>
      </g>
     </g>
    </g>
    <g id="xtick_5">
     <g id="line2d_5">
      <g>
       <use xlink:href="#ma5794bdc31" x="274.0247" y="307.872" style="stroke: #000000; stroke-width: 0.8"/>
      </g>
     </g>
     <g id="text_5">
      <!-- 150 -->
      <g transform="translate(264.48095 322.470438) scale(0.1 -0.1)">
       <use xlink:href="#DejaVuSans-31"/>
       <use xlink:href="#DejaVuSans-35" x="63.623047"/>
       <use xlink:href="#DejaVuSans-30" x="127.246094"/>
      </g>
     </g>
    </g>
    <g id="xtick_6">
     <g id="line2d_6">
      <g>
       <use xlink:href="#ma5794bdc31" x="330.193307" y="307.872" style="stroke: #000000; stroke-width: 0.8"/>
      </g>
     </g>
     <g id="text_6">
      <!-- 200 -->
      <g transform="translate(320.649557 322.470438) scale(0.1 -0.1)">
       <defs>
        <path id="DejaVuSans-32" d="M 1228 531 
L 3431 531 
L 3431 0 
L 469 0 
L 469 531 
Q 828 903 1448 1529 
Q 2069 2156 2228 2338 
Q 2531 2678 2651 2914 
Q 2772 3150 2772 3378 
Q 2772 3750 2511 3984 
Q 2250 4219 1831 4219 
Q 1534 4219 1204 4116 
Q 875 4013 500 3803 
L 500 4441 
Q 881 4594 1212 4672 
Q 1544 4750 1819 4750 
Q 2544 4750 2975 4387 
Q 3406 4025 3406 3419 
Q 3406 3131 3298 2873 
Q 3191 2616 2906 2266 
Q 2828 2175 2409 1742 
Q 1991 1309 1228 531 
z
" transform="scale(0.015625)"/>
       </defs>
       <use xlink:href="#DejaVuSans-32"/>
       <use xlink:href="#DejaVuSans-30" x="63.623047"/>
       <use xlink:href="#DejaVuSans-30" x="127.246094"/>
      </g>
     </g>
    </g>
    <g id="xtick_7">
     <g id="line2d_7">
      <g>
       <use xlink:href="#ma5794bdc31" x="386.361913" y="307.872" style="stroke: #000000; stroke-width: 0.8"/>
      </g>
     </g>
     <g id="text_7">
      <!-- 250 -->
      <g transform="translate(376.818163 322.470438) scale(0.1 -0.1)">
       <use xlink:href="#DejaVuSans-32"/>
       <use xlink:href="#DejaVuSans-35" x="63.623047"/>
       <use xlink:href="#DejaVuSans-30" x="127.246094"/>
      </g>
     </g>
    </g>
    <g id="text_8">
     <!-- Spec frequency [MHz] -->
     <g transform="translate(170.496719 336.148562) scale(0.1 -0.1)">
      <defs>
       <path id="DejaVuSans-53" d="M 3425 4513 
L 3425 3897 
Q 3066 4069 2747 4153 
Q 2428 4238 2131 4238 
Q 1616 4238 1336 4038 
Q 1056 3838 1056 3469 
Q 1056 3159 1242 3001 
Q 1428 2844 1947 2747 
L 2328 2669 
Q 3034 2534 3370 2195 
Q 3706 1856 3706 1288 
Q 3706 609 3251 259 
Q 2797 -91 1919 -91 
Q 1588 -91 1214 -16 
Q 841 59 441 206 
L 441 856 
Q 825 641 1194 531 
Q 1563 422 1919 422 
Q 2459 422 2753 634 
Q 3047 847 3047 1241 
Q 3047 1584 2836 1778 
Q 2625 1972 2144 2069 
L 1759 2144 
Q 1053 2284 737 2584 
Q 422 2884 422 3419 
Q 422 4038 858 4394 
Q 1294 4750 2059 4750 
Q 2388 4750 2728 4690 
Q 3069 4631 3425 4513 
z
" transform="scale(0.015625)"/>
       <path id="DejaVuSans-70" d="M 1159 525 
L 1159 -1331 
L 581 -1331 
L 581 3500 
L 1159 3500 
L 1159 2969 
Q 1341 3281 1617 3432 
Q 1894 3584 2278 3584 
Q 2916 3584 3314 3078 
Q 3713 2572 3713 1747 
Q 3713 922 3314 415 
Q 2916 -91 2278 -91 
Q 1894 -91 1617 61 
Q 1341 213 1159 525 
z
M 3116 1747 
Q 3116 2381 2855 2742 
Q 2594 3103 2138 3103 
Q 1681 3103 1420 2742 
Q 1159 2381 1159 1747 
Q 1159 1113 1420 752 
Q 1681 391 2138 391 
Q 2594 391 2855 752 
Q 3116 1113 3116 1747 
z
" transform="scale(0.015625)"/>
       <path id="DejaVuSans-65" d="M 3597 1894 
L 3597 1613 
L 953 1613 
Q 991 1019 1311 708 
Q 1631 397 2203 397 
Q 2534 397 2845 478 
Q 3156 559 3463 722 
L 3463 178 
Q 3153 47 2828 -22 
Q 2503 -91 2169 -91 
Q 1331 -91 842 396 
Q 353 884 353 1716 
Q 353 2575 817 3079 
Q 1281 3584 2069 3584 
Q 2775 3584 3186 3129 
Q 3597 2675 3597 1894 
z
M 3022 2063 
Q 3016 2534 2758 2815 
Q 2500 3097 2075 3097 
Q 1594 3097 1305 2825 
Q 1016 2553 972 2059 
L 3022 2063 
z
" transform="scale(0.015625)"/>
       <path id="DejaVuSans-63" d="M 3122 3366 
L 3122 2828 
Q 2878 2963 2633 3030 
Q 2388 3097 2138 3097 
Q 1578 3097 1268 2742 
Q 959 2388 959 1747 
Q 959 1106 1268 751 
Q 1578 397 2138 397 
Q 2388 397 2633 464 
Q 2878 531 3122 666 
L 3122 134 
Q 2881 22 2623 -34 
Q 2366 -91 2075 -91 
Q 1284 -91 818 406 
Q 353 903 353 1747 
Q 353 2603 823 3093 
Q 1294 3584 2113 3584 
Q 2378 3584 2631 3529 
Q 2884 3475 3122 3366 
z
" transform="scale(0.015625)"/>
       <path id="DejaVuSans-20" transform="scale(0.015625)"/>
       <path id="DejaVuSans-66" d="M 2375 4863 
L 2375 4384 
L 1825 4384 
Q 1516 4384 1395 4259 
Q 1275 4134 1275 3809 
L 1275 3500 
L 2222 3500 
L 2222 3053 
L 1275 3053 
L 1275 0 
L 697 0 
L 697 3053 
L 147 3053 
L 147 3500 
L 697 3500 
L 697 3744 
Q 697 4328 969 4595 
Q 1241 4863 1831 4863 
L 2375 4863 
z
" transform="scale(0.015625)"/>
       <path id="DejaVuSans-72" d="M 2631 2963 
Q 2534 3019 2420 3045 
Q 2306 3072 2169 3072 
Q 1681 3072 1420 2755 
Q 1159 2438 1159 1844 
L 1159 0 
L 581 0 
L 581 3500 
L 1159 3500 
L 1159 2956 
Q 1341 3275 1631 3429 
Q 1922 3584 2338 3584 
Q 2397 3584 2469 3576 
Q 2541 3569 2628 3553 
L 2631 2963 
z
" transform="scale(0.015625)"/>
       <path id="DejaVuSans-71" d="M 947 1747 
Q 947 1113 1208 752 
Q 1469 391 1925 391 
Q 2381 391 2643 752 
Q 2906 1113 2906 1747 
Q 2906 2381 2643 2742 
Q 2381 3103 1925 3103 
Q 1469 3103 1208 2742 
Q 947 2381 947 1747 
z
M 2906 525 
Q 2725 213 2448 61 
Q 2172 -91 1784 -91 
Q 1150 -91 751 415 
Q 353 922 353 1747 
Q 353 2572 751 3078 
Q 1150 3584 1784 3584 
Q 2172 3584 2448 3432 
Q 2725 3281 2906 2969 
L 2906 3500 
L 3481 3500 
L 3481 -1331 
L 2906 -1331 
L 2906 525 
z
" transform="scale(0.015625)"/>
       <path id="DejaVuSans-75" d="M 544 1381 
L 544 3500 
L 1119 3500 
L 1119 1403 
Q 1119 906 1312 657 
Q 1506 409 1894 409 
Q 2359 409 2629 706 
Q 2900 1003 2900 1516 
L 2900 3500 
L 3475 3500 
L 3475 0 
L 2900 0 
L 2900 538 
Q 2691 219 2414 64 
Q 2138 -91 1772 -91 
Q 1169 -91 856 284 
Q 544 659 544 1381 
z
M 1991 3584 
L 1991 3584 
z
" transform="scale(0.015625)"/>
       <path id="DejaVuSans-6e" d="M 3513 2113 
L 3513 0 
L 2938 0 
L 2938 2094 
Q 2938 2591 2744 2837 
Q 2550 3084 2163 3084 
Q 1697 3084 1428 2787 
Q 1159 2491 1159 1978 
L 1159 0 
L 581 0 
L 581 3500 
L 1159 3500 
L 1159 2956 
Q 1366 3272 1645 3428 
Q 1925 3584 2291 3584 
Q 2894 3584 3203 3211 
Q 3513 2838 3513 2113 
z
" transform="scale(0.015625)"/>
       <path id="DejaVuSans-79" d="M 2059 -325 
Q 1816 -950 1584 -1140 
Q 1353 -1331 966 -1331 
L 506 -1331 
L 506 -850 
L 844 -850 
Q 1081 -850 1212 -737 
Q 1344 -625 1503 -206 
L 1606 56 
L 191 3500 
L 800 3500 
L 1894 763 
L 2988 3500 
L 3597 3500 
L 2059 -325 
z
" transform="scale(0.015625)"/>
       <path id="DejaVuSans-5b" d="M 550 4863 
L 1875 4863 
L 1875 4416 
L 1125 4416 
L 1125 -397 
L 1875 -397 
L 1875 -844 
L 550 -844 
L 550 4863 
z
" transform="scale(0.015625)"/>
       <path id="DejaVuSans-4d" d="M 628 4666 
L 1569 4666 
L 2759 1491 
L 3956 4666 
L 4897 4666 
L 4897 0 
L 4281 0 
L 4281 4097 
L 3078 897 
L 2444 897 
L 1241 4097 
L 1241 0 
L 628 0 
L 628 4666 
z
" transform="scale(0.015625)"/>
       <path id="DejaVuSans-48" d="M 628 4666 
L 1259 4666 
L 1259 2753 
L 3553 2753 
L 3553 4666 
L 4184 4666 
L 4184 0 
L 3553 0 
L 3553 2222 
L 1259 2222 
L 1259 0 
L 628 0 
L 628 4666 
z
" transform="scale(0.015625)"/>
       <path id="DejaVuSans-7a" d="M 353 3500 
L 3084 3500 
L 3084 2975 
L 922 459 
L 3084 459 
L 3084 0 
L 275 0 
L 275 525 
L 2438 3041 
L 353 3041 
L 353 3500 
z
" transform="scale(0.015625)"/>
       <path id="DejaVuSans-5d" d="M 1947 4863 
L 1947 -844 
L 622 -844 
L 622 -397 
L 1369 -397 
L 1369 4416 
L 622 4416 
L 622 4863 
L 1947 4863 
z
" transform="scale(0.015625)"/>
      </defs>
      <use xlink:href="#DejaVuSans-53"/>
      <use xlink:href="#DejaVuSans-70" x="63.476562"/>
      <use xlink:href="#DejaVuSans-65" x="126.953125"/>
      <use xlink:href="#DejaVuSans-63" x="188.476562"/>
      <use xlink:href="#DejaVuSans-20" x="243.457031"/>
      <use xlink:href="#DejaVuSans-66" x="275.244141"/>
      <use xlink:href="#DejaVuSans-72" x="310.449219"/>
      <use xlink:href="#DejaVuSans-65" x="349.3125"/>
      <use xlink:href="#DejaVuSans-71" x="410.835938"/>
      <use xlink:href="#DejaVuSans-75" x="474.3125"/>
      <use xlink:href="#DejaVuSans-65" x="537.691406"/>
      <use xlink:href="#DejaVuSans-6e" x="599.214844"/>
      <use xlink:href="#DejaVuSans-63" x="662.59375"/>
      <use xlink:href="#DejaVuSans-79" x="717.574219"/>
      <use xlink:href="#DejaVuSans-20" x="776.753906"/>
      <use xlink:href="#DejaVuSans-5b" x="808.541016"/>
      <use xlink:href="#DejaVuSans-4d" x="847.554688"/>
      <use xlink:href="#DejaVuSans-48" x="933.833984"/>
      <use xlink:href="#DejaVuSans-7a" x="1009.029297"/>
      <use xlink:href="#DejaVuSans-5d" x="1061.519531"/>
     </g>
    </g>
    <g id="text_9">
     <!-- +5 GHz -->
     <g transform="translate(365.648125 335.148562) scale(0.1 -0.1)">
      <defs>
       <path id="DejaVuSans-2b" d="M 2944 4013 
L 2944 2272 
L 4684 2272 
L 4684 1741 
L 2944 1741 
L 2944 0 
L 2419 0 
L 2419 1741 
L 678 1741 
L 678 2272 
L 2419 2272 
L 2419 4013 
L 2944 4013 
z
" transform="scale(0.015625)"/>
       <path id="DejaVuSans-47" d="M 3809 666 
L 3809 1919 
L 2778 1919 
L 2778 2438 
L 4434 2438 
L 4434 434 
Q 4069 175 3628 42 
Q 3188 -91 2688 -91 
Q 1594 -91 976 548 
Q 359 1188 359 2328 
Q 359 3472 976 4111 
Q 1594 4750 2688 4750 
Q 3144 4750 3555 4637 
Q 3966 4525 4313 4306 
L 4313 3634 
Q 3963 3931 3569 4081 
Q 3175 4231 2741 4231 
Q 1884 4231 1454 3753 
Q 1025 3275 1025 2328 
Q 1025 1384 1454 906 
Q 1884 428 2741 428 
Q 3075 428 3337 486 
Q 3600 544 3809 666 
z
" transform="scale(0.015625)"/>
      </defs>
      <use xlink:href="#DejaVuSans-2b"/>
      <use xlink:href="#DejaVuSans-35" x="83.789062"/>
      <use xlink:href="#DejaVuSans-20" x="147.412109"/>
      <use xlink:href="#DejaVuSans-47" x="179.199219"/>
      <use xlink:href="#DejaVuSans-48" x="256.689453"/>
      <use xlink:href="#DejaVuSans-7a" x="331.884766"/>
     </g>
    </g>
   </g>
   <g id="matplotlib.axis_2">
    <g id="ytick_1">
     <g id="line2d_8">
      <defs>
       <path id="m16381dddc6" d="M 0 0 
L -3.5 0 
" style="stroke: #000000; stroke-width: 0.8"/>
      </defs>
      <g>
       <use xlink:href="#m16381dddc6" x="46.965625" y="307.585872" style="stroke: #000000; stroke-width: 0.8"/>
      </g>
     </g>
     <g id="text_10">
      <!-- 138 -->
      <g transform="translate(20.878125 311.38509) scale(0.1 -0.1)">
       <defs>
        <path id="DejaVuSans-33" d="M 2597 2516 
Q 3050 2419 3304 2112 
Q 3559 1806 3559 1356 
Q 3559 666 3084 287 
Q 2609 -91 1734 -91 
Q 1441 -91 1130 -33 
Q 819 25 488 141 
L 488 750 
Q 750 597 1062 519 
Q 1375 441 1716 441 
Q 2309 441 2620 675 
Q 2931 909 2931 1356 
Q 2931 1769 2642 2001 
Q 2353 2234 1838 2234 
L 1294 2234 
L 1294 2753 
L 1863 2753 
Q 2328 2753 2575 2939 
Q 2822 3125 2822 3475 
Q 2822 3834 2567 4026 
Q 2313 4219 1838 4219 
Q 1578 4219 1281 4162 
Q 984 4106 628 3988 
L 628 4550 
Q 988 4650 1302 4700 
Q 1616 4750 1894 4750 
Q 2613 4750 3031 4423 
Q 3450 4097 3450 3541 
Q 3450 3153 3228 2886 
Q 3006 2619 2597 2516 
z
" transform="scale(0.015625)"/>
        <path id="DejaVuSans-38" d="M 2034 2216 
Q 1584 2216 1326 1975 
Q 1069 1734 1069 1313 
Q 1069 891 1326 650 
Q 1584 409 2034 409 
Q 2484 409 2743 651 
Q 3003 894 3003 1313 
Q 3003 1734 2745 1975 
Q 2488 2216 2034 2216 
z
M 1403 2484 
Q 997 2584 770 2862 
Q 544 3141 544 3541 
Q 544 4100 942 4425 
Q 1341 4750 2034 4750 
Q 2731 4750 3128 4425 
Q 3525 4100 3525 3541 
Q 3525 3141 3298 2862 
Q 3072 2584 2669 2484 
Q 3125 2378 3379 2068 
Q 3634 1759 3634 1313 
Q 3634 634 3220 271 
Q 2806 -91 2034 -91 
Q 1263 -91 848 271 
Q 434 634 434 1313 
Q 434 1759 690 2068 
Q 947 2378 1403 2484 
z
M 1172 3481 
Q 1172 3119 1398 2916 
Q 1625 2713 2034 2713 
Q 2441 2713 2670 2916 
Q 2900 3119 2900 3481 
Q 2900 3844 2670 4047 
Q 2441 4250 2034 4250 
Q 1625 4250 1398 4047 
Q 1172 3844 1172 3481 
z
" transform="scale(0.015625)"/>
       </defs>
       <use xlink:href="#DejaVuSans-31"/>
       <use xlink:href="#DejaVuSans-33" x="63.623047"/>
       <use xlink:href="#DejaVuSans-38" x="127.246094"/>
      </g>
     </g>
    </g>
    <g id="ytick_2">
     <g id="line2d_9">
      <g>
       <use xlink:href="#m16381dddc6" x="46.965625" y="276.530361" style="stroke: #000000; stroke-width: 0.8"/>
      </g>
     </g>
     <g id="text_11">
      <!-- 140 -->
      <g transform="translate(20.878125 280.32958) scale(0.1 -0.1)">
       <defs>
        <path id="DejaVuSans-34" d="M 2419 4116 
L 825 1625 
L 2419 1625 
L 2419 4116 
z
M 2253 4666 
L 3047 4666 
L 3047 1625 
L 3713 1625 
L 3713 1100 
L 3047 1100 
L 3047 0 
L 2419 0 
L 2419 1100 
L 313 1100 
L 313 1709 
L 2253 4666 
z
" transform="scale(0.015625)"/>
       </defs>
       <use xlink:href="#DejaVuSans-31"/>
       <use xlink:href="#DejaVuSans-34" x="63.623047"/>
       <use xlink:href="#DejaVuSans-30" x="127.246094"/>
      </g>
     </g>
    </g>
    <g id="ytick_3">
     <g id="line2d_10">
      <g>
       <use xlink:href="#m16381dddc6" x="46.965625" y="245.47485" style="stroke: #000000; stroke-width: 0.8"/>
      </g>
     </g>
     <g id="text_12">
      <!-- 142 -->
      <g transform="translate(20.878125 249.274069) scale(0.1 -0.1)">
       <use xlink:href="#DejaVuSans-31"/>
       <use xlink:href="#DejaVuSans-34" x="63.623047"/>
       <use xlink:href="#DejaVuSans-32" x="127.246094"/>
      </g>
     </g>
    </g>
    <g id="ytick_4">
     <g id="line2d_11">
      <g>
       <use xlink:href="#m16381dddc6" x="46.965625" y="214.41934" style="stroke: #000000; stroke-width: 0.8"/>
      </g>
     </g>
     <g id="text_13">
      <!-- 144 -->
      <g transform="translate(20.878125 218.218558) scale(0.1 -0.1)">
       <use xlink:href="#DejaVuSans-31"/>
       <use xlink:href="#DejaVuSans-34" x="63.623047"/>
       <use xlink:href="#DejaVuSans-34" x="127.246094"/>
      </g>
     </g>
    </g>
    <g id="ytick_5">
     <g id="line2d_12">
      <g>
       <use xlink:href="#m16381dddc6" x="46.965625" y="183.363829" style="stroke: #000000; stroke-width: 0.8"/>
      </g>
     </g>
     <g id="text_14">
      <!-- 146 -->
      <g transform="translate(20.878125 187.163048) scale(0.1 -0.1)">
       <defs>
        <path id="DejaVuSans-36" d="M 2113 2584 
Q 1688 2584 1439 2293 
Q 1191 2003 1191 1497 
Q 1191 994 1439 701 
Q 1688 409 2113 409 
Q 2538 409 2786 701 
Q 3034 994 3034 1497 
Q 3034 2003 2786 2293 
Q 2538 2584 2113 2584 
z
M 3366 4563 
L 3366 3988 
Q 3128 4100 2886 4159 
Q 2644 4219 2406 4219 
Q 1781 4219 1451 3797 
Q 1122 3375 1075 2522 
Q 1259 2794 1537 2939 
Q 1816 3084 2150 3084 
Q 2853 3084 3261 2657 
Q 3669 2231 3669 1497 
Q 3669 778 3244 343 
Q 2819 -91 2113 -91 
Q 1303 -91 875 529 
Q 447 1150 447 2328 
Q 447 3434 972 4092 
Q 1497 4750 2381 4750 
Q 2619 4750 2861 4703 
Q 3103 4656 3366 4563 
z
" transform="scale(0.015625)"/>
       </defs>
       <use xlink:href="#DejaVuSans-31"/>
       <use xlink:href="#DejaVuSans-34" x="63.623047"/>
       <use xlink:href="#DejaVuSans-36" x="127.246094"/>
      </g>
     </g>
    </g>
    <g id="ytick_6">
     <g id="line2d_13">
      <g>
       <use xlink:href="#m16381dddc6" x="46.965625" y="152.308318" style="stroke: #000000; stroke-width: 0.8"/>
      </g>
     </g>
     <g id="text_15">
      <!-- 148 -->
      <g transform="translate(20.878125 156.107537) scale(0.1 -0.1)">
       <use xlink:href="#DejaVuSans-31"/>
       <use xlink:href="#DejaVuSans-34" x="63.623047"/>
       <use xlink:href="#DejaVuSans-38" x="127.246094"/>
      </g>
     </g>
    </g>
    <g id="ytick_7">
     <g id="line2d_14">
      <g>
       <use xlink:href="#m16381dddc6" x="46.965625" y="121.252807" style="stroke: #000000; stroke-width: 0.8"/>
      </g>
     </g>
     <g id="text_16">
      <!-- 150 -->
      <g transform="translate(20.878125 125.052026) scale(0.1 -0.1)">
       <use xlink:href="#DejaVuSans-31"/>
       <use xlink:href="#DejaVuSans-35" x="63.623047"/>
       <use xlink:href="#DejaVuSans-30" x="127.246094"/>
      </g>
     </g>
    </g>
    <g id="ytick_8">
     <g id="line2d_15">
      <g>
       <use xlink:href="#m16381dddc6" x="46.965625" y="90.197297" style="stroke: #000000; stroke-width: 0.8"/>
      </g>
     </g>
     <g id="text_17">
      <!-- 152 -->
      <g transform="translate(20.878125 93.996515) scale(0.1 -0.1)">
       <use xlink:href="#DejaVuSans-31"/>
       <use xlink:href="#DejaVuSans-35" x="63.623047"/>
       <use xlink:href="#DejaVuSans-32" x="127.246094"/>
      </g>
     </g>
    </g>
    <g id="ytick_9">
     <g id="line2d_16">
      <g>
       <use xlink:href="#m16381dddc6" x="46.965625" y="59.141786" style="stroke: #000000; stroke-width: 0.8"/>
      </g>
     </g>
     <g id="text_18">
      <!-- 154 -->
      <g transform="translate(20.878125 62.941005) scale(0.1 -0.1)">
       <use xlink:href="#DejaVuSans-31"/>
       <use xlink:href="#DejaVuSans-35" x="63.623047"/>
       <use xlink:href="#DejaVuSans-34" x="127.246094"/>
      </g>
     </g>
    </g>
    <g id="text_19">
     <!-- Phase0 [deg] -->
     <g transform="translate(14.798438 207.841781) rotate(-90) scale(0.1 -0.1)">
      <defs>
       <path id="DejaVuSans-50" d="M 1259 4147 
L 1259 2394 
L 2053 2394 
Q 2494 2394 2734 2622 
Q 2975 2850 2975 3272 
Q 2975 3691 2734 3919 
Q 2494 4147 2053 4147 
L 1259 4147 
z
M 628 4666 
L 2053 4666 
Q 2838 4666 3239 4311 
Q 3641 3956 3641 3272 
Q 3641 2581 3239 2228 
Q 2838 1875 2053 1875 
L 1259 1875 
L 1259 0 
L 628 0 
L 628 4666 
z
" transform="scale(0.015625)"/>
       <path id="DejaVuSans-68" d="M 3513 2113 
L 3513 0 
L 2938 0 
L 2938 2094 
Q 2938 2591 2744 2837 
Q 2550 3084 2163 3084 
Q 1697 3084 1428 2787 
Q 1159 2491 1159 1978 
L 1159 0 
L 581 0 
L 581 4863 
L 1159 4863 
L 1159 2956 
Q 1366 3272 1645 3428 
Q 1925 3584 2291 3584 
Q 2894 3584 3203 3211 
Q 3513 2838 3513 2113 
z
" transform="scale(0.015625)"/>
       <path id="DejaVuSans-61" d="M 2194 1759 
Q 1497 1759 1228 1600 
Q 959 1441 959 1056 
Q 959 750 1161 570 
Q 1363 391 1709 391 
Q 2188 391 2477 730 
Q 2766 1069 2766 1631 
L 2766 1759 
L 2194 1759 
z
M 3341 1997 
L 3341 0 
L 2766 0 
L 2766 531 
Q 2569 213 2275 61 
Q 1981 -91 1556 -91 
Q 1019 -91 701 211 
Q 384 513 384 1019 
Q 384 1609 779 1909 
Q 1175 2209 1959 2209 
L 2766 2209 
L 2766 2266 
Q 2766 2663 2505 2880 
Q 2244 3097 1772 3097 
Q 1472 3097 1187 3025 
Q 903 2953 641 2809 
L 641 3341 
Q 956 3463 1253 3523 
Q 1550 3584 1831 3584 
Q 2591 3584 2966 3190 
Q 3341 2797 3341 1997 
z
" transform="scale(0.015625)"/>
       <path id="DejaVuSans-73" d="M 2834 3397 
L 2834 2853 
Q 2591 2978 2328 3040 
Q 2066 3103 1784 3103 
Q 1356 3103 1142 2972 
Q 928 2841 928 2578 
Q 928 2378 1081 2264 
Q 1234 2150 1697 2047 
L 1894 2003 
Q 2506 1872 2764 1633 
Q 3022 1394 3022 966 
Q 3022 478 2636 193 
Q 2250 -91 1575 -91 
Q 1294 -91 989 -36 
Q 684 19 347 128 
L 347 722 
Q 666 556 975 473 
Q 1284 391 1588 391 
Q 1994 391 2212 530 
Q 2431 669 2431 922 
Q 2431 1156 2273 1281 
Q 2116 1406 1581 1522 
L 1381 1569 
Q 847 1681 609 1914 
Q 372 2147 372 2553 
Q 372 3047 722 3315 
Q 1072 3584 1716 3584 
Q 2034 3584 2315 3537 
Q 2597 3491 2834 3397 
z
" transform="scale(0.015625)"/>
       <path id="DejaVuSans-64" d="M 2906 2969 
L 2906 4863 
L 3481 4863 
L 3481 0 
L 2906 0 
L 2906 525 
Q 2725 213 2448 61 
Q 2172 -91 1784 -91 
Q 1150 -91 751 415 
Q 353 922 353 1747 
Q 353 2572 751 3078 
Q 1150 3584 1784 3584 
Q 2172 3584 2448 3432 
Q 2725 3281 2906 2969 
z
M 947 1747 
Q 947 1113 1208 752 
Q 1469 391 1925 391 
Q 2381 391 2643 752 
Q 2906 1113 2906 1747 
Q 2906 2381 2643 2742 
Q 2381 3103 1925 3103 
Q 1469 3103 1208 2742 
Q 947 2381 947 1747 
z
" transform="scale(0.015625)"/>
       <path id="DejaVuSans-67" d="M 2906 1791 
Q 2906 2416 2648 2759 
Q 2391 3103 1925 3103 
Q 1463 3103 1205 2759 
Q 947 2416 947 1791 
Q 947 1169 1205 825 
Q 1463 481 1925 481 
Q 2391 481 2648 825 
Q 2906 1169 2906 1791 
z
M 3481 434 
Q 3481 -459 3084 -895 
Q 2688 -1331 1869 -1331 
Q 1566 -1331 1297 -1286 
Q 1028 -1241 775 -1147 
L 775 -588 
Q 1028 -725 1275 -790 
Q 1522 -856 1778 -856 
Q 2344 -856 2625 -561 
Q 2906 -266 2906 331 
L 2906 616 
Q 2728 306 2450 153 
Q 2172 0 1784 0 
Q 1141 0 747 490 
Q 353 981 353 1791 
Q 353 2603 747 3093 
Q 1141 3584 1784 3584 
Q 2172 3584 2450 3431 
Q 2728 3278 2906 2969 
L 2906 3500 
L 3481 3500 
L 3481 434 
z
" transform="scale(0.015625)"/>
      </defs>
      <use xlink:href="#DejaVuSans-50"/>
      <use xlink:href="#DejaVuSans-68" x="60.302734"/>
      <use xlink:href="#DejaVuSans-61" x="123.681641"/>
      <use xlink:href="#DejaVuSans-73" x="184.960938"/>
      <use xlink:href="#DejaVuSans-65" x="237.060547"/>
      <use xlink:href="#DejaVuSans-30" x="298.583984"/>
      <use xlink:href="#DejaVuSans-20" x="362.207031"/>
      <use xlink:href="#DejaVuSans-5b" x="393.994141"/>
      <use xlink:href="#DejaVuSans-64" x="433.007812"/>
      <use xlink:href="#DejaVuSans-65" x="496.484375"/>
      <use xlink:href="#DejaVuSans-67" x="558.007812"/>
      <use xlink:href="#DejaVuSans-5d" x="621.484375"/>
     </g>
    </g>
   </g>
   <g id="line2d_17">
    <path d="M 63.198352 237.895716 
L 64.321724 242.483798 
L 65.445097 240.07121 
L 66.568469 252.751975 
L 67.691841 232.122901 
L 68.815213 220.418106 
L 69.938585 269.999449 
L 71.061957 248.101202 
L 72.185329 243.58037 
L 73.308701 225.696878 
L 74.432074 226.442186 
L 75.555446 240.723598 
L 76.678818 227.083574 
L 77.80219 234.575994 
L 78.925562 246.344937 
L 80.048934 242.580173 
L 81.172306 236.078965 
L 82.295678 258.355287 
L 83.419051 270.65804 
L 84.542423 261.46557 
L 85.665795 257.792682 
L 86.789167 248.566091 
L 87.912539 253.775978 
L 89.035911 253.950101 
L 90.159283 222.720096 
L 91.282656 232.140455 
L 92.406028 251.19675 
L 93.5294 245.596589 
L 94.652772 259.550886 
L 95.776144 233.032762 
L 96.899516 253.258021 
L 98.022888 232.587715 
L 99.14626 265.616532 
L 100.269633 261.415853 
L 101.393005 268.849409 
L 102.516377 246.666723 
L 103.639749 252.558104 
L 104.763121 233.827269 
L 105.886493 255.128917 
L 107.009865 245.801735 
L 108.133237 254.469775 
L 109.25661 219.393303 
L 110.379982 231.413609 
L 111.503354 234.000802 
L 112.626726 238.56535 
L 113.750098 247.631548 
L 114.87347 221.165917 
L 115.996842 229.237872 
L 117.120214 244.945381 
L 118.243587 243.348497 
L 119.366959 224.821211 
L 120.490331 252.356265 
L 121.613703 231.245699 
L 122.737075 239.81427 
L 123.860447 253.118473 
L 124.983819 255.083847 
L 126.107192 273.684501 
L 127.230564 253.550807 
L 128.353936 261.557238 
L 129.477308 277.75121 
L 130.60068 261.037626 
L 131.724052 251.214406 
L 132.847424 245.073207 
L 133.970796 253.845791 
L 135.094169 253.287265 
L 136.217541 268.967569 
L 137.340913 267.029875 
L 138.464285 258.047258 
L 139.587657 273.082499 
L 140.711029 252.954291 
L 141.834401 260.306872 
L 142.957773 283.323754 
L 144.081146 252.380487 
L 145.204518 258.195516 
L 146.32789 258.210739 
L 147.451262 254.313691 
L 148.574634 240.651067 
L 149.698006 235.215382 
L 150.821378 236.742209 
L 151.944751 250.454983 
L 153.068123 248.612364 
L 154.191495 271.805209 
L 155.314867 251.574391 
L 156.438239 254.9683 
L 157.561611 242.464611 
L 159.808355 256.990251 
L 160.931728 249.819791 
L 162.0551 258.491973 
L 163.178472 239.543239 
L 164.301844 270.090493 
L 165.425216 273.606072 
L 166.548588 236.594812 
L 167.67196 264.31607 
L 168.795332 260.374978 
L 169.918705 235.215203 
L 171.042077 229.550622 
L 172.165449 251.316283 
L 173.288821 236.989559 
L 174.412193 226.831358 
L 175.535565 215.562878 
L 176.658937 242.906727 
L 177.782309 235.616276 
L 178.905682 232.18366 
L 180.029054 257.901251 
L 181.152426 256.913727 
L 182.275798 230.022855 
L 183.39917 279.544993 
L 184.522542 253.419814 
L 185.645914 255.235283 
L 187.892659 232.674121 
L 189.016031 248.807076 
L 190.139403 242.571217 
L 191.262775 232.655058 
L 192.386147 258.492638 
L 193.509519 244.904115 
L 194.632891 248.789239 
L 195.756264 255.490506 
L 196.879636 264.006991 
L 199.12638 239.343717 
L 200.249752 244.206824 
L 201.373124 245.991817 
L 202.496496 264.615367 
L 203.619868 255.623558 
L 204.743241 236.436841 
L 205.866613 228.694001 
L 206.989985 235.926868 
L 208.113357 227.457441 
L 209.236729 239.71962 
L 210.360101 247.49123 
L 211.483473 244.960828 
L 212.606846 215.314292 
L 213.730218 258.498906 
L 214.85359 250.281639 
L 215.976962 238.158233 
L 217.100334 238.979987 
L 218.223706 241.508476 
L 219.347078 250.47414 
L 220.47045 252.576684 
L 221.593823 258.455972 
L 222.717195 267.296115 
L 223.840567 248.043811 
L 224.963939 245.165547 
L 226.087311 268.575449 
L 227.210683 240.427796 
L 229.457427 295.776 
L 230.5808 285.74929 
L 231.704172 254.132823 
L 232.827544 237.64443 
L 235.074288 253.790679 
L 236.19766 270.74379 
L 237.321032 251.846077 
L 238.444404 245.22998 
L 239.567777 260.923929 
L 240.691149 257.468869 
L 241.814521 251.199695 
L 242.937893 268.031462 
L 244.061265 256.706144 
L 245.184637 276.869605 
L 246.308009 283.537515 
L 247.431382 267.456605 
L 248.554754 273.941637 
L 249.678126 274.927743 
L 250.801498 241.798354 
L 251.92487 252.698153 
L 253.048242 291.890731 
L 254.171614 269.541561 
L 255.294986 236.995126 
L 257.541731 266.604907 
L 258.665103 244.037176 
L 259.788475 248.106222 
L 260.911847 259.330577 
L 262.035219 268.252047 
L 263.158591 265.102153 
L 264.281963 261.226866 
L 265.405336 271.181115 
L 266.528708 266.129512 
L 267.65208 279.102487 
L 268.775452 244.123967 
L 269.898824 260.823749 
L 271.022196 251.334719 
L 272.145568 257.198684 
L 273.268941 242.09672 
L 274.392313 236.440099 
L 275.515685 283.545114 
L 276.639057 255.440044 
L 277.762429 262.968183 
L 278.885801 236.713903 
L 280.009173 265.654372 
L 281.132545 245.170697 
L 282.255918 252.952654 
L 283.37929 244.856886 
L 284.502662 263.043482 
L 285.626034 279.124329 
L 286.749406 279.749089 
L 287.872778 228.770201 
L 288.99615 263.193976 
L 290.119522 268.590078 
L 291.242895 255.479533 
L 292.366267 248.770324 
L 293.489639 237.978168 
L 294.613011 239.653499 
L 295.736383 264.867612 
L 296.859755 250.88001 
L 297.983127 245.26526 
L 299.106499 234.141369 
L 300.229872 231.532305 
L 301.353244 238.643106 
L 302.476616 229.336197 
L 303.599988 233.002519 
L 304.72336 242.957821 
L 305.846732 227.535338 
L 306.970104 255.469241 
L 308.093477 240.996156 
L 309.216849 256.629549 
L 310.340221 255.678502 
L 311.463593 260.985544 
L 312.586965 254.201124 
L 313.710337 254.36682 
L 314.833709 253.094113 
L 315.957081 264.225749 
L 317.080454 241.560771 
L 319.327198 256.371809 
L 320.45057 251.309795 
L 321.573942 240.757306 
L 322.697314 242.553959 
L 323.820686 217.804936 
L 324.944058 256.308828 
L 326.067431 224.688641 
L 327.190803 265.476705 
L 328.314175 234.617647 
L 329.437547 241.484164 
L 330.560919 267.30318 
L 331.684291 268.77847 
L 332.807663 235.942864 
L 333.931036 272.069793 
L 335.054408 269.686562 
L 336.17778 281.410496 
L 337.301152 255.667136 
L 338.424524 259.369034 
L 339.547896 262.471991 
L 340.671268 250.346582 
L 341.79464 212.461106 
L 342.918013 240.124996 
L 344.041385 66.348157 
L 345.164757 249.269324 
L 346.288129 240.878706 
L 347.411501 246.75051 
L 348.534873 251.1501 
L 349.658245 237.996834 
L 350.781617 247.973245 
L 351.90499 216.286372 
L 353.028362 249.217636 
L 354.151734 258.690769 
L 355.275106 245.373569 
L 356.398478 264.656891 
L 357.52185 281.447361 
L 358.645222 285.185652 
L 359.768594 253.933733 
L 360.891967 279.340925 
L 362.015339 244.462915 
L 363.138711 253.996938 
L 364.262083 254.296355 
L 365.385455 247.641168 
L 366.508827 258.740279 
L 367.632199 243.605928 
L 368.755572 252.821029 
L 369.878944 219.453071 
L 371.002316 266.131795 
L 372.125688 283.249311 
L 373.24906 261.029337 
L 374.372432 269.979565 
L 375.495804 273.445323 
L 376.619176 266.236743 
L 378.865921 283.166241 
L 379.989293 255.504835 
L 381.112665 234.903051 
L 382.236037 267.26287 
L 383.359409 275.77425 
L 384.482781 263.314098 
L 385.606153 230.297816 
L 386.729526 254.458823 
L 387.852898 249.338129 
L 387.852898 249.338129 
" clip-path="url(#pc14509c656)" style="fill: none; stroke: #440154; stroke-width: 1.5; stroke-linecap: square"/>
   </g>
   <g id="line2d_18">
    <path d="M 63.198352 247.398125 
L 64.321724 254.763203 
L 65.445097 231.806978 
L 66.568469 244.341438 
L 67.691841 238.466978 
L 68.815213 251.038123 
L 69.938585 228.40163 
L 71.061957 238.714541 
L 72.185329 217.683899 
L 73.308701 248.400006 
L 74.432074 240.394216 
L 75.555446 239.95866 
L 76.678818 230.074349 
L 77.80219 224.417107 
L 78.925562 221.460653 
L 80.048934 239.391536 
L 81.172306 246.018243 
L 82.295678 261.416174 
L 83.419051 232.076953 
L 84.542423 235.963523 
L 85.665795 238.997246 
L 86.789167 215.941654 
L 87.912539 240.354722 
L 89.035911 232.4805 
L 90.159283 251.666587 
L 91.282656 242.197751 
L 92.406028 258.670372 
L 94.652772 233.635781 
L 95.776144 224.879662 
L 96.899516 257.04291 
L 98.022888 221.765111 
L 99.14626 243.998252 
L 100.269633 245.598204 
L 101.393005 222.525096 
L 102.516377 239.933216 
L 103.639749 251.456384 
L 104.763121 249.454284 
L 105.886493 215.823981 
L 107.009865 251.256131 
L 108.133237 241.794588 
L 109.25661 235.476397 
L 110.379982 266.703356 
L 111.503354 239.486811 
L 112.626726 239.339192 
L 113.750098 232.705932 
L 114.87347 241.256015 
L 115.996842 238.442546 
L 117.120214 259.747033 
L 118.243587 261.576197 
L 119.366959 236.697133 
L 120.490331 247.852485 
L 121.613703 269.938004 
L 122.737075 233.330063 
L 123.860447 235.891253 
L 124.983819 258.724638 
L 127.230564 238.442991 
L 128.353936 255.954473 
L 129.477308 237.87066 
L 130.60068 243.071723 
L 131.724052 248.996212 
L 132.847424 242.351868 
L 133.970796 233.151874 
L 135.094169 236.432355 
L 136.217541 232.971048 
L 137.340913 240.782847 
L 138.464285 257.267731 
L 139.587657 234.585123 
L 140.711029 247.474261 
L 141.834401 214.510093 
L 142.957773 218.071259 
L 144.081146 263.004607 
L 145.204518 225.588307 
L 146.32789 232.458047 
L 147.451262 233.257089 
L 148.574634 215.813492 
L 149.698006 220.834007 
L 150.821378 217.204885 
L 151.944751 241.302595 
L 153.068123 223.411501 
L 154.191495 218.354135 
L 155.314867 159.921175 
L 156.438239 191.465373 
L 157.561611 219.086235 
L 158.684983 240.104171 
L 159.808355 227.211018 
L 160.931728 242.925253 
L 162.0551 249.207746 
L 163.178472 248.607633 
L 164.301844 252.385778 
L 165.425216 250.611753 
L 166.548588 231.323365 
L 167.67196 253.030254 
L 168.795332 235.565778 
L 169.918705 231.230176 
L 171.042077 243.811921 
L 172.165449 229.388767 
L 173.288821 227.1556 
L 174.412193 239.761857 
L 175.535565 236.029723 
L 176.658937 259.469105 
L 177.782309 246.823475 
L 178.905682 232.071923 
L 180.029054 248.759033 
L 181.152426 255.738051 
L 182.275798 236.813971 
L 183.39917 229.519297 
L 184.522542 246.657121 
L 185.645914 265.603289 
L 186.769287 280.912008 
L 187.892659 255.269011 
L 189.016031 255.93825 
L 190.139403 260.733054 
L 191.262775 229.89608 
L 192.386147 261.024676 
L 193.509519 255.516753 
L 194.632891 256.269321 
L 195.756264 245.875924 
L 196.879636 250.296718 
L 198.003008 246.994114 
L 200.249752 208.738801 
L 201.373124 241.845285 
L 202.496496 235.116101 
L 203.619868 234.424779 
L 204.743241 220.71676 
L 205.866613 191.531257 
L 206.989985 135.160609 
L 208.113357 165.072481 
L 209.236729 219.78166 
L 210.360101 242.421412 
L 211.483473 244.203148 
L 212.606846 236.518076 
L 213.730218 214.886261 
L 214.85359 245.220878 
L 215.976962 235.333484 
L 217.100334 266.840182 
L 218.223706 246.672044 
L 219.347078 245.461254 
L 220.47045 219.350154 
L 221.593823 230.506783 
L 222.717195 234.949872 
L 223.840567 244.159013 
L 224.963939 234.59721 
L 226.087311 259.466078 
L 227.210683 192.833436 
L 229.457427 247.630899 
L 230.5808 219.131033 
L 231.704172 242.769553 
L 232.827544 235.441685 
L 233.950916 207.840048 
L 235.074288 228.421951 
L 236.19766 237.422875 
L 237.321032 218.295784 
L 238.444404 216.845183 
L 239.567777 222.854789 
L 240.691149 233.563812 
L 241.814521 206.637798 
L 242.937893 255.928725 
L 244.061265 241.752588 
L 245.184637 236.691375 
L 246.308009 230.113921 
L 247.431382 256.290361 
L 248.554754 235.382779 
L 249.678126 251.126552 
L 251.92487 260.598293 
L 253.048242 250.726604 
L 254.171614 225.768432 
L 255.294986 229.244691 
L 256.418359 207.498783 
L 257.541731 198.88828 
L 258.665103 201.87229 
L 259.788475 233.826627 
L 260.911847 246.314346 
L 262.035219 228.975645 
L 263.158591 229.486541 
L 264.281963 265.469183 
L 265.405336 226.550665 
L 266.528708 227.103315 
L 267.65208 210.286361 
L 268.775452 188.08214 
L 269.898824 176.460036 
L 271.022196 238.295797 
L 272.145568 236.193582 
L 273.268941 244.198495 
L 274.392313 210.507054 
L 275.515685 162.29736 
L 276.639057 182.306713 
L 277.762429 172.804727 
L 278.885801 221.319011 
L 280.009173 243.430945 
L 281.132545 228.100976 
L 283.37929 181.925123 
L 284.502662 175.91787 
L 285.626034 186.422424 
L 286.749406 258.440014 
L 287.872778 193.462956 
L 288.99615 173.409392 
L 290.119522 223.889127 
L 291.242895 261.393231 
L 292.366267 205.352047 
L 293.489639 162.904536 
L 294.613011 207.269988 
L 295.736383 217.939616 
L 296.859755 139.031189 
L 299.106499 213.934771 
L 300.229872 170.237465 
L 301.353244 199.024884 
L 302.476616 156.816516 
L 303.599988 181.780934 
L 304.72336 171.791524 
L 305.846732 149.00196 
L 306.970104 183.510184 
L 308.093477 170.205447 
L 309.216849 158.356369 
L 310.340221 201.74826 
L 311.463593 155.707831 
L 312.586965 127.556814 
L 313.710337 110.421484 
L 314.833709 136.382506 
L 315.957081 123.25063 
L 317.080454 128.053861 
L 318.203826 121.076844 
L 319.327198 90.320474 
L 320.45057 150.177344 
L 321.573942 86.315449 
L 322.697314 112.041192 
L 323.820686 91.640371 
L 324.944058 171.870426 
L 326.067431 123.332508 
L 327.190803 173.153803 
L 328.314175 133.287351 
L 329.437547 68.426794 
L 330.560919 137.093664 
L 331.684291 153.200375 
L 332.807663 108.675039 
L 333.931036 71.667685 
L 335.054408 70.065492 
L 336.17778 63.124543 
L 337.301152 56.98316 
L 338.424524 60.492499 
L 339.547896 83.762167 
L 340.671268 60.748952 
L 341.79464 162.303163 
L 342.918013 70.317235 
L 344.041385 116.208577 
L 345.164757 53.856 
L 346.288129 61.268333 
L 347.411501 129.943049 
L 348.534873 102.188081 
L 349.658245 65.680104 
L 350.781617 70.367097 
L 353.028362 165.06189 
L 354.151734 77.488489 
L 355.275106 176.055881 
L 356.398478 171.060657 
L 357.52185 117.884783 
L 358.645222 89.600722 
L 359.768594 85.155588 
L 360.891967 106.029712 
L 362.015339 108.456639 
L 363.138711 91.522414 
L 364.262083 221.243847 
L 365.385455 92.63753 
L 366.508827 174.071939 
L 369.878944 84.854922 
L 371.002316 102.974057 
L 372.125688 102.191187 
L 373.24906 116.750655 
L 374.372432 111.560928 
L 375.495804 164.754672 
L 376.619176 206.268752 
L 377.742549 197.11746 
L 378.865921 141.538644 
L 379.989293 149.259174 
L 381.112665 258.612282 
L 382.236037 153.982677 
L 383.359409 166.953177 
L 384.482781 131.916521 
L 385.606153 132.334114 
L 386.729526 157.588785 
L 387.852898 141.358389 
L 387.852898 141.358389 
" clip-path="url(#pc14509c656)" style="fill: none; stroke: #fde725; stroke-width: 1.5; stroke-linecap: square"/>
   </g>
   <g id="patch_3">
    <path d="M 46.965625 307.872 
L 46.965625 41.76 
" style="fill: none; stroke: #000000; stroke-width: 0.8; stroke-linejoin: miter; stroke-linecap: square"/>
   </g>
   <g id="patch_4">
    <path d="M 404.085625 307.872 
L 404.085625 41.76 
" style="fill: none; stroke: #000000; stroke-width: 0.8; stroke-linejoin: miter; stroke-linecap: square"/>
   </g>
   <g id="patch_5">
    <path d="M 46.965625 307.872 
L 404.085625 307.872 
" style="fill: none; stroke: #000000; stroke-width: 0.8; stroke-linejoin: miter; stroke-linecap: square"/>
   </g>
   <g id="patch_6">
    <path d="M 46.965625 41.76 
L 404.085625 41.76 
" style="fill: none; stroke: #000000; stroke-width: 0.8; stroke-linejoin: miter; stroke-linecap: square"/>
   </g>
   <g id="legend_1">
    <g id="patch_7">
     <path d="M 423.941625 307.872 
L 717.31975 307.872 
Q 719.31975 307.872 719.31975 305.872 
L 719.31975 262.5595 
Q 719.31975 260.5595 717.31975 260.5595 
L 423.941625 260.5595 
Q 421.941625 260.5595 421.941625 262.5595 
L 421.941625 305.872 
Q 421.941625 307.872 423.941625 307.872 
z
" style="fill: #ffffff; opacity: 0.8; stroke: #cccccc; stroke-linejoin: miter"/>
    </g>
    <g id="text_20">
     <!-- q00 spec_mw Microwave-spectroscopy pulse amplitude () -->
     <g transform="translate(425.941625 272.157938) scale(0.1 -0.1)">
      <defs>
       <path id="DejaVuSans-5f" d="M 3263 -1063 
L 3263 -1509 
L -63 -1509 
L -63 -1063 
L 3263 -1063 
z
" transform="scale(0.015625)"/>
       <path id="DejaVuSans-6d" d="M 3328 2828 
Q 3544 3216 3844 3400 
Q 4144 3584 4550 3584 
Q 5097 3584 5394 3201 
Q 5691 2819 5691 2113 
L 5691 0 
L 5113 0 
L 5113 2094 
Q 5113 2597 4934 2840 
Q 4756 3084 4391 3084 
Q 3944 3084 3684 2787 
Q 3425 2491 3425 1978 
L 3425 0 
L 2847 0 
L 2847 2094 
Q 2847 2600 2669 2842 
Q 2491 3084 2119 3084 
Q 1678 3084 1418 2786 
Q 1159 2488 1159 1978 
L 1159 0 
L 581 0 
L 581 3500 
L 1159 3500 
L 1159 2956 
Q 1356 3278 1631 3431 
Q 1906 3584 2284 3584 
Q 2666 3584 2933 3390 
Q 3200 3197 3328 2828 
z
" transform="scale(0.015625)"/>
       <path id="DejaVuSans-77" d="M 269 3500 
L 844 3500 
L 1563 769 
L 2278 3500 
L 2956 3500 
L 3675 769 
L 4391 3500 
L 4966 3500 
L 4050 0 
L 3372 0 
L 2619 2869 
L 1863 0 
L 1184 0 
L 269 3500 
z
" transform="scale(0.015625)"/>
       <path id="DejaVuSans-69" d="M 603 3500 
L 1178 3500 
L 1178 0 
L 603 0 
L 603 3500 
z
M 603 4863 
L 1178 4863 
L 1178 4134 
L 603 4134 
L 603 4863 
z
" transform="scale(0.015625)"/>
       <path id="DejaVuSans-6f" d="M 1959 3097 
Q 1497 3097 1228 2736 
Q 959 2375 959 1747 
Q 959 1119 1226 758 
Q 1494 397 1959 397 
Q 2419 397 2687 759 
Q 2956 1122 2956 1747 
Q 2956 2369 2687 2733 
Q 2419 3097 1959 3097 
z
M 1959 3584 
Q 2709 3584 3137 3096 
Q 3566 2609 3566 1747 
Q 3566 888 3137 398 
Q 2709 -91 1959 -91 
Q 1206 -91 779 398 
Q 353 888 353 1747 
Q 353 2609 779 3096 
Q 1206 3584 1959 3584 
z
" transform="scale(0.015625)"/>
       <path id="DejaVuSans-76" d="M 191 3500 
L 800 3500 
L 1894 563 
L 2988 3500 
L 3597 3500 
L 2284 0 
L 1503 0 
L 191 3500 
z
" transform="scale(0.015625)"/>
       <path id="DejaVuSans-74" d="M 1172 4494 
L 1172 3500 
L 2356 3500 
L 2356 3053 
L 1172 3053 
L 1172 1153 
Q 1172 725 1289 603 
Q 1406 481 1766 481 
L 2356 481 
L 2356 0 
L 1766 0 
Q 1100 0 847 248 
Q 594 497 594 1153 
L 594 3053 
L 172 3053 
L 172 3500 
L 594 3500 
L 594 4494 
L 1172 4494 
z
" transform="scale(0.015625)"/>
       <path id="DejaVuSans-6c" d="M 603 4863 
L 1178 4863 
L 1178 0 
L 603 0 
L 603 4863 
z
" transform="scale(0.015625)"/>
       <path id="DejaVuSans-28" d="M 1984 4856 
Q 1566 4138 1362 3434 
Q 1159 2731 1159 2009 
Q 1159 1288 1364 580 
Q 1569 -128 1984 -844 
L 1484 -844 
Q 1016 -109 783 600 
Q 550 1309 550 2009 
Q 550 2706 781 3412 
Q 1013 4119 1484 4856 
L 1984 4856 
z
" transform="scale(0.015625)"/>
       <path id="DejaVuSans-29" d="M 513 4856 
L 1013 4856 
Q 1481 4119 1714 3412 
Q 1947 2706 1947 2009 
Q 1947 1309 1714 600 
Q 1481 -109 1013 -844 
L 513 -844 
Q 928 -128 1133 580 
Q 1338 1288 1338 2009 
Q 1338 2731 1133 3434 
Q 928 4138 513 4856 
z
" transform="scale(0.015625)"/>
      </defs>
      <use xlink:href="#DejaVuSans-71"/>
      <use xlink:href="#DejaVuSans-30" x="63.476562"/>
      <use xlink:href="#DejaVuSans-30" x="127.099609"/>
      <use xlink:href="#DejaVuSans-20" x="190.722656"/>
      <use xlink:href="#DejaVuSans-73" x="222.509766"/>
      <use xlink:href="#DejaVuSans-70" x="274.609375"/>
      <use xlink:href="#DejaVuSans-65" x="338.085938"/>
      <use xlink:href="#DejaVuSans-63" x="399.609375"/>
      <use xlink:href="#DejaVuSans-5f" x="454.589844"/>
      <use xlink:href="#DejaVuSans-6d" x="504.589844"/>
      <use xlink:href="#DejaVuSans-77" x="602.001953"/>
      <use xlink:href="#DejaVuSans-20" x="683.789062"/>
      <use xlink:href="#DejaVuSans-4d" x="715.576172"/>
      <use xlink:href="#DejaVuSans-69" x="801.855469"/>
      <use xlink:href="#DejaVuSans-63" x="829.638672"/>
      <use xlink:href="#DejaVuSans-72" x="884.619141"/>
      <use xlink:href="#DejaVuSans-6f" x="923.482422"/>
      <use xlink:href="#DejaVuSans-77" x="984.664062"/>
      <use xlink:href="#DejaVuSans-61" x="1066.451172"/>
      <use xlink:href="#DejaVuSans-76" x="1127.730469"/>
      <use xlink:href="#DejaVuSans-65" x="1186.910156"/>
      <use xlink:href="#DejaVuSans-2d" x="1248.433594"/>
      <use xlink:href="#DejaVuSans-73" x="1284.517578"/>
      <use xlink:href="#DejaVuSans-70" x="1336.617188"/>
      <use xlink:href="#DejaVuSans-65" x="1400.09375"/>
      <use xlink:href="#DejaVuSans-63" x="1461.617188"/>
      <use xlink:href="#DejaVuSans-74" x="1516.597656"/>
      <use xlink:href="#DejaVuSans-72" x="1555.806641"/>
      <use xlink:href="#DejaVuSans-6f" x="1594.669922"/>
      <use xlink:href="#DejaVuSans-73" x="1655.851562"/>
      <use xlink:href="#DejaVuSans-63" x="1707.951172"/>
      <use xlink:href="#DejaVuSans-6f" x="1762.931641"/>
      <use xlink:href="#DejaVuSans-70" x="1824.113281"/>
      <use xlink:href="#DejaVuSans-79" x="1887.589844"/>
      <use xlink:href="#DejaVuSans-20" x="1946.769531"/>
      <use xlink:href="#DejaVuSans-70" x="1978.556641"/>
      <use xlink:href="#DejaVuSans-75" x="2042.033203"/>
      <use xlink:href="#DejaVuSans-6c" x="2105.412109"/>
      <use xlink:href="#DejaVuSans-73" x="2133.195312"/>
      <use xlink:href="#DejaVuSans-65" x="2185.294922"/>
      <use xlink:href="#DejaVuSans-20" x="2246.818359"/>
      <use xlink:href="#DejaVuSans-61" x="2278.605469"/>
      <use xlink:href="#DejaVuSans-6d" x="2339.884766"/>
      <use xlink:href="#DejaVuSans-70" x="2437.296875"/>
      <use xlink:href="#DejaVuSans-6c" x="2500.773438"/>
      <use xlink:href="#DejaVuSans-69" x="2528.556641"/>
      <use xlink:href="#DejaVuSans-74" x="2556.339844"/>
      <use xlink:href="#DejaVuSans-75" x="2595.548828"/>
      <use xlink:href="#DejaVuSans-64" x="2658.927734"/>
      <use xlink:href="#DejaVuSans-65" x="2722.404297"/>
      <use xlink:href="#DejaVuSans-20" x="2783.927734"/>
      <use xlink:href="#DejaVuSans-28" x="2815.714844"/>
      <use xlink:href="#DejaVuSans-29" x="2854.728516"/>
     </g>
    </g>
    <g id="line2d_19">
     <path d="M 542.316625 283.614187 
L 552.316625 283.614187 
L 562.316625 283.614187 
" style="fill: none; stroke: #440154; stroke-width: 1.5; stroke-linecap: square"/>
    </g>
    <g id="text_21">
     <!-- 0.001 -->
     <g transform="translate(570.316625 287.114187) scale(0.1 -0.1)">
      <defs>
       <path id="DejaVuSans-2e" d="M 684 794 
L 1344 794 
L 1344 0 
L 684 0 
L 684 794 
z
" transform="scale(0.015625)"/>
      </defs>
      <use xlink:href="#DejaVuSans-30"/>
      <use xlink:href="#DejaVuSans-2e" x="63.623047"/>
      <use xlink:href="#DejaVuSans-30" x="95.410156"/>
      <use xlink:href="#DejaVuSans-30" x="159.033203"/>
      <use xlink:href="#DejaVuSans-31" x="222.65625"/>
     </g>
    </g>
    <g id="line2d_20">
     <path d="M 542.316625 298.292312 
L 552.316625 298.292312 
L 562.316625 298.292312 
" style="fill: none; stroke: #fde725; stroke-width: 1.5; stroke-linecap: square"/>
    </g>
    <g id="text_22">
     <!-- 0.081 -->
     <g transform="translate(570.316625 301.792312) scale(0.1 -0.1)">
      <use xlink:href="#DejaVuSans-30"/>
      <use xlink:href="#DejaVuSans-2e" x="63.623047"/>
      <use xlink:href="#DejaVuSans-30" x="95.410156"/>
      <use xlink:href="#DejaVuSans-38" x="159.033203"/>
      <use xlink:href="#DejaVuSans-31" x="222.65625"/>
     </g>
    </g>
   </g>
  </g>
  <g id="text_23">
   <!-- x0x1-y1 Pulsed spectroscopy vs power q00 -->
   <g transform="translate(90.053125 16.318125) scale(0.12 -0.12)">
    <defs>
     <path id="DejaVuSans-78" d="M 3513 3500 
L 2247 1797 
L 3578 0 
L 2900 0 
L 1881 1375 
L 863 0 
L 184 0 
L 1544 1831 
L 300 3500 
L 978 3500 
L 1906 2253 
L 2834 3500 
L 3513 3500 
z
" transform="scale(0.015625)"/>
    </defs>
    <use xlink:href="#DejaVuSans-78"/>
    <use xlink:href="#DejaVuSans-30" x="59.179688"/>
    <use xlink:href="#DejaVuSans-78" x="122.802734"/>
    <use xlink:href="#DejaVuSans-31" x="181.982422"/>
    <use xlink:href="#DejaVuSans-2d" x="245.605469"/>
    <use xlink:href="#DejaVuSans-79" x="279.939453"/>
    <use xlink:href="#DejaVuSans-31" x="339.119141"/>
    <use xlink:href="#DejaVuSans-20" x="402.742188"/>
    <use xlink:href="#DejaVuSans-50" x="434.529297"/>
    <use xlink:href="#DejaVuSans-75" x="493.082031"/>
    <use xlink:href="#DejaVuSans-6c" x="556.460938"/>
    <use xlink:href="#DejaVuSans-73" x="584.244141"/>
    <use xlink:href="#DejaVuSans-65" x="636.34375"/>
    <use xlink:href="#DejaVuSans-64" x="697.867188"/>
    <use xlink:href="#DejaVuSans-20" x="761.34375"/>
    <use xlink:href="#DejaVuSans-73" x="793.130859"/>
    <use xlink:href="#DejaVuSans-70" x="845.230469"/>
    <use xlink:href="#DejaVuSans-65" x="908.707031"/>
    <use xlink:href="#DejaVuSans-63" x="970.230469"/>
    <use xlink:href="#DejaVuSans-74" x="1025.210938"/>
    <use xlink:href="#DejaVuSans-72" x="1064.419922"/>
    <use xlink:href="#DejaVuSans-6f" x="1103.283203"/>
    <use xlink:href="#DejaVuSans-73" x="1164.464844"/>
    <use xlink:href="#DejaVuSans-63" x="1216.564453"/>
    <use xlink:href="#DejaVuSans-6f" x="1271.544922"/>
    <use xlink:href="#DejaVuSans-70" x="1332.726562"/>
    <use xlink:href="#DejaVuSans-79" x="1396.203125"/>
    <use xlink:href="#DejaVuSans-20" x="1455.382812"/>
    <use xlink:href="#DejaVuSans-76" x="1487.169922"/>
    <use xlink:href="#DejaVuSans-73" x="1546.349609"/>
    <use xlink:href="#DejaVuSans-20" x="1598.449219"/>
    <use xlink:href="#DejaVuSans-70" x="1630.236328"/>
    <use xlink:href="#DejaVuSans-6f" x="1693.712891"/>
    <use xlink:href="#DejaVuSans-77" x="1754.894531"/>
    <use xlink:href="#DejaVuSans-65" x="1836.681641"/>
    <use xlink:href="#DejaVuSans-72" x="1898.205078"/>
    <use xlink:href="#DejaVuSans-20" x="1939.318359"/>
    <use xlink:href="#DejaVuSans-71" x="1971.105469"/>
    <use xlink:href="#DejaVuSans-30" x="2034.582031"/>
    <use xlink:href="#DejaVuSans-30" x="2098.205078"/>
   </g>
   <!-- tuid: 20241114-114623-398-52aba6 -->
   <g transform="translate(110.2 29.7555) scale(0.12 -0.12)">
    <defs>
     <path id="DejaVuSans-3a" d="M 750 794 
L 1409 794 
L 1409 0 
L 750 0 
L 750 794 
z
M 750 3309 
L 1409 3309 
L 1409 2516 
L 750 2516 
L 750 3309 
z
" transform="scale(0.015625)"/>
     <path id="DejaVuSans-39" d="M 703 97 
L 703 672 
Q 941 559 1184 500 
Q 1428 441 1663 441 
Q 2288 441 2617 861 
Q 2947 1281 2994 2138 
Q 2813 1869 2534 1725 
Q 2256 1581 1919 1581 
Q 1219 1581 811 2004 
Q 403 2428 403 3163 
Q 403 3881 828 4315 
Q 1253 4750 1959 4750 
Q 2769 4750 3195 4129 
Q 3622 3509 3622 2328 
Q 3622 1225 3098 567 
Q 2575 -91 1691 -91 
Q 1453 -91 1209 -44 
Q 966 3 703 97 
z
M 1959 2075 
Q 2384 2075 2632 2365 
Q 2881 2656 2881 3163 
Q 2881 3666 2632 3958 
Q 2384 4250 1959 4250 
Q 1534 4250 1286 3958 
Q 1038 3666 1038 3163 
Q 1038 2656 1286 2365 
Q 1534 2075 1959 2075 
z
" transform="scale(0.015625)"/>
     <path id="DejaVuSans-62" d="M 3116 1747 
Q 3116 2381 2855 2742 
Q 2594 3103 2138 3103 
Q 1681 3103 1420 2742 
Q 1159 2381 1159 1747 
Q 1159 1113 1420 752 
Q 1681 391 2138 391 
Q 2594 391 2855 752 
Q 3116 1113 3116 1747 
z
M 1159 2969 
Q 1341 3281 1617 3432 
Q 1894 3584 2278 3584 
Q 2916 3584 3314 3078 
Q 3713 2572 3713 1747 
Q 3713 922 3314 415 
Q 2916 -91 2278 -91 
Q 1894 -91 1617 61 
Q 1341 213 1159 525 
L 1159 0 
L 581 0 
L 581 4863 
L 1159 4863 
L 1159 2969 
z
" transform="scale(0.015625)"/>
    </defs>
    <use xlink:href="#DejaVuSans-74"/>
    <use xlink:href="#DejaVuSans-75" x="39.208984"/>
    <use xlink:href="#DejaVuSans-69" x="102.587891"/>
    <use xlink:href="#DejaVuSans-64" x="130.371094"/>
    <use xlink:href="#DejaVuSans-3a" x="193.847656"/>
    <use xlink:href="#DejaVuSans-20" x="227.539062"/>
    <use xlink:href="#DejaVuSans-32" x="259.326172"/>
    <use xlink:href="#DejaVuSans-30" x="322.949219"/>
    <use xlink:href="#DejaVuSans-32" x="386.572266"/>
    <use xlink:href="#DejaVuSans-34" x="450.195312"/>
    <use xlink:href="#DejaVuSans-31" x="513.818359"/>
    <use xlink:href="#DejaVuSans-31" x="577.441406"/>
    <use xlink:href="#DejaVuSans-31" x="641.064453"/>
    <use xlink:href="#DejaVuSans-34" x="704.6875"/>
    <use xlink:href="#DejaVuSans-2d" x="768.310547"/>
    <use xlink:href="#DejaVuSans-31" x="804.394531"/>
    <use xlink:href="#DejaVuSans-31" x="868.017578"/>
    <use xlink:href="#DejaVuSans-34" x="931.640625"/>
    <use xlink:href="#DejaVuSans-36" x="995.263672"/>
    <use xlink:href="#DejaVuSans-32" x="1058.886719"/>
    <use xlink:href="#DejaVuSans-33" x="1122.509766"/>
    <use xlink:href="#DejaVuSans-2d" x="1186.132812"/>
    <use xlink:href="#DejaVuSans-33" x="1222.216797"/>
    <use xlink:href="#DejaVuSans-39" x="1285.839844"/>
    <use xlink:href="#DejaVuSans-38" x="1349.462891"/>
    <use xlink:href="#DejaVuSans-2d" x="1413.085938"/>
    <use xlink:href="#DejaVuSans-35" x="1449.169922"/>
    <use xlink:href="#DejaVuSans-32" x="1512.792969"/>
    <use xlink:href="#DejaVuSans-61" x="1576.416016"/>
    <use xlink:href="#DejaVuSans-62" x="1637.695312"/>
    <use xlink:href="#DejaVuSans-61" x="1701.171875"/>
    <use xlink:href="#DejaVuSans-36" x="1762.451172"/>
   </g>
  </g>
 </g>
 <defs>
  <clipPath id="pc14509c656">
   <rect x="46.965625" y="41.76" width="357.12" height="266.112"/>
  </clipPath>
 </defs>
</svg>
