<?xml version="1.0" encoding="utf-8" standalone="no"?>
<!DOCTYPE svg PUBLIC "-//W3C//DTD SVG 1.1//EN"
  "http://www.w3.org/Graphics/SVG/1.1/DTD/svg11.dtd">
<svg xmlns:xlink="http://www.w3.org/1999/xlink" width="726.51975pt" height="345.42825pt" viewBox="0 0 726.51975 345.42825" xmlns="http://www.w3.org/2000/svg" version="1.1">
 <metadata>
  <rdf:RDF xmlns:dc="http://purl.org/dc/elements/1.1/" xmlns:cc="http://creativecommons.org/ns#" xmlns:rdf="http://www.w3.org/1999/02/22-rdf-syntax-ns#">
   <cc:Work>
    <dc:type rdf:resource="http://purl.org/dc/dcmitype/StillImage"/>
    <dc:date>2024-11-14T11:38:51.902129</dc:date>
    <dc:format>image/svg+xml</dc:format>
    <dc:creator>
     <cc:Agent>
      <dc:title>Matplotlib v3.8.0, https://matplotlib.org/</dc:title>
     </cc:Agent>
    </dc:creator>
   </cc:Work>
  </rdf:RDF>
 </metadata>
 <defs>
  <style type="text/css">*{stroke-linejoin: round; stroke-linecap: butt}</style>
 </defs>
 <g id="figure_1">
  <g id="patch_1">
   <path d="M 0 345.42825 
L 726.51975 345.42825 
L 726.51975 -0 
L 0 -0 
L 0 345.42825 
z
" style="fill: none; opacity: 0"/>
  </g>
  <g id="axes_1">
   <g id="patch_2">
    <path d="M 46.965625 307.872 
L 404.085625 307.872 
L 404.085625 41.76 
L 46.965625 41.76 
z
" style="fill: #ffffff"/>
   </g>
   <g id="matplotlib.axis_1">
    <g id="xtick_1">
     <g id="line2d_1">
      <defs>
       <path id="m8e445e514e" d="M 0 0 
L 0 3.5 
" style="stroke: #000000; stroke-width: 0.8"/>
      </defs>
      <g>
       <use xlink:href="#m8e445e514e" x="114.372548" y="307.872" style="stroke: #000000; stroke-width: 0.8"/>
      </g>
     </g>
     <g id="text_1">
      <!-- 50 -->
      <g transform="translate(108.010048 322.470438) scale(0.1 -0.1)">
       <defs>
        <path id="DejaVuSans-35" d="M 691 4666 
L 3169 4666 
L 3169 4134 
L 1269 4134 
L 1269 2991 
Q 1406 3038 1543 3061 
Q 1681 3084 1819 3084 
Q 2600 3084 3056 2656 
Q 3513 2228 3513 1497 
Q 3513 744 3044 326 
Q 2575 -91 1722 -91 
Q 1428 -91 1123 -41 
Q 819 9 494 109 
L 494 744 
Q 775 591 1075 516 
Q 1375 441 1709 441 
Q 2250 441 2565 725 
Q 2881 1009 2881 1497 
Q 2881 1984 2565 2268 
Q 2250 2553 1709 2553 
Q 1456 2553 1204 2497 
Q 953 2441 691 2322 
L 691 4666 
z
" transform="scale(0.015625)"/>
        <path id="DejaVuSans-30" d="M 2034 4250 
Q 1547 4250 1301 3770 
Q 1056 3291 1056 2328 
Q 1056 1369 1301 889 
Q 1547 409 2034 409 
Q 2525 409 2770 889 
Q 3016 1369 3016 2328 
Q 3016 3291 2770 3770 
Q 2525 4250 2034 4250 
z
M 2034 4750 
Q 2819 4750 3233 4129 
Q 3647 3509 3647 2328 
Q 3647 1150 3233 529 
Q 2819 -91 2034 -91 
Q 1250 -91 836 529 
Q 422 1150 422 2328 
Q 422 3509 836 4129 
Q 1250 4750 2034 4750 
z
" transform="scale(0.015625)"/>
       </defs>
       <use xlink:href="#DejaVuSans-35"/>
       <use xlink:href="#DejaVuSans-30" x="63.623047"/>
      </g>
     </g>
    </g>
    <g id="xtick_2">
     <g id="line2d_2">
      <g>
       <use xlink:href="#m8e445e514e" x="182.291909" y="307.872" style="stroke: #000000; stroke-width: 0.8"/>
      </g>
     </g>
     <g id="text_2">
      <!-- 100 -->
      <g transform="translate(172.748159 322.470438) scale(0.1 -0.1)">
       <defs>
        <path id="DejaVuSans-31" d="M 794 531 
L 1825 531 
L 1825 4091 
L 703 3866 
L 703 4441 
L 1819 4666 
L 2450 4666 
L 2450 531 
L 3481 531 
L 3481 0 
L 794 0 
L 794 531 
z
" transform="scale(0.015625)"/>
       </defs>
       <use xlink:href="#DejaVuSans-31"/>
       <use xlink:href="#DejaVuSans-30" x="63.623047"/>
       <use xlink:href="#DejaVuSans-30" x="127.246094"/>
      </g>
     </g>
    </g>
    <g id="xtick_3">
     <g id="line2d_3">
      <g>
       <use xlink:href="#m8e445e514e" x="250.21127" y="307.872" style="stroke: #000000; stroke-width: 0.8"/>
      </g>
     </g>
     <g id="text_3">
      <!-- 150 -->
      <g transform="translate(240.66752 322.470438) scale(0.1 -0.1)">
       <use xlink:href="#DejaVuSans-31"/>
       <use xlink:href="#DejaVuSans-35" x="63.623047"/>
       <use xlink:href="#DejaVuSans-30" x="127.246094"/>
      </g>
     </g>
    </g>
    <g id="xtick_4">
     <g id="line2d_4">
      <g>
       <use xlink:href="#m8e445e514e" x="318.130631" y="307.872" style="stroke: #000000; stroke-width: 0.8"/>
      </g>
     </g>
     <g id="text_4">
      <!-- 200 -->
      <g transform="translate(308.586881 322.470438) scale(0.1 -0.1)">
       <defs>
        <path id="DejaVuSans-32" d="M 1228 531 
L 3431 531 
L 3431 0 
L 469 0 
L 469 531 
Q 828 903 1448 1529 
Q 2069 2156 2228 2338 
Q 2531 2678 2651 2914 
Q 2772 3150 2772 3378 
Q 2772 3750 2511 3984 
Q 2250 4219 1831 4219 
Q 1534 4219 1204 4116 
Q 875 4013 500 3803 
L 500 4441 
Q 881 4594 1212 4672 
Q 1544 4750 1819 4750 
Q 2544 4750 2975 4387 
Q 3406 4025 3406 3419 
Q 3406 3131 3298 2873 
Q 3191 2616 2906 2266 
Q 2828 2175 2409 1742 
Q 1991 1309 1228 531 
z
" transform="scale(0.015625)"/>
       </defs>
       <use xlink:href="#DejaVuSans-32"/>
       <use xlink:href="#DejaVuSans-30" x="63.623047"/>
       <use xlink:href="#DejaVuSans-30" x="127.246094"/>
      </g>
     </g>
    </g>
    <g id="xtick_5">
     <g id="line2d_5">
      <g>
       <use xlink:href="#m8e445e514e" x="386.049992" y="307.872" style="stroke: #000000; stroke-width: 0.8"/>
      </g>
     </g>
     <g id="text_5">
      <!-- 250 -->
      <g transform="translate(376.506242 322.470438) scale(0.1 -0.1)">
       <use xlink:href="#DejaVuSans-32"/>
       <use xlink:href="#DejaVuSans-35" x="63.623047"/>
       <use xlink:href="#DejaVuSans-30" x="127.246094"/>
      </g>
     </g>
    </g>
    <g id="text_6">
     <!-- Spec frequency [MHz] -->
     <g transform="translate(170.496719 336.148562) scale(0.1 -0.1)">
      <defs>
       <path id="DejaVuSans-53" d="M 3425 4513 
L 3425 3897 
Q 3066 4069 2747 4153 
Q 2428 4238 2131 4238 
Q 1616 4238 1336 4038 
Q 1056 3838 1056 3469 
Q 1056 3159 1242 3001 
Q 1428 2844 1947 2747 
L 2328 2669 
Q 3034 2534 3370 2195 
Q 3706 1856 3706 1288 
Q 3706 609 3251 259 
Q 2797 -91 1919 -91 
Q 1588 -91 1214 -16 
Q 841 59 441 206 
L 441 856 
Q 825 641 1194 531 
Q 1563 422 1919 422 
Q 2459 422 2753 634 
Q 3047 847 3047 1241 
Q 3047 1584 2836 1778 
Q 2625 1972 2144 2069 
L 1759 2144 
Q 1053 2284 737 2584 
Q 422 2884 422 3419 
Q 422 4038 858 4394 
Q 1294 4750 2059 4750 
Q 2388 4750 2728 4690 
Q 3069 4631 3425 4513 
z
" transform="scale(0.015625)"/>
       <path id="DejaVuSans-70" d="M 1159 525 
L 1159 -1331 
L 581 -1331 
L 581 3500 
L 1159 3500 
L 1159 2969 
Q 1341 3281 1617 3432 
Q 1894 3584 2278 3584 
Q 2916 3584 3314 3078 
Q 3713 2572 3713 1747 
Q 3713 922 3314 415 
Q 2916 -91 2278 -91 
Q 1894 -91 1617 61 
Q 1341 213 1159 525 
z
M 3116 1747 
Q 3116 2381 2855 2742 
Q 2594 3103 2138 3103 
Q 1681 3103 1420 2742 
Q 1159 2381 1159 1747 
Q 1159 1113 1420 752 
Q 1681 391 2138 391 
Q 2594 391 2855 752 
Q 3116 1113 3116 1747 
z
" transform="scale(0.015625)"/>
       <path id="DejaVuSans-65" d="M 3597 1894 
L 3597 1613 
L 953 1613 
Q 991 1019 1311 708 
Q 1631 397 2203 397 
Q 2534 397 2845 478 
Q 3156 559 3463 722 
L 3463 178 
Q 3153 47 2828 -22 
Q 2503 -91 2169 -91 
Q 1331 -91 842 396 
Q 353 884 353 1716 
Q 353 2575 817 3079 
Q 1281 3584 2069 3584 
Q 2775 3584 3186 3129 
Q 3597 2675 3597 1894 
z
M 3022 2063 
Q 3016 2534 2758 2815 
Q 2500 3097 2075 3097 
Q 1594 3097 1305 2825 
Q 1016 2553 972 2059 
L 3022 2063 
z
" transform="scale(0.015625)"/>
       <path id="DejaVuSans-63" d="M 3122 3366 
L 3122 2828 
Q 2878 2963 2633 3030 
Q 2388 3097 2138 3097 
Q 1578 3097 1268 2742 
Q 959 2388 959 1747 
Q 959 1106 1268 751 
Q 1578 397 2138 397 
Q 2388 397 2633 464 
Q 2878 531 3122 666 
L 3122 134 
Q 2881 22 2623 -34 
Q 2366 -91 2075 -91 
Q 1284 -91 818 406 
Q 353 903 353 1747 
Q 353 2603 823 3093 
Q 1294 3584 2113 3584 
Q 2378 3584 2631 3529 
Q 2884 3475 3122 3366 
z
" transform="scale(0.015625)"/>
       <path id="DejaVuSans-20" transform="scale(0.015625)"/>
       <path id="DejaVuSans-66" d="M 2375 4863 
L 2375 4384 
L 1825 4384 
Q 1516 4384 1395 4259 
Q 1275 4134 1275 3809 
L 1275 3500 
L 2222 3500 
L 2222 3053 
L 1275 3053 
L 1275 0 
L 697 0 
L 697 3053 
L 147 3053 
L 147 3500 
L 697 3500 
L 697 3744 
Q 697 4328 969 4595 
Q 1241 4863 1831 4863 
L 2375 4863 
z
" transform="scale(0.015625)"/>
       <path id="DejaVuSans-72" d="M 2631 2963 
Q 2534 3019 2420 3045 
Q 2306 3072 2169 3072 
Q 1681 3072 1420 2755 
Q 1159 2438 1159 1844 
L 1159 0 
L 581 0 
L 581 3500 
L 1159 3500 
L 1159 2956 
Q 1341 3275 1631 3429 
Q 1922 3584 2338 3584 
Q 2397 3584 2469 3576 
Q 2541 3569 2628 3553 
L 2631 2963 
z
" transform="scale(0.015625)"/>
       <path id="DejaVuSans-71" d="M 947 1747 
Q 947 1113 1208 752 
Q 1469 391 1925 391 
Q 2381 391 2643 752 
Q 2906 1113 2906 1747 
Q 2906 2381 2643 2742 
Q 2381 3103 1925 3103 
Q 1469 3103 1208 2742 
Q 947 2381 947 1747 
z
M 2906 525 
Q 2725 213 2448 61 
Q 2172 -91 1784 -91 
Q 1150 -91 751 415 
Q 353 922 353 1747 
Q 353 2572 751 3078 
Q 1150 3584 1784 3584 
Q 2172 3584 2448 3432 
Q 2725 3281 2906 2969 
L 2906 3500 
L 3481 3500 
L 3481 -1331 
L 2906 -1331 
L 2906 525 
z
" transform="scale(0.015625)"/>
       <path id="DejaVuSans-75" d="M 544 1381 
L 544 3500 
L 1119 3500 
L 1119 1403 
Q 1119 906 1312 657 
Q 1506 409 1894 409 
Q 2359 409 2629 706 
Q 2900 1003 2900 1516 
L 2900 3500 
L 3475 3500 
L 3475 0 
L 2900 0 
L 2900 538 
Q 2691 219 2414 64 
Q 2138 -91 1772 -91 
Q 1169 -91 856 284 
Q 544 659 544 1381 
z
M 1991 3584 
L 1991 3584 
z
" transform="scale(0.015625)"/>
       <path id="DejaVuSans-6e" d="M 3513 2113 
L 3513 0 
L 2938 0 
L 2938 2094 
Q 2938 2591 2744 2837 
Q 2550 3084 2163 3084 
Q 1697 3084 1428 2787 
Q 1159 2491 1159 1978 
L 1159 0 
L 581 0 
L 581 3500 
L 1159 3500 
L 1159 2956 
Q 1366 3272 1645 3428 
Q 1925 3584 2291 3584 
Q 2894 3584 3203 3211 
Q 3513 2838 3513 2113 
z
" transform="scale(0.015625)"/>
       <path id="DejaVuSans-79" d="M 2059 -325 
Q 1816 -950 1584 -1140 
Q 1353 -1331 966 -1331 
L 506 -1331 
L 506 -850 
L 844 -850 
Q 1081 -850 1212 -737 
Q 1344 -625 1503 -206 
L 1606 56 
L 191 3500 
L 800 3500 
L 1894 763 
L 2988 3500 
L 3597 3500 
L 2059 -325 
z
" transform="scale(0.015625)"/>
       <path id="DejaVuSans-5b" d="M 550 4863 
L 1875 4863 
L 1875 4416 
L 1125 4416 
L 1125 -397 
L 1875 -397 
L 1875 -844 
L 550 -844 
L 550 4863 
z
" transform="scale(0.015625)"/>
       <path id="DejaVuSans-4d" d="M 628 4666 
L 1569 4666 
L 2759 1491 
L 3956 4666 
L 4897 4666 
L 4897 0 
L 4281 0 
L 4281 4097 
L 3078 897 
L 2444 897 
L 1241 4097 
L 1241 0 
L 628 0 
L 628 4666 
z
" transform="scale(0.015625)"/>
       <path id="DejaVuSans-48" d="M 628 4666 
L 1259 4666 
L 1259 2753 
L 3553 2753 
L 3553 4666 
L 4184 4666 
L 4184 0 
L 3553 0 
L 3553 2222 
L 1259 2222 
L 1259 0 
L 628 0 
L 628 4666 
z
" transform="scale(0.015625)"/>
       <path id="DejaVuSans-7a" d="M 353 3500 
L 3084 3500 
L 3084 2975 
L 922 459 
L 3084 459 
L 3084 0 
L 275 0 
L 275 525 
L 2438 3041 
L 353 3041 
L 353 3500 
z
" transform="scale(0.015625)"/>
       <path id="DejaVuSans-5d" d="M 1947 4863 
L 1947 -844 
L 622 -844 
L 622 -397 
L 1369 -397 
L 1369 4416 
L 622 4416 
L 622 4863 
L 1947 4863 
z
" transform="scale(0.015625)"/>
      </defs>
      <use xlink:href="#DejaVuSans-53"/>
      <use xlink:href="#DejaVuSans-70" x="63.476562"/>
      <use xlink:href="#DejaVuSans-65" x="126.953125"/>
      <use xlink:href="#DejaVuSans-63" x="188.476562"/>
      <use xlink:href="#DejaVuSans-20" x="243.457031"/>
      <use xlink:href="#DejaVuSans-66" x="275.244141"/>
      <use xlink:href="#DejaVuSans-72" x="310.449219"/>
      <use xlink:href="#DejaVuSans-65" x="349.3125"/>
      <use xlink:href="#DejaVuSans-71" x="410.835938"/>
      <use xlink:href="#DejaVuSans-75" x="474.3125"/>
      <use xlink:href="#DejaVuSans-65" x="537.691406"/>
      <use xlink:href="#DejaVuSans-6e" x="599.214844"/>
      <use xlink:href="#DejaVuSans-63" x="662.59375"/>
      <use xlink:href="#DejaVuSans-79" x="717.574219"/>
      <use xlink:href="#DejaVuSans-20" x="776.753906"/>
      <use xlink:href="#DejaVuSans-5b" x="808.541016"/>
      <use xlink:href="#DejaVuSans-4d" x="847.554688"/>
      <use xlink:href="#DejaVuSans-48" x="933.833984"/>
      <use xlink:href="#DejaVuSans-7a" x="1009.029297"/>
      <use xlink:href="#DejaVuSans-5d" x="1061.519531"/>
     </g>
    </g>
    <g id="text_7">
     <!-- +5 GHz -->
     <g transform="translate(365.648125 335.148562) scale(0.1 -0.1)">
      <defs>
       <path id="DejaVuSans-2b" d="M 2944 4013 
L 2944 2272 
L 4684 2272 
L 4684 1741 
L 2944 1741 
L 2944 0 
L 2419 0 
L 2419 1741 
L 678 1741 
L 678 2272 
L 2419 2272 
L 2419 4013 
L 2944 4013 
z
" transform="scale(0.015625)"/>
       <path id="DejaVuSans-47" d="M 3809 666 
L 3809 1919 
L 2778 1919 
L 2778 2438 
L 4434 2438 
L 4434 434 
Q 4069 175 3628 42 
Q 3188 -91 2688 -91 
Q 1594 -91 976 548 
Q 359 1188 359 2328 
Q 359 3472 976 4111 
Q 1594 4750 2688 4750 
Q 3144 4750 3555 4637 
Q 3966 4525 4313 4306 
L 4313 3634 
Q 3963 3931 3569 4081 
Q 3175 4231 2741 4231 
Q 1884 4231 1454 3753 
Q 1025 3275 1025 2328 
Q 1025 1384 1454 906 
Q 1884 428 2741 428 
Q 3075 428 3337 486 
Q 3600 544 3809 666 
z
" transform="scale(0.015625)"/>
      </defs>
      <use xlink:href="#DejaVuSans-2b"/>
      <use xlink:href="#DejaVuSans-35" x="83.789062"/>
      <use xlink:href="#DejaVuSans-20" x="147.412109"/>
      <use xlink:href="#DejaVuSans-47" x="179.199219"/>
      <use xlink:href="#DejaVuSans-48" x="256.689453"/>
      <use xlink:href="#DejaVuSans-7a" x="331.884766"/>
     </g>
    </g>
   </g>
   <g id="matplotlib.axis_2">
    <g id="ytick_1">
     <g id="line2d_6">
      <defs>
       <path id="m56aef8f901" d="M 0 0 
L -3.5 0 
" style="stroke: #000000; stroke-width: 0.8"/>
      </defs>
      <g>
       <use xlink:href="#m56aef8f901" x="46.965625" y="306.630909" style="stroke: #000000; stroke-width: 0.8"/>
      </g>
     </g>
     <g id="text_8">
      <!-- 138 -->
      <g transform="translate(20.878125 310.430128) scale(0.1 -0.1)">
       <defs>
        <path id="DejaVuSans-33" d="M 2597 2516 
Q 3050 2419 3304 2112 
Q 3559 1806 3559 1356 
Q 3559 666 3084 287 
Q 2609 -91 1734 -91 
Q 1441 -91 1130 -33 
Q 819 25 488 141 
L 488 750 
Q 750 597 1062 519 
Q 1375 441 1716 441 
Q 2309 441 2620 675 
Q 2931 909 2931 1356 
Q 2931 1769 2642 2001 
Q 2353 2234 1838 2234 
L 1294 2234 
L 1294 2753 
L 1863 2753 
Q 2328 2753 2575 2939 
Q 2822 3125 2822 3475 
Q 2822 3834 2567 4026 
Q 2313 4219 1838 4219 
Q 1578 4219 1281 4162 
Q 984 4106 628 3988 
L 628 4550 
Q 988 4650 1302 4700 
Q 1616 4750 1894 4750 
Q 2613 4750 3031 4423 
Q 3450 4097 3450 3541 
Q 3450 3153 3228 2886 
Q 3006 2619 2597 2516 
z
" transform="scale(0.015625)"/>
        <path id="DejaVuSans-38" d="M 2034 2216 
Q 1584 2216 1326 1975 
Q 1069 1734 1069 1313 
Q 1069 891 1326 650 
Q 1584 409 2034 409 
Q 2484 409 2743 651 
Q 3003 894 3003 1313 
Q 3003 1734 2745 1975 
Q 2488 2216 2034 2216 
z
M 1403 2484 
Q 997 2584 770 2862 
Q 544 3141 544 3541 
Q 544 4100 942 4425 
Q 1341 4750 2034 4750 
Q 2731 4750 3128 4425 
Q 3525 4100 3525 3541 
Q 3525 3141 3298 2862 
Q 3072 2584 2669 2484 
Q 3125 2378 3379 2068 
Q 3634 1759 3634 1313 
Q 3634 634 3220 271 
Q 2806 -91 2034 -91 
Q 1263 -91 848 271 
Q 434 634 434 1313 
Q 434 1759 690 2068 
Q 947 2378 1403 2484 
z
M 1172 3481 
Q 1172 3119 1398 2916 
Q 1625 2713 2034 2713 
Q 2441 2713 2670 2916 
Q 2900 3119 2900 3481 
Q 2900 3844 2670 4047 
Q 2441 4250 2034 4250 
Q 1625 4250 1398 4047 
Q 1172 3844 1172 3481 
z
" transform="scale(0.015625)"/>
       </defs>
       <use xlink:href="#DejaVuSans-31"/>
       <use xlink:href="#DejaVuSans-33" x="63.623047"/>
       <use xlink:href="#DejaVuSans-38" x="127.246094"/>
      </g>
     </g>
    </g>
    <g id="ytick_2">
     <g id="line2d_7">
      <g>
       <use xlink:href="#m56aef8f901" x="46.965625" y="274.994305" style="stroke: #000000; stroke-width: 0.8"/>
      </g>
     </g>
     <g id="text_9">
      <!-- 140 -->
      <g transform="translate(20.878125 278.793524) scale(0.1 -0.1)">
       <defs>
        <path id="DejaVuSans-34" d="M 2419 4116 
L 825 1625 
L 2419 1625 
L 2419 4116 
z
M 2253 4666 
L 3047 4666 
L 3047 1625 
L 3713 1625 
L 3713 1100 
L 3047 1100 
L 3047 0 
L 2419 0 
L 2419 1100 
L 313 1100 
L 313 1709 
L 2253 4666 
z
" transform="scale(0.015625)"/>
       </defs>
       <use xlink:href="#DejaVuSans-31"/>
       <use xlink:href="#DejaVuSans-34" x="63.623047"/>
       <use xlink:href="#DejaVuSans-30" x="127.246094"/>
      </g>
     </g>
    </g>
    <g id="ytick_3">
     <g id="line2d_8">
      <g>
       <use xlink:href="#m56aef8f901" x="46.965625" y="243.357701" style="stroke: #000000; stroke-width: 0.8"/>
      </g>
     </g>
     <g id="text_10">
      <!-- 142 -->
      <g transform="translate(20.878125 247.15692) scale(0.1 -0.1)">
       <use xlink:href="#DejaVuSans-31"/>
       <use xlink:href="#DejaVuSans-34" x="63.623047"/>
       <use xlink:href="#DejaVuSans-32" x="127.246094"/>
      </g>
     </g>
    </g>
    <g id="ytick_4">
     <g id="line2d_9">
      <g>
       <use xlink:href="#m56aef8f901" x="46.965625" y="211.721097" style="stroke: #000000; stroke-width: 0.8"/>
      </g>
     </g>
     <g id="text_11">
      <!-- 144 -->
      <g transform="translate(20.878125 215.520316) scale(0.1 -0.1)">
       <use xlink:href="#DejaVuSans-31"/>
       <use xlink:href="#DejaVuSans-34" x="63.623047"/>
       <use xlink:href="#DejaVuSans-34" x="127.246094"/>
      </g>
     </g>
    </g>
    <g id="ytick_5">
     <g id="line2d_10">
      <g>
       <use xlink:href="#m56aef8f901" x="46.965625" y="180.084493" style="stroke: #000000; stroke-width: 0.8"/>
      </g>
     </g>
     <g id="text_12">
      <!-- 146 -->
      <g transform="translate(20.878125 183.883712) scale(0.1 -0.1)">
       <defs>
        <path id="DejaVuSans-36" d="M 2113 2584 
Q 1688 2584 1439 2293 
Q 1191 2003 1191 1497 
Q 1191 994 1439 701 
Q 1688 409 2113 409 
Q 2538 409 2786 701 
Q 3034 994 3034 1497 
Q 3034 2003 2786 2293 
Q 2538 2584 2113 2584 
z
M 3366 4563 
L 3366 3988 
Q 3128 4100 2886 4159 
Q 2644 4219 2406 4219 
Q 1781 4219 1451 3797 
Q 1122 3375 1075 2522 
Q 1259 2794 1537 2939 
Q 1816 3084 2150 3084 
Q 2853 3084 3261 2657 
Q 3669 2231 3669 1497 
Q 3669 778 3244 343 
Q 2819 -91 2113 -91 
Q 1303 -91 875 529 
Q 447 1150 447 2328 
Q 447 3434 972 4092 
Q 1497 4750 2381 4750 
Q 2619 4750 2861 4703 
Q 3103 4656 3366 4563 
z
" transform="scale(0.015625)"/>
       </defs>
       <use xlink:href="#DejaVuSans-31"/>
       <use xlink:href="#DejaVuSans-34" x="63.623047"/>
       <use xlink:href="#DejaVuSans-36" x="127.246094"/>
      </g>
     </g>
    </g>
    <g id="ytick_6">
     <g id="line2d_11">
      <g>
       <use xlink:href="#m56aef8f901" x="46.965625" y="148.447889" style="stroke: #000000; stroke-width: 0.8"/>
      </g>
     </g>
     <g id="text_13">
      <!-- 148 -->
      <g transform="translate(20.878125 152.247108) scale(0.1 -0.1)">
       <use xlink:href="#DejaVuSans-31"/>
       <use xlink:href="#DejaVuSans-34" x="63.623047"/>
       <use xlink:href="#DejaVuSans-38" x="127.246094"/>
      </g>
     </g>
    </g>
    <g id="ytick_7">
     <g id="line2d_12">
      <g>
       <use xlink:href="#m56aef8f901" x="46.965625" y="116.811285" style="stroke: #000000; stroke-width: 0.8"/>
      </g>
     </g>
     <g id="text_14">
      <!-- 150 -->
      <g transform="translate(20.878125 120.610504) scale(0.1 -0.1)">
       <use xlink:href="#DejaVuSans-31"/>
       <use xlink:href="#DejaVuSans-35" x="63.623047"/>
       <use xlink:href="#DejaVuSans-30" x="127.246094"/>
      </g>
     </g>
    </g>
    <g id="ytick_8">
     <g id="line2d_13">
      <g>
       <use xlink:href="#m56aef8f901" x="46.965625" y="85.174681" style="stroke: #000000; stroke-width: 0.8"/>
      </g>
     </g>
     <g id="text_15">
      <!-- 152 -->
      <g transform="translate(20.878125 88.9739) scale(0.1 -0.1)">
       <use xlink:href="#DejaVuSans-31"/>
       <use xlink:href="#DejaVuSans-35" x="63.623047"/>
       <use xlink:href="#DejaVuSans-32" x="127.246094"/>
      </g>
     </g>
    </g>
    <g id="ytick_9">
     <g id="line2d_14">
      <g>
       <use xlink:href="#m56aef8f901" x="46.965625" y="53.538077" style="stroke: #000000; stroke-width: 0.8"/>
      </g>
     </g>
     <g id="text_16">
      <!-- 154 -->
      <g transform="translate(20.878125 57.337296) scale(0.1 -0.1)">
       <use xlink:href="#DejaVuSans-31"/>
       <use xlink:href="#DejaVuSans-35" x="63.623047"/>
       <use xlink:href="#DejaVuSans-34" x="127.246094"/>
      </g>
     </g>
    </g>
    <g id="text_17">
     <!-- Phase0 [deg] -->
     <g transform="translate(14.798438 207.841781) rotate(-90) scale(0.1 -0.1)">
      <defs>
       <path id="DejaVuSans-50" d="M 1259 4147 
L 1259 2394 
L 2053 2394 
Q 2494 2394 2734 2622 
Q 2975 2850 2975 3272 
Q 2975 3691 2734 3919 
Q 2494 4147 2053 4147 
L 1259 4147 
z
M 628 4666 
L 2053 4666 
Q 2838 4666 3239 4311 
Q 3641 3956 3641 3272 
Q 3641 2581 3239 2228 
Q 2838 1875 2053 1875 
L 1259 1875 
L 1259 0 
L 628 0 
L 628 4666 
z
" transform="scale(0.015625)"/>
       <path id="DejaVuSans-68" d="M 3513 2113 
L 3513 0 
L 2938 0 
L 2938 2094 
Q 2938 2591 2744 2837 
Q 2550 3084 2163 3084 
Q 1697 3084 1428 2787 
Q 1159 2491 1159 1978 
L 1159 0 
L 581 0 
L 581 4863 
L 1159 4863 
L 1159 2956 
Q 1366 3272 1645 3428 
Q 1925 3584 2291 3584 
Q 2894 3584 3203 3211 
Q 3513 2838 3513 2113 
z
" transform="scale(0.015625)"/>
       <path id="DejaVuSans-61" d="M 2194 1759 
Q 1497 1759 1228 1600 
Q 959 1441 959 1056 
Q 959 750 1161 570 
Q 1363 391 1709 391 
Q 2188 391 2477 730 
Q 2766 1069 2766 1631 
L 2766 1759 
L 2194 1759 
z
M 3341 1997 
L 3341 0 
L 2766 0 
L 2766 531 
Q 2569 213 2275 61 
Q 1981 -91 1556 -91 
Q 1019 -91 701 211 
Q 384 513 384 1019 
Q 384 1609 779 1909 
Q 1175 2209 1959 2209 
L 2766 2209 
L 2766 2266 
Q 2766 2663 2505 2880 
Q 2244 3097 1772 3097 
Q 1472 3097 1187 3025 
Q 903 2953 641 2809 
L 641 3341 
Q 956 3463 1253 3523 
Q 1550 3584 1831 3584 
Q 2591 3584 2966 3190 
Q 3341 2797 3341 1997 
z
" transform="scale(0.015625)"/>
       <path id="DejaVuSans-73" d="M 2834 3397 
L 2834 2853 
Q 2591 2978 2328 3040 
Q 2066 3103 1784 3103 
Q 1356 3103 1142 2972 
Q 928 2841 928 2578 
Q 928 2378 1081 2264 
Q 1234 2150 1697 2047 
L 1894 2003 
Q 2506 1872 2764 1633 
Q 3022 1394 3022 966 
Q 3022 478 2636 193 
Q 2250 -91 1575 -91 
Q 1294 -91 989 -36 
Q 684 19 347 128 
L 347 722 
Q 666 556 975 473 
Q 1284 391 1588 391 
Q 1994 391 2212 530 
Q 2431 669 2431 922 
Q 2431 1156 2273 1281 
Q 2116 1406 1581 1522 
L 1381 1569 
Q 847 1681 609 1914 
Q 372 2147 372 2553 
Q 372 3047 722 3315 
Q 1072 3584 1716 3584 
Q 2034 3584 2315 3537 
Q 2597 3491 2834 3397 
z
" transform="scale(0.015625)"/>
       <path id="DejaVuSans-64" d="M 2906 2969 
L 2906 4863 
L 3481 4863 
L 3481 0 
L 2906 0 
L 2906 525 
Q 2725 213 2448 61 
Q 2172 -91 1784 -91 
Q 1150 -91 751 415 
Q 353 922 353 1747 
Q 353 2572 751 3078 
Q 1150 3584 1784 3584 
Q 2172 3584 2448 3432 
Q 2725 3281 2906 2969 
z
M 947 1747 
Q 947 1113 1208 752 
Q 1469 391 1925 391 
Q 2381 391 2643 752 
Q 2906 1113 2906 1747 
Q 2906 2381 2643 2742 
Q 2381 3103 1925 3103 
Q 1469 3103 1208 2742 
Q 947 2381 947 1747 
z
" transform="scale(0.015625)"/>
       <path id="DejaVuSans-67" d="M 2906 1791 
Q 2906 2416 2648 2759 
Q 2391 3103 1925 3103 
Q 1463 3103 1205 2759 
Q 947 2416 947 1791 
Q 947 1169 1205 825 
Q 1463 481 1925 481 
Q 2391 481 2648 825 
Q 2906 1169 2906 1791 
z
M 3481 434 
Q 3481 -459 3084 -895 
Q 2688 -1331 1869 -1331 
Q 1566 -1331 1297 -1286 
Q 1028 -1241 775 -1147 
L 775 -588 
Q 1028 -725 1275 -790 
Q 1522 -856 1778 -856 
Q 2344 -856 2625 -561 
Q 2906 -266 2906 331 
L 2906 616 
Q 2728 306 2450 153 
Q 2172 0 1784 0 
Q 1141 0 747 490 
Q 353 981 353 1791 
Q 353 2603 747 3093 
Q 1141 3584 1784 3584 
Q 2172 3584 2450 3431 
Q 2728 3278 2906 2969 
L 2906 3500 
L 3481 3500 
L 3481 434 
z
" transform="scale(0.015625)"/>
      </defs>
      <use xlink:href="#DejaVuSans-50"/>
      <use xlink:href="#DejaVuSans-68" x="60.302734"/>
      <use xlink:href="#DejaVuSans-61" x="123.681641"/>
      <use xlink:href="#DejaVuSans-73" x="184.960938"/>
      <use xlink:href="#DejaVuSans-65" x="237.060547"/>
      <use xlink:href="#DejaVuSans-30" x="298.583984"/>
      <use xlink:href="#DejaVuSans-20" x="362.207031"/>
      <use xlink:href="#DejaVuSans-5b" x="393.994141"/>
      <use xlink:href="#DejaVuSans-64" x="433.007812"/>
      <use xlink:href="#DejaVuSans-65" x="496.484375"/>
      <use xlink:href="#DejaVuSans-67" x="558.007812"/>
      <use xlink:href="#DejaVuSans-5d" x="621.484375"/>
     </g>
    </g>
   </g>
   <g id="line2d_15">
    <path d="M 63.198352 233.167512 
L 64.556739 257.187467 
L 65.915127 234.070462 
L 67.273514 253.642848 
L 68.631901 265.48312 
L 69.990288 221.865801 
L 71.348676 263.873679 
L 72.707063 233.516029 
L 74.06545 242.99499 
L 75.423837 259.901607 
L 76.782224 253.413213 
L 78.140612 264.501886 
L 79.498999 253.199197 
L 80.857386 250.634652 
L 82.215773 250.820848 
L 83.574161 241.97415 
L 84.932548 252.71367 
L 86.290935 247.325307 
L 87.649322 233.369419 
L 89.007709 255.014597 
L 90.366097 245.252226 
L 91.724484 274.535782 
L 93.082871 250.581236 
L 94.441258 267.511851 
L 95.799646 269.946317 
L 97.158033 269.925709 
L 98.51642 235.712691 
L 99.874807 231.397318 
L 101.233194 250.091472 
L 102.591582 273.909406 
L 103.949969 249.448743 
L 105.308356 258.48121 
L 106.666743 258.38374 
L 108.025131 270.391558 
L 109.383518 250.623952 
L 110.741905 255.838879 
L 112.100292 244.448207 
L 113.458679 228.764162 
L 114.817067 281.692366 
L 116.175454 235.536135 
L 117.533841 251.014679 
L 118.892228 234.430688 
L 120.250615 263.949105 
L 121.609003 284.36001 
L 122.96739 252.006777 
L 124.325777 257.096312 
L 125.684164 241.25033 
L 127.042552 264.545743 
L 128.400939 261.516839 
L 129.759326 251.216048 
L 131.117713 255.326125 
L 132.4761 242.159317 
L 133.834488 217.199417 
L 135.192875 235.155282 
L 136.551262 225.763714 
L 137.909649 251.446261 
L 139.268037 248.423418 
L 140.626424 235.746545 
L 141.984811 252.938898 
L 143.343198 222.028693 
L 144.701585 225.178258 
L 146.059973 257.666631 
L 147.41836 260.989674 
L 148.776747 228.214521 
L 150.135134 253.298037 
L 151.493522 260.49576 
L 152.851909 248.185543 
L 154.210296 256.27423 
L 155.568683 270.322983 
L 156.92707 245.118529 
L 158.285458 252.484975 
L 159.643845 244.951991 
L 161.002232 246.273707 
L 162.360619 285.182593 
L 163.719007 285.730595 
L 165.077394 257.943899 
L 166.435781 239.227781 
L 167.794168 235.493185 
L 169.152555 251.099611 
L 170.510943 284.640909 
L 173.227717 243.558788 
L 174.586104 256.280909 
L 175.944491 228.396651 
L 177.302879 257.134524 
L 178.661266 232.296183 
L 180.019653 212.999811 
L 181.37804 254.484223 
L 182.736428 256.969704 
L 184.094815 254.917198 
L 185.453202 249.028992 
L 186.811589 241.070595 
L 188.169976 265.118578 
L 189.528364 226.846489 
L 190.886751 219.857908 
L 192.245138 220.127439 
L 193.603525 247.827363 
L 194.961913 253.899036 
L 196.3203 236.262679 
L 197.678687 252.786951 
L 199.037074 260.996336 
L 200.395461 216.595504 
L 201.753849 216.430608 
L 203.112236 268.091944 
L 204.470623 222.465856 
L 205.82901 234.285495 
L 207.187398 236.177799 
L 208.545785 230.70205 
L 209.904172 230.969973 
L 211.262559 251.463563 
L 212.620946 262.271258 
L 213.979334 238.237781 
L 215.337721 251.468338 
L 216.696108 253.065372 
L 218.054495 232.938879 
L 219.412883 234.133718 
L 220.77127 240.367328 
L 222.129657 224.680952 
L 223.488044 257.855113 
L 224.846431 263.062968 
L 226.204819 223.226967 
L 227.563206 206.019037 
L 228.921593 217.778514 
L 230.27998 220.428464 
L 231.638367 242.158294 
L 232.996755 248.864328 
L 234.355142 229.053296 
L 235.713529 234.856281 
L 237.071916 225.274868 
L 238.430304 254.139817 
L 239.788691 227.161524 
L 241.147078 245.503166 
L 242.505465 225.871743 
L 243.863852 253.821267 
L 245.22224 263.334572 
L 246.580627 253.110865 
L 247.939014 267.174277 
L 249.297401 264.834505 
L 250.655789 260.052281 
L 252.014176 256.420778 
L 253.372563 235.217545 
L 254.73095 241.206759 
L 256.089337 241.18684 
L 257.447725 238.902385 
L 258.806112 246.961291 
L 260.164499 276.798232 
L 261.522886 217.919573 
L 262.881274 231.797658 
L 264.239661 231.515356 
L 265.598048 247.11308 
L 266.956435 235.256991 
L 268.314822 233.001731 
L 269.67321 243.296557 
L 271.031597 244.397505 
L 272.389984 250.971026 
L 273.748371 254.011085 
L 275.106759 255.405844 
L 276.465146 239.966269 
L 277.823533 226.397374 
L 279.18192 231.94022 
L 280.540307 260.750261 
L 281.898695 253.001054 
L 283.257082 256.008857 
L 284.615469 268.382915 
L 285.973856 235.589116 
L 287.332243 272.900166 
L 288.690631 251.266056 
L 290.049018 256.858135 
L 291.407405 234.160052 
L 292.765792 295.776 
L 294.12418 244.649251 
L 295.482567 247.276057 
L 296.840954 223.888663 
L 298.199341 233.780614 
L 299.557728 261.353377 
L 300.916116 242.550638 
L 302.274503 228.071061 
L 303.63289 271.238438 
L 304.991277 265.913387 
L 306.349665 252.83983 
L 307.708052 246.340027 
L 309.066439 241.038298 
L 310.424826 244.445004 
L 311.783213 229.365488 
L 313.141601 238.776754 
L 314.499988 256.684086 
L 315.858375 250.496415 
L 317.216762 223.859936 
L 318.57515 238.191255 
L 319.933537 243.038828 
L 321.291924 234.168385 
L 322.650311 240.217023 
L 324.008698 258.831508 
L 325.367086 250.713305 
L 326.725473 248.014365 
L 328.08386 247.500335 
L 329.442247 245.925663 
L 330.800635 241.697541 
L 332.159022 239.954604 
L 333.517409 234.142526 
L 334.875796 75.66429 
L 336.234183 234.528106 
L 337.592571 237.521996 
L 338.950958 272.850442 
L 340.309345 241.595742 
L 341.667732 202.929328 
L 343.026119 213.69781 
L 344.384507 223.208282 
L 345.742894 227.011992 
L 347.101281 248.227922 
L 348.459668 265.312308 
L 349.818056 271.456555 
L 351.176443 243.541582 
L 352.53483 252.218563 
L 353.893217 265.593125 
L 355.251604 250.025216 
L 356.609992 232.713105 
L 357.968379 247.372091 
L 359.326766 238.595612 
L 360.685153 217.608823 
L 362.043541 273.560099 
L 363.401928 245.84755 
L 364.760315 276.378593 
L 366.118702 255.571308 
L 367.477089 254.593847 
L 368.835477 255.89447 
L 370.193864 253.065204 
L 371.552251 253.05523 
L 372.910638 276.937687 
L 374.269026 236.761047 
L 375.627413 245.853714 
L 376.9858 289.527728 
L 378.344187 239.407135 
L 379.702574 241.377325 
L 381.060962 272.700128 
L 382.419349 238.762492 
L 383.777736 231.964451 
L 385.136123 255.323395 
L 386.494511 235.525513 
L 387.852898 265.458974 
L 387.852898 265.458974 
" clip-path="url(#p14402aa664)" style="fill: none; stroke: #440154; stroke-width: 1.5; stroke-linecap: square"/>
   </g>
   <g id="line2d_16">
    <path d="M 63.198352 227.097845 
L 64.556739 241.683127 
L 65.915127 216.649464 
L 67.273514 259.302161 
L 68.631901 248.622674 
L 69.990288 251.811439 
L 71.348676 253.550855 
L 72.707063 257.888869 
L 74.06545 250.112308 
L 75.423837 266.813463 
L 76.782224 244.867686 
L 78.140612 236.702928 
L 79.498999 249.567087 
L 80.857386 226.237909 
L 82.215773 238.590957 
L 83.574161 245.136821 
L 84.932548 266.937945 
L 86.290935 259.278618 
L 87.649322 242.765823 
L 89.007709 238.788966 
L 90.366097 251.758421 
L 91.724484 252.674639 
L 93.082871 255.091005 
L 94.441258 239.700768 
L 95.799646 236.768438 
L 97.158033 212.295616 
L 98.51642 260.186288 
L 99.874807 263.138572 
L 101.233194 229.028163 
L 102.591582 247.552255 
L 103.949969 248.615236 
L 105.308356 229.411965 
L 106.666743 236.052275 
L 108.025131 229.942057 
L 109.383518 241.520658 
L 110.741905 234.938998 
L 112.100292 274.705038 
L 113.458679 262.327966 
L 114.817067 265.273453 
L 116.175454 273.737002 
L 117.533841 269.124222 
L 118.892228 239.078289 
L 120.250615 249.858409 
L 121.609003 272.241089 
L 122.96739 247.332417 
L 124.325777 251.233752 
L 125.684164 232.573022 
L 127.042552 250.486002 
L 128.400939 239.46486 
L 129.759326 251.25132 
L 131.117713 226.1454 
L 132.4761 246.363687 
L 133.834488 246.909856 
L 135.192875 257.108363 
L 136.551262 259.197016 
L 137.909649 272.451245 
L 139.268037 245.250783 
L 140.626424 272.985549 
L 141.984811 258.941722 
L 143.343198 222.532622 
L 144.701585 250.710477 
L 146.059973 249.30231 
L 147.41836 265.275814 
L 148.776747 243.265264 
L 150.135134 251.181914 
L 151.493522 246.229789 
L 152.851909 238.979612 
L 154.210296 266.280287 
L 155.568683 223.318647 
L 156.92707 220.033741 
L 158.285458 274.250302 
L 159.643845 234.49435 
L 161.002232 238.897401 
L 162.360619 224.17863 
L 163.719007 251.557149 
L 165.077394 249.262609 
L 166.435781 281.392775 
L 167.794168 238.375741 
L 169.152555 235.754673 
L 170.510943 215.489157 
L 171.86933 242.35025 
L 173.227717 265.535241 
L 174.586104 251.151004 
L 175.944491 224.302535 
L 177.302879 240.984681 
L 178.661266 228.544838 
L 180.019653 251.21919 
L 181.37804 241.858597 
L 182.736428 209.703223 
L 184.094815 220.226103 
L 185.453202 236.242 
L 186.811589 242.860548 
L 188.169976 244.028412 
L 189.528364 251.378115 
L 190.886751 231.108995 
L 192.245138 257.662231 
L 193.603525 223.869409 
L 194.961913 223.533345 
L 196.3203 258.530221 
L 197.678687 264.794444 
L 199.037074 235.712751 
L 200.395461 209.279148 
L 201.753849 243.867954 
L 203.112236 234.935745 
L 204.470623 249.049671 
L 205.82901 205.191521 
L 207.187398 231.436869 
L 208.545785 198.061908 
L 209.904172 218.744976 
L 211.262559 256.400208 
L 212.620946 252.428936 
L 213.979334 235.428419 
L 215.337721 241.201193 
L 216.696108 213.256858 
L 218.054495 201.501271 
L 219.412883 210.56917 
L 220.77127 211.790588 
L 222.129657 243.466664 
L 223.488044 226.573942 
L 224.846431 232.333947 
L 226.204819 244.472329 
L 227.563206 251.095196 
L 228.921593 253.91171 
L 230.27998 219.069142 
L 231.638367 235.296263 
L 232.996755 229.524829 
L 234.355142 201.447376 
L 235.713529 207.306372 
L 237.071916 248.37471 
L 238.430304 267.205802 
L 239.788691 245.156638 
L 241.147078 227.586121 
L 242.505465 245.782886 
L 243.863852 224.916984 
L 245.22224 226.770442 
L 246.580627 223.017606 
L 247.939014 242.775171 
L 249.297401 247.362234 
L 250.655789 231.856476 
L 252.014176 240.226801 
L 253.372563 238.987235 
L 254.73095 235.223106 
L 256.089337 211.939363 
L 257.447725 201.863114 
L 258.806112 222.839093 
L 260.164499 223.008055 
L 261.522886 216.252358 
L 262.881274 177.991708 
L 264.239661 217.521461 
L 265.598048 221.18086 
L 266.956435 208.839458 
L 268.314822 224.041206 
L 269.67321 218.001585 
L 271.031597 218.599148 
L 272.389984 214.963216 
L 273.748371 228.611047 
L 275.106759 237.49321 
L 276.465146 214.922699 
L 277.823533 212.738449 
L 279.18192 232.383508 
L 280.540307 182.780842 
L 281.898695 164.174377 
L 283.257082 229.94397 
L 284.615469 216.583255 
L 285.973856 208.647201 
L 287.332243 216.215464 
L 288.690631 202.947617 
L 290.049018 190.963621 
L 291.407405 156.780153 
L 292.765792 187.811329 
L 294.12418 214.612917 
L 295.482567 228.170031 
L 296.840954 172.859129 
L 298.199341 156.096748 
L 299.557728 192.90244 
L 300.916116 225.224348 
L 302.274503 162.757956 
L 303.63289 178.174739 
L 304.991277 206.516946 
L 306.349665 142.287191 
L 307.708052 251.814391 
L 309.066439 151.529551 
L 310.424826 189.640323 
L 311.783213 126.046726 
L 313.141601 201.948188 
L 314.499988 132.660577 
L 315.858375 100.986595 
L 317.216762 105.154893 
L 318.57515 94.421167 
L 319.933537 88.248374 
L 321.291924 156.190892 
L 322.650311 72.388672 
L 324.008698 116.226774 
L 325.367086 66.360428 
L 326.725473 167.960152 
L 328.08386 159.853773 
L 329.442247 89.848106 
L 330.800635 67.27619 
L 332.159022 60.96606 
L 333.517409 74.35299 
L 334.875796 61.857532 
L 336.234183 53.856 
L 337.592571 62.290875 
L 338.950958 114.187161 
L 340.309345 111.569267 
L 341.667732 74.092466 
L 343.026119 65.275976 
L 344.384507 190.583399 
L 345.742894 166.302538 
L 347.101281 158.324134 
L 348.459668 101.30292 
L 349.818056 107.662356 
L 351.176443 194.937024 
L 352.53483 115.424463 
L 353.893217 116.559942 
L 355.251604 151.183252 
L 356.609992 260.97864 
L 357.968379 145.34858 
L 359.326766 238.864097 
L 360.685153 140.62102 
L 362.043541 211.886197 
L 363.401928 185.338146 
L 364.760315 177.986882 
L 366.118702 180.275265 
L 367.477089 177.169706 
L 368.835477 171.07349 
L 370.193864 235.00143 
L 371.552251 232.988166 
L 372.910638 175.682785 
L 374.269026 188.859472 
L 375.627413 220.466215 
L 376.9858 229.100037 
L 378.344187 186.340275 
L 379.702574 202.911755 
L 381.060962 189.985768 
L 382.419349 205.437433 
L 383.777736 240.803699 
L 385.136123 217.45344 
L 386.494511 196.612575 
L 387.852898 220.408175 
L 387.852898 220.408175 
" clip-path="url(#p14402aa664)" style="fill: none; stroke: #21918c; stroke-width: 1.5; stroke-linecap: square"/>
   </g>
   <g id="line2d_17">
    <path d="M 63.198352 245.358086 
L 64.556739 233.938076 
L 65.915127 225.924104 
L 67.273514 233.586536 
L 68.631901 229.534698 
L 69.990288 235.158234 
L 71.348676 211.56569 
L 72.707063 228.963832 
L 74.06545 240.827287 
L 75.423837 227.791199 
L 76.782224 225.198748 
L 78.140612 245.94551 
L 79.498999 263.776596 
L 80.857386 250.396346 
L 82.215773 248.569211 
L 83.574161 243.724005 
L 84.932548 254.13304 
L 86.290935 261.142818 
L 89.007709 228.144377 
L 90.366097 233.224386 
L 91.724484 229.252533 
L 93.082871 240.258687 
L 94.441258 243.142439 
L 95.799646 232.435223 
L 97.158033 222.671585 
L 98.51642 202.552135 
L 99.874807 266.597587 
L 101.233194 242.436014 
L 102.591582 241.520248 
L 103.949969 246.199091 
L 105.308356 219.796581 
L 106.666743 235.847562 
L 108.025131 163.722778 
L 109.383518 160.94538 
L 110.741905 251.137445 
L 112.100292 247.858165 
L 113.458679 236.198393 
L 114.817067 263.475151 
L 116.175454 223.725333 
L 117.533841 264.586327 
L 118.892228 238.111592 
L 120.250615 233.831252 
L 121.609003 249.077493 
L 122.96739 260.567989 
L 125.684164 226.836052 
L 127.042552 239.958677 
L 128.400939 272.683473 
L 131.117713 221.490565 
L 132.4761 251.239399 
L 133.834488 238.278836 
L 136.551262 248.753153 
L 137.909649 232.64427 
L 139.268037 240.77851 
L 140.626424 256.585317 
L 141.984811 256.409144 
L 143.343198 220.392066 
L 144.701585 247.151719 
L 146.059973 241.829553 
L 147.41836 224.631531 
L 148.776747 258.472233 
L 150.135134 240.022991 
L 151.493522 233.728339 
L 152.851909 250.896759 
L 154.210296 263.762553 
L 155.568683 212.745536 
L 156.92707 222.548938 
L 158.285458 218.770486 
L 159.643845 255.801021 
L 161.002232 237.099709 
L 162.360619 226.929408 
L 163.719007 228.131439 
L 165.077394 234.142072 
L 166.435781 241.426412 
L 167.794168 214.003028 
L 169.152555 182.282498 
L 170.510943 154.820265 
L 171.86933 210.692961 
L 173.227717 212.517944 
L 174.586104 215.976119 
L 175.944491 208.385199 
L 177.302879 242.36428 
L 178.661266 250.278805 
L 180.019653 228.597499 
L 181.37804 264.637171 
L 182.736428 239.89154 
L 184.094815 243.637492 
L 185.453202 244.954679 
L 186.811589 233.995578 
L 188.169976 215.077339 
L 189.528364 262.13318 
L 190.886751 255.911258 
L 192.245138 206.864876 
L 193.603525 277.771368 
L 194.961913 247.965726 
L 196.3203 212.615822 
L 197.678687 252.153065 
L 199.037074 243.896098 
L 200.395461 243.092102 
L 201.753849 202.821732 
L 203.112236 191.551482 
L 204.470623 212.649094 
L 205.82901 192.02317 
L 207.187398 220.788624 
L 208.545785 201.078886 
L 209.904172 197.482103 
L 211.262559 219.30285 
L 212.620946 205.840522 
L 213.979334 215.791266 
L 215.337721 215.05673 
L 216.696108 221.92879 
L 218.054495 243.44792 
L 219.412883 253.203438 
L 220.77127 223.736094 
L 222.129657 218.029778 
L 223.488044 210.677071 
L 224.846431 186.698735 
L 226.204819 204.766821 
L 227.563206 206.107878 
L 228.921593 165.821919 
L 230.27998 220.991877 
L 231.638367 195.712045 
L 232.996755 221.069929 
L 234.355142 260.564233 
L 235.713529 262.026775 
L 237.071916 228.541094 
L 238.430304 231.278456 
L 239.788691 190.682944 
L 241.147078 198.862774 
L 242.505465 203.740959 
L 243.863852 191.231376 
L 246.580627 219.177715 
L 247.939014 250.495332 
L 249.297401 234.059887 
L 250.655789 197.707408 
L 252.014176 200.906213 
L 253.372563 190.414345 
L 254.73095 193.859422 
L 257.447725 244.838891 
L 258.806112 257.280748 
L 260.164499 190.124005 
L 261.522886 176.858447 
L 262.881274 159.861578 
L 264.239661 161.543996 
L 265.598048 223.22182 
L 266.956435 173.9544 
L 268.314822 172.923387 
L 269.67321 164.334083 
L 271.031597 230.049316 
L 272.389984 218.464762 
L 273.748371 184.187486 
L 275.106759 196.893971 
L 276.465146 197.048288 
L 277.823533 153.903206 
L 279.18192 199.60041 
L 280.540307 179.131113 
L 281.898695 122.215134 
L 283.257082 203.452877 
L 284.615469 179.757811 
L 285.973856 201.599629 
L 287.332243 156.787076 
L 288.690631 144.957544 
L 290.049018 146.171906 
L 291.407405 155.852477 
L 292.765792 120.280373 
L 294.12418 161.98498 
L 295.482567 142.281058 
L 296.840954 114.183406 
L 298.199341 111.00449 
L 299.557728 123.202124 
L 300.916116 115.843158 
L 303.63289 85.852349 
L 304.991277 92.223816 
L 306.349665 135.471066 
L 307.708052 92.092671 
L 309.066439 94.655002 
L 310.424826 91.219125 
L 313.141601 176.747405 
L 314.499988 184.809719 
L 315.858375 112.701634 
L 317.216762 75.116756 
L 318.57515 89.556633 
L 319.933537 142.704255 
L 321.291924 79.073676 
L 322.650311 62.804126 
L 324.008698 58.509299 
L 325.367086 64.748886 
L 326.725473 59.736582 
L 328.08386 65.571258 
L 329.442247 73.323172 
L 330.800635 62.415871 
L 332.159022 108.032729 
L 333.517409 67.452659 
L 334.875796 90.113987 
L 336.234183 60.213681 
L 337.592571 54.714549 
L 338.950958 169.968392 
L 340.309345 136.793116 
L 341.667732 65.156484 
L 343.026119 61.03585 
L 344.384507 138.241669 
L 345.742894 190.045286 
L 347.101281 65.982033 
L 348.459668 214.202061 
L 349.818056 146.752689 
L 351.176443 112.378269 
L 352.53483 93.410389 
L 353.893217 90.464345 
L 355.251604 164.796523 
L 356.609992 81.87172 
L 357.968379 86.555086 
L 359.326766 190.773584 
L 360.685153 96.381745 
L 362.043541 190.031214 
L 363.401928 170.932375 
L 364.760315 112.562533 
L 366.118702 103.954651 
L 367.477089 114.483145 
L 368.835477 98.06987 
L 370.193864 102.044754 
L 372.910638 131.52332 
L 374.269026 200.59855 
L 375.627413 155.902553 
L 376.9858 122.501265 
L 378.344187 147.213667 
L 379.702574 231.059603 
L 381.060962 131.710459 
L 382.419349 194.778779 
L 383.777736 113.721809 
L 385.136123 140.27939 
L 386.494511 211.231838 
L 387.852898 167.094251 
L 387.852898 167.094251 
" clip-path="url(#p14402aa664)" style="fill: none; stroke: #fde725; stroke-width: 1.5; stroke-linecap: square"/>
   </g>
   <g id="patch_3">
    <path d="M 46.965625 307.872 
L 46.965625 41.76 
" style="fill: none; stroke: #000000; stroke-width: 0.8; stroke-linejoin: miter; stroke-linecap: square"/>
   </g>
   <g id="patch_4">
    <path d="M 404.085625 307.872 
L 404.085625 41.76 
" style="fill: none; stroke: #000000; stroke-width: 0.8; stroke-linejoin: miter; stroke-linecap: square"/>
   </g>
   <g id="patch_5">
    <path d="M 46.965625 307.872 
L 404.085625 307.872 
" style="fill: none; stroke: #000000; stroke-width: 0.8; stroke-linejoin: miter; stroke-linecap: square"/>
   </g>
   <g id="patch_6">
    <path d="M 46.965625 41.76 
L 404.085625 41.76 
" style="fill: none; stroke: #000000; stroke-width: 0.8; stroke-linejoin: miter; stroke-linecap: square"/>
   </g>
   <g id="legend_1">
    <g id="patch_7">
     <path d="M 423.941625 307.872 
L 717.31975 307.872 
Q 719.31975 307.872 719.31975 305.872 
L 719.31975 247.881375 
Q 719.31975 245.881375 717.31975 245.881375 
L 423.941625 245.881375 
Q 421.941625 245.881375 421.941625 247.881375 
L 421.941625 305.872 
Q 421.941625 307.872 423.941625 307.872 
z
" style="fill: #ffffff; opacity: 0.8; stroke: #cccccc; stroke-linejoin: miter"/>
    </g>
    <g id="text_18">
     <!-- q00 spec_mw Microwave-spectroscopy pulse amplitude () -->
     <g transform="translate(425.941625 257.479812) scale(0.1 -0.1)">
      <defs>
       <path id="DejaVuSans-5f" d="M 3263 -1063 
L 3263 -1509 
L -63 -1509 
L -63 -1063 
L 3263 -1063 
z
" transform="scale(0.015625)"/>
       <path id="DejaVuSans-6d" d="M 3328 2828 
Q 3544 3216 3844 3400 
Q 4144 3584 4550 3584 
Q 5097 3584 5394 3201 
Q 5691 2819 5691 2113 
L 5691 0 
L 5113 0 
L 5113 2094 
Q 5113 2597 4934 2840 
Q 4756 3084 4391 3084 
Q 3944 3084 3684 2787 
Q 3425 2491 3425 1978 
L 3425 0 
L 2847 0 
L 2847 2094 
Q 2847 2600 2669 2842 
Q 2491 3084 2119 3084 
Q 1678 3084 1418 2786 
Q 1159 2488 1159 1978 
L 1159 0 
L 581 0 
L 581 3500 
L 1159 3500 
L 1159 2956 
Q 1356 3278 1631 3431 
Q 1906 3584 2284 3584 
Q 2666 3584 2933 3390 
Q 3200 3197 3328 2828 
z
" transform="scale(0.015625)"/>
       <path id="DejaVuSans-77" d="M 269 3500 
L 844 3500 
L 1563 769 
L 2278 3500 
L 2956 3500 
L 3675 769 
L 4391 3500 
L 4966 3500 
L 4050 0 
L 3372 0 
L 2619 2869 
L 1863 0 
L 1184 0 
L 269 3500 
z
" transform="scale(0.015625)"/>
       <path id="DejaVuSans-69" d="M 603 3500 
L 1178 3500 
L 1178 0 
L 603 0 
L 603 3500 
z
M 603 4863 
L 1178 4863 
L 1178 4134 
L 603 4134 
L 603 4863 
z
" transform="scale(0.015625)"/>
       <path id="DejaVuSans-6f" d="M 1959 3097 
Q 1497 3097 1228 2736 
Q 959 2375 959 1747 
Q 959 1119 1226 758 
Q 1494 397 1959 397 
Q 2419 397 2687 759 
Q 2956 1122 2956 1747 
Q 2956 2369 2687 2733 
Q 2419 3097 1959 3097 
z
M 1959 3584 
Q 2709 3584 3137 3096 
Q 3566 2609 3566 1747 
Q 3566 888 3137 398 
Q 2709 -91 1959 -91 
Q 1206 -91 779 398 
Q 353 888 353 1747 
Q 353 2609 779 3096 
Q 1206 3584 1959 3584 
z
" transform="scale(0.015625)"/>
       <path id="DejaVuSans-76" d="M 191 3500 
L 800 3500 
L 1894 563 
L 2988 3500 
L 3597 3500 
L 2284 0 
L 1503 0 
L 191 3500 
z
" transform="scale(0.015625)"/>
       <path id="DejaVuSans-2d" d="M 313 2009 
L 1997 2009 
L 1997 1497 
L 313 1497 
L 313 2009 
z
" transform="scale(0.015625)"/>
       <path id="DejaVuSans-74" d="M 1172 4494 
L 1172 3500 
L 2356 3500 
L 2356 3053 
L 1172 3053 
L 1172 1153 
Q 1172 725 1289 603 
Q 1406 481 1766 481 
L 2356 481 
L 2356 0 
L 1766 0 
Q 1100 0 847 248 
Q 594 497 594 1153 
L 594 3053 
L 172 3053 
L 172 3500 
L 594 3500 
L 594 4494 
L 1172 4494 
z
" transform="scale(0.015625)"/>
       <path id="DejaVuSans-6c" d="M 603 4863 
L 1178 4863 
L 1178 0 
L 603 0 
L 603 4863 
z
" transform="scale(0.015625)"/>
       <path id="DejaVuSans-28" d="M 1984 4856 
Q 1566 4138 1362 3434 
Q 1159 2731 1159 2009 
Q 1159 1288 1364 580 
Q 1569 -128 1984 -844 
L 1484 -844 
Q 1016 -109 783 600 
Q 550 1309 550 2009 
Q 550 2706 781 3412 
Q 1013 4119 1484 4856 
L 1984 4856 
z
" transform="scale(0.015625)"/>
       <path id="DejaVuSans-29" d="M 513 4856 
L 1013 4856 
Q 1481 4119 1714 3412 
Q 1947 2706 1947 2009 
Q 1947 1309 1714 600 
Q 1481 -109 1013 -844 
L 513 -844 
Q 928 -128 1133 580 
Q 1338 1288 1338 2009 
Q 1338 2731 1133 3434 
Q 928 4138 513 4856 
z
" transform="scale(0.015625)"/>
      </defs>
      <use xlink:href="#DejaVuSans-71"/>
      <use xlink:href="#DejaVuSans-30" x="63.476562"/>
      <use xlink:href="#DejaVuSans-30" x="127.099609"/>
      <use xlink:href="#DejaVuSans-20" x="190.722656"/>
      <use xlink:href="#DejaVuSans-73" x="222.509766"/>
      <use xlink:href="#DejaVuSans-70" x="274.609375"/>
      <use xlink:href="#DejaVuSans-65" x="338.085938"/>
      <use xlink:href="#DejaVuSans-63" x="399.609375"/>
      <use xlink:href="#DejaVuSans-5f" x="454.589844"/>
      <use xlink:href="#DejaVuSans-6d" x="504.589844"/>
      <use xlink:href="#DejaVuSans-77" x="602.001953"/>
      <use xlink:href="#DejaVuSans-20" x="683.789062"/>
      <use xlink:href="#DejaVuSans-4d" x="715.576172"/>
      <use xlink:href="#DejaVuSans-69" x="801.855469"/>
      <use xlink:href="#DejaVuSans-63" x="829.638672"/>
      <use xlink:href="#DejaVuSans-72" x="884.619141"/>
      <use xlink:href="#DejaVuSans-6f" x="923.482422"/>
      <use xlink:href="#DejaVuSans-77" x="984.664062"/>
      <use xlink:href="#DejaVuSans-61" x="1066.451172"/>
      <use xlink:href="#DejaVuSans-76" x="1127.730469"/>
      <use xlink:href="#DejaVuSans-65" x="1186.910156"/>
      <use xlink:href="#DejaVuSans-2d" x="1248.433594"/>
      <use xlink:href="#DejaVuSans-73" x="1284.517578"/>
      <use xlink:href="#DejaVuSans-70" x="1336.617188"/>
      <use xlink:href="#DejaVuSans-65" x="1400.09375"/>
      <use xlink:href="#DejaVuSans-63" x="1461.617188"/>
      <use xlink:href="#DejaVuSans-74" x="1516.597656"/>
      <use xlink:href="#DejaVuSans-72" x="1555.806641"/>
      <use xlink:href="#DejaVuSans-6f" x="1594.669922"/>
      <use xlink:href="#DejaVuSans-73" x="1655.851562"/>
      <use xlink:href="#DejaVuSans-63" x="1707.951172"/>
      <use xlink:href="#DejaVuSans-6f" x="1762.931641"/>
      <use xlink:href="#DejaVuSans-70" x="1824.113281"/>
      <use xlink:href="#DejaVuSans-79" x="1887.589844"/>
      <use xlink:href="#DejaVuSans-20" x="1946.769531"/>
      <use xlink:href="#DejaVuSans-70" x="1978.556641"/>
      <use xlink:href="#DejaVuSans-75" x="2042.033203"/>
      <use xlink:href="#DejaVuSans-6c" x="2105.412109"/>
      <use xlink:href="#DejaVuSans-73" x="2133.195312"/>
      <use xlink:href="#DejaVuSans-65" x="2185.294922"/>
      <use xlink:href="#DejaVuSans-20" x="2246.818359"/>
      <use xlink:href="#DejaVuSans-61" x="2278.605469"/>
      <use xlink:href="#DejaVuSans-6d" x="2339.884766"/>
      <use xlink:href="#DejaVuSans-70" x="2437.296875"/>
      <use xlink:href="#DejaVuSans-6c" x="2500.773438"/>
      <use xlink:href="#DejaVuSans-69" x="2528.556641"/>
      <use xlink:href="#DejaVuSans-74" x="2556.339844"/>
      <use xlink:href="#DejaVuSans-75" x="2595.548828"/>
      <use xlink:href="#DejaVuSans-64" x="2658.927734"/>
      <use xlink:href="#DejaVuSans-65" x="2722.404297"/>
      <use xlink:href="#DejaVuSans-20" x="2783.927734"/>
      <use xlink:href="#DejaVuSans-28" x="2815.714844"/>
      <use xlink:href="#DejaVuSans-29" x="2854.728516"/>
     </g>
    </g>
    <g id="line2d_18">
     <path d="M 542.316625 268.936062 
L 552.316625 268.936062 
L 562.316625 268.936062 
" style="fill: none; stroke: #440154; stroke-width: 1.5; stroke-linecap: square"/>
    </g>
    <g id="text_19">
     <!-- 0.001 -->
     <g transform="translate(570.316625 272.436062) scale(0.1 -0.1)">
      <defs>
       <path id="DejaVuSans-2e" d="M 684 794 
L 1344 794 
L 1344 0 
L 684 0 
L 684 794 
z
" transform="scale(0.015625)"/>
      </defs>
      <use xlink:href="#DejaVuSans-30"/>
      <use xlink:href="#DejaVuSans-2e" x="63.623047"/>
      <use xlink:href="#DejaVuSans-30" x="95.410156"/>
      <use xlink:href="#DejaVuSans-30" x="159.033203"/>
      <use xlink:href="#DejaVuSans-31" x="222.65625"/>
     </g>
    </g>
    <g id="line2d_19">
     <path d="M 542.316625 283.614187 
L 552.316625 283.614187 
L 562.316625 283.614187 
" style="fill: none; stroke: #21918c; stroke-width: 1.5; stroke-linecap: square"/>
    </g>
    <g id="text_20">
     <!-- 0.041 -->
     <g transform="translate(570.316625 287.114187) scale(0.1 -0.1)">
      <use xlink:href="#DejaVuSans-30"/>
      <use xlink:href="#DejaVuSans-2e" x="63.623047"/>
      <use xlink:href="#DejaVuSans-30" x="95.410156"/>
      <use xlink:href="#DejaVuSans-34" x="159.033203"/>
      <use xlink:href="#DejaVuSans-31" x="222.65625"/>
     </g>
    </g>
    <g id="line2d_20">
     <path d="M 542.316625 298.292312 
L 552.316625 298.292312 
L 562.316625 298.292312 
" style="fill: none; stroke: #fde725; stroke-width: 1.5; stroke-linecap: square"/>
    </g>
    <g id="text_21">
     <!-- 0.081 -->
     <g transform="translate(570.316625 301.792312) scale(0.1 -0.1)">
      <use xlink:href="#DejaVuSans-30"/>
      <use xlink:href="#DejaVuSans-2e" x="63.623047"/>
      <use xlink:href="#DejaVuSans-30" x="95.410156"/>
      <use xlink:href="#DejaVuSans-38" x="159.033203"/>
      <use xlink:href="#DejaVuSans-31" x="222.65625"/>
     </g>
    </g>
   </g>
  </g>
  <g id="text_22">
   <!-- x0x1-y1 Pulsed spectroscopy vs power q00 -->
   <g transform="translate(90.053125 16.318125) scale(0.12 -0.12)">
    <defs>
     <path id="DejaVuSans-78" d="M 3513 3500 
L 2247 1797 
L 3578 0 
L 2900 0 
L 1881 1375 
L 863 0 
L 184 0 
L 1544 1831 
L 300 3500 
L 978 3500 
L 1906 2253 
L 2834 3500 
L 3513 3500 
z
" transform="scale(0.015625)"/>
    </defs>
    <use xlink:href="#DejaVuSans-78"/>
    <use xlink:href="#DejaVuSans-30" x="59.179688"/>
    <use xlink:href="#DejaVuSans-78" x="122.802734"/>
    <use xlink:href="#DejaVuSans-31" x="181.982422"/>
    <use xlink:href="#DejaVuSans-2d" x="245.605469"/>
    <use xlink:href="#DejaVuSans-79" x="279.939453"/>
    <use xlink:href="#DejaVuSans-31" x="339.119141"/>
    <use xlink:href="#DejaVuSans-20" x="402.742188"/>
    <use xlink:href="#DejaVuSans-50" x="434.529297"/>
    <use xlink:href="#DejaVuSans-75" x="493.082031"/>
    <use xlink:href="#DejaVuSans-6c" x="556.460938"/>
    <use xlink:href="#DejaVuSans-73" x="584.244141"/>
    <use xlink:href="#DejaVuSans-65" x="636.34375"/>
    <use xlink:href="#DejaVuSans-64" x="697.867188"/>
    <use xlink:href="#DejaVuSans-20" x="761.34375"/>
    <use xlink:href="#DejaVuSans-73" x="793.130859"/>
    <use xlink:href="#DejaVuSans-70" x="845.230469"/>
    <use xlink:href="#DejaVuSans-65" x="908.707031"/>
    <use xlink:href="#DejaVuSans-63" x="970.230469"/>
    <use xlink:href="#DejaVuSans-74" x="1025.210938"/>
    <use xlink:href="#DejaVuSans-72" x="1064.419922"/>
    <use xlink:href="#DejaVuSans-6f" x="1103.283203"/>
    <use xlink:href="#DejaVuSans-73" x="1164.464844"/>
    <use xlink:href="#DejaVuSans-63" x="1216.564453"/>
    <use xlink:href="#DejaVuSans-6f" x="1271.544922"/>
    <use xlink:href="#DejaVuSans-70" x="1332.726562"/>
    <use xlink:href="#DejaVuSans-79" x="1396.203125"/>
    <use xlink:href="#DejaVuSans-20" x="1455.382812"/>
    <use xlink:href="#DejaVuSans-76" x="1487.169922"/>
    <use xlink:href="#DejaVuSans-73" x="1546.349609"/>
    <use xlink:href="#DejaVuSans-20" x="1598.449219"/>
    <use xlink:href="#DejaVuSans-70" x="1630.236328"/>
    <use xlink:href="#DejaVuSans-6f" x="1693.712891"/>
    <use xlink:href="#DejaVuSans-77" x="1754.894531"/>
    <use xlink:href="#DejaVuSans-65" x="1836.681641"/>
    <use xlink:href="#DejaVuSans-72" x="1898.205078"/>
    <use xlink:href="#DejaVuSans-20" x="1939.318359"/>
    <use xlink:href="#DejaVuSans-71" x="1971.105469"/>
    <use xlink:href="#DejaVuSans-30" x="2034.582031"/>
    <use xlink:href="#DejaVuSans-30" x="2098.205078"/>
   </g>
   <!-- tuid: 20241114-113331-632-6664c0 -->
   <g transform="translate(110.42875 29.7555) scale(0.12 -0.12)">
    <defs>
     <path id="DejaVuSans-3a" d="M 750 794 
L 1409 794 
L 1409 0 
L 750 0 
L 750 794 
z
M 750 3309 
L 1409 3309 
L 1409 2516 
L 750 2516 
L 750 3309 
z
" transform="scale(0.015625)"/>
    </defs>
    <use xlink:href="#DejaVuSans-74"/>
    <use xlink:href="#DejaVuSans-75" x="39.208984"/>
    <use xlink:href="#DejaVuSans-69" x="102.587891"/>
    <use xlink:href="#DejaVuSans-64" x="130.371094"/>
    <use xlink:href="#DejaVuSans-3a" x="193.847656"/>
    <use xlink:href="#DejaVuSans-20" x="227.539062"/>
    <use xlink:href="#DejaVuSans-32" x="259.326172"/>
    <use xlink:href="#DejaVuSans-30" x="322.949219"/>
    <use xlink:href="#DejaVuSans-32" x="386.572266"/>
    <use xlink:href="#DejaVuSans-34" x="450.195312"/>
    <use xlink:href="#DejaVuSans-31" x="513.818359"/>
    <use xlink:href="#DejaVuSans-31" x="577.441406"/>
    <use xlink:href="#DejaVuSans-31" x="641.064453"/>
    <use xlink:href="#DejaVuSans-34" x="704.6875"/>
    <use xlink:href="#DejaVuSans-2d" x="768.310547"/>
    <use xlink:href="#DejaVuSans-31" x="804.394531"/>
    <use xlink:href="#DejaVuSans-31" x="868.017578"/>
    <use xlink:href="#DejaVuSans-33" x="931.640625"/>
    <use xlink:href="#DejaVuSans-33" x="995.263672"/>
    <use xlink:href="#DejaVuSans-33" x="1058.886719"/>
    <use xlink:href="#DejaVuSans-31" x="1122.509766"/>
    <use xlink:href="#DejaVuSans-2d" x="1186.132812"/>
    <use xlink:href="#DejaVuSans-36" x="1222.216797"/>
    <use xlink:href="#DejaVuSans-33" x="1285.839844"/>
    <use xlink:href="#DejaVuSans-32" x="1349.462891"/>
    <use xlink:href="#DejaVuSans-2d" x="1413.085938"/>
    <use xlink:href="#DejaVuSans-36" x="1449.169922"/>
    <use xlink:href="#DejaVuSans-36" x="1512.792969"/>
    <use xlink:href="#DejaVuSans-36" x="1576.416016"/>
    <use xlink:href="#DejaVuSans-34" x="1640.039062"/>
    <use xlink:href="#DejaVuSans-63" x="1703.662109"/>
    <use xlink:href="#DejaVuSans-30" x="1758.642578"/>
   </g>
  </g>
 </g>
 <defs>
  <clipPath id="p14402aa664">
   <rect x="46.965625" y="41.76" width="357.12" height="266.112"/>
  </clipPath>
 </defs>
</svg>
