<?xml version="1.0" encoding="utf-8" standalone="no"?>
<!DOCTYPE svg PUBLIC "-//W3C//DTD SVG 1.1//EN"
  "http://www.w3.org/Graphics/SVG/1.1/DTD/svg11.dtd">
<svg xmlns:xlink="http://www.w3.org/1999/xlink" width="723.335375pt" height="345.42825pt" viewBox="0 0 723.335375 345.42825" xmlns="http://www.w3.org/2000/svg" version="1.1">
 <metadata>
  <rdf:RDF xmlns:dc="http://purl.org/dc/elements/1.1/" xmlns:cc="http://creativecommons.org/ns#" xmlns:rdf="http://www.w3.org/1999/02/22-rdf-syntax-ns#">
   <cc:Work>
    <dc:type rdf:resource="http://purl.org/dc/dcmitype/StillImage"/>
    <dc:date>2024-11-14T11:38:51.013141</dc:date>
    <dc:format>image/svg+xml</dc:format>
    <dc:creator>
     <cc:Agent>
      <dc:title>Matplotlib v3.8.0, https://matplotlib.org/</dc:title>
     </cc:Agent>
    </dc:creator>
   </cc:Work>
  </rdf:RDF>
 </metadata>
 <defs>
  <style type="text/css">*{stroke-linejoin: round; stroke-linecap: butt}</style>
 </defs>
 <g id="figure_1">
  <g id="patch_1">
   <path d="M 0 345.42825 
L 723.335375 345.42825 
L 723.335375 -0 
L 0 -0 
L 0 345.42825 
z
" style="fill: none; opacity: 0"/>
  </g>
  <g id="axes_1">
   <g id="patch_2">
    <path d="M 43.78125 307.872 
L 400.90125 307.872 
L 400.90125 41.76 
L 43.78125 41.76 
z
" style="fill: #ffffff"/>
   </g>
   <g id="matplotlib.axis_1">
    <g id="xtick_1">
     <g id="line2d_1">
      <defs>
       <path id="m547d04fd62" d="M 0 0 
L 0 3.5 
" style="stroke: #000000; stroke-width: 0.8"/>
      </defs>
      <g>
       <use xlink:href="#m547d04fd62" x="111.188173" y="307.872" style="stroke: #000000; stroke-width: 0.8"/>
      </g>
     </g>
     <g id="text_1">
      <!-- 50 -->
      <g transform="translate(104.825673 322.470438) scale(0.1 -0.1)">
       <defs>
        <path id="DejaVuSans-35" d="M 691 4666 
L 3169 4666 
L 3169 4134 
L 1269 4134 
L 1269 2991 
Q 1406 3038 1543 3061 
Q 1681 3084 1819 3084 
Q 2600 3084 3056 2656 
Q 3513 2228 3513 1497 
Q 3513 744 3044 326 
Q 2575 -91 1722 -91 
Q 1428 -91 1123 -41 
Q 819 9 494 109 
L 494 744 
Q 775 591 1075 516 
Q 1375 441 1709 441 
Q 2250 441 2565 725 
Q 2881 1009 2881 1497 
Q 2881 1984 2565 2268 
Q 2250 2553 1709 2553 
Q 1456 2553 1204 2497 
Q 953 2441 691 2322 
L 691 4666 
z
" transform="scale(0.015625)"/>
        <path id="DejaVuSans-30" d="M 2034 4250 
Q 1547 4250 1301 3770 
Q 1056 3291 1056 2328 
Q 1056 1369 1301 889 
Q 1547 409 2034 409 
Q 2525 409 2770 889 
Q 3016 1369 3016 2328 
Q 3016 3291 2770 3770 
Q 2525 4250 2034 4250 
z
M 2034 4750 
Q 2819 4750 3233 4129 
Q 3647 3509 3647 2328 
Q 3647 1150 3233 529 
Q 2819 -91 2034 -91 
Q 1250 -91 836 529 
Q 422 1150 422 2328 
Q 422 3509 836 4129 
Q 1250 4750 2034 4750 
z
" transform="scale(0.015625)"/>
       </defs>
       <use xlink:href="#DejaVuSans-35"/>
       <use xlink:href="#DejaVuSans-30" x="63.623047"/>
      </g>
     </g>
    </g>
    <g id="xtick_2">
     <g id="line2d_2">
      <g>
       <use xlink:href="#m547d04fd62" x="179.107534" y="307.872" style="stroke: #000000; stroke-width: 0.8"/>
      </g>
     </g>
     <g id="text_2">
      <!-- 100 -->
      <g transform="translate(169.563784 322.470438) scale(0.1 -0.1)">
       <defs>
        <path id="DejaVuSans-31" d="M 794 531 
L 1825 531 
L 1825 4091 
L 703 3866 
L 703 4441 
L 1819 4666 
L 2450 4666 
L 2450 531 
L 3481 531 
L 3481 0 
L 794 0 
L 794 531 
z
" transform="scale(0.015625)"/>
       </defs>
       <use xlink:href="#DejaVuSans-31"/>
       <use xlink:href="#DejaVuSans-30" x="63.623047"/>
       <use xlink:href="#DejaVuSans-30" x="127.246094"/>
      </g>
     </g>
    </g>
    <g id="xtick_3">
     <g id="line2d_3">
      <g>
       <use xlink:href="#m547d04fd62" x="247.026895" y="307.872" style="stroke: #000000; stroke-width: 0.8"/>
      </g>
     </g>
     <g id="text_3">
      <!-- 150 -->
      <g transform="translate(237.483145 322.470438) scale(0.1 -0.1)">
       <use xlink:href="#DejaVuSans-31"/>
       <use xlink:href="#DejaVuSans-35" x="63.623047"/>
       <use xlink:href="#DejaVuSans-30" x="127.246094"/>
      </g>
     </g>
    </g>
    <g id="xtick_4">
     <g id="line2d_4">
      <g>
       <use xlink:href="#m547d04fd62" x="314.946256" y="307.872" style="stroke: #000000; stroke-width: 0.8"/>
      </g>
     </g>
     <g id="text_4">
      <!-- 200 -->
      <g transform="translate(305.402506 322.470438) scale(0.1 -0.1)">
       <defs>
        <path id="DejaVuSans-32" d="M 1228 531 
L 3431 531 
L 3431 0 
L 469 0 
L 469 531 
Q 828 903 1448 1529 
Q 2069 2156 2228 2338 
Q 2531 2678 2651 2914 
Q 2772 3150 2772 3378 
Q 2772 3750 2511 3984 
Q 2250 4219 1831 4219 
Q 1534 4219 1204 4116 
Q 875 4013 500 3803 
L 500 4441 
Q 881 4594 1212 4672 
Q 1544 4750 1819 4750 
Q 2544 4750 2975 4387 
Q 3406 4025 3406 3419 
Q 3406 3131 3298 2873 
Q 3191 2616 2906 2266 
Q 2828 2175 2409 1742 
Q 1991 1309 1228 531 
z
" transform="scale(0.015625)"/>
       </defs>
       <use xlink:href="#DejaVuSans-32"/>
       <use xlink:href="#DejaVuSans-30" x="63.623047"/>
       <use xlink:href="#DejaVuSans-30" x="127.246094"/>
      </g>
     </g>
    </g>
    <g id="xtick_5">
     <g id="line2d_5">
      <g>
       <use xlink:href="#m547d04fd62" x="382.865617" y="307.872" style="stroke: #000000; stroke-width: 0.8"/>
      </g>
     </g>
     <g id="text_5">
      <!-- 250 -->
      <g transform="translate(373.321867 322.470438) scale(0.1 -0.1)">
       <use xlink:href="#DejaVuSans-32"/>
       <use xlink:href="#DejaVuSans-35" x="63.623047"/>
       <use xlink:href="#DejaVuSans-30" x="127.246094"/>
      </g>
     </g>
    </g>
    <g id="text_6">
     <!-- Spec frequency [MHz] -->
     <g transform="translate(167.312344 336.148562) scale(0.1 -0.1)">
      <defs>
       <path id="DejaVuSans-53" d="M 3425 4513 
L 3425 3897 
Q 3066 4069 2747 4153 
Q 2428 4238 2131 4238 
Q 1616 4238 1336 4038 
Q 1056 3838 1056 3469 
Q 1056 3159 1242 3001 
Q 1428 2844 1947 2747 
L 2328 2669 
Q 3034 2534 3370 2195 
Q 3706 1856 3706 1288 
Q 3706 609 3251 259 
Q 2797 -91 1919 -91 
Q 1588 -91 1214 -16 
Q 841 59 441 206 
L 441 856 
Q 825 641 1194 531 
Q 1563 422 1919 422 
Q 2459 422 2753 634 
Q 3047 847 3047 1241 
Q 3047 1584 2836 1778 
Q 2625 1972 2144 2069 
L 1759 2144 
Q 1053 2284 737 2584 
Q 422 2884 422 3419 
Q 422 4038 858 4394 
Q 1294 4750 2059 4750 
Q 2388 4750 2728 4690 
Q 3069 4631 3425 4513 
z
" transform="scale(0.015625)"/>
       <path id="DejaVuSans-70" d="M 1159 525 
L 1159 -1331 
L 581 -1331 
L 581 3500 
L 1159 3500 
L 1159 2969 
Q 1341 3281 1617 3432 
Q 1894 3584 2278 3584 
Q 2916 3584 3314 3078 
Q 3713 2572 3713 1747 
Q 3713 922 3314 415 
Q 2916 -91 2278 -91 
Q 1894 -91 1617 61 
Q 1341 213 1159 525 
z
M 3116 1747 
Q 3116 2381 2855 2742 
Q 2594 3103 2138 3103 
Q 1681 3103 1420 2742 
Q 1159 2381 1159 1747 
Q 1159 1113 1420 752 
Q 1681 391 2138 391 
Q 2594 391 2855 752 
Q 3116 1113 3116 1747 
z
" transform="scale(0.015625)"/>
       <path id="DejaVuSans-65" d="M 3597 1894 
L 3597 1613 
L 953 1613 
Q 991 1019 1311 708 
Q 1631 397 2203 397 
Q 2534 397 2845 478 
Q 3156 559 3463 722 
L 3463 178 
Q 3153 47 2828 -22 
Q 2503 -91 2169 -91 
Q 1331 -91 842 396 
Q 353 884 353 1716 
Q 353 2575 817 3079 
Q 1281 3584 2069 3584 
Q 2775 3584 3186 3129 
Q 3597 2675 3597 1894 
z
M 3022 2063 
Q 3016 2534 2758 2815 
Q 2500 3097 2075 3097 
Q 1594 3097 1305 2825 
Q 1016 2553 972 2059 
L 3022 2063 
z
" transform="scale(0.015625)"/>
       <path id="DejaVuSans-63" d="M 3122 3366 
L 3122 2828 
Q 2878 2963 2633 3030 
Q 2388 3097 2138 3097 
Q 1578 3097 1268 2742 
Q 959 2388 959 1747 
Q 959 1106 1268 751 
Q 1578 397 2138 397 
Q 2388 397 2633 464 
Q 2878 531 3122 666 
L 3122 134 
Q 2881 22 2623 -34 
Q 2366 -91 2075 -91 
Q 1284 -91 818 406 
Q 353 903 353 1747 
Q 353 2603 823 3093 
Q 1294 3584 2113 3584 
Q 2378 3584 2631 3529 
Q 2884 3475 3122 3366 
z
" transform="scale(0.015625)"/>
       <path id="DejaVuSans-20" transform="scale(0.015625)"/>
       <path id="DejaVuSans-66" d="M 2375 4863 
L 2375 4384 
L 1825 4384 
Q 1516 4384 1395 4259 
Q 1275 4134 1275 3809 
L 1275 3500 
L 2222 3500 
L 2222 3053 
L 1275 3053 
L 1275 0 
L 697 0 
L 697 3053 
L 147 3053 
L 147 3500 
L 697 3500 
L 697 3744 
Q 697 4328 969 4595 
Q 1241 4863 1831 4863 
L 2375 4863 
z
" transform="scale(0.015625)"/>
       <path id="DejaVuSans-72" d="M 2631 2963 
Q 2534 3019 2420 3045 
Q 2306 3072 2169 3072 
Q 1681 3072 1420 2755 
Q 1159 2438 1159 1844 
L 1159 0 
L 581 0 
L 581 3500 
L 1159 3500 
L 1159 2956 
Q 1341 3275 1631 3429 
Q 1922 3584 2338 3584 
Q 2397 3584 2469 3576 
Q 2541 3569 2628 3553 
L 2631 2963 
z
" transform="scale(0.015625)"/>
       <path id="DejaVuSans-71" d="M 947 1747 
Q 947 1113 1208 752 
Q 1469 391 1925 391 
Q 2381 391 2643 752 
Q 2906 1113 2906 1747 
Q 2906 2381 2643 2742 
Q 2381 3103 1925 3103 
Q 1469 3103 1208 2742 
Q 947 2381 947 1747 
z
M 2906 525 
Q 2725 213 2448 61 
Q 2172 -91 1784 -91 
Q 1150 -91 751 415 
Q 353 922 353 1747 
Q 353 2572 751 3078 
Q 1150 3584 1784 3584 
Q 2172 3584 2448 3432 
Q 2725 3281 2906 2969 
L 2906 3500 
L 3481 3500 
L 3481 -1331 
L 2906 -1331 
L 2906 525 
z
" transform="scale(0.015625)"/>
       <path id="DejaVuSans-75" d="M 544 1381 
L 544 3500 
L 1119 3500 
L 1119 1403 
Q 1119 906 1312 657 
Q 1506 409 1894 409 
Q 2359 409 2629 706 
Q 2900 1003 2900 1516 
L 2900 3500 
L 3475 3500 
L 3475 0 
L 2900 0 
L 2900 538 
Q 2691 219 2414 64 
Q 2138 -91 1772 -91 
Q 1169 -91 856 284 
Q 544 659 544 1381 
z
M 1991 3584 
L 1991 3584 
z
" transform="scale(0.015625)"/>
       <path id="DejaVuSans-6e" d="M 3513 2113 
L 3513 0 
L 2938 0 
L 2938 2094 
Q 2938 2591 2744 2837 
Q 2550 3084 2163 3084 
Q 1697 3084 1428 2787 
Q 1159 2491 1159 1978 
L 1159 0 
L 581 0 
L 581 3500 
L 1159 3500 
L 1159 2956 
Q 1366 3272 1645 3428 
Q 1925 3584 2291 3584 
Q 2894 3584 3203 3211 
Q 3513 2838 3513 2113 
z
" transform="scale(0.015625)"/>
       <path id="DejaVuSans-79" d="M 2059 -325 
Q 1816 -950 1584 -1140 
Q 1353 -1331 966 -1331 
L 506 -1331 
L 506 -850 
L 844 -850 
Q 1081 -850 1212 -737 
Q 1344 -625 1503 -206 
L 1606 56 
L 191 3500 
L 800 3500 
L 1894 763 
L 2988 3500 
L 3597 3500 
L 2059 -325 
z
" transform="scale(0.015625)"/>
       <path id="DejaVuSans-5b" d="M 550 4863 
L 1875 4863 
L 1875 4416 
L 1125 4416 
L 1125 -397 
L 1875 -397 
L 1875 -844 
L 550 -844 
L 550 4863 
z
" transform="scale(0.015625)"/>
       <path id="DejaVuSans-4d" d="M 628 4666 
L 1569 4666 
L 2759 1491 
L 3956 4666 
L 4897 4666 
L 4897 0 
L 4281 0 
L 4281 4097 
L 3078 897 
L 2444 897 
L 1241 4097 
L 1241 0 
L 628 0 
L 628 4666 
z
" transform="scale(0.015625)"/>
       <path id="DejaVuSans-48" d="M 628 4666 
L 1259 4666 
L 1259 2753 
L 3553 2753 
L 3553 4666 
L 4184 4666 
L 4184 0 
L 3553 0 
L 3553 2222 
L 1259 2222 
L 1259 0 
L 628 0 
L 628 4666 
z
" transform="scale(0.015625)"/>
       <path id="DejaVuSans-7a" d="M 353 3500 
L 3084 3500 
L 3084 2975 
L 922 459 
L 3084 459 
L 3084 0 
L 275 0 
L 275 525 
L 2438 3041 
L 353 3041 
L 353 3500 
z
" transform="scale(0.015625)"/>
       <path id="DejaVuSans-5d" d="M 1947 4863 
L 1947 -844 
L 622 -844 
L 622 -397 
L 1369 -397 
L 1369 4416 
L 622 4416 
L 622 4863 
L 1947 4863 
z
" transform="scale(0.015625)"/>
      </defs>
      <use xlink:href="#DejaVuSans-53"/>
      <use xlink:href="#DejaVuSans-70" x="63.476562"/>
      <use xlink:href="#DejaVuSans-65" x="126.953125"/>
      <use xlink:href="#DejaVuSans-63" x="188.476562"/>
      <use xlink:href="#DejaVuSans-20" x="243.457031"/>
      <use xlink:href="#DejaVuSans-66" x="275.244141"/>
      <use xlink:href="#DejaVuSans-72" x="310.449219"/>
      <use xlink:href="#DejaVuSans-65" x="349.3125"/>
      <use xlink:href="#DejaVuSans-71" x="410.835938"/>
      <use xlink:href="#DejaVuSans-75" x="474.3125"/>
      <use xlink:href="#DejaVuSans-65" x="537.691406"/>
      <use xlink:href="#DejaVuSans-6e" x="599.214844"/>
      <use xlink:href="#DejaVuSans-63" x="662.59375"/>
      <use xlink:href="#DejaVuSans-79" x="717.574219"/>
      <use xlink:href="#DejaVuSans-20" x="776.753906"/>
      <use xlink:href="#DejaVuSans-5b" x="808.541016"/>
      <use xlink:href="#DejaVuSans-4d" x="847.554688"/>
      <use xlink:href="#DejaVuSans-48" x="933.833984"/>
      <use xlink:href="#DejaVuSans-7a" x="1009.029297"/>
      <use xlink:href="#DejaVuSans-5d" x="1061.519531"/>
     </g>
    </g>
    <g id="text_7">
     <!-- +5 GHz -->
     <g transform="translate(362.46375 335.148562) scale(0.1 -0.1)">
      <defs>
       <path id="DejaVuSans-2b" d="M 2944 4013 
L 2944 2272 
L 4684 2272 
L 4684 1741 
L 2944 1741 
L 2944 0 
L 2419 0 
L 2419 1741 
L 678 1741 
L 678 2272 
L 2419 2272 
L 2419 4013 
L 2944 4013 
z
" transform="scale(0.015625)"/>
       <path id="DejaVuSans-47" d="M 3809 666 
L 3809 1919 
L 2778 1919 
L 2778 2438 
L 4434 2438 
L 4434 434 
Q 4069 175 3628 42 
Q 3188 -91 2688 -91 
Q 1594 -91 976 548 
Q 359 1188 359 2328 
Q 359 3472 976 4111 
Q 1594 4750 2688 4750 
Q 3144 4750 3555 4637 
Q 3966 4525 4313 4306 
L 4313 3634 
Q 3963 3931 3569 4081 
Q 3175 4231 2741 4231 
Q 1884 4231 1454 3753 
Q 1025 3275 1025 2328 
Q 1025 1384 1454 906 
Q 1884 428 2741 428 
Q 3075 428 3337 486 
Q 3600 544 3809 666 
z
" transform="scale(0.015625)"/>
      </defs>
      <use xlink:href="#DejaVuSans-2b"/>
      <use xlink:href="#DejaVuSans-35" x="83.789062"/>
      <use xlink:href="#DejaVuSans-20" x="147.412109"/>
      <use xlink:href="#DejaVuSans-47" x="179.199219"/>
      <use xlink:href="#DejaVuSans-48" x="256.689453"/>
      <use xlink:href="#DejaVuSans-7a" x="331.884766"/>
     </g>
    </g>
   </g>
   <g id="matplotlib.axis_2">
    <g id="ytick_1">
     <g id="line2d_6">
      <defs>
       <path id="ma8ed9abb21" d="M 0 0 
L -3.5 0 
" style="stroke: #000000; stroke-width: 0.8"/>
      </defs>
      <g>
       <use xlink:href="#ma8ed9abb21" x="43.78125" y="277.222795" style="stroke: #000000; stroke-width: 0.8"/>
      </g>
     </g>
     <g id="text_8">
      <!-- 2 -->
      <g transform="translate(30.41875 281.022014) scale(0.1 -0.1)">
       <use xlink:href="#DejaVuSans-32"/>
      </g>
     </g>
    </g>
    <g id="ytick_2">
     <g id="line2d_7">
      <g>
       <use xlink:href="#ma8ed9abb21" x="43.78125" y="242.230347" style="stroke: #000000; stroke-width: 0.8"/>
      </g>
     </g>
     <g id="text_9">
      <!-- 2.5 -->
      <g transform="translate(20.878125 246.029566) scale(0.1 -0.1)">
       <defs>
        <path id="DejaVuSans-2e" d="M 684 794 
L 1344 794 
L 1344 0 
L 684 0 
L 684 794 
z
" transform="scale(0.015625)"/>
       </defs>
       <use xlink:href="#DejaVuSans-32"/>
       <use xlink:href="#DejaVuSans-2e" x="63.623047"/>
       <use xlink:href="#DejaVuSans-35" x="95.410156"/>
      </g>
     </g>
    </g>
    <g id="ytick_3">
     <g id="line2d_8">
      <g>
       <use xlink:href="#ma8ed9abb21" x="43.78125" y="207.2379" style="stroke: #000000; stroke-width: 0.8"/>
      </g>
     </g>
     <g id="text_10">
      <!-- 3 -->
      <g transform="translate(30.41875 211.037118) scale(0.1 -0.1)">
       <defs>
        <path id="DejaVuSans-33" d="M 2597 2516 
Q 3050 2419 3304 2112 
Q 3559 1806 3559 1356 
Q 3559 666 3084 287 
Q 2609 -91 1734 -91 
Q 1441 -91 1130 -33 
Q 819 25 488 141 
L 488 750 
Q 750 597 1062 519 
Q 1375 441 1716 441 
Q 2309 441 2620 675 
Q 2931 909 2931 1356 
Q 2931 1769 2642 2001 
Q 2353 2234 1838 2234 
L 1294 2234 
L 1294 2753 
L 1863 2753 
Q 2328 2753 2575 2939 
Q 2822 3125 2822 3475 
Q 2822 3834 2567 4026 
Q 2313 4219 1838 4219 
Q 1578 4219 1281 4162 
Q 984 4106 628 3988 
L 628 4550 
Q 988 4650 1302 4700 
Q 1616 4750 1894 4750 
Q 2613 4750 3031 4423 
Q 3450 4097 3450 3541 
Q 3450 3153 3228 2886 
Q 3006 2619 2597 2516 
z
" transform="scale(0.015625)"/>
       </defs>
       <use xlink:href="#DejaVuSans-33"/>
      </g>
     </g>
    </g>
    <g id="ytick_4">
     <g id="line2d_9">
      <g>
       <use xlink:href="#ma8ed9abb21" x="43.78125" y="172.245452" style="stroke: #000000; stroke-width: 0.8"/>
      </g>
     </g>
     <g id="text_11">
      <!-- 3.5 -->
      <g transform="translate(20.878125 176.044671) scale(0.1 -0.1)">
       <use xlink:href="#DejaVuSans-33"/>
       <use xlink:href="#DejaVuSans-2e" x="63.623047"/>
       <use xlink:href="#DejaVuSans-35" x="95.410156"/>
      </g>
     </g>
    </g>
    <g id="ytick_5">
     <g id="line2d_10">
      <g>
       <use xlink:href="#ma8ed9abb21" x="43.78125" y="137.253004" style="stroke: #000000; stroke-width: 0.8"/>
      </g>
     </g>
     <g id="text_12">
      <!-- 4 -->
      <g transform="translate(30.41875 141.052223) scale(0.1 -0.1)">
       <defs>
        <path id="DejaVuSans-34" d="M 2419 4116 
L 825 1625 
L 2419 1625 
L 2419 4116 
z
M 2253 4666 
L 3047 4666 
L 3047 1625 
L 3713 1625 
L 3713 1100 
L 3047 1100 
L 3047 0 
L 2419 0 
L 2419 1100 
L 313 1100 
L 313 1709 
L 2253 4666 
z
" transform="scale(0.015625)"/>
       </defs>
       <use xlink:href="#DejaVuSans-34"/>
      </g>
     </g>
    </g>
    <g id="ytick_6">
     <g id="line2d_11">
      <g>
       <use xlink:href="#ma8ed9abb21" x="43.78125" y="102.260556" style="stroke: #000000; stroke-width: 0.8"/>
      </g>
     </g>
     <g id="text_13">
      <!-- 4.5 -->
      <g transform="translate(20.878125 106.059775) scale(0.1 -0.1)">
       <use xlink:href="#DejaVuSans-34"/>
       <use xlink:href="#DejaVuSans-2e" x="63.623047"/>
       <use xlink:href="#DejaVuSans-35" x="95.410156"/>
      </g>
     </g>
    </g>
    <g id="ytick_7">
     <g id="line2d_12">
      <g>
       <use xlink:href="#ma8ed9abb21" x="43.78125" y="67.268109" style="stroke: #000000; stroke-width: 0.8"/>
      </g>
     </g>
     <g id="text_14">
      <!-- 5 -->
      <g transform="translate(30.41875 71.067327) scale(0.1 -0.1)">
       <use xlink:href="#DejaVuSans-35"/>
      </g>
     </g>
    </g>
    <g id="text_15">
     <!-- Magnitude0 [mV] -->
     <g transform="translate(14.798438 218.268344) rotate(-90) scale(0.1 -0.1)">
      <defs>
       <path id="DejaVuSans-61" d="M 2194 1759 
Q 1497 1759 1228 1600 
Q 959 1441 959 1056 
Q 959 750 1161 570 
Q 1363 391 1709 391 
Q 2188 391 2477 730 
Q 2766 1069 2766 1631 
L 2766 1759 
L 2194 1759 
z
M 3341 1997 
L 3341 0 
L 2766 0 
L 2766 531 
Q 2569 213 2275 61 
Q 1981 -91 1556 -91 
Q 1019 -91 701 211 
Q 384 513 384 1019 
Q 384 1609 779 1909 
Q 1175 2209 1959 2209 
L 2766 2209 
L 2766 2266 
Q 2766 2663 2505 2880 
Q 2244 3097 1772 3097 
Q 1472 3097 1187 3025 
Q 903 2953 641 2809 
L 641 3341 
Q 956 3463 1253 3523 
Q 1550 3584 1831 3584 
Q 2591 3584 2966 3190 
Q 3341 2797 3341 1997 
z
" transform="scale(0.015625)"/>
       <path id="DejaVuSans-67" d="M 2906 1791 
Q 2906 2416 2648 2759 
Q 2391 3103 1925 3103 
Q 1463 3103 1205 2759 
Q 947 2416 947 1791 
Q 947 1169 1205 825 
Q 1463 481 1925 481 
Q 2391 481 2648 825 
Q 2906 1169 2906 1791 
z
M 3481 434 
Q 3481 -459 3084 -895 
Q 2688 -1331 1869 -1331 
Q 1566 -1331 1297 -1286 
Q 1028 -1241 775 -1147 
L 775 -588 
Q 1028 -725 1275 -790 
Q 1522 -856 1778 -856 
Q 2344 -856 2625 -561 
Q 2906 -266 2906 331 
L 2906 616 
Q 2728 306 2450 153 
Q 2172 0 1784 0 
Q 1141 0 747 490 
Q 353 981 353 1791 
Q 353 2603 747 3093 
Q 1141 3584 1784 3584 
Q 2172 3584 2450 3431 
Q 2728 3278 2906 2969 
L 2906 3500 
L 3481 3500 
L 3481 434 
z
" transform="scale(0.015625)"/>
       <path id="DejaVuSans-69" d="M 603 3500 
L 1178 3500 
L 1178 0 
L 603 0 
L 603 3500 
z
M 603 4863 
L 1178 4863 
L 1178 4134 
L 603 4134 
L 603 4863 
z
" transform="scale(0.015625)"/>
       <path id="DejaVuSans-74" d="M 1172 4494 
L 1172 3500 
L 2356 3500 
L 2356 3053 
L 1172 3053 
L 1172 1153 
Q 1172 725 1289 603 
Q 1406 481 1766 481 
L 2356 481 
L 2356 0 
L 1766 0 
Q 1100 0 847 248 
Q 594 497 594 1153 
L 594 3053 
L 172 3053 
L 172 3500 
L 594 3500 
L 594 4494 
L 1172 4494 
z
" transform="scale(0.015625)"/>
       <path id="DejaVuSans-64" d="M 2906 2969 
L 2906 4863 
L 3481 4863 
L 3481 0 
L 2906 0 
L 2906 525 
Q 2725 213 2448 61 
Q 2172 -91 1784 -91 
Q 1150 -91 751 415 
Q 353 922 353 1747 
Q 353 2572 751 3078 
Q 1150 3584 1784 3584 
Q 2172 3584 2448 3432 
Q 2725 3281 2906 2969 
z
M 947 1747 
Q 947 1113 1208 752 
Q 1469 391 1925 391 
Q 2381 391 2643 752 
Q 2906 1113 2906 1747 
Q 2906 2381 2643 2742 
Q 2381 3103 1925 3103 
Q 1469 3103 1208 2742 
Q 947 2381 947 1747 
z
" transform="scale(0.015625)"/>
       <path id="DejaVuSans-6d" d="M 3328 2828 
Q 3544 3216 3844 3400 
Q 4144 3584 4550 3584 
Q 5097 3584 5394 3201 
Q 5691 2819 5691 2113 
L 5691 0 
L 5113 0 
L 5113 2094 
Q 5113 2597 4934 2840 
Q 4756 3084 4391 3084 
Q 3944 3084 3684 2787 
Q 3425 2491 3425 1978 
L 3425 0 
L 2847 0 
L 2847 2094 
Q 2847 2600 2669 2842 
Q 2491 3084 2119 3084 
Q 1678 3084 1418 2786 
Q 1159 2488 1159 1978 
L 1159 0 
L 581 0 
L 581 3500 
L 1159 3500 
L 1159 2956 
Q 1356 3278 1631 3431 
Q 1906 3584 2284 3584 
Q 2666 3584 2933 3390 
Q 3200 3197 3328 2828 
z
" transform="scale(0.015625)"/>
       <path id="DejaVuSans-56" d="M 1831 0 
L 50 4666 
L 709 4666 
L 2188 738 
L 3669 4666 
L 4325 4666 
L 2547 0 
L 1831 0 
z
" transform="scale(0.015625)"/>
      </defs>
      <use xlink:href="#DejaVuSans-4d"/>
      <use xlink:href="#DejaVuSans-61" x="86.279297"/>
      <use xlink:href="#DejaVuSans-67" x="147.558594"/>
      <use xlink:href="#DejaVuSans-6e" x="211.035156"/>
      <use xlink:href="#DejaVuSans-69" x="274.414062"/>
      <use xlink:href="#DejaVuSans-74" x="302.197266"/>
      <use xlink:href="#DejaVuSans-75" x="341.40625"/>
      <use xlink:href="#DejaVuSans-64" x="404.785156"/>
      <use xlink:href="#DejaVuSans-65" x="468.261719"/>
      <use xlink:href="#DejaVuSans-30" x="529.785156"/>
      <use xlink:href="#DejaVuSans-20" x="593.408203"/>
      <use xlink:href="#DejaVuSans-5b" x="625.195312"/>
      <use xlink:href="#DejaVuSans-6d" x="664.208984"/>
      <use xlink:href="#DejaVuSans-56" x="761.621094"/>
      <use xlink:href="#DejaVuSans-5d" x="830.029297"/>
     </g>
    </g>
   </g>
   <g id="line2d_13">
    <path d="M 60.013977 290.02775 
L 61.372364 292.107736 
L 62.730752 288.737786 
L 64.089139 288.745086 
L 65.447526 290.271666 
L 66.805913 287.426067 
L 68.164301 291.178204 
L 69.522688 286.840675 
L 70.881075 291.389096 
L 72.239462 289.976421 
L 73.597849 290.116436 
L 74.956237 293.287831 
L 76.314624 291.732902 
L 77.673011 291.146325 
L 79.031398 291.401629 
L 80.389786 285.994948 
L 81.748173 291.909347 
L 83.10656 289.985584 
L 84.464947 286.799543 
L 85.823334 287.850858 
L 87.181722 288.478508 
L 88.540109 291.624182 
L 89.898496 289.986915 
L 91.256883 289.531727 
L 92.615271 293.236488 
L 93.973658 292.766416 
L 95.332045 290.961595 
L 96.690432 291.301456 
L 98.048819 288.482108 
L 99.407207 290.707454 
L 100.765594 292.408876 
L 102.123981 291.166676 
L 103.482368 288.064268 
L 104.840756 289.759341 
L 106.199143 290.751272 
L 107.55753 291.259325 
L 108.915917 288.909229 
L 110.274304 285.189535 
L 111.632692 294.941924 
L 112.991079 285.237376 
L 114.349466 290.768875 
L 115.707853 286.589241 
L 117.06624 292.425114 
L 118.424628 290.652765 
L 119.783015 288.052041 
L 121.141402 292.82744 
L 122.499789 289.700915 
L 123.858177 292.414699 
L 125.216564 290.915471 
L 126.574951 292.861665 
L 127.933338 290.883608 
L 129.291725 290.178573 
L 130.650113 284.782685 
L 132.0085 281.330718 
L 133.366887 282.794658 
L 134.725274 290.108233 
L 136.083662 293.056432 
L 137.442049 285.677335 
L 138.800436 288.276346 
L 140.158823 283.311298 
L 141.51721 280.645139 
L 142.875598 293.434449 
L 144.233985 291.64314 
L 145.592372 286.566219 
L 146.950759 291.129033 
L 148.309147 288.612011 
L 149.667534 288.689495 
L 151.025921 291.625226 
L 152.384308 289.572241 
L 153.742695 288.150226 
L 155.101083 290.526219 
L 156.45947 291.081708 
L 157.817857 289.738858 
L 159.176244 290.523376 
L 160.534632 291.538401 
L 161.893019 288.802766 
L 163.251406 287.017774 
L 164.609793 288.114851 
L 165.96818 288.216285 
L 167.326568 289.990382 
L 168.684955 289.652789 
L 170.043342 287.487917 
L 171.401729 290.195719 
L 172.760116 289.335493 
L 174.118504 289.643163 
L 175.476891 283.388528 
L 176.835278 285.380969 
L 178.193665 289.353539 
L 179.552053 288.727811 
L 180.91044 290.488429 
L 182.268827 288.885841 
L 183.627214 285.217319 
L 184.985601 284.035597 
L 186.343989 285.882259 
L 187.702376 289.480161 
L 189.060763 286.165167 
L 190.41915 286.80477 
L 191.777538 289.161397 
L 193.135925 282.848886 
L 194.494312 288.550883 
L 195.852699 288.803839 
L 197.211086 281.309198 
L 198.569474 286.319448 
L 199.927861 286.705983 
L 201.286248 282.339484 
L 202.644635 288.868322 
L 204.003023 287.985991 
L 205.36141 285.449389 
L 206.719797 288.733808 
L 208.078184 288.145576 
L 209.436571 285.157736 
L 210.794959 285.960917 
L 212.153346 288.394239 
L 213.511733 294.092917 
L 214.87012 288.670534 
L 216.228508 286.932523 
L 217.586895 289.956828 
L 218.945282 289.648669 
L 220.303669 289.978991 
L 221.662056 289.952708 
L 223.020444 292.979021 
L 224.378831 289.416056 
L 225.737218 286.254217 
L 227.095605 288.499873 
L 229.81238 289.957108 
L 231.170767 283.407561 
L 232.529154 288.127929 
L 233.887541 281.333852 
L 235.245929 289.170267 
L 236.604316 282.360977 
L 237.962703 289.401875 
L 239.32109 289.864909 
L 240.679477 289.866741 
L 242.037865 289.040022 
L 243.396252 290.570805 
L 244.754639 293.807373 
L 246.113026 291.296232 
L 247.471414 291.13472 
L 248.829801 290.668787 
L 250.188188 288.891269 
L 251.546575 292.642764 
L 252.904962 286.274126 
L 254.26335 292.780537 
L 255.621737 289.406774 
L 256.980124 292.560552 
L 258.338511 291.789026 
L 259.696899 286.369109 
L 261.055286 289.040506 
L 262.413673 292.270892 
L 263.77206 289.755586 
L 265.130447 287.768414 
L 266.488835 292.229242 
L 267.847222 288.376996 
L 269.205609 285.325018 
L 270.563996 287.446066 
L 271.922384 292.929808 
L 273.280771 290.888474 
L 274.639158 287.303571 
L 275.997545 284.435908 
L 277.355932 287.907836 
L 278.71432 292.807251 
L 280.072707 292.847318 
L 281.431094 288.493009 
L 282.789481 287.651053 
L 284.147868 291.99755 
L 285.506256 289.898964 
L 286.864643 288.43943 
L 288.22303 288.452978 
L 289.581417 292.502925 
L 290.939805 293.421762 
L 292.298192 289.164467 
L 293.656579 288.040768 
L 295.014966 289.72097 
L 296.373353 291.208537 
L 297.731741 288.691261 
L 299.090128 286.955203 
L 300.448515 294.602751 
L 301.806902 289.93875 
L 303.16529 291.098144 
L 304.523677 290.637439 
L 305.882064 292.071564 
L 307.240451 290.771751 
L 308.598838 281.284427 
L 309.957226 289.551732 
L 311.315613 290.580327 
L 312.674 288.64702 
L 314.032387 288.637682 
L 315.390775 290.7898 
L 316.749162 292.109683 
L 318.107549 289.537902 
L 319.465936 290.36609 
L 320.824323 294.19168 
L 322.182711 286.113769 
L 323.541098 288.711687 
L 324.899485 285.972632 
L 326.257872 290.743366 
L 327.61626 291.106001 
L 328.974647 277.042958 
L 330.333034 281.949012 
L 331.691421 108.221904 
L 333.049808 291.168238 
L 334.408196 287.907974 
L 335.766583 291.64644 
L 337.12497 288.525411 
L 338.483357 289.272387 
L 339.841744 283.535757 
L 341.200132 292.066438 
L 342.558519 289.842695 
L 343.916906 289.925353 
L 345.275293 291.637894 
L 346.633681 292.086211 
L 347.992068 289.586922 
L 349.350455 288.804584 
L 350.708842 291.998261 
L 352.067229 289.018451 
L 353.425617 287.145946 
L 354.784004 293.800424 
L 356.142391 291.863983 
L 357.500778 290.946278 
L 358.859166 295.776 
L 360.217553 288.848819 
L 361.57594 294.978627 
L 362.934327 289.822515 
L 364.292714 289.652468 
L 365.651102 288.923671 
L 367.009489 285.565818 
L 368.367876 291.556707 
L 369.726263 290.510219 
L 371.084651 285.313522 
L 372.443038 289.11951 
L 373.801425 294.845071 
L 375.159812 291.984816 
L 376.518199 293.846122 
L 377.876587 292.040274 
L 379.234974 293.083009 
L 380.593361 290.4723 
L 381.951748 289.504549 
L 383.310136 292.330752 
L 384.668523 287.52499 
L 384.668523 287.52499 
" clip-path="url(#pedb9ff8824)" style="fill: none; stroke: #440154; stroke-width: 1.5; stroke-linecap: square"/>
   </g>
   <g id="line2d_14">
    <path d="M 60.013977 283.848985 
L 61.372364 291.946439 
L 62.730752 286.020742 
L 64.089139 286.446351 
L 65.447526 287.284522 
L 66.805913 288.826834 
L 68.164301 292.857574 
L 69.522688 284.614946 
L 70.881075 294.157941 
L 72.239462 285.237663 
L 73.597849 290.999183 
L 74.956237 287.560898 
L 76.314624 293.610222 
L 77.673011 289.755846 
L 79.031398 291.439131 
L 80.389786 287.305765 
L 81.748173 286.998709 
L 83.10656 286.36305 
L 84.464947 290.165354 
L 87.181722 291.215253 
L 88.540109 292.027998 
L 89.898496 291.857457 
L 91.256883 289.868357 
L 92.615271 292.353504 
L 93.973658 286.944514 
L 95.332045 290.369141 
L 96.690432 292.220708 
L 98.048819 291.771192 
L 99.407207 286.236283 
L 100.765594 288.409776 
L 102.123981 287.585732 
L 103.482368 285.135273 
L 104.840756 283.18741 
L 106.199143 283.654628 
L 107.55753 287.40562 
L 108.915917 290.234927 
L 110.274304 290.25531 
L 111.632692 291.961573 
L 112.991079 292.630565 
L 114.349466 293.119189 
L 115.707853 292.186193 
L 117.06624 294.057899 
L 118.424628 290.794593 
L 119.783015 291.086487 
L 121.141402 290.101274 
L 122.499789 288.253328 
L 123.858177 287.675316 
L 125.216564 286.581882 
L 126.574951 290.230128 
L 127.933338 288.703041 
L 129.291725 289.223909 
L 130.650113 291.920503 
L 132.0085 293.948091 
L 133.366887 289.708832 
L 134.725274 291.025374 
L 137.442049 294.453692 
L 138.800436 289.049746 
L 140.158823 281.600367 
L 141.51721 290.828002 
L 142.875598 283.570004 
L 144.233985 290.280319 
L 145.592372 291.426648 
L 146.950759 288.03159 
L 148.309147 288.925669 
L 149.667534 282.045133 
L 151.025921 290.027584 
L 152.384308 289.384489 
L 153.742695 284.621913 
L 155.101083 290.392971 
L 156.45947 285.575984 
L 157.817857 289.536701 
L 159.176244 280.324059 
L 160.534632 291.703308 
L 161.893019 287.641427 
L 163.251406 287.974455 
L 164.609793 286.993724 
L 165.96818 274.94982 
L 167.326568 272.836605 
L 168.684955 286.046814 
L 170.043342 290.730705 
L 171.401729 289.533756 
L 172.760116 290.069709 
L 174.118504 288.948086 
L 175.476891 289.496915 
L 176.835278 289.411692 
L 178.193665 287.724914 
L 179.552053 288.356799 
L 180.91044 285.425341 
L 182.268827 283.242516 
L 183.627214 286.669281 
L 184.985601 286.79038 
L 186.343989 289.145701 
L 187.702376 285.63619 
L 189.060763 286.429704 
L 190.41915 287.489857 
L 191.777538 281.695677 
L 193.135925 287.477424 
L 194.494312 292.469466 
L 195.852699 290.32962 
L 197.211086 282.198656 
L 198.569474 286.728687 
L 199.927861 285.799373 
L 201.286248 287.880062 
L 202.644635 283.962909 
L 204.003023 284.940716 
L 205.36141 279.154391 
L 206.719797 283.98717 
L 208.078184 285.196447 
L 209.436571 289.873202 
L 210.794959 281.410043 
L 212.153346 286.971887 
L 213.511733 283.638244 
L 214.87012 285.444122 
L 216.228508 285.577242 
L 217.586895 284.666252 
L 218.945282 287.357665 
L 220.303669 291.102411 
L 221.662056 291.448885 
L 224.378831 285.956259 
L 225.737218 286.642563 
L 227.095605 284.500367 
L 228.453992 288.353436 
L 229.81238 286.96002 
L 231.170767 290.386366 
L 232.529154 288.713924 
L 233.887541 287.639611 
L 235.245929 290.17144 
L 236.604316 289.74496 
L 237.962703 286.60913 
L 239.32109 290.129562 
L 240.679477 283.408919 
L 242.037865 286.227466 
L 243.396252 280.255114 
L 244.754639 290.173143 
L 246.113026 289.493519 
L 247.471414 286.193393 
L 248.829801 282.030775 
L 250.188188 276.603129 
L 251.546575 285.701315 
L 252.904962 276.780214 
L 254.26335 274.417022 
L 255.621737 277.191431 
L 256.980124 275.672633 
L 258.338511 278.179798 
L 259.696899 262.08106 
L 261.055286 275.697799 
L 262.413673 273.084233 
L 263.77206 276.71854 
L 265.130447 283.680209 
L 266.488835 284.579414 
L 267.847222 285.674393 
L 269.205609 288.872545 
L 270.563996 290.55367 
L 271.922384 279.8191 
L 273.280771 282.953155 
L 274.639158 269.965853 
L 275.997545 278.844397 
L 277.355932 266.423165 
L 278.71432 256.522909 
L 280.072707 286.965177 
L 281.431094 282.981612 
L 282.789481 279.540394 
L 284.147868 281.902248 
L 285.506256 279.229244 
L 286.864643 273.08495 
L 288.22303 257.966302 
L 289.581417 265.409133 
L 290.939805 286.381999 
L 292.298192 281.330018 
L 293.656579 254.813816 
L 295.014966 241.528299 
L 296.373353 270.091135 
L 297.731741 277.780885 
L 299.090128 242.140125 
L 300.448515 264.454493 
L 301.806902 276.999765 
L 303.16529 221.709358 
L 304.523677 287.802649 
L 305.882064 222.855562 
L 307.240451 259.816259 
L 308.598838 204.292346 
L 309.957226 273.888717 
L 311.315613 209.921336 
L 312.674 175.333747 
L 314.032387 174.470855 
L 315.390775 157.168477 
L 316.749162 148.151387 
L 318.107549 249.44178 
L 319.465936 120.674492 
L 320.824323 208.652181 
L 322.182711 114.402818 
L 323.541098 250.956306 
L 324.899485 235.038246 
L 326.257872 147.497952 
L 327.61626 85.575625 
L 328.974647 76.895468 
L 330.333034 124.114055 
L 331.691421 85.028484 
L 333.049808 59.980401 
L 334.408196 87.672097 
L 335.766583 181.720953 
L 337.12497 198.356466 
L 338.483357 118.862224 
L 339.841744 96.179763 
L 341.200132 262.75676 
L 342.558519 229.587529 
L 343.916906 231.208351 
L 345.275293 160.976782 
L 346.633681 173.02322 
L 347.992068 260.669504 
L 349.350455 189.911051 
L 350.708842 193.464594 
L 352.067229 226.083068 
L 353.425617 288.944255 
L 354.784004 212.510998 
L 356.142391 283.712055 
L 357.500778 217.097851 
L 358.859166 274.613584 
L 360.217553 256.505113 
L 361.57594 251.875816 
L 362.934327 277.286076 
L 364.292714 253.801733 
L 365.651102 252.000203 
L 367.009489 288.167645 
L 368.367876 279.235001 
L 369.726263 262.330791 
L 371.084651 257.259924 
L 372.443038 285.201491 
L 373.801425 280.229651 
L 375.159812 257.476687 
L 376.518199 258.181372 
L 377.876587 260.566892 
L 380.593361 287.940388 
L 381.951748 280.171948 
L 383.310136 269.486522 
L 384.668523 270.141162 
L 384.668523 270.141162 
" clip-path="url(#pedb9ff8824)" style="fill: none; stroke: #21918c; stroke-width: 1.5; stroke-linecap: square"/>
   </g>
   <g id="line2d_15">
    <path d="M 60.013977 280.055937 
L 61.372364 286.190863 
L 62.730752 286.508122 
L 64.089139 287.179167 
L 65.447526 285.769808 
L 66.805913 293.089939 
L 68.164301 286.430072 
L 69.522688 285.327399 
L 70.881075 285.278517 
L 72.239462 289.668926 
L 73.597849 287.953371 
L 74.956237 288.231758 
L 76.314624 291.247973 
L 77.673011 291.198759 
L 79.031398 287.914147 
L 80.389786 290.209136 
L 81.748173 288.802066 
L 83.10656 292.616466 
L 84.464947 291.271837 
L 85.823334 287.909671 
L 87.181722 287.653612 
L 88.540109 285.79368 
L 89.898496 287.110018 
L 91.256883 284.134277 
L 92.615271 282.874518 
L 93.973658 279.549446 
L 95.332045 283.353549 
L 96.690432 283.267964 
L 98.048819 284.546955 
L 99.407207 281.209178 
L 100.765594 282.271557 
L 102.123981 277.376833 
L 103.482368 275.318837 
L 104.840756 234.927343 
L 106.199143 235.059489 
L 107.55753 282.67649 
L 108.915917 287.209006 
L 110.274304 281.133257 
L 111.632692 284.445267 
L 112.991079 266.240168 
L 114.349466 287.1265 
L 115.707853 289.478756 
L 117.06624 282.203224 
L 118.424628 283.790093 
L 119.783015 286.712479 
L 121.141402 287.264818 
L 122.499789 281.256019 
L 123.858177 282.105722 
L 125.216564 290.832101 
L 126.574951 287.085103 
L 127.933338 276.026912 
L 129.291725 287.368464 
L 130.650113 283.271734 
L 132.0085 288.101938 
L 133.366887 284.955751 
L 134.725274 290.578995 
L 136.083662 289.433811 
L 137.442049 284.865653 
L 138.800436 286.038502 
L 140.158823 287.68072 
L 141.51721 290.918483 
L 142.875598 284.802097 
L 144.233985 284.510124 
L 145.592372 288.901745 
L 146.950759 282.810385 
L 148.309147 286.109935 
L 149.667534 284.812109 
L 151.025921 285.170331 
L 152.384308 278.058186 
L 153.742695 275.957445 
L 155.101083 283.040917 
L 156.45947 284.87774 
L 157.817857 275.974563 
L 159.176244 281.027625 
L 160.534632 281.615546 
L 161.893019 276.77276 
L 163.251406 276.147326 
L 164.609793 269.474449 
L 165.96818 227.870392 
L 167.326568 210.336416 
L 168.684955 264.608217 
L 170.043342 270.383549 
L 171.401729 277.944334 
L 172.760116 277.850972 
L 174.118504 292.764422 
L 175.476891 285.087572 
L 176.835278 284.841399 
L 178.193665 291.171162 
L 179.552053 284.816956 
L 180.91044 282.787809 
L 182.268827 288.477127 
L 183.627214 289.075925 
L 184.985601 280.145084 
L 186.343989 290.660592 
L 187.702376 286.465553 
L 189.060763 275.985246 
L 190.41915 286.834196 
L 191.777538 283.492924 
L 193.135925 278.937863 
L 194.494312 278.578783 
L 195.852699 282.394804 
L 197.211086 288.369144 
L 198.569474 275.126299 
L 199.927861 268.409326 
L 201.286248 279.894668 
L 202.644635 272.196148 
L 204.003023 269.754183 
L 205.36141 269.877095 
L 206.719797 274.467438 
L 208.078184 272.402258 
L 209.436571 276.712515 
L 210.794959 278.020389 
L 212.153346 279.0907 
L 213.511733 285.945837 
L 214.87012 285.18846 
L 216.228508 283.320868 
L 217.586895 283.79039 
L 218.945282 280.204899 
L 220.303669 272.653444 
L 221.662056 271.817951 
L 223.020444 265.93875 
L 224.378831 269.810028 
L 225.737218 251.511147 
L 227.095605 267.324254 
L 228.453992 268.269063 
L 229.81238 274.591894 
L 231.170767 287.833629 
L 232.529154 289.830631 
L 233.887541 285.412877 
L 235.245929 283.794448 
L 236.604316 271.849547 
L 237.962703 265.767675 
L 239.32109 269.33746 
L 240.679477 256.014133 
L 242.037865 274.127294 
L 243.396252 285.19583 
L 244.754639 288.840225 
L 246.113026 283.042207 
L 247.471414 262.061981 
L 248.829801 257.154098 
L 250.188188 253.748713 
L 251.546575 267.048415 
L 252.904962 276.615001 
L 254.26335 285.210715 
L 255.621737 286.92192 
L 256.980124 259.995167 
L 258.338511 247.919781 
L 259.696899 252.978368 
L 261.055286 248.103005 
L 262.413673 283.720237 
L 263.77206 261.498949 
L 265.130447 241.289896 
L 266.488835 252.478284 
L 267.847222 285.805742 
L 269.205609 270.797895 
L 270.563996 259.974744 
L 271.922384 262.471804 
L 273.280771 278.799948 
L 274.639158 234.697416 
L 275.997545 266.112048 
L 277.355932 254.912395 
L 278.71432 205.303185 
L 280.072707 258.245656 
L 281.431094 251.709253 
L 282.789481 276.435448 
L 284.147868 242.333958 
L 285.506256 223.890249 
L 286.864643 233.796424 
L 288.22303 228.953384 
L 289.581417 202.644063 
L 290.939805 240.209379 
L 293.656579 194.084194 
L 295.014966 191.979618 
L 296.373353 184.208083 
L 297.731741 180.537419 
L 299.090128 172.650235 
L 300.448515 140.166977 
L 301.806902 152.090597 
L 303.16529 218.713847 
L 304.523677 149.656215 
L 305.882064 174.341717 
L 307.240451 160.246116 
L 308.598838 219.868177 
L 309.957226 251.066551 
L 311.315613 261.700239 
L 312.674 195.669024 
L 314.032387 113.531237 
L 315.390775 158.218284 
L 316.749162 230.537187 
L 318.107549 139.698218 
L 319.465936 92.555346 
L 320.824323 71.915835 
L 322.182711 102.525317 
L 323.541098 67.076686 
L 324.899485 75.407796 
L 326.257872 114.220277 
L 327.61626 74.85857 
L 328.974647 205.313847 
L 330.333034 93.943588 
L 331.691421 151.679752 
L 333.049808 58.281586 
L 334.408196 53.856 
L 335.766583 247.636949 
L 337.12497 221.171415 
L 338.483357 72.273586 
L 339.841744 79.692696 
L 341.200132 190.601997 
L 342.558519 249.354501 
L 343.916906 92.376061 
L 345.275293 268.496078 
L 346.633681 226.840995 
L 349.350455 139.270102 
L 350.708842 149.084833 
L 352.067229 247.786573 
L 353.425617 134.356255 
L 354.784004 140.738342 
L 356.142391 254.293002 
L 357.500778 146.14261 
L 358.859166 256.116219 
L 360.217553 232.883885 
L 361.57594 180.861511 
L 362.934327 166.835339 
L 364.292714 177.7554 
L 365.651102 177.931453 
L 367.009489 182.618662 
L 368.367876 193.057861 
L 369.726263 216.864578 
L 371.084651 271.444347 
L 372.443038 238.863905 
L 373.801425 200.209243 
L 375.159812 222.61145 
L 376.518199 283.088986 
L 377.876587 200.317521 
L 379.234974 266.189454 
L 380.593361 188.477838 
L 383.310136 272.113436 
L 384.668523 244.837036 
L 384.668523 244.837036 
" clip-path="url(#pedb9ff8824)" style="fill: none; stroke: #fde725; stroke-width: 1.5; stroke-linecap: square"/>
   </g>
   <g id="patch_3">
    <path d="M 43.78125 307.872 
L 43.78125 41.76 
" style="fill: none; stroke: #000000; stroke-width: 0.8; stroke-linejoin: miter; stroke-linecap: square"/>
   </g>
   <g id="patch_4">
    <path d="M 400.90125 307.872 
L 400.90125 41.76 
" style="fill: none; stroke: #000000; stroke-width: 0.8; stroke-linejoin: miter; stroke-linecap: square"/>
   </g>
   <g id="patch_5">
    <path d="M 43.78125 307.872 
L 400.90125 307.872 
" style="fill: none; stroke: #000000; stroke-width: 0.8; stroke-linejoin: miter; stroke-linecap: square"/>
   </g>
   <g id="patch_6">
    <path d="M 43.78125 41.76 
L 400.90125 41.76 
" style="fill: none; stroke: #000000; stroke-width: 0.8; stroke-linejoin: miter; stroke-linecap: square"/>
   </g>
   <g id="legend_1">
    <g id="patch_7">
     <path d="M 420.75725 307.872 
L 714.135375 307.872 
Q 716.135375 307.872 716.135375 305.872 
L 716.135375 247.881375 
Q 716.135375 245.881375 714.135375 245.881375 
L 420.75725 245.881375 
Q 418.75725 245.881375 418.75725 247.881375 
L 418.75725 305.872 
Q 418.75725 307.872 420.75725 307.872 
z
" style="fill: #ffffff; opacity: 0.8; stroke: #cccccc; stroke-linejoin: miter"/>
    </g>
    <g id="text_16">
     <!-- q00 spec_mw Microwave-spectroscopy pulse amplitude () -->
     <g transform="translate(422.75725 257.479812) scale(0.1 -0.1)">
      <defs>
       <path id="DejaVuSans-73" d="M 2834 3397 
L 2834 2853 
Q 2591 2978 2328 3040 
Q 2066 3103 1784 3103 
Q 1356 3103 1142 2972 
Q 928 2841 928 2578 
Q 928 2378 1081 2264 
Q 1234 2150 1697 2047 
L 1894 2003 
Q 2506 1872 2764 1633 
Q 3022 1394 3022 966 
Q 3022 478 2636 193 
Q 2250 -91 1575 -91 
Q 1294 -91 989 -36 
Q 684 19 347 128 
L 347 722 
Q 666 556 975 473 
Q 1284 391 1588 391 
Q 1994 391 2212 530 
Q 2431 669 2431 922 
Q 2431 1156 2273 1281 
Q 2116 1406 1581 1522 
L 1381 1569 
Q 847 1681 609 1914 
Q 372 2147 372 2553 
Q 372 3047 722 3315 
Q 1072 3584 1716 3584 
Q 2034 3584 2315 3537 
Q 2597 3491 2834 3397 
z
" transform="scale(0.015625)"/>
       <path id="DejaVuSans-5f" d="M 3263 -1063 
L 3263 -1509 
L -63 -1509 
L -63 -1063 
L 3263 -1063 
z
" transform="scale(0.015625)"/>
       <path id="DejaVuSans-77" d="M 269 3500 
L 844 3500 
L 1563 769 
L 2278 3500 
L 2956 3500 
L 3675 769 
L 4391 3500 
L 4966 3500 
L 4050 0 
L 3372 0 
L 2619 2869 
L 1863 0 
L 1184 0 
L 269 3500 
z
" transform="scale(0.015625)"/>
       <path id="DejaVuSans-6f" d="M 1959 3097 
Q 1497 3097 1228 2736 
Q 959 2375 959 1747 
Q 959 1119 1226 758 
Q 1494 397 1959 397 
Q 2419 397 2687 759 
Q 2956 1122 2956 1747 
Q 2956 2369 2687 2733 
Q 2419 3097 1959 3097 
z
M 1959 3584 
Q 2709 3584 3137 3096 
Q 3566 2609 3566 1747 
Q 3566 888 3137 398 
Q 2709 -91 1959 -91 
Q 1206 -91 779 398 
Q 353 888 353 1747 
Q 353 2609 779 3096 
Q 1206 3584 1959 3584 
z
" transform="scale(0.015625)"/>
       <path id="DejaVuSans-76" d="M 191 3500 
L 800 3500 
L 1894 563 
L 2988 3500 
L 3597 3500 
L 2284 0 
L 1503 0 
L 191 3500 
z
" transform="scale(0.015625)"/>
       <path id="DejaVuSans-2d" d="M 313 2009 
L 1997 2009 
L 1997 1497 
L 313 1497 
L 313 2009 
z
" transform="scale(0.015625)"/>
       <path id="DejaVuSans-6c" d="M 603 4863 
L 1178 4863 
L 1178 0 
L 603 0 
L 603 4863 
z
" transform="scale(0.015625)"/>
       <path id="DejaVuSans-28" d="M 1984 4856 
Q 1566 4138 1362 3434 
Q 1159 2731 1159 2009 
Q 1159 1288 1364 580 
Q 1569 -128 1984 -844 
L 1484 -844 
Q 1016 -109 783 600 
Q 550 1309 550 2009 
Q 550 2706 781 3412 
Q 1013 4119 1484 4856 
L 1984 4856 
z
" transform="scale(0.015625)"/>
       <path id="DejaVuSans-29" d="M 513 4856 
L 1013 4856 
Q 1481 4119 1714 3412 
Q 1947 2706 1947 2009 
Q 1947 1309 1714 600 
Q 1481 -109 1013 -844 
L 513 -844 
Q 928 -128 1133 580 
Q 1338 1288 1338 2009 
Q 1338 2731 1133 3434 
Q 928 4138 513 4856 
z
" transform="scale(0.015625)"/>
      </defs>
      <use xlink:href="#DejaVuSans-71"/>
      <use xlink:href="#DejaVuSans-30" x="63.476562"/>
      <use xlink:href="#DejaVuSans-30" x="127.099609"/>
      <use xlink:href="#DejaVuSans-20" x="190.722656"/>
      <use xlink:href="#DejaVuSans-73" x="222.509766"/>
      <use xlink:href="#DejaVuSans-70" x="274.609375"/>
      <use xlink:href="#DejaVuSans-65" x="338.085938"/>
      <use xlink:href="#DejaVuSans-63" x="399.609375"/>
      <use xlink:href="#DejaVuSans-5f" x="454.589844"/>
      <use xlink:href="#DejaVuSans-6d" x="504.589844"/>
      <use xlink:href="#DejaVuSans-77" x="602.001953"/>
      <use xlink:href="#DejaVuSans-20" x="683.789062"/>
      <use xlink:href="#DejaVuSans-4d" x="715.576172"/>
      <use xlink:href="#DejaVuSans-69" x="801.855469"/>
      <use xlink:href="#DejaVuSans-63" x="829.638672"/>
      <use xlink:href="#DejaVuSans-72" x="884.619141"/>
      <use xlink:href="#DejaVuSans-6f" x="923.482422"/>
      <use xlink:href="#DejaVuSans-77" x="984.664062"/>
      <use xlink:href="#DejaVuSans-61" x="1066.451172"/>
      <use xlink:href="#DejaVuSans-76" x="1127.730469"/>
      <use xlink:href="#DejaVuSans-65" x="1186.910156"/>
      <use xlink:href="#DejaVuSans-2d" x="1248.433594"/>
      <use xlink:href="#DejaVuSans-73" x="1284.517578"/>
      <use xlink:href="#DejaVuSans-70" x="1336.617188"/>
      <use xlink:href="#DejaVuSans-65" x="1400.09375"/>
      <use xlink:href="#DejaVuSans-63" x="1461.617188"/>
      <use xlink:href="#DejaVuSans-74" x="1516.597656"/>
      <use xlink:href="#DejaVuSans-72" x="1555.806641"/>
      <use xlink:href="#DejaVuSans-6f" x="1594.669922"/>
      <use xlink:href="#DejaVuSans-73" x="1655.851562"/>
      <use xlink:href="#DejaVuSans-63" x="1707.951172"/>
      <use xlink:href="#DejaVuSans-6f" x="1762.931641"/>
      <use xlink:href="#DejaVuSans-70" x="1824.113281"/>
      <use xlink:href="#DejaVuSans-79" x="1887.589844"/>
      <use xlink:href="#DejaVuSans-20" x="1946.769531"/>
      <use xlink:href="#DejaVuSans-70" x="1978.556641"/>
      <use xlink:href="#DejaVuSans-75" x="2042.033203"/>
      <use xlink:href="#DejaVuSans-6c" x="2105.412109"/>
      <use xlink:href="#DejaVuSans-73" x="2133.195312"/>
      <use xlink:href="#DejaVuSans-65" x="2185.294922"/>
      <use xlink:href="#DejaVuSans-20" x="2246.818359"/>
      <use xlink:href="#DejaVuSans-61" x="2278.605469"/>
      <use xlink:href="#DejaVuSans-6d" x="2339.884766"/>
      <use xlink:href="#DejaVuSans-70" x="2437.296875"/>
      <use xlink:href="#DejaVuSans-6c" x="2500.773438"/>
      <use xlink:href="#DejaVuSans-69" x="2528.556641"/>
      <use xlink:href="#DejaVuSans-74" x="2556.339844"/>
      <use xlink:href="#DejaVuSans-75" x="2595.548828"/>
      <use xlink:href="#DejaVuSans-64" x="2658.927734"/>
      <use xlink:href="#DejaVuSans-65" x="2722.404297"/>
      <use xlink:href="#DejaVuSans-20" x="2783.927734"/>
      <use xlink:href="#DejaVuSans-28" x="2815.714844"/>
      <use xlink:href="#DejaVuSans-29" x="2854.728516"/>
     </g>
    </g>
    <g id="line2d_16">
     <path d="M 539.13225 268.936062 
L 549.13225 268.936062 
L 559.13225 268.936062 
" style="fill: none; stroke: #440154; stroke-width: 1.5; stroke-linecap: square"/>
    </g>
    <g id="text_17">
     <!-- 0.001 -->
     <g transform="translate(567.13225 272.436062) scale(0.1 -0.1)">
      <use xlink:href="#DejaVuSans-30"/>
      <use xlink:href="#DejaVuSans-2e" x="63.623047"/>
      <use xlink:href="#DejaVuSans-30" x="95.410156"/>
      <use xlink:href="#DejaVuSans-30" x="159.033203"/>
      <use xlink:href="#DejaVuSans-31" x="222.65625"/>
     </g>
    </g>
    <g id="line2d_17">
     <path d="M 539.13225 283.614187 
L 549.13225 283.614187 
L 559.13225 283.614187 
" style="fill: none; stroke: #21918c; stroke-width: 1.5; stroke-linecap: square"/>
    </g>
    <g id="text_18">
     <!-- 0.041 -->
     <g transform="translate(567.13225 287.114187) scale(0.1 -0.1)">
      <use xlink:href="#DejaVuSans-30"/>
      <use xlink:href="#DejaVuSans-2e" x="63.623047"/>
      <use xlink:href="#DejaVuSans-30" x="95.410156"/>
      <use xlink:href="#DejaVuSans-34" x="159.033203"/>
      <use xlink:href="#DejaVuSans-31" x="222.65625"/>
     </g>
    </g>
    <g id="line2d_18">
     <path d="M 539.13225 298.292312 
L 549.13225 298.292312 
L 559.13225 298.292312 
" style="fill: none; stroke: #fde725; stroke-width: 1.5; stroke-linecap: square"/>
    </g>
    <g id="text_19">
     <!-- 0.081 -->
     <g transform="translate(567.13225 301.792312) scale(0.1 -0.1)">
      <defs>
       <path id="DejaVuSans-38" d="M 2034 2216 
Q 1584 2216 1326 1975 
Q 1069 1734 1069 1313 
Q 1069 891 1326 650 
Q 1584 409 2034 409 
Q 2484 409 2743 651 
Q 3003 894 3003 1313 
Q 3003 1734 2745 1975 
Q 2488 2216 2034 2216 
z
M 1403 2484 
Q 997 2584 770 2862 
Q 544 3141 544 3541 
Q 544 4100 942 4425 
Q 1341 4750 2034 4750 
Q 2731 4750 3128 4425 
Q 3525 4100 3525 3541 
Q 3525 3141 3298 2862 
Q 3072 2584 2669 2484 
Q 3125 2378 3379 2068 
Q 3634 1759 3634 1313 
Q 3634 634 3220 271 
Q 2806 -91 2034 -91 
Q 1263 -91 848 271 
Q 434 634 434 1313 
Q 434 1759 690 2068 
Q 947 2378 1403 2484 
z
M 1172 3481 
Q 1172 3119 1398 2916 
Q 1625 2713 2034 2713 
Q 2441 2713 2670 2916 
Q 2900 3119 2900 3481 
Q 2900 3844 2670 4047 
Q 2441 4250 2034 4250 
Q 1625 4250 1398 4047 
Q 1172 3844 1172 3481 
z
" transform="scale(0.015625)"/>
      </defs>
      <use xlink:href="#DejaVuSans-30"/>
      <use xlink:href="#DejaVuSans-2e" x="63.623047"/>
      <use xlink:href="#DejaVuSans-30" x="95.410156"/>
      <use xlink:href="#DejaVuSans-38" x="159.033203"/>
      <use xlink:href="#DejaVuSans-31" x="222.65625"/>
     </g>
    </g>
   </g>
  </g>
  <g id="text_20">
   <!-- x0x1-y0 Pulsed spectroscopy vs power q00 -->
   <g transform="translate(86.86875 16.318125) scale(0.12 -0.12)">
    <defs>
     <path id="DejaVuSans-78" d="M 3513 3500 
L 2247 1797 
L 3578 0 
L 2900 0 
L 1881 1375 
L 863 0 
L 184 0 
L 1544 1831 
L 300 3500 
L 978 3500 
L 1906 2253 
L 2834 3500 
L 3513 3500 
z
" transform="scale(0.015625)"/>
     <path id="DejaVuSans-50" d="M 1259 4147 
L 1259 2394 
L 2053 2394 
Q 2494 2394 2734 2622 
Q 2975 2850 2975 3272 
Q 2975 3691 2734 3919 
Q 2494 4147 2053 4147 
L 1259 4147 
z
M 628 4666 
L 2053 4666 
Q 2838 4666 3239 4311 
Q 3641 3956 3641 3272 
Q 3641 2581 3239 2228 
Q 2838 1875 2053 1875 
L 1259 1875 
L 1259 0 
L 628 0 
L 628 4666 
z
" transform="scale(0.015625)"/>
    </defs>
    <use xlink:href="#DejaVuSans-78"/>
    <use xlink:href="#DejaVuSans-30" x="59.179688"/>
    <use xlink:href="#DejaVuSans-78" x="122.802734"/>
    <use xlink:href="#DejaVuSans-31" x="181.982422"/>
    <use xlink:href="#DejaVuSans-2d" x="245.605469"/>
    <use xlink:href="#DejaVuSans-79" x="279.939453"/>
    <use xlink:href="#DejaVuSans-30" x="339.119141"/>
    <use xlink:href="#DejaVuSans-20" x="402.742188"/>
    <use xlink:href="#DejaVuSans-50" x="434.529297"/>
    <use xlink:href="#DejaVuSans-75" x="493.082031"/>
    <use xlink:href="#DejaVuSans-6c" x="556.460938"/>
    <use xlink:href="#DejaVuSans-73" x="584.244141"/>
    <use xlink:href="#DejaVuSans-65" x="636.34375"/>
    <use xlink:href="#DejaVuSans-64" x="697.867188"/>
    <use xlink:href="#DejaVuSans-20" x="761.34375"/>
    <use xlink:href="#DejaVuSans-73" x="793.130859"/>
    <use xlink:href="#DejaVuSans-70" x="845.230469"/>
    <use xlink:href="#DejaVuSans-65" x="908.707031"/>
    <use xlink:href="#DejaVuSans-63" x="970.230469"/>
    <use xlink:href="#DejaVuSans-74" x="1025.210938"/>
    <use xlink:href="#DejaVuSans-72" x="1064.419922"/>
    <use xlink:href="#DejaVuSans-6f" x="1103.283203"/>
    <use xlink:href="#DejaVuSans-73" x="1164.464844"/>
    <use xlink:href="#DejaVuSans-63" x="1216.564453"/>
    <use xlink:href="#DejaVuSans-6f" x="1271.544922"/>
    <use xlink:href="#DejaVuSans-70" x="1332.726562"/>
    <use xlink:href="#DejaVuSans-79" x="1396.203125"/>
    <use xlink:href="#DejaVuSans-20" x="1455.382812"/>
    <use xlink:href="#DejaVuSans-76" x="1487.169922"/>
    <use xlink:href="#DejaVuSans-73" x="1546.349609"/>
    <use xlink:href="#DejaVuSans-20" x="1598.449219"/>
    <use xlink:href="#DejaVuSans-70" x="1630.236328"/>
    <use xlink:href="#DejaVuSans-6f" x="1693.712891"/>
    <use xlink:href="#DejaVuSans-77" x="1754.894531"/>
    <use xlink:href="#DejaVuSans-65" x="1836.681641"/>
    <use xlink:href="#DejaVuSans-72" x="1898.205078"/>
    <use xlink:href="#DejaVuSans-20" x="1939.318359"/>
    <use xlink:href="#DejaVuSans-71" x="1971.105469"/>
    <use xlink:href="#DejaVuSans-30" x="2034.582031"/>
    <use xlink:href="#DejaVuSans-30" x="2098.205078"/>
   </g>
   <!-- tuid: 20241114-113331-632-6664c0 -->
   <g transform="translate(107.244375 29.7555) scale(0.12 -0.12)">
    <defs>
     <path id="DejaVuSans-3a" d="M 750 794 
L 1409 794 
L 1409 0 
L 750 0 
L 750 794 
z
M 750 3309 
L 1409 3309 
L 1409 2516 
L 750 2516 
L 750 3309 
z
" transform="scale(0.015625)"/>
     <path id="DejaVuSans-36" d="M 2113 2584 
Q 1688 2584 1439 2293 
Q 1191 2003 1191 1497 
Q 1191 994 1439 701 
Q 1688 409 2113 409 
Q 2538 409 2786 701 
Q 3034 994 3034 1497 
Q 3034 2003 2786 2293 
Q 2538 2584 2113 2584 
z
M 3366 4563 
L 3366 3988 
Q 3128 4100 2886 4159 
Q 2644 4219 2406 4219 
Q 1781 4219 1451 3797 
Q 1122 3375 1075 2522 
Q 1259 2794 1537 2939 
Q 1816 3084 2150 3084 
Q 2853 3084 3261 2657 
Q 3669 2231 3669 1497 
Q 3669 778 3244 343 
Q 2819 -91 2113 -91 
Q 1303 -91 875 529 
Q 447 1150 447 2328 
Q 447 3434 972 4092 
Q 1497 4750 2381 4750 
Q 2619 4750 2861 4703 
Q 3103 4656 3366 4563 
z
" transform="scale(0.015625)"/>
    </defs>
    <use xlink:href="#DejaVuSans-74"/>
    <use xlink:href="#DejaVuSans-75" x="39.208984"/>
    <use xlink:href="#DejaVuSans-69" x="102.587891"/>
    <use xlink:href="#DejaVuSans-64" x="130.371094"/>
    <use xlink:href="#DejaVuSans-3a" x="193.847656"/>
    <use xlink:href="#DejaVuSans-20" x="227.539062"/>
    <use xlink:href="#DejaVuSans-32" x="259.326172"/>
    <use xlink:href="#DejaVuSans-30" x="322.949219"/>
    <use xlink:href="#DejaVuSans-32" x="386.572266"/>
    <use xlink:href="#DejaVuSans-34" x="450.195312"/>
    <use xlink:href="#DejaVuSans-31" x="513.818359"/>
    <use xlink:href="#DejaVuSans-31" x="577.441406"/>
    <use xlink:href="#DejaVuSans-31" x="641.064453"/>
    <use xlink:href="#DejaVuSans-34" x="704.6875"/>
    <use xlink:href="#DejaVuSans-2d" x="768.310547"/>
    <use xlink:href="#DejaVuSans-31" x="804.394531"/>
    <use xlink:href="#DejaVuSans-31" x="868.017578"/>
    <use xlink:href="#DejaVuSans-33" x="931.640625"/>
    <use xlink:href="#DejaVuSans-33" x="995.263672"/>
    <use xlink:href="#DejaVuSans-33" x="1058.886719"/>
    <use xlink:href="#DejaVuSans-31" x="1122.509766"/>
    <use xlink:href="#DejaVuSans-2d" x="1186.132812"/>
    <use xlink:href="#DejaVuSans-36" x="1222.216797"/>
    <use xlink:href="#DejaVuSans-33" x="1285.839844"/>
    <use xlink:href="#DejaVuSans-32" x="1349.462891"/>
    <use xlink:href="#DejaVuSans-2d" x="1413.085938"/>
    <use xlink:href="#DejaVuSans-36" x="1449.169922"/>
    <use xlink:href="#DejaVuSans-36" x="1512.792969"/>
    <use xlink:href="#DejaVuSans-36" x="1576.416016"/>
    <use xlink:href="#DejaVuSans-34" x="1640.039062"/>
    <use xlink:href="#DejaVuSans-63" x="1703.662109"/>
    <use xlink:href="#DejaVuSans-30" x="1758.642578"/>
   </g>
  </g>
 </g>
 <defs>
  <clipPath id="pedb9ff8824">
   <rect x="43.78125" y="41.76" width="357.12" height="266.112"/>
  </clipPath>
 </defs>
</svg>
