<?xml version="1.0" encoding="utf-8" standalone="no"?>
<!DOCTYPE svg PUBLIC "-//W3C//DTD SVG 1.1//EN"
  "http://www.w3.org/Graphics/SVG/1.1/DTD/svg11.dtd">
<svg xmlns:xlink="http://www.w3.org/1999/xlink" width="577.771312pt" height="345.42825pt" viewBox="0 0 577.771312 345.42825" xmlns="http://www.w3.org/2000/svg" version="1.1">
 <metadata>
  <rdf:RDF xmlns:dc="http://purl.org/dc/elements/1.1/" xmlns:cc="http://creativecommons.org/ns#" xmlns:rdf="http://www.w3.org/1999/02/22-rdf-syntax-ns#">
   <cc:Work>
    <dc:type rdf:resource="http://purl.org/dc/dcmitype/StillImage"/>
    <dc:date>2024-11-14T10:40:21.135204</dc:date>
    <dc:format>image/svg+xml</dc:format>
    <dc:creator>
     <cc:Agent>
      <dc:title>Matplotlib v3.8.0, https://matplotlib.org/</dc:title>
     </cc:Agent>
    </dc:creator>
   </cc:Work>
  </rdf:RDF>
 </metadata>
 <defs>
  <style type="text/css">*{stroke-linejoin: round; stroke-linecap: butt}</style>
 </defs>
 <g id="figure_1">
  <g id="patch_1">
   <path d="M 0 345.42825 
L 577.771312 345.42825 
L 577.771312 -0 
L 0 -0 
L 0 345.42825 
z
" style="fill: none; opacity: 0"/>
  </g>
  <g id="axes_1">
   <g id="patch_2">
    <path d="M 50.595313 162.72 
L 407.715312 162.72 
L 407.715312 41.76 
L 50.595313 41.76 
z
" style="fill: #ffffff"/>
   </g>
   <g id="line2d_1">
    <path d="M 230.763403 162.72 
L 230.763403 41.76 
" clip-path="url(#pd8aa9c0365)" style="fill: none; stroke-dasharray: 5.55,2.4; stroke-dashoffset: 0; stroke: #d3d3d3; stroke-width: 1.5"/>
   </g>
   <g id="line2d_2">
    <path d="M 229.566268 162.72 
L 229.566268 41.76 
" clip-path="url(#pd8aa9c0365)" style="fill: none; stroke-dasharray: 5.55,2.4; stroke-dashoffset: 0; stroke: #808080; stroke-width: 1.5"/>
   </g>
   <g id="matplotlib.axis_1">
    <g id="xtick_1">
     <g id="line2d_3">
      <defs>
       <path id="m46b6e31ffe" d="M 0 0 
L 0 3.5 
" style="stroke: #000000; stroke-width: 0.8"/>
      </defs>
      <g>
       <use xlink:href="#m46b6e31ffe" x="83.580993" y="162.72" style="stroke: #000000; stroke-width: 0.8"/>
      </g>
     </g>
    </g>
    <g id="xtick_2">
     <g id="line2d_4">
      <g>
       <use xlink:href="#m46b6e31ffe" x="124.676505" y="162.72" style="stroke: #000000; stroke-width: 0.8"/>
      </g>
     </g>
    </g>
    <g id="xtick_3">
     <g id="line2d_5">
      <g>
       <use xlink:href="#m46b6e31ffe" x="165.772017" y="162.72" style="stroke: #000000; stroke-width: 0.8"/>
      </g>
     </g>
    </g>
    <g id="xtick_4">
     <g id="line2d_6">
      <g>
       <use xlink:href="#m46b6e31ffe" x="206.867529" y="162.72" style="stroke: #000000; stroke-width: 0.8"/>
      </g>
     </g>
    </g>
    <g id="xtick_5">
     <g id="line2d_7">
      <g>
       <use xlink:href="#m46b6e31ffe" x="247.963041" y="162.72" style="stroke: #000000; stroke-width: 0.8"/>
      </g>
     </g>
    </g>
    <g id="xtick_6">
     <g id="line2d_8">
      <g>
       <use xlink:href="#m46b6e31ffe" x="289.058553" y="162.72" style="stroke: #000000; stroke-width: 0.8"/>
      </g>
     </g>
    </g>
    <g id="xtick_7">
     <g id="line2d_9">
      <g>
       <use xlink:href="#m46b6e31ffe" x="330.154065" y="162.72" style="stroke: #000000; stroke-width: 0.8"/>
      </g>
     </g>
    </g>
    <g id="xtick_8">
     <g id="line2d_10">
      <g>
       <use xlink:href="#m46b6e31ffe" x="371.249577" y="162.72" style="stroke: #000000; stroke-width: 0.8"/>
      </g>
     </g>
    </g>
   </g>
   <g id="matplotlib.axis_2">
    <g id="ytick_1">
     <g id="line2d_11">
      <defs>
       <path id="m82057d6176" d="M 0 0 
L -3.5 0 
" style="stroke: #000000; stroke-width: 0.8"/>
      </defs>
      <g>
       <use xlink:href="#m82057d6176" x="50.595313" y="130.604215" style="stroke: #000000; stroke-width: 0.8"/>
      </g>
     </g>
     <g id="text_1">
      <!-- 0.2 -->
      <g transform="translate(27.692188 134.403434) scale(0.1 -0.1)">
       <defs>
        <path id="DejaVuSans-30" d="M 2034 4250 
Q 1547 4250 1301 3770 
Q 1056 3291 1056 2328 
Q 1056 1369 1301 889 
Q 1547 409 2034 409 
Q 2525 409 2770 889 
Q 3016 1369 3016 2328 
Q 3016 3291 2770 3770 
Q 2525 4250 2034 4250 
z
M 2034 4750 
Q 2819 4750 3233 4129 
Q 3647 3509 3647 2328 
Q 3647 1150 3233 529 
Q 2819 -91 2034 -91 
Q 1250 -91 836 529 
Q 422 1150 422 2328 
Q 422 3509 836 4129 
Q 1250 4750 2034 4750 
z
" transform="scale(0.015625)"/>
        <path id="DejaVuSans-2e" d="M 684 794 
L 1344 794 
L 1344 0 
L 684 0 
L 684 794 
z
" transform="scale(0.015625)"/>
        <path id="DejaVuSans-32" d="M 1228 531 
L 3431 531 
L 3431 0 
L 469 0 
L 469 531 
Q 828 903 1448 1529 
Q 2069 2156 2228 2338 
Q 2531 2678 2651 2914 
Q 2772 3150 2772 3378 
Q 2772 3750 2511 3984 
Q 2250 4219 1831 4219 
Q 1534 4219 1204 4116 
Q 875 4013 500 3803 
L 500 4441 
Q 881 4594 1212 4672 
Q 1544 4750 1819 4750 
Q 2544 4750 2975 4387 
Q 3406 4025 3406 3419 
Q 3406 3131 3298 2873 
Q 3191 2616 2906 2266 
Q 2828 2175 2409 1742 
Q 1991 1309 1228 531 
z
" transform="scale(0.015625)"/>
       </defs>
       <use xlink:href="#DejaVuSans-30"/>
       <use xlink:href="#DejaVuSans-2e" x="63.623047"/>
       <use xlink:href="#DejaVuSans-32" x="95.410156"/>
      </g>
     </g>
    </g>
    <g id="ytick_2">
     <g id="line2d_12">
      <g>
       <use xlink:href="#m82057d6176" x="50.595313" y="91.705994" style="stroke: #000000; stroke-width: 0.8"/>
      </g>
     </g>
     <g id="text_2">
      <!-- 0.4 -->
      <g transform="translate(27.692188 95.505212) scale(0.1 -0.1)">
       <defs>
        <path id="DejaVuSans-34" d="M 2419 4116 
L 825 1625 
L 2419 1625 
L 2419 4116 
z
M 2253 4666 
L 3047 4666 
L 3047 1625 
L 3713 1625 
L 3713 1100 
L 3047 1100 
L 3047 0 
L 2419 0 
L 2419 1100 
L 313 1100 
L 313 1709 
L 2253 4666 
z
" transform="scale(0.015625)"/>
       </defs>
       <use xlink:href="#DejaVuSans-30"/>
       <use xlink:href="#DejaVuSans-2e" x="63.623047"/>
       <use xlink:href="#DejaVuSans-34" x="95.410156"/>
      </g>
     </g>
    </g>
    <g id="ytick_3">
     <g id="line2d_13">
      <g>
       <use xlink:href="#m82057d6176" x="50.595313" y="52.807772" style="stroke: #000000; stroke-width: 0.8"/>
      </g>
     </g>
     <g id="text_3">
      <!-- 0.6 -->
      <g transform="translate(27.692188 56.60699) scale(0.1 -0.1)">
       <defs>
        <path id="DejaVuSans-36" d="M 2113 2584 
Q 1688 2584 1439 2293 
Q 1191 2003 1191 1497 
Q 1191 994 1439 701 
Q 1688 409 2113 409 
Q 2538 409 2786 701 
Q 3034 994 3034 1497 
Q 3034 2003 2786 2293 
Q 2538 2584 2113 2584 
z
M 3366 4563 
L 3366 3988 
Q 3128 4100 2886 4159 
Q 2644 4219 2406 4219 
Q 1781 4219 1451 3797 
Q 1122 3375 1075 2522 
Q 1259 2794 1537 2939 
Q 1816 3084 2150 3084 
Q 2853 3084 3261 2657 
Q 3669 2231 3669 1497 
Q 3669 778 3244 343 
Q 2819 -91 2113 -91 
Q 1303 -91 875 529 
Q 447 1150 447 2328 
Q 447 3434 972 4092 
Q 1497 4750 2381 4750 
Q 2619 4750 2861 4703 
Q 3103 4656 3366 4563 
z
" transform="scale(0.015625)"/>
       </defs>
       <use xlink:href="#DejaVuSans-30"/>
       <use xlink:href="#DejaVuSans-2e" x="63.623047"/>
       <use xlink:href="#DejaVuSans-36" x="95.410156"/>
      </g>
     </g>
    </g>
    <g id="text_4">
     <!-- $|S_{21}|$ [V] -->
     <g transform="translate(21.292188 122.29) rotate(-90) scale(0.1 -0.1)">
      <defs>
       <path id="DejaVuSans-7c" d="M 1344 4891 
L 1344 -1509 
L 813 -1509 
L 813 4891 
L 1344 4891 
z
" transform="scale(0.015625)"/>
       <path id="DejaVuSans-Oblique-53" d="M 3859 4513 
L 3738 3897 
Q 3422 4066 3111 4152 
Q 2800 4238 2509 4238 
Q 1944 4238 1609 3991 
Q 1275 3744 1275 3334 
Q 1275 3109 1398 2989 
Q 1522 2869 2034 2731 
L 2413 2638 
Q 3053 2472 3303 2217 
Q 3553 1963 3553 1503 
Q 3553 797 2998 353 
Q 2444 -91 1538 -91 
Q 1166 -91 791 -17 
Q 416 56 38 206 
L 166 856 
Q 513 641 861 531 
Q 1209 422 1556 422 
Q 2147 422 2503 684 
Q 2859 947 2859 1369 
Q 2859 1650 2717 1795 
Q 2575 1941 2106 2059 
L 1728 2156 
Q 1081 2325 845 2545 
Q 609 2766 609 3163 
Q 609 3859 1145 4304 
Q 1681 4750 2541 4750 
Q 2875 4750 3203 4690 
Q 3531 4631 3859 4513 
z
" transform="scale(0.015625)"/>
       <path id="DejaVuSans-31" d="M 794 531 
L 1825 531 
L 1825 4091 
L 703 3866 
L 703 4441 
L 1819 4666 
L 2450 4666 
L 2450 531 
L 3481 531 
L 3481 0 
L 794 0 
L 794 531 
z
" transform="scale(0.015625)"/>
       <path id="DejaVuSans-20" transform="scale(0.015625)"/>
       <path id="DejaVuSans-5b" d="M 550 4863 
L 1875 4863 
L 1875 4416 
L 1125 4416 
L 1125 -397 
L 1875 -397 
L 1875 -844 
L 550 -844 
L 550 4863 
z
" transform="scale(0.015625)"/>
       <path id="DejaVuSans-56" d="M 1831 0 
L 50 4666 
L 709 4666 
L 2188 738 
L 3669 4666 
L 4325 4666 
L 2547 0 
L 1831 0 
z
" transform="scale(0.015625)"/>
       <path id="DejaVuSans-5d" d="M 1947 4863 
L 1947 -844 
L 622 -844 
L 622 -397 
L 1369 -397 
L 1369 4416 
L 622 4416 
L 622 4863 
L 1947 4863 
z
" transform="scale(0.015625)"/>
      </defs>
      <use xlink:href="#DejaVuSans-7c" transform="translate(0 0.578125)"/>
      <use xlink:href="#DejaVuSans-Oblique-53" transform="translate(33.691406 0.578125)"/>
      <use xlink:href="#DejaVuSans-32" transform="translate(97.167969 -15.828125) scale(0.7)"/>
      <use xlink:href="#DejaVuSans-31" transform="translate(141.704102 -15.828125) scale(0.7)"/>
      <use xlink:href="#DejaVuSans-7c" transform="translate(188.974609 0.578125)"/>
      <use xlink:href="#DejaVuSans-20" transform="translate(222.666016 0.578125)"/>
      <use xlink:href="#DejaVuSans-5b" transform="translate(254.453125 0.578125)"/>
      <use xlink:href="#DejaVuSans-56" transform="translate(293.466797 0.578125)"/>
      <use xlink:href="#DejaVuSans-5d" transform="translate(361.875 0.578125)"/>
     </g>
    </g>
   </g>
   <g id="line2d_14">
    <path d="M 66.82804 51.161947 
L 70.937591 51.16889 
L 75.047142 51.192048 
L 79.156693 51.234952 
L 83.266245 51.27398 
L 87.375796 51.302848 
L 91.485347 51.350271 
L 95.594898 51.393922 
L 99.704449 51.440707 
L 103.814001 51.500525 
L 107.923552 51.56963 
L 112.033103 51.653266 
L 116.142654 51.739074 
L 120.252205 51.840523 
L 124.361757 51.970178 
L 128.471308 52.104288 
L 132.580859 52.246967 
L 136.69041 52.411289 
L 140.799962 52.606454 
L 144.909513 52.839987 
L 149.019064 53.103439 
L 153.128615 53.398517 
L 157.238166 53.743948 
L 161.347718 54.14918 
L 165.457269 54.631187 
L 169.56682 55.204879 
L 173.676371 55.886784 
L 177.785922 56.742867 
L 181.895474 57.76156 
L 186.005025 59.064099 
L 190.114576 60.689321 
L 194.224127 62.841449 
L 198.333678 65.625235 
L 202.44323 69.41944 
L 206.552781 74.606488 
L 210.662332 81.889278 
L 214.771883 92.159553 
L 218.881434 106.44149 
L 222.990986 125.760488 
L 227.100537 147.818299 
L 231.210088 149.963837 
L 235.319639 127.067819 
L 239.429191 105.567994 
L 243.538742 89.208964 
L 247.648293 77.609417 
L 251.757844 69.691375 
L 255.867395 64.202705 
L 259.976947 60.428082 
L 264.086498 57.724895 
L 268.196049 55.735642 
L 272.3056 54.228272 
L 276.415151 53.092497 
L 280.524703 52.186261 
L 284.634254 51.472277 
L 288.743805 50.902625 
L 292.853356 50.437758 
L 296.962907 50.062609 
L 301.072459 49.744677 
L 305.18201 49.466153 
L 309.291561 49.236194 
L 313.401112 49.049186 
L 317.510663 48.88872 
L 321.620215 48.729283 
L 325.729766 48.603419 
L 329.839317 48.477584 
L 333.948868 48.36023 
L 338.05842 48.270678 
L 342.167971 48.186721 
L 346.277522 48.108044 
L 350.387073 48.037511 
L 354.496624 47.961259 
L 358.606176 47.9094 
L 362.715727 47.854035 
L 366.825278 47.796663 
L 370.934829 47.747026 
L 375.04438 47.693556 
L 379.153932 47.650739 
L 383.263483 47.602552 
L 387.373034 47.56448 
L 391.482585 47.537352 
" clip-path="url(#pd8aa9c0365)" style="fill: none; stroke: #1f77b4; stroke-width: 1.5; stroke-linecap: square"/>
    <defs>
     <path id="ma131fed9f3" d="M 0 1.5 
C 0.397805 1.5 0.77937 1.341951 1.06066 1.06066 
C 1.341951 0.77937 1.5 0.397805 1.5 0 
C 1.5 -0.397805 1.341951 -0.77937 1.06066 -1.06066 
C 0.77937 -1.341951 0.397805 -1.5 0 -1.5 
C -0.397805 -1.5 -0.77937 -1.341951 -1.06066 -1.06066 
C -1.341951 -0.77937 -1.5 -0.397805 -1.5 0 
C -1.5 0.397805 -1.341951 0.77937 -1.06066 1.06066 
C -0.77937 1.341951 -0.397805 1.5 0 1.5 
z
" style="stroke: #1f77b4"/>
    </defs>
    <g clip-path="url(#pd8aa9c0365)">
     <use xlink:href="#ma131fed9f3" x="66.82804" y="51.161947" style="fill: #1f77b4; stroke: #1f77b4"/>
     <use xlink:href="#ma131fed9f3" x="70.937591" y="51.16889" style="fill: #1f77b4; stroke: #1f77b4"/>
     <use xlink:href="#ma131fed9f3" x="75.047142" y="51.192048" style="fill: #1f77b4; stroke: #1f77b4"/>
     <use xlink:href="#ma131fed9f3" x="79.156693" y="51.234952" style="fill: #1f77b4; stroke: #1f77b4"/>
     <use xlink:href="#ma131fed9f3" x="83.266245" y="51.27398" style="fill: #1f77b4; stroke: #1f77b4"/>
     <use xlink:href="#ma131fed9f3" x="87.375796" y="51.302848" style="fill: #1f77b4; stroke: #1f77b4"/>
     <use xlink:href="#ma131fed9f3" x="91.485347" y="51.350271" style="fill: #1f77b4; stroke: #1f77b4"/>
     <use xlink:href="#ma131fed9f3" x="95.594898" y="51.393922" style="fill: #1f77b4; stroke: #1f77b4"/>
     <use xlink:href="#ma131fed9f3" x="99.704449" y="51.440707" style="fill: #1f77b4; stroke: #1f77b4"/>
     <use xlink:href="#ma131fed9f3" x="103.814001" y="51.500525" style="fill: #1f77b4; stroke: #1f77b4"/>
     <use xlink:href="#ma131fed9f3" x="107.923552" y="51.56963" style="fill: #1f77b4; stroke: #1f77b4"/>
     <use xlink:href="#ma131fed9f3" x="112.033103" y="51.653266" style="fill: #1f77b4; stroke: #1f77b4"/>
     <use xlink:href="#ma131fed9f3" x="116.142654" y="51.739074" style="fill: #1f77b4; stroke: #1f77b4"/>
     <use xlink:href="#ma131fed9f3" x="120.252205" y="51.840523" style="fill: #1f77b4; stroke: #1f77b4"/>
     <use xlink:href="#ma131fed9f3" x="124.361757" y="51.970178" style="fill: #1f77b4; stroke: #1f77b4"/>
     <use xlink:href="#ma131fed9f3" x="128.471308" y="52.104288" style="fill: #1f77b4; stroke: #1f77b4"/>
     <use xlink:href="#ma131fed9f3" x="132.580859" y="52.246967" style="fill: #1f77b4; stroke: #1f77b4"/>
     <use xlink:href="#ma131fed9f3" x="136.69041" y="52.411289" style="fill: #1f77b4; stroke: #1f77b4"/>
     <use xlink:href="#ma131fed9f3" x="140.799962" y="52.606454" style="fill: #1f77b4; stroke: #1f77b4"/>
     <use xlink:href="#ma131fed9f3" x="144.909513" y="52.839987" style="fill: #1f77b4; stroke: #1f77b4"/>
     <use xlink:href="#ma131fed9f3" x="149.019064" y="53.103439" style="fill: #1f77b4; stroke: #1f77b4"/>
     <use xlink:href="#ma131fed9f3" x="153.128615" y="53.398517" style="fill: #1f77b4; stroke: #1f77b4"/>
     <use xlink:href="#ma131fed9f3" x="157.238166" y="53.743948" style="fill: #1f77b4; stroke: #1f77b4"/>
     <use xlink:href="#ma131fed9f3" x="161.347718" y="54.14918" style="fill: #1f77b4; stroke: #1f77b4"/>
     <use xlink:href="#ma131fed9f3" x="165.457269" y="54.631187" style="fill: #1f77b4; stroke: #1f77b4"/>
     <use xlink:href="#ma131fed9f3" x="169.56682" y="55.204879" style="fill: #1f77b4; stroke: #1f77b4"/>
     <use xlink:href="#ma131fed9f3" x="173.676371" y="55.886784" style="fill: #1f77b4; stroke: #1f77b4"/>
     <use xlink:href="#ma131fed9f3" x="177.785922" y="56.742867" style="fill: #1f77b4; stroke: #1f77b4"/>
     <use xlink:href="#ma131fed9f3" x="181.895474" y="57.76156" style="fill: #1f77b4; stroke: #1f77b4"/>
     <use xlink:href="#ma131fed9f3" x="186.005025" y="59.064099" style="fill: #1f77b4; stroke: #1f77b4"/>
     <use xlink:href="#ma131fed9f3" x="190.114576" y="60.689321" style="fill: #1f77b4; stroke: #1f77b4"/>
     <use xlink:href="#ma131fed9f3" x="194.224127" y="62.841449" style="fill: #1f77b4; stroke: #1f77b4"/>
     <use xlink:href="#ma131fed9f3" x="198.333678" y="65.625235" style="fill: #1f77b4; stroke: #1f77b4"/>
     <use xlink:href="#ma131fed9f3" x="202.44323" y="69.41944" style="fill: #1f77b4; stroke: #1f77b4"/>
     <use xlink:href="#ma131fed9f3" x="206.552781" y="74.606488" style="fill: #1f77b4; stroke: #1f77b4"/>
     <use xlink:href="#ma131fed9f3" x="210.662332" y="81.889278" style="fill: #1f77b4; stroke: #1f77b4"/>
     <use xlink:href="#ma131fed9f3" x="214.771883" y="92.159553" style="fill: #1f77b4; stroke: #1f77b4"/>
     <use xlink:href="#ma131fed9f3" x="218.881434" y="106.44149" style="fill: #1f77b4; stroke: #1f77b4"/>
     <use xlink:href="#ma131fed9f3" x="222.990986" y="125.760488" style="fill: #1f77b4; stroke: #1f77b4"/>
     <use xlink:href="#ma131fed9f3" x="227.100537" y="147.818299" style="fill: #1f77b4; stroke: #1f77b4"/>
     <use xlink:href="#ma131fed9f3" x="231.210088" y="149.963837" style="fill: #1f77b4; stroke: #1f77b4"/>
     <use xlink:href="#ma131fed9f3" x="235.319639" y="127.067819" style="fill: #1f77b4; stroke: #1f77b4"/>
     <use xlink:href="#ma131fed9f3" x="239.429191" y="105.567994" style="fill: #1f77b4; stroke: #1f77b4"/>
     <use xlink:href="#ma131fed9f3" x="243.538742" y="89.208964" style="fill: #1f77b4; stroke: #1f77b4"/>
     <use xlink:href="#ma131fed9f3" x="247.648293" y="77.609417" style="fill: #1f77b4; stroke: #1f77b4"/>
     <use xlink:href="#ma131fed9f3" x="251.757844" y="69.691375" style="fill: #1f77b4; stroke: #1f77b4"/>
     <use xlink:href="#ma131fed9f3" x="255.867395" y="64.202705" style="fill: #1f77b4; stroke: #1f77b4"/>
     <use xlink:href="#ma131fed9f3" x="259.976947" y="60.428082" style="fill: #1f77b4; stroke: #1f77b4"/>
     <use xlink:href="#ma131fed9f3" x="264.086498" y="57.724895" style="fill: #1f77b4; stroke: #1f77b4"/>
     <use xlink:href="#ma131fed9f3" x="268.196049" y="55.735642" style="fill: #1f77b4; stroke: #1f77b4"/>
     <use xlink:href="#ma131fed9f3" x="272.3056" y="54.228272" style="fill: #1f77b4; stroke: #1f77b4"/>
     <use xlink:href="#ma131fed9f3" x="276.415151" y="53.092497" style="fill: #1f77b4; stroke: #1f77b4"/>
     <use xlink:href="#ma131fed9f3" x="280.524703" y="52.186261" style="fill: #1f77b4; stroke: #1f77b4"/>
     <use xlink:href="#ma131fed9f3" x="284.634254" y="51.472277" style="fill: #1f77b4; stroke: #1f77b4"/>
     <use xlink:href="#ma131fed9f3" x="288.743805" y="50.902625" style="fill: #1f77b4; stroke: #1f77b4"/>
     <use xlink:href="#ma131fed9f3" x="292.853356" y="50.437758" style="fill: #1f77b4; stroke: #1f77b4"/>
     <use xlink:href="#ma131fed9f3" x="296.962907" y="50.062609" style="fill: #1f77b4; stroke: #1f77b4"/>
     <use xlink:href="#ma131fed9f3" x="301.072459" y="49.744677" style="fill: #1f77b4; stroke: #1f77b4"/>
     <use xlink:href="#ma131fed9f3" x="305.18201" y="49.466153" style="fill: #1f77b4; stroke: #1f77b4"/>
     <use xlink:href="#ma131fed9f3" x="309.291561" y="49.236194" style="fill: #1f77b4; stroke: #1f77b4"/>
     <use xlink:href="#ma131fed9f3" x="313.401112" y="49.049186" style="fill: #1f77b4; stroke: #1f77b4"/>
     <use xlink:href="#ma131fed9f3" x="317.510663" y="48.88872" style="fill: #1f77b4; stroke: #1f77b4"/>
     <use xlink:href="#ma131fed9f3" x="321.620215" y="48.729283" style="fill: #1f77b4; stroke: #1f77b4"/>
     <use xlink:href="#ma131fed9f3" x="325.729766" y="48.603419" style="fill: #1f77b4; stroke: #1f77b4"/>
     <use xlink:href="#ma131fed9f3" x="329.839317" y="48.477584" style="fill: #1f77b4; stroke: #1f77b4"/>
     <use xlink:href="#ma131fed9f3" x="333.948868" y="48.36023" style="fill: #1f77b4; stroke: #1f77b4"/>
     <use xlink:href="#ma131fed9f3" x="338.05842" y="48.270678" style="fill: #1f77b4; stroke: #1f77b4"/>
     <use xlink:href="#ma131fed9f3" x="342.167971" y="48.186721" style="fill: #1f77b4; stroke: #1f77b4"/>
     <use xlink:href="#ma131fed9f3" x="346.277522" y="48.108044" style="fill: #1f77b4; stroke: #1f77b4"/>
     <use xlink:href="#ma131fed9f3" x="350.387073" y="48.037511" style="fill: #1f77b4; stroke: #1f77b4"/>
     <use xlink:href="#ma131fed9f3" x="354.496624" y="47.961259" style="fill: #1f77b4; stroke: #1f77b4"/>
     <use xlink:href="#ma131fed9f3" x="358.606176" y="47.9094" style="fill: #1f77b4; stroke: #1f77b4"/>
     <use xlink:href="#ma131fed9f3" x="362.715727" y="47.854035" style="fill: #1f77b4; stroke: #1f77b4"/>
     <use xlink:href="#ma131fed9f3" x="366.825278" y="47.796663" style="fill: #1f77b4; stroke: #1f77b4"/>
     <use xlink:href="#ma131fed9f3" x="370.934829" y="47.747026" style="fill: #1f77b4; stroke: #1f77b4"/>
     <use xlink:href="#ma131fed9f3" x="375.04438" y="47.693556" style="fill: #1f77b4; stroke: #1f77b4"/>
     <use xlink:href="#ma131fed9f3" x="379.153932" y="47.650739" style="fill: #1f77b4; stroke: #1f77b4"/>
     <use xlink:href="#ma131fed9f3" x="383.263483" y="47.602552" style="fill: #1f77b4; stroke: #1f77b4"/>
     <use xlink:href="#ma131fed9f3" x="387.373034" y="47.56448" style="fill: #1f77b4; stroke: #1f77b4"/>
     <use xlink:href="#ma131fed9f3" x="391.482585" y="47.537352" style="fill: #1f77b4; stroke: #1f77b4"/>
    </g>
   </g>
   <g id="line2d_15">
    <path d="M 66.82804 50.451292 
L 95.101258 50.83171 
L 115.574969 51.31764 
L 130.849006 51.890038 
L 142.873249 52.554078 
L 152.297655 53.283334 
L 160.097163 54.0969 
L 166.596754 54.985883 
L 172.121406 55.953672 
L 176.996099 57.029594 
L 181.220833 58.187885 
L 184.795607 59.382809 
L 188.045403 60.688712 
L 190.970218 62.08983 
L 193.570055 63.558948 
L 196.169891 65.288336 
L 198.444747 67.062899 
L 200.719604 69.135251 
L 202.669481 71.197044 
L 204.619358 73.574439 
L 206.569236 76.327247 
L 208.519113 79.527029 
L 210.14401 82.595661 
L 211.768908 86.089651 
L 213.393806 90.071742 
L 215.018703 94.609746 
L 216.643601 99.77362 
L 218.268498 105.630025 
L 219.893396 112.233077 
L 221.843273 121.176333 
L 223.79315 131.167561 
L 228.017884 153.649521 
L 228.667843 155.991823 
L 228.992823 156.763464 
L 229.317802 157.187101 
L 229.642782 157.221818 
L 229.967761 156.861227 
L 230.292741 156.135739 
L 230.9427 153.817519 
L 231.917638 149.011211 
L 233.867516 137.706349 
L 236.792331 120.816849 
L 238.742208 110.687109 
L 240.692086 101.736009 
L 242.316983 95.198669 
L 243.941881 89.46058 
L 245.566779 84.457406 
L 247.191676 80.112965 
L 248.816574 76.348562 
L 250.441471 73.088687 
L 252.066369 70.264091 
L 254.016246 67.362879 
L 255.966123 64.908345 
L 257.916 62.823888 
L 259.865878 61.046252 
L 262.140734 59.291411 
L 264.415591 57.817431 
L 267.015427 56.409819 
L 269.940243 55.10715 
L 273.190038 53.931842 
L 276.764813 52.892854 
L 280.664567 51.989093 
L 285.214281 51.160143 
L 290.738932 50.389933 
L 297.238523 49.715828 
L 305.363011 49.10896 
L 315.437376 48.587945 
L 328.761537 48.132659 
L 347.28537 47.739251 
L 374.908629 47.396498 
L 391.482585 47.258182 
L 391.482585 47.258182 
" clip-path="url(#pd8aa9c0365)" style="fill: none; stroke: #d62728; stroke-width: 1.5; stroke-linecap: square"/>
   </g>
   <g id="line2d_16">
    <path d="M 66.82804 51.065518 
L 96.726156 51.335416 
L 117.849825 51.737352 
L 133.448842 52.246987 
L 145.473085 52.854505 
L 154.897491 53.542852 
L 162.697 54.329912 
L 169.19659 55.208131 
L 174.721242 56.182117 
L 179.270955 57.201619 
L 183.17071 58.285471 
L 186.745484 59.502483 
L 189.99528 60.848763 
L 192.920095 62.310301 
L 195.519932 63.860104 
L 197.794788 65.456071 
L 200.069645 67.326712 
L 202.019522 69.194828 
L 203.969399 71.357275 
L 205.919276 73.872103 
L 207.869154 76.809671 
L 209.494051 79.641147 
L 211.118949 82.881944 
L 212.743846 86.597082 
L 214.368744 90.858591 
L 215.993642 95.743258 
L 217.618539 101.327835 
L 219.243437 107.680249 
L 220.868335 114.844527 
L 222.818212 124.499851 
L 225.418048 138.747676 
L 227.367925 149.193766 
L 228.342864 153.202486 
L 228.992823 154.74415 
L 229.317802 155.030518 
L 229.642782 154.955736 
L 229.967761 154.523076 
L 230.292741 153.761464 
L 230.9427 151.439348 
L 231.917638 146.667126 
L 233.867516 135.356279 
L 236.792331 118.451761 
L 238.742208 108.402667 
L 240.692086 99.605336 
L 242.316983 93.23556 
L 243.941881 87.685261 
L 245.566779 82.877585 
L 247.191676 78.726918 
L 248.816574 75.148146 
L 250.441471 72.061855 
L 252.066369 69.396783 
L 254.016246 66.667542 
L 255.966123 64.364186 
L 257.916 62.411501 
L 259.865878 60.748079 
L 262.140734 59.106932 
L 264.415591 57.728478 
L 267.015427 56.411322 
L 269.940243 55.190773 
L 273.190038 54.087176 
L 276.764813 53.108511 
L 280.989547 52.190556 
L 285.86424 51.367004 
L 291.713871 50.615303 
L 298.863421 49.936217 
L 307.637868 49.338193 
L 319.012151 48.80096 
L 334.286189 48.320968 
L 355.734837 47.887187 
L 388.882749 47.4601 
L 391.482585 47.433113 
L 391.482585 47.433113 
" clip-path="url(#pd8aa9c0365)" style="fill: none; stroke: #9467bd; stroke-width: 1.5; stroke-linecap: square"/>
   </g>
   <g id="patch_3">
    <path d="M 50.595313 162.72 
L 50.595313 41.76 
" style="fill: none; stroke: #000000; stroke-width: 0.8; stroke-linejoin: miter; stroke-linecap: square"/>
   </g>
   <g id="patch_4">
    <path d="M 407.715312 162.72 
L 407.715312 41.76 
" style="fill: none; stroke: #000000; stroke-width: 0.8; stroke-linejoin: miter; stroke-linecap: square"/>
   </g>
   <g id="patch_5">
    <path d="M 50.595313 162.72 
L 407.715313 162.72 
" style="fill: none; stroke: #000000; stroke-width: 0.8; stroke-linejoin: miter; stroke-linecap: square"/>
   </g>
   <g id="patch_6">
    <path d="M 50.595313 41.76 
L 407.715313 41.76 
" style="fill: none; stroke: #000000; stroke-width: 0.8; stroke-linejoin: miter; stroke-linecap: square"/>
   </g>
   <g id="text_5">
    <g id="patch_7">
     <path d="M 425.571312 107.299562 
L 570.571312 107.299562 
Q 574.571312 107.299562 574.571312 103.299562 
L 574.571312 48.828312 
Q 574.571312 44.828312 570.571312 44.828312 
L 425.571312 44.828312 
Q 421.571312 44.828312 421.571312 48.828312 
L 421.571312 103.299562 
Q 421.571312 107.299562 425.571312 107.299562 
z
" style="fill: #ffffff; opacity: 0.5; stroke: #000000; stroke-linejoin: miter"/>
    </g>
    <!-- Summary: -->
    <g transform="translate(425.571312 55.406437) scale(0.1 -0.1)">
     <defs>
      <path id="DejaVuSans-53" d="M 3425 4513 
L 3425 3897 
Q 3066 4069 2747 4153 
Q 2428 4238 2131 4238 
Q 1616 4238 1336 4038 
Q 1056 3838 1056 3469 
Q 1056 3159 1242 3001 
Q 1428 2844 1947 2747 
L 2328 2669 
Q 3034 2534 3370 2195 
Q 3706 1856 3706 1288 
Q 3706 609 3251 259 
Q 2797 -91 1919 -91 
Q 1588 -91 1214 -16 
Q 841 59 441 206 
L 441 856 
Q 825 641 1194 531 
Q 1563 422 1919 422 
Q 2459 422 2753 634 
Q 3047 847 3047 1241 
Q 3047 1584 2836 1778 
Q 2625 1972 2144 2069 
L 1759 2144 
Q 1053 2284 737 2584 
Q 422 2884 422 3419 
Q 422 4038 858 4394 
Q 1294 4750 2059 4750 
Q 2388 4750 2728 4690 
Q 3069 4631 3425 4513 
z
" transform="scale(0.015625)"/>
      <path id="DejaVuSans-75" d="M 544 1381 
L 544 3500 
L 1119 3500 
L 1119 1403 
Q 1119 906 1312 657 
Q 1506 409 1894 409 
Q 2359 409 2629 706 
Q 2900 1003 2900 1516 
L 2900 3500 
L 3475 3500 
L 3475 0 
L 2900 0 
L 2900 538 
Q 2691 219 2414 64 
Q 2138 -91 1772 -91 
Q 1169 -91 856 284 
Q 544 659 544 1381 
z
M 1991 3584 
L 1991 3584 
z
" transform="scale(0.015625)"/>
      <path id="DejaVuSans-6d" d="M 3328 2828 
Q 3544 3216 3844 3400 
Q 4144 3584 4550 3584 
Q 5097 3584 5394 3201 
Q 5691 2819 5691 2113 
L 5691 0 
L 5113 0 
L 5113 2094 
Q 5113 2597 4934 2840 
Q 4756 3084 4391 3084 
Q 3944 3084 3684 2787 
Q 3425 2491 3425 1978 
L 3425 0 
L 2847 0 
L 2847 2094 
Q 2847 2600 2669 2842 
Q 2491 3084 2119 3084 
Q 1678 3084 1418 2786 
Q 1159 2488 1159 1978 
L 1159 0 
L 581 0 
L 581 3500 
L 1159 3500 
L 1159 2956 
Q 1356 3278 1631 3431 
Q 1906 3584 2284 3584 
Q 2666 3584 2933 3390 
Q 3200 3197 3328 2828 
z
" transform="scale(0.015625)"/>
      <path id="DejaVuSans-61" d="M 2194 1759 
Q 1497 1759 1228 1600 
Q 959 1441 959 1056 
Q 959 750 1161 570 
Q 1363 391 1709 391 
Q 2188 391 2477 730 
Q 2766 1069 2766 1631 
L 2766 1759 
L 2194 1759 
z
M 3341 1997 
L 3341 0 
L 2766 0 
L 2766 531 
Q 2569 213 2275 61 
Q 1981 -91 1556 -91 
Q 1019 -91 701 211 
Q 384 513 384 1019 
Q 384 1609 779 1909 
Q 1175 2209 1959 2209 
L 2766 2209 
L 2766 2266 
Q 2766 2663 2505 2880 
Q 2244 3097 1772 3097 
Q 1472 3097 1187 3025 
Q 903 2953 641 2809 
L 641 3341 
Q 956 3463 1253 3523 
Q 1550 3584 1831 3584 
Q 2591 3584 2966 3190 
Q 3341 2797 3341 1997 
z
" transform="scale(0.015625)"/>
      <path id="DejaVuSans-72" d="M 2631 2963 
Q 2534 3019 2420 3045 
Q 2306 3072 2169 3072 
Q 1681 3072 1420 2755 
Q 1159 2438 1159 1844 
L 1159 0 
L 581 0 
L 581 3500 
L 1159 3500 
L 1159 2956 
Q 1341 3275 1631 3429 
Q 1922 3584 2338 3584 
Q 2397 3584 2469 3576 
Q 2541 3569 2628 3553 
L 2631 2963 
z
" transform="scale(0.015625)"/>
      <path id="DejaVuSans-79" d="M 2059 -325 
Q 1816 -950 1584 -1140 
Q 1353 -1331 966 -1331 
L 506 -1331 
L 506 -850 
L 844 -850 
Q 1081 -850 1212 -737 
Q 1344 -625 1503 -206 
L 1606 56 
L 191 3500 
L 800 3500 
L 1894 763 
L 2988 3500 
L 3597 3500 
L 2059 -325 
z
" transform="scale(0.015625)"/>
      <path id="DejaVuSans-3a" d="M 750 794 
L 1409 794 
L 1409 0 
L 750 0 
L 750 794 
z
M 750 3309 
L 1409 3309 
L 1409 2516 
L 750 2516 
L 750 3309 
z
" transform="scale(0.015625)"/>
     </defs>
     <use xlink:href="#DejaVuSans-53"/>
     <use xlink:href="#DejaVuSans-75" x="63.476562"/>
     <use xlink:href="#DejaVuSans-6d" x="126.855469"/>
     <use xlink:href="#DejaVuSans-6d" x="224.267578"/>
     <use xlink:href="#DejaVuSans-61" x="321.679688"/>
     <use xlink:href="#DejaVuSans-72" x="382.958984"/>
     <use xlink:href="#DejaVuSans-79" x="424.072266"/>
     <use xlink:href="#DejaVuSans-3a" x="476.001953"/>
    </g>
    <!-- $Q_I$: 163.2$\pm$4.7 k -->
    <g transform="translate(425.571312 66.60425) scale(0.1 -0.1)">
     <defs>
      <path id="DejaVuSans-Oblique-51" d="M 2309 -84 
Q 2275 -88 2237 -89 
Q 2200 -91 2125 -91 
Q 1250 -91 756 411 
Q 263 913 263 1797 
Q 263 2319 452 2844 
Q 641 3369 978 3788 
Q 1369 4269 1858 4509 
Q 2347 4750 2938 4750 
Q 3794 4750 4287 4245 
Q 4781 3741 4781 2869 
Q 4781 1928 4265 1147 
Q 3750 366 2919 44 
L 3553 -825 
L 2847 -825 
L 2309 -84 
z
M 2919 4238 
Q 2400 4238 2003 3986 
Q 1606 3734 1313 3219 
Q 1125 2891 1026 2522 
Q 928 2153 928 1778 
Q 928 1128 1239 775 
Q 1550 422 2119 422 
Q 2631 422 3032 676 
Q 3434 931 3719 1434 
Q 3909 1772 4009 2142 
Q 4109 2513 4109 2881 
Q 4109 3528 3796 3883 
Q 3484 4238 2919 4238 
z
" transform="scale(0.015625)"/>
      <path id="DejaVuSans-Oblique-49" d="M 1081 4666 
L 1716 4666 
L 806 0 
L 172 0 
L 1081 4666 
z
" transform="scale(0.015625)"/>
      <path id="DejaVuSans-33" d="M 2597 2516 
Q 3050 2419 3304 2112 
Q 3559 1806 3559 1356 
Q 3559 666 3084 287 
Q 2609 -91 1734 -91 
Q 1441 -91 1130 -33 
Q 819 25 488 141 
L 488 750 
Q 750 597 1062 519 
Q 1375 441 1716 441 
Q 2309 441 2620 675 
Q 2931 909 2931 1356 
Q 2931 1769 2642 2001 
Q 2353 2234 1838 2234 
L 1294 2234 
L 1294 2753 
L 1863 2753 
Q 2328 2753 2575 2939 
Q 2822 3125 2822 3475 
Q 2822 3834 2567 4026 
Q 2313 4219 1838 4219 
Q 1578 4219 1281 4162 
Q 984 4106 628 3988 
L 628 4550 
Q 988 4650 1302 4700 
Q 1616 4750 1894 4750 
Q 2613 4750 3031 4423 
Q 3450 4097 3450 3541 
Q 3450 3153 3228 2886 
Q 3006 2619 2597 2516 
z
" transform="scale(0.015625)"/>
      <path id="DejaVuSans-b1" d="M 2944 4013 
L 2944 2803 
L 4684 2803 
L 4684 2272 
L 2944 2272 
L 2944 1063 
L 2419 1063 
L 2419 2272 
L 678 2272 
L 678 2803 
L 2419 2803 
L 2419 4013 
L 2944 4013 
z
M 678 531 
L 4684 531 
L 4684 0 
L 678 0 
L 678 531 
z
" transform="scale(0.015625)"/>
      <path id="DejaVuSans-37" d="M 525 4666 
L 3525 4666 
L 3525 4397 
L 1831 0 
L 1172 0 
L 2766 4134 
L 525 4134 
L 525 4666 
z
" transform="scale(0.015625)"/>
      <path id="DejaVuSans-6b" d="M 581 4863 
L 1159 4863 
L 1159 1991 
L 2875 3500 
L 3609 3500 
L 1753 1863 
L 3688 0 
L 2938 0 
L 1159 1709 
L 1159 0 
L 581 0 
L 581 4863 
z
" transform="scale(0.015625)"/>
     </defs>
     <use xlink:href="#DejaVuSans-Oblique-51" transform="translate(0 0.015625)"/>
     <use xlink:href="#DejaVuSans-Oblique-49" transform="translate(78.710938 -16.390625) scale(0.7)"/>
     <use xlink:href="#DejaVuSans-3a" transform="translate(102.089844 0.015625)"/>
     <use xlink:href="#DejaVuSans-20" transform="translate(135.78125 0.015625)"/>
     <use xlink:href="#DejaVuSans-31" transform="translate(167.568359 0.015625)"/>
     <use xlink:href="#DejaVuSans-36" transform="translate(231.191406 0.015625)"/>
     <use xlink:href="#DejaVuSans-33" transform="translate(294.814453 0.015625)"/>
     <use xlink:href="#DejaVuSans-2e" transform="translate(358.4375 0.015625)"/>
     <use xlink:href="#DejaVuSans-32" transform="translate(384.724609 0.015625)"/>
     <use xlink:href="#DejaVuSans-b1" transform="translate(448.347656 0.015625)"/>
     <use xlink:href="#DejaVuSans-34" transform="translate(532.136719 0.015625)"/>
     <use xlink:href="#DejaVuSans-2e" transform="translate(595.759766 0.015625)"/>
     <use xlink:href="#DejaVuSans-37" transform="translate(619.796875 0.015625)"/>
     <use xlink:href="#DejaVuSans-20" transform="translate(683.419922 0.015625)"/>
     <use xlink:href="#DejaVuSans-6b" transform="translate(715.207031 0.015625)"/>
    </g>
    <!-- $Q_C$: 18.366$\pm$0.069 k -->
    <g transform="translate(425.571312 77.802062) scale(0.1 -0.1)">
     <defs>
      <path id="DejaVuSans-Oblique-43" d="M 4447 4306 
L 4319 3641 
Q 4019 3944 3683 4091 
Q 3347 4238 2956 4238 
Q 2422 4238 2017 3981 
Q 1613 3725 1319 3200 
Q 1131 2863 1032 2486 
Q 934 2109 934 1728 
Q 934 1091 1264 756 
Q 1594 422 2222 422 
Q 2656 422 3056 561 
Q 3456 700 3834 978 
L 3688 231 
Q 3316 72 2936 -9 
Q 2556 -91 2175 -91 
Q 1278 -91 773 396 
Q 269 884 269 1753 
Q 269 2309 461 2846 
Q 653 3384 1013 3828 
Q 1394 4300 1883 4525 
Q 2372 4750 3022 4750 
Q 3422 4750 3780 4639 
Q 4138 4528 4447 4306 
z
" transform="scale(0.015625)"/>
      <path id="DejaVuSans-38" d="M 2034 2216 
Q 1584 2216 1326 1975 
Q 1069 1734 1069 1313 
Q 1069 891 1326 650 
Q 1584 409 2034 409 
Q 2484 409 2743 651 
Q 3003 894 3003 1313 
Q 3003 1734 2745 1975 
Q 2488 2216 2034 2216 
z
M 1403 2484 
Q 997 2584 770 2862 
Q 544 3141 544 3541 
Q 544 4100 942 4425 
Q 1341 4750 2034 4750 
Q 2731 4750 3128 4425 
Q 3525 4100 3525 3541 
Q 3525 3141 3298 2862 
Q 3072 2584 2669 2484 
Q 3125 2378 3379 2068 
Q 3634 1759 3634 1313 
Q 3634 634 3220 271 
Q 2806 -91 2034 -91 
Q 1263 -91 848 271 
Q 434 634 434 1313 
Q 434 1759 690 2068 
Q 947 2378 1403 2484 
z
M 1172 3481 
Q 1172 3119 1398 2916 
Q 1625 2713 2034 2713 
Q 2441 2713 2670 2916 
Q 2900 3119 2900 3481 
Q 2900 3844 2670 4047 
Q 2441 4250 2034 4250 
Q 1625 4250 1398 4047 
Q 1172 3844 1172 3481 
z
" transform="scale(0.015625)"/>
      <path id="DejaVuSans-39" d="M 703 97 
L 703 672 
Q 941 559 1184 500 
Q 1428 441 1663 441 
Q 2288 441 2617 861 
Q 2947 1281 2994 2138 
Q 2813 1869 2534 1725 
Q 2256 1581 1919 1581 
Q 1219 1581 811 2004 
Q 403 2428 403 3163 
Q 403 3881 828 4315 
Q 1253 4750 1959 4750 
Q 2769 4750 3195 4129 
Q 3622 3509 3622 2328 
Q 3622 1225 3098 567 
Q 2575 -91 1691 -91 
Q 1453 -91 1209 -44 
Q 966 3 703 97 
z
M 1959 2075 
Q 2384 2075 2632 2365 
Q 2881 2656 2881 3163 
Q 2881 3666 2632 3958 
Q 2384 4250 1959 4250 
Q 1534 4250 1286 3958 
Q 1038 3666 1038 3163 
Q 1038 2656 1286 2365 
Q 1534 2075 1959 2075 
z
" transform="scale(0.015625)"/>
     </defs>
     <use xlink:href="#DejaVuSans-Oblique-51" transform="translate(0 0.015625)"/>
     <use xlink:href="#DejaVuSans-Oblique-43" transform="translate(78.710938 -16.390625) scale(0.7)"/>
     <use xlink:href="#DejaVuSans-3a" transform="translate(130.322266 0.015625)"/>
     <use xlink:href="#DejaVuSans-20" transform="translate(164.013672 0.015625)"/>
     <use xlink:href="#DejaVuSans-31" transform="translate(195.800781 0.015625)"/>
     <use xlink:href="#DejaVuSans-38" transform="translate(259.423828 0.015625)"/>
     <use xlink:href="#DejaVuSans-2e" transform="translate(323.046875 0.015625)"/>
     <use xlink:href="#DejaVuSans-33" transform="translate(354.833984 0.015625)"/>
     <use xlink:href="#DejaVuSans-36" transform="translate(418.457031 0.015625)"/>
     <use xlink:href="#DejaVuSans-36" transform="translate(482.080078 0.015625)"/>
     <use xlink:href="#DejaVuSans-b1" transform="translate(545.703125 0.015625)"/>
     <use xlink:href="#DejaVuSans-30" transform="translate(629.492188 0.015625)"/>
     <use xlink:href="#DejaVuSans-2e" transform="translate(693.115234 0.015625)"/>
     <use xlink:href="#DejaVuSans-30" transform="translate(724.902344 0.015625)"/>
     <use xlink:href="#DejaVuSans-36" transform="translate(788.525391 0.015625)"/>
     <use xlink:href="#DejaVuSans-39" transform="translate(852.148438 0.015625)"/>
     <use xlink:href="#DejaVuSans-20" transform="translate(915.771484 0.015625)"/>
     <use xlink:href="#DejaVuSans-6b" transform="translate(947.558594 0.015625)"/>
    </g>
    <!-- $f_{res}$: 7.0957907$\pm$1.0e-06 GHz -->
    <g transform="translate(425.571312 88.999875) scale(0.1 -0.1)">
     <defs>
      <path id="DejaVuSans-Oblique-66" d="M 3059 4863 
L 2969 4384 
L 2419 4384 
Q 2106 4384 1964 4261 
Q 1822 4138 1753 3809 
L 1691 3500 
L 2638 3500 
L 2553 3053 
L 1606 3053 
L 1013 0 
L 434 0 
L 1031 3053 
L 481 3053 
L 563 3500 
L 1113 3500 
L 1159 3744 
Q 1278 4363 1576 4613 
Q 1875 4863 2516 4863 
L 3059 4863 
z
" transform="scale(0.015625)"/>
      <path id="DejaVuSans-Oblique-72" d="M 2853 2969 
Q 2766 3016 2653 3041 
Q 2541 3066 2413 3066 
Q 1953 3066 1609 2717 
Q 1266 2369 1153 1784 
L 800 0 
L 225 0 
L 909 3500 
L 1484 3500 
L 1375 2956 
Q 1603 3259 1920 3421 
Q 2238 3584 2597 3584 
Q 2691 3584 2781 3573 
Q 2872 3563 2963 3538 
L 2853 2969 
z
" transform="scale(0.015625)"/>
      <path id="DejaVuSans-Oblique-65" d="M 3078 2063 
Q 3088 2113 3092 2166 
Q 3097 2219 3097 2272 
Q 3097 2653 2873 2875 
Q 2650 3097 2266 3097 
Q 1838 3097 1509 2826 
Q 1181 2556 1013 2059 
L 3078 2063 
z
M 3578 1613 
L 903 1613 
Q 884 1494 878 1425 
Q 872 1356 872 1306 
Q 872 872 1139 634 
Q 1406 397 1894 397 
Q 2269 397 2603 481 
Q 2938 566 3225 728 
L 3116 159 
Q 2806 34 2476 -28 
Q 2147 -91 1806 -91 
Q 1078 -91 686 257 
Q 294 606 294 1247 
Q 294 1794 489 2264 
Q 684 2734 1063 3103 
Q 1306 3334 1642 3459 
Q 1978 3584 2356 3584 
Q 2950 3584 3301 3228 
Q 3653 2872 3653 2272 
Q 3653 2128 3634 1964 
Q 3616 1800 3578 1613 
z
" transform="scale(0.015625)"/>
      <path id="DejaVuSans-Oblique-73" d="M 3200 3397 
L 3091 2853 
Q 2863 2978 2609 3040 
Q 2356 3103 2088 3103 
Q 1634 3103 1373 2948 
Q 1113 2794 1113 2528 
Q 1113 2219 1719 2053 
Q 1766 2041 1788 2034 
L 1972 1978 
Q 2547 1819 2739 1644 
Q 2931 1469 2931 1166 
Q 2931 609 2489 259 
Q 2047 -91 1331 -91 
Q 1053 -91 747 -37 
Q 441 16 72 128 
L 184 722 
Q 500 559 806 475 
Q 1113 391 1394 391 
Q 1816 391 2080 572 
Q 2344 753 2344 1031 
Q 2344 1331 1650 1516 
L 1591 1531 
L 1394 1581 
Q 956 1697 753 1886 
Q 550 2075 550 2369 
Q 550 2928 970 3256 
Q 1391 3584 2113 3584 
Q 2397 3584 2667 3537 
Q 2938 3491 3200 3397 
z
" transform="scale(0.015625)"/>
      <path id="DejaVuSans-35" d="M 691 4666 
L 3169 4666 
L 3169 4134 
L 1269 4134 
L 1269 2991 
Q 1406 3038 1543 3061 
Q 1681 3084 1819 3084 
Q 2600 3084 3056 2656 
Q 3513 2228 3513 1497 
Q 3513 744 3044 326 
Q 2575 -91 1722 -91 
Q 1428 -91 1123 -41 
Q 819 9 494 109 
L 494 744 
Q 775 591 1075 516 
Q 1375 441 1709 441 
Q 2250 441 2565 725 
Q 2881 1009 2881 1497 
Q 2881 1984 2565 2268 
Q 2250 2553 1709 2553 
Q 1456 2553 1204 2497 
Q 953 2441 691 2322 
L 691 4666 
z
" transform="scale(0.015625)"/>
      <path id="DejaVuSans-65" d="M 3597 1894 
L 3597 1613 
L 953 1613 
Q 991 1019 1311 708 
Q 1631 397 2203 397 
Q 2534 397 2845 478 
Q 3156 559 3463 722 
L 3463 178 
Q 3153 47 2828 -22 
Q 2503 -91 2169 -91 
Q 1331 -91 842 396 
Q 353 884 353 1716 
Q 353 2575 817 3079 
Q 1281 3584 2069 3584 
Q 2775 3584 3186 3129 
Q 3597 2675 3597 1894 
z
M 3022 2063 
Q 3016 2534 2758 2815 
Q 2500 3097 2075 3097 
Q 1594 3097 1305 2825 
Q 1016 2553 972 2059 
L 3022 2063 
z
" transform="scale(0.015625)"/>
      <path id="DejaVuSans-2d" d="M 313 2009 
L 1997 2009 
L 1997 1497 
L 313 1497 
L 313 2009 
z
" transform="scale(0.015625)"/>
      <path id="DejaVuSans-47" d="M 3809 666 
L 3809 1919 
L 2778 1919 
L 2778 2438 
L 4434 2438 
L 4434 434 
Q 4069 175 3628 42 
Q 3188 -91 2688 -91 
Q 1594 -91 976 548 
Q 359 1188 359 2328 
Q 359 3472 976 4111 
Q 1594 4750 2688 4750 
Q 3144 4750 3555 4637 
Q 3966 4525 4313 4306 
L 4313 3634 
Q 3963 3931 3569 4081 
Q 3175 4231 2741 4231 
Q 1884 4231 1454 3753 
Q 1025 3275 1025 2328 
Q 1025 1384 1454 906 
Q 1884 428 2741 428 
Q 3075 428 3337 486 
Q 3600 544 3809 666 
z
" transform="scale(0.015625)"/>
      <path id="DejaVuSans-48" d="M 628 4666 
L 1259 4666 
L 1259 2753 
L 3553 2753 
L 3553 4666 
L 4184 4666 
L 4184 0 
L 3553 0 
L 3553 2222 
L 1259 2222 
L 1259 0 
L 628 0 
L 628 4666 
z
" transform="scale(0.015625)"/>
      <path id="DejaVuSans-7a" d="M 353 3500 
L 3084 3500 
L 3084 2975 
L 922 459 
L 3084 459 
L 3084 0 
L 275 0 
L 275 525 
L 2438 3041 
L 353 3041 
L 353 3500 
z
" transform="scale(0.015625)"/>
     </defs>
     <use xlink:href="#DejaVuSans-Oblique-66" transform="translate(0 0.015625)"/>
     <use xlink:href="#DejaVuSans-Oblique-72" transform="translate(35.205078 -16.390625) scale(0.7)"/>
     <use xlink:href="#DejaVuSans-Oblique-65" transform="translate(63.984375 -16.390625) scale(0.7)"/>
     <use xlink:href="#DejaVuSans-Oblique-73" transform="translate(107.050781 -16.390625) scale(0.7)"/>
     <use xlink:href="#DejaVuSans-3a" transform="translate(146.254883 0.015625)"/>
     <use xlink:href="#DejaVuSans-20" transform="translate(179.946289 0.015625)"/>
     <use xlink:href="#DejaVuSans-37" transform="translate(211.733398 0.015625)"/>
     <use xlink:href="#DejaVuSans-2e" transform="translate(275.356445 0.015625)"/>
     <use xlink:href="#DejaVuSans-30" transform="translate(307.143555 0.015625)"/>
     <use xlink:href="#DejaVuSans-39" transform="translate(370.766602 0.015625)"/>
     <use xlink:href="#DejaVuSans-35" transform="translate(434.389648 0.015625)"/>
     <use xlink:href="#DejaVuSans-37" transform="translate(490.762695 0.015625)"/>
     <use xlink:href="#DejaVuSans-39" transform="translate(554.385742 0.015625)"/>
     <use xlink:href="#DejaVuSans-30" transform="translate(618.008789 0.015625)"/>
     <use xlink:href="#DejaVuSans-37" transform="translate(681.631836 0.015625)"/>
     <use xlink:href="#DejaVuSans-b1" transform="translate(745.254883 0.015625)"/>
     <use xlink:href="#DejaVuSans-31" transform="translate(829.043945 0.015625)"/>
     <use xlink:href="#DejaVuSans-2e" transform="translate(892.666992 0.015625)"/>
     <use xlink:href="#DejaVuSans-30" transform="translate(924.454102 0.015625)"/>
     <use xlink:href="#DejaVuSans-65" transform="translate(988.077148 0.015625)"/>
     <use xlink:href="#DejaVuSans-2d" transform="translate(1049.600586 0.015625)"/>
     <use xlink:href="#DejaVuSans-30" transform="translate(1085.68457 0.015625)"/>
     <use xlink:href="#DejaVuSans-36" transform="translate(1149.307617 0.015625)"/>
     <use xlink:href="#DejaVuSans-20" transform="translate(1212.930664 0.015625)"/>
     <use xlink:href="#DejaVuSans-47" transform="translate(1244.717773 0.015625)"/>
     <use xlink:href="#DejaVuSans-48" transform="translate(1322.208008 0.015625)"/>
     <use xlink:href="#DejaVuSans-7a" transform="translate(1397.40332 0.015625)"/>
    </g>
    <!-- $f_{opt}$: 7.0958 GHz -->
    <g transform="translate(425.571312 100.199562) scale(0.1 -0.1)">
     <defs>
      <path id="DejaVuSans-Oblique-6f" d="M 1625 -91 
Q 1009 -91 651 289 
Q 294 669 294 1325 
Q 294 1706 417 2101 
Q 541 2497 738 2766 
Q 1047 3184 1428 3384 
Q 1809 3584 2291 3584 
Q 2888 3584 3255 3212 
Q 3622 2841 3622 2241 
Q 3622 1825 3500 1412 
Q 3378 1000 3181 728 
Q 2875 309 2494 109 
Q 2113 -91 1625 -91 
z
M 891 1344 
Q 891 869 1089 633 
Q 1288 397 1691 397 
Q 2269 397 2648 901 
Q 3028 1406 3028 2181 
Q 3028 2634 2825 2865 
Q 2622 3097 2228 3097 
Q 1903 3097 1650 2945 
Q 1397 2794 1197 2484 
Q 1050 2253 970 1956 
Q 891 1659 891 1344 
z
" transform="scale(0.015625)"/>
      <path id="DejaVuSans-Oblique-70" d="M 3175 2156 
Q 3175 2616 2975 2859 
Q 2775 3103 2400 3103 
Q 2144 3103 1911 2972 
Q 1678 2841 1497 2591 
Q 1319 2344 1212 1994 
Q 1106 1644 1106 1300 
Q 1106 863 1306 627 
Q 1506 391 1875 391 
Q 2147 391 2380 519 
Q 2613 647 2778 891 
Q 2956 1147 3065 1494 
Q 3175 1841 3175 2156 
z
M 1394 2969 
Q 1625 3272 1939 3428 
Q 2253 3584 2638 3584 
Q 3175 3584 3472 3232 
Q 3769 2881 3769 2247 
Q 3769 1728 3584 1258 
Q 3400 788 3053 416 
Q 2822 169 2531 39 
Q 2241 -91 1919 -91 
Q 1547 -91 1294 64 
Q 1041 219 916 525 
L 556 -1331 
L -19 -1331 
L 922 3500 
L 1497 3500 
L 1394 2969 
z
" transform="scale(0.015625)"/>
      <path id="DejaVuSans-Oblique-74" d="M 2706 3500 
L 2619 3053 
L 1472 3053 
L 1100 1153 
Q 1081 1047 1072 975 
Q 1063 903 1063 863 
Q 1063 663 1183 572 
Q 1303 481 1569 481 
L 2150 481 
L 2053 0 
L 1503 0 
Q 991 0 739 200 
Q 488 400 488 806 
Q 488 878 497 964 
Q 506 1050 525 1153 
L 897 3053 
L 409 3053 
L 500 3500 
L 978 3500 
L 1172 4494 
L 1747 4494 
L 1556 3500 
L 2706 3500 
z
" transform="scale(0.015625)"/>
     </defs>
     <use xlink:href="#DejaVuSans-Oblique-66" transform="translate(0 0.015625)"/>
     <use xlink:href="#DejaVuSans-Oblique-6f" transform="translate(35.205078 -16.390625) scale(0.7)"/>
     <use xlink:href="#DejaVuSans-Oblique-70" transform="translate(78.032227 -16.390625) scale(0.7)"/>
     <use xlink:href="#DejaVuSans-Oblique-74" transform="translate(122.46582 -16.390625) scale(0.7)"/>
     <use xlink:href="#DejaVuSans-3a" transform="translate(152.646484 0.015625)"/>
     <use xlink:href="#DejaVuSans-20" transform="translate(186.337891 0.015625)"/>
     <use xlink:href="#DejaVuSans-37" transform="translate(218.125 0.015625)"/>
     <use xlink:href="#DejaVuSans-2e" transform="translate(281.748047 0.015625)"/>
     <use xlink:href="#DejaVuSans-30" transform="translate(313.535156 0.015625)"/>
     <use xlink:href="#DejaVuSans-39" transform="translate(377.158203 0.015625)"/>
     <use xlink:href="#DejaVuSans-35" transform="translate(440.78125 0.015625)"/>
     <use xlink:href="#DejaVuSans-38" transform="translate(504.404297 0.015625)"/>
     <use xlink:href="#DejaVuSans-20" transform="translate(568.027344 0.015625)"/>
     <use xlink:href="#DejaVuSans-47" transform="translate(599.814453 0.015625)"/>
     <use xlink:href="#DejaVuSans-48" transform="translate(677.304688 0.015625)"/>
     <use xlink:href="#DejaVuSans-7a" transform="translate(752.5 0.015625)"/>
    </g>
   </g>
   <g id="legend_1">
    <g id="patch_8">
     <path d="M 57.595313 157.72 
L 180.303125 157.72 
Q 182.303125 157.72 182.303125 155.72 
L 182.303125 82.3075 
Q 182.303125 80.3075 180.303125 80.3075 
L 57.595313 80.3075 
Q 55.595313 80.3075 55.595313 82.3075 
L 55.595313 155.72 
Q 55.595313 157.72 57.595313 157.72 
z
" style="fill: #ffffff; opacity: 0.8; stroke: #cccccc; stroke-linejoin: miter"/>
    </g>
    <g id="line2d_17">
     <path d="M 59.595313 88.405937 
L 69.595313 88.405937 
L 79.595313 88.405937 
" style="fill: none; stroke: #1f77b4; stroke-width: 1.5; stroke-linecap: square"/>
     <g>
      <use xlink:href="#ma131fed9f3" x="69.595313" y="88.405937" style="fill: #1f77b4; stroke: #1f77b4"/>
     </g>
    </g>
    <g id="text_6">
     <!-- Data -->
     <g transform="translate(87.595313 91.905937) scale(0.1 -0.1)">
      <defs>
       <path id="DejaVuSans-44" d="M 1259 4147 
L 1259 519 
L 2022 519 
Q 2988 519 3436 956 
Q 3884 1394 3884 2338 
Q 3884 3275 3436 3711 
Q 2988 4147 2022 4147 
L 1259 4147 
z
M 628 4666 
L 1925 4666 
Q 3281 4666 3915 4102 
Q 4550 3538 4550 2338 
Q 4550 1131 3912 565 
Q 3275 0 1925 0 
L 628 0 
L 628 4666 
z
" transform="scale(0.015625)"/>
       <path id="DejaVuSans-74" d="M 1172 4494 
L 1172 3500 
L 2356 3500 
L 2356 3053 
L 1172 3053 
L 1172 1153 
Q 1172 725 1289 603 
Q 1406 481 1766 481 
L 2356 481 
L 2356 0 
L 1766 0 
Q 1100 0 847 248 
Q 594 497 594 1153 
L 594 3053 
L 172 3053 
L 172 3500 
L 594 3500 
L 594 4494 
L 1172 4494 
z
" transform="scale(0.015625)"/>
      </defs>
      <use xlink:href="#DejaVuSans-44"/>
      <use xlink:href="#DejaVuSans-61" x="77.001953"/>
      <use xlink:href="#DejaVuSans-74" x="138.28125"/>
      <use xlink:href="#DejaVuSans-61" x="177.490234"/>
     </g>
    </g>
    <g id="line2d_18">
     <path d="M 59.595313 103.084062 
L 69.595313 103.084062 
L 79.595313 103.084062 
" style="fill: none; stroke: #d62728; stroke-width: 1.5; stroke-linecap: square"/>
    </g>
    <g id="text_7">
     <!-- Complex fit -->
     <g transform="translate(87.595313 106.584062) scale(0.1 -0.1)">
      <defs>
       <path id="DejaVuSans-43" d="M 4122 4306 
L 4122 3641 
Q 3803 3938 3442 4084 
Q 3081 4231 2675 4231 
Q 1875 4231 1450 3742 
Q 1025 3253 1025 2328 
Q 1025 1406 1450 917 
Q 1875 428 2675 428 
Q 3081 428 3442 575 
Q 3803 722 4122 1019 
L 4122 359 
Q 3791 134 3420 21 
Q 3050 -91 2638 -91 
Q 1578 -91 968 557 
Q 359 1206 359 2328 
Q 359 3453 968 4101 
Q 1578 4750 2638 4750 
Q 3056 4750 3426 4639 
Q 3797 4528 4122 4306 
z
" transform="scale(0.015625)"/>
       <path id="DejaVuSans-6f" d="M 1959 3097 
Q 1497 3097 1228 2736 
Q 959 2375 959 1747 
Q 959 1119 1226 758 
Q 1494 397 1959 397 
Q 2419 397 2687 759 
Q 2956 1122 2956 1747 
Q 2956 2369 2687 2733 
Q 2419 3097 1959 3097 
z
M 1959 3584 
Q 2709 3584 3137 3096 
Q 3566 2609 3566 1747 
Q 3566 888 3137 398 
Q 2709 -91 1959 -91 
Q 1206 -91 779 398 
Q 353 888 353 1747 
Q 353 2609 779 3096 
Q 1206 3584 1959 3584 
z
" transform="scale(0.015625)"/>
       <path id="DejaVuSans-70" d="M 1159 525 
L 1159 -1331 
L 581 -1331 
L 581 3500 
L 1159 3500 
L 1159 2969 
Q 1341 3281 1617 3432 
Q 1894 3584 2278 3584 
Q 2916 3584 3314 3078 
Q 3713 2572 3713 1747 
Q 3713 922 3314 415 
Q 2916 -91 2278 -91 
Q 1894 -91 1617 61 
Q 1341 213 1159 525 
z
M 3116 1747 
Q 3116 2381 2855 2742 
Q 2594 3103 2138 3103 
Q 1681 3103 1420 2742 
Q 1159 2381 1159 1747 
Q 1159 1113 1420 752 
Q 1681 391 2138 391 
Q 2594 391 2855 752 
Q 3116 1113 3116 1747 
z
" transform="scale(0.015625)"/>
       <path id="DejaVuSans-6c" d="M 603 4863 
L 1178 4863 
L 1178 0 
L 603 0 
L 603 4863 
z
" transform="scale(0.015625)"/>
       <path id="DejaVuSans-78" d="M 3513 3500 
L 2247 1797 
L 3578 0 
L 2900 0 
L 1881 1375 
L 863 0 
L 184 0 
L 1544 1831 
L 300 3500 
L 978 3500 
L 1906 2253 
L 2834 3500 
L 3513 3500 
z
" transform="scale(0.015625)"/>
       <path id="DejaVuSans-66" d="M 2375 4863 
L 2375 4384 
L 1825 4384 
Q 1516 4384 1395 4259 
Q 1275 4134 1275 3809 
L 1275 3500 
L 2222 3500 
L 2222 3053 
L 1275 3053 
L 1275 0 
L 697 0 
L 697 3053 
L 147 3053 
L 147 3500 
L 697 3500 
L 697 3744 
Q 697 4328 969 4595 
Q 1241 4863 1831 4863 
L 2375 4863 
z
" transform="scale(0.015625)"/>
       <path id="DejaVuSans-69" d="M 603 3500 
L 1178 3500 
L 1178 0 
L 603 0 
L 603 3500 
z
M 603 4863 
L 1178 4863 
L 1178 4134 
L 603 4134 
L 603 4863 
z
" transform="scale(0.015625)"/>
      </defs>
      <use xlink:href="#DejaVuSans-43"/>
      <use xlink:href="#DejaVuSans-6f" x="69.824219"/>
      <use xlink:href="#DejaVuSans-6d" x="131.005859"/>
      <use xlink:href="#DejaVuSans-70" x="228.417969"/>
      <use xlink:href="#DejaVuSans-6c" x="291.894531"/>
      <use xlink:href="#DejaVuSans-65" x="319.677734"/>
      <use xlink:href="#DejaVuSans-78" x="379.451172"/>
      <use xlink:href="#DejaVuSans-20" x="438.630859"/>
      <use xlink:href="#DejaVuSans-66" x="470.417969"/>
      <use xlink:href="#DejaVuSans-69" x="505.623047"/>
      <use xlink:href="#DejaVuSans-74" x="533.40625"/>
     </g>
    </g>
    <g id="line2d_19">
     <path d="M 59.595313 117.762187 
L 69.595313 117.762187 
L 79.595313 117.762187 
" style="fill: none; stroke-dasharray: 5.55,2.4; stroke-dashoffset: 0; stroke: #d3d3d3; stroke-width: 1.5"/>
    </g>
    <g id="text_8">
     <!-- Magnitude only fit -->
     <g transform="translate(87.595313 121.262187) scale(0.1 -0.1)">
      <defs>
       <path id="DejaVuSans-4d" d="M 628 4666 
L 1569 4666 
L 2759 1491 
L 3956 4666 
L 4897 4666 
L 4897 0 
L 4281 0 
L 4281 4097 
L 3078 897 
L 2444 897 
L 1241 4097 
L 1241 0 
L 628 0 
L 628 4666 
z
" transform="scale(0.015625)"/>
       <path id="DejaVuSans-67" d="M 2906 1791 
Q 2906 2416 2648 2759 
Q 2391 3103 1925 3103 
Q 1463 3103 1205 2759 
Q 947 2416 947 1791 
Q 947 1169 1205 825 
Q 1463 481 1925 481 
Q 2391 481 2648 825 
Q 2906 1169 2906 1791 
z
M 3481 434 
Q 3481 -459 3084 -895 
Q 2688 -1331 1869 -1331 
Q 1566 -1331 1297 -1286 
Q 1028 -1241 775 -1147 
L 775 -588 
Q 1028 -725 1275 -790 
Q 1522 -856 1778 -856 
Q 2344 -856 2625 -561 
Q 2906 -266 2906 331 
L 2906 616 
Q 2728 306 2450 153 
Q 2172 0 1784 0 
Q 1141 0 747 490 
Q 353 981 353 1791 
Q 353 2603 747 3093 
Q 1141 3584 1784 3584 
Q 2172 3584 2450 3431 
Q 2728 3278 2906 2969 
L 2906 3500 
L 3481 3500 
L 3481 434 
z
" transform="scale(0.015625)"/>
       <path id="DejaVuSans-6e" d="M 3513 2113 
L 3513 0 
L 2938 0 
L 2938 2094 
Q 2938 2591 2744 2837 
Q 2550 3084 2163 3084 
Q 1697 3084 1428 2787 
Q 1159 2491 1159 1978 
L 1159 0 
L 581 0 
L 581 3500 
L 1159 3500 
L 1159 2956 
Q 1366 3272 1645 3428 
Q 1925 3584 2291 3584 
Q 2894 3584 3203 3211 
Q 3513 2838 3513 2113 
z
" transform="scale(0.015625)"/>
       <path id="DejaVuSans-64" d="M 2906 2969 
L 2906 4863 
L 3481 4863 
L 3481 0 
L 2906 0 
L 2906 525 
Q 2725 213 2448 61 
Q 2172 -91 1784 -91 
Q 1150 -91 751 415 
Q 353 922 353 1747 
Q 353 2572 751 3078 
Q 1150 3584 1784 3584 
Q 2172 3584 2448 3432 
Q 2725 3281 2906 2969 
z
M 947 1747 
Q 947 1113 1208 752 
Q 1469 391 1925 391 
Q 2381 391 2643 752 
Q 2906 1113 2906 1747 
Q 2906 2381 2643 2742 
Q 2381 3103 1925 3103 
Q 1469 3103 1208 2742 
Q 947 2381 947 1747 
z
" transform="scale(0.015625)"/>
      </defs>
      <use xlink:href="#DejaVuSans-4d"/>
      <use xlink:href="#DejaVuSans-61" x="86.279297"/>
      <use xlink:href="#DejaVuSans-67" x="147.558594"/>
      <use xlink:href="#DejaVuSans-6e" x="211.035156"/>
      <use xlink:href="#DejaVuSans-69" x="274.414062"/>
      <use xlink:href="#DejaVuSans-74" x="302.197266"/>
      <use xlink:href="#DejaVuSans-75" x="341.40625"/>
      <use xlink:href="#DejaVuSans-64" x="404.785156"/>
      <use xlink:href="#DejaVuSans-65" x="468.261719"/>
      <use xlink:href="#DejaVuSans-20" x="529.785156"/>
      <use xlink:href="#DejaVuSans-6f" x="561.572266"/>
      <use xlink:href="#DejaVuSans-6e" x="622.753906"/>
      <use xlink:href="#DejaVuSans-6c" x="686.132812"/>
      <use xlink:href="#DejaVuSans-79" x="713.916016"/>
      <use xlink:href="#DejaVuSans-20" x="773.095703"/>
      <use xlink:href="#DejaVuSans-66" x="804.882812"/>
      <use xlink:href="#DejaVuSans-69" x="840.087891"/>
      <use xlink:href="#DejaVuSans-74" x="867.871094"/>
     </g>
    </g>
    <g id="line2d_20">
     <path d="M 59.595313 132.440313 
L 69.595313 132.440313 
L 79.595313 132.440313 
" style="fill: none; stroke-dasharray: 5.55,2.4; stroke-dashoffset: 0; stroke: #808080; stroke-width: 1.5"/>
    </g>
    <g id="text_9">
     <!-- $f_r$ -->
     <g transform="translate(87.595313 135.940313) scale(0.1 -0.1)">
      <use xlink:href="#DejaVuSans-Oblique-66" transform="translate(0 0.015625)"/>
      <use xlink:href="#DejaVuSans-Oblique-72" transform="translate(35.205078 -16.390625) scale(0.7)"/>
     </g>
    </g>
    <g id="line2d_21">
     <path d="M 59.595313 147.12 
L 69.595313 147.12 
L 79.595313 147.12 
" style="fill: none; stroke: #9467bd; stroke-width: 1.5; stroke-linecap: square"/>
    </g>
    <g id="text_10">
     <!-- $f_{opt}$ -->
     <g transform="translate(87.595313 150.62) scale(0.1 -0.1)">
      <use xlink:href="#DejaVuSans-Oblique-66" transform="translate(0 0.015625)"/>
      <use xlink:href="#DejaVuSans-Oblique-6f" transform="translate(35.205078 -16.390625) scale(0.7)"/>
      <use xlink:href="#DejaVuSans-Oblique-70" transform="translate(78.032227 -16.390625) scale(0.7)"/>
      <use xlink:href="#DejaVuSans-Oblique-74" transform="translate(122.46582 -16.390625) scale(0.7)"/>
     </g>
    </g>
   </g>
  </g>
  <g id="axes_2">
   <g id="patch_9">
    <path d="M 50.595313 307.872 
L 407.715312 307.872 
L 407.715312 186.912 
L 50.595313 186.912 
z
" style="fill: #ffffff"/>
   </g>
   <g id="line2d_22">
    <path d="M 230.763403 307.872 
L 230.763403 186.912 
" clip-path="url(#pd19784b160)" style="fill: none; stroke-dasharray: 5.55,2.4; stroke-dashoffset: 0; stroke: #d3d3d3; stroke-width: 1.5"/>
   </g>
   <g id="line2d_23">
    <path d="M 229.566268 307.872 
L 229.566268 186.912 
" clip-path="url(#pd19784b160)" style="fill: none; stroke-dasharray: 5.55,2.4; stroke-dashoffset: 0; stroke: #808080; stroke-width: 1.5"/>
   </g>
   <g id="matplotlib.axis_3">
    <g id="xtick_9">
     <g id="line2d_24">
      <g>
       <use xlink:href="#m46b6e31ffe" x="83.580993" y="307.872" style="stroke: #000000; stroke-width: 0.8"/>
      </g>
     </g>
     <g id="text_11">
      <!-- 94 -->
      <g transform="translate(77.218493 322.470438) scale(0.1 -0.1)">
       <use xlink:href="#DejaVuSans-39"/>
       <use xlink:href="#DejaVuSans-34" x="63.623047"/>
      </g>
     </g>
    </g>
    <g id="xtick_10">
     <g id="line2d_25">
      <g>
       <use xlink:href="#m46b6e31ffe" x="124.676505" y="307.872" style="stroke: #000000; stroke-width: 0.8"/>
      </g>
     </g>
     <g id="text_12">
      <!-- 94.5 -->
      <g transform="translate(113.543692 322.470438) scale(0.1 -0.1)">
       <use xlink:href="#DejaVuSans-39"/>
       <use xlink:href="#DejaVuSans-34" x="63.623047"/>
       <use xlink:href="#DejaVuSans-2e" x="127.246094"/>
       <use xlink:href="#DejaVuSans-35" x="159.033203"/>
      </g>
     </g>
    </g>
    <g id="xtick_11">
     <g id="line2d_26">
      <g>
       <use xlink:href="#m46b6e31ffe" x="165.772017" y="307.872" style="stroke: #000000; stroke-width: 0.8"/>
      </g>
     </g>
     <g id="text_13">
      <!-- 95 -->
      <g transform="translate(159.409517 322.470438) scale(0.1 -0.1)">
       <use xlink:href="#DejaVuSans-39"/>
       <use xlink:href="#DejaVuSans-35" x="63.623047"/>
      </g>
     </g>
    </g>
    <g id="xtick_12">
     <g id="line2d_27">
      <g>
       <use xlink:href="#m46b6e31ffe" x="206.867529" y="307.872" style="stroke: #000000; stroke-width: 0.8"/>
      </g>
     </g>
     <g id="text_14">
      <!-- 95.5 -->
      <g transform="translate(195.734716 322.470438) scale(0.1 -0.1)">
       <use xlink:href="#DejaVuSans-39"/>
       <use xlink:href="#DejaVuSans-35" x="63.623047"/>
       <use xlink:href="#DejaVuSans-2e" x="127.246094"/>
       <use xlink:href="#DejaVuSans-35" x="159.033203"/>
      </g>
     </g>
    </g>
    <g id="xtick_13">
     <g id="line2d_28">
      <g>
       <use xlink:href="#m46b6e31ffe" x="247.963041" y="307.872" style="stroke: #000000; stroke-width: 0.8"/>
      </g>
     </g>
     <g id="text_15">
      <!-- 96 -->
      <g transform="translate(241.600541 322.470438) scale(0.1 -0.1)">
       <use xlink:href="#DejaVuSans-39"/>
       <use xlink:href="#DejaVuSans-36" x="63.623047"/>
      </g>
     </g>
    </g>
    <g id="xtick_14">
     <g id="line2d_29">
      <g>
       <use xlink:href="#m46b6e31ffe" x="289.058553" y="307.872" style="stroke: #000000; stroke-width: 0.8"/>
      </g>
     </g>
     <g id="text_16">
      <!-- 96.5 -->
      <g transform="translate(277.925741 322.470438) scale(0.1 -0.1)">
       <use xlink:href="#DejaVuSans-39"/>
       <use xlink:href="#DejaVuSans-36" x="63.623047"/>
       <use xlink:href="#DejaVuSans-2e" x="127.246094"/>
       <use xlink:href="#DejaVuSans-35" x="159.033203"/>
      </g>
     </g>
    </g>
    <g id="xtick_15">
     <g id="line2d_30">
      <g>
       <use xlink:href="#m46b6e31ffe" x="330.154065" y="307.872" style="stroke: #000000; stroke-width: 0.8"/>
      </g>
     </g>
     <g id="text_17">
      <!-- 97 -->
      <g transform="translate(323.791565 322.470438) scale(0.1 -0.1)">
       <use xlink:href="#DejaVuSans-39"/>
       <use xlink:href="#DejaVuSans-37" x="63.623047"/>
      </g>
     </g>
    </g>
    <g id="xtick_16">
     <g id="line2d_31">
      <g>
       <use xlink:href="#m46b6e31ffe" x="371.249577" y="307.872" style="stroke: #000000; stroke-width: 0.8"/>
      </g>
     </g>
     <g id="text_18">
      <!-- 97.5 -->
      <g transform="translate(360.116765 322.470438) scale(0.1 -0.1)">
       <use xlink:href="#DejaVuSans-39"/>
       <use xlink:href="#DejaVuSans-37" x="63.623047"/>
       <use xlink:href="#DejaVuSans-2e" x="127.246094"/>
       <use xlink:href="#DejaVuSans-35" x="159.033203"/>
      </g>
     </g>
    </g>
    <g id="text_19">
     <!-- Readout frequency [MHz] -->
     <g transform="translate(165.548281 336.148562) scale(0.1 -0.1)">
      <defs>
       <path id="DejaVuSans-52" d="M 2841 2188 
Q 3044 2119 3236 1894 
Q 3428 1669 3622 1275 
L 4263 0 
L 3584 0 
L 2988 1197 
Q 2756 1666 2539 1819 
Q 2322 1972 1947 1972 
L 1259 1972 
L 1259 0 
L 628 0 
L 628 4666 
L 2053 4666 
Q 2853 4666 3247 4331 
Q 3641 3997 3641 3322 
Q 3641 2881 3436 2590 
Q 3231 2300 2841 2188 
z
M 1259 4147 
L 1259 2491 
L 2053 2491 
Q 2509 2491 2742 2702 
Q 2975 2913 2975 3322 
Q 2975 3731 2742 3939 
Q 2509 4147 2053 4147 
L 1259 4147 
z
" transform="scale(0.015625)"/>
       <path id="DejaVuSans-71" d="M 947 1747 
Q 947 1113 1208 752 
Q 1469 391 1925 391 
Q 2381 391 2643 752 
Q 2906 1113 2906 1747 
Q 2906 2381 2643 2742 
Q 2381 3103 1925 3103 
Q 1469 3103 1208 2742 
Q 947 2381 947 1747 
z
M 2906 525 
Q 2725 213 2448 61 
Q 2172 -91 1784 -91 
Q 1150 -91 751 415 
Q 353 922 353 1747 
Q 353 2572 751 3078 
Q 1150 3584 1784 3584 
Q 2172 3584 2448 3432 
Q 2725 3281 2906 2969 
L 2906 3500 
L 3481 3500 
L 3481 -1331 
L 2906 -1331 
L 2906 525 
z
" transform="scale(0.015625)"/>
       <path id="DejaVuSans-63" d="M 3122 3366 
L 3122 2828 
Q 2878 2963 2633 3030 
Q 2388 3097 2138 3097 
Q 1578 3097 1268 2742 
Q 959 2388 959 1747 
Q 959 1106 1268 751 
Q 1578 397 2138 397 
Q 2388 397 2633 464 
Q 2878 531 3122 666 
L 3122 134 
Q 2881 22 2623 -34 
Q 2366 -91 2075 -91 
Q 1284 -91 818 406 
Q 353 903 353 1747 
Q 353 2603 823 3093 
Q 1294 3584 2113 3584 
Q 2378 3584 2631 3529 
Q 2884 3475 3122 3366 
z
" transform="scale(0.015625)"/>
      </defs>
      <use xlink:href="#DejaVuSans-52"/>
      <use xlink:href="#DejaVuSans-65" x="64.982422"/>
      <use xlink:href="#DejaVuSans-61" x="126.505859"/>
      <use xlink:href="#DejaVuSans-64" x="187.785156"/>
      <use xlink:href="#DejaVuSans-6f" x="251.261719"/>
      <use xlink:href="#DejaVuSans-75" x="312.443359"/>
      <use xlink:href="#DejaVuSans-74" x="375.822266"/>
      <use xlink:href="#DejaVuSans-20" x="415.03125"/>
      <use xlink:href="#DejaVuSans-66" x="446.818359"/>
      <use xlink:href="#DejaVuSans-72" x="482.023438"/>
      <use xlink:href="#DejaVuSans-65" x="520.886719"/>
      <use xlink:href="#DejaVuSans-71" x="582.410156"/>
      <use xlink:href="#DejaVuSans-75" x="645.886719"/>
      <use xlink:href="#DejaVuSans-65" x="709.265625"/>
      <use xlink:href="#DejaVuSans-6e" x="770.789062"/>
      <use xlink:href="#DejaVuSans-63" x="834.167969"/>
      <use xlink:href="#DejaVuSans-79" x="889.148438"/>
      <use xlink:href="#DejaVuSans-20" x="948.328125"/>
      <use xlink:href="#DejaVuSans-5b" x="980.115234"/>
      <use xlink:href="#DejaVuSans-4d" x="1019.128906"/>
      <use xlink:href="#DejaVuSans-48" x="1105.408203"/>
      <use xlink:href="#DejaVuSans-7a" x="1180.603516"/>
      <use xlink:href="#DejaVuSans-5d" x="1233.09375"/>
     </g>
    </g>
    <g id="text_20">
     <!-- +7 GHz -->
     <g transform="translate(369.277812 335.148562) scale(0.1 -0.1)">
      <defs>
       <path id="DejaVuSans-2b" d="M 2944 4013 
L 2944 2272 
L 4684 2272 
L 4684 1741 
L 2944 1741 
L 2944 0 
L 2419 0 
L 2419 1741 
L 678 1741 
L 678 2272 
L 2419 2272 
L 2419 4013 
L 2944 4013 
z
" transform="scale(0.015625)"/>
      </defs>
      <use xlink:href="#DejaVuSans-2b"/>
      <use xlink:href="#DejaVuSans-37" x="83.789062"/>
      <use xlink:href="#DejaVuSans-20" x="147.412109"/>
      <use xlink:href="#DejaVuSans-47" x="179.199219"/>
      <use xlink:href="#DejaVuSans-48" x="256.689453"/>
      <use xlink:href="#DejaVuSans-7a" x="331.884766"/>
     </g>
    </g>
   </g>
   <g id="matplotlib.axis_4">
    <g id="ytick_4">
     <g id="line2d_32">
      <g>
       <use xlink:href="#m82057d6176" x="50.595313" y="277.996278" style="stroke: #000000; stroke-width: 0.8"/>
      </g>
     </g>
     <g id="text_21">
      <!-- -100 -->
      <g transform="translate(20.9 281.795496) scale(0.1 -0.1)">
       <use xlink:href="#DejaVuSans-2d"/>
       <use xlink:href="#DejaVuSans-31" x="36.083984"/>
       <use xlink:href="#DejaVuSans-30" x="99.707031"/>
       <use xlink:href="#DejaVuSans-30" x="163.330078"/>
      </g>
     </g>
    </g>
    <g id="ytick_5">
     <g id="line2d_33">
      <g>
       <use xlink:href="#m82057d6176" x="50.595313" y="247.420944" style="stroke: #000000; stroke-width: 0.8"/>
      </g>
     </g>
     <g id="text_22">
      <!-- 0 -->
      <g transform="translate(37.232813 251.220163) scale(0.1 -0.1)">
       <use xlink:href="#DejaVuSans-30"/>
      </g>
     </g>
    </g>
    <g id="ytick_6">
     <g id="line2d_34">
      <g>
       <use xlink:href="#m82057d6176" x="50.595313" y="216.84561" style="stroke: #000000; stroke-width: 0.8"/>
      </g>
     </g>
     <g id="text_23">
      <!-- 100 -->
      <g transform="translate(24.507813 220.644829) scale(0.1 -0.1)">
       <use xlink:href="#DejaVuSans-31"/>
       <use xlink:href="#DejaVuSans-30" x="63.623047"/>
       <use xlink:href="#DejaVuSans-30" x="127.246094"/>
      </g>
     </g>
    </g>
    <g id="text_24">
     <!-- $\angle S_{21}$ [deg] -->
     <g transform="translate(14.8 274.592) rotate(-90) scale(0.1 -0.1)">
      <defs>
       <path id="DejaVuSans-2220" d="M 5028 631 
L 5028 0 
L 547 0 
L 3525 4666 
L 4281 4666 
L 1716 631 
L 5028 631 
z
" transform="scale(0.015625)"/>
      </defs>
      <use xlink:href="#DejaVuSans-2220" transform="translate(0 0.015625)"/>
      <use xlink:href="#DejaVuSans-Oblique-53" transform="translate(89.648438 0.015625)"/>
      <use xlink:href="#DejaVuSans-32" transform="translate(153.125 -16.390625) scale(0.7)"/>
      <use xlink:href="#DejaVuSans-31" transform="translate(197.661133 -16.390625) scale(0.7)"/>
      <use xlink:href="#DejaVuSans-20" transform="translate(244.931641 0.015625)"/>
      <use xlink:href="#DejaVuSans-5b" transform="translate(276.71875 0.015625)"/>
      <use xlink:href="#DejaVuSans-64" transform="translate(315.732422 0.015625)"/>
      <use xlink:href="#DejaVuSans-65" transform="translate(379.208984 0.015625)"/>
      <use xlink:href="#DejaVuSans-67" transform="translate(440.732422 0.015625)"/>
      <use xlink:href="#DejaVuSans-5d" transform="translate(504.208984 0.015625)"/>
     </g>
    </g>
   </g>
   <g id="line2d_35">
    <path d="M 66.82804 261.434978 
L 70.937591 262.704718 
L 75.047142 263.978162 
L 79.156693 265.250874 
L 83.266245 266.52715 
L 87.375796 267.797601 
L 91.485347 269.075444 
L 95.594898 270.355654 
L 99.704449 271.638621 
L 103.814001 272.935403 
L 107.923552 274.23432 
L 112.033103 275.542813 
L 116.142654 276.850823 
L 120.252205 278.164124 
L 124.361757 279.491635 
L 128.471308 280.819687 
L 132.580859 282.155261 
L 136.69041 283.501838 
L 140.799962 284.858262 
L 144.909513 286.228533 
L 149.019064 287.615276 
L 153.128615 289.012432 
L 157.238166 290.426174 
L 161.347718 291.860677 
L 165.457269 293.324531 
L 169.56682 294.809262 
L 173.676371 296.334268 
L 177.785922 297.90283 
L 181.895474 299.512023 
L 186.005025 301.186386 
L 190.114576 192.860335 
L 194.224127 194.709586 
L 198.333678 196.664815 
L 202.44323 198.770764 
L 206.552781 201.046491 
L 210.662332 203.525934 
L 214.771883 206.196107 
L 218.881434 208.909343 
L 222.990986 211.002554 
L 227.100537 208.207965 
L 231.210088 296.711359 
L 235.319639 292.434863 
L 239.429191 294.67975 
L 243.538742 297.784996 
L 247.648293 300.842732 
L 251.757844 193.566054 
L 255.867395 196.102884 
L 259.976947 198.391558 
L 264.086498 200.490766 
L 268.196049 202.444817 
L 272.3056 204.290862 
L 276.415151 206.042394 
L 280.524703 207.724738 
L 284.634254 209.346949 
L 288.743805 210.913401 
L 292.853356 212.44571 
L 296.962907 213.932772 
L 301.072459 215.397705 
L 305.18201 216.841229 
L 309.291561 218.256475 
L 313.401112 219.652084 
L 317.510663 221.033624 
L 321.620215 222.406157 
L 325.729766 223.761377 
L 329.839317 225.111388 
L 333.948868 226.444737 
L 338.05842 227.773325 
L 342.167971 229.099124 
L 346.277522 230.416036 
L 350.387073 231.730664 
L 354.496624 233.036091 
L 358.606176 234.337352 
L 362.715727 235.631867 
L 366.825278 236.922294 
L 370.934829 238.20714 
L 375.04438 239.487127 
L 379.153932 240.765423 
L 383.263483 242.043104 
L 387.373034 243.318488 
L 391.482585 244.587531 
" clip-path="url(#pd19784b160)" style="fill: none; stroke: #1f77b4; stroke-width: 1.5; stroke-linecap: square"/>
    <g clip-path="url(#pd19784b160)">
     <use xlink:href="#ma131fed9f3" x="66.82804" y="261.434978" style="fill: #1f77b4; stroke: #1f77b4"/>
     <use xlink:href="#ma131fed9f3" x="70.937591" y="262.704718" style="fill: #1f77b4; stroke: #1f77b4"/>
     <use xlink:href="#ma131fed9f3" x="75.047142" y="263.978162" style="fill: #1f77b4; stroke: #1f77b4"/>
     <use xlink:href="#ma131fed9f3" x="79.156693" y="265.250874" style="fill: #1f77b4; stroke: #1f77b4"/>
     <use xlink:href="#ma131fed9f3" x="83.266245" y="266.52715" style="fill: #1f77b4; stroke: #1f77b4"/>
     <use xlink:href="#ma131fed9f3" x="87.375796" y="267.797601" style="fill: #1f77b4; stroke: #1f77b4"/>
     <use xlink:href="#ma131fed9f3" x="91.485347" y="269.075444" style="fill: #1f77b4; stroke: #1f77b4"/>
     <use xlink:href="#ma131fed9f3" x="95.594898" y="270.355654" style="fill: #1f77b4; stroke: #1f77b4"/>
     <use xlink:href="#ma131fed9f3" x="99.704449" y="271.638621" style="fill: #1f77b4; stroke: #1f77b4"/>
     <use xlink:href="#ma131fed9f3" x="103.814001" y="272.935403" style="fill: #1f77b4; stroke: #1f77b4"/>
     <use xlink:href="#ma131fed9f3" x="107.923552" y="274.23432" style="fill: #1f77b4; stroke: #1f77b4"/>
     <use xlink:href="#ma131fed9f3" x="112.033103" y="275.542813" style="fill: #1f77b4; stroke: #1f77b4"/>
     <use xlink:href="#ma131fed9f3" x="116.142654" y="276.850823" style="fill: #1f77b4; stroke: #1f77b4"/>
     <use xlink:href="#ma131fed9f3" x="120.252205" y="278.164124" style="fill: #1f77b4; stroke: #1f77b4"/>
     <use xlink:href="#ma131fed9f3" x="124.361757" y="279.491635" style="fill: #1f77b4; stroke: #1f77b4"/>
     <use xlink:href="#ma131fed9f3" x="128.471308" y="280.819687" style="fill: #1f77b4; stroke: #1f77b4"/>
     <use xlink:href="#ma131fed9f3" x="132.580859" y="282.155261" style="fill: #1f77b4; stroke: #1f77b4"/>
     <use xlink:href="#ma131fed9f3" x="136.69041" y="283.501838" style="fill: #1f77b4; stroke: #1f77b4"/>
     <use xlink:href="#ma131fed9f3" x="140.799962" y="284.858262" style="fill: #1f77b4; stroke: #1f77b4"/>
     <use xlink:href="#ma131fed9f3" x="144.909513" y="286.228533" style="fill: #1f77b4; stroke: #1f77b4"/>
     <use xlink:href="#ma131fed9f3" x="149.019064" y="287.615276" style="fill: #1f77b4; stroke: #1f77b4"/>
     <use xlink:href="#ma131fed9f3" x="153.128615" y="289.012432" style="fill: #1f77b4; stroke: #1f77b4"/>
     <use xlink:href="#ma131fed9f3" x="157.238166" y="290.426174" style="fill: #1f77b4; stroke: #1f77b4"/>
     <use xlink:href="#ma131fed9f3" x="161.347718" y="291.860677" style="fill: #1f77b4; stroke: #1f77b4"/>
     <use xlink:href="#ma131fed9f3" x="165.457269" y="293.324531" style="fill: #1f77b4; stroke: #1f77b4"/>
     <use xlink:href="#ma131fed9f3" x="169.56682" y="294.809262" style="fill: #1f77b4; stroke: #1f77b4"/>
     <use xlink:href="#ma131fed9f3" x="173.676371" y="296.334268" style="fill: #1f77b4; stroke: #1f77b4"/>
     <use xlink:href="#ma131fed9f3" x="177.785922" y="297.90283" style="fill: #1f77b4; stroke: #1f77b4"/>
     <use xlink:href="#ma131fed9f3" x="181.895474" y="299.512023" style="fill: #1f77b4; stroke: #1f77b4"/>
     <use xlink:href="#ma131fed9f3" x="186.005025" y="301.186386" style="fill: #1f77b4; stroke: #1f77b4"/>
     <use xlink:href="#ma131fed9f3" x="190.114576" y="192.860335" style="fill: #1f77b4; stroke: #1f77b4"/>
     <use xlink:href="#ma131fed9f3" x="194.224127" y="194.709586" style="fill: #1f77b4; stroke: #1f77b4"/>
     <use xlink:href="#ma131fed9f3" x="198.333678" y="196.664815" style="fill: #1f77b4; stroke: #1f77b4"/>
     <use xlink:href="#ma131fed9f3" x="202.44323" y="198.770764" style="fill: #1f77b4; stroke: #1f77b4"/>
     <use xlink:href="#ma131fed9f3" x="206.552781" y="201.046491" style="fill: #1f77b4; stroke: #1f77b4"/>
     <use xlink:href="#ma131fed9f3" x="210.662332" y="203.525934" style="fill: #1f77b4; stroke: #1f77b4"/>
     <use xlink:href="#ma131fed9f3" x="214.771883" y="206.196107" style="fill: #1f77b4; stroke: #1f77b4"/>
     <use xlink:href="#ma131fed9f3" x="218.881434" y="208.909343" style="fill: #1f77b4; stroke: #1f77b4"/>
     <use xlink:href="#ma131fed9f3" x="222.990986" y="211.002554" style="fill: #1f77b4; stroke: #1f77b4"/>
     <use xlink:href="#ma131fed9f3" x="227.100537" y="208.207965" style="fill: #1f77b4; stroke: #1f77b4"/>
     <use xlink:href="#ma131fed9f3" x="231.210088" y="296.711359" style="fill: #1f77b4; stroke: #1f77b4"/>
     <use xlink:href="#ma131fed9f3" x="235.319639" y="292.434863" style="fill: #1f77b4; stroke: #1f77b4"/>
     <use xlink:href="#ma131fed9f3" x="239.429191" y="294.67975" style="fill: #1f77b4; stroke: #1f77b4"/>
     <use xlink:href="#ma131fed9f3" x="243.538742" y="297.784996" style="fill: #1f77b4; stroke: #1f77b4"/>
     <use xlink:href="#ma131fed9f3" x="247.648293" y="300.842732" style="fill: #1f77b4; stroke: #1f77b4"/>
     <use xlink:href="#ma131fed9f3" x="251.757844" y="193.566054" style="fill: #1f77b4; stroke: #1f77b4"/>
     <use xlink:href="#ma131fed9f3" x="255.867395" y="196.102884" style="fill: #1f77b4; stroke: #1f77b4"/>
     <use xlink:href="#ma131fed9f3" x="259.976947" y="198.391558" style="fill: #1f77b4; stroke: #1f77b4"/>
     <use xlink:href="#ma131fed9f3" x="264.086498" y="200.490766" style="fill: #1f77b4; stroke: #1f77b4"/>
     <use xlink:href="#ma131fed9f3" x="268.196049" y="202.444817" style="fill: #1f77b4; stroke: #1f77b4"/>
     <use xlink:href="#ma131fed9f3" x="272.3056" y="204.290862" style="fill: #1f77b4; stroke: #1f77b4"/>
     <use xlink:href="#ma131fed9f3" x="276.415151" y="206.042394" style="fill: #1f77b4; stroke: #1f77b4"/>
     <use xlink:href="#ma131fed9f3" x="280.524703" y="207.724738" style="fill: #1f77b4; stroke: #1f77b4"/>
     <use xlink:href="#ma131fed9f3" x="284.634254" y="209.346949" style="fill: #1f77b4; stroke: #1f77b4"/>
     <use xlink:href="#ma131fed9f3" x="288.743805" y="210.913401" style="fill: #1f77b4; stroke: #1f77b4"/>
     <use xlink:href="#ma131fed9f3" x="292.853356" y="212.44571" style="fill: #1f77b4; stroke: #1f77b4"/>
     <use xlink:href="#ma131fed9f3" x="296.962907" y="213.932772" style="fill: #1f77b4; stroke: #1f77b4"/>
     <use xlink:href="#ma131fed9f3" x="301.072459" y="215.397705" style="fill: #1f77b4; stroke: #1f77b4"/>
     <use xlink:href="#ma131fed9f3" x="305.18201" y="216.841229" style="fill: #1f77b4; stroke: #1f77b4"/>
     <use xlink:href="#ma131fed9f3" x="309.291561" y="218.256475" style="fill: #1f77b4; stroke: #1f77b4"/>
     <use xlink:href="#ma131fed9f3" x="313.401112" y="219.652084" style="fill: #1f77b4; stroke: #1f77b4"/>
     <use xlink:href="#ma131fed9f3" x="317.510663" y="221.033624" style="fill: #1f77b4; stroke: #1f77b4"/>
     <use xlink:href="#ma131fed9f3" x="321.620215" y="222.406157" style="fill: #1f77b4; stroke: #1f77b4"/>
     <use xlink:href="#ma131fed9f3" x="325.729766" y="223.761377" style="fill: #1f77b4; stroke: #1f77b4"/>
     <use xlink:href="#ma131fed9f3" x="329.839317" y="225.111388" style="fill: #1f77b4; stroke: #1f77b4"/>
     <use xlink:href="#ma131fed9f3" x="333.948868" y="226.444737" style="fill: #1f77b4; stroke: #1f77b4"/>
     <use xlink:href="#ma131fed9f3" x="338.05842" y="227.773325" style="fill: #1f77b4; stroke: #1f77b4"/>
     <use xlink:href="#ma131fed9f3" x="342.167971" y="229.099124" style="fill: #1f77b4; stroke: #1f77b4"/>
     <use xlink:href="#ma131fed9f3" x="346.277522" y="230.416036" style="fill: #1f77b4; stroke: #1f77b4"/>
     <use xlink:href="#ma131fed9f3" x="350.387073" y="231.730664" style="fill: #1f77b4; stroke: #1f77b4"/>
     <use xlink:href="#ma131fed9f3" x="354.496624" y="233.036091" style="fill: #1f77b4; stroke: #1f77b4"/>
     <use xlink:href="#ma131fed9f3" x="358.606176" y="234.337352" style="fill: #1f77b4; stroke: #1f77b4"/>
     <use xlink:href="#ma131fed9f3" x="362.715727" y="235.631867" style="fill: #1f77b4; stroke: #1f77b4"/>
     <use xlink:href="#ma131fed9f3" x="366.825278" y="236.922294" style="fill: #1f77b4; stroke: #1f77b4"/>
     <use xlink:href="#ma131fed9f3" x="370.934829" y="238.20714" style="fill: #1f77b4; stroke: #1f77b4"/>
     <use xlink:href="#ma131fed9f3" x="375.04438" y="239.487127" style="fill: #1f77b4; stroke: #1f77b4"/>
     <use xlink:href="#ma131fed9f3" x="379.153932" y="240.765423" style="fill: #1f77b4; stroke: #1f77b4"/>
     <use xlink:href="#ma131fed9f3" x="383.263483" y="242.043104" style="fill: #1f77b4; stroke: #1f77b4"/>
     <use xlink:href="#ma131fed9f3" x="387.373034" y="243.318488" style="fill: #1f77b4; stroke: #1f77b4"/>
     <use xlink:href="#ma131fed9f3" x="391.482585" y="244.587531" style="fill: #1f77b4; stroke: #1f77b4"/>
    </g>
   </g>
   <g id="line2d_36">
    <path d="M 66.82804 261.471353 
L 104.850644 273.275067 
L 131.173986 281.665236 
L 150.347778 287.999701 
L 164.646877 292.948154 
L 175.696181 296.997544 
L 184.470628 300.440401 
L 189.020341 302.34176 
L 189.345321 192.410182 
L 195.844911 195.334228 
L 201.369563 198.069518 
L 205.919276 200.556551 
L 210.14401 203.106734 
L 214.368744 205.919148 
L 222.493232 211.463542 
L 223.79315 212.000913 
L 224.768089 212.140439 
L 225.418048 212.022241 
L 226.068007 211.641673 
L 226.717966 210.866067 
L 227.367925 209.483661 
L 228.017884 207.17265 
L 228.667843 203.552096 
L 229.642782 195.807812 
L 229.967761 193.126205 
L 230.292741 300.765702 
L 230.9427 296.971075 
L 231.592659 294.531318 
L 232.242618 293.074688 
L 232.892577 292.26498 
L 233.542536 291.877375 
L 234.192495 291.770581 
L 234.842454 291.855269 
L 235.817393 292.219881 
L 237.117311 292.976101 
L 239.067188 294.398871 
L 249.141553 302.149667 
L 249.466533 302.373818 
L 249.791512 192.524797 
L 253.691267 195.044441 
L 257.916 197.504176 
L 262.790693 200.06635 
L 268.315345 202.701812 
L 274.814936 205.539777 
L 282.614444 208.685342 
L 292.038851 212.232851 
L 303.738113 216.387573 
L 318.687172 221.447235 
L 338.185943 227.797827 
L 364.184305 236.018623 
L 391.482585 244.48125 
L 391.482585 244.48125 
" clip-path="url(#pd19784b160)" style="fill: none; stroke: #d62728; stroke-width: 1.5; stroke-linecap: square"/>
   </g>
   <g id="patch_10">
    <path d="M 50.595313 307.872 
L 50.595313 186.912 
" style="fill: none; stroke: #000000; stroke-width: 0.8; stroke-linejoin: miter; stroke-linecap: square"/>
   </g>
   <g id="patch_11">
    <path d="M 407.715312 307.872 
L 407.715312 186.912 
" style="fill: none; stroke: #000000; stroke-width: 0.8; stroke-linejoin: miter; stroke-linecap: square"/>
   </g>
   <g id="patch_12">
    <path d="M 50.595313 307.872 
L 407.715313 307.872 
" style="fill: none; stroke: #000000; stroke-width: 0.8; stroke-linejoin: miter; stroke-linecap: square"/>
   </g>
   <g id="patch_13">
    <path d="M 50.595313 186.912 
L 407.715313 186.912 
" style="fill: none; stroke: #000000; stroke-width: 0.8; stroke-linejoin: miter; stroke-linecap: square"/>
   </g>
  </g>
  <g id="text_25">
   <!-- S21 Resonator spectroscopy q00 -->
   <g transform="translate(124.6925 16.318125) scale(0.12 -0.12)">
    <defs>
     <path id="DejaVuSans-73" d="M 2834 3397 
L 2834 2853 
Q 2591 2978 2328 3040 
Q 2066 3103 1784 3103 
Q 1356 3103 1142 2972 
Q 928 2841 928 2578 
Q 928 2378 1081 2264 
Q 1234 2150 1697 2047 
L 1894 2003 
Q 2506 1872 2764 1633 
Q 3022 1394 3022 966 
Q 3022 478 2636 193 
Q 2250 -91 1575 -91 
Q 1294 -91 989 -36 
Q 684 19 347 128 
L 347 722 
Q 666 556 975 473 
Q 1284 391 1588 391 
Q 1994 391 2212 530 
Q 2431 669 2431 922 
Q 2431 1156 2273 1281 
Q 2116 1406 1581 1522 
L 1381 1569 
Q 847 1681 609 1914 
Q 372 2147 372 2553 
Q 372 3047 722 3315 
Q 1072 3584 1716 3584 
Q 2034 3584 2315 3537 
Q 2597 3491 2834 3397 
z
" transform="scale(0.015625)"/>
    </defs>
    <use xlink:href="#DejaVuSans-53"/>
    <use xlink:href="#DejaVuSans-32" x="63.476562"/>
    <use xlink:href="#DejaVuSans-31" x="127.099609"/>
    <use xlink:href="#DejaVuSans-20" x="190.722656"/>
    <use xlink:href="#DejaVuSans-52" x="222.509766"/>
    <use xlink:href="#DejaVuSans-65" x="287.492188"/>
    <use xlink:href="#DejaVuSans-73" x="349.015625"/>
    <use xlink:href="#DejaVuSans-6f" x="401.115234"/>
    <use xlink:href="#DejaVuSans-6e" x="462.296875"/>
    <use xlink:href="#DejaVuSans-61" x="525.675781"/>
    <use xlink:href="#DejaVuSans-74" x="586.955078"/>
    <use xlink:href="#DejaVuSans-6f" x="626.164062"/>
    <use xlink:href="#DejaVuSans-72" x="687.345703"/>
    <use xlink:href="#DejaVuSans-20" x="728.458984"/>
    <use xlink:href="#DejaVuSans-73" x="760.246094"/>
    <use xlink:href="#DejaVuSans-70" x="812.345703"/>
    <use xlink:href="#DejaVuSans-65" x="875.822266"/>
    <use xlink:href="#DejaVuSans-63" x="937.345703"/>
    <use xlink:href="#DejaVuSans-74" x="992.326172"/>
    <use xlink:href="#DejaVuSans-72" x="1031.535156"/>
    <use xlink:href="#DejaVuSans-6f" x="1070.398438"/>
    <use xlink:href="#DejaVuSans-73" x="1131.580078"/>
    <use xlink:href="#DejaVuSans-63" x="1183.679688"/>
    <use xlink:href="#DejaVuSans-6f" x="1238.660156"/>
    <use xlink:href="#DejaVuSans-70" x="1299.841797"/>
    <use xlink:href="#DejaVuSans-79" x="1363.318359"/>
    <use xlink:href="#DejaVuSans-20" x="1422.498047"/>
    <use xlink:href="#DejaVuSans-71" x="1454.285156"/>
    <use xlink:href="#DejaVuSans-30" x="1517.761719"/>
    <use xlink:href="#DejaVuSans-30" x="1581.384766"/>
   </g>
   <!-- tuid: 20241114-104014-106-2bdf28 -->
   <g transform="translate(115.262188 29.7555) scale(0.12 -0.12)">
    <defs>
     <path id="DejaVuSans-62" d="M 3116 1747 
Q 3116 2381 2855 2742 
Q 2594 3103 2138 3103 
Q 1681 3103 1420 2742 
Q 1159 2381 1159 1747 
Q 1159 1113 1420 752 
Q 1681 391 2138 391 
Q 2594 391 2855 752 
Q 3116 1113 3116 1747 
z
M 1159 2969 
Q 1341 3281 1617 3432 
Q 1894 3584 2278 3584 
Q 2916 3584 3314 3078 
Q 3713 2572 3713 1747 
Q 3713 922 3314 415 
Q 2916 -91 2278 -91 
Q 1894 -91 1617 61 
Q 1341 213 1159 525 
L 1159 0 
L 581 0 
L 581 4863 
L 1159 4863 
L 1159 2969 
z
" transform="scale(0.015625)"/>
    </defs>
    <use xlink:href="#DejaVuSans-74"/>
    <use xlink:href="#DejaVuSans-75" x="39.208984"/>
    <use xlink:href="#DejaVuSans-69" x="102.587891"/>
    <use xlink:href="#DejaVuSans-64" x="130.371094"/>
    <use xlink:href="#DejaVuSans-3a" x="193.847656"/>
    <use xlink:href="#DejaVuSans-20" x="227.539062"/>
    <use xlink:href="#DejaVuSans-32" x="259.326172"/>
    <use xlink:href="#DejaVuSans-30" x="322.949219"/>
    <use xlink:href="#DejaVuSans-32" x="386.572266"/>
    <use xlink:href="#DejaVuSans-34" x="450.195312"/>
    <use xlink:href="#DejaVuSans-31" x="513.818359"/>
    <use xlink:href="#DejaVuSans-31" x="577.441406"/>
    <use xlink:href="#DejaVuSans-31" x="641.064453"/>
    <use xlink:href="#DejaVuSans-34" x="704.6875"/>
    <use xlink:href="#DejaVuSans-2d" x="768.310547"/>
    <use xlink:href="#DejaVuSans-31" x="804.394531"/>
    <use xlink:href="#DejaVuSans-30" x="868.017578"/>
    <use xlink:href="#DejaVuSans-34" x="931.640625"/>
    <use xlink:href="#DejaVuSans-30" x="995.263672"/>
    <use xlink:href="#DejaVuSans-31" x="1058.886719"/>
    <use xlink:href="#DejaVuSans-34" x="1122.509766"/>
    <use xlink:href="#DejaVuSans-2d" x="1186.132812"/>
    <use xlink:href="#DejaVuSans-31" x="1222.216797"/>
    <use xlink:href="#DejaVuSans-30" x="1285.839844"/>
    <use xlink:href="#DejaVuSans-36" x="1349.462891"/>
    <use xlink:href="#DejaVuSans-2d" x="1413.085938"/>
    <use xlink:href="#DejaVuSans-32" x="1449.169922"/>
    <use xlink:href="#DejaVuSans-62" x="1512.792969"/>
    <use xlink:href="#DejaVuSans-64" x="1576.269531"/>
    <use xlink:href="#DejaVuSans-66" x="1639.746094"/>
    <use xlink:href="#DejaVuSans-32" x="1674.951172"/>
    <use xlink:href="#DejaVuSans-38" x="1738.574219"/>
   </g>
  </g>
 </g>
 <defs>
  <clipPath id="pd8aa9c0365">
   <rect x="50.595313" y="41.76" width="357.12" height="120.96"/>
  </clipPath>
  <clipPath id="pd19784b160">
   <rect x="50.595313" y="186.912" width="357.12" height="120.96"/>
  </clipPath>
 </defs>
</svg>
