<?xml version="1.0" encoding="utf-8" standalone="no"?>
<!DOCTYPE svg PUBLIC "-//W3C//DTD SVG 1.1//EN"
  "http://www.w3.org/Graphics/SVG/1.1/DTD/svg11.dtd">
<svg xmlns:xlink="http://www.w3.org/1999/xlink" width="574.565062pt" height="345.42825pt" viewBox="0 0 574.565062 345.42825" xmlns="http://www.w3.org/2000/svg" version="1.1">
 <metadata>
  <rdf:RDF xmlns:dc="http://purl.org/dc/elements/1.1/" xmlns:cc="http://creativecommons.org/ns#" xmlns:rdf="http://www.w3.org/1999/02/22-rdf-syntax-ns#">
   <cc:Work>
    <dc:type rdf:resource="http://purl.org/dc/dcmitype/StillImage"/>
    <dc:date>2024-11-14T10:40:22.263450</dc:date>
    <dc:format>image/svg+xml</dc:format>
    <dc:creator>
     <cc:Agent>
      <dc:title>Matplotlib v3.8.0, https://matplotlib.org/</dc:title>
     </cc:Agent>
    </dc:creator>
   </cc:Work>
  </rdf:RDF>
 </metadata>
 <defs>
  <style type="text/css">*{stroke-linejoin: round; stroke-linecap: butt}</style>
 </defs>
 <g id="figure_1">
  <g id="patch_1">
   <path d="M 0 345.42825 
L 574.565062 345.42825 
L 574.565062 -0 
L 0 -0 
L 0 345.42825 
z
" style="fill: none; opacity: 0"/>
  </g>
  <g id="axes_1">
   <g id="patch_2">
    <path d="M 47.389063 307.872 
L 404.509063 307.872 
L 404.509063 41.76 
L 47.389063 41.76 
z
" style="fill: #ffffff"/>
   </g>
   <g id="matplotlib.axis_1">
    <g id="xtick_1">
     <g id="line2d_1">
      <defs>
       <path id="m8eccc16a7f" d="M 0 0 
L 0 3.5 
" style="stroke: #000000; stroke-width: 0.8"/>
      </defs>
      <g>
       <use xlink:href="#m8eccc16a7f" x="54.434235" y="307.872" style="stroke: #000000; stroke-width: 0.8"/>
      </g>
     </g>
     <g id="text_1">
      <!-- -0.6 -->
      <g transform="translate(44.678766 322.470438) scale(0.1 -0.1)">
       <defs>
        <path id="DejaVuSans-2d" d="M 313 2009 
L 1997 2009 
L 1997 1497 
L 313 1497 
L 313 2009 
z
" transform="scale(0.015625)"/>
        <path id="DejaVuSans-30" d="M 2034 4250 
Q 1547 4250 1301 3770 
Q 1056 3291 1056 2328 
Q 1056 1369 1301 889 
Q 1547 409 2034 409 
Q 2525 409 2770 889 
Q 3016 1369 3016 2328 
Q 3016 3291 2770 3770 
Q 2525 4250 2034 4250 
z
M 2034 4750 
Q 2819 4750 3233 4129 
Q 3647 3509 3647 2328 
Q 3647 1150 3233 529 
Q 2819 -91 2034 -91 
Q 1250 -91 836 529 
Q 422 1150 422 2328 
Q 422 3509 836 4129 
Q 1250 4750 2034 4750 
z
" transform="scale(0.015625)"/>
        <path id="DejaVuSans-2e" d="M 684 794 
L 1344 794 
L 1344 0 
L 684 0 
L 684 794 
z
" transform="scale(0.015625)"/>
        <path id="DejaVuSans-36" d="M 2113 2584 
Q 1688 2584 1439 2293 
Q 1191 2003 1191 1497 
Q 1191 994 1439 701 
Q 1688 409 2113 409 
Q 2538 409 2786 701 
Q 3034 994 3034 1497 
Q 3034 2003 2786 2293 
Q 2538 2584 2113 2584 
z
M 3366 4563 
L 3366 3988 
Q 3128 4100 2886 4159 
Q 2644 4219 2406 4219 
Q 1781 4219 1451 3797 
Q 1122 3375 1075 2522 
Q 1259 2794 1537 2939 
Q 1816 3084 2150 3084 
Q 2853 3084 3261 2657 
Q 3669 2231 3669 1497 
Q 3669 778 3244 343 
Q 2819 -91 2113 -91 
Q 1303 -91 875 529 
Q 447 1150 447 2328 
Q 447 3434 972 4092 
Q 1497 4750 2381 4750 
Q 2619 4750 2861 4703 
Q 3103 4656 3366 4563 
z
" transform="scale(0.015625)"/>
       </defs>
       <use xlink:href="#DejaVuSans-2d"/>
       <use xlink:href="#DejaVuSans-30" x="36.083984"/>
       <use xlink:href="#DejaVuSans-2e" x="99.707031"/>
       <use xlink:href="#DejaVuSans-36" x="131.494141"/>
      </g>
     </g>
    </g>
    <g id="xtick_2">
     <g id="line2d_2">
      <g>
       <use xlink:href="#m8eccc16a7f" x="109.175675" y="307.872" style="stroke: #000000; stroke-width: 0.8"/>
      </g>
     </g>
     <g id="text_2">
      <!-- -0.4 -->
      <g transform="translate(99.420206 322.470438) scale(0.1 -0.1)">
       <defs>
        <path id="DejaVuSans-34" d="M 2419 4116 
L 825 1625 
L 2419 1625 
L 2419 4116 
z
M 2253 4666 
L 3047 4666 
L 3047 1625 
L 3713 1625 
L 3713 1100 
L 3047 1100 
L 3047 0 
L 2419 0 
L 2419 1100 
L 313 1100 
L 313 1709 
L 2253 4666 
z
" transform="scale(0.015625)"/>
       </defs>
       <use xlink:href="#DejaVuSans-2d"/>
       <use xlink:href="#DejaVuSans-30" x="36.083984"/>
       <use xlink:href="#DejaVuSans-2e" x="99.707031"/>
       <use xlink:href="#DejaVuSans-34" x="131.494141"/>
      </g>
     </g>
    </g>
    <g id="xtick_3">
     <g id="line2d_3">
      <g>
       <use xlink:href="#m8eccc16a7f" x="163.917115" y="307.872" style="stroke: #000000; stroke-width: 0.8"/>
      </g>
     </g>
     <g id="text_3">
      <!-- -0.2 -->
      <g transform="translate(154.161646 322.470438) scale(0.1 -0.1)">
       <defs>
        <path id="DejaVuSans-32" d="M 1228 531 
L 3431 531 
L 3431 0 
L 469 0 
L 469 531 
Q 828 903 1448 1529 
Q 2069 2156 2228 2338 
Q 2531 2678 2651 2914 
Q 2772 3150 2772 3378 
Q 2772 3750 2511 3984 
Q 2250 4219 1831 4219 
Q 1534 4219 1204 4116 
Q 875 4013 500 3803 
L 500 4441 
Q 881 4594 1212 4672 
Q 1544 4750 1819 4750 
Q 2544 4750 2975 4387 
Q 3406 4025 3406 3419 
Q 3406 3131 3298 2873 
Q 3191 2616 2906 2266 
Q 2828 2175 2409 1742 
Q 1991 1309 1228 531 
z
" transform="scale(0.015625)"/>
       </defs>
       <use xlink:href="#DejaVuSans-2d"/>
       <use xlink:href="#DejaVuSans-30" x="36.083984"/>
       <use xlink:href="#DejaVuSans-2e" x="99.707031"/>
       <use xlink:href="#DejaVuSans-32" x="131.494141"/>
      </g>
     </g>
    </g>
    <g id="xtick_4">
     <g id="line2d_4">
      <g>
       <use xlink:href="#m8eccc16a7f" x="218.658555" y="307.872" style="stroke: #000000; stroke-width: 0.8"/>
      </g>
     </g>
     <g id="text_4">
      <!-- 0 -->
      <g transform="translate(215.477305 322.470438) scale(0.1 -0.1)">
       <use xlink:href="#DejaVuSans-30"/>
      </g>
     </g>
    </g>
    <g id="xtick_5">
     <g id="line2d_5">
      <g>
       <use xlink:href="#m8eccc16a7f" x="273.399995" y="307.872" style="stroke: #000000; stroke-width: 0.8"/>
      </g>
     </g>
     <g id="text_5">
      <!-- 0.2 -->
      <g transform="translate(265.448433 322.470438) scale(0.1 -0.1)">
       <use xlink:href="#DejaVuSans-30"/>
       <use xlink:href="#DejaVuSans-2e" x="63.623047"/>
       <use xlink:href="#DejaVuSans-32" x="95.410156"/>
      </g>
     </g>
    </g>
    <g id="xtick_6">
     <g id="line2d_6">
      <g>
       <use xlink:href="#m8eccc16a7f" x="328.141435" y="307.872" style="stroke: #000000; stroke-width: 0.8"/>
      </g>
     </g>
     <g id="text_6">
      <!-- 0.4 -->
      <g transform="translate(320.189873 322.470438) scale(0.1 -0.1)">
       <use xlink:href="#DejaVuSans-30"/>
       <use xlink:href="#DejaVuSans-2e" x="63.623047"/>
       <use xlink:href="#DejaVuSans-34" x="95.410156"/>
      </g>
     </g>
    </g>
    <g id="xtick_7">
     <g id="line2d_7">
      <g>
       <use xlink:href="#m8eccc16a7f" x="382.882875" y="307.872" style="stroke: #000000; stroke-width: 0.8"/>
      </g>
     </g>
     <g id="text_7">
      <!-- 0.6 -->
      <g transform="translate(374.931313 322.470438) scale(0.1 -0.1)">
       <use xlink:href="#DejaVuSans-30"/>
       <use xlink:href="#DejaVuSans-2e" x="63.623047"/>
       <use xlink:href="#DejaVuSans-36" x="95.410156"/>
      </g>
     </g>
    </g>
    <g id="text_8">
     <!-- Re$(S_{21})$ [V] -->
     <g transform="translate(198.799063 336.148562) scale(0.1 -0.1)">
      <defs>
       <path id="DejaVuSans-52" d="M 2841 2188 
Q 3044 2119 3236 1894 
Q 3428 1669 3622 1275 
L 4263 0 
L 3584 0 
L 2988 1197 
Q 2756 1666 2539 1819 
Q 2322 1972 1947 1972 
L 1259 1972 
L 1259 0 
L 628 0 
L 628 4666 
L 2053 4666 
Q 2853 4666 3247 4331 
Q 3641 3997 3641 3322 
Q 3641 2881 3436 2590 
Q 3231 2300 2841 2188 
z
M 1259 4147 
L 1259 2491 
L 2053 2491 
Q 2509 2491 2742 2702 
Q 2975 2913 2975 3322 
Q 2975 3731 2742 3939 
Q 2509 4147 2053 4147 
L 1259 4147 
z
" transform="scale(0.015625)"/>
       <path id="DejaVuSans-65" d="M 3597 1894 
L 3597 1613 
L 953 1613 
Q 991 1019 1311 708 
Q 1631 397 2203 397 
Q 2534 397 2845 478 
Q 3156 559 3463 722 
L 3463 178 
Q 3153 47 2828 -22 
Q 2503 -91 2169 -91 
Q 1331 -91 842 396 
Q 353 884 353 1716 
Q 353 2575 817 3079 
Q 1281 3584 2069 3584 
Q 2775 3584 3186 3129 
Q 3597 2675 3597 1894 
z
M 3022 2063 
Q 3016 2534 2758 2815 
Q 2500 3097 2075 3097 
Q 1594 3097 1305 2825 
Q 1016 2553 972 2059 
L 3022 2063 
z
" transform="scale(0.015625)"/>
       <path id="DejaVuSans-28" d="M 1984 4856 
Q 1566 4138 1362 3434 
Q 1159 2731 1159 2009 
Q 1159 1288 1364 580 
Q 1569 -128 1984 -844 
L 1484 -844 
Q 1016 -109 783 600 
Q 550 1309 550 2009 
Q 550 2706 781 3412 
Q 1013 4119 1484 4856 
L 1984 4856 
z
" transform="scale(0.015625)"/>
       <path id="DejaVuSans-Oblique-53" d="M 3859 4513 
L 3738 3897 
Q 3422 4066 3111 4152 
Q 2800 4238 2509 4238 
Q 1944 4238 1609 3991 
Q 1275 3744 1275 3334 
Q 1275 3109 1398 2989 
Q 1522 2869 2034 2731 
L 2413 2638 
Q 3053 2472 3303 2217 
Q 3553 1963 3553 1503 
Q 3553 797 2998 353 
Q 2444 -91 1538 -91 
Q 1166 -91 791 -17 
Q 416 56 38 206 
L 166 856 
Q 513 641 861 531 
Q 1209 422 1556 422 
Q 2147 422 2503 684 
Q 2859 947 2859 1369 
Q 2859 1650 2717 1795 
Q 2575 1941 2106 2059 
L 1728 2156 
Q 1081 2325 845 2545 
Q 609 2766 609 3163 
Q 609 3859 1145 4304 
Q 1681 4750 2541 4750 
Q 2875 4750 3203 4690 
Q 3531 4631 3859 4513 
z
" transform="scale(0.015625)"/>
       <path id="DejaVuSans-31" d="M 794 531 
L 1825 531 
L 1825 4091 
L 703 3866 
L 703 4441 
L 1819 4666 
L 2450 4666 
L 2450 531 
L 3481 531 
L 3481 0 
L 794 0 
L 794 531 
z
" transform="scale(0.015625)"/>
       <path id="DejaVuSans-29" d="M 513 4856 
L 1013 4856 
Q 1481 4119 1714 3412 
Q 1947 2706 1947 2009 
Q 1947 1309 1714 600 
Q 1481 -109 1013 -844 
L 513 -844 
Q 928 -128 1133 580 
Q 1338 1288 1338 2009 
Q 1338 2731 1133 3434 
Q 928 4138 513 4856 
z
" transform="scale(0.015625)"/>
       <path id="DejaVuSans-20" transform="scale(0.015625)"/>
       <path id="DejaVuSans-5b" d="M 550 4863 
L 1875 4863 
L 1875 4416 
L 1125 4416 
L 1125 -397 
L 1875 -397 
L 1875 -844 
L 550 -844 
L 550 4863 
z
" transform="scale(0.015625)"/>
       <path id="DejaVuSans-56" d="M 1831 0 
L 50 4666 
L 709 4666 
L 2188 738 
L 3669 4666 
L 4325 4666 
L 2547 0 
L 1831 0 
z
" transform="scale(0.015625)"/>
       <path id="DejaVuSans-5d" d="M 1947 4863 
L 1947 -844 
L 622 -844 
L 622 -397 
L 1369 -397 
L 1369 4416 
L 622 4416 
L 622 4863 
L 1947 4863 
z
" transform="scale(0.015625)"/>
      </defs>
      <use xlink:href="#DejaVuSans-52" transform="translate(0 0.015625)"/>
      <use xlink:href="#DejaVuSans-65" transform="translate(69.482422 0.015625)"/>
      <use xlink:href="#DejaVuSans-28" transform="translate(131.005859 0.015625)"/>
      <use xlink:href="#DejaVuSans-Oblique-53" transform="translate(170.019531 0.015625)"/>
      <use xlink:href="#DejaVuSans-32" transform="translate(233.496094 -16.390625) scale(0.7)"/>
      <use xlink:href="#DejaVuSans-31" transform="translate(278.032227 -16.390625) scale(0.7)"/>
      <use xlink:href="#DejaVuSans-29" transform="translate(325.302734 0.015625)"/>
      <use xlink:href="#DejaVuSans-20" transform="translate(364.316406 0.015625)"/>
      <use xlink:href="#DejaVuSans-5b" transform="translate(396.103516 0.015625)"/>
      <use xlink:href="#DejaVuSans-56" transform="translate(435.117188 0.015625)"/>
      <use xlink:href="#DejaVuSans-5d" transform="translate(503.525391 0.015625)"/>
     </g>
    </g>
   </g>
   <g id="matplotlib.axis_2">
    <g id="ytick_1">
     <g id="line2d_8">
      <defs>
       <path id="m5fe32dad31" d="M 0 0 
L -3.5 0 
" style="stroke: #000000; stroke-width: 0.8"/>
      </defs>
      <g>
       <use xlink:href="#m5fe32dad31" x="47.389063" y="294.104235" style="stroke: #000000; stroke-width: 0.8"/>
      </g>
     </g>
     <g id="text_9">
      <!-- -0.6 -->
      <g transform="translate(20.878125 297.903454) scale(0.1 -0.1)">
       <use xlink:href="#DejaVuSans-2d"/>
       <use xlink:href="#DejaVuSans-30" x="36.083984"/>
       <use xlink:href="#DejaVuSans-2e" x="99.707031"/>
       <use xlink:href="#DejaVuSans-36" x="131.494141"/>
      </g>
     </g>
    </g>
    <g id="ytick_2">
     <g id="line2d_9">
      <g>
       <use xlink:href="#m5fe32dad31" x="47.389063" y="254.76761" style="stroke: #000000; stroke-width: 0.8"/>
      </g>
     </g>
     <g id="text_10">
      <!-- -0.4 -->
      <g transform="translate(20.878125 258.566829) scale(0.1 -0.1)">
       <use xlink:href="#DejaVuSans-2d"/>
       <use xlink:href="#DejaVuSans-30" x="36.083984"/>
       <use xlink:href="#DejaVuSans-2e" x="99.707031"/>
       <use xlink:href="#DejaVuSans-34" x="131.494141"/>
      </g>
     </g>
    </g>
    <g id="ytick_3">
     <g id="line2d_10">
      <g>
       <use xlink:href="#m5fe32dad31" x="47.389063" y="215.430985" style="stroke: #000000; stroke-width: 0.8"/>
      </g>
     </g>
     <g id="text_11">
      <!-- -0.2 -->
      <g transform="translate(20.878125 219.230204) scale(0.1 -0.1)">
       <use xlink:href="#DejaVuSans-2d"/>
       <use xlink:href="#DejaVuSans-30" x="36.083984"/>
       <use xlink:href="#DejaVuSans-2e" x="99.707031"/>
       <use xlink:href="#DejaVuSans-32" x="131.494141"/>
      </g>
     </g>
    </g>
    <g id="ytick_4">
     <g id="line2d_11">
      <g>
       <use xlink:href="#m5fe32dad31" x="47.389063" y="176.09436" style="stroke: #000000; stroke-width: 0.8"/>
      </g>
     </g>
     <g id="text_12">
      <!-- 0 -->
      <g transform="translate(34.026563 179.893579) scale(0.1 -0.1)">
       <use xlink:href="#DejaVuSans-30"/>
      </g>
     </g>
    </g>
    <g id="ytick_5">
     <g id="line2d_12">
      <g>
       <use xlink:href="#m5fe32dad31" x="47.389063" y="136.757735" style="stroke: #000000; stroke-width: 0.8"/>
      </g>
     </g>
     <g id="text_13">
      <!-- 0.2 -->
      <g transform="translate(24.485938 140.556954) scale(0.1 -0.1)">
       <use xlink:href="#DejaVuSans-30"/>
       <use xlink:href="#DejaVuSans-2e" x="63.623047"/>
       <use xlink:href="#DejaVuSans-32" x="95.410156"/>
      </g>
     </g>
    </g>
    <g id="ytick_6">
     <g id="line2d_13">
      <g>
       <use xlink:href="#m5fe32dad31" x="47.389063" y="97.42111" style="stroke: #000000; stroke-width: 0.8"/>
      </g>
     </g>
     <g id="text_14">
      <!-- 0.4 -->
      <g transform="translate(24.485938 101.220329) scale(0.1 -0.1)">
       <use xlink:href="#DejaVuSans-30"/>
       <use xlink:href="#DejaVuSans-2e" x="63.623047"/>
       <use xlink:href="#DejaVuSans-34" x="95.410156"/>
      </g>
     </g>
    </g>
    <g id="ytick_7">
     <g id="line2d_14">
      <g>
       <use xlink:href="#m5fe32dad31" x="47.389063" y="58.084485" style="stroke: #000000; stroke-width: 0.8"/>
      </g>
     </g>
     <g id="text_15">
      <!-- 0.6 -->
      <g transform="translate(24.485938 61.883704) scale(0.1 -0.1)">
       <use xlink:href="#DejaVuSans-30"/>
       <use xlink:href="#DejaVuSans-2e" x="63.623047"/>
       <use xlink:href="#DejaVuSans-36" x="95.410156"/>
      </g>
     </g>
    </g>
    <g id="text_16">
     <!-- Im$(S_{21})$ [V] -->
     <g transform="translate(14.798438 201.566) rotate(-90) scale(0.1 -0.1)">
      <defs>
       <path id="DejaVuSans-49" d="M 628 4666 
L 1259 4666 
L 1259 0 
L 628 0 
L 628 4666 
z
" transform="scale(0.015625)"/>
       <path id="DejaVuSans-6d" d="M 3328 2828 
Q 3544 3216 3844 3400 
Q 4144 3584 4550 3584 
Q 5097 3584 5394 3201 
Q 5691 2819 5691 2113 
L 5691 0 
L 5113 0 
L 5113 2094 
Q 5113 2597 4934 2840 
Q 4756 3084 4391 3084 
Q 3944 3084 3684 2787 
Q 3425 2491 3425 1978 
L 3425 0 
L 2847 0 
L 2847 2094 
Q 2847 2600 2669 2842 
Q 2491 3084 2119 3084 
Q 1678 3084 1418 2786 
Q 1159 2488 1159 1978 
L 1159 0 
L 581 0 
L 581 3500 
L 1159 3500 
L 1159 2956 
Q 1356 3278 1631 3431 
Q 1906 3584 2284 3584 
Q 2666 3584 2933 3390 
Q 3200 3197 3328 2828 
z
" transform="scale(0.015625)"/>
      </defs>
      <use xlink:href="#DejaVuSans-49" transform="translate(0 0.015625)"/>
      <use xlink:href="#DejaVuSans-6d" transform="translate(25.867188 0.015625)"/>
      <use xlink:href="#DejaVuSans-28" transform="translate(123.279297 0.015625)"/>
      <use xlink:href="#DejaVuSans-Oblique-53" transform="translate(162.292969 0.015625)"/>
      <use xlink:href="#DejaVuSans-32" transform="translate(225.769531 -16.390625) scale(0.7)"/>
      <use xlink:href="#DejaVuSans-31" transform="translate(270.305664 -16.390625) scale(0.7)"/>
      <use xlink:href="#DejaVuSans-29" transform="translate(317.576172 0.015625)"/>
      <use xlink:href="#DejaVuSans-20" transform="translate(356.589844 0.015625)"/>
      <use xlink:href="#DejaVuSans-5b" transform="translate(388.376953 0.015625)"/>
      <use xlink:href="#DejaVuSans-56" transform="translate(427.390625 0.015625)"/>
      <use xlink:href="#DejaVuSans-5d" transform="translate(495.798828 0.015625)"/>
     </g>
    </g>
   </g>
   <g id="line2d_15">
    <path d="M 334.692978 261.940238 
L 325.730784 267.74768 
L 316.165523 273.074712 
L 306.080414 277.867904 
L 295.514048 282.135574 
L 284.603476 285.831696 
L 273.276786 288.9481 
L 261.648497 291.469874 
L 249.772873 293.37451 
L 237.607696 294.646789 
L 225.330375 295.259928 
L 212.940881 295.200909 
L 200.605699 294.476314 
L 188.343874 293.071348 
L 176.153865 290.959777 
L 164.231753 288.188565 
L 152.589175 284.751904 
L 141.281345 280.638567 
L 130.407036 275.857857 
L 120.026047 270.4087 
L 110.201628 264.309032 
L 101.064973 257.612349 
L 92.678752 250.313658 
L 85.121903 242.427298 
L 78.471534 233.944086 
L 72.891543 224.963633 
L 68.432466 215.435594 
L 65.303072 205.402679 
L 63.62179 194.998352 
L 63.647093 184.184776 
L 65.582219 173.11112 
L 69.87379 161.825616 
L 76.812431 150.687212 
L 87.06508 140.014589 
L 101.103557 130.558094 
L 119.463482 123.471629 
L 141.922004 120.624809 
L 166.549792 124.473504 
L 188.710992 137.446985 
L 199.766085 158.873602 
L 192.627359 182.458768 
L 168.448451 199.326147 
L 137.404555 203.862704 
L 109.655492 197.491474 
L 89.885913 184.642953 
L 78.51343 169.296579 
L 73.79444 153.66628 
L 74.092063 139.01305 
L 77.893252 125.640261 
L 84.233057 113.601633 
L 92.476015 102.829943 
L 102.146238 93.337739 
L 112.908893 84.987299 
L 124.516157 77.756053 
L 136.719121 71.606027 
L 149.464611 66.433666 
L 162.475773 62.255329 
L 175.790367 58.97007 
L 189.283092 56.554654 
L 202.772985 55.009545 
L 216.229308 54.296047 
L 229.604445 54.375141 
L 242.86035 55.204566 
L 255.828109 56.785951 
L 268.551808 59.074646 
L 280.850129 62.029103 
L 292.752965 65.661447 
L 304.219569 69.929722 
L 315.13611 74.781427 
L 325.496874 80.208547 
L 335.207643 86.133845 
L 344.230383 92.561564 
L 352.530741 99.416417 
L 360.087392 106.671374 
L 366.846889 114.279899 
L 372.79881 122.194731 
L 377.912955 130.397226 
L 382.188175 138.843022 
L 385.577832 147.480295 
L 388.059784 156.232329 
" clip-path="url(#peb4e1d665a)" style="fill: none; stroke: #1f77b4; stroke-width: 1.5; stroke-linecap: square"/>
    <defs>
     <path id="m9fb88b5cc4" d="M 0 1.5 
C 0.397805 1.5 0.77937 1.341951 1.06066 1.06066 
C 1.341951 0.77937 1.5 0.397805 1.5 0 
C 1.5 -0.397805 1.341951 -0.77937 1.06066 -1.06066 
C 0.77937 -1.341951 0.397805 -1.5 0 -1.5 
C -0.397805 -1.5 -0.77937 -1.341951 -1.06066 -1.06066 
C -1.341951 -0.77937 -1.5 -0.397805 -1.5 0 
C -1.5 0.397805 -1.341951 0.77937 -1.06066 1.06066 
C -0.77937 1.341951 -0.397805 1.5 0 1.5 
z
" style="stroke: #1f77b4"/>
    </defs>
    <g clip-path="url(#peb4e1d665a)">
     <use xlink:href="#m9fb88b5cc4" x="334.692978" y="261.940238" style="fill: #1f77b4; stroke: #1f77b4"/>
     <use xlink:href="#m9fb88b5cc4" x="325.730784" y="267.74768" style="fill: #1f77b4; stroke: #1f77b4"/>
     <use xlink:href="#m9fb88b5cc4" x="316.165523" y="273.074712" style="fill: #1f77b4; stroke: #1f77b4"/>
     <use xlink:href="#m9fb88b5cc4" x="306.080414" y="277.867904" style="fill: #1f77b4; stroke: #1f77b4"/>
     <use xlink:href="#m9fb88b5cc4" x="295.514048" y="282.135574" style="fill: #1f77b4; stroke: #1f77b4"/>
     <use xlink:href="#m9fb88b5cc4" x="284.603476" y="285.831696" style="fill: #1f77b4; stroke: #1f77b4"/>
     <use xlink:href="#m9fb88b5cc4" x="273.276786" y="288.9481" style="fill: #1f77b4; stroke: #1f77b4"/>
     <use xlink:href="#m9fb88b5cc4" x="261.648497" y="291.469874" style="fill: #1f77b4; stroke: #1f77b4"/>
     <use xlink:href="#m9fb88b5cc4" x="249.772873" y="293.37451" style="fill: #1f77b4; stroke: #1f77b4"/>
     <use xlink:href="#m9fb88b5cc4" x="237.607696" y="294.646789" style="fill: #1f77b4; stroke: #1f77b4"/>
     <use xlink:href="#m9fb88b5cc4" x="225.330375" y="295.259928" style="fill: #1f77b4; stroke: #1f77b4"/>
     <use xlink:href="#m9fb88b5cc4" x="212.940881" y="295.200909" style="fill: #1f77b4; stroke: #1f77b4"/>
     <use xlink:href="#m9fb88b5cc4" x="200.605699" y="294.476314" style="fill: #1f77b4; stroke: #1f77b4"/>
     <use xlink:href="#m9fb88b5cc4" x="188.343874" y="293.071348" style="fill: #1f77b4; stroke: #1f77b4"/>
     <use xlink:href="#m9fb88b5cc4" x="176.153865" y="290.959777" style="fill: #1f77b4; stroke: #1f77b4"/>
     <use xlink:href="#m9fb88b5cc4" x="164.231753" y="288.188565" style="fill: #1f77b4; stroke: #1f77b4"/>
     <use xlink:href="#m9fb88b5cc4" x="152.589175" y="284.751904" style="fill: #1f77b4; stroke: #1f77b4"/>
     <use xlink:href="#m9fb88b5cc4" x="141.281345" y="280.638567" style="fill: #1f77b4; stroke: #1f77b4"/>
     <use xlink:href="#m9fb88b5cc4" x="130.407036" y="275.857857" style="fill: #1f77b4; stroke: #1f77b4"/>
     <use xlink:href="#m9fb88b5cc4" x="120.026047" y="270.4087" style="fill: #1f77b4; stroke: #1f77b4"/>
     <use xlink:href="#m9fb88b5cc4" x="110.201628" y="264.309032" style="fill: #1f77b4; stroke: #1f77b4"/>
     <use xlink:href="#m9fb88b5cc4" x="101.064973" y="257.612349" style="fill: #1f77b4; stroke: #1f77b4"/>
     <use xlink:href="#m9fb88b5cc4" x="92.678752" y="250.313658" style="fill: #1f77b4; stroke: #1f77b4"/>
     <use xlink:href="#m9fb88b5cc4" x="85.121903" y="242.427298" style="fill: #1f77b4; stroke: #1f77b4"/>
     <use xlink:href="#m9fb88b5cc4" x="78.471534" y="233.944086" style="fill: #1f77b4; stroke: #1f77b4"/>
     <use xlink:href="#m9fb88b5cc4" x="72.891543" y="224.963633" style="fill: #1f77b4; stroke: #1f77b4"/>
     <use xlink:href="#m9fb88b5cc4" x="68.432466" y="215.435594" style="fill: #1f77b4; stroke: #1f77b4"/>
     <use xlink:href="#m9fb88b5cc4" x="65.303072" y="205.402679" style="fill: #1f77b4; stroke: #1f77b4"/>
     <use xlink:href="#m9fb88b5cc4" x="63.62179" y="194.998352" style="fill: #1f77b4; stroke: #1f77b4"/>
     <use xlink:href="#m9fb88b5cc4" x="63.647093" y="184.184776" style="fill: #1f77b4; stroke: #1f77b4"/>
     <use xlink:href="#m9fb88b5cc4" x="65.582219" y="173.11112" style="fill: #1f77b4; stroke: #1f77b4"/>
     <use xlink:href="#m9fb88b5cc4" x="69.87379" y="161.825616" style="fill: #1f77b4; stroke: #1f77b4"/>
     <use xlink:href="#m9fb88b5cc4" x="76.812431" y="150.687212" style="fill: #1f77b4; stroke: #1f77b4"/>
     <use xlink:href="#m9fb88b5cc4" x="87.06508" y="140.014589" style="fill: #1f77b4; stroke: #1f77b4"/>
     <use xlink:href="#m9fb88b5cc4" x="101.103557" y="130.558094" style="fill: #1f77b4; stroke: #1f77b4"/>
     <use xlink:href="#m9fb88b5cc4" x="119.463482" y="123.471629" style="fill: #1f77b4; stroke: #1f77b4"/>
     <use xlink:href="#m9fb88b5cc4" x="141.922004" y="120.624809" style="fill: #1f77b4; stroke: #1f77b4"/>
     <use xlink:href="#m9fb88b5cc4" x="166.549792" y="124.473504" style="fill: #1f77b4; stroke: #1f77b4"/>
     <use xlink:href="#m9fb88b5cc4" x="188.710992" y="137.446985" style="fill: #1f77b4; stroke: #1f77b4"/>
     <use xlink:href="#m9fb88b5cc4" x="199.766085" y="158.873602" style="fill: #1f77b4; stroke: #1f77b4"/>
     <use xlink:href="#m9fb88b5cc4" x="192.627359" y="182.458768" style="fill: #1f77b4; stroke: #1f77b4"/>
     <use xlink:href="#m9fb88b5cc4" x="168.448451" y="199.326147" style="fill: #1f77b4; stroke: #1f77b4"/>
     <use xlink:href="#m9fb88b5cc4" x="137.404555" y="203.862704" style="fill: #1f77b4; stroke: #1f77b4"/>
     <use xlink:href="#m9fb88b5cc4" x="109.655492" y="197.491474" style="fill: #1f77b4; stroke: #1f77b4"/>
     <use xlink:href="#m9fb88b5cc4" x="89.885913" y="184.642953" style="fill: #1f77b4; stroke: #1f77b4"/>
     <use xlink:href="#m9fb88b5cc4" x="78.51343" y="169.296579" style="fill: #1f77b4; stroke: #1f77b4"/>
     <use xlink:href="#m9fb88b5cc4" x="73.79444" y="153.66628" style="fill: #1f77b4; stroke: #1f77b4"/>
     <use xlink:href="#m9fb88b5cc4" x="74.092063" y="139.01305" style="fill: #1f77b4; stroke: #1f77b4"/>
     <use xlink:href="#m9fb88b5cc4" x="77.893252" y="125.640261" style="fill: #1f77b4; stroke: #1f77b4"/>
     <use xlink:href="#m9fb88b5cc4" x="84.233057" y="113.601633" style="fill: #1f77b4; stroke: #1f77b4"/>
     <use xlink:href="#m9fb88b5cc4" x="92.476015" y="102.829943" style="fill: #1f77b4; stroke: #1f77b4"/>
     <use xlink:href="#m9fb88b5cc4" x="102.146238" y="93.337739" style="fill: #1f77b4; stroke: #1f77b4"/>
     <use xlink:href="#m9fb88b5cc4" x="112.908893" y="84.987299" style="fill: #1f77b4; stroke: #1f77b4"/>
     <use xlink:href="#m9fb88b5cc4" x="124.516157" y="77.756053" style="fill: #1f77b4; stroke: #1f77b4"/>
     <use xlink:href="#m9fb88b5cc4" x="136.719121" y="71.606027" style="fill: #1f77b4; stroke: #1f77b4"/>
     <use xlink:href="#m9fb88b5cc4" x="149.464611" y="66.433666" style="fill: #1f77b4; stroke: #1f77b4"/>
     <use xlink:href="#m9fb88b5cc4" x="162.475773" y="62.255329" style="fill: #1f77b4; stroke: #1f77b4"/>
     <use xlink:href="#m9fb88b5cc4" x="175.790367" y="58.97007" style="fill: #1f77b4; stroke: #1f77b4"/>
     <use xlink:href="#m9fb88b5cc4" x="189.283092" y="56.554654" style="fill: #1f77b4; stroke: #1f77b4"/>
     <use xlink:href="#m9fb88b5cc4" x="202.772985" y="55.009545" style="fill: #1f77b4; stroke: #1f77b4"/>
     <use xlink:href="#m9fb88b5cc4" x="216.229308" y="54.296047" style="fill: #1f77b4; stroke: #1f77b4"/>
     <use xlink:href="#m9fb88b5cc4" x="229.604445" y="54.375141" style="fill: #1f77b4; stroke: #1f77b4"/>
     <use xlink:href="#m9fb88b5cc4" x="242.86035" y="55.204566" style="fill: #1f77b4; stroke: #1f77b4"/>
     <use xlink:href="#m9fb88b5cc4" x="255.828109" y="56.785951" style="fill: #1f77b4; stroke: #1f77b4"/>
     <use xlink:href="#m9fb88b5cc4" x="268.551808" y="59.074646" style="fill: #1f77b4; stroke: #1f77b4"/>
     <use xlink:href="#m9fb88b5cc4" x="280.850129" y="62.029103" style="fill: #1f77b4; stroke: #1f77b4"/>
     <use xlink:href="#m9fb88b5cc4" x="292.752965" y="65.661447" style="fill: #1f77b4; stroke: #1f77b4"/>
     <use xlink:href="#m9fb88b5cc4" x="304.219569" y="69.929722" style="fill: #1f77b4; stroke: #1f77b4"/>
     <use xlink:href="#m9fb88b5cc4" x="315.13611" y="74.781427" style="fill: #1f77b4; stroke: #1f77b4"/>
     <use xlink:href="#m9fb88b5cc4" x="325.496874" y="80.208547" style="fill: #1f77b4; stroke: #1f77b4"/>
     <use xlink:href="#m9fb88b5cc4" x="335.207643" y="86.133845" style="fill: #1f77b4; stroke: #1f77b4"/>
     <use xlink:href="#m9fb88b5cc4" x="344.230383" y="92.561564" style="fill: #1f77b4; stroke: #1f77b4"/>
     <use xlink:href="#m9fb88b5cc4" x="352.530741" y="99.416417" style="fill: #1f77b4; stroke: #1f77b4"/>
     <use xlink:href="#m9fb88b5cc4" x="360.087392" y="106.671374" style="fill: #1f77b4; stroke: #1f77b4"/>
     <use xlink:href="#m9fb88b5cc4" x="366.846889" y="114.279899" style="fill: #1f77b4; stroke: #1f77b4"/>
     <use xlink:href="#m9fb88b5cc4" x="372.79881" y="122.194731" style="fill: #1f77b4; stroke: #1f77b4"/>
     <use xlink:href="#m9fb88b5cc4" x="377.912955" y="130.397226" style="fill: #1f77b4; stroke: #1f77b4"/>
     <use xlink:href="#m9fb88b5cc4" x="382.188175" y="138.843022" style="fill: #1f77b4; stroke: #1f77b4"/>
     <use xlink:href="#m9fb88b5cc4" x="385.577832" y="147.480295" style="fill: #1f77b4; stroke: #1f77b4"/>
     <use xlink:href="#m9fb88b5cc4" x="388.059784" y="156.232329" style="fill: #1f77b4; stroke: #1f77b4"/>
    </g>
   </g>
   <g id="line2d_16">
    <path d="M 335.139986 262.629744 
L 330.217863 265.885906 
L 325.113751 268.999627 
L 319.835269 271.965548 
L 314.390324 274.778502 
L 308.787112 277.433526 
L 303.0341 279.925862 
L 297.140017 282.250968 
L 291.113848 284.40452 
L 284.96482 286.382422 
L 278.702395 288.180804 
L 272.336253 289.796036 
L 265.876289 291.224723 
L 259.332598 292.463716 
L 252.715467 293.510111 
L 246.035362 294.361253 
L 239.30292 295.01474 
L 232.528939 295.468425 
L 225.72437 295.720413 
L 218.900304 295.769068 
L 212.067967 295.61301 
L 205.238713 295.251116 
L 198.424016 294.682519 
L 191.635461 293.906609 
L 184.884747 292.923028 
L 178.183676 291.731672 
L 171.544155 290.332686 
L 164.978196 288.72646 
L 158.49792 286.913631 
L 152.115556 284.895072 
L 145.843455 282.671894 
L 139.694096 280.245441 
L 133.680106 277.61728 
L 127.814274 274.789206 
L 122.109582 271.763229 
L 116.579229 268.541575 
L 111.987883 265.626259 
L 107.543162 262.570628 
L 103.253911 259.376456 
L 99.129199 256.045631 
L 95.178353 252.580158 
L 91.411001 248.982164 
L 87.837124 245.253903 
L 84.467114 241.397768 
L 81.311839 237.416303 
L 78.382728 233.312218 
L 76.123258 229.800571 
L 74.03661 226.207589 
L 72.130589 222.535201 
L 70.413472 218.785485 
L 68.894077 214.960697 
L 67.581831 211.063306 
L 66.486858 207.096038 
L 65.620067 203.061929 
L 64.993263 198.964397 
L 64.619262 194.807327 
L 64.512023 190.595181 
L 64.628497 187.189257 
L 64.933894 183.754425 
L 65.437326 180.294158 
L 66.148611 176.812443 
L 67.078332 173.313874 
L 68.237894 169.803772 
L 69.639585 166.288325 
L 71.296619 162.77476 
L 73.223175 159.271541 
L 75.434416 155.788613 
L 77.946474 152.33769 
L 80.776391 148.932594 
L 83.118125 146.418564 
L 85.656418 143.947404 
L 88.399126 141.528149 
L 91.354105 139.171043 
L 94.529073 136.887696 
L 97.931426 134.691247 
L 101.567991 132.596548 
L 105.444722 130.620348 
L 109.566304 128.781483 
L 113.935664 127.101059 
L 118.553363 125.602614 
L 123.416856 124.312242 
L 128.519605 123.258656 
L 133.850022 122.473157 
L 137.521599 122.114987 
L 141.279472 121.901429 
L 145.114823 121.843339 
L 149.016929 121.951813 
L 152.972952 122.238054 
L 156.967732 122.713212 
L 160.983594 123.38818 
L 165.000172 124.27335 
L 168.99427 125.378324 
L 172.939768 126.711587 
L 176.807603 128.280124 
L 180.565823 130.089013 
L 184.179755 132.140978 
L 187.612299 134.435929 
L 190.824353 136.970503 
L 193.775405 139.737622 
L 196.424281 142.726108 
L 198.730043 145.920377 
L 200.653041 149.300236 
L 201.459249 151.052178 
L 202.156072 152.840841 
L 202.739444 154.662412 
L 203.205607 156.512812 
L 203.551149 158.387712 
L 203.77304 160.282549 
L 203.86867 162.192549 
L 203.835877 164.11275 
L 203.67298 166.038028 
L 203.378803 167.963129 
L 202.952695 169.882698 
L 202.39455 171.791314 
L 201.704814 173.683527 
L 200.884495 175.553892 
L 199.935161 177.397006 
L 198.858938 179.207548 
L 197.658496 180.980313 
L 196.337033 182.710249 
L 194.898257 184.392489 
L 193.346353 186.022387 
L 191.685957 187.595547 
L 189.922117 189.107845 
L 186.106127 191.934891 
L 181.945468 194.476893 
L 177.491059 196.712795 
L 172.796148 198.627348 
L 167.914823 200.211123 
L 162.900615 201.460287 
L 157.805261 202.376219 
L 152.67767 202.964973 
L 147.563098 203.236649 
L 142.502559 203.204713 
L 137.532459 202.885301 
L 132.684416 202.296541 
L 127.985269 201.457924 
L 123.45721 200.38973 
L 119.118039 199.112535 
L 114.981488 197.646793 
L 111.057599 196.012491 
L 107.353125 194.228886 
L 103.871937 192.314308 
L 100.615429 190.286012 
L 97.582896 188.1601 
L 94.771887 185.95147 
L 92.178528 183.673806 
L 89.797811 181.339593 
L 87.623847 178.960156 
L 85.650088 176.545712 
L 83.869515 174.10543 
L 82.274796 171.6475 
L 80.858424 169.179204 
L 79.051706 165.47122 
L 77.603849 161.772858 
L 76.490081 158.099387 
L 75.686605 154.463205 
L 75.170826 150.874278 
L 74.921481 147.340517 
L 74.918707 143.868115 
L 75.144041 140.461838 
L 75.580401 137.125269 
L 76.212029 133.86102 
L 77.024423 130.67091 
L 78.004264 127.556112 
L 79.550209 123.521265 
L 81.346017 119.62185 
L 83.368352 115.857325 
L 85.596424 112.22645 
L 88.011695 108.727492 
L 90.597607 105.358389 
L 93.339342 102.116868 
L 96.223608 99.000542 
L 100.011274 95.277473 
L 103.982224 91.741458 
L 108.118058 88.38785 
L 112.402422 85.212172 
L 116.820701 82.210156 
L 121.359754 79.377767 
L 126.007693 76.711207 
L 130.753698 74.206913 
L 136.564452 71.411267 
L 142.48652 68.839127 
L 148.505575 66.485537 
L 154.608412 64.345905 
L 160.78276 62.415963 
L 167.017141 60.691726 
L 173.300742 59.169454 
L 179.623316 57.845617 
L 185.975102 56.716858 
L 192.346755 55.779967 
L 199.793496 54.925306 
L 207.241342 54.322834 
L 214.677079 53.967917 
L 222.087938 53.856 
L 229.461551 53.982571 
L 236.785907 54.343129 
L 244.04933 54.933152 
L 251.240452 55.74808 
L 258.348201 56.783285 
L 265.361787 58.034063 
L 272.270697 59.49561 
L 279.06469 61.163016 
L 285.733794 63.031251 
L 292.268312 65.09516 
L 298.658815 67.349453 
L 304.896155 69.788701 
L 310.971466 72.407337 
L 316.876166 75.199648 
L 322.601968 78.159776 
L 328.140885 81.281722 
L 333.485237 84.559341 
L 338.627656 87.986351 
L 343.561097 91.55633 
L 348.278841 95.262723 
L 352.774505 99.098848 
L 357.042047 103.057896 
L 361.075776 107.132943 
L 364.870353 111.316952 
L 368.420802 115.60278 
L 371.722514 119.983189 
L 374.771253 124.450848 
L 377.563158 128.998346 
L 379.749156 132.954074 
L 381.741936 136.958209 
L 383.539744 141.005968 
L 385.141038 145.09254 
L 386.54449 149.213094 
L 387.748986 153.36278 
L 388.276335 155.447028 
L 388.276335 155.447028 
" clip-path="url(#peb4e1d665a)" style="fill: none; stroke: #d62728; stroke-width: 1.5; stroke-linecap: square"/>
   </g>
   <g id="patch_3">
    <path d="M 47.389063 307.872 
L 47.389063 41.76 
" style="fill: none; stroke: #000000; stroke-width: 0.8; stroke-linejoin: miter; stroke-linecap: square"/>
   </g>
   <g id="patch_4">
    <path d="M 404.509063 307.872 
L 404.509063 41.76 
" style="fill: none; stroke: #000000; stroke-width: 0.8; stroke-linejoin: miter; stroke-linecap: square"/>
   </g>
   <g id="patch_5">
    <path d="M 47.389063 307.872 
L 404.509063 307.872 
" style="fill: none; stroke: #000000; stroke-width: 0.8; stroke-linejoin: miter; stroke-linecap: square"/>
   </g>
   <g id="patch_6">
    <path d="M 47.389063 41.76 
L 404.509063 41.76 
" style="fill: none; stroke: #000000; stroke-width: 0.8; stroke-linejoin: miter; stroke-linecap: square"/>
   </g>
   <g id="text_17">
    <g id="patch_7">
     <path d="M 422.365063 114.557163 
L 567.365063 114.557163 
Q 571.365063 114.557163 571.365063 110.557163 
L 571.365063 56.085913 
Q 571.365063 52.085913 567.365063 52.085913 
L 422.365063 52.085913 
Q 418.365063 52.085913 418.365063 56.085913 
L 418.365063 110.557163 
Q 418.365063 114.557163 422.365063 114.557163 
z
" style="fill: #ffffff; opacity: 0.5; stroke: #000000; stroke-linejoin: miter"/>
    </g>
    <!-- Summary: -->
    <g transform="translate(422.365063 62.664038) scale(0.1 -0.1)">
     <defs>
      <path id="DejaVuSans-53" d="M 3425 4513 
L 3425 3897 
Q 3066 4069 2747 4153 
Q 2428 4238 2131 4238 
Q 1616 4238 1336 4038 
Q 1056 3838 1056 3469 
Q 1056 3159 1242 3001 
Q 1428 2844 1947 2747 
L 2328 2669 
Q 3034 2534 3370 2195 
Q 3706 1856 3706 1288 
Q 3706 609 3251 259 
Q 2797 -91 1919 -91 
Q 1588 -91 1214 -16 
Q 841 59 441 206 
L 441 856 
Q 825 641 1194 531 
Q 1563 422 1919 422 
Q 2459 422 2753 634 
Q 3047 847 3047 1241 
Q 3047 1584 2836 1778 
Q 2625 1972 2144 2069 
L 1759 2144 
Q 1053 2284 737 2584 
Q 422 2884 422 3419 
Q 422 4038 858 4394 
Q 1294 4750 2059 4750 
Q 2388 4750 2728 4690 
Q 3069 4631 3425 4513 
z
" transform="scale(0.015625)"/>
      <path id="DejaVuSans-75" d="M 544 1381 
L 544 3500 
L 1119 3500 
L 1119 1403 
Q 1119 906 1312 657 
Q 1506 409 1894 409 
Q 2359 409 2629 706 
Q 2900 1003 2900 1516 
L 2900 3500 
L 3475 3500 
L 3475 0 
L 2900 0 
L 2900 538 
Q 2691 219 2414 64 
Q 2138 -91 1772 -91 
Q 1169 -91 856 284 
Q 544 659 544 1381 
z
M 1991 3584 
L 1991 3584 
z
" transform="scale(0.015625)"/>
      <path id="DejaVuSans-61" d="M 2194 1759 
Q 1497 1759 1228 1600 
Q 959 1441 959 1056 
Q 959 750 1161 570 
Q 1363 391 1709 391 
Q 2188 391 2477 730 
Q 2766 1069 2766 1631 
L 2766 1759 
L 2194 1759 
z
M 3341 1997 
L 3341 0 
L 2766 0 
L 2766 531 
Q 2569 213 2275 61 
Q 1981 -91 1556 -91 
Q 1019 -91 701 211 
Q 384 513 384 1019 
Q 384 1609 779 1909 
Q 1175 2209 1959 2209 
L 2766 2209 
L 2766 2266 
Q 2766 2663 2505 2880 
Q 2244 3097 1772 3097 
Q 1472 3097 1187 3025 
Q 903 2953 641 2809 
L 641 3341 
Q 956 3463 1253 3523 
Q 1550 3584 1831 3584 
Q 2591 3584 2966 3190 
Q 3341 2797 3341 1997 
z
" transform="scale(0.015625)"/>
      <path id="DejaVuSans-72" d="M 2631 2963 
Q 2534 3019 2420 3045 
Q 2306 3072 2169 3072 
Q 1681 3072 1420 2755 
Q 1159 2438 1159 1844 
L 1159 0 
L 581 0 
L 581 3500 
L 1159 3500 
L 1159 2956 
Q 1341 3275 1631 3429 
Q 1922 3584 2338 3584 
Q 2397 3584 2469 3576 
Q 2541 3569 2628 3553 
L 2631 2963 
z
" transform="scale(0.015625)"/>
      <path id="DejaVuSans-79" d="M 2059 -325 
Q 1816 -950 1584 -1140 
Q 1353 -1331 966 -1331 
L 506 -1331 
L 506 -850 
L 844 -850 
Q 1081 -850 1212 -737 
Q 1344 -625 1503 -206 
L 1606 56 
L 191 3500 
L 800 3500 
L 1894 763 
L 2988 3500 
L 3597 3500 
L 2059 -325 
z
" transform="scale(0.015625)"/>
      <path id="DejaVuSans-3a" d="M 750 794 
L 1409 794 
L 1409 0 
L 750 0 
L 750 794 
z
M 750 3309 
L 1409 3309 
L 1409 2516 
L 750 2516 
L 750 3309 
z
" transform="scale(0.015625)"/>
     </defs>
     <use xlink:href="#DejaVuSans-53"/>
     <use xlink:href="#DejaVuSans-75" x="63.476562"/>
     <use xlink:href="#DejaVuSans-6d" x="126.855469"/>
     <use xlink:href="#DejaVuSans-6d" x="224.267578"/>
     <use xlink:href="#DejaVuSans-61" x="321.679688"/>
     <use xlink:href="#DejaVuSans-72" x="382.958984"/>
     <use xlink:href="#DejaVuSans-79" x="424.072266"/>
     <use xlink:href="#DejaVuSans-3a" x="476.001953"/>
    </g>
    <!-- $Q_I$: 163.2$\pm$4.7 k -->
    <g transform="translate(422.365063 73.86185) scale(0.1 -0.1)">
     <defs>
      <path id="DejaVuSans-Oblique-51" d="M 2309 -84 
Q 2275 -88 2237 -89 
Q 2200 -91 2125 -91 
Q 1250 -91 756 411 
Q 263 913 263 1797 
Q 263 2319 452 2844 
Q 641 3369 978 3788 
Q 1369 4269 1858 4509 
Q 2347 4750 2938 4750 
Q 3794 4750 4287 4245 
Q 4781 3741 4781 2869 
Q 4781 1928 4265 1147 
Q 3750 366 2919 44 
L 3553 -825 
L 2847 -825 
L 2309 -84 
z
M 2919 4238 
Q 2400 4238 2003 3986 
Q 1606 3734 1313 3219 
Q 1125 2891 1026 2522 
Q 928 2153 928 1778 
Q 928 1128 1239 775 
Q 1550 422 2119 422 
Q 2631 422 3032 676 
Q 3434 931 3719 1434 
Q 3909 1772 4009 2142 
Q 4109 2513 4109 2881 
Q 4109 3528 3796 3883 
Q 3484 4238 2919 4238 
z
" transform="scale(0.015625)"/>
      <path id="DejaVuSans-Oblique-49" d="M 1081 4666 
L 1716 4666 
L 806 0 
L 172 0 
L 1081 4666 
z
" transform="scale(0.015625)"/>
      <path id="DejaVuSans-33" d="M 2597 2516 
Q 3050 2419 3304 2112 
Q 3559 1806 3559 1356 
Q 3559 666 3084 287 
Q 2609 -91 1734 -91 
Q 1441 -91 1130 -33 
Q 819 25 488 141 
L 488 750 
Q 750 597 1062 519 
Q 1375 441 1716 441 
Q 2309 441 2620 675 
Q 2931 909 2931 1356 
Q 2931 1769 2642 2001 
Q 2353 2234 1838 2234 
L 1294 2234 
L 1294 2753 
L 1863 2753 
Q 2328 2753 2575 2939 
Q 2822 3125 2822 3475 
Q 2822 3834 2567 4026 
Q 2313 4219 1838 4219 
Q 1578 4219 1281 4162 
Q 984 4106 628 3988 
L 628 4550 
Q 988 4650 1302 4700 
Q 1616 4750 1894 4750 
Q 2613 4750 3031 4423 
Q 3450 4097 3450 3541 
Q 3450 3153 3228 2886 
Q 3006 2619 2597 2516 
z
" transform="scale(0.015625)"/>
      <path id="DejaVuSans-b1" d="M 2944 4013 
L 2944 2803 
L 4684 2803 
L 4684 2272 
L 2944 2272 
L 2944 1063 
L 2419 1063 
L 2419 2272 
L 678 2272 
L 678 2803 
L 2419 2803 
L 2419 4013 
L 2944 4013 
z
M 678 531 
L 4684 531 
L 4684 0 
L 678 0 
L 678 531 
z
" transform="scale(0.015625)"/>
      <path id="DejaVuSans-37" d="M 525 4666 
L 3525 4666 
L 3525 4397 
L 1831 0 
L 1172 0 
L 2766 4134 
L 525 4134 
L 525 4666 
z
" transform="scale(0.015625)"/>
      <path id="DejaVuSans-6b" d="M 581 4863 
L 1159 4863 
L 1159 1991 
L 2875 3500 
L 3609 3500 
L 1753 1863 
L 3688 0 
L 2938 0 
L 1159 1709 
L 1159 0 
L 581 0 
L 581 4863 
z
" transform="scale(0.015625)"/>
     </defs>
     <use xlink:href="#DejaVuSans-Oblique-51" transform="translate(0 0.015625)"/>
     <use xlink:href="#DejaVuSans-Oblique-49" transform="translate(78.710938 -16.390625) scale(0.7)"/>
     <use xlink:href="#DejaVuSans-3a" transform="translate(102.089844 0.015625)"/>
     <use xlink:href="#DejaVuSans-20" transform="translate(135.78125 0.015625)"/>
     <use xlink:href="#DejaVuSans-31" transform="translate(167.568359 0.015625)"/>
     <use xlink:href="#DejaVuSans-36" transform="translate(231.191406 0.015625)"/>
     <use xlink:href="#DejaVuSans-33" transform="translate(294.814453 0.015625)"/>
     <use xlink:href="#DejaVuSans-2e" transform="translate(358.4375 0.015625)"/>
     <use xlink:href="#DejaVuSans-32" transform="translate(384.724609 0.015625)"/>
     <use xlink:href="#DejaVuSans-b1" transform="translate(448.347656 0.015625)"/>
     <use xlink:href="#DejaVuSans-34" transform="translate(532.136719 0.015625)"/>
     <use xlink:href="#DejaVuSans-2e" transform="translate(595.759766 0.015625)"/>
     <use xlink:href="#DejaVuSans-37" transform="translate(619.796875 0.015625)"/>
     <use xlink:href="#DejaVuSans-20" transform="translate(683.419922 0.015625)"/>
     <use xlink:href="#DejaVuSans-6b" transform="translate(715.207031 0.015625)"/>
    </g>
    <!-- $Q_C$: 18.366$\pm$0.069 k -->
    <g transform="translate(422.365063 85.059663) scale(0.1 -0.1)">
     <defs>
      <path id="DejaVuSans-Oblique-43" d="M 4447 4306 
L 4319 3641 
Q 4019 3944 3683 4091 
Q 3347 4238 2956 4238 
Q 2422 4238 2017 3981 
Q 1613 3725 1319 3200 
Q 1131 2863 1032 2486 
Q 934 2109 934 1728 
Q 934 1091 1264 756 
Q 1594 422 2222 422 
Q 2656 422 3056 561 
Q 3456 700 3834 978 
L 3688 231 
Q 3316 72 2936 -9 
Q 2556 -91 2175 -91 
Q 1278 -91 773 396 
Q 269 884 269 1753 
Q 269 2309 461 2846 
Q 653 3384 1013 3828 
Q 1394 4300 1883 4525 
Q 2372 4750 3022 4750 
Q 3422 4750 3780 4639 
Q 4138 4528 4447 4306 
z
" transform="scale(0.015625)"/>
      <path id="DejaVuSans-38" d="M 2034 2216 
Q 1584 2216 1326 1975 
Q 1069 1734 1069 1313 
Q 1069 891 1326 650 
Q 1584 409 2034 409 
Q 2484 409 2743 651 
Q 3003 894 3003 1313 
Q 3003 1734 2745 1975 
Q 2488 2216 2034 2216 
z
M 1403 2484 
Q 997 2584 770 2862 
Q 544 3141 544 3541 
Q 544 4100 942 4425 
Q 1341 4750 2034 4750 
Q 2731 4750 3128 4425 
Q 3525 4100 3525 3541 
Q 3525 3141 3298 2862 
Q 3072 2584 2669 2484 
Q 3125 2378 3379 2068 
Q 3634 1759 3634 1313 
Q 3634 634 3220 271 
Q 2806 -91 2034 -91 
Q 1263 -91 848 271 
Q 434 634 434 1313 
Q 434 1759 690 2068 
Q 947 2378 1403 2484 
z
M 1172 3481 
Q 1172 3119 1398 2916 
Q 1625 2713 2034 2713 
Q 2441 2713 2670 2916 
Q 2900 3119 2900 3481 
Q 2900 3844 2670 4047 
Q 2441 4250 2034 4250 
Q 1625 4250 1398 4047 
Q 1172 3844 1172 3481 
z
" transform="scale(0.015625)"/>
      <path id="DejaVuSans-39" d="M 703 97 
L 703 672 
Q 941 559 1184 500 
Q 1428 441 1663 441 
Q 2288 441 2617 861 
Q 2947 1281 2994 2138 
Q 2813 1869 2534 1725 
Q 2256 1581 1919 1581 
Q 1219 1581 811 2004 
Q 403 2428 403 3163 
Q 403 3881 828 4315 
Q 1253 4750 1959 4750 
Q 2769 4750 3195 4129 
Q 3622 3509 3622 2328 
Q 3622 1225 3098 567 
Q 2575 -91 1691 -91 
Q 1453 -91 1209 -44 
Q 966 3 703 97 
z
M 1959 2075 
Q 2384 2075 2632 2365 
Q 2881 2656 2881 3163 
Q 2881 3666 2632 3958 
Q 2384 4250 1959 4250 
Q 1534 4250 1286 3958 
Q 1038 3666 1038 3163 
Q 1038 2656 1286 2365 
Q 1534 2075 1959 2075 
z
" transform="scale(0.015625)"/>
     </defs>
     <use xlink:href="#DejaVuSans-Oblique-51" transform="translate(0 0.015625)"/>
     <use xlink:href="#DejaVuSans-Oblique-43" transform="translate(78.710938 -16.390625) scale(0.7)"/>
     <use xlink:href="#DejaVuSans-3a" transform="translate(130.322266 0.015625)"/>
     <use xlink:href="#DejaVuSans-20" transform="translate(164.013672 0.015625)"/>
     <use xlink:href="#DejaVuSans-31" transform="translate(195.800781 0.015625)"/>
     <use xlink:href="#DejaVuSans-38" transform="translate(259.423828 0.015625)"/>
     <use xlink:href="#DejaVuSans-2e" transform="translate(323.046875 0.015625)"/>
     <use xlink:href="#DejaVuSans-33" transform="translate(354.833984 0.015625)"/>
     <use xlink:href="#DejaVuSans-36" transform="translate(418.457031 0.015625)"/>
     <use xlink:href="#DejaVuSans-36" transform="translate(482.080078 0.015625)"/>
     <use xlink:href="#DejaVuSans-b1" transform="translate(545.703125 0.015625)"/>
     <use xlink:href="#DejaVuSans-30" transform="translate(629.492188 0.015625)"/>
     <use xlink:href="#DejaVuSans-2e" transform="translate(693.115234 0.015625)"/>
     <use xlink:href="#DejaVuSans-30" transform="translate(724.902344 0.015625)"/>
     <use xlink:href="#DejaVuSans-36" transform="translate(788.525391 0.015625)"/>
     <use xlink:href="#DejaVuSans-39" transform="translate(852.148438 0.015625)"/>
     <use xlink:href="#DejaVuSans-20" transform="translate(915.771484 0.015625)"/>
     <use xlink:href="#DejaVuSans-6b" transform="translate(947.558594 0.015625)"/>
    </g>
    <!-- $f_{res}$: 7.0957907$\pm$1.0e-06 GHz -->
    <g transform="translate(422.365063 96.257475) scale(0.1 -0.1)">
     <defs>
      <path id="DejaVuSans-Oblique-66" d="M 3059 4863 
L 2969 4384 
L 2419 4384 
Q 2106 4384 1964 4261 
Q 1822 4138 1753 3809 
L 1691 3500 
L 2638 3500 
L 2553 3053 
L 1606 3053 
L 1013 0 
L 434 0 
L 1031 3053 
L 481 3053 
L 563 3500 
L 1113 3500 
L 1159 3744 
Q 1278 4363 1576 4613 
Q 1875 4863 2516 4863 
L 3059 4863 
z
" transform="scale(0.015625)"/>
      <path id="DejaVuSans-Oblique-72" d="M 2853 2969 
Q 2766 3016 2653 3041 
Q 2541 3066 2413 3066 
Q 1953 3066 1609 2717 
Q 1266 2369 1153 1784 
L 800 0 
L 225 0 
L 909 3500 
L 1484 3500 
L 1375 2956 
Q 1603 3259 1920 3421 
Q 2238 3584 2597 3584 
Q 2691 3584 2781 3573 
Q 2872 3563 2963 3538 
L 2853 2969 
z
" transform="scale(0.015625)"/>
      <path id="DejaVuSans-Oblique-65" d="M 3078 2063 
Q 3088 2113 3092 2166 
Q 3097 2219 3097 2272 
Q 3097 2653 2873 2875 
Q 2650 3097 2266 3097 
Q 1838 3097 1509 2826 
Q 1181 2556 1013 2059 
L 3078 2063 
z
M 3578 1613 
L 903 1613 
Q 884 1494 878 1425 
Q 872 1356 872 1306 
Q 872 872 1139 634 
Q 1406 397 1894 397 
Q 2269 397 2603 481 
Q 2938 566 3225 728 
L 3116 159 
Q 2806 34 2476 -28 
Q 2147 -91 1806 -91 
Q 1078 -91 686 257 
Q 294 606 294 1247 
Q 294 1794 489 2264 
Q 684 2734 1063 3103 
Q 1306 3334 1642 3459 
Q 1978 3584 2356 3584 
Q 2950 3584 3301 3228 
Q 3653 2872 3653 2272 
Q 3653 2128 3634 1964 
Q 3616 1800 3578 1613 
z
" transform="scale(0.015625)"/>
      <path id="DejaVuSans-Oblique-73" d="M 3200 3397 
L 3091 2853 
Q 2863 2978 2609 3040 
Q 2356 3103 2088 3103 
Q 1634 3103 1373 2948 
Q 1113 2794 1113 2528 
Q 1113 2219 1719 2053 
Q 1766 2041 1788 2034 
L 1972 1978 
Q 2547 1819 2739 1644 
Q 2931 1469 2931 1166 
Q 2931 609 2489 259 
Q 2047 -91 1331 -91 
Q 1053 -91 747 -37 
Q 441 16 72 128 
L 184 722 
Q 500 559 806 475 
Q 1113 391 1394 391 
Q 1816 391 2080 572 
Q 2344 753 2344 1031 
Q 2344 1331 1650 1516 
L 1591 1531 
L 1394 1581 
Q 956 1697 753 1886 
Q 550 2075 550 2369 
Q 550 2928 970 3256 
Q 1391 3584 2113 3584 
Q 2397 3584 2667 3537 
Q 2938 3491 3200 3397 
z
" transform="scale(0.015625)"/>
      <path id="DejaVuSans-35" d="M 691 4666 
L 3169 4666 
L 3169 4134 
L 1269 4134 
L 1269 2991 
Q 1406 3038 1543 3061 
Q 1681 3084 1819 3084 
Q 2600 3084 3056 2656 
Q 3513 2228 3513 1497 
Q 3513 744 3044 326 
Q 2575 -91 1722 -91 
Q 1428 -91 1123 -41 
Q 819 9 494 109 
L 494 744 
Q 775 591 1075 516 
Q 1375 441 1709 441 
Q 2250 441 2565 725 
Q 2881 1009 2881 1497 
Q 2881 1984 2565 2268 
Q 2250 2553 1709 2553 
Q 1456 2553 1204 2497 
Q 953 2441 691 2322 
L 691 4666 
z
" transform="scale(0.015625)"/>
      <path id="DejaVuSans-47" d="M 3809 666 
L 3809 1919 
L 2778 1919 
L 2778 2438 
L 4434 2438 
L 4434 434 
Q 4069 175 3628 42 
Q 3188 -91 2688 -91 
Q 1594 -91 976 548 
Q 359 1188 359 2328 
Q 359 3472 976 4111 
Q 1594 4750 2688 4750 
Q 3144 4750 3555 4637 
Q 3966 4525 4313 4306 
L 4313 3634 
Q 3963 3931 3569 4081 
Q 3175 4231 2741 4231 
Q 1884 4231 1454 3753 
Q 1025 3275 1025 2328 
Q 1025 1384 1454 906 
Q 1884 428 2741 428 
Q 3075 428 3337 486 
Q 3600 544 3809 666 
z
" transform="scale(0.015625)"/>
      <path id="DejaVuSans-48" d="M 628 4666 
L 1259 4666 
L 1259 2753 
L 3553 2753 
L 3553 4666 
L 4184 4666 
L 4184 0 
L 3553 0 
L 3553 2222 
L 1259 2222 
L 1259 0 
L 628 0 
L 628 4666 
z
" transform="scale(0.015625)"/>
      <path id="DejaVuSans-7a" d="M 353 3500 
L 3084 3500 
L 3084 2975 
L 922 459 
L 3084 459 
L 3084 0 
L 275 0 
L 275 525 
L 2438 3041 
L 353 3041 
L 353 3500 
z
" transform="scale(0.015625)"/>
     </defs>
     <use xlink:href="#DejaVuSans-Oblique-66" transform="translate(0 0.015625)"/>
     <use xlink:href="#DejaVuSans-Oblique-72" transform="translate(35.205078 -16.390625) scale(0.7)"/>
     <use xlink:href="#DejaVuSans-Oblique-65" transform="translate(63.984375 -16.390625) scale(0.7)"/>
     <use xlink:href="#DejaVuSans-Oblique-73" transform="translate(107.050781 -16.390625) scale(0.7)"/>
     <use xlink:href="#DejaVuSans-3a" transform="translate(146.254883 0.015625)"/>
     <use xlink:href="#DejaVuSans-20" transform="translate(179.946289 0.015625)"/>
     <use xlink:href="#DejaVuSans-37" transform="translate(211.733398 0.015625)"/>
     <use xlink:href="#DejaVuSans-2e" transform="translate(275.356445 0.015625)"/>
     <use xlink:href="#DejaVuSans-30" transform="translate(307.143555 0.015625)"/>
     <use xlink:href="#DejaVuSans-39" transform="translate(370.766602 0.015625)"/>
     <use xlink:href="#DejaVuSans-35" transform="translate(434.389648 0.015625)"/>
     <use xlink:href="#DejaVuSans-37" transform="translate(490.762695 0.015625)"/>
     <use xlink:href="#DejaVuSans-39" transform="translate(554.385742 0.015625)"/>
     <use xlink:href="#DejaVuSans-30" transform="translate(618.008789 0.015625)"/>
     <use xlink:href="#DejaVuSans-37" transform="translate(681.631836 0.015625)"/>
     <use xlink:href="#DejaVuSans-b1" transform="translate(745.254883 0.015625)"/>
     <use xlink:href="#DejaVuSans-31" transform="translate(829.043945 0.015625)"/>
     <use xlink:href="#DejaVuSans-2e" transform="translate(892.666992 0.015625)"/>
     <use xlink:href="#DejaVuSans-30" transform="translate(924.454102 0.015625)"/>
     <use xlink:href="#DejaVuSans-65" transform="translate(988.077148 0.015625)"/>
     <use xlink:href="#DejaVuSans-2d" transform="translate(1049.600586 0.015625)"/>
     <use xlink:href="#DejaVuSans-30" transform="translate(1085.68457 0.015625)"/>
     <use xlink:href="#DejaVuSans-36" transform="translate(1149.307617 0.015625)"/>
     <use xlink:href="#DejaVuSans-20" transform="translate(1212.930664 0.015625)"/>
     <use xlink:href="#DejaVuSans-47" transform="translate(1244.717773 0.015625)"/>
     <use xlink:href="#DejaVuSans-48" transform="translate(1322.208008 0.015625)"/>
     <use xlink:href="#DejaVuSans-7a" transform="translate(1397.40332 0.015625)"/>
    </g>
    <!-- $f_{opt}$: 7.0958 GHz -->
    <g transform="translate(422.365063 107.457163) scale(0.1 -0.1)">
     <defs>
      <path id="DejaVuSans-Oblique-6f" d="M 1625 -91 
Q 1009 -91 651 289 
Q 294 669 294 1325 
Q 294 1706 417 2101 
Q 541 2497 738 2766 
Q 1047 3184 1428 3384 
Q 1809 3584 2291 3584 
Q 2888 3584 3255 3212 
Q 3622 2841 3622 2241 
Q 3622 1825 3500 1412 
Q 3378 1000 3181 728 
Q 2875 309 2494 109 
Q 2113 -91 1625 -91 
z
M 891 1344 
Q 891 869 1089 633 
Q 1288 397 1691 397 
Q 2269 397 2648 901 
Q 3028 1406 3028 2181 
Q 3028 2634 2825 2865 
Q 2622 3097 2228 3097 
Q 1903 3097 1650 2945 
Q 1397 2794 1197 2484 
Q 1050 2253 970 1956 
Q 891 1659 891 1344 
z
" transform="scale(0.015625)"/>
      <path id="DejaVuSans-Oblique-70" d="M 3175 2156 
Q 3175 2616 2975 2859 
Q 2775 3103 2400 3103 
Q 2144 3103 1911 2972 
Q 1678 2841 1497 2591 
Q 1319 2344 1212 1994 
Q 1106 1644 1106 1300 
Q 1106 863 1306 627 
Q 1506 391 1875 391 
Q 2147 391 2380 519 
Q 2613 647 2778 891 
Q 2956 1147 3065 1494 
Q 3175 1841 3175 2156 
z
M 1394 2969 
Q 1625 3272 1939 3428 
Q 2253 3584 2638 3584 
Q 3175 3584 3472 3232 
Q 3769 2881 3769 2247 
Q 3769 1728 3584 1258 
Q 3400 788 3053 416 
Q 2822 169 2531 39 
Q 2241 -91 1919 -91 
Q 1547 -91 1294 64 
Q 1041 219 916 525 
L 556 -1331 
L -19 -1331 
L 922 3500 
L 1497 3500 
L 1394 2969 
z
" transform="scale(0.015625)"/>
      <path id="DejaVuSans-Oblique-74" d="M 2706 3500 
L 2619 3053 
L 1472 3053 
L 1100 1153 
Q 1081 1047 1072 975 
Q 1063 903 1063 863 
Q 1063 663 1183 572 
Q 1303 481 1569 481 
L 2150 481 
L 2053 0 
L 1503 0 
Q 991 0 739 200 
Q 488 400 488 806 
Q 488 878 497 964 
Q 506 1050 525 1153 
L 897 3053 
L 409 3053 
L 500 3500 
L 978 3500 
L 1172 4494 
L 1747 4494 
L 1556 3500 
L 2706 3500 
z
" transform="scale(0.015625)"/>
     </defs>
     <use xlink:href="#DejaVuSans-Oblique-66" transform="translate(0 0.015625)"/>
     <use xlink:href="#DejaVuSans-Oblique-6f" transform="translate(35.205078 -16.390625) scale(0.7)"/>
     <use xlink:href="#DejaVuSans-Oblique-70" transform="translate(78.032227 -16.390625) scale(0.7)"/>
     <use xlink:href="#DejaVuSans-Oblique-74" transform="translate(122.46582 -16.390625) scale(0.7)"/>
     <use xlink:href="#DejaVuSans-3a" transform="translate(152.646484 0.015625)"/>
     <use xlink:href="#DejaVuSans-20" transform="translate(186.337891 0.015625)"/>
     <use xlink:href="#DejaVuSans-37" transform="translate(218.125 0.015625)"/>
     <use xlink:href="#DejaVuSans-2e" transform="translate(281.748047 0.015625)"/>
     <use xlink:href="#DejaVuSans-30" transform="translate(313.535156 0.015625)"/>
     <use xlink:href="#DejaVuSans-39" transform="translate(377.158203 0.015625)"/>
     <use xlink:href="#DejaVuSans-35" transform="translate(440.78125 0.015625)"/>
     <use xlink:href="#DejaVuSans-38" transform="translate(504.404297 0.015625)"/>
     <use xlink:href="#DejaVuSans-20" transform="translate(568.027344 0.015625)"/>
     <use xlink:href="#DejaVuSans-47" transform="translate(599.814453 0.015625)"/>
     <use xlink:href="#DejaVuSans-48" transform="translate(677.304688 0.015625)"/>
     <use xlink:href="#DejaVuSans-7a" transform="translate(752.5 0.015625)"/>
    </g>
   </g>
  </g>
  <g id="text_18">
   <!-- S21 Resonator spectroscopy q00 -->
   <g transform="translate(121.48625 16.318125) scale(0.12 -0.12)">
    <defs>
     <path id="DejaVuSans-73" d="M 2834 3397 
L 2834 2853 
Q 2591 2978 2328 3040 
Q 2066 3103 1784 3103 
Q 1356 3103 1142 2972 
Q 928 2841 928 2578 
Q 928 2378 1081 2264 
Q 1234 2150 1697 2047 
L 1894 2003 
Q 2506 1872 2764 1633 
Q 3022 1394 3022 966 
Q 3022 478 2636 193 
Q 2250 -91 1575 -91 
Q 1294 -91 989 -36 
Q 684 19 347 128 
L 347 722 
Q 666 556 975 473 
Q 1284 391 1588 391 
Q 1994 391 2212 530 
Q 2431 669 2431 922 
Q 2431 1156 2273 1281 
Q 2116 1406 1581 1522 
L 1381 1569 
Q 847 1681 609 1914 
Q 372 2147 372 2553 
Q 372 3047 722 3315 
Q 1072 3584 1716 3584 
Q 2034 3584 2315 3537 
Q 2597 3491 2834 3397 
z
" transform="scale(0.015625)"/>
     <path id="DejaVuSans-6f" d="M 1959 3097 
Q 1497 3097 1228 2736 
Q 959 2375 959 1747 
Q 959 1119 1226 758 
Q 1494 397 1959 397 
Q 2419 397 2687 759 
Q 2956 1122 2956 1747 
Q 2956 2369 2687 2733 
Q 2419 3097 1959 3097 
z
M 1959 3584 
Q 2709 3584 3137 3096 
Q 3566 2609 3566 1747 
Q 3566 888 3137 398 
Q 2709 -91 1959 -91 
Q 1206 -91 779 398 
Q 353 888 353 1747 
Q 353 2609 779 3096 
Q 1206 3584 1959 3584 
z
" transform="scale(0.015625)"/>
     <path id="DejaVuSans-6e" d="M 3513 2113 
L 3513 0 
L 2938 0 
L 2938 2094 
Q 2938 2591 2744 2837 
Q 2550 3084 2163 3084 
Q 1697 3084 1428 2787 
Q 1159 2491 1159 1978 
L 1159 0 
L 581 0 
L 581 3500 
L 1159 3500 
L 1159 2956 
Q 1366 3272 1645 3428 
Q 1925 3584 2291 3584 
Q 2894 3584 3203 3211 
Q 3513 2838 3513 2113 
z
" transform="scale(0.015625)"/>
     <path id="DejaVuSans-74" d="M 1172 4494 
L 1172 3500 
L 2356 3500 
L 2356 3053 
L 1172 3053 
L 1172 1153 
Q 1172 725 1289 603 
Q 1406 481 1766 481 
L 2356 481 
L 2356 0 
L 1766 0 
Q 1100 0 847 248 
Q 594 497 594 1153 
L 594 3053 
L 172 3053 
L 172 3500 
L 594 3500 
L 594 4494 
L 1172 4494 
z
" transform="scale(0.015625)"/>
     <path id="DejaVuSans-70" d="M 1159 525 
L 1159 -1331 
L 581 -1331 
L 581 3500 
L 1159 3500 
L 1159 2969 
Q 1341 3281 1617 3432 
Q 1894 3584 2278 3584 
Q 2916 3584 3314 3078 
Q 3713 2572 3713 1747 
Q 3713 922 3314 415 
Q 2916 -91 2278 -91 
Q 1894 -91 1617 61 
Q 1341 213 1159 525 
z
M 3116 1747 
Q 3116 2381 2855 2742 
Q 2594 3103 2138 3103 
Q 1681 3103 1420 2742 
Q 1159 2381 1159 1747 
Q 1159 1113 1420 752 
Q 1681 391 2138 391 
Q 2594 391 2855 752 
Q 3116 1113 3116 1747 
z
" transform="scale(0.015625)"/>
     <path id="DejaVuSans-63" d="M 3122 3366 
L 3122 2828 
Q 2878 2963 2633 3030 
Q 2388 3097 2138 3097 
Q 1578 3097 1268 2742 
Q 959 2388 959 1747 
Q 959 1106 1268 751 
Q 1578 397 2138 397 
Q 2388 397 2633 464 
Q 2878 531 3122 666 
L 3122 134 
Q 2881 22 2623 -34 
Q 2366 -91 2075 -91 
Q 1284 -91 818 406 
Q 353 903 353 1747 
Q 353 2603 823 3093 
Q 1294 3584 2113 3584 
Q 2378 3584 2631 3529 
Q 2884 3475 3122 3366 
z
" transform="scale(0.015625)"/>
     <path id="DejaVuSans-71" d="M 947 1747 
Q 947 1113 1208 752 
Q 1469 391 1925 391 
Q 2381 391 2643 752 
Q 2906 1113 2906 1747 
Q 2906 2381 2643 2742 
Q 2381 3103 1925 3103 
Q 1469 3103 1208 2742 
Q 947 2381 947 1747 
z
M 2906 525 
Q 2725 213 2448 61 
Q 2172 -91 1784 -91 
Q 1150 -91 751 415 
Q 353 922 353 1747 
Q 353 2572 751 3078 
Q 1150 3584 1784 3584 
Q 2172 3584 2448 3432 
Q 2725 3281 2906 2969 
L 2906 3500 
L 3481 3500 
L 3481 -1331 
L 2906 -1331 
L 2906 525 
z
" transform="scale(0.015625)"/>
    </defs>
    <use xlink:href="#DejaVuSans-53"/>
    <use xlink:href="#DejaVuSans-32" x="63.476562"/>
    <use xlink:href="#DejaVuSans-31" x="127.099609"/>
    <use xlink:href="#DejaVuSans-20" x="190.722656"/>
    <use xlink:href="#DejaVuSans-52" x="222.509766"/>
    <use xlink:href="#DejaVuSans-65" x="287.492188"/>
    <use xlink:href="#DejaVuSans-73" x="349.015625"/>
    <use xlink:href="#DejaVuSans-6f" x="401.115234"/>
    <use xlink:href="#DejaVuSans-6e" x="462.296875"/>
    <use xlink:href="#DejaVuSans-61" x="525.675781"/>
    <use xlink:href="#DejaVuSans-74" x="586.955078"/>
    <use xlink:href="#DejaVuSans-6f" x="626.164062"/>
    <use xlink:href="#DejaVuSans-72" x="687.345703"/>
    <use xlink:href="#DejaVuSans-20" x="728.458984"/>
    <use xlink:href="#DejaVuSans-73" x="760.246094"/>
    <use xlink:href="#DejaVuSans-70" x="812.345703"/>
    <use xlink:href="#DejaVuSans-65" x="875.822266"/>
    <use xlink:href="#DejaVuSans-63" x="937.345703"/>
    <use xlink:href="#DejaVuSans-74" x="992.326172"/>
    <use xlink:href="#DejaVuSans-72" x="1031.535156"/>
    <use xlink:href="#DejaVuSans-6f" x="1070.398438"/>
    <use xlink:href="#DejaVuSans-73" x="1131.580078"/>
    <use xlink:href="#DejaVuSans-63" x="1183.679688"/>
    <use xlink:href="#DejaVuSans-6f" x="1238.660156"/>
    <use xlink:href="#DejaVuSans-70" x="1299.841797"/>
    <use xlink:href="#DejaVuSans-79" x="1363.318359"/>
    <use xlink:href="#DejaVuSans-20" x="1422.498047"/>
    <use xlink:href="#DejaVuSans-71" x="1454.285156"/>
    <use xlink:href="#DejaVuSans-30" x="1517.761719"/>
    <use xlink:href="#DejaVuSans-30" x="1581.384766"/>
   </g>
   <!-- tuid: 20241114-104014-106-2bdf28 -->
   <g transform="translate(112.055938 29.7555) scale(0.12 -0.12)">
    <defs>
     <path id="DejaVuSans-69" d="M 603 3500 
L 1178 3500 
L 1178 0 
L 603 0 
L 603 3500 
z
M 603 4863 
L 1178 4863 
L 1178 4134 
L 603 4134 
L 603 4863 
z
" transform="scale(0.015625)"/>
     <path id="DejaVuSans-64" d="M 2906 2969 
L 2906 4863 
L 3481 4863 
L 3481 0 
L 2906 0 
L 2906 525 
Q 2725 213 2448 61 
Q 2172 -91 1784 -91 
Q 1150 -91 751 415 
Q 353 922 353 1747 
Q 353 2572 751 3078 
Q 1150 3584 1784 3584 
Q 2172 3584 2448 3432 
Q 2725 3281 2906 2969 
z
M 947 1747 
Q 947 1113 1208 752 
Q 1469 391 1925 391 
Q 2381 391 2643 752 
Q 2906 1113 2906 1747 
Q 2906 2381 2643 2742 
Q 2381 3103 1925 3103 
Q 1469 3103 1208 2742 
Q 947 2381 947 1747 
z
" transform="scale(0.015625)"/>
     <path id="DejaVuSans-62" d="M 3116 1747 
Q 3116 2381 2855 2742 
Q 2594 3103 2138 3103 
Q 1681 3103 1420 2742 
Q 1159 2381 1159 1747 
Q 1159 1113 1420 752 
Q 1681 391 2138 391 
Q 2594 391 2855 752 
Q 3116 1113 3116 1747 
z
M 1159 2969 
Q 1341 3281 1617 3432 
Q 1894 3584 2278 3584 
Q 2916 3584 3314 3078 
Q 3713 2572 3713 1747 
Q 3713 922 3314 415 
Q 2916 -91 2278 -91 
Q 1894 -91 1617 61 
Q 1341 213 1159 525 
L 1159 0 
L 581 0 
L 581 4863 
L 1159 4863 
L 1159 2969 
z
" transform="scale(0.015625)"/>
     <path id="DejaVuSans-66" d="M 2375 4863 
L 2375 4384 
L 1825 4384 
Q 1516 4384 1395 4259 
Q 1275 4134 1275 3809 
L 1275 3500 
L 2222 3500 
L 2222 3053 
L 1275 3053 
L 1275 0 
L 697 0 
L 697 3053 
L 147 3053 
L 147 3500 
L 697 3500 
L 697 3744 
Q 697 4328 969 4595 
Q 1241 4863 1831 4863 
L 2375 4863 
z
" transform="scale(0.015625)"/>
    </defs>
    <use xlink:href="#DejaVuSans-74"/>
    <use xlink:href="#DejaVuSans-75" x="39.208984"/>
    <use xlink:href="#DejaVuSans-69" x="102.587891"/>
    <use xlink:href="#DejaVuSans-64" x="130.371094"/>
    <use xlink:href="#DejaVuSans-3a" x="193.847656"/>
    <use xlink:href="#DejaVuSans-20" x="227.539062"/>
    <use xlink:href="#DejaVuSans-32" x="259.326172"/>
    <use xlink:href="#DejaVuSans-30" x="322.949219"/>
    <use xlink:href="#DejaVuSans-32" x="386.572266"/>
    <use xlink:href="#DejaVuSans-34" x="450.195312"/>
    <use xlink:href="#DejaVuSans-31" x="513.818359"/>
    <use xlink:href="#DejaVuSans-31" x="577.441406"/>
    <use xlink:href="#DejaVuSans-31" x="641.064453"/>
    <use xlink:href="#DejaVuSans-34" x="704.6875"/>
    <use xlink:href="#DejaVuSans-2d" x="768.310547"/>
    <use xlink:href="#DejaVuSans-31" x="804.394531"/>
    <use xlink:href="#DejaVuSans-30" x="868.017578"/>
    <use xlink:href="#DejaVuSans-34" x="931.640625"/>
    <use xlink:href="#DejaVuSans-30" x="995.263672"/>
    <use xlink:href="#DejaVuSans-31" x="1058.886719"/>
    <use xlink:href="#DejaVuSans-34" x="1122.509766"/>
    <use xlink:href="#DejaVuSans-2d" x="1186.132812"/>
    <use xlink:href="#DejaVuSans-31" x="1222.216797"/>
    <use xlink:href="#DejaVuSans-30" x="1285.839844"/>
    <use xlink:href="#DejaVuSans-36" x="1349.462891"/>
    <use xlink:href="#DejaVuSans-2d" x="1413.085938"/>
    <use xlink:href="#DejaVuSans-32" x="1449.169922"/>
    <use xlink:href="#DejaVuSans-62" x="1512.792969"/>
    <use xlink:href="#DejaVuSans-64" x="1576.269531"/>
    <use xlink:href="#DejaVuSans-66" x="1639.746094"/>
    <use xlink:href="#DejaVuSans-32" x="1674.951172"/>
    <use xlink:href="#DejaVuSans-38" x="1738.574219"/>
   </g>
  </g>
 </g>
 <defs>
  <clipPath id="peb4e1d665a">
   <rect x="47.389063" y="41.76" width="357.12" height="266.112"/>
  </clipPath>
 </defs>
</svg>
