<?xml version="1.0" encoding="utf-8" standalone="no"?>
<!DOCTYPE svg PUBLIC "-//W3C//DTD SVG 1.1//EN"
  "http://www.w3.org/Graphics/SVG/1.1/DTD/svg11.dtd">
<svg xmlns:xlink="http://www.w3.org/1999/xlink" width="606.61975pt" height="345.706375pt" viewBox="0 0 606.61975 345.706375" xmlns="http://www.w3.org/2000/svg" version="1.1">
 <metadata>
  <rdf:RDF xmlns:dc="http://purl.org/dc/elements/1.1/" xmlns:cc="http://creativecommons.org/ns#" xmlns:rdf="http://www.w3.org/1999/02/22-rdf-syntax-ns#">
   <cc:Work>
    <dc:type rdf:resource="http://purl.org/dc/dcmitype/StillImage"/>
    <dc:date>2024-11-14T10:53:31.486294</dc:date>
    <dc:format>image/svg+xml</dc:format>
    <dc:creator>
     <cc:Agent>
      <dc:title>Matplotlib v3.8.0, https://matplotlib.org/</dc:title>
     </cc:Agent>
    </dc:creator>
   </cc:Work>
  </rdf:RDF>
 </metadata>
 <defs>
  <style type="text/css">*{stroke-linejoin: round; stroke-linecap: butt}</style>
 </defs>
 <g id="figure_1">
  <g id="patch_1">
   <path d="M 0 345.706375 
L 606.61975 345.706375 
L 606.61975 -0 
L 0 -0 
L 0 345.706375 
z
" style="fill: none; opacity: 0"/>
  </g>
  <g id="axes_1">
   <g id="patch_2">
    <path d="M 59.690625 307.872 
L 416.810625 307.872 
L 416.810625 41.76 
L 59.690625 41.76 
z
" style="fill: #ffffff"/>
   </g>
   <g id="matplotlib.axis_1">
    <g id="xtick_1">
     <g id="line2d_1">
      <defs>
       <path id="m7af1db3ff2" d="M 0 0 
L 0 3.5 
" style="stroke: #000000; stroke-width: 0.8"/>
      </defs>
      <g>
       <use xlink:href="#m7af1db3ff2" x="72.644013" y="307.872" style="stroke: #000000; stroke-width: 0.8"/>
      </g>
     </g>
     <g id="text_1">
      <!-- 0.0 -->
      <g transform="translate(64.692451 322.470438) scale(0.1 -0.1)">
       <defs>
        <path id="DejaVuSans-30" d="M 2034 4250 
Q 1547 4250 1301 3770 
Q 1056 3291 1056 2328 
Q 1056 1369 1301 889 
Q 1547 409 2034 409 
Q 2525 409 2770 889 
Q 3016 1369 3016 2328 
Q 3016 3291 2770 3770 
Q 2525 4250 2034 4250 
z
M 2034 4750 
Q 2819 4750 3233 4129 
Q 3647 3509 3647 2328 
Q 3647 1150 3233 529 
Q 2819 -91 2034 -91 
Q 1250 -91 836 529 
Q 422 1150 422 2328 
Q 422 3509 836 4129 
Q 1250 4750 2034 4750 
z
" transform="scale(0.015625)"/>
        <path id="DejaVuSans-2e" d="M 684 794 
L 1344 794 
L 1344 0 
L 684 0 
L 684 794 
z
" transform="scale(0.015625)"/>
       </defs>
       <use xlink:href="#DejaVuSans-30"/>
       <use xlink:href="#DejaVuSans-2e" x="63.623047"/>
       <use xlink:href="#DejaVuSans-30" x="95.410156"/>
      </g>
     </g>
    </g>
    <g id="xtick_2">
     <g id="line2d_2">
      <g>
       <use xlink:href="#m7af1db3ff2" x="138.23079" y="307.872" style="stroke: #000000; stroke-width: 0.8"/>
      </g>
     </g>
     <g id="text_2">
      <!-- 0.2 -->
      <g transform="translate(130.279228 322.470438) scale(0.1 -0.1)">
       <defs>
        <path id="DejaVuSans-32" d="M 1228 531 
L 3431 531 
L 3431 0 
L 469 0 
L 469 531 
Q 828 903 1448 1529 
Q 2069 2156 2228 2338 
Q 2531 2678 2651 2914 
Q 2772 3150 2772 3378 
Q 2772 3750 2511 3984 
Q 2250 4219 1831 4219 
Q 1534 4219 1204 4116 
Q 875 4013 500 3803 
L 500 4441 
Q 881 4594 1212 4672 
Q 1544 4750 1819 4750 
Q 2544 4750 2975 4387 
Q 3406 4025 3406 3419 
Q 3406 3131 3298 2873 
Q 3191 2616 2906 2266 
Q 2828 2175 2409 1742 
Q 1991 1309 1228 531 
z
" transform="scale(0.015625)"/>
       </defs>
       <use xlink:href="#DejaVuSans-30"/>
       <use xlink:href="#DejaVuSans-2e" x="63.623047"/>
       <use xlink:href="#DejaVuSans-32" x="95.410156"/>
      </g>
     </g>
    </g>
    <g id="xtick_3">
     <g id="line2d_3">
      <g>
       <use xlink:href="#m7af1db3ff2" x="203.817567" y="307.872" style="stroke: #000000; stroke-width: 0.8"/>
      </g>
     </g>
     <g id="text_3">
      <!-- 0.4 -->
      <g transform="translate(195.866005 322.470438) scale(0.1 -0.1)">
       <defs>
        <path id="DejaVuSans-34" d="M 2419 4116 
L 825 1625 
L 2419 1625 
L 2419 4116 
z
M 2253 4666 
L 3047 4666 
L 3047 1625 
L 3713 1625 
L 3713 1100 
L 3047 1100 
L 3047 0 
L 2419 0 
L 2419 1100 
L 313 1100 
L 313 1709 
L 2253 4666 
z
" transform="scale(0.015625)"/>
       </defs>
       <use xlink:href="#DejaVuSans-30"/>
       <use xlink:href="#DejaVuSans-2e" x="63.623047"/>
       <use xlink:href="#DejaVuSans-34" x="95.410156"/>
      </g>
     </g>
    </g>
    <g id="xtick_4">
     <g id="line2d_4">
      <g>
       <use xlink:href="#m7af1db3ff2" x="269.404344" y="307.872" style="stroke: #000000; stroke-width: 0.8"/>
      </g>
     </g>
     <g id="text_4">
      <!-- 0.6 -->
      <g transform="translate(261.452782 322.470438) scale(0.1 -0.1)">
       <defs>
        <path id="DejaVuSans-36" d="M 2113 2584 
Q 1688 2584 1439 2293 
Q 1191 2003 1191 1497 
Q 1191 994 1439 701 
Q 1688 409 2113 409 
Q 2538 409 2786 701 
Q 3034 994 3034 1497 
Q 3034 2003 2786 2293 
Q 2538 2584 2113 2584 
z
M 3366 4563 
L 3366 3988 
Q 3128 4100 2886 4159 
Q 2644 4219 2406 4219 
Q 1781 4219 1451 3797 
Q 1122 3375 1075 2522 
Q 1259 2794 1537 2939 
Q 1816 3084 2150 3084 
Q 2853 3084 3261 2657 
Q 3669 2231 3669 1497 
Q 3669 778 3244 343 
Q 2819 -91 2113 -91 
Q 1303 -91 875 529 
Q 447 1150 447 2328 
Q 447 3434 972 4092 
Q 1497 4750 2381 4750 
Q 2619 4750 2861 4703 
Q 3103 4656 3366 4563 
z
" transform="scale(0.015625)"/>
       </defs>
       <use xlink:href="#DejaVuSans-30"/>
       <use xlink:href="#DejaVuSans-2e" x="63.623047"/>
       <use xlink:href="#DejaVuSans-36" x="95.410156"/>
      </g>
     </g>
    </g>
    <g id="xtick_5">
     <g id="line2d_5">
      <g>
       <use xlink:href="#m7af1db3ff2" x="334.991121" y="307.872" style="stroke: #000000; stroke-width: 0.8"/>
      </g>
     </g>
     <g id="text_5">
      <!-- 0.8 -->
      <g transform="translate(327.039558 322.470438) scale(0.1 -0.1)">
       <defs>
        <path id="DejaVuSans-38" d="M 2034 2216 
Q 1584 2216 1326 1975 
Q 1069 1734 1069 1313 
Q 1069 891 1326 650 
Q 1584 409 2034 409 
Q 2484 409 2743 651 
Q 3003 894 3003 1313 
Q 3003 1734 2745 1975 
Q 2488 2216 2034 2216 
z
M 1403 2484 
Q 997 2584 770 2862 
Q 544 3141 544 3541 
Q 544 4100 942 4425 
Q 1341 4750 2034 4750 
Q 2731 4750 3128 4425 
Q 3525 4100 3525 3541 
Q 3525 3141 3298 2862 
Q 3072 2584 2669 2484 
Q 3125 2378 3379 2068 
Q 3634 1759 3634 1313 
Q 3634 634 3220 271 
Q 2806 -91 2034 -91 
Q 1263 -91 848 271 
Q 434 634 434 1313 
Q 434 1759 690 2068 
Q 947 2378 1403 2484 
z
M 1172 3481 
Q 1172 3119 1398 2916 
Q 1625 2713 2034 2713 
Q 2441 2713 2670 2916 
Q 2900 3119 2900 3481 
Q 2900 3844 2670 4047 
Q 2441 4250 2034 4250 
Q 1625 4250 1398 4047 
Q 1172 3844 1172 3481 
z
" transform="scale(0.015625)"/>
       </defs>
       <use xlink:href="#DejaVuSans-30"/>
       <use xlink:href="#DejaVuSans-2e" x="63.623047"/>
       <use xlink:href="#DejaVuSans-38" x="95.410156"/>
      </g>
     </g>
    </g>
    <g id="xtick_6">
     <g id="line2d_6">
      <g>
       <use xlink:href="#m7af1db3ff2" x="400.577898" y="307.872" style="stroke: #000000; stroke-width: 0.8"/>
      </g>
     </g>
     <g id="text_6">
      <!-- 1.0 -->
      <g transform="translate(392.626335 322.470438) scale(0.1 -0.1)">
       <defs>
        <path id="DejaVuSans-31" d="M 794 531 
L 1825 531 
L 1825 4091 
L 703 3866 
L 703 4441 
L 1819 4666 
L 2450 4666 
L 2450 531 
L 3481 531 
L 3481 0 
L 794 0 
L 794 531 
z
" transform="scale(0.015625)"/>
       </defs>
       <use xlink:href="#DejaVuSans-31"/>
       <use xlink:href="#DejaVuSans-2e" x="63.623047"/>
       <use xlink:href="#DejaVuSans-30" x="95.410156"/>
      </g>
     </g>
    </g>
    <g id="text_7">
     <!-- q00 spec_ro Readout-spectroscopy pulse amplitude -->
     <g transform="translate(108.900625 336.148562) scale(0.1 -0.1)">
      <defs>
       <path id="DejaVuSans-71" d="M 947 1747 
Q 947 1113 1208 752 
Q 1469 391 1925 391 
Q 2381 391 2643 752 
Q 2906 1113 2906 1747 
Q 2906 2381 2643 2742 
Q 2381 3103 1925 3103 
Q 1469 3103 1208 2742 
Q 947 2381 947 1747 
z
M 2906 525 
Q 2725 213 2448 61 
Q 2172 -91 1784 -91 
Q 1150 -91 751 415 
Q 353 922 353 1747 
Q 353 2572 751 3078 
Q 1150 3584 1784 3584 
Q 2172 3584 2448 3432 
Q 2725 3281 2906 2969 
L 2906 3500 
L 3481 3500 
L 3481 -1331 
L 2906 -1331 
L 2906 525 
z
" transform="scale(0.015625)"/>
       <path id="DejaVuSans-20" transform="scale(0.015625)"/>
       <path id="DejaVuSans-73" d="M 2834 3397 
L 2834 2853 
Q 2591 2978 2328 3040 
Q 2066 3103 1784 3103 
Q 1356 3103 1142 2972 
Q 928 2841 928 2578 
Q 928 2378 1081 2264 
Q 1234 2150 1697 2047 
L 1894 2003 
Q 2506 1872 2764 1633 
Q 3022 1394 3022 966 
Q 3022 478 2636 193 
Q 2250 -91 1575 -91 
Q 1294 -91 989 -36 
Q 684 19 347 128 
L 347 722 
Q 666 556 975 473 
Q 1284 391 1588 391 
Q 1994 391 2212 530 
Q 2431 669 2431 922 
Q 2431 1156 2273 1281 
Q 2116 1406 1581 1522 
L 1381 1569 
Q 847 1681 609 1914 
Q 372 2147 372 2553 
Q 372 3047 722 3315 
Q 1072 3584 1716 3584 
Q 2034 3584 2315 3537 
Q 2597 3491 2834 3397 
z
" transform="scale(0.015625)"/>
       <path id="DejaVuSans-70" d="M 1159 525 
L 1159 -1331 
L 581 -1331 
L 581 3500 
L 1159 3500 
L 1159 2969 
Q 1341 3281 1617 3432 
Q 1894 3584 2278 3584 
Q 2916 3584 3314 3078 
Q 3713 2572 3713 1747 
Q 3713 922 3314 415 
Q 2916 -91 2278 -91 
Q 1894 -91 1617 61 
Q 1341 213 1159 525 
z
M 3116 1747 
Q 3116 2381 2855 2742 
Q 2594 3103 2138 3103 
Q 1681 3103 1420 2742 
Q 1159 2381 1159 1747 
Q 1159 1113 1420 752 
Q 1681 391 2138 391 
Q 2594 391 2855 752 
Q 3116 1113 3116 1747 
z
" transform="scale(0.015625)"/>
       <path id="DejaVuSans-65" d="M 3597 1894 
L 3597 1613 
L 953 1613 
Q 991 1019 1311 708 
Q 1631 397 2203 397 
Q 2534 397 2845 478 
Q 3156 559 3463 722 
L 3463 178 
Q 3153 47 2828 -22 
Q 2503 -91 2169 -91 
Q 1331 -91 842 396 
Q 353 884 353 1716 
Q 353 2575 817 3079 
Q 1281 3584 2069 3584 
Q 2775 3584 3186 3129 
Q 3597 2675 3597 1894 
z
M 3022 2063 
Q 3016 2534 2758 2815 
Q 2500 3097 2075 3097 
Q 1594 3097 1305 2825 
Q 1016 2553 972 2059 
L 3022 2063 
z
" transform="scale(0.015625)"/>
       <path id="DejaVuSans-63" d="M 3122 3366 
L 3122 2828 
Q 2878 2963 2633 3030 
Q 2388 3097 2138 3097 
Q 1578 3097 1268 2742 
Q 959 2388 959 1747 
Q 959 1106 1268 751 
Q 1578 397 2138 397 
Q 2388 397 2633 464 
Q 2878 531 3122 666 
L 3122 134 
Q 2881 22 2623 -34 
Q 2366 -91 2075 -91 
Q 1284 -91 818 406 
Q 353 903 353 1747 
Q 353 2603 823 3093 
Q 1294 3584 2113 3584 
Q 2378 3584 2631 3529 
Q 2884 3475 3122 3366 
z
" transform="scale(0.015625)"/>
       <path id="DejaVuSans-5f" d="M 3263 -1063 
L 3263 -1509 
L -63 -1509 
L -63 -1063 
L 3263 -1063 
z
" transform="scale(0.015625)"/>
       <path id="DejaVuSans-72" d="M 2631 2963 
Q 2534 3019 2420 3045 
Q 2306 3072 2169 3072 
Q 1681 3072 1420 2755 
Q 1159 2438 1159 1844 
L 1159 0 
L 581 0 
L 581 3500 
L 1159 3500 
L 1159 2956 
Q 1341 3275 1631 3429 
Q 1922 3584 2338 3584 
Q 2397 3584 2469 3576 
Q 2541 3569 2628 3553 
L 2631 2963 
z
" transform="scale(0.015625)"/>
       <path id="DejaVuSans-6f" d="M 1959 3097 
Q 1497 3097 1228 2736 
Q 959 2375 959 1747 
Q 959 1119 1226 758 
Q 1494 397 1959 397 
Q 2419 397 2687 759 
Q 2956 1122 2956 1747 
Q 2956 2369 2687 2733 
Q 2419 3097 1959 3097 
z
M 1959 3584 
Q 2709 3584 3137 3096 
Q 3566 2609 3566 1747 
Q 3566 888 3137 398 
Q 2709 -91 1959 -91 
Q 1206 -91 779 398 
Q 353 888 353 1747 
Q 353 2609 779 3096 
Q 1206 3584 1959 3584 
z
" transform="scale(0.015625)"/>
       <path id="DejaVuSans-52" d="M 2841 2188 
Q 3044 2119 3236 1894 
Q 3428 1669 3622 1275 
L 4263 0 
L 3584 0 
L 2988 1197 
Q 2756 1666 2539 1819 
Q 2322 1972 1947 1972 
L 1259 1972 
L 1259 0 
L 628 0 
L 628 4666 
L 2053 4666 
Q 2853 4666 3247 4331 
Q 3641 3997 3641 3322 
Q 3641 2881 3436 2590 
Q 3231 2300 2841 2188 
z
M 1259 4147 
L 1259 2491 
L 2053 2491 
Q 2509 2491 2742 2702 
Q 2975 2913 2975 3322 
Q 2975 3731 2742 3939 
Q 2509 4147 2053 4147 
L 1259 4147 
z
" transform="scale(0.015625)"/>
       <path id="DejaVuSans-61" d="M 2194 1759 
Q 1497 1759 1228 1600 
Q 959 1441 959 1056 
Q 959 750 1161 570 
Q 1363 391 1709 391 
Q 2188 391 2477 730 
Q 2766 1069 2766 1631 
L 2766 1759 
L 2194 1759 
z
M 3341 1997 
L 3341 0 
L 2766 0 
L 2766 531 
Q 2569 213 2275 61 
Q 1981 -91 1556 -91 
Q 1019 -91 701 211 
Q 384 513 384 1019 
Q 384 1609 779 1909 
Q 1175 2209 1959 2209 
L 2766 2209 
L 2766 2266 
Q 2766 2663 2505 2880 
Q 2244 3097 1772 3097 
Q 1472 3097 1187 3025 
Q 903 2953 641 2809 
L 641 3341 
Q 956 3463 1253 3523 
Q 1550 3584 1831 3584 
Q 2591 3584 2966 3190 
Q 3341 2797 3341 1997 
z
" transform="scale(0.015625)"/>
       <path id="DejaVuSans-64" d="M 2906 2969 
L 2906 4863 
L 3481 4863 
L 3481 0 
L 2906 0 
L 2906 525 
Q 2725 213 2448 61 
Q 2172 -91 1784 -91 
Q 1150 -91 751 415 
Q 353 922 353 1747 
Q 353 2572 751 3078 
Q 1150 3584 1784 3584 
Q 2172 3584 2448 3432 
Q 2725 3281 2906 2969 
z
M 947 1747 
Q 947 1113 1208 752 
Q 1469 391 1925 391 
Q 2381 391 2643 752 
Q 2906 1113 2906 1747 
Q 2906 2381 2643 2742 
Q 2381 3103 1925 3103 
Q 1469 3103 1208 2742 
Q 947 2381 947 1747 
z
" transform="scale(0.015625)"/>
       <path id="DejaVuSans-75" d="M 544 1381 
L 544 3500 
L 1119 3500 
L 1119 1403 
Q 1119 906 1312 657 
Q 1506 409 1894 409 
Q 2359 409 2629 706 
Q 2900 1003 2900 1516 
L 2900 3500 
L 3475 3500 
L 3475 0 
L 2900 0 
L 2900 538 
Q 2691 219 2414 64 
Q 2138 -91 1772 -91 
Q 1169 -91 856 284 
Q 544 659 544 1381 
z
M 1991 3584 
L 1991 3584 
z
" transform="scale(0.015625)"/>
       <path id="DejaVuSans-74" d="M 1172 4494 
L 1172 3500 
L 2356 3500 
L 2356 3053 
L 1172 3053 
L 1172 1153 
Q 1172 725 1289 603 
Q 1406 481 1766 481 
L 2356 481 
L 2356 0 
L 1766 0 
Q 1100 0 847 248 
Q 594 497 594 1153 
L 594 3053 
L 172 3053 
L 172 3500 
L 594 3500 
L 594 4494 
L 1172 4494 
z
" transform="scale(0.015625)"/>
       <path id="DejaVuSans-2d" d="M 313 2009 
L 1997 2009 
L 1997 1497 
L 313 1497 
L 313 2009 
z
" transform="scale(0.015625)"/>
       <path id="DejaVuSans-79" d="M 2059 -325 
Q 1816 -950 1584 -1140 
Q 1353 -1331 966 -1331 
L 506 -1331 
L 506 -850 
L 844 -850 
Q 1081 -850 1212 -737 
Q 1344 -625 1503 -206 
L 1606 56 
L 191 3500 
L 800 3500 
L 1894 763 
L 2988 3500 
L 3597 3500 
L 2059 -325 
z
" transform="scale(0.015625)"/>
       <path id="DejaVuSans-6c" d="M 603 4863 
L 1178 4863 
L 1178 0 
L 603 0 
L 603 4863 
z
" transform="scale(0.015625)"/>
       <path id="DejaVuSans-6d" d="M 3328 2828 
Q 3544 3216 3844 3400 
Q 4144 3584 4550 3584 
Q 5097 3584 5394 3201 
Q 5691 2819 5691 2113 
L 5691 0 
L 5113 0 
L 5113 2094 
Q 5113 2597 4934 2840 
Q 4756 3084 4391 3084 
Q 3944 3084 3684 2787 
Q 3425 2491 3425 1978 
L 3425 0 
L 2847 0 
L 2847 2094 
Q 2847 2600 2669 2842 
Q 2491 3084 2119 3084 
Q 1678 3084 1418 2786 
Q 1159 2488 1159 1978 
L 1159 0 
L 581 0 
L 581 3500 
L 1159 3500 
L 1159 2956 
Q 1356 3278 1631 3431 
Q 1906 3584 2284 3584 
Q 2666 3584 2933 3390 
Q 3200 3197 3328 2828 
z
" transform="scale(0.015625)"/>
       <path id="DejaVuSans-69" d="M 603 3500 
L 1178 3500 
L 1178 0 
L 603 0 
L 603 3500 
z
M 603 4863 
L 1178 4863 
L 1178 4134 
L 603 4134 
L 603 4863 
z
" transform="scale(0.015625)"/>
      </defs>
      <use xlink:href="#DejaVuSans-71"/>
      <use xlink:href="#DejaVuSans-30" x="63.476562"/>
      <use xlink:href="#DejaVuSans-30" x="127.099609"/>
      <use xlink:href="#DejaVuSans-20" x="190.722656"/>
      <use xlink:href="#DejaVuSans-73" x="222.509766"/>
      <use xlink:href="#DejaVuSans-70" x="274.609375"/>
      <use xlink:href="#DejaVuSans-65" x="338.085938"/>
      <use xlink:href="#DejaVuSans-63" x="399.609375"/>
      <use xlink:href="#DejaVuSans-5f" x="454.589844"/>
      <use xlink:href="#DejaVuSans-72" x="504.589844"/>
      <use xlink:href="#DejaVuSans-6f" x="543.453125"/>
      <use xlink:href="#DejaVuSans-20" x="604.634766"/>
      <use xlink:href="#DejaVuSans-52" x="636.421875"/>
      <use xlink:href="#DejaVuSans-65" x="701.404297"/>
      <use xlink:href="#DejaVuSans-61" x="762.927734"/>
      <use xlink:href="#DejaVuSans-64" x="824.207031"/>
      <use xlink:href="#DejaVuSans-6f" x="887.683594"/>
      <use xlink:href="#DejaVuSans-75" x="948.865234"/>
      <use xlink:href="#DejaVuSans-74" x="1012.244141"/>
      <use xlink:href="#DejaVuSans-2d" x="1051.453125"/>
      <use xlink:href="#DejaVuSans-73" x="1087.537109"/>
      <use xlink:href="#DejaVuSans-70" x="1139.636719"/>
      <use xlink:href="#DejaVuSans-65" x="1203.113281"/>
      <use xlink:href="#DejaVuSans-63" x="1264.636719"/>
      <use xlink:href="#DejaVuSans-74" x="1319.617188"/>
      <use xlink:href="#DejaVuSans-72" x="1358.826172"/>
      <use xlink:href="#DejaVuSans-6f" x="1397.689453"/>
      <use xlink:href="#DejaVuSans-73" x="1458.871094"/>
      <use xlink:href="#DejaVuSans-63" x="1510.970703"/>
      <use xlink:href="#DejaVuSans-6f" x="1565.951172"/>
      <use xlink:href="#DejaVuSans-70" x="1627.132812"/>
      <use xlink:href="#DejaVuSans-79" x="1690.609375"/>
      <use xlink:href="#DejaVuSans-20" x="1749.789062"/>
      <use xlink:href="#DejaVuSans-70" x="1781.576172"/>
      <use xlink:href="#DejaVuSans-75" x="1845.052734"/>
      <use xlink:href="#DejaVuSans-6c" x="1908.431641"/>
      <use xlink:href="#DejaVuSans-73" x="1936.214844"/>
      <use xlink:href="#DejaVuSans-65" x="1988.314453"/>
      <use xlink:href="#DejaVuSans-20" x="2049.837891"/>
      <use xlink:href="#DejaVuSans-61" x="2081.625"/>
      <use xlink:href="#DejaVuSans-6d" x="2142.904297"/>
      <use xlink:href="#DejaVuSans-70" x="2240.316406"/>
      <use xlink:href="#DejaVuSans-6c" x="2303.792969"/>
      <use xlink:href="#DejaVuSans-69" x="2331.576172"/>
      <use xlink:href="#DejaVuSans-74" x="2359.359375"/>
      <use xlink:href="#DejaVuSans-75" x="2398.568359"/>
      <use xlink:href="#DejaVuSans-64" x="2461.947266"/>
      <use xlink:href="#DejaVuSans-65" x="2525.423828"/>
     </g>
    </g>
   </g>
   <g id="matplotlib.axis_2">
    <g id="ytick_1">
     <g id="line2d_7">
      <defs>
       <path id="m18169e974f" d="M 0 0 
L -3.5 0 
" style="stroke: #000000; stroke-width: 0.8"/>
      </defs>
      <g>
       <use xlink:href="#m18169e974f" x="59.690625" y="292.190997" style="stroke: #000000; stroke-width: 0.8"/>
      </g>
     </g>
     <g id="text_8">
      <!-- 95800 -->
      <g transform="translate(20.878125 295.990216) scale(0.1 -0.1)">
       <defs>
        <path id="DejaVuSans-39" d="M 703 97 
L 703 672 
Q 941 559 1184 500 
Q 1428 441 1663 441 
Q 2288 441 2617 861 
Q 2947 1281 2994 2138 
Q 2813 1869 2534 1725 
Q 2256 1581 1919 1581 
Q 1219 1581 811 2004 
Q 403 2428 403 3163 
Q 403 3881 828 4315 
Q 1253 4750 1959 4750 
Q 2769 4750 3195 4129 
Q 3622 3509 3622 2328 
Q 3622 1225 3098 567 
Q 2575 -91 1691 -91 
Q 1453 -91 1209 -44 
Q 966 3 703 97 
z
M 1959 2075 
Q 2384 2075 2632 2365 
Q 2881 2656 2881 3163 
Q 2881 3666 2632 3958 
Q 2384 4250 1959 4250 
Q 1534 4250 1286 3958 
Q 1038 3666 1038 3163 
Q 1038 2656 1286 2365 
Q 1534 2075 1959 2075 
z
" transform="scale(0.015625)"/>
        <path id="DejaVuSans-35" d="M 691 4666 
L 3169 4666 
L 3169 4134 
L 1269 4134 
L 1269 2991 
Q 1406 3038 1543 3061 
Q 1681 3084 1819 3084 
Q 2600 3084 3056 2656 
Q 3513 2228 3513 1497 
Q 3513 744 3044 326 
Q 2575 -91 1722 -91 
Q 1428 -91 1123 -41 
Q 819 9 494 109 
L 494 744 
Q 775 591 1075 516 
Q 1375 441 1709 441 
Q 2250 441 2565 725 
Q 2881 1009 2881 1497 
Q 2881 1984 2565 2268 
Q 2250 2553 1709 2553 
Q 1456 2553 1204 2497 
Q 953 2441 691 2322 
L 691 4666 
z
" transform="scale(0.015625)"/>
       </defs>
       <use xlink:href="#DejaVuSans-39"/>
       <use xlink:href="#DejaVuSans-35" x="63.623047"/>
       <use xlink:href="#DejaVuSans-38" x="127.246094"/>
       <use xlink:href="#DejaVuSans-30" x="190.869141"/>
       <use xlink:href="#DejaVuSans-30" x="254.492188"/>
      </g>
     </g>
    </g>
    <g id="ytick_2">
     <g id="line2d_8">
      <g>
       <use xlink:href="#m18169e974f" x="59.690625" y="253.391889" style="stroke: #000000; stroke-width: 0.8"/>
      </g>
     </g>
     <g id="text_9">
      <!-- 95900 -->
      <g transform="translate(20.878125 257.191108) scale(0.1 -0.1)">
       <use xlink:href="#DejaVuSans-39"/>
       <use xlink:href="#DejaVuSans-35" x="63.623047"/>
       <use xlink:href="#DejaVuSans-39" x="127.246094"/>
       <use xlink:href="#DejaVuSans-30" x="190.869141"/>
       <use xlink:href="#DejaVuSans-30" x="254.492188"/>
      </g>
     </g>
    </g>
    <g id="ytick_3">
     <g id="line2d_9">
      <g>
       <use xlink:href="#m18169e974f" x="59.690625" y="214.592781" style="stroke: #000000; stroke-width: 0.8"/>
      </g>
     </g>
     <g id="text_10">
      <!-- 96000 -->
      <g transform="translate(20.878125 218.391999) scale(0.1 -0.1)">
       <use xlink:href="#DejaVuSans-39"/>
       <use xlink:href="#DejaVuSans-36" x="63.623047"/>
       <use xlink:href="#DejaVuSans-30" x="127.246094"/>
       <use xlink:href="#DejaVuSans-30" x="190.869141"/>
       <use xlink:href="#DejaVuSans-30" x="254.492188"/>
      </g>
     </g>
    </g>
    <g id="ytick_4">
     <g id="line2d_10">
      <g>
       <use xlink:href="#m18169e974f" x="59.690625" y="175.793672" style="stroke: #000000; stroke-width: 0.8"/>
      </g>
     </g>
     <g id="text_11">
      <!-- 96100 -->
      <g transform="translate(20.878125 179.592891) scale(0.1 -0.1)">
       <use xlink:href="#DejaVuSans-39"/>
       <use xlink:href="#DejaVuSans-36" x="63.623047"/>
       <use xlink:href="#DejaVuSans-31" x="127.246094"/>
       <use xlink:href="#DejaVuSans-30" x="190.869141"/>
       <use xlink:href="#DejaVuSans-30" x="254.492188"/>
      </g>
     </g>
    </g>
    <g id="ytick_5">
     <g id="line2d_11">
      <g>
       <use xlink:href="#m18169e974f" x="59.690625" y="136.994564" style="stroke: #000000; stroke-width: 0.8"/>
      </g>
     </g>
     <g id="text_12">
      <!-- 96200 -->
      <g transform="translate(20.878125 140.793782) scale(0.1 -0.1)">
       <use xlink:href="#DejaVuSans-39"/>
       <use xlink:href="#DejaVuSans-36" x="63.623047"/>
       <use xlink:href="#DejaVuSans-32" x="127.246094"/>
       <use xlink:href="#DejaVuSans-30" x="190.869141"/>
       <use xlink:href="#DejaVuSans-30" x="254.492188"/>
      </g>
     </g>
    </g>
    <g id="ytick_6">
     <g id="line2d_12">
      <g>
       <use xlink:href="#m18169e974f" x="59.690625" y="98.195455" style="stroke: #000000; stroke-width: 0.8"/>
      </g>
     </g>
     <g id="text_13">
      <!-- 96300 -->
      <g transform="translate(20.878125 101.994674) scale(0.1 -0.1)">
       <defs>
        <path id="DejaVuSans-33" d="M 2597 2516 
Q 3050 2419 3304 2112 
Q 3559 1806 3559 1356 
Q 3559 666 3084 287 
Q 2609 -91 1734 -91 
Q 1441 -91 1130 -33 
Q 819 25 488 141 
L 488 750 
Q 750 597 1062 519 
Q 1375 441 1716 441 
Q 2309 441 2620 675 
Q 2931 909 2931 1356 
Q 2931 1769 2642 2001 
Q 2353 2234 1838 2234 
L 1294 2234 
L 1294 2753 
L 1863 2753 
Q 2328 2753 2575 2939 
Q 2822 3125 2822 3475 
Q 2822 3834 2567 4026 
Q 2313 4219 1838 4219 
Q 1578 4219 1281 4162 
Q 984 4106 628 3988 
L 628 4550 
Q 988 4650 1302 4700 
Q 1616 4750 1894 4750 
Q 2613 4750 3031 4423 
Q 3450 4097 3450 3541 
Q 3450 3153 3228 2886 
Q 3006 2619 2597 2516 
z
" transform="scale(0.015625)"/>
       </defs>
       <use xlink:href="#DejaVuSans-39"/>
       <use xlink:href="#DejaVuSans-36" x="63.623047"/>
       <use xlink:href="#DejaVuSans-33" x="127.246094"/>
       <use xlink:href="#DejaVuSans-30" x="190.869141"/>
       <use xlink:href="#DejaVuSans-30" x="254.492188"/>
      </g>
     </g>
    </g>
    <g id="ytick_7">
     <g id="line2d_13">
      <g>
       <use xlink:href="#m18169e974f" x="59.690625" y="59.396347" style="stroke: #000000; stroke-width: 0.8"/>
      </g>
     </g>
     <g id="text_14">
      <!-- 96400 -->
      <g transform="translate(20.878125 63.195565) scale(0.1 -0.1)">
       <use xlink:href="#DejaVuSans-39"/>
       <use xlink:href="#DejaVuSans-36" x="63.623047"/>
       <use xlink:href="#DejaVuSans-34" x="127.246094"/>
       <use xlink:href="#DejaVuSans-30" x="190.869141"/>
       <use xlink:href="#DejaVuSans-30" x="254.492188"/>
      </g>
     </g>
    </g>
    <g id="text_15">
     <!-- $f_{\rm res}$ [kHz] -->
     <g transform="translate(14.798438 196.916) rotate(-90) scale(0.1 -0.1)">
      <defs>
       <path id="DejaVuSans-Oblique-66" d="M 3059 4863 
L 2969 4384 
L 2419 4384 
Q 2106 4384 1964 4261 
Q 1822 4138 1753 3809 
L 1691 3500 
L 2638 3500 
L 2553 3053 
L 1606 3053 
L 1013 0 
L 434 0 
L 1031 3053 
L 481 3053 
L 563 3500 
L 1113 3500 
L 1159 3744 
Q 1278 4363 1576 4613 
Q 1875 4863 2516 4863 
L 3059 4863 
z
" transform="scale(0.015625)"/>
       <path id="DejaVuSans-5b" d="M 550 4863 
L 1875 4863 
L 1875 4416 
L 1125 4416 
L 1125 -397 
L 1875 -397 
L 1875 -844 
L 550 -844 
L 550 4863 
z
" transform="scale(0.015625)"/>
       <path id="DejaVuSans-6b" d="M 581 4863 
L 1159 4863 
L 1159 1991 
L 2875 3500 
L 3609 3500 
L 1753 1863 
L 3688 0 
L 2938 0 
L 1159 1709 
L 1159 0 
L 581 0 
L 581 4863 
z
" transform="scale(0.015625)"/>
       <path id="DejaVuSans-48" d="M 628 4666 
L 1259 4666 
L 1259 2753 
L 3553 2753 
L 3553 4666 
L 4184 4666 
L 4184 0 
L 3553 0 
L 3553 2222 
L 1259 2222 
L 1259 0 
L 628 0 
L 628 4666 
z
" transform="scale(0.015625)"/>
       <path id="DejaVuSans-7a" d="M 353 3500 
L 3084 3500 
L 3084 2975 
L 922 459 
L 3084 459 
L 3084 0 
L 275 0 
L 275 525 
L 2438 3041 
L 353 3041 
L 353 3500 
z
" transform="scale(0.015625)"/>
       <path id="DejaVuSans-5d" d="M 1947 4863 
L 1947 -844 
L 622 -844 
L 622 -397 
L 1369 -397 
L 1369 4416 
L 622 4416 
L 622 4863 
L 1947 4863 
z
" transform="scale(0.015625)"/>
      </defs>
      <use xlink:href="#DejaVuSans-Oblique-66" transform="translate(0 0.015625)"/>
      <use xlink:href="#DejaVuSans-72" transform="translate(35.205078 -16.390625) scale(0.7)"/>
      <use xlink:href="#DejaVuSans-65" transform="translate(63.984375 -16.390625) scale(0.7)"/>
      <use xlink:href="#DejaVuSans-73" transform="translate(107.050781 -16.390625) scale(0.7)"/>
      <use xlink:href="#DejaVuSans-20" transform="translate(146.254883 0.015625)"/>
      <use xlink:href="#DejaVuSans-5b" transform="translate(178.041992 0.015625)"/>
      <use xlink:href="#DejaVuSans-6b" transform="translate(217.055664 0.015625)"/>
      <use xlink:href="#DejaVuSans-48" transform="translate(274.96582 0.015625)"/>
      <use xlink:href="#DejaVuSans-7a" transform="translate(350.161133 0.015625)"/>
      <use xlink:href="#DejaVuSans-5d" transform="translate(402.651367 0.015625)"/>
     </g>
    </g>
    <g id="text_16">
     <!-- +7 GHz -->
     <g transform="translate(59.690625 38.76) scale(0.1 -0.1)">
      <defs>
       <path id="DejaVuSans-2b" d="M 2944 4013 
L 2944 2272 
L 4684 2272 
L 4684 1741 
L 2944 1741 
L 2944 0 
L 2419 0 
L 2419 1741 
L 678 1741 
L 678 2272 
L 2419 2272 
L 2419 4013 
L 2944 4013 
z
" transform="scale(0.015625)"/>
       <path id="DejaVuSans-37" d="M 525 4666 
L 3525 4666 
L 3525 4397 
L 1831 0 
L 1172 0 
L 2766 4134 
L 525 4134 
L 525 4666 
z
" transform="scale(0.015625)"/>
       <path id="DejaVuSans-47" d="M 3809 666 
L 3809 1919 
L 2778 1919 
L 2778 2438 
L 4434 2438 
L 4434 434 
Q 4069 175 3628 42 
Q 3188 -91 2688 -91 
Q 1594 -91 976 548 
Q 359 1188 359 2328 
Q 359 3472 976 4111 
Q 1594 4750 2688 4750 
Q 3144 4750 3555 4637 
Q 3966 4525 4313 4306 
L 4313 3634 
Q 3963 3931 3569 4081 
Q 3175 4231 2741 4231 
Q 1884 4231 1454 3753 
Q 1025 3275 1025 2328 
Q 1025 1384 1454 906 
Q 1884 428 2741 428 
Q 3075 428 3337 486 
Q 3600 544 3809 666 
z
" transform="scale(0.015625)"/>
      </defs>
      <use xlink:href="#DejaVuSans-2b"/>
      <use xlink:href="#DejaVuSans-37" x="83.789062"/>
      <use xlink:href="#DejaVuSans-20" x="147.412109"/>
      <use xlink:href="#DejaVuSans-47" x="179.199219"/>
      <use xlink:href="#DejaVuSans-48" x="256.689453"/>
      <use xlink:href="#DejaVuSans-7a" x="331.884766"/>
     </g>
    </g>
   </g>
   <g id="LineCollection_1">
    <path d="M 75.923352 57.597664 
L 75.923352 53.856 
" clip-path="url(#pe7d3fc5100)" style="fill: none; stroke: #1f77b4; stroke-width: 1.5"/>
    <path d="M 92.15608 55.465753 
L 92.15608 54.896325 
" clip-path="url(#pe7d3fc5100)" style="fill: none; stroke: #1f77b4; stroke-width: 1.5"/>
    <path d="M 108.388807 58.138416 
L 108.388807 57.670085 
" clip-path="url(#pe7d3fc5100)" style="fill: none; stroke: #1f77b4; stroke-width: 1.5"/>
    <path d="M 124.621534 61.958096 
L 124.621534 61.255215 
" clip-path="url(#pe7d3fc5100)" style="fill: none; stroke: #1f77b4; stroke-width: 1.5"/>
    <path d="M 140.854261 67.498465 
L 140.854261 66.384323 
" clip-path="url(#pe7d3fc5100)" style="fill: none; stroke: #1f77b4; stroke-width: 1.5"/>
    <path d="M 157.086989 74.270936 
L 157.086989 72.498573 
" clip-path="url(#pe7d3fc5100)" style="fill: none; stroke: #1f77b4; stroke-width: 1.5"/>
    <path d="M 173.319716 93.181253 
L 173.319716 89.872999 
" clip-path="url(#pe7d3fc5100)" style="fill: none; stroke: #1f77b4; stroke-width: 1.5"/>
    <path d="M 189.552443 141.006914 
L 189.552443 130.291955 
" clip-path="url(#pe7d3fc5100)" style="fill: none; stroke: #1f77b4; stroke-width: 1.5"/>
    <path d="M 205.78517 161.607853 
L 205.78517 149.895276 
" clip-path="url(#pe7d3fc5100)" style="fill: none; stroke: #1f77b4; stroke-width: 1.5"/>
    <path d="M 222.017898 177.976835 
L 222.017898 164.805723 
" clip-path="url(#pe7d3fc5100)" style="fill: none; stroke: #1f77b4; stroke-width: 1.5"/>
    <path d="M 238.250625 200.04 
L 238.250625 187.811357 
" clip-path="url(#pe7d3fc5100)" style="fill: none; stroke: #1f77b4; stroke-width: 1.5"/>
    <path d="M 254.483352 210.202642 
L 254.483352 198.26202 
" clip-path="url(#pe7d3fc5100)" style="fill: none; stroke: #1f77b4; stroke-width: 1.5"/>
    <path d="M 270.71608 227.176322 
L 270.71608 217.012195 
" clip-path="url(#pe7d3fc5100)" style="fill: none; stroke: #1f77b4; stroke-width: 1.5"/>
    <path d="M 286.948807 235.690419 
L 286.948807 226.31796 
" clip-path="url(#pe7d3fc5100)" style="fill: none; stroke: #1f77b4; stroke-width: 1.5"/>
    <path d="M 303.181534 256.918125 
L 303.181534 248.253392 
" clip-path="url(#pe7d3fc5100)" style="fill: none; stroke: #1f77b4; stroke-width: 1.5"/>
    <path d="M 319.414261 263.032824 
L 319.414261 255.520942 
" clip-path="url(#pe7d3fc5100)" style="fill: none; stroke: #1f77b4; stroke-width: 1.5"/>
    <path d="M 335.646989 277.844286 
L 335.646989 270.919349 
" clip-path="url(#pe7d3fc5100)" style="fill: none; stroke: #1f77b4; stroke-width: 1.5"/>
    <path d="M 351.879716 279.166821 
L 351.879716 273.216691 
" clip-path="url(#pe7d3fc5100)" style="fill: none; stroke: #1f77b4; stroke-width: 1.5"/>
    <path d="M 368.112443 288.587021 
L 368.112443 282.750668 
" clip-path="url(#pe7d3fc5100)" style="fill: none; stroke: #1f77b4; stroke-width: 1.5"/>
    <path d="M 384.34517 291.277677 
L 384.34517 285.947512 
" clip-path="url(#pe7d3fc5100)" style="fill: none; stroke: #1f77b4; stroke-width: 1.5"/>
    <path d="M 400.577898 295.776 
L 400.577898 290.424751 
" clip-path="url(#pe7d3fc5100)" style="fill: none; stroke: #1f77b4; stroke-width: 1.5"/>
   </g>
   <g id="line2d_14">
    <defs>
     <path id="m00b6b5cbac" d="M 4 0 
L -4 -0 
" style="stroke: #1f77b4"/>
    </defs>
    <g clip-path="url(#pe7d3fc5100)">
     <use xlink:href="#m00b6b5cbac" x="75.923352" y="57.597664" style="fill: #1f77b4; stroke: #1f77b4"/>
     <use xlink:href="#m00b6b5cbac" x="92.15608" y="55.465753" style="fill: #1f77b4; stroke: #1f77b4"/>
     <use xlink:href="#m00b6b5cbac" x="108.388807" y="58.138416" style="fill: #1f77b4; stroke: #1f77b4"/>
     <use xlink:href="#m00b6b5cbac" x="124.621534" y="61.958096" style="fill: #1f77b4; stroke: #1f77b4"/>
     <use xlink:href="#m00b6b5cbac" x="140.854261" y="67.498465" style="fill: #1f77b4; stroke: #1f77b4"/>
     <use xlink:href="#m00b6b5cbac" x="157.086989" y="74.270936" style="fill: #1f77b4; stroke: #1f77b4"/>
     <use xlink:href="#m00b6b5cbac" x="173.319716" y="93.181253" style="fill: #1f77b4; stroke: #1f77b4"/>
     <use xlink:href="#m00b6b5cbac" x="189.552443" y="141.006914" style="fill: #1f77b4; stroke: #1f77b4"/>
     <use xlink:href="#m00b6b5cbac" x="205.78517" y="161.607853" style="fill: #1f77b4; stroke: #1f77b4"/>
     <use xlink:href="#m00b6b5cbac" x="222.017898" y="177.976835" style="fill: #1f77b4; stroke: #1f77b4"/>
     <use xlink:href="#m00b6b5cbac" x="238.250625" y="200.04" style="fill: #1f77b4; stroke: #1f77b4"/>
     <use xlink:href="#m00b6b5cbac" x="254.483352" y="210.202642" style="fill: #1f77b4; stroke: #1f77b4"/>
     <use xlink:href="#m00b6b5cbac" x="270.71608" y="227.176322" style="fill: #1f77b4; stroke: #1f77b4"/>
     <use xlink:href="#m00b6b5cbac" x="286.948807" y="235.690419" style="fill: #1f77b4; stroke: #1f77b4"/>
     <use xlink:href="#m00b6b5cbac" x="303.181534" y="256.918125" style="fill: #1f77b4; stroke: #1f77b4"/>
     <use xlink:href="#m00b6b5cbac" x="319.414261" y="263.032824" style="fill: #1f77b4; stroke: #1f77b4"/>
     <use xlink:href="#m00b6b5cbac" x="335.646989" y="277.844286" style="fill: #1f77b4; stroke: #1f77b4"/>
     <use xlink:href="#m00b6b5cbac" x="351.879716" y="279.166821" style="fill: #1f77b4; stroke: #1f77b4"/>
     <use xlink:href="#m00b6b5cbac" x="368.112443" y="288.587021" style="fill: #1f77b4; stroke: #1f77b4"/>
     <use xlink:href="#m00b6b5cbac" x="384.34517" y="291.277677" style="fill: #1f77b4; stroke: #1f77b4"/>
     <use xlink:href="#m00b6b5cbac" x="400.577898" y="295.776" style="fill: #1f77b4; stroke: #1f77b4"/>
    </g>
   </g>
   <g id="line2d_15">
    <g clip-path="url(#pe7d3fc5100)">
     <use xlink:href="#m00b6b5cbac" x="75.923352" y="53.856" style="fill: #1f77b4; stroke: #1f77b4"/>
     <use xlink:href="#m00b6b5cbac" x="92.15608" y="54.896325" style="fill: #1f77b4; stroke: #1f77b4"/>
     <use xlink:href="#m00b6b5cbac" x="108.388807" y="57.670085" style="fill: #1f77b4; stroke: #1f77b4"/>
     <use xlink:href="#m00b6b5cbac" x="124.621534" y="61.255215" style="fill: #1f77b4; stroke: #1f77b4"/>
     <use xlink:href="#m00b6b5cbac" x="140.854261" y="66.384323" style="fill: #1f77b4; stroke: #1f77b4"/>
     <use xlink:href="#m00b6b5cbac" x="157.086989" y="72.498573" style="fill: #1f77b4; stroke: #1f77b4"/>
     <use xlink:href="#m00b6b5cbac" x="173.319716" y="89.872999" style="fill: #1f77b4; stroke: #1f77b4"/>
     <use xlink:href="#m00b6b5cbac" x="189.552443" y="130.291955" style="fill: #1f77b4; stroke: #1f77b4"/>
     <use xlink:href="#m00b6b5cbac" x="205.78517" y="149.895276" style="fill: #1f77b4; stroke: #1f77b4"/>
     <use xlink:href="#m00b6b5cbac" x="222.017898" y="164.805723" style="fill: #1f77b4; stroke: #1f77b4"/>
     <use xlink:href="#m00b6b5cbac" x="238.250625" y="187.811357" style="fill: #1f77b4; stroke: #1f77b4"/>
     <use xlink:href="#m00b6b5cbac" x="254.483352" y="198.26202" style="fill: #1f77b4; stroke: #1f77b4"/>
     <use xlink:href="#m00b6b5cbac" x="270.71608" y="217.012195" style="fill: #1f77b4; stroke: #1f77b4"/>
     <use xlink:href="#m00b6b5cbac" x="286.948807" y="226.31796" style="fill: #1f77b4; stroke: #1f77b4"/>
     <use xlink:href="#m00b6b5cbac" x="303.181534" y="248.253392" style="fill: #1f77b4; stroke: #1f77b4"/>
     <use xlink:href="#m00b6b5cbac" x="319.414261" y="255.520942" style="fill: #1f77b4; stroke: #1f77b4"/>
     <use xlink:href="#m00b6b5cbac" x="335.646989" y="270.919349" style="fill: #1f77b4; stroke: #1f77b4"/>
     <use xlink:href="#m00b6b5cbac" x="351.879716" y="273.216691" style="fill: #1f77b4; stroke: #1f77b4"/>
     <use xlink:href="#m00b6b5cbac" x="368.112443" y="282.750668" style="fill: #1f77b4; stroke: #1f77b4"/>
     <use xlink:href="#m00b6b5cbac" x="384.34517" y="285.947512" style="fill: #1f77b4; stroke: #1f77b4"/>
     <use xlink:href="#m00b6b5cbac" x="400.577898" y="290.424751" style="fill: #1f77b4; stroke: #1f77b4"/>
    </g>
   </g>
   <g id="line2d_16">
    <defs>
     <path id="m23ab5c2eba" d="M 0 1.5 
C 0.397805 1.5 0.77937 1.341951 1.06066 1.06066 
C 1.341951 0.77937 1.5 0.397805 1.5 0 
C 1.5 -0.397805 1.341951 -0.77937 1.06066 -1.06066 
C 0.77937 -1.341951 0.397805 -1.5 0 -1.5 
C -0.397805 -1.5 -0.77937 -1.341951 -1.06066 -1.06066 
C -1.341951 -0.77937 -1.5 -0.397805 -1.5 0 
C -1.5 0.397805 -1.341951 0.77937 -1.06066 1.06066 
C -0.77937 1.341951 -0.397805 1.5 0 1.5 
z
" style="stroke: #1f77b4"/>
    </defs>
    <g clip-path="url(#pe7d3fc5100)">
     <use xlink:href="#m23ab5c2eba" x="75.923352" y="55.726832" style="fill: #1f77b4; stroke: #1f77b4"/>
     <use xlink:href="#m23ab5c2eba" x="92.15608" y="55.181039" style="fill: #1f77b4; stroke: #1f77b4"/>
     <use xlink:href="#m23ab5c2eba" x="108.388807" y="57.904251" style="fill: #1f77b4; stroke: #1f77b4"/>
     <use xlink:href="#m23ab5c2eba" x="124.621534" y="61.606656" style="fill: #1f77b4; stroke: #1f77b4"/>
     <use xlink:href="#m23ab5c2eba" x="140.854261" y="66.941394" style="fill: #1f77b4; stroke: #1f77b4"/>
     <use xlink:href="#m23ab5c2eba" x="157.086989" y="73.384754" style="fill: #1f77b4; stroke: #1f77b4"/>
     <use xlink:href="#m23ab5c2eba" x="173.319716" y="91.527126" style="fill: #1f77b4; stroke: #1f77b4"/>
     <use xlink:href="#m23ab5c2eba" x="189.552443" y="135.649434" style="fill: #1f77b4; stroke: #1f77b4"/>
     <use xlink:href="#m23ab5c2eba" x="205.78517" y="155.751565" style="fill: #1f77b4; stroke: #1f77b4"/>
     <use xlink:href="#m23ab5c2eba" x="222.017898" y="171.391279" style="fill: #1f77b4; stroke: #1f77b4"/>
     <use xlink:href="#m23ab5c2eba" x="238.250625" y="193.925678" style="fill: #1f77b4; stroke: #1f77b4"/>
     <use xlink:href="#m23ab5c2eba" x="254.483352" y="204.232331" style="fill: #1f77b4; stroke: #1f77b4"/>
     <use xlink:href="#m23ab5c2eba" x="270.71608" y="222.094258" style="fill: #1f77b4; stroke: #1f77b4"/>
     <use xlink:href="#m23ab5c2eba" x="286.948807" y="231.004189" style="fill: #1f77b4; stroke: #1f77b4"/>
     <use xlink:href="#m23ab5c2eba" x="303.181534" y="252.585759" style="fill: #1f77b4; stroke: #1f77b4"/>
     <use xlink:href="#m23ab5c2eba" x="319.414261" y="259.276883" style="fill: #1f77b4; stroke: #1f77b4"/>
     <use xlink:href="#m23ab5c2eba" x="335.646989" y="274.381817" style="fill: #1f77b4; stroke: #1f77b4"/>
     <use xlink:href="#m23ab5c2eba" x="351.879716" y="276.191756" style="fill: #1f77b4; stroke: #1f77b4"/>
     <use xlink:href="#m23ab5c2eba" x="368.112443" y="285.668844" style="fill: #1f77b4; stroke: #1f77b4"/>
     <use xlink:href="#m23ab5c2eba" x="384.34517" y="288.612595" style="fill: #1f77b4; stroke: #1f77b4"/>
     <use xlink:href="#m23ab5c2eba" x="400.577898" y="293.100375" style="fill: #1f77b4; stroke: #1f77b4"/>
    </g>
   </g>
   <g id="patch_3">
    <path d="M 59.690625 307.872 
L 59.690625 41.76 
" style="fill: none; stroke: #000000; stroke-width: 0.8; stroke-linejoin: miter; stroke-linecap: square"/>
   </g>
   <g id="patch_4">
    <path d="M 416.810625 307.872 
L 416.810625 41.76 
" style="fill: none; stroke: #000000; stroke-width: 0.8; stroke-linejoin: miter; stroke-linecap: square"/>
   </g>
   <g id="patch_5">
    <path d="M 59.690625 307.872 
L 416.810625 307.872 
" style="fill: none; stroke: #000000; stroke-width: 0.8; stroke-linejoin: miter; stroke-linecap: square"/>
   </g>
   <g id="patch_6">
    <path d="M 59.690625 41.76 
L 416.810625 41.76 
" style="fill: none; stroke: #000000; stroke-width: 0.8; stroke-linejoin: miter; stroke-linecap: square"/>
   </g>
   <g id="text_17">
    <g id="patch_7">
     <path d="M 434.666625 91.13935 
L 599.41975 91.13935 
Q 603.41975 91.13935 603.41975 87.13935 
L 603.41975 55.0656 
Q 603.41975 51.0656 599.41975 51.0656 
L 434.666625 51.0656 
Q 430.666625 51.0656 430.666625 55.0656 
L 430.666625 87.13935 
Q 430.666625 91.13935 434.666625 91.13935 
z
" style="fill: #ffffff; opacity: 0.5; stroke: #000000; stroke-linejoin: miter"/>
    </g>
    <!-- Warning: -->
    <g transform="translate(434.666625 62.664038) scale(0.1 -0.1)">
     <defs>
      <path id="DejaVuSans-57" d="M 213 4666 
L 850 4666 
L 1831 722 
L 2809 4666 
L 3519 4666 
L 4500 722 
L 5478 4666 
L 6119 4666 
L 4947 0 
L 4153 0 
L 3169 4050 
L 2175 0 
L 1381 0 
L 213 4666 
z
" transform="scale(0.015625)"/>
      <path id="DejaVuSans-6e" d="M 3513 2113 
L 3513 0 
L 2938 0 
L 2938 2094 
Q 2938 2591 2744 2837 
Q 2550 3084 2163 3084 
Q 1697 3084 1428 2787 
Q 1159 2491 1159 1978 
L 1159 0 
L 581 0 
L 581 3500 
L 1159 3500 
L 1159 2956 
Q 1366 3272 1645 3428 
Q 1925 3584 2291 3584 
Q 2894 3584 3203 3211 
Q 3513 2838 3513 2113 
z
" transform="scale(0.015625)"/>
      <path id="DejaVuSans-67" d="M 2906 1791 
Q 2906 2416 2648 2759 
Q 2391 3103 1925 3103 
Q 1463 3103 1205 2759 
Q 947 2416 947 1791 
Q 947 1169 1205 825 
Q 1463 481 1925 481 
Q 2391 481 2648 825 
Q 2906 1169 2906 1791 
z
M 3481 434 
Q 3481 -459 3084 -895 
Q 2688 -1331 1869 -1331 
Q 1566 -1331 1297 -1286 
Q 1028 -1241 775 -1147 
L 775 -588 
Q 1028 -725 1275 -790 
Q 1522 -856 1778 -856 
Q 2344 -856 2625 -561 
Q 2906 -266 2906 331 
L 2906 616 
Q 2728 306 2450 153 
Q 2172 0 1784 0 
Q 1141 0 747 490 
Q 353 981 353 1791 
Q 353 2603 747 3093 
Q 1141 3584 1784 3584 
Q 2172 3584 2450 3431 
Q 2728 3278 2906 2969 
L 2906 3500 
L 3481 3500 
L 3481 434 
z
" transform="scale(0.015625)"/>
      <path id="DejaVuSans-3a" d="M 750 794 
L 1409 794 
L 1409 0 
L 750 0 
L 750 794 
z
M 750 3309 
L 1409 3309 
L 1409 2516 
L 750 2516 
L 750 3309 
z
" transform="scale(0.015625)"/>
     </defs>
     <use xlink:href="#DejaVuSans-57"/>
     <use xlink:href="#DejaVuSans-61" x="92.501953"/>
     <use xlink:href="#DejaVuSans-72" x="153.78125"/>
     <use xlink:href="#DejaVuSans-6e" x="193.144531"/>
     <use xlink:href="#DejaVuSans-69" x="256.523438"/>
     <use xlink:href="#DejaVuSans-6e" x="284.306641"/>
     <use xlink:href="#DejaVuSans-67" x="347.685547"/>
     <use xlink:href="#DejaVuSans-3a" x="411.162109"/>
    </g>
    <!-- No power dependent shift found. -->
    <g transform="translate(434.666625 73.86185) scale(0.1 -0.1)">
     <defs>
      <path id="DejaVuSans-4e" d="M 628 4666 
L 1478 4666 
L 3547 763 
L 3547 4666 
L 4159 4666 
L 4159 0 
L 3309 0 
L 1241 3903 
L 1241 0 
L 628 0 
L 628 4666 
z
" transform="scale(0.015625)"/>
      <path id="DejaVuSans-77" d="M 269 3500 
L 844 3500 
L 1563 769 
L 2278 3500 
L 2956 3500 
L 3675 769 
L 4391 3500 
L 4966 3500 
L 4050 0 
L 3372 0 
L 2619 2869 
L 1863 0 
L 1184 0 
L 269 3500 
z
" transform="scale(0.015625)"/>
      <path id="DejaVuSans-68" d="M 3513 2113 
L 3513 0 
L 2938 0 
L 2938 2094 
Q 2938 2591 2744 2837 
Q 2550 3084 2163 3084 
Q 1697 3084 1428 2787 
Q 1159 2491 1159 1978 
L 1159 0 
L 581 0 
L 581 4863 
L 1159 4863 
L 1159 2956 
Q 1366 3272 1645 3428 
Q 1925 3584 2291 3584 
Q 2894 3584 3203 3211 
Q 3513 2838 3513 2113 
z
" transform="scale(0.015625)"/>
      <path id="DejaVuSans-66" d="M 2375 4863 
L 2375 4384 
L 1825 4384 
Q 1516 4384 1395 4259 
Q 1275 4134 1275 3809 
L 1275 3500 
L 2222 3500 
L 2222 3053 
L 1275 3053 
L 1275 0 
L 697 0 
L 697 3053 
L 147 3053 
L 147 3500 
L 697 3500 
L 697 3744 
Q 697 4328 969 4595 
Q 1241 4863 1831 4863 
L 2375 4863 
z
" transform="scale(0.015625)"/>
     </defs>
     <use xlink:href="#DejaVuSans-4e"/>
     <use xlink:href="#DejaVuSans-6f" x="74.804688"/>
     <use xlink:href="#DejaVuSans-20" x="135.986328"/>
     <use xlink:href="#DejaVuSans-70" x="167.773438"/>
     <use xlink:href="#DejaVuSans-6f" x="231.25"/>
     <use xlink:href="#DejaVuSans-77" x="292.431641"/>
     <use xlink:href="#DejaVuSans-65" x="374.21875"/>
     <use xlink:href="#DejaVuSans-72" x="435.742188"/>
     <use xlink:href="#DejaVuSans-20" x="476.855469"/>
     <use xlink:href="#DejaVuSans-64" x="508.642578"/>
     <use xlink:href="#DejaVuSans-65" x="572.119141"/>
     <use xlink:href="#DejaVuSans-70" x="633.642578"/>
     <use xlink:href="#DejaVuSans-65" x="697.119141"/>
     <use xlink:href="#DejaVuSans-6e" x="758.642578"/>
     <use xlink:href="#DejaVuSans-64" x="822.021484"/>
     <use xlink:href="#DejaVuSans-65" x="885.498047"/>
     <use xlink:href="#DejaVuSans-6e" x="947.021484"/>
     <use xlink:href="#DejaVuSans-74" x="1010.400391"/>
     <use xlink:href="#DejaVuSans-20" x="1049.609375"/>
     <use xlink:href="#DejaVuSans-73" x="1081.396484"/>
     <use xlink:href="#DejaVuSans-68" x="1133.496094"/>
     <use xlink:href="#DejaVuSans-69" x="1196.875"/>
     <use xlink:href="#DejaVuSans-66" x="1224.658203"/>
     <use xlink:href="#DejaVuSans-74" x="1258.113281"/>
     <use xlink:href="#DejaVuSans-20" x="1297.322266"/>
     <use xlink:href="#DejaVuSans-66" x="1329.109375"/>
     <use xlink:href="#DejaVuSans-6f" x="1364.314453"/>
     <use xlink:href="#DejaVuSans-75" x="1425.496094"/>
     <use xlink:href="#DejaVuSans-6e" x="1488.875"/>
     <use xlink:href="#DejaVuSans-64" x="1552.253906"/>
     <use xlink:href="#DejaVuSans-2e" x="1615.730469"/>
    </g>
    <!-- Consider attenuation. -->
    <g transform="translate(434.666625 85.059663) scale(0.1 -0.1)">
     <defs>
      <path id="DejaVuSans-43" d="M 4122 4306 
L 4122 3641 
Q 3803 3938 3442 4084 
Q 3081 4231 2675 4231 
Q 1875 4231 1450 3742 
Q 1025 3253 1025 2328 
Q 1025 1406 1450 917 
Q 1875 428 2675 428 
Q 3081 428 3442 575 
Q 3803 722 4122 1019 
L 4122 359 
Q 3791 134 3420 21 
Q 3050 -91 2638 -91 
Q 1578 -91 968 557 
Q 359 1206 359 2328 
Q 359 3453 968 4101 
Q 1578 4750 2638 4750 
Q 3056 4750 3426 4639 
Q 3797 4528 4122 4306 
z
" transform="scale(0.015625)"/>
     </defs>
     <use xlink:href="#DejaVuSans-43"/>
     <use xlink:href="#DejaVuSans-6f" x="69.824219"/>
     <use xlink:href="#DejaVuSans-6e" x="131.005859"/>
     <use xlink:href="#DejaVuSans-73" x="194.384766"/>
     <use xlink:href="#DejaVuSans-69" x="246.484375"/>
     <use xlink:href="#DejaVuSans-64" x="274.267578"/>
     <use xlink:href="#DejaVuSans-65" x="337.744141"/>
     <use xlink:href="#DejaVuSans-72" x="399.267578"/>
     <use xlink:href="#DejaVuSans-20" x="440.380859"/>
     <use xlink:href="#DejaVuSans-61" x="472.167969"/>
     <use xlink:href="#DejaVuSans-74" x="533.447266"/>
     <use xlink:href="#DejaVuSans-74" x="572.65625"/>
     <use xlink:href="#DejaVuSans-65" x="611.865234"/>
     <use xlink:href="#DejaVuSans-6e" x="673.388672"/>
     <use xlink:href="#DejaVuSans-75" x="736.767578"/>
     <use xlink:href="#DejaVuSans-61" x="800.146484"/>
     <use xlink:href="#DejaVuSans-74" x="861.425781"/>
     <use xlink:href="#DejaVuSans-69" x="900.634766"/>
     <use xlink:href="#DejaVuSans-6f" x="928.417969"/>
     <use xlink:href="#DejaVuSans-6e" x="989.599609"/>
     <use xlink:href="#DejaVuSans-2e" x="1052.978516"/>
    </g>
   </g>
   <g id="legend_1">
    <g id="patch_8">
     <path d="M 289.454375 64.438125 
L 409.810625 64.438125 
Q 411.810625 64.438125 411.810625 62.438125 
L 411.810625 48.76 
Q 411.810625 46.76 409.810625 46.76 
L 289.454375 46.76 
Q 287.454375 46.76 287.454375 48.76 
L 287.454375 62.438125 
Q 287.454375 64.438125 289.454375 64.438125 
z
" style="fill: #ffffff; opacity: 0.8; stroke: #cccccc; stroke-linejoin: miter"/>
    </g>
    <g id="LineCollection_2">
     <path d="M 301.454375 59.858438 
L 301.454375 49.858438 
" style="fill: none; stroke: #1f77b4; stroke-width: 1.5"/>
    </g>
    <g id="line2d_17">
     <g>
      <use xlink:href="#m00b6b5cbac" x="301.454375" y="59.858438" style="fill: #1f77b4; stroke: #1f77b4"/>
     </g>
    </g>
    <g id="line2d_18">
     <g>
      <use xlink:href="#m00b6b5cbac" x="301.454375" y="49.858438" style="fill: #1f77b4; stroke: #1f77b4"/>
     </g>
    </g>
    <g id="line2d_19"/>
    <g id="line2d_20">
     <g>
      <use xlink:href="#m23ab5c2eba" x="301.454375" y="54.858438" style="fill: #1f77b4; stroke: #1f77b4"/>
     </g>
    </g>
    <g id="text_18">
     <!-- Fitted resonances -->
     <g transform="translate(319.454375 58.358438) scale(0.1 -0.1)">
      <defs>
       <path id="DejaVuSans-46" d="M 628 4666 
L 3309 4666 
L 3309 4134 
L 1259 4134 
L 1259 2759 
L 3109 2759 
L 3109 2228 
L 1259 2228 
L 1259 0 
L 628 0 
L 628 4666 
z
" transform="scale(0.015625)"/>
      </defs>
      <use xlink:href="#DejaVuSans-46"/>
      <use xlink:href="#DejaVuSans-69" x="50.269531"/>
      <use xlink:href="#DejaVuSans-74" x="78.052734"/>
      <use xlink:href="#DejaVuSans-74" x="117.261719"/>
      <use xlink:href="#DejaVuSans-65" x="156.470703"/>
      <use xlink:href="#DejaVuSans-64" x="217.994141"/>
      <use xlink:href="#DejaVuSans-20" x="281.470703"/>
      <use xlink:href="#DejaVuSans-72" x="313.257812"/>
      <use xlink:href="#DejaVuSans-65" x="352.121094"/>
      <use xlink:href="#DejaVuSans-73" x="413.644531"/>
      <use xlink:href="#DejaVuSans-6f" x="465.744141"/>
      <use xlink:href="#DejaVuSans-6e" x="526.925781"/>
      <use xlink:href="#DejaVuSans-61" x="590.304688"/>
      <use xlink:href="#DejaVuSans-6e" x="651.583984"/>
      <use xlink:href="#DejaVuSans-63" x="714.962891"/>
      <use xlink:href="#DejaVuSans-65" x="769.943359"/>
      <use xlink:href="#DejaVuSans-73" x="831.466797"/>
     </g>
    </g>
   </g>
  </g>
  <g id="text_19">
   <!-- Resonances Resonator power scan q00 -->
   <g transform="translate(114.825937 16.318125) scale(0.12 -0.12)">
    <use xlink:href="#DejaVuSans-52"/>
    <use xlink:href="#DejaVuSans-65" x="64.982422"/>
    <use xlink:href="#DejaVuSans-73" x="126.505859"/>
    <use xlink:href="#DejaVuSans-6f" x="178.605469"/>
    <use xlink:href="#DejaVuSans-6e" x="239.787109"/>
    <use xlink:href="#DejaVuSans-61" x="303.166016"/>
    <use xlink:href="#DejaVuSans-6e" x="364.445312"/>
    <use xlink:href="#DejaVuSans-63" x="427.824219"/>
    <use xlink:href="#DejaVuSans-65" x="482.804688"/>
    <use xlink:href="#DejaVuSans-73" x="544.328125"/>
    <use xlink:href="#DejaVuSans-20" x="596.427734"/>
    <use xlink:href="#DejaVuSans-52" x="628.214844"/>
    <use xlink:href="#DejaVuSans-65" x="693.197266"/>
    <use xlink:href="#DejaVuSans-73" x="754.720703"/>
    <use xlink:href="#DejaVuSans-6f" x="806.820312"/>
    <use xlink:href="#DejaVuSans-6e" x="868.001953"/>
    <use xlink:href="#DejaVuSans-61" x="931.380859"/>
    <use xlink:href="#DejaVuSans-74" x="992.660156"/>
    <use xlink:href="#DejaVuSans-6f" x="1031.869141"/>
    <use xlink:href="#DejaVuSans-72" x="1093.050781"/>
    <use xlink:href="#DejaVuSans-20" x="1134.164062"/>
    <use xlink:href="#DejaVuSans-70" x="1165.951172"/>
    <use xlink:href="#DejaVuSans-6f" x="1229.427734"/>
    <use xlink:href="#DejaVuSans-77" x="1290.609375"/>
    <use xlink:href="#DejaVuSans-65" x="1372.396484"/>
    <use xlink:href="#DejaVuSans-72" x="1433.919922"/>
    <use xlink:href="#DejaVuSans-20" x="1475.033203"/>
    <use xlink:href="#DejaVuSans-73" x="1506.820312"/>
    <use xlink:href="#DejaVuSans-63" x="1558.919922"/>
    <use xlink:href="#DejaVuSans-61" x="1613.900391"/>
    <use xlink:href="#DejaVuSans-6e" x="1675.179688"/>
    <use xlink:href="#DejaVuSans-20" x="1738.558594"/>
    <use xlink:href="#DejaVuSans-71" x="1770.345703"/>
    <use xlink:href="#DejaVuSans-30" x="1833.822266"/>
    <use xlink:href="#DejaVuSans-30" x="1897.445312"/>
   </g>
   <!-- tuid: 20241114-105254-080-27aa7f -->
   <g transform="translate(124.621875 29.7555) scale(0.12 -0.12)">
    <use xlink:href="#DejaVuSans-74"/>
    <use xlink:href="#DejaVuSans-75" x="39.208984"/>
    <use xlink:href="#DejaVuSans-69" x="102.587891"/>
    <use xlink:href="#DejaVuSans-64" x="130.371094"/>
    <use xlink:href="#DejaVuSans-3a" x="193.847656"/>
    <use xlink:href="#DejaVuSans-20" x="227.539062"/>
    <use xlink:href="#DejaVuSans-32" x="259.326172"/>
    <use xlink:href="#DejaVuSans-30" x="322.949219"/>
    <use xlink:href="#DejaVuSans-32" x="386.572266"/>
    <use xlink:href="#DejaVuSans-34" x="450.195312"/>
    <use xlink:href="#DejaVuSans-31" x="513.818359"/>
    <use xlink:href="#DejaVuSans-31" x="577.441406"/>
    <use xlink:href="#DejaVuSans-31" x="641.064453"/>
    <use xlink:href="#DejaVuSans-34" x="704.6875"/>
    <use xlink:href="#DejaVuSans-2d" x="768.310547"/>
    <use xlink:href="#DejaVuSans-31" x="804.394531"/>
    <use xlink:href="#DejaVuSans-30" x="868.017578"/>
    <use xlink:href="#DejaVuSans-35" x="931.640625"/>
    <use xlink:href="#DejaVuSans-32" x="995.263672"/>
    <use xlink:href="#DejaVuSans-35" x="1058.886719"/>
    <use xlink:href="#DejaVuSans-34" x="1122.509766"/>
    <use xlink:href="#DejaVuSans-2d" x="1186.132812"/>
    <use xlink:href="#DejaVuSans-30" x="1222.216797"/>
    <use xlink:href="#DejaVuSans-38" x="1285.839844"/>
    <use xlink:href="#DejaVuSans-30" x="1349.462891"/>
    <use xlink:href="#DejaVuSans-2d" x="1413.085938"/>
    <use xlink:href="#DejaVuSans-32" x="1449.169922"/>
    <use xlink:href="#DejaVuSans-37" x="1512.792969"/>
    <use xlink:href="#DejaVuSans-61" x="1576.416016"/>
    <use xlink:href="#DejaVuSans-61" x="1637.695312"/>
    <use xlink:href="#DejaVuSans-37" x="1698.974609"/>
    <use xlink:href="#DejaVuSans-66" x="1762.597656"/>
   </g>
  </g>
 </g>
 <defs>
  <clipPath id="pe7d3fc5100">
   <rect x="59.690625" y="41.76" width="357.12" height="266.112"/>
  </clipPath>
 </defs>
</svg>
