<?xml version="1.0" encoding="utf-8" standalone="no"?>
<!DOCTYPE svg PUBLIC "-//W3C//DTD SVG 1.1//EN"
  "http://www.w3.org/Graphics/SVG/1.1/DTD/svg11.dtd">
<svg xmlns:xlink="http://www.w3.org/1999/xlink" width="459.023125pt" height="311.146375pt" viewBox="0 0 459.023125 311.146375" xmlns="http://www.w3.org/2000/svg" version="1.1">
 <metadata>
  <rdf:RDF xmlns:dc="http://purl.org/dc/elements/1.1/" xmlns:cc="http://creativecommons.org/ns#" xmlns:rdf="http://www.w3.org/1999/02/22-rdf-syntax-ns#">
   <cc:Work>
    <dc:type rdf:resource="http://purl.org/dc/dcmitype/StillImage"/>
    <dc:date>2024-11-14T10:53:32.119931</dc:date>
    <dc:format>image/svg+xml</dc:format>
    <dc:creator>
     <cc:Agent>
      <dc:title>Matplotlib v3.8.0, https://matplotlib.org/</dc:title>
     </cc:Agent>
    </dc:creator>
   </cc:Work>
  </rdf:RDF>
 </metadata>
 <defs>
  <style type="text/css">*{stroke-linejoin: round; stroke-linecap: butt}</style>
 </defs>
 <g id="figure_1">
  <g id="patch_1">
   <path d="M 0 311.146375 
L 459.023125 311.146375 
L 459.023125 0 
L 0 0 
L 0 311.146375 
z
" style="fill: none; opacity: 0"/>
  </g>
  <g id="axes_1">
   <g id="patch_2">
    <path d="M 40.603125 273.312 
L 397.723125 273.312 
L 397.723125 7.2 
L 40.603125 7.2 
z
" style="fill: #ffffff"/>
   </g>
   <g id="matplotlib.axis_1">
    <g id="xtick_1">
     <g id="line2d_1">
      <defs>
       <path id="m9b14355f25" d="M 0 0 
L 0 3.5 
" style="stroke: #000000; stroke-width: 0.8"/>
      </defs>
      <g>
       <use xlink:href="#m9b14355f25" x="53.556513" y="273.312" style="stroke: #000000; stroke-width: 0.8"/>
      </g>
     </g>
     <g id="text_1">
      <!-- 0.0 -->
      <g transform="translate(45.604951 287.910437) scale(0.1 -0.1)">
       <defs>
        <path id="DejaVuSans-30" d="M 2034 4250 
Q 1547 4250 1301 3770 
Q 1056 3291 1056 2328 
Q 1056 1369 1301 889 
Q 1547 409 2034 409 
Q 2525 409 2770 889 
Q 3016 1369 3016 2328 
Q 3016 3291 2770 3770 
Q 2525 4250 2034 4250 
z
M 2034 4750 
Q 2819 4750 3233 4129 
Q 3647 3509 3647 2328 
Q 3647 1150 3233 529 
Q 2819 -91 2034 -91 
Q 1250 -91 836 529 
Q 422 1150 422 2328 
Q 422 3509 836 4129 
Q 1250 4750 2034 4750 
z
" transform="scale(0.015625)"/>
        <path id="DejaVuSans-2e" d="M 684 794 
L 1344 794 
L 1344 0 
L 684 0 
L 684 794 
z
" transform="scale(0.015625)"/>
       </defs>
       <use xlink:href="#DejaVuSans-30"/>
       <use xlink:href="#DejaVuSans-2e" x="63.623047"/>
       <use xlink:href="#DejaVuSans-30" x="95.410156"/>
      </g>
     </g>
    </g>
    <g id="xtick_2">
     <g id="line2d_2">
      <g>
       <use xlink:href="#m9b14355f25" x="119.14329" y="273.312" style="stroke: #000000; stroke-width: 0.8"/>
      </g>
     </g>
     <g id="text_2">
      <!-- 0.2 -->
      <g transform="translate(111.191728 287.910437) scale(0.1 -0.1)">
       <defs>
        <path id="DejaVuSans-32" d="M 1228 531 
L 3431 531 
L 3431 0 
L 469 0 
L 469 531 
Q 828 903 1448 1529 
Q 2069 2156 2228 2338 
Q 2531 2678 2651 2914 
Q 2772 3150 2772 3378 
Q 2772 3750 2511 3984 
Q 2250 4219 1831 4219 
Q 1534 4219 1204 4116 
Q 875 4013 500 3803 
L 500 4441 
Q 881 4594 1212 4672 
Q 1544 4750 1819 4750 
Q 2544 4750 2975 4387 
Q 3406 4025 3406 3419 
Q 3406 3131 3298 2873 
Q 3191 2616 2906 2266 
Q 2828 2175 2409 1742 
Q 1991 1309 1228 531 
z
" transform="scale(0.015625)"/>
       </defs>
       <use xlink:href="#DejaVuSans-30"/>
       <use xlink:href="#DejaVuSans-2e" x="63.623047"/>
       <use xlink:href="#DejaVuSans-32" x="95.410156"/>
      </g>
     </g>
    </g>
    <g id="xtick_3">
     <g id="line2d_3">
      <g>
       <use xlink:href="#m9b14355f25" x="184.730067" y="273.312" style="stroke: #000000; stroke-width: 0.8"/>
      </g>
     </g>
     <g id="text_3">
      <!-- 0.4 -->
      <g transform="translate(176.778505 287.910437) scale(0.1 -0.1)">
       <defs>
        <path id="DejaVuSans-34" d="M 2419 4116 
L 825 1625 
L 2419 1625 
L 2419 4116 
z
M 2253 4666 
L 3047 4666 
L 3047 1625 
L 3713 1625 
L 3713 1100 
L 3047 1100 
L 3047 0 
L 2419 0 
L 2419 1100 
L 313 1100 
L 313 1709 
L 2253 4666 
z
" transform="scale(0.015625)"/>
       </defs>
       <use xlink:href="#DejaVuSans-30"/>
       <use xlink:href="#DejaVuSans-2e" x="63.623047"/>
       <use xlink:href="#DejaVuSans-34" x="95.410156"/>
      </g>
     </g>
    </g>
    <g id="xtick_4">
     <g id="line2d_4">
      <g>
       <use xlink:href="#m9b14355f25" x="250.316844" y="273.312" style="stroke: #000000; stroke-width: 0.8"/>
      </g>
     </g>
     <g id="text_4">
      <!-- 0.6 -->
      <g transform="translate(242.365282 287.910437) scale(0.1 -0.1)">
       <defs>
        <path id="DejaVuSans-36" d="M 2113 2584 
Q 1688 2584 1439 2293 
Q 1191 2003 1191 1497 
Q 1191 994 1439 701 
Q 1688 409 2113 409 
Q 2538 409 2786 701 
Q 3034 994 3034 1497 
Q 3034 2003 2786 2293 
Q 2538 2584 2113 2584 
z
M 3366 4563 
L 3366 3988 
Q 3128 4100 2886 4159 
Q 2644 4219 2406 4219 
Q 1781 4219 1451 3797 
Q 1122 3375 1075 2522 
Q 1259 2794 1537 2939 
Q 1816 3084 2150 3084 
Q 2853 3084 3261 2657 
Q 3669 2231 3669 1497 
Q 3669 778 3244 343 
Q 2819 -91 2113 -91 
Q 1303 -91 875 529 
Q 447 1150 447 2328 
Q 447 3434 972 4092 
Q 1497 4750 2381 4750 
Q 2619 4750 2861 4703 
Q 3103 4656 3366 4563 
z
" transform="scale(0.015625)"/>
       </defs>
       <use xlink:href="#DejaVuSans-30"/>
       <use xlink:href="#DejaVuSans-2e" x="63.623047"/>
       <use xlink:href="#DejaVuSans-36" x="95.410156"/>
      </g>
     </g>
    </g>
    <g id="xtick_5">
     <g id="line2d_5">
      <g>
       <use xlink:href="#m9b14355f25" x="315.903621" y="273.312" style="stroke: #000000; stroke-width: 0.8"/>
      </g>
     </g>
     <g id="text_5">
      <!-- 0.8 -->
      <g transform="translate(307.952058 287.910437) scale(0.1 -0.1)">
       <defs>
        <path id="DejaVuSans-38" d="M 2034 2216 
Q 1584 2216 1326 1975 
Q 1069 1734 1069 1313 
Q 1069 891 1326 650 
Q 1584 409 2034 409 
Q 2484 409 2743 651 
Q 3003 894 3003 1313 
Q 3003 1734 2745 1975 
Q 2488 2216 2034 2216 
z
M 1403 2484 
Q 997 2584 770 2862 
Q 544 3141 544 3541 
Q 544 4100 942 4425 
Q 1341 4750 2034 4750 
Q 2731 4750 3128 4425 
Q 3525 4100 3525 3541 
Q 3525 3141 3298 2862 
Q 3072 2584 2669 2484 
Q 3125 2378 3379 2068 
Q 3634 1759 3634 1313 
Q 3634 634 3220 271 
Q 2806 -91 2034 -91 
Q 1263 -91 848 271 
Q 434 634 434 1313 
Q 434 1759 690 2068 
Q 947 2378 1403 2484 
z
M 1172 3481 
Q 1172 3119 1398 2916 
Q 1625 2713 2034 2713 
Q 2441 2713 2670 2916 
Q 2900 3119 2900 3481 
Q 2900 3844 2670 4047 
Q 2441 4250 2034 4250 
Q 1625 4250 1398 4047 
Q 1172 3844 1172 3481 
z
" transform="scale(0.015625)"/>
       </defs>
       <use xlink:href="#DejaVuSans-30"/>
       <use xlink:href="#DejaVuSans-2e" x="63.623047"/>
       <use xlink:href="#DejaVuSans-38" x="95.410156"/>
      </g>
     </g>
    </g>
    <g id="xtick_6">
     <g id="line2d_6">
      <g>
       <use xlink:href="#m9b14355f25" x="381.490398" y="273.312" style="stroke: #000000; stroke-width: 0.8"/>
      </g>
     </g>
     <g id="text_6">
      <!-- 1.0 -->
      <g transform="translate(373.538835 287.910437) scale(0.1 -0.1)">
       <defs>
        <path id="DejaVuSans-31" d="M 794 531 
L 1825 531 
L 1825 4091 
L 703 3866 
L 703 4441 
L 1819 4666 
L 2450 4666 
L 2450 531 
L 3481 531 
L 3481 0 
L 794 0 
L 794 531 
z
" transform="scale(0.015625)"/>
       </defs>
       <use xlink:href="#DejaVuSans-31"/>
       <use xlink:href="#DejaVuSans-2e" x="63.623047"/>
       <use xlink:href="#DejaVuSans-30" x="95.410156"/>
      </g>
     </g>
    </g>
    <g id="text_7">
     <!-- q00 spec_ro Readout-spectroscopy pulse amplitude -->
     <g transform="translate(89.813125 301.588562) scale(0.1 -0.1)">
      <defs>
       <path id="DejaVuSans-71" d="M 947 1747 
Q 947 1113 1208 752 
Q 1469 391 1925 391 
Q 2381 391 2643 752 
Q 2906 1113 2906 1747 
Q 2906 2381 2643 2742 
Q 2381 3103 1925 3103 
Q 1469 3103 1208 2742 
Q 947 2381 947 1747 
z
M 2906 525 
Q 2725 213 2448 61 
Q 2172 -91 1784 -91 
Q 1150 -91 751 415 
Q 353 922 353 1747 
Q 353 2572 751 3078 
Q 1150 3584 1784 3584 
Q 2172 3584 2448 3432 
Q 2725 3281 2906 2969 
L 2906 3500 
L 3481 3500 
L 3481 -1331 
L 2906 -1331 
L 2906 525 
z
" transform="scale(0.015625)"/>
       <path id="DejaVuSans-20" transform="scale(0.015625)"/>
       <path id="DejaVuSans-73" d="M 2834 3397 
L 2834 2853 
Q 2591 2978 2328 3040 
Q 2066 3103 1784 3103 
Q 1356 3103 1142 2972 
Q 928 2841 928 2578 
Q 928 2378 1081 2264 
Q 1234 2150 1697 2047 
L 1894 2003 
Q 2506 1872 2764 1633 
Q 3022 1394 3022 966 
Q 3022 478 2636 193 
Q 2250 -91 1575 -91 
Q 1294 -91 989 -36 
Q 684 19 347 128 
L 347 722 
Q 666 556 975 473 
Q 1284 391 1588 391 
Q 1994 391 2212 530 
Q 2431 669 2431 922 
Q 2431 1156 2273 1281 
Q 2116 1406 1581 1522 
L 1381 1569 
Q 847 1681 609 1914 
Q 372 2147 372 2553 
Q 372 3047 722 3315 
Q 1072 3584 1716 3584 
Q 2034 3584 2315 3537 
Q 2597 3491 2834 3397 
z
" transform="scale(0.015625)"/>
       <path id="DejaVuSans-70" d="M 1159 525 
L 1159 -1331 
L 581 -1331 
L 581 3500 
L 1159 3500 
L 1159 2969 
Q 1341 3281 1617 3432 
Q 1894 3584 2278 3584 
Q 2916 3584 3314 3078 
Q 3713 2572 3713 1747 
Q 3713 922 3314 415 
Q 2916 -91 2278 -91 
Q 1894 -91 1617 61 
Q 1341 213 1159 525 
z
M 3116 1747 
Q 3116 2381 2855 2742 
Q 2594 3103 2138 3103 
Q 1681 3103 1420 2742 
Q 1159 2381 1159 1747 
Q 1159 1113 1420 752 
Q 1681 391 2138 391 
Q 2594 391 2855 752 
Q 3116 1113 3116 1747 
z
" transform="scale(0.015625)"/>
       <path id="DejaVuSans-65" d="M 3597 1894 
L 3597 1613 
L 953 1613 
Q 991 1019 1311 708 
Q 1631 397 2203 397 
Q 2534 397 2845 478 
Q 3156 559 3463 722 
L 3463 178 
Q 3153 47 2828 -22 
Q 2503 -91 2169 -91 
Q 1331 -91 842 396 
Q 353 884 353 1716 
Q 353 2575 817 3079 
Q 1281 3584 2069 3584 
Q 2775 3584 3186 3129 
Q 3597 2675 3597 1894 
z
M 3022 2063 
Q 3016 2534 2758 2815 
Q 2500 3097 2075 3097 
Q 1594 3097 1305 2825 
Q 1016 2553 972 2059 
L 3022 2063 
z
" transform="scale(0.015625)"/>
       <path id="DejaVuSans-63" d="M 3122 3366 
L 3122 2828 
Q 2878 2963 2633 3030 
Q 2388 3097 2138 3097 
Q 1578 3097 1268 2742 
Q 959 2388 959 1747 
Q 959 1106 1268 751 
Q 1578 397 2138 397 
Q 2388 397 2633 464 
Q 2878 531 3122 666 
L 3122 134 
Q 2881 22 2623 -34 
Q 2366 -91 2075 -91 
Q 1284 -91 818 406 
Q 353 903 353 1747 
Q 353 2603 823 3093 
Q 1294 3584 2113 3584 
Q 2378 3584 2631 3529 
Q 2884 3475 3122 3366 
z
" transform="scale(0.015625)"/>
       <path id="DejaVuSans-5f" d="M 3263 -1063 
L 3263 -1509 
L -63 -1509 
L -63 -1063 
L 3263 -1063 
z
" transform="scale(0.015625)"/>
       <path id="DejaVuSans-72" d="M 2631 2963 
Q 2534 3019 2420 3045 
Q 2306 3072 2169 3072 
Q 1681 3072 1420 2755 
Q 1159 2438 1159 1844 
L 1159 0 
L 581 0 
L 581 3500 
L 1159 3500 
L 1159 2956 
Q 1341 3275 1631 3429 
Q 1922 3584 2338 3584 
Q 2397 3584 2469 3576 
Q 2541 3569 2628 3553 
L 2631 2963 
z
" transform="scale(0.015625)"/>
       <path id="DejaVuSans-6f" d="M 1959 3097 
Q 1497 3097 1228 2736 
Q 959 2375 959 1747 
Q 959 1119 1226 758 
Q 1494 397 1959 397 
Q 2419 397 2687 759 
Q 2956 1122 2956 1747 
Q 2956 2369 2687 2733 
Q 2419 3097 1959 3097 
z
M 1959 3584 
Q 2709 3584 3137 3096 
Q 3566 2609 3566 1747 
Q 3566 888 3137 398 
Q 2709 -91 1959 -91 
Q 1206 -91 779 398 
Q 353 888 353 1747 
Q 353 2609 779 3096 
Q 1206 3584 1959 3584 
z
" transform="scale(0.015625)"/>
       <path id="DejaVuSans-52" d="M 2841 2188 
Q 3044 2119 3236 1894 
Q 3428 1669 3622 1275 
L 4263 0 
L 3584 0 
L 2988 1197 
Q 2756 1666 2539 1819 
Q 2322 1972 1947 1972 
L 1259 1972 
L 1259 0 
L 628 0 
L 628 4666 
L 2053 4666 
Q 2853 4666 3247 4331 
Q 3641 3997 3641 3322 
Q 3641 2881 3436 2590 
Q 3231 2300 2841 2188 
z
M 1259 4147 
L 1259 2491 
L 2053 2491 
Q 2509 2491 2742 2702 
Q 2975 2913 2975 3322 
Q 2975 3731 2742 3939 
Q 2509 4147 2053 4147 
L 1259 4147 
z
" transform="scale(0.015625)"/>
       <path id="DejaVuSans-61" d="M 2194 1759 
Q 1497 1759 1228 1600 
Q 959 1441 959 1056 
Q 959 750 1161 570 
Q 1363 391 1709 391 
Q 2188 391 2477 730 
Q 2766 1069 2766 1631 
L 2766 1759 
L 2194 1759 
z
M 3341 1997 
L 3341 0 
L 2766 0 
L 2766 531 
Q 2569 213 2275 61 
Q 1981 -91 1556 -91 
Q 1019 -91 701 211 
Q 384 513 384 1019 
Q 384 1609 779 1909 
Q 1175 2209 1959 2209 
L 2766 2209 
L 2766 2266 
Q 2766 2663 2505 2880 
Q 2244 3097 1772 3097 
Q 1472 3097 1187 3025 
Q 903 2953 641 2809 
L 641 3341 
Q 956 3463 1253 3523 
Q 1550 3584 1831 3584 
Q 2591 3584 2966 3190 
Q 3341 2797 3341 1997 
z
" transform="scale(0.015625)"/>
       <path id="DejaVuSans-64" d="M 2906 2969 
L 2906 4863 
L 3481 4863 
L 3481 0 
L 2906 0 
L 2906 525 
Q 2725 213 2448 61 
Q 2172 -91 1784 -91 
Q 1150 -91 751 415 
Q 353 922 353 1747 
Q 353 2572 751 3078 
Q 1150 3584 1784 3584 
Q 2172 3584 2448 3432 
Q 2725 3281 2906 2969 
z
M 947 1747 
Q 947 1113 1208 752 
Q 1469 391 1925 391 
Q 2381 391 2643 752 
Q 2906 1113 2906 1747 
Q 2906 2381 2643 2742 
Q 2381 3103 1925 3103 
Q 1469 3103 1208 2742 
Q 947 2381 947 1747 
z
" transform="scale(0.015625)"/>
       <path id="DejaVuSans-75" d="M 544 1381 
L 544 3500 
L 1119 3500 
L 1119 1403 
Q 1119 906 1312 657 
Q 1506 409 1894 409 
Q 2359 409 2629 706 
Q 2900 1003 2900 1516 
L 2900 3500 
L 3475 3500 
L 3475 0 
L 2900 0 
L 2900 538 
Q 2691 219 2414 64 
Q 2138 -91 1772 -91 
Q 1169 -91 856 284 
Q 544 659 544 1381 
z
M 1991 3584 
L 1991 3584 
z
" transform="scale(0.015625)"/>
       <path id="DejaVuSans-74" d="M 1172 4494 
L 1172 3500 
L 2356 3500 
L 2356 3053 
L 1172 3053 
L 1172 1153 
Q 1172 725 1289 603 
Q 1406 481 1766 481 
L 2356 481 
L 2356 0 
L 1766 0 
Q 1100 0 847 248 
Q 594 497 594 1153 
L 594 3053 
L 172 3053 
L 172 3500 
L 594 3500 
L 594 4494 
L 1172 4494 
z
" transform="scale(0.015625)"/>
       <path id="DejaVuSans-2d" d="M 313 2009 
L 1997 2009 
L 1997 1497 
L 313 1497 
L 313 2009 
z
" transform="scale(0.015625)"/>
       <path id="DejaVuSans-79" d="M 2059 -325 
Q 1816 -950 1584 -1140 
Q 1353 -1331 966 -1331 
L 506 -1331 
L 506 -850 
L 844 -850 
Q 1081 -850 1212 -737 
Q 1344 -625 1503 -206 
L 1606 56 
L 191 3500 
L 800 3500 
L 1894 763 
L 2988 3500 
L 3597 3500 
L 2059 -325 
z
" transform="scale(0.015625)"/>
       <path id="DejaVuSans-6c" d="M 603 4863 
L 1178 4863 
L 1178 0 
L 603 0 
L 603 4863 
z
" transform="scale(0.015625)"/>
       <path id="DejaVuSans-6d" d="M 3328 2828 
Q 3544 3216 3844 3400 
Q 4144 3584 4550 3584 
Q 5097 3584 5394 3201 
Q 5691 2819 5691 2113 
L 5691 0 
L 5113 0 
L 5113 2094 
Q 5113 2597 4934 2840 
Q 4756 3084 4391 3084 
Q 3944 3084 3684 2787 
Q 3425 2491 3425 1978 
L 3425 0 
L 2847 0 
L 2847 2094 
Q 2847 2600 2669 2842 
Q 2491 3084 2119 3084 
Q 1678 3084 1418 2786 
Q 1159 2488 1159 1978 
L 1159 0 
L 581 0 
L 581 3500 
L 1159 3500 
L 1159 2956 
Q 1356 3278 1631 3431 
Q 1906 3584 2284 3584 
Q 2666 3584 2933 3390 
Q 3200 3197 3328 2828 
z
" transform="scale(0.015625)"/>
       <path id="DejaVuSans-69" d="M 603 3500 
L 1178 3500 
L 1178 0 
L 603 0 
L 603 3500 
z
M 603 4863 
L 1178 4863 
L 1178 4134 
L 603 4134 
L 603 4863 
z
" transform="scale(0.015625)"/>
      </defs>
      <use xlink:href="#DejaVuSans-71"/>
      <use xlink:href="#DejaVuSans-30" x="63.476562"/>
      <use xlink:href="#DejaVuSans-30" x="127.099609"/>
      <use xlink:href="#DejaVuSans-20" x="190.722656"/>
      <use xlink:href="#DejaVuSans-73" x="222.509766"/>
      <use xlink:href="#DejaVuSans-70" x="274.609375"/>
      <use xlink:href="#DejaVuSans-65" x="338.085938"/>
      <use xlink:href="#DejaVuSans-63" x="399.609375"/>
      <use xlink:href="#DejaVuSans-5f" x="454.589844"/>
      <use xlink:href="#DejaVuSans-72" x="504.589844"/>
      <use xlink:href="#DejaVuSans-6f" x="543.453125"/>
      <use xlink:href="#DejaVuSans-20" x="604.634766"/>
      <use xlink:href="#DejaVuSans-52" x="636.421875"/>
      <use xlink:href="#DejaVuSans-65" x="701.404297"/>
      <use xlink:href="#DejaVuSans-61" x="762.927734"/>
      <use xlink:href="#DejaVuSans-64" x="824.207031"/>
      <use xlink:href="#DejaVuSans-6f" x="887.683594"/>
      <use xlink:href="#DejaVuSans-75" x="948.865234"/>
      <use xlink:href="#DejaVuSans-74" x="1012.244141"/>
      <use xlink:href="#DejaVuSans-2d" x="1051.453125"/>
      <use xlink:href="#DejaVuSans-73" x="1087.537109"/>
      <use xlink:href="#DejaVuSans-70" x="1139.636719"/>
      <use xlink:href="#DejaVuSans-65" x="1203.113281"/>
      <use xlink:href="#DejaVuSans-63" x="1264.636719"/>
      <use xlink:href="#DejaVuSans-74" x="1319.617188"/>
      <use xlink:href="#DejaVuSans-72" x="1358.826172"/>
      <use xlink:href="#DejaVuSans-6f" x="1397.689453"/>
      <use xlink:href="#DejaVuSans-73" x="1458.871094"/>
      <use xlink:href="#DejaVuSans-63" x="1510.970703"/>
      <use xlink:href="#DejaVuSans-6f" x="1565.951172"/>
      <use xlink:href="#DejaVuSans-70" x="1627.132812"/>
      <use xlink:href="#DejaVuSans-79" x="1690.609375"/>
      <use xlink:href="#DejaVuSans-20" x="1749.789062"/>
      <use xlink:href="#DejaVuSans-70" x="1781.576172"/>
      <use xlink:href="#DejaVuSans-75" x="1845.052734"/>
      <use xlink:href="#DejaVuSans-6c" x="1908.431641"/>
      <use xlink:href="#DejaVuSans-73" x="1936.214844"/>
      <use xlink:href="#DejaVuSans-65" x="1988.314453"/>
      <use xlink:href="#DejaVuSans-20" x="2049.837891"/>
      <use xlink:href="#DejaVuSans-61" x="2081.625"/>
      <use xlink:href="#DejaVuSans-6d" x="2142.904297"/>
      <use xlink:href="#DejaVuSans-70" x="2240.316406"/>
      <use xlink:href="#DejaVuSans-6c" x="2303.792969"/>
      <use xlink:href="#DejaVuSans-69" x="2331.576172"/>
      <use xlink:href="#DejaVuSans-74" x="2359.359375"/>
      <use xlink:href="#DejaVuSans-75" x="2398.568359"/>
      <use xlink:href="#DejaVuSans-64" x="2461.947266"/>
      <use xlink:href="#DejaVuSans-65" x="2525.423828"/>
     </g>
    </g>
   </g>
   <g id="matplotlib.axis_2">
    <g id="ytick_1">
     <g id="line2d_7">
      <defs>
       <path id="mdf814361e4" d="M 0 0 
L -3.5 0 
" style="stroke: #000000; stroke-width: 0.8"/>
      </defs>
      <g>
       <use xlink:href="#mdf814361e4" x="40.603125" y="256.729144" style="stroke: #000000; stroke-width: 0.8"/>
      </g>
     </g>
     <g id="text_8">
      <!-- 15 -->
      <g transform="translate(20.878125 260.528363) scale(0.1 -0.1)">
       <defs>
        <path id="DejaVuSans-35" d="M 691 4666 
L 3169 4666 
L 3169 4134 
L 1269 4134 
L 1269 2991 
Q 1406 3038 1543 3061 
Q 1681 3084 1819 3084 
Q 2600 3084 3056 2656 
Q 3513 2228 3513 1497 
Q 3513 744 3044 326 
Q 2575 -91 1722 -91 
Q 1428 -91 1123 -41 
Q 819 9 494 109 
L 494 744 
Q 775 591 1075 516 
Q 1375 441 1709 441 
Q 2250 441 2565 725 
Q 2881 1009 2881 1497 
Q 2881 1984 2565 2268 
Q 2250 2553 1709 2553 
Q 1456 2553 1204 2497 
Q 953 2441 691 2322 
L 691 4666 
z
" transform="scale(0.015625)"/>
       </defs>
       <use xlink:href="#DejaVuSans-31"/>
       <use xlink:href="#DejaVuSans-35" x="63.623047"/>
      </g>
     </g>
    </g>
    <g id="ytick_2">
     <g id="line2d_8">
      <g>
       <use xlink:href="#mdf814361e4" x="40.603125" y="212.257017" style="stroke: #000000; stroke-width: 0.8"/>
      </g>
     </g>
     <g id="text_9">
      <!-- 20 -->
      <g transform="translate(20.878125 216.056236) scale(0.1 -0.1)">
       <use xlink:href="#DejaVuSans-32"/>
       <use xlink:href="#DejaVuSans-30" x="63.623047"/>
      </g>
     </g>
    </g>
    <g id="ytick_3">
     <g id="line2d_9">
      <g>
       <use xlink:href="#mdf814361e4" x="40.603125" y="167.78489" style="stroke: #000000; stroke-width: 0.8"/>
      </g>
     </g>
     <g id="text_10">
      <!-- 25 -->
      <g transform="translate(20.878125 171.584108) scale(0.1 -0.1)">
       <use xlink:href="#DejaVuSans-32"/>
       <use xlink:href="#DejaVuSans-35" x="63.623047"/>
      </g>
     </g>
    </g>
    <g id="ytick_4">
     <g id="line2d_10">
      <g>
       <use xlink:href="#mdf814361e4" x="40.603125" y="123.312762" style="stroke: #000000; stroke-width: 0.8"/>
      </g>
     </g>
     <g id="text_11">
      <!-- 30 -->
      <g transform="translate(20.878125 127.111981) scale(0.1 -0.1)">
       <defs>
        <path id="DejaVuSans-33" d="M 2597 2516 
Q 3050 2419 3304 2112 
Q 3559 1806 3559 1356 
Q 3559 666 3084 287 
Q 2609 -91 1734 -91 
Q 1441 -91 1130 -33 
Q 819 25 488 141 
L 488 750 
Q 750 597 1062 519 
Q 1375 441 1716 441 
Q 2309 441 2620 675 
Q 2931 909 2931 1356 
Q 2931 1769 2642 2001 
Q 2353 2234 1838 2234 
L 1294 2234 
L 1294 2753 
L 1863 2753 
Q 2328 2753 2575 2939 
Q 2822 3125 2822 3475 
Q 2822 3834 2567 4026 
Q 2313 4219 1838 4219 
Q 1578 4219 1281 4162 
Q 984 4106 628 3988 
L 628 4550 
Q 988 4650 1302 4700 
Q 1616 4750 1894 4750 
Q 2613 4750 3031 4423 
Q 3450 4097 3450 3541 
Q 3450 3153 3228 2886 
Q 3006 2619 2597 2516 
z
" transform="scale(0.015625)"/>
       </defs>
       <use xlink:href="#DejaVuSans-33"/>
       <use xlink:href="#DejaVuSans-30" x="63.623047"/>
      </g>
     </g>
    </g>
    <g id="ytick_5">
     <g id="line2d_11">
      <g>
       <use xlink:href="#mdf814361e4" x="40.603125" y="78.840635" style="stroke: #000000; stroke-width: 0.8"/>
      </g>
     </g>
     <g id="text_12">
      <!-- 35 -->
      <g transform="translate(20.878125 82.639854) scale(0.1 -0.1)">
       <use xlink:href="#DejaVuSans-33"/>
       <use xlink:href="#DejaVuSans-35" x="63.623047"/>
      </g>
     </g>
    </g>
    <g id="ytick_6">
     <g id="line2d_12">
      <g>
       <use xlink:href="#mdf814361e4" x="40.603125" y="34.368508" style="stroke: #000000; stroke-width: 0.8"/>
      </g>
     </g>
     <g id="text_13">
      <!-- 40 -->
      <g transform="translate(20.878125 38.167727) scale(0.1 -0.1)">
       <use xlink:href="#DejaVuSans-34"/>
       <use xlink:href="#DejaVuSans-30" x="63.623047"/>
      </g>
     </g>
    </g>
    <g id="text_14">
     <!-- Quality factor [k] -->
     <g transform="translate(14.798438 182.745844) rotate(-90) scale(0.1 -0.1)">
      <defs>
       <path id="DejaVuSans-51" d="M 2522 4238 
Q 1834 4238 1429 3725 
Q 1025 3213 1025 2328 
Q 1025 1447 1429 934 
Q 1834 422 2522 422 
Q 3209 422 3611 934 
Q 4013 1447 4013 2328 
Q 4013 3213 3611 3725 
Q 3209 4238 2522 4238 
z
M 3406 84 
L 4238 -825 
L 3475 -825 
L 2784 -78 
Q 2681 -84 2626 -87 
Q 2572 -91 2522 -91 
Q 1538 -91 948 567 
Q 359 1225 359 2328 
Q 359 3434 948 4092 
Q 1538 4750 2522 4750 
Q 3503 4750 4090 4092 
Q 4678 3434 4678 2328 
Q 4678 1516 4351 937 
Q 4025 359 3406 84 
z
" transform="scale(0.015625)"/>
       <path id="DejaVuSans-66" d="M 2375 4863 
L 2375 4384 
L 1825 4384 
Q 1516 4384 1395 4259 
Q 1275 4134 1275 3809 
L 1275 3500 
L 2222 3500 
L 2222 3053 
L 1275 3053 
L 1275 0 
L 697 0 
L 697 3053 
L 147 3053 
L 147 3500 
L 697 3500 
L 697 3744 
Q 697 4328 969 4595 
Q 1241 4863 1831 4863 
L 2375 4863 
z
" transform="scale(0.015625)"/>
       <path id="DejaVuSans-5b" d="M 550 4863 
L 1875 4863 
L 1875 4416 
L 1125 4416 
L 1125 -397 
L 1875 -397 
L 1875 -844 
L 550 -844 
L 550 4863 
z
" transform="scale(0.015625)"/>
       <path id="DejaVuSans-6b" d="M 581 4863 
L 1159 4863 
L 1159 1991 
L 2875 3500 
L 3609 3500 
L 1753 1863 
L 3688 0 
L 2938 0 
L 1159 1709 
L 1159 0 
L 581 0 
L 581 4863 
z
" transform="scale(0.015625)"/>
       <path id="DejaVuSans-5d" d="M 1947 4863 
L 1947 -844 
L 622 -844 
L 622 -397 
L 1369 -397 
L 1369 4416 
L 622 4416 
L 622 4863 
L 1947 4863 
z
" transform="scale(0.015625)"/>
      </defs>
      <use xlink:href="#DejaVuSans-51"/>
      <use xlink:href="#DejaVuSans-75" x="78.710938"/>
      <use xlink:href="#DejaVuSans-61" x="142.089844"/>
      <use xlink:href="#DejaVuSans-6c" x="203.369141"/>
      <use xlink:href="#DejaVuSans-69" x="231.152344"/>
      <use xlink:href="#DejaVuSans-74" x="258.935547"/>
      <use xlink:href="#DejaVuSans-79" x="298.144531"/>
      <use xlink:href="#DejaVuSans-20" x="357.324219"/>
      <use xlink:href="#DejaVuSans-66" x="389.111328"/>
      <use xlink:href="#DejaVuSans-61" x="424.316406"/>
      <use xlink:href="#DejaVuSans-63" x="485.595703"/>
      <use xlink:href="#DejaVuSans-74" x="540.576172"/>
      <use xlink:href="#DejaVuSans-6f" x="579.785156"/>
      <use xlink:href="#DejaVuSans-72" x="640.966797"/>
      <use xlink:href="#DejaVuSans-20" x="682.080078"/>
      <use xlink:href="#DejaVuSans-5b" x="713.867188"/>
      <use xlink:href="#DejaVuSans-6b" x="752.880859"/>
      <use xlink:href="#DejaVuSans-5d" x="810.791016"/>
     </g>
    </g>
   </g>
   <g id="LineCollection_1">
    <path d="M 56.835852 261.216 
L 56.835852 255.911422 
" clip-path="url(#p31ccc087f1)" style="fill: none; stroke: #1f77b4; stroke-width: 1.5"/>
    <path d="M 73.06858 256.736982 
L 73.06858 255.902886 
" clip-path="url(#p31ccc087f1)" style="fill: none; stroke: #1f77b4; stroke-width: 1.5"/>
    <path d="M 89.301307 255.560082 
L 89.301307 254.862712 
" clip-path="url(#p31ccc087f1)" style="fill: none; stroke: #1f77b4; stroke-width: 1.5"/>
    <path d="M 105.534034 255.15432 
L 105.534034 254.098301 
" clip-path="url(#p31ccc087f1)" style="fill: none; stroke: #1f77b4; stroke-width: 1.5"/>
    <path d="M 121.766761 255.682359 
L 121.766761 254.013726 
" clip-path="url(#p31ccc087f1)" style="fill: none; stroke: #1f77b4; stroke-width: 1.5"/>
    <path d="M 137.999489 253.175514 
L 137.999489 250.400868 
" clip-path="url(#p31ccc087f1)" style="fill: none; stroke: #1f77b4; stroke-width: 1.5"/>
    <path d="M 154.232216 258.133019 
L 154.232216 253.234009 
" clip-path="url(#p31ccc087f1)" style="fill: none; stroke: #1f77b4; stroke-width: 1.5"/>
    <path d="M 170.464943 248.427598 
L 170.464943 228.164044 
" clip-path="url(#p31ccc087f1)" style="fill: none; stroke: #1f77b4; stroke-width: 1.5"/>
    <path d="M 186.69767 236.934649 
L 186.69767 210.319195 
" clip-path="url(#p31ccc087f1)" style="fill: none; stroke: #1f77b4; stroke-width: 1.5"/>
    <path d="M 202.930398 232.223614 
L 202.930398 199.440758 
" clip-path="url(#p31ccc087f1)" style="fill: none; stroke: #1f77b4; stroke-width: 1.5"/>
    <path d="M 219.163125 232.994388 
L 219.163125 203.391049 
" clip-path="url(#p31ccc087f1)" style="fill: none; stroke: #1f77b4; stroke-width: 1.5"/>
    <path d="M 235.395852 241.791552 
L 235.395852 216.456222 
" clip-path="url(#p31ccc087f1)" style="fill: none; stroke: #1f77b4; stroke-width: 1.5"/>
    <path d="M 251.62858 226.043127 
L 251.62858 199.96189 
" clip-path="url(#p31ccc087f1)" style="fill: none; stroke: #1f77b4; stroke-width: 1.5"/>
    <path d="M 267.861307 220.052082 
L 267.861307 194.427369 
" clip-path="url(#p31ccc087f1)" style="fill: none; stroke: #1f77b4; stroke-width: 1.5"/>
    <path d="M 284.094034 211.117266 
L 284.094034 184.996323 
" clip-path="url(#p31ccc087f1)" style="fill: none; stroke: #1f77b4; stroke-width: 1.5"/>
    <path d="M 300.326761 207.924895 
L 300.326761 184.893385 
" clip-path="url(#p31ccc087f1)" style="fill: none; stroke: #1f77b4; stroke-width: 1.5"/>
    <path d="M 316.559489 206.353279 
L 316.559489 184.957239 
" clip-path="url(#p31ccc087f1)" style="fill: none; stroke: #1f77b4; stroke-width: 1.5"/>
    <path d="M 332.792216 210.044652 
L 332.792216 192.728353 
" clip-path="url(#p31ccc087f1)" style="fill: none; stroke: #1f77b4; stroke-width: 1.5"/>
    <path d="M 349.024943 212.970094 
L 349.024943 196.59001 
" clip-path="url(#p31ccc087f1)" style="fill: none; stroke: #1f77b4; stroke-width: 1.5"/>
    <path d="M 365.25767 218.177579 
L 365.25767 204.237655 
" clip-path="url(#p31ccc087f1)" style="fill: none; stroke: #1f77b4; stroke-width: 1.5"/>
    <path d="M 381.490398 225.031748 
L 381.490398 212.16862 
" clip-path="url(#p31ccc087f1)" style="fill: none; stroke: #1f77b4; stroke-width: 1.5"/>
   </g>
   <g id="line2d_13">
    <defs>
     <path id="m6b9c84fd9f" d="M 4 0 
L -4 -0 
" style="stroke: #1f77b4"/>
    </defs>
    <g clip-path="url(#p31ccc087f1)">
     <use xlink:href="#m6b9c84fd9f" x="56.835852" y="261.216" style="fill: #1f77b4; stroke: #1f77b4"/>
     <use xlink:href="#m6b9c84fd9f" x="73.06858" y="256.736982" style="fill: #1f77b4; stroke: #1f77b4"/>
     <use xlink:href="#m6b9c84fd9f" x="89.301307" y="255.560082" style="fill: #1f77b4; stroke: #1f77b4"/>
     <use xlink:href="#m6b9c84fd9f" x="105.534034" y="255.15432" style="fill: #1f77b4; stroke: #1f77b4"/>
     <use xlink:href="#m6b9c84fd9f" x="121.766761" y="255.682359" style="fill: #1f77b4; stroke: #1f77b4"/>
     <use xlink:href="#m6b9c84fd9f" x="137.999489" y="253.175514" style="fill: #1f77b4; stroke: #1f77b4"/>
     <use xlink:href="#m6b9c84fd9f" x="154.232216" y="258.133019" style="fill: #1f77b4; stroke: #1f77b4"/>
     <use xlink:href="#m6b9c84fd9f" x="170.464943" y="248.427598" style="fill: #1f77b4; stroke: #1f77b4"/>
     <use xlink:href="#m6b9c84fd9f" x="186.69767" y="236.934649" style="fill: #1f77b4; stroke: #1f77b4"/>
     <use xlink:href="#m6b9c84fd9f" x="202.930398" y="232.223614" style="fill: #1f77b4; stroke: #1f77b4"/>
     <use xlink:href="#m6b9c84fd9f" x="219.163125" y="232.994388" style="fill: #1f77b4; stroke: #1f77b4"/>
     <use xlink:href="#m6b9c84fd9f" x="235.395852" y="241.791552" style="fill: #1f77b4; stroke: #1f77b4"/>
     <use xlink:href="#m6b9c84fd9f" x="251.62858" y="226.043127" style="fill: #1f77b4; stroke: #1f77b4"/>
     <use xlink:href="#m6b9c84fd9f" x="267.861307" y="220.052082" style="fill: #1f77b4; stroke: #1f77b4"/>
     <use xlink:href="#m6b9c84fd9f" x="284.094034" y="211.117266" style="fill: #1f77b4; stroke: #1f77b4"/>
     <use xlink:href="#m6b9c84fd9f" x="300.326761" y="207.924895" style="fill: #1f77b4; stroke: #1f77b4"/>
     <use xlink:href="#m6b9c84fd9f" x="316.559489" y="206.353279" style="fill: #1f77b4; stroke: #1f77b4"/>
     <use xlink:href="#m6b9c84fd9f" x="332.792216" y="210.044652" style="fill: #1f77b4; stroke: #1f77b4"/>
     <use xlink:href="#m6b9c84fd9f" x="349.024943" y="212.970094" style="fill: #1f77b4; stroke: #1f77b4"/>
     <use xlink:href="#m6b9c84fd9f" x="365.25767" y="218.177579" style="fill: #1f77b4; stroke: #1f77b4"/>
     <use xlink:href="#m6b9c84fd9f" x="381.490398" y="225.031748" style="fill: #1f77b4; stroke: #1f77b4"/>
    </g>
   </g>
   <g id="line2d_14">
    <g clip-path="url(#p31ccc087f1)">
     <use xlink:href="#m6b9c84fd9f" x="56.835852" y="255.911422" style="fill: #1f77b4; stroke: #1f77b4"/>
     <use xlink:href="#m6b9c84fd9f" x="73.06858" y="255.902886" style="fill: #1f77b4; stroke: #1f77b4"/>
     <use xlink:href="#m6b9c84fd9f" x="89.301307" y="254.862712" style="fill: #1f77b4; stroke: #1f77b4"/>
     <use xlink:href="#m6b9c84fd9f" x="105.534034" y="254.098301" style="fill: #1f77b4; stroke: #1f77b4"/>
     <use xlink:href="#m6b9c84fd9f" x="121.766761" y="254.013726" style="fill: #1f77b4; stroke: #1f77b4"/>
     <use xlink:href="#m6b9c84fd9f" x="137.999489" y="250.400868" style="fill: #1f77b4; stroke: #1f77b4"/>
     <use xlink:href="#m6b9c84fd9f" x="154.232216" y="253.234009" style="fill: #1f77b4; stroke: #1f77b4"/>
     <use xlink:href="#m6b9c84fd9f" x="170.464943" y="228.164044" style="fill: #1f77b4; stroke: #1f77b4"/>
     <use xlink:href="#m6b9c84fd9f" x="186.69767" y="210.319195" style="fill: #1f77b4; stroke: #1f77b4"/>
     <use xlink:href="#m6b9c84fd9f" x="202.930398" y="199.440758" style="fill: #1f77b4; stroke: #1f77b4"/>
     <use xlink:href="#m6b9c84fd9f" x="219.163125" y="203.391049" style="fill: #1f77b4; stroke: #1f77b4"/>
     <use xlink:href="#m6b9c84fd9f" x="235.395852" y="216.456222" style="fill: #1f77b4; stroke: #1f77b4"/>
     <use xlink:href="#m6b9c84fd9f" x="251.62858" y="199.96189" style="fill: #1f77b4; stroke: #1f77b4"/>
     <use xlink:href="#m6b9c84fd9f" x="267.861307" y="194.427369" style="fill: #1f77b4; stroke: #1f77b4"/>
     <use xlink:href="#m6b9c84fd9f" x="284.094034" y="184.996323" style="fill: #1f77b4; stroke: #1f77b4"/>
     <use xlink:href="#m6b9c84fd9f" x="300.326761" y="184.893385" style="fill: #1f77b4; stroke: #1f77b4"/>
     <use xlink:href="#m6b9c84fd9f" x="316.559489" y="184.957239" style="fill: #1f77b4; stroke: #1f77b4"/>
     <use xlink:href="#m6b9c84fd9f" x="332.792216" y="192.728353" style="fill: #1f77b4; stroke: #1f77b4"/>
     <use xlink:href="#m6b9c84fd9f" x="349.024943" y="196.59001" style="fill: #1f77b4; stroke: #1f77b4"/>
     <use xlink:href="#m6b9c84fd9f" x="365.25767" y="204.237655" style="fill: #1f77b4; stroke: #1f77b4"/>
     <use xlink:href="#m6b9c84fd9f" x="381.490398" y="212.16862" style="fill: #1f77b4; stroke: #1f77b4"/>
    </g>
   </g>
   <g id="LineCollection_2">
    <path d="M 56.835852 234.470976 
L 56.835852 229.500892 
" clip-path="url(#p31ccc087f1)" style="fill: none; stroke: #ff7f0e; stroke-width: 1.5"/>
    <path d="M 73.06858 233.127862 
L 73.06858 232.366119 
" clip-path="url(#p31ccc087f1)" style="fill: none; stroke: #ff7f0e; stroke-width: 1.5"/>
    <path d="M 89.301307 232.217615 
L 89.301307 231.583128 
" clip-path="url(#p31ccc087f1)" style="fill: none; stroke: #ff7f0e; stroke-width: 1.5"/>
    <path d="M 105.534034 232.63418 
L 105.534034 231.680363 
" clip-path="url(#p31ccc087f1)" style="fill: none; stroke: #ff7f0e; stroke-width: 1.5"/>
    <path d="M 121.766761 231.609938 
L 121.766761 230.085231 
" clip-path="url(#p31ccc087f1)" style="fill: none; stroke: #ff7f0e; stroke-width: 1.5"/>
    <path d="M 137.999489 229.671425 
L 137.999489 227.162462 
" clip-path="url(#p31ccc087f1)" style="fill: none; stroke: #ff7f0e; stroke-width: 1.5"/>
    <path d="M 154.232216 217.226946 
L 154.232216 212.20603 
" clip-path="url(#p31ccc087f1)" style="fill: none; stroke: #ff7f0e; stroke-width: 1.5"/>
    <path d="M 170.464943 155.063398 
L 170.464943 128.496977 
" clip-path="url(#p31ccc087f1)" style="fill: none; stroke: #ff7f0e; stroke-width: 1.5"/>
    <path d="M 186.69767 117.773823 
L 186.69767 80.662032 
" clip-path="url(#p31ccc087f1)" style="fill: none; stroke: #ff7f0e; stroke-width: 1.5"/>
    <path d="M 202.930398 88.382359 
L 202.930398 39.325058 
" clip-path="url(#p31ccc087f1)" style="fill: none; stroke: #ff7f0e; stroke-width: 1.5"/>
    <path d="M 219.163125 68.288403 
L 219.163125 20.496508 
" clip-path="url(#p31ccc087f1)" style="fill: none; stroke: #ff7f0e; stroke-width: 1.5"/>
    <path d="M 235.395852 74.907983 
L 235.395852 32.102594 
" clip-path="url(#p31ccc087f1)" style="fill: none; stroke: #ff7f0e; stroke-width: 1.5"/>
    <path d="M 251.62858 60.318148 
L 251.62858 19.296 
" clip-path="url(#p31ccc087f1)" style="fill: none; stroke: #ff7f0e; stroke-width: 1.5"/>
    <path d="M 267.861307 60.848929 
L 267.861307 22.264629 
" clip-path="url(#p31ccc087f1)" style="fill: none; stroke: #ff7f0e; stroke-width: 1.5"/>
    <path d="M 284.094034 74.084059 
L 284.094034 38.551292 
" clip-path="url(#p31ccc087f1)" style="fill: none; stroke: #ff7f0e; stroke-width: 1.5"/>
    <path d="M 300.326761 87.924778 
L 300.326761 58.53739 
" clip-path="url(#p31ccc087f1)" style="fill: none; stroke: #ff7f0e; stroke-width: 1.5"/>
    <path d="M 316.559489 118.415535 
L 316.559489 94.254432 
" clip-path="url(#p31ccc087f1)" style="fill: none; stroke: #ff7f0e; stroke-width: 1.5"/>
    <path d="M 332.792216 130.142298 
L 332.792216 110.970431 
" clip-path="url(#p31ccc087f1)" style="fill: none; stroke: #ff7f0e; stroke-width: 1.5"/>
    <path d="M 349.024943 154.905271 
L 349.024943 138.293446 
" clip-path="url(#p31ccc087f1)" style="fill: none; stroke: #ff7f0e; stroke-width: 1.5"/>
    <path d="M 365.25767 167.15871 
L 365.25767 153.313962 
" clip-path="url(#p31ccc087f1)" style="fill: none; stroke: #ff7f0e; stroke-width: 1.5"/>
    <path d="M 381.490398 184.128826 
L 381.490398 171.827109 
" clip-path="url(#p31ccc087f1)" style="fill: none; stroke: #ff7f0e; stroke-width: 1.5"/>
   </g>
   <g id="line2d_15">
    <defs>
     <path id="m9cdac21a9e" d="M 4 0 
L -4 -0 
" style="stroke: #ff7f0e"/>
    </defs>
    <g clip-path="url(#p31ccc087f1)">
     <use xlink:href="#m9cdac21a9e" x="56.835852" y="234.470976" style="fill: #ff7f0e; stroke: #ff7f0e"/>
     <use xlink:href="#m9cdac21a9e" x="73.06858" y="233.127862" style="fill: #ff7f0e; stroke: #ff7f0e"/>
     <use xlink:href="#m9cdac21a9e" x="89.301307" y="232.217615" style="fill: #ff7f0e; stroke: #ff7f0e"/>
     <use xlink:href="#m9cdac21a9e" x="105.534034" y="232.63418" style="fill: #ff7f0e; stroke: #ff7f0e"/>
     <use xlink:href="#m9cdac21a9e" x="121.766761" y="231.609938" style="fill: #ff7f0e; stroke: #ff7f0e"/>
     <use xlink:href="#m9cdac21a9e" x="137.999489" y="229.671425" style="fill: #ff7f0e; stroke: #ff7f0e"/>
     <use xlink:href="#m9cdac21a9e" x="154.232216" y="217.226946" style="fill: #ff7f0e; stroke: #ff7f0e"/>
     <use xlink:href="#m9cdac21a9e" x="170.464943" y="155.063398" style="fill: #ff7f0e; stroke: #ff7f0e"/>
     <use xlink:href="#m9cdac21a9e" x="186.69767" y="117.773823" style="fill: #ff7f0e; stroke: #ff7f0e"/>
     <use xlink:href="#m9cdac21a9e" x="202.930398" y="88.382359" style="fill: #ff7f0e; stroke: #ff7f0e"/>
     <use xlink:href="#m9cdac21a9e" x="219.163125" y="68.288403" style="fill: #ff7f0e; stroke: #ff7f0e"/>
     <use xlink:href="#m9cdac21a9e" x="235.395852" y="74.907983" style="fill: #ff7f0e; stroke: #ff7f0e"/>
     <use xlink:href="#m9cdac21a9e" x="251.62858" y="60.318148" style="fill: #ff7f0e; stroke: #ff7f0e"/>
     <use xlink:href="#m9cdac21a9e" x="267.861307" y="60.848929" style="fill: #ff7f0e; stroke: #ff7f0e"/>
     <use xlink:href="#m9cdac21a9e" x="284.094034" y="74.084059" style="fill: #ff7f0e; stroke: #ff7f0e"/>
     <use xlink:href="#m9cdac21a9e" x="300.326761" y="87.924778" style="fill: #ff7f0e; stroke: #ff7f0e"/>
     <use xlink:href="#m9cdac21a9e" x="316.559489" y="118.415535" style="fill: #ff7f0e; stroke: #ff7f0e"/>
     <use xlink:href="#m9cdac21a9e" x="332.792216" y="130.142298" style="fill: #ff7f0e; stroke: #ff7f0e"/>
     <use xlink:href="#m9cdac21a9e" x="349.024943" y="154.905271" style="fill: #ff7f0e; stroke: #ff7f0e"/>
     <use xlink:href="#m9cdac21a9e" x="365.25767" y="167.15871" style="fill: #ff7f0e; stroke: #ff7f0e"/>
     <use xlink:href="#m9cdac21a9e" x="381.490398" y="184.128826" style="fill: #ff7f0e; stroke: #ff7f0e"/>
    </g>
   </g>
   <g id="line2d_16">
    <g clip-path="url(#p31ccc087f1)">
     <use xlink:href="#m9cdac21a9e" x="56.835852" y="229.500892" style="fill: #ff7f0e; stroke: #ff7f0e"/>
     <use xlink:href="#m9cdac21a9e" x="73.06858" y="232.366119" style="fill: #ff7f0e; stroke: #ff7f0e"/>
     <use xlink:href="#m9cdac21a9e" x="89.301307" y="231.583128" style="fill: #ff7f0e; stroke: #ff7f0e"/>
     <use xlink:href="#m9cdac21a9e" x="105.534034" y="231.680363" style="fill: #ff7f0e; stroke: #ff7f0e"/>
     <use xlink:href="#m9cdac21a9e" x="121.766761" y="230.085231" style="fill: #ff7f0e; stroke: #ff7f0e"/>
     <use xlink:href="#m9cdac21a9e" x="137.999489" y="227.162462" style="fill: #ff7f0e; stroke: #ff7f0e"/>
     <use xlink:href="#m9cdac21a9e" x="154.232216" y="212.20603" style="fill: #ff7f0e; stroke: #ff7f0e"/>
     <use xlink:href="#m9cdac21a9e" x="170.464943" y="128.496977" style="fill: #ff7f0e; stroke: #ff7f0e"/>
     <use xlink:href="#m9cdac21a9e" x="186.69767" y="80.662032" style="fill: #ff7f0e; stroke: #ff7f0e"/>
     <use xlink:href="#m9cdac21a9e" x="202.930398" y="39.325058" style="fill: #ff7f0e; stroke: #ff7f0e"/>
     <use xlink:href="#m9cdac21a9e" x="219.163125" y="20.496508" style="fill: #ff7f0e; stroke: #ff7f0e"/>
     <use xlink:href="#m9cdac21a9e" x="235.395852" y="32.102594" style="fill: #ff7f0e; stroke: #ff7f0e"/>
     <use xlink:href="#m9cdac21a9e" x="251.62858" y="19.296" style="fill: #ff7f0e; stroke: #ff7f0e"/>
     <use xlink:href="#m9cdac21a9e" x="267.861307" y="22.264629" style="fill: #ff7f0e; stroke: #ff7f0e"/>
     <use xlink:href="#m9cdac21a9e" x="284.094034" y="38.551292" style="fill: #ff7f0e; stroke: #ff7f0e"/>
     <use xlink:href="#m9cdac21a9e" x="300.326761" y="58.53739" style="fill: #ff7f0e; stroke: #ff7f0e"/>
     <use xlink:href="#m9cdac21a9e" x="316.559489" y="94.254432" style="fill: #ff7f0e; stroke: #ff7f0e"/>
     <use xlink:href="#m9cdac21a9e" x="332.792216" y="110.970431" style="fill: #ff7f0e; stroke: #ff7f0e"/>
     <use xlink:href="#m9cdac21a9e" x="349.024943" y="138.293446" style="fill: #ff7f0e; stroke: #ff7f0e"/>
     <use xlink:href="#m9cdac21a9e" x="365.25767" y="153.313962" style="fill: #ff7f0e; stroke: #ff7f0e"/>
     <use xlink:href="#m9cdac21a9e" x="381.490398" y="171.827109" style="fill: #ff7f0e; stroke: #ff7f0e"/>
    </g>
   </g>
   <g id="line2d_17">
    <defs>
     <path id="mee009ad419" d="M 0 1.5 
C 0.397805 1.5 0.77937 1.341951 1.06066 1.06066 
C 1.341951 0.77937 1.5 0.397805 1.5 0 
C 1.5 -0.397805 1.341951 -0.77937 1.06066 -1.06066 
C 0.77937 -1.341951 0.397805 -1.5 0 -1.5 
C -0.397805 -1.5 -0.77937 -1.341951 -1.06066 -1.06066 
C -1.341951 -0.77937 -1.5 -0.397805 -1.5 0 
C -1.5 0.397805 -1.341951 0.77937 -1.06066 1.06066 
C -0.77937 1.341951 -0.397805 1.5 0 1.5 
z
" style="stroke: #1f77b4"/>
    </defs>
    <g clip-path="url(#p31ccc087f1)">
     <use xlink:href="#mee009ad419" x="56.835852" y="258.563711" style="fill: #1f77b4; stroke: #1f77b4"/>
     <use xlink:href="#mee009ad419" x="73.06858" y="256.319934" style="fill: #1f77b4; stroke: #1f77b4"/>
     <use xlink:href="#mee009ad419" x="89.301307" y="255.211397" style="fill: #1f77b4; stroke: #1f77b4"/>
     <use xlink:href="#mee009ad419" x="105.534034" y="254.626311" style="fill: #1f77b4; stroke: #1f77b4"/>
     <use xlink:href="#mee009ad419" x="121.766761" y="254.848043" style="fill: #1f77b4; stroke: #1f77b4"/>
     <use xlink:href="#mee009ad419" x="137.999489" y="251.788191" style="fill: #1f77b4; stroke: #1f77b4"/>
     <use xlink:href="#mee009ad419" x="154.232216" y="255.683514" style="fill: #1f77b4; stroke: #1f77b4"/>
     <use xlink:href="#mee009ad419" x="170.464943" y="238.295821" style="fill: #1f77b4; stroke: #1f77b4"/>
     <use xlink:href="#mee009ad419" x="186.69767" y="223.626922" style="fill: #1f77b4; stroke: #1f77b4"/>
     <use xlink:href="#mee009ad419" x="202.930398" y="215.832186" style="fill: #1f77b4; stroke: #1f77b4"/>
     <use xlink:href="#mee009ad419" x="219.163125" y="218.192719" style="fill: #1f77b4; stroke: #1f77b4"/>
     <use xlink:href="#mee009ad419" x="235.395852" y="229.123887" style="fill: #1f77b4; stroke: #1f77b4"/>
     <use xlink:href="#mee009ad419" x="251.62858" y="213.002508" style="fill: #1f77b4; stroke: #1f77b4"/>
     <use xlink:href="#mee009ad419" x="267.861307" y="207.239725" style="fill: #1f77b4; stroke: #1f77b4"/>
     <use xlink:href="#mee009ad419" x="284.094034" y="198.056795" style="fill: #1f77b4; stroke: #1f77b4"/>
     <use xlink:href="#mee009ad419" x="300.326761" y="196.40914" style="fill: #1f77b4; stroke: #1f77b4"/>
     <use xlink:href="#mee009ad419" x="316.559489" y="195.655259" style="fill: #1f77b4; stroke: #1f77b4"/>
     <use xlink:href="#mee009ad419" x="332.792216" y="201.386503" style="fill: #1f77b4; stroke: #1f77b4"/>
     <use xlink:href="#mee009ad419" x="349.024943" y="204.780052" style="fill: #1f77b4; stroke: #1f77b4"/>
     <use xlink:href="#mee009ad419" x="365.25767" y="211.207617" style="fill: #1f77b4; stroke: #1f77b4"/>
     <use xlink:href="#mee009ad419" x="381.490398" y="218.600184" style="fill: #1f77b4; stroke: #1f77b4"/>
    </g>
   </g>
   <g id="line2d_18">
    <defs>
     <path id="m74e550c8c3" d="M 0 1.5 
C 0.397805 1.5 0.77937 1.341951 1.06066 1.06066 
C 1.341951 0.77937 1.5 0.397805 1.5 0 
C 1.5 -0.397805 1.341951 -0.77937 1.06066 -1.06066 
C 0.77937 -1.341951 0.397805 -1.5 0 -1.5 
C -0.397805 -1.5 -0.77937 -1.341951 -1.06066 -1.06066 
C -1.341951 -0.77937 -1.5 -0.397805 -1.5 0 
C -1.5 0.397805 -1.341951 0.77937 -1.06066 1.06066 
C -0.77937 1.341951 -0.397805 1.5 0 1.5 
z
" style="stroke: #ff7f0e"/>
    </defs>
    <g clip-path="url(#p31ccc087f1)">
     <use xlink:href="#m74e550c8c3" x="56.835852" y="231.985934" style="fill: #ff7f0e; stroke: #ff7f0e"/>
     <use xlink:href="#m74e550c8c3" x="73.06858" y="232.746991" style="fill: #ff7f0e; stroke: #ff7f0e"/>
     <use xlink:href="#m74e550c8c3" x="89.301307" y="231.900372" style="fill: #ff7f0e; stroke: #ff7f0e"/>
     <use xlink:href="#m74e550c8c3" x="105.534034" y="232.157271" style="fill: #ff7f0e; stroke: #ff7f0e"/>
     <use xlink:href="#m74e550c8c3" x="121.766761" y="230.847585" style="fill: #ff7f0e; stroke: #ff7f0e"/>
     <use xlink:href="#m74e550c8c3" x="137.999489" y="228.416944" style="fill: #ff7f0e; stroke: #ff7f0e"/>
     <use xlink:href="#m74e550c8c3" x="154.232216" y="214.716488" style="fill: #ff7f0e; stroke: #ff7f0e"/>
     <use xlink:href="#m74e550c8c3" x="170.464943" y="141.780188" style="fill: #ff7f0e; stroke: #ff7f0e"/>
     <use xlink:href="#m74e550c8c3" x="186.69767" y="99.217928" style="fill: #ff7f0e; stroke: #ff7f0e"/>
     <use xlink:href="#m74e550c8c3" x="202.930398" y="63.853709" style="fill: #ff7f0e; stroke: #ff7f0e"/>
     <use xlink:href="#m74e550c8c3" x="219.163125" y="44.392456" style="fill: #ff7f0e; stroke: #ff7f0e"/>
     <use xlink:href="#m74e550c8c3" x="235.395852" y="53.505289" style="fill: #ff7f0e; stroke: #ff7f0e"/>
     <use xlink:href="#m74e550c8c3" x="251.62858" y="39.807074" style="fill: #ff7f0e; stroke: #ff7f0e"/>
     <use xlink:href="#m74e550c8c3" x="267.861307" y="41.556779" style="fill: #ff7f0e; stroke: #ff7f0e"/>
     <use xlink:href="#m74e550c8c3" x="284.094034" y="56.317675" style="fill: #ff7f0e; stroke: #ff7f0e"/>
     <use xlink:href="#m74e550c8c3" x="300.326761" y="73.231084" style="fill: #ff7f0e; stroke: #ff7f0e"/>
     <use xlink:href="#m74e550c8c3" x="316.559489" y="106.334984" style="fill: #ff7f0e; stroke: #ff7f0e"/>
     <use xlink:href="#m74e550c8c3" x="332.792216" y="120.556364" style="fill: #ff7f0e; stroke: #ff7f0e"/>
     <use xlink:href="#m74e550c8c3" x="349.024943" y="146.599359" style="fill: #ff7f0e; stroke: #ff7f0e"/>
     <use xlink:href="#m74e550c8c3" x="365.25767" y="160.236336" style="fill: #ff7f0e; stroke: #ff7f0e"/>
     <use xlink:href="#m74e550c8c3" x="381.490398" y="177.977968" style="fill: #ff7f0e; stroke: #ff7f0e"/>
    </g>
   </g>
   <g id="patch_3">
    <path d="M 40.603125 273.312 
L 40.603125 7.2 
" style="fill: none; stroke: #000000; stroke-width: 0.8; stroke-linejoin: miter; stroke-linecap: square"/>
   </g>
   <g id="patch_4">
    <path d="M 397.723125 273.312 
L 397.723125 7.2 
" style="fill: none; stroke: #000000; stroke-width: 0.8; stroke-linejoin: miter; stroke-linecap: square"/>
   </g>
   <g id="patch_5">
    <path d="M 40.603125 273.312 
L 397.723125 273.312 
" style="fill: none; stroke: #000000; stroke-width: 0.8; stroke-linejoin: miter; stroke-linecap: square"/>
   </g>
   <g id="patch_6">
    <path d="M 40.603125 7.2 
L 397.723125 7.2 
" style="fill: none; stroke: #000000; stroke-width: 0.8; stroke-linejoin: miter; stroke-linecap: square"/>
   </g>
   <g id="legend_1">
    <g id="patch_7">
     <path d="M 404.723125 44.55625 
L 449.823125 44.55625 
Q 451.823125 44.55625 451.823125 42.55625 
L 451.823125 14.2 
Q 451.823125 12.2 449.823125 12.2 
L 404.723125 12.2 
Q 402.723125 12.2 402.723125 14.2 
L 402.723125 42.55625 
Q 402.723125 44.55625 404.723125 44.55625 
z
" style="fill: #ffffff; opacity: 0.8; stroke: #cccccc; stroke-linejoin: miter"/>
    </g>
    <g id="LineCollection_3">
     <path d="M 416.723125 25.298437 
L 416.723125 15.298437 
" style="fill: none; stroke: #1f77b4; stroke-width: 1.5"/>
    </g>
    <g id="line2d_19">
     <g>
      <use xlink:href="#m6b9c84fd9f" x="416.723125" y="25.298437" style="fill: #1f77b4; stroke: #1f77b4"/>
     </g>
    </g>
    <g id="line2d_20">
     <g>
      <use xlink:href="#m6b9c84fd9f" x="416.723125" y="15.298437" style="fill: #1f77b4; stroke: #1f77b4"/>
     </g>
    </g>
    <g id="line2d_21"/>
    <g id="line2d_22">
     <g>
      <use xlink:href="#mee009ad419" x="416.723125" y="20.298437" style="fill: #1f77b4; stroke: #1f77b4"/>
     </g>
    </g>
    <g id="text_15">
     <!-- $Q_l$ -->
     <g transform="translate(434.723125 23.798437) scale(0.1 -0.1)">
      <defs>
       <path id="DejaVuSans-Oblique-51" d="M 2309 -84 
Q 2275 -88 2237 -89 
Q 2200 -91 2125 -91 
Q 1250 -91 756 411 
Q 263 913 263 1797 
Q 263 2319 452 2844 
Q 641 3369 978 3788 
Q 1369 4269 1858 4509 
Q 2347 4750 2938 4750 
Q 3794 4750 4287 4245 
Q 4781 3741 4781 2869 
Q 4781 1928 4265 1147 
Q 3750 366 2919 44 
L 3553 -825 
L 2847 -825 
L 2309 -84 
z
M 2919 4238 
Q 2400 4238 2003 3986 
Q 1606 3734 1313 3219 
Q 1125 2891 1026 2522 
Q 928 2153 928 1778 
Q 928 1128 1239 775 
Q 1550 422 2119 422 
Q 2631 422 3032 676 
Q 3434 931 3719 1434 
Q 3909 1772 4009 2142 
Q 4109 2513 4109 2881 
Q 4109 3528 3796 3883 
Q 3484 4238 2919 4238 
z
" transform="scale(0.015625)"/>
       <path id="DejaVuSans-Oblique-6c" d="M 1172 4863 
L 1747 4863 
L 800 0 
L 225 0 
L 1172 4863 
z
" transform="scale(0.015625)"/>
      </defs>
      <use xlink:href="#DejaVuSans-Oblique-51" transform="translate(0 0.78125)"/>
      <use xlink:href="#DejaVuSans-Oblique-6c" transform="translate(78.710938 -15.625) scale(0.7)"/>
     </g>
    </g>
    <g id="LineCollection_4">
     <path d="M 416.723125 39.976562 
L 416.723125 29.976562 
" style="fill: none; stroke: #ff7f0e; stroke-width: 1.5"/>
    </g>
    <g id="line2d_23">
     <g>
      <use xlink:href="#m9cdac21a9e" x="416.723125" y="39.976562" style="fill: #ff7f0e; stroke: #ff7f0e"/>
     </g>
    </g>
    <g id="line2d_24">
     <g>
      <use xlink:href="#m9cdac21a9e" x="416.723125" y="29.976562" style="fill: #ff7f0e; stroke: #ff7f0e"/>
     </g>
    </g>
    <g id="line2d_25"/>
    <g id="line2d_26">
     <g>
      <use xlink:href="#m74e550c8c3" x="416.723125" y="34.976562" style="fill: #ff7f0e; stroke: #ff7f0e"/>
     </g>
    </g>
    <g id="text_16">
     <!-- $Q_C$ -->
     <g transform="translate(434.723125 38.476562) scale(0.1 -0.1)">
      <defs>
       <path id="DejaVuSans-Oblique-43" d="M 4447 4306 
L 4319 3641 
Q 4019 3944 3683 4091 
Q 3347 4238 2956 4238 
Q 2422 4238 2017 3981 
Q 1613 3725 1319 3200 
Q 1131 2863 1032 2486 
Q 934 2109 934 1728 
Q 934 1091 1264 756 
Q 1594 422 2222 422 
Q 2656 422 3056 561 
Q 3456 700 3834 978 
L 3688 231 
Q 3316 72 2936 -9 
Q 2556 -91 2175 -91 
Q 1278 -91 773 396 
Q 269 884 269 1753 
Q 269 2309 461 2846 
Q 653 3384 1013 3828 
Q 1394 4300 1883 4525 
Q 2372 4750 3022 4750 
Q 3422 4750 3780 4639 
Q 4138 4528 4447 4306 
z
" transform="scale(0.015625)"/>
      </defs>
      <use xlink:href="#DejaVuSans-Oblique-51" transform="translate(0 0.78125)"/>
      <use xlink:href="#DejaVuSans-Oblique-43" transform="translate(78.710938 -15.625) scale(0.7)"/>
     </g>
    </g>
   </g>
  </g>
 </g>
 <defs>
  <clipPath id="p31ccc087f1">
   <rect x="40.603125" y="7.2" width="357.12" height="266.112"/>
  </clipPath>
 </defs>
</svg>
