<?xml version="1.0" encoding="utf-8" standalone="no"?>
<!DOCTYPE svg PUBLIC "-//W3C//DTD SVG 1.1//EN"
  "http://www.w3.org/Graphics/SVG/1.1/DTD/svg11.dtd">
<svg xmlns:xlink="http://www.w3.org/1999/xlink" width="653.55725pt" height="345.42825pt" viewBox="0 0 653.55725 345.42825" xmlns="http://www.w3.org/2000/svg" version="1.1">
 <metadata>
  <rdf:RDF xmlns:dc="http://purl.org/dc/elements/1.1/" xmlns:cc="http://creativecommons.org/ns#" xmlns:rdf="http://www.w3.org/1999/02/22-rdf-syntax-ns#">
   <cc:Work>
    <dc:type rdf:resource="http://purl.org/dc/dcmitype/StillImage"/>
    <dc:date>2024-11-14T11:20:13.622546</dc:date>
    <dc:format>image/svg+xml</dc:format>
    <dc:creator>
     <cc:Agent>
      <dc:title>Matplotlib v3.8.0, https://matplotlib.org/</dc:title>
     </cc:Agent>
    </dc:creator>
   </cc:Work>
  </rdf:RDF>
 </metadata>
 <defs>
  <style type="text/css">*{stroke-linejoin: round; stroke-linecap: butt}</style>
 </defs>
 <g id="figure_1">
  <g id="patch_1">
   <path d="M 0 345.42825 
L 653.55725 345.42825 
L 653.55725 -0 
L 0 -0 
L 0 345.42825 
z
" style="fill: none; opacity: 0"/>
  </g>
  <g id="axes_1">
   <g id="patch_2">
    <path d="M 43.78125 307.872 
L 400.90125 307.872 
L 400.90125 41.76 
L 43.78125 41.76 
z
" style="fill: #ffffff"/>
   </g>
   <g id="matplotlib.axis_1">
    <g id="xtick_1">
     <g id="line2d_1">
      <defs>
       <path id="m1023d2a783" d="M 0 0 
L 0 3.5 
" style="stroke: #000000; stroke-width: 0.8"/>
      </defs>
      <g>
       <use xlink:href="#m1023d2a783" x="46.650461" y="307.872" style="stroke: #000000; stroke-width: 0.8"/>
      </g>
     </g>
     <g id="text_1">
      <!-- 208 -->
      <g transform="translate(37.106711 322.470438) scale(0.1 -0.1)">
       <defs>
        <path id="DejaVuSans-32" d="M 1228 531 
L 3431 531 
L 3431 0 
L 469 0 
L 469 531 
Q 828 903 1448 1529 
Q 2069 2156 2228 2338 
Q 2531 2678 2651 2914 
Q 2772 3150 2772 3378 
Q 2772 3750 2511 3984 
Q 2250 4219 1831 4219 
Q 1534 4219 1204 4116 
Q 875 4013 500 3803 
L 500 4441 
Q 881 4594 1212 4672 
Q 1544 4750 1819 4750 
Q 2544 4750 2975 4387 
Q 3406 4025 3406 3419 
Q 3406 3131 3298 2873 
Q 3191 2616 2906 2266 
Q 2828 2175 2409 1742 
Q 1991 1309 1228 531 
z
" transform="scale(0.015625)"/>
        <path id="DejaVuSans-30" d="M 2034 4250 
Q 1547 4250 1301 3770 
Q 1056 3291 1056 2328 
Q 1056 1369 1301 889 
Q 1547 409 2034 409 
Q 2525 409 2770 889 
Q 3016 1369 3016 2328 
Q 3016 3291 2770 3770 
Q 2525 4250 2034 4250 
z
M 2034 4750 
Q 2819 4750 3233 4129 
Q 3647 3509 3647 2328 
Q 3647 1150 3233 529 
Q 2819 -91 2034 -91 
Q 1250 -91 836 529 
Q 422 1150 422 2328 
Q 422 3509 836 4129 
Q 1250 4750 2034 4750 
z
" transform="scale(0.015625)"/>
        <path id="DejaVuSans-38" d="M 2034 2216 
Q 1584 2216 1326 1975 
Q 1069 1734 1069 1313 
Q 1069 891 1326 650 
Q 1584 409 2034 409 
Q 2484 409 2743 651 
Q 3003 894 3003 1313 
Q 3003 1734 2745 1975 
Q 2488 2216 2034 2216 
z
M 1403 2484 
Q 997 2584 770 2862 
Q 544 3141 544 3541 
Q 544 4100 942 4425 
Q 1341 4750 2034 4750 
Q 2731 4750 3128 4425 
Q 3525 4100 3525 3541 
Q 3525 3141 3298 2862 
Q 3072 2584 2669 2484 
Q 3125 2378 3379 2068 
Q 3634 1759 3634 1313 
Q 3634 634 3220 271 
Q 2806 -91 2034 -91 
Q 1263 -91 848 271 
Q 434 634 434 1313 
Q 434 1759 690 2068 
Q 947 2378 1403 2484 
z
M 1172 3481 
Q 1172 3119 1398 2916 
Q 1625 2713 2034 2713 
Q 2441 2713 2670 2916 
Q 2900 3119 2900 3481 
Q 2900 3844 2670 4047 
Q 2441 4250 2034 4250 
Q 1625 4250 1398 4047 
Q 1172 3844 1172 3481 
z
" transform="scale(0.015625)"/>
       </defs>
       <use xlink:href="#DejaVuSans-32"/>
       <use xlink:href="#DejaVuSans-30" x="63.623047"/>
       <use xlink:href="#DejaVuSans-38" x="127.246094"/>
      </g>
     </g>
    </g>
    <g id="xtick_2">
     <g id="line2d_2">
      <g>
       <use xlink:href="#m1023d2a783" x="87.487511" y="307.872" style="stroke: #000000; stroke-width: 0.8"/>
      </g>
     </g>
     <g id="text_2">
      <!-- 209 -->
      <g transform="translate(77.943761 322.470438) scale(0.1 -0.1)">
       <defs>
        <path id="DejaVuSans-39" d="M 703 97 
L 703 672 
Q 941 559 1184 500 
Q 1428 441 1663 441 
Q 2288 441 2617 861 
Q 2947 1281 2994 2138 
Q 2813 1869 2534 1725 
Q 2256 1581 1919 1581 
Q 1219 1581 811 2004 
Q 403 2428 403 3163 
Q 403 3881 828 4315 
Q 1253 4750 1959 4750 
Q 2769 4750 3195 4129 
Q 3622 3509 3622 2328 
Q 3622 1225 3098 567 
Q 2575 -91 1691 -91 
Q 1453 -91 1209 -44 
Q 966 3 703 97 
z
M 1959 2075 
Q 2384 2075 2632 2365 
Q 2881 2656 2881 3163 
Q 2881 3666 2632 3958 
Q 2384 4250 1959 4250 
Q 1534 4250 1286 3958 
Q 1038 3666 1038 3163 
Q 1038 2656 1286 2365 
Q 1534 2075 1959 2075 
z
" transform="scale(0.015625)"/>
       </defs>
       <use xlink:href="#DejaVuSans-32"/>
       <use xlink:href="#DejaVuSans-30" x="63.623047"/>
       <use xlink:href="#DejaVuSans-39" x="127.246094"/>
      </g>
     </g>
    </g>
    <g id="xtick_3">
     <g id="line2d_3">
      <g>
       <use xlink:href="#m1023d2a783" x="128.324561" y="307.872" style="stroke: #000000; stroke-width: 0.8"/>
      </g>
     </g>
     <g id="text_3">
      <!-- 210 -->
      <g transform="translate(118.780811 322.470438) scale(0.1 -0.1)">
       <defs>
        <path id="DejaVuSans-31" d="M 794 531 
L 1825 531 
L 1825 4091 
L 703 3866 
L 703 4441 
L 1819 4666 
L 2450 4666 
L 2450 531 
L 3481 531 
L 3481 0 
L 794 0 
L 794 531 
z
" transform="scale(0.015625)"/>
       </defs>
       <use xlink:href="#DejaVuSans-32"/>
       <use xlink:href="#DejaVuSans-31" x="63.623047"/>
       <use xlink:href="#DejaVuSans-30" x="127.246094"/>
      </g>
     </g>
    </g>
    <g id="xtick_4">
     <g id="line2d_4">
      <g>
       <use xlink:href="#m1023d2a783" x="169.16161" y="307.872" style="stroke: #000000; stroke-width: 0.8"/>
      </g>
     </g>
     <g id="text_4">
      <!-- 211 -->
      <g transform="translate(159.61786 322.470438) scale(0.1 -0.1)">
       <use xlink:href="#DejaVuSans-32"/>
       <use xlink:href="#DejaVuSans-31" x="63.623047"/>
       <use xlink:href="#DejaVuSans-31" x="127.246094"/>
      </g>
     </g>
    </g>
    <g id="xtick_5">
     <g id="line2d_5">
      <g>
       <use xlink:href="#m1023d2a783" x="209.99866" y="307.872" style="stroke: #000000; stroke-width: 0.8"/>
      </g>
     </g>
     <g id="text_5">
      <!-- 212 -->
      <g transform="translate(200.45491 322.470438) scale(0.1 -0.1)">
       <use xlink:href="#DejaVuSans-32"/>
       <use xlink:href="#DejaVuSans-31" x="63.623047"/>
       <use xlink:href="#DejaVuSans-32" x="127.246094"/>
      </g>
     </g>
    </g>
    <g id="xtick_6">
     <g id="line2d_6">
      <g>
       <use xlink:href="#m1023d2a783" x="250.83571" y="307.872" style="stroke: #000000; stroke-width: 0.8"/>
      </g>
     </g>
     <g id="text_6">
      <!-- 213 -->
      <g transform="translate(241.29196 322.470438) scale(0.1 -0.1)">
       <defs>
        <path id="DejaVuSans-33" d="M 2597 2516 
Q 3050 2419 3304 2112 
Q 3559 1806 3559 1356 
Q 3559 666 3084 287 
Q 2609 -91 1734 -91 
Q 1441 -91 1130 -33 
Q 819 25 488 141 
L 488 750 
Q 750 597 1062 519 
Q 1375 441 1716 441 
Q 2309 441 2620 675 
Q 2931 909 2931 1356 
Q 2931 1769 2642 2001 
Q 2353 2234 1838 2234 
L 1294 2234 
L 1294 2753 
L 1863 2753 
Q 2328 2753 2575 2939 
Q 2822 3125 2822 3475 
Q 2822 3834 2567 4026 
Q 2313 4219 1838 4219 
Q 1578 4219 1281 4162 
Q 984 4106 628 3988 
L 628 4550 
Q 988 4650 1302 4700 
Q 1616 4750 1894 4750 
Q 2613 4750 3031 4423 
Q 3450 4097 3450 3541 
Q 3450 3153 3228 2886 
Q 3006 2619 2597 2516 
z
" transform="scale(0.015625)"/>
       </defs>
       <use xlink:href="#DejaVuSans-32"/>
       <use xlink:href="#DejaVuSans-31" x="63.623047"/>
       <use xlink:href="#DejaVuSans-33" x="127.246094"/>
      </g>
     </g>
    </g>
    <g id="xtick_7">
     <g id="line2d_7">
      <g>
       <use xlink:href="#m1023d2a783" x="291.67276" y="307.872" style="stroke: #000000; stroke-width: 0.8"/>
      </g>
     </g>
     <g id="text_7">
      <!-- 214 -->
      <g transform="translate(282.12901 322.470438) scale(0.1 -0.1)">
       <defs>
        <path id="DejaVuSans-34" d="M 2419 4116 
L 825 1625 
L 2419 1625 
L 2419 4116 
z
M 2253 4666 
L 3047 4666 
L 3047 1625 
L 3713 1625 
L 3713 1100 
L 3047 1100 
L 3047 0 
L 2419 0 
L 2419 1100 
L 313 1100 
L 313 1709 
L 2253 4666 
z
" transform="scale(0.015625)"/>
       </defs>
       <use xlink:href="#DejaVuSans-32"/>
       <use xlink:href="#DejaVuSans-31" x="63.623047"/>
       <use xlink:href="#DejaVuSans-34" x="127.246094"/>
      </g>
     </g>
    </g>
    <g id="xtick_8">
     <g id="line2d_8">
      <g>
       <use xlink:href="#m1023d2a783" x="332.509809" y="307.872" style="stroke: #000000; stroke-width: 0.8"/>
      </g>
     </g>
     <g id="text_8">
      <!-- 215 -->
      <g transform="translate(322.966059 322.470438) scale(0.1 -0.1)">
       <defs>
        <path id="DejaVuSans-35" d="M 691 4666 
L 3169 4666 
L 3169 4134 
L 1269 4134 
L 1269 2991 
Q 1406 3038 1543 3061 
Q 1681 3084 1819 3084 
Q 2600 3084 3056 2656 
Q 3513 2228 3513 1497 
Q 3513 744 3044 326 
Q 2575 -91 1722 -91 
Q 1428 -91 1123 -41 
Q 819 9 494 109 
L 494 744 
Q 775 591 1075 516 
Q 1375 441 1709 441 
Q 2250 441 2565 725 
Q 2881 1009 2881 1497 
Q 2881 1984 2565 2268 
Q 2250 2553 1709 2553 
Q 1456 2553 1204 2497 
Q 953 2441 691 2322 
L 691 4666 
z
" transform="scale(0.015625)"/>
       </defs>
       <use xlink:href="#DejaVuSans-32"/>
       <use xlink:href="#DejaVuSans-31" x="63.623047"/>
       <use xlink:href="#DejaVuSans-35" x="127.246094"/>
      </g>
     </g>
    </g>
    <g id="xtick_9">
     <g id="line2d_9">
      <g>
       <use xlink:href="#m1023d2a783" x="373.346859" y="307.872" style="stroke: #000000; stroke-width: 0.8"/>
      </g>
     </g>
     <g id="text_9">
      <!-- 216 -->
      <g transform="translate(363.803109 322.470438) scale(0.1 -0.1)">
       <defs>
        <path id="DejaVuSans-36" d="M 2113 2584 
Q 1688 2584 1439 2293 
Q 1191 2003 1191 1497 
Q 1191 994 1439 701 
Q 1688 409 2113 409 
Q 2538 409 2786 701 
Q 3034 994 3034 1497 
Q 3034 2003 2786 2293 
Q 2538 2584 2113 2584 
z
M 3366 4563 
L 3366 3988 
Q 3128 4100 2886 4159 
Q 2644 4219 2406 4219 
Q 1781 4219 1451 3797 
Q 1122 3375 1075 2522 
Q 1259 2794 1537 2939 
Q 1816 3084 2150 3084 
Q 2853 3084 3261 2657 
Q 3669 2231 3669 1497 
Q 3669 778 3244 343 
Q 2819 -91 2113 -91 
Q 1303 -91 875 529 
Q 447 1150 447 2328 
Q 447 3434 972 4092 
Q 1497 4750 2381 4750 
Q 2619 4750 2861 4703 
Q 3103 4656 3366 4563 
z
" transform="scale(0.015625)"/>
       </defs>
       <use xlink:href="#DejaVuSans-32"/>
       <use xlink:href="#DejaVuSans-31" x="63.623047"/>
       <use xlink:href="#DejaVuSans-36" x="127.246094"/>
      </g>
     </g>
    </g>
    <g id="text_10">
     <!-- Spec frequency [MHz] -->
     <g transform="translate(167.312344 336.148562) scale(0.1 -0.1)">
      <defs>
       <path id="DejaVuSans-53" d="M 3425 4513 
L 3425 3897 
Q 3066 4069 2747 4153 
Q 2428 4238 2131 4238 
Q 1616 4238 1336 4038 
Q 1056 3838 1056 3469 
Q 1056 3159 1242 3001 
Q 1428 2844 1947 2747 
L 2328 2669 
Q 3034 2534 3370 2195 
Q 3706 1856 3706 1288 
Q 3706 609 3251 259 
Q 2797 -91 1919 -91 
Q 1588 -91 1214 -16 
Q 841 59 441 206 
L 441 856 
Q 825 641 1194 531 
Q 1563 422 1919 422 
Q 2459 422 2753 634 
Q 3047 847 3047 1241 
Q 3047 1584 2836 1778 
Q 2625 1972 2144 2069 
L 1759 2144 
Q 1053 2284 737 2584 
Q 422 2884 422 3419 
Q 422 4038 858 4394 
Q 1294 4750 2059 4750 
Q 2388 4750 2728 4690 
Q 3069 4631 3425 4513 
z
" transform="scale(0.015625)"/>
       <path id="DejaVuSans-70" d="M 1159 525 
L 1159 -1331 
L 581 -1331 
L 581 3500 
L 1159 3500 
L 1159 2969 
Q 1341 3281 1617 3432 
Q 1894 3584 2278 3584 
Q 2916 3584 3314 3078 
Q 3713 2572 3713 1747 
Q 3713 922 3314 415 
Q 2916 -91 2278 -91 
Q 1894 -91 1617 61 
Q 1341 213 1159 525 
z
M 3116 1747 
Q 3116 2381 2855 2742 
Q 2594 3103 2138 3103 
Q 1681 3103 1420 2742 
Q 1159 2381 1159 1747 
Q 1159 1113 1420 752 
Q 1681 391 2138 391 
Q 2594 391 2855 752 
Q 3116 1113 3116 1747 
z
" transform="scale(0.015625)"/>
       <path id="DejaVuSans-65" d="M 3597 1894 
L 3597 1613 
L 953 1613 
Q 991 1019 1311 708 
Q 1631 397 2203 397 
Q 2534 397 2845 478 
Q 3156 559 3463 722 
L 3463 178 
Q 3153 47 2828 -22 
Q 2503 -91 2169 -91 
Q 1331 -91 842 396 
Q 353 884 353 1716 
Q 353 2575 817 3079 
Q 1281 3584 2069 3584 
Q 2775 3584 3186 3129 
Q 3597 2675 3597 1894 
z
M 3022 2063 
Q 3016 2534 2758 2815 
Q 2500 3097 2075 3097 
Q 1594 3097 1305 2825 
Q 1016 2553 972 2059 
L 3022 2063 
z
" transform="scale(0.015625)"/>
       <path id="DejaVuSans-63" d="M 3122 3366 
L 3122 2828 
Q 2878 2963 2633 3030 
Q 2388 3097 2138 3097 
Q 1578 3097 1268 2742 
Q 959 2388 959 1747 
Q 959 1106 1268 751 
Q 1578 397 2138 397 
Q 2388 397 2633 464 
Q 2878 531 3122 666 
L 3122 134 
Q 2881 22 2623 -34 
Q 2366 -91 2075 -91 
Q 1284 -91 818 406 
Q 353 903 353 1747 
Q 353 2603 823 3093 
Q 1294 3584 2113 3584 
Q 2378 3584 2631 3529 
Q 2884 3475 3122 3366 
z
" transform="scale(0.015625)"/>
       <path id="DejaVuSans-20" transform="scale(0.015625)"/>
       <path id="DejaVuSans-66" d="M 2375 4863 
L 2375 4384 
L 1825 4384 
Q 1516 4384 1395 4259 
Q 1275 4134 1275 3809 
L 1275 3500 
L 2222 3500 
L 2222 3053 
L 1275 3053 
L 1275 0 
L 697 0 
L 697 3053 
L 147 3053 
L 147 3500 
L 697 3500 
L 697 3744 
Q 697 4328 969 4595 
Q 1241 4863 1831 4863 
L 2375 4863 
z
" transform="scale(0.015625)"/>
       <path id="DejaVuSans-72" d="M 2631 2963 
Q 2534 3019 2420 3045 
Q 2306 3072 2169 3072 
Q 1681 3072 1420 2755 
Q 1159 2438 1159 1844 
L 1159 0 
L 581 0 
L 581 3500 
L 1159 3500 
L 1159 2956 
Q 1341 3275 1631 3429 
Q 1922 3584 2338 3584 
Q 2397 3584 2469 3576 
Q 2541 3569 2628 3553 
L 2631 2963 
z
" transform="scale(0.015625)"/>
       <path id="DejaVuSans-71" d="M 947 1747 
Q 947 1113 1208 752 
Q 1469 391 1925 391 
Q 2381 391 2643 752 
Q 2906 1113 2906 1747 
Q 2906 2381 2643 2742 
Q 2381 3103 1925 3103 
Q 1469 3103 1208 2742 
Q 947 2381 947 1747 
z
M 2906 525 
Q 2725 213 2448 61 
Q 2172 -91 1784 -91 
Q 1150 -91 751 415 
Q 353 922 353 1747 
Q 353 2572 751 3078 
Q 1150 3584 1784 3584 
Q 2172 3584 2448 3432 
Q 2725 3281 2906 2969 
L 2906 3500 
L 3481 3500 
L 3481 -1331 
L 2906 -1331 
L 2906 525 
z
" transform="scale(0.015625)"/>
       <path id="DejaVuSans-75" d="M 544 1381 
L 544 3500 
L 1119 3500 
L 1119 1403 
Q 1119 906 1312 657 
Q 1506 409 1894 409 
Q 2359 409 2629 706 
Q 2900 1003 2900 1516 
L 2900 3500 
L 3475 3500 
L 3475 0 
L 2900 0 
L 2900 538 
Q 2691 219 2414 64 
Q 2138 -91 1772 -91 
Q 1169 -91 856 284 
Q 544 659 544 1381 
z
M 1991 3584 
L 1991 3584 
z
" transform="scale(0.015625)"/>
       <path id="DejaVuSans-6e" d="M 3513 2113 
L 3513 0 
L 2938 0 
L 2938 2094 
Q 2938 2591 2744 2837 
Q 2550 3084 2163 3084 
Q 1697 3084 1428 2787 
Q 1159 2491 1159 1978 
L 1159 0 
L 581 0 
L 581 3500 
L 1159 3500 
L 1159 2956 
Q 1366 3272 1645 3428 
Q 1925 3584 2291 3584 
Q 2894 3584 3203 3211 
Q 3513 2838 3513 2113 
z
" transform="scale(0.015625)"/>
       <path id="DejaVuSans-79" d="M 2059 -325 
Q 1816 -950 1584 -1140 
Q 1353 -1331 966 -1331 
L 506 -1331 
L 506 -850 
L 844 -850 
Q 1081 -850 1212 -737 
Q 1344 -625 1503 -206 
L 1606 56 
L 191 3500 
L 800 3500 
L 1894 763 
L 2988 3500 
L 3597 3500 
L 2059 -325 
z
" transform="scale(0.015625)"/>
       <path id="DejaVuSans-5b" d="M 550 4863 
L 1875 4863 
L 1875 4416 
L 1125 4416 
L 1125 -397 
L 1875 -397 
L 1875 -844 
L 550 -844 
L 550 4863 
z
" transform="scale(0.015625)"/>
       <path id="DejaVuSans-4d" d="M 628 4666 
L 1569 4666 
L 2759 1491 
L 3956 4666 
L 4897 4666 
L 4897 0 
L 4281 0 
L 4281 4097 
L 3078 897 
L 2444 897 
L 1241 4097 
L 1241 0 
L 628 0 
L 628 4666 
z
" transform="scale(0.015625)"/>
       <path id="DejaVuSans-48" d="M 628 4666 
L 1259 4666 
L 1259 2753 
L 3553 2753 
L 3553 4666 
L 4184 4666 
L 4184 0 
L 3553 0 
L 3553 2222 
L 1259 2222 
L 1259 0 
L 628 0 
L 628 4666 
z
" transform="scale(0.015625)"/>
       <path id="DejaVuSans-7a" d="M 353 3500 
L 3084 3500 
L 3084 2975 
L 922 459 
L 3084 459 
L 3084 0 
L 275 0 
L 275 525 
L 2438 3041 
L 353 3041 
L 353 3500 
z
" transform="scale(0.015625)"/>
       <path id="DejaVuSans-5d" d="M 1947 4863 
L 1947 -844 
L 622 -844 
L 622 -397 
L 1369 -397 
L 1369 4416 
L 622 4416 
L 622 4863 
L 1947 4863 
z
" transform="scale(0.015625)"/>
      </defs>
      <use xlink:href="#DejaVuSans-53"/>
      <use xlink:href="#DejaVuSans-70" x="63.476562"/>
      <use xlink:href="#DejaVuSans-65" x="126.953125"/>
      <use xlink:href="#DejaVuSans-63" x="188.476562"/>
      <use xlink:href="#DejaVuSans-20" x="243.457031"/>
      <use xlink:href="#DejaVuSans-66" x="275.244141"/>
      <use xlink:href="#DejaVuSans-72" x="310.449219"/>
      <use xlink:href="#DejaVuSans-65" x="349.3125"/>
      <use xlink:href="#DejaVuSans-71" x="410.835938"/>
      <use xlink:href="#DejaVuSans-75" x="474.3125"/>
      <use xlink:href="#DejaVuSans-65" x="537.691406"/>
      <use xlink:href="#DejaVuSans-6e" x="599.214844"/>
      <use xlink:href="#DejaVuSans-63" x="662.59375"/>
      <use xlink:href="#DejaVuSans-79" x="717.574219"/>
      <use xlink:href="#DejaVuSans-20" x="776.753906"/>
      <use xlink:href="#DejaVuSans-5b" x="808.541016"/>
      <use xlink:href="#DejaVuSans-4d" x="847.554688"/>
      <use xlink:href="#DejaVuSans-48" x="933.833984"/>
      <use xlink:href="#DejaVuSans-7a" x="1009.029297"/>
      <use xlink:href="#DejaVuSans-5d" x="1061.519531"/>
     </g>
    </g>
    <g id="text_11">
     <!-- +5 GHz -->
     <g transform="translate(362.46375 335.148562) scale(0.1 -0.1)">
      <defs>
       <path id="DejaVuSans-2b" d="M 2944 4013 
L 2944 2272 
L 4684 2272 
L 4684 1741 
L 2944 1741 
L 2944 0 
L 2419 0 
L 2419 1741 
L 678 1741 
L 678 2272 
L 2419 2272 
L 2419 4013 
L 2944 4013 
z
" transform="scale(0.015625)"/>
       <path id="DejaVuSans-47" d="M 3809 666 
L 3809 1919 
L 2778 1919 
L 2778 2438 
L 4434 2438 
L 4434 434 
Q 4069 175 3628 42 
Q 3188 -91 2688 -91 
Q 1594 -91 976 548 
Q 359 1188 359 2328 
Q 359 3472 976 4111 
Q 1594 4750 2688 4750 
Q 3144 4750 3555 4637 
Q 3966 4525 4313 4306 
L 4313 3634 
Q 3963 3931 3569 4081 
Q 3175 4231 2741 4231 
Q 1884 4231 1454 3753 
Q 1025 3275 1025 2328 
Q 1025 1384 1454 906 
Q 1884 428 2741 428 
Q 3075 428 3337 486 
Q 3600 544 3809 666 
z
" transform="scale(0.015625)"/>
      </defs>
      <use xlink:href="#DejaVuSans-2b"/>
      <use xlink:href="#DejaVuSans-35" x="83.789062"/>
      <use xlink:href="#DejaVuSans-20" x="147.412109"/>
      <use xlink:href="#DejaVuSans-47" x="179.199219"/>
      <use xlink:href="#DejaVuSans-48" x="256.689453"/>
      <use xlink:href="#DejaVuSans-7a" x="331.884766"/>
     </g>
    </g>
   </g>
   <g id="matplotlib.axis_2">
    <g id="ytick_1">
     <g id="line2d_10">
      <defs>
       <path id="m3bb86be79a" d="M 0 0 
L -3.5 0 
" style="stroke: #000000; stroke-width: 0.8"/>
      </defs>
      <g>
       <use xlink:href="#m3bb86be79a" x="43.78125" y="278.09106" style="stroke: #000000; stroke-width: 0.8"/>
      </g>
     </g>
     <g id="text_12">
      <!-- 2 -->
      <g transform="translate(30.41875 281.890279) scale(0.1 -0.1)">
       <use xlink:href="#DejaVuSans-32"/>
      </g>
     </g>
    </g>
    <g id="ytick_2">
     <g id="line2d_11">
      <g>
       <use xlink:href="#m3bb86be79a" x="43.78125" y="238.776844" style="stroke: #000000; stroke-width: 0.8"/>
      </g>
     </g>
     <g id="text_13">
      <!-- 2.5 -->
      <g transform="translate(20.878125 242.576062) scale(0.1 -0.1)">
       <defs>
        <path id="DejaVuSans-2e" d="M 684 794 
L 1344 794 
L 1344 0 
L 684 0 
L 684 794 
z
" transform="scale(0.015625)"/>
       </defs>
       <use xlink:href="#DejaVuSans-32"/>
       <use xlink:href="#DejaVuSans-2e" x="63.623047"/>
       <use xlink:href="#DejaVuSans-35" x="95.410156"/>
      </g>
     </g>
    </g>
    <g id="ytick_3">
     <g id="line2d_12">
      <g>
       <use xlink:href="#m3bb86be79a" x="43.78125" y="199.462628" style="stroke: #000000; stroke-width: 0.8"/>
      </g>
     </g>
     <g id="text_14">
      <!-- 3 -->
      <g transform="translate(30.41875 203.261846) scale(0.1 -0.1)">
       <use xlink:href="#DejaVuSans-33"/>
      </g>
     </g>
    </g>
    <g id="ytick_4">
     <g id="line2d_13">
      <g>
       <use xlink:href="#m3bb86be79a" x="43.78125" y="160.148412" style="stroke: #000000; stroke-width: 0.8"/>
      </g>
     </g>
     <g id="text_15">
      <!-- 3.5 -->
      <g transform="translate(20.878125 163.94763) scale(0.1 -0.1)">
       <use xlink:href="#DejaVuSans-33"/>
       <use xlink:href="#DejaVuSans-2e" x="63.623047"/>
       <use xlink:href="#DejaVuSans-35" x="95.410156"/>
      </g>
     </g>
    </g>
    <g id="ytick_5">
     <g id="line2d_14">
      <g>
       <use xlink:href="#m3bb86be79a" x="43.78125" y="120.834195" style="stroke: #000000; stroke-width: 0.8"/>
      </g>
     </g>
     <g id="text_16">
      <!-- 4 -->
      <g transform="translate(30.41875 124.633414) scale(0.1 -0.1)">
       <use xlink:href="#DejaVuSans-34"/>
      </g>
     </g>
    </g>
    <g id="ytick_6">
     <g id="line2d_15">
      <g>
       <use xlink:href="#m3bb86be79a" x="43.78125" y="81.519979" style="stroke: #000000; stroke-width: 0.8"/>
      </g>
     </g>
     <g id="text_17">
      <!-- 4.5 -->
      <g transform="translate(20.878125 85.319198) scale(0.1 -0.1)">
       <use xlink:href="#DejaVuSans-34"/>
       <use xlink:href="#DejaVuSans-2e" x="63.623047"/>
       <use xlink:href="#DejaVuSans-35" x="95.410156"/>
      </g>
     </g>
    </g>
    <g id="ytick_7">
     <g id="line2d_16">
      <g>
       <use xlink:href="#m3bb86be79a" x="43.78125" y="42.205763" style="stroke: #000000; stroke-width: 0.8"/>
      </g>
     </g>
     <g id="text_18">
      <!-- 5 -->
      <g transform="translate(30.41875 46.004982) scale(0.1 -0.1)">
       <use xlink:href="#DejaVuSans-35"/>
      </g>
     </g>
    </g>
    <g id="text_19">
     <!-- Output voltage [mV] -->
     <g transform="translate(14.798438 226.237094) rotate(-90) scale(0.1 -0.1)">
      <defs>
       <path id="DejaVuSans-4f" d="M 2522 4238 
Q 1834 4238 1429 3725 
Q 1025 3213 1025 2328 
Q 1025 1447 1429 934 
Q 1834 422 2522 422 
Q 3209 422 3611 934 
Q 4013 1447 4013 2328 
Q 4013 3213 3611 3725 
Q 3209 4238 2522 4238 
z
M 2522 4750 
Q 3503 4750 4090 4092 
Q 4678 3434 4678 2328 
Q 4678 1225 4090 567 
Q 3503 -91 2522 -91 
Q 1538 -91 948 565 
Q 359 1222 359 2328 
Q 359 3434 948 4092 
Q 1538 4750 2522 4750 
z
" transform="scale(0.015625)"/>
       <path id="DejaVuSans-74" d="M 1172 4494 
L 1172 3500 
L 2356 3500 
L 2356 3053 
L 1172 3053 
L 1172 1153 
Q 1172 725 1289 603 
Q 1406 481 1766 481 
L 2356 481 
L 2356 0 
L 1766 0 
Q 1100 0 847 248 
Q 594 497 594 1153 
L 594 3053 
L 172 3053 
L 172 3500 
L 594 3500 
L 594 4494 
L 1172 4494 
z
" transform="scale(0.015625)"/>
       <path id="DejaVuSans-76" d="M 191 3500 
L 800 3500 
L 1894 563 
L 2988 3500 
L 3597 3500 
L 2284 0 
L 1503 0 
L 191 3500 
z
" transform="scale(0.015625)"/>
       <path id="DejaVuSans-6f" d="M 1959 3097 
Q 1497 3097 1228 2736 
Q 959 2375 959 1747 
Q 959 1119 1226 758 
Q 1494 397 1959 397 
Q 2419 397 2687 759 
Q 2956 1122 2956 1747 
Q 2956 2369 2687 2733 
Q 2419 3097 1959 3097 
z
M 1959 3584 
Q 2709 3584 3137 3096 
Q 3566 2609 3566 1747 
Q 3566 888 3137 398 
Q 2709 -91 1959 -91 
Q 1206 -91 779 398 
Q 353 888 353 1747 
Q 353 2609 779 3096 
Q 1206 3584 1959 3584 
z
" transform="scale(0.015625)"/>
       <path id="DejaVuSans-6c" d="M 603 4863 
L 1178 4863 
L 1178 0 
L 603 0 
L 603 4863 
z
" transform="scale(0.015625)"/>
       <path id="DejaVuSans-61" d="M 2194 1759 
Q 1497 1759 1228 1600 
Q 959 1441 959 1056 
Q 959 750 1161 570 
Q 1363 391 1709 391 
Q 2188 391 2477 730 
Q 2766 1069 2766 1631 
L 2766 1759 
L 2194 1759 
z
M 3341 1997 
L 3341 0 
L 2766 0 
L 2766 531 
Q 2569 213 2275 61 
Q 1981 -91 1556 -91 
Q 1019 -91 701 211 
Q 384 513 384 1019 
Q 384 1609 779 1909 
Q 1175 2209 1959 2209 
L 2766 2209 
L 2766 2266 
Q 2766 2663 2505 2880 
Q 2244 3097 1772 3097 
Q 1472 3097 1187 3025 
Q 903 2953 641 2809 
L 641 3341 
Q 956 3463 1253 3523 
Q 1550 3584 1831 3584 
Q 2591 3584 2966 3190 
Q 3341 2797 3341 1997 
z
" transform="scale(0.015625)"/>
       <path id="DejaVuSans-67" d="M 2906 1791 
Q 2906 2416 2648 2759 
Q 2391 3103 1925 3103 
Q 1463 3103 1205 2759 
Q 947 2416 947 1791 
Q 947 1169 1205 825 
Q 1463 481 1925 481 
Q 2391 481 2648 825 
Q 2906 1169 2906 1791 
z
M 3481 434 
Q 3481 -459 3084 -895 
Q 2688 -1331 1869 -1331 
Q 1566 -1331 1297 -1286 
Q 1028 -1241 775 -1147 
L 775 -588 
Q 1028 -725 1275 -790 
Q 1522 -856 1778 -856 
Q 2344 -856 2625 -561 
Q 2906 -266 2906 331 
L 2906 616 
Q 2728 306 2450 153 
Q 2172 0 1784 0 
Q 1141 0 747 490 
Q 353 981 353 1791 
Q 353 2603 747 3093 
Q 1141 3584 1784 3584 
Q 2172 3584 2450 3431 
Q 2728 3278 2906 2969 
L 2906 3500 
L 3481 3500 
L 3481 434 
z
" transform="scale(0.015625)"/>
       <path id="DejaVuSans-6d" d="M 3328 2828 
Q 3544 3216 3844 3400 
Q 4144 3584 4550 3584 
Q 5097 3584 5394 3201 
Q 5691 2819 5691 2113 
L 5691 0 
L 5113 0 
L 5113 2094 
Q 5113 2597 4934 2840 
Q 4756 3084 4391 3084 
Q 3944 3084 3684 2787 
Q 3425 2491 3425 1978 
L 3425 0 
L 2847 0 
L 2847 2094 
Q 2847 2600 2669 2842 
Q 2491 3084 2119 3084 
Q 1678 3084 1418 2786 
Q 1159 2488 1159 1978 
L 1159 0 
L 581 0 
L 581 3500 
L 1159 3500 
L 1159 2956 
Q 1356 3278 1631 3431 
Q 1906 3584 2284 3584 
Q 2666 3584 2933 3390 
Q 3200 3197 3328 2828 
z
" transform="scale(0.015625)"/>
       <path id="DejaVuSans-56" d="M 1831 0 
L 50 4666 
L 709 4666 
L 2188 738 
L 3669 4666 
L 4325 4666 
L 2547 0 
L 1831 0 
z
" transform="scale(0.015625)"/>
      </defs>
      <use xlink:href="#DejaVuSans-4f"/>
      <use xlink:href="#DejaVuSans-75" x="78.710938"/>
      <use xlink:href="#DejaVuSans-74" x="142.089844"/>
      <use xlink:href="#DejaVuSans-70" x="181.298828"/>
      <use xlink:href="#DejaVuSans-75" x="244.775391"/>
      <use xlink:href="#DejaVuSans-74" x="308.154297"/>
      <use xlink:href="#DejaVuSans-20" x="347.363281"/>
      <use xlink:href="#DejaVuSans-76" x="379.150391"/>
      <use xlink:href="#DejaVuSans-6f" x="438.330078"/>
      <use xlink:href="#DejaVuSans-6c" x="499.511719"/>
      <use xlink:href="#DejaVuSans-74" x="527.294922"/>
      <use xlink:href="#DejaVuSans-61" x="566.503906"/>
      <use xlink:href="#DejaVuSans-67" x="627.783203"/>
      <use xlink:href="#DejaVuSans-65" x="691.259766"/>
      <use xlink:href="#DejaVuSans-20" x="752.783203"/>
      <use xlink:href="#DejaVuSans-5b" x="784.570312"/>
      <use xlink:href="#DejaVuSans-6d" x="823.583984"/>
      <use xlink:href="#DejaVuSans-56" x="920.996094"/>
      <use xlink:href="#DejaVuSans-5d" x="989.404297"/>
     </g>
    </g>
   </g>
   <g id="line2d_17">
    <defs>
     <path id="m33ecc1ff3c" d="M 0 1.5 
C 0.397805 1.5 0.77937 1.341951 1.06066 1.06066 
C 1.341951 0.77937 1.5 0.397805 1.5 0 
C 1.5 -0.397805 1.341951 -0.77937 1.06066 -1.06066 
C 0.77937 -1.341951 0.397805 -1.5 0 -1.5 
C -0.397805 -1.5 -0.77937 -1.341951 -1.06066 -1.06066 
C -1.341951 -0.77937 -1.5 -0.397805 -1.5 0 
C -1.5 0.397805 -1.341951 0.77937 -1.06066 1.06066 
C -0.77937 1.341951 -0.397805 1.5 0 1.5 
z
" style="stroke: #1f77b4"/>
    </defs>
    <g clip-path="url(#pc57e8965c6)">
     <use xlink:href="#m33ecc1ff3c" x="60.013977" y="291.747353" style="fill: #1f77b4; stroke: #1f77b4"/>
     <use xlink:href="#m33ecc1ff3c" x="66.139535" y="290.722474" style="fill: #1f77b4; stroke: #1f77b4"/>
     <use xlink:href="#m33ecc1ff3c" x="72.265092" y="290.959255" style="fill: #1f77b4; stroke: #1f77b4"/>
     <use xlink:href="#m33ecc1ff3c" x="78.39065" y="293.546393" style="fill: #1f77b4; stroke: #1f77b4"/>
     <use xlink:href="#m33ecc1ff3c" x="84.516207" y="294.691772" style="fill: #1f77b4; stroke: #1f77b4"/>
     <use xlink:href="#m33ecc1ff3c" x="90.641765" y="291.037512" style="fill: #1f77b4; stroke: #1f77b4"/>
     <use xlink:href="#m33ecc1ff3c" x="96.767322" y="295.149172" style="fill: #1f77b4; stroke: #1f77b4"/>
     <use xlink:href="#m33ecc1ff3c" x="102.89288" y="294.383697" style="fill: #1f77b4; stroke: #1f77b4"/>
     <use xlink:href="#m33ecc1ff3c" x="109.018437" y="290.637578" style="fill: #1f77b4; stroke: #1f77b4"/>
     <use xlink:href="#m33ecc1ff3c" x="115.143994" y="290.940295" style="fill: #1f77b4; stroke: #1f77b4"/>
     <use xlink:href="#m33ecc1ff3c" x="121.269552" y="295.56034" style="fill: #1f77b4; stroke: #1f77b4"/>
     <use xlink:href="#m33ecc1ff3c" x="127.395109" y="295.465899" style="fill: #1f77b4; stroke: #1f77b4"/>
     <use xlink:href="#m33ecc1ff3c" x="133.520667" y="287.130463" style="fill: #1f77b4; stroke: #1f77b4"/>
     <use xlink:href="#m33ecc1ff3c" x="139.646224" y="287.090863" style="fill: #1f77b4; stroke: #1f77b4"/>
     <use xlink:href="#m33ecc1ff3c" x="145.771782" y="286.576257" style="fill: #1f77b4; stroke: #1f77b4"/>
     <use xlink:href="#m33ecc1ff3c" x="151.897339" y="289.569303" style="fill: #1f77b4; stroke: #1f77b4"/>
     <use xlink:href="#m33ecc1ff3c" x="158.022897" y="295.776" style="fill: #1f77b4; stroke: #1f77b4"/>
     <use xlink:href="#m33ecc1ff3c" x="164.148454" y="275.297484" style="fill: #1f77b4; stroke: #1f77b4"/>
     <use xlink:href="#m33ecc1ff3c" x="170.274012" y="272.732669" style="fill: #1f77b4; stroke: #1f77b4"/>
     <use xlink:href="#m33ecc1ff3c" x="176.399569" y="271.196463" style="fill: #1f77b4; stroke: #1f77b4"/>
     <use xlink:href="#m33ecc1ff3c" x="182.525127" y="278.57136" style="fill: #1f77b4; stroke: #1f77b4"/>
     <use xlink:href="#m33ecc1ff3c" x="188.650684" y="285.44904" style="fill: #1f77b4; stroke: #1f77b4"/>
     <use xlink:href="#m33ecc1ff3c" x="194.776241" y="281.508624" style="fill: #1f77b4; stroke: #1f77b4"/>
     <use xlink:href="#m33ecc1ff3c" x="200.901799" y="223.8701" style="fill: #1f77b4; stroke: #1f77b4"/>
     <use xlink:href="#m33ecc1ff3c" x="207.027356" y="160.806338" style="fill: #1f77b4; stroke: #1f77b4"/>
     <use xlink:href="#m33ecc1ff3c" x="213.152914" y="144.951259" style="fill: #1f77b4; stroke: #1f77b4"/>
     <use xlink:href="#m33ecc1ff3c" x="219.278471" y="53.856" style="fill: #1f77b4; stroke: #1f77b4"/>
     <use xlink:href="#m33ecc1ff3c" x="225.404029" y="243.418491" style="fill: #1f77b4; stroke: #1f77b4"/>
     <use xlink:href="#m33ecc1ff3c" x="231.529586" y="218.571725" style="fill: #1f77b4; stroke: #1f77b4"/>
     <use xlink:href="#m33ecc1ff3c" x="237.655144" y="286.325358" style="fill: #1f77b4; stroke: #1f77b4"/>
     <use xlink:href="#m33ecc1ff3c" x="243.780701" y="279.524718" style="fill: #1f77b4; stroke: #1f77b4"/>
     <use xlink:href="#m33ecc1ff3c" x="249.906259" y="284.982714" style="fill: #1f77b4; stroke: #1f77b4"/>
     <use xlink:href="#m33ecc1ff3c" x="256.031816" y="279.071494" style="fill: #1f77b4; stroke: #1f77b4"/>
     <use xlink:href="#m33ecc1ff3c" x="262.157373" y="274.1847" style="fill: #1f77b4; stroke: #1f77b4"/>
     <use xlink:href="#m33ecc1ff3c" x="268.282931" y="291.104118" style="fill: #1f77b4; stroke: #1f77b4"/>
     <use xlink:href="#m33ecc1ff3c" x="274.408488" y="290.936676" style="fill: #1f77b4; stroke: #1f77b4"/>
     <use xlink:href="#m33ecc1ff3c" x="280.534046" y="289.237782" style="fill: #1f77b4; stroke: #1f77b4"/>
     <use xlink:href="#m33ecc1ff3c" x="286.659603" y="283.957434" style="fill: #1f77b4; stroke: #1f77b4"/>
     <use xlink:href="#m33ecc1ff3c" x="292.785161" y="284.090607" style="fill: #1f77b4; stroke: #1f77b4"/>
     <use xlink:href="#m33ecc1ff3c" x="298.910718" y="289.194013" style="fill: #1f77b4; stroke: #1f77b4"/>
     <use xlink:href="#m33ecc1ff3c" x="305.036276" y="285.517068" style="fill: #1f77b4; stroke: #1f77b4"/>
     <use xlink:href="#m33ecc1ff3c" x="311.161833" y="289.80773" style="fill: #1f77b4; stroke: #1f77b4"/>
     <use xlink:href="#m33ecc1ff3c" x="317.287391" y="284.014072" style="fill: #1f77b4; stroke: #1f77b4"/>
     <use xlink:href="#m33ecc1ff3c" x="323.412948" y="289.672722" style="fill: #1f77b4; stroke: #1f77b4"/>
     <use xlink:href="#m33ecc1ff3c" x="329.538506" y="288.580228" style="fill: #1f77b4; stroke: #1f77b4"/>
     <use xlink:href="#m33ecc1ff3c" x="335.664063" y="294.017694" style="fill: #1f77b4; stroke: #1f77b4"/>
     <use xlink:href="#m33ecc1ff3c" x="341.78962" y="292.366099" style="fill: #1f77b4; stroke: #1f77b4"/>
     <use xlink:href="#m33ecc1ff3c" x="347.915178" y="290.93404" style="fill: #1f77b4; stroke: #1f77b4"/>
     <use xlink:href="#m33ecc1ff3c" x="354.040735" y="289.859417" style="fill: #1f77b4; stroke: #1f77b4"/>
     <use xlink:href="#m33ecc1ff3c" x="360.166293" y="288.245418" style="fill: #1f77b4; stroke: #1f77b4"/>
     <use xlink:href="#m33ecc1ff3c" x="366.29185" y="292.392914" style="fill: #1f77b4; stroke: #1f77b4"/>
     <use xlink:href="#m33ecc1ff3c" x="372.417408" y="295.094388" style="fill: #1f77b4; stroke: #1f77b4"/>
     <use xlink:href="#m33ecc1ff3c" x="378.542965" y="291.74668" style="fill: #1f77b4; stroke: #1f77b4"/>
     <use xlink:href="#m33ecc1ff3c" x="384.668523" y="292.596653" style="fill: #1f77b4; stroke: #1f77b4"/>
    </g>
   </g>
   <g id="line2d_18">
    <path d="M 60.013977 290.955944 
L 94.136827 290.600636 
L 115.910456 290.164077 
L 130.859514 289.65583 
L 141.908818 289.071709 
L 150.358285 288.418513 
L 157.182855 287.680462 
L 162.707507 286.872891 
L 167.257221 286.001714 
L 171.156975 285.046293 
L 174.73175 283.937379 
L 177.656565 282.806739 
L 180.256402 281.578801 
L 182.531258 280.282387 
L 184.806115 278.720573 
L 186.755992 277.11396 
L 188.705869 275.193604 
L 190.330767 273.293573 
L 191.955664 271.053829 
L 193.580562 268.392039 
L 194.88048 265.887656 
L 196.180398 262.975062 
L 197.480316 259.566556 
L 198.780234 255.551839 
L 200.080153 250.79177 
L 201.380071 245.110731 
L 202.679989 238.287877 
L 203.979907 230.048452 
L 205.279825 220.058465 
L 206.579743 207.930426 
L 207.879661 193.256412 
L 209.179579 175.699242 
L 210.479497 155.190719 
L 212.754354 114.494889 
L 214.054272 92.340958 
L 215.029211 79.178515 
L 215.67917 73.089675 
L 216.004149 71.029384 
L 216.329129 69.682381 
L 216.654108 69.075476 
L 216.979088 69.220905 
L 217.304067 70.115729 
L 217.629047 71.74197 
L 218.279006 77.047669 
L 218.928965 84.742928 
L 219.903904 99.607372 
L 221.853781 134.566994 
L 223.803658 167.76664 
L 225.103576 186.531803 
L 226.403494 202.337795 
L 227.703412 215.445115 
L 229.00333 226.248858 
L 230.303248 235.151124 
L 231.603166 242.509228 
L 232.903085 248.621568 
L 234.203003 253.729781 
L 235.502921 258.026643 
L 236.802839 261.665018 
L 238.102757 264.766015 
L 239.727655 268.031136 
L 241.352552 270.75157 
L 242.97745 273.038275 
L 244.602347 274.976267 
L 246.552225 276.933077 
L 248.502102 278.56858 
L 250.776958 280.156946 
L 253.051815 281.474158 
L 255.651651 282.720667 
L 258.576467 283.867355 
L 261.826262 284.89928 
L 265.726017 285.885908 
L 270.27573 286.783333 
L 275.475402 287.57059 
L 281.650013 288.275708 
L 289.124542 288.903522 
L 298.548949 289.466198 
L 310.898171 289.96583 
L 327.147147 290.387164 
L 349.895714 290.739551 
L 383.693584 291.022458 
L 384.668523 291.028191 
L 384.668523 291.028191 
" clip-path="url(#pc57e8965c6)" style="fill: none; stroke: #d62728; stroke-width: 1.5; stroke-linecap: square"/>
   </g>
   <g id="patch_3">
    <path d="M 43.78125 307.872 
L 43.78125 41.76 
" style="fill: none; stroke: #000000; stroke-width: 0.8; stroke-linejoin: miter; stroke-linecap: square"/>
   </g>
   <g id="patch_4">
    <path d="M 400.90125 307.872 
L 400.90125 41.76 
" style="fill: none; stroke: #000000; stroke-width: 0.8; stroke-linejoin: miter; stroke-linecap: square"/>
   </g>
   <g id="patch_5">
    <path d="M 43.78125 307.872 
L 400.90125 307.872 
" style="fill: none; stroke: #000000; stroke-width: 0.8; stroke-linejoin: miter; stroke-linecap: square"/>
   </g>
   <g id="patch_6">
    <path d="M 43.78125 41.76 
L 400.90125 41.76 
" style="fill: none; stroke: #000000; stroke-width: 0.8; stroke-linejoin: miter; stroke-linecap: square"/>
   </g>
   <g id="text_20">
    <g id="patch_7">
     <path d="M 418.75725 102.35935 
L 646.35725 102.35935 
Q 650.35725 102.35935 650.35725 98.35935 
L 650.35725 55.0656 
Q 650.35725 51.0656 646.35725 51.0656 
L 418.75725 51.0656 
Q 414.75725 51.0656 414.75725 55.0656 
L 414.75725 98.35935 
Q 414.75725 102.35935 418.75725 102.35935 
z
" style="fill: #ffffff; opacity: 0.5; stroke: #000000; stroke-linejoin: miter"/>
    </g>
    <!-- Summary -->
    <g transform="translate(418.75725 62.664038) scale(0.1 -0.1)">
     <use xlink:href="#DejaVuSans-53"/>
     <use xlink:href="#DejaVuSans-75" x="63.476562"/>
     <use xlink:href="#DejaVuSans-6d" x="126.855469"/>
     <use xlink:href="#DejaVuSans-6d" x="224.267578"/>
     <use xlink:href="#DejaVuSans-61" x="321.679688"/>
     <use xlink:href="#DejaVuSans-72" x="382.958984"/>
     <use xlink:href="#DejaVuSans-79" x="424.072266"/>
    </g>
    <!-- Transition frequency: 5.212165$\pm$1.3e-05 GHz -->
    <g transform="translate(418.75725 73.863725) scale(0.1 -0.1)">
     <defs>
      <path id="DejaVuSans-54" d="M -19 4666 
L 3928 4666 
L 3928 4134 
L 2272 4134 
L 2272 0 
L 1638 0 
L 1638 4134 
L -19 4134 
L -19 4666 
z
" transform="scale(0.015625)"/>
      <path id="DejaVuSans-73" d="M 2834 3397 
L 2834 2853 
Q 2591 2978 2328 3040 
Q 2066 3103 1784 3103 
Q 1356 3103 1142 2972 
Q 928 2841 928 2578 
Q 928 2378 1081 2264 
Q 1234 2150 1697 2047 
L 1894 2003 
Q 2506 1872 2764 1633 
Q 3022 1394 3022 966 
Q 3022 478 2636 193 
Q 2250 -91 1575 -91 
Q 1294 -91 989 -36 
Q 684 19 347 128 
L 347 722 
Q 666 556 975 473 
Q 1284 391 1588 391 
Q 1994 391 2212 530 
Q 2431 669 2431 922 
Q 2431 1156 2273 1281 
Q 2116 1406 1581 1522 
L 1381 1569 
Q 847 1681 609 1914 
Q 372 2147 372 2553 
Q 372 3047 722 3315 
Q 1072 3584 1716 3584 
Q 2034 3584 2315 3537 
Q 2597 3491 2834 3397 
z
" transform="scale(0.015625)"/>
      <path id="DejaVuSans-69" d="M 603 3500 
L 1178 3500 
L 1178 0 
L 603 0 
L 603 3500 
z
M 603 4863 
L 1178 4863 
L 1178 4134 
L 603 4134 
L 603 4863 
z
" transform="scale(0.015625)"/>
      <path id="DejaVuSans-3a" d="M 750 794 
L 1409 794 
L 1409 0 
L 750 0 
L 750 794 
z
M 750 3309 
L 1409 3309 
L 1409 2516 
L 750 2516 
L 750 3309 
z
" transform="scale(0.015625)"/>
      <path id="DejaVuSans-b1" d="M 2944 4013 
L 2944 2803 
L 4684 2803 
L 4684 2272 
L 2944 2272 
L 2944 1063 
L 2419 1063 
L 2419 2272 
L 678 2272 
L 678 2803 
L 2419 2803 
L 2419 4013 
L 2944 4013 
z
M 678 531 
L 4684 531 
L 4684 0 
L 678 0 
L 678 531 
z
" transform="scale(0.015625)"/>
      <path id="DejaVuSans-2d" d="M 313 2009 
L 1997 2009 
L 1997 1497 
L 313 1497 
L 313 2009 
z
" transform="scale(0.015625)"/>
     </defs>
     <use xlink:href="#DejaVuSans-54" transform="translate(0 0.015625)"/>
     <use xlink:href="#DejaVuSans-72" transform="translate(61.083984 0.015625)"/>
     <use xlink:href="#DejaVuSans-61" transform="translate(102.197266 0.015625)"/>
     <use xlink:href="#DejaVuSans-6e" transform="translate(163.476562 0.015625)"/>
     <use xlink:href="#DejaVuSans-73" transform="translate(226.855469 0.015625)"/>
     <use xlink:href="#DejaVuSans-69" transform="translate(278.955078 0.015625)"/>
     <use xlink:href="#DejaVuSans-74" transform="translate(306.738281 0.015625)"/>
     <use xlink:href="#DejaVuSans-69" transform="translate(345.947266 0.015625)"/>
     <use xlink:href="#DejaVuSans-6f" transform="translate(373.730469 0.015625)"/>
     <use xlink:href="#DejaVuSans-6e" transform="translate(434.912109 0.015625)"/>
     <use xlink:href="#DejaVuSans-20" transform="translate(498.291016 0.015625)"/>
     <use xlink:href="#DejaVuSans-66" transform="translate(530.078125 0.015625)"/>
     <use xlink:href="#DejaVuSans-72" transform="translate(565.283203 0.015625)"/>
     <use xlink:href="#DejaVuSans-65" transform="translate(606.396484 0.015625)"/>
     <use xlink:href="#DejaVuSans-71" transform="translate(667.919922 0.015625)"/>
     <use xlink:href="#DejaVuSans-75" transform="translate(731.396484 0.015625)"/>
     <use xlink:href="#DejaVuSans-65" transform="translate(794.775391 0.015625)"/>
     <use xlink:href="#DejaVuSans-6e" transform="translate(856.298828 0.015625)"/>
     <use xlink:href="#DejaVuSans-63" transform="translate(919.677734 0.015625)"/>
     <use xlink:href="#DejaVuSans-79" transform="translate(974.658203 0.015625)"/>
     <use xlink:href="#DejaVuSans-3a" transform="translate(1033.837891 0.015625)"/>
     <use xlink:href="#DejaVuSans-20" transform="translate(1067.529297 0.015625)"/>
     <use xlink:href="#DejaVuSans-35" transform="translate(1099.316406 0.015625)"/>
     <use xlink:href="#DejaVuSans-2e" transform="translate(1162.939453 0.015625)"/>
     <use xlink:href="#DejaVuSans-32" transform="translate(1189.226562 0.015625)"/>
     <use xlink:href="#DejaVuSans-31" transform="translate(1252.849609 0.015625)"/>
     <use xlink:href="#DejaVuSans-32" transform="translate(1316.472656 0.015625)"/>
     <use xlink:href="#DejaVuSans-31" transform="translate(1380.095703 0.015625)"/>
     <use xlink:href="#DejaVuSans-36" transform="translate(1443.71875 0.015625)"/>
     <use xlink:href="#DejaVuSans-35" transform="translate(1507.341797 0.015625)"/>
     <use xlink:href="#DejaVuSans-b1" transform="translate(1570.964844 0.015625)"/>
     <use xlink:href="#DejaVuSans-31" transform="translate(1654.753906 0.015625)"/>
     <use xlink:href="#DejaVuSans-2e" transform="translate(1718.376953 0.015625)"/>
     <use xlink:href="#DejaVuSans-33" transform="translate(1750.164062 0.015625)"/>
     <use xlink:href="#DejaVuSans-65" transform="translate(1813.787109 0.015625)"/>
     <use xlink:href="#DejaVuSans-2d" transform="translate(1875.310547 0.015625)"/>
     <use xlink:href="#DejaVuSans-30" transform="translate(1911.394531 0.015625)"/>
     <use xlink:href="#DejaVuSans-35" transform="translate(1975.017578 0.015625)"/>
     <use xlink:href="#DejaVuSans-20" transform="translate(2038.640625 0.015625)"/>
     <use xlink:href="#DejaVuSans-47" transform="translate(2070.427734 0.015625)"/>
     <use xlink:href="#DejaVuSans-48" transform="translate(2147.917969 0.015625)"/>
     <use xlink:href="#DejaVuSans-7a" transform="translate(2223.113281 0.015625)"/>
    </g>
    <!-- Peak width: 193$\pm$20 kHz -->
    <g transform="translate(418.75725 85.08185) scale(0.1 -0.1)">
     <defs>
      <path id="DejaVuSans-50" d="M 1259 4147 
L 1259 2394 
L 2053 2394 
Q 2494 2394 2734 2622 
Q 2975 2850 2975 3272 
Q 2975 3691 2734 3919 
Q 2494 4147 2053 4147 
L 1259 4147 
z
M 628 4666 
L 2053 4666 
Q 2838 4666 3239 4311 
Q 3641 3956 3641 3272 
Q 3641 2581 3239 2228 
Q 2838 1875 2053 1875 
L 1259 1875 
L 1259 0 
L 628 0 
L 628 4666 
z
" transform="scale(0.015625)"/>
      <path id="DejaVuSans-6b" d="M 581 4863 
L 1159 4863 
L 1159 1991 
L 2875 3500 
L 3609 3500 
L 1753 1863 
L 3688 0 
L 2938 0 
L 1159 1709 
L 1159 0 
L 581 0 
L 581 4863 
z
" transform="scale(0.015625)"/>
      <path id="DejaVuSans-77" d="M 269 3500 
L 844 3500 
L 1563 769 
L 2278 3500 
L 2956 3500 
L 3675 769 
L 4391 3500 
L 4966 3500 
L 4050 0 
L 3372 0 
L 2619 2869 
L 1863 0 
L 1184 0 
L 269 3500 
z
" transform="scale(0.015625)"/>
      <path id="DejaVuSans-64" d="M 2906 2969 
L 2906 4863 
L 3481 4863 
L 3481 0 
L 2906 0 
L 2906 525 
Q 2725 213 2448 61 
Q 2172 -91 1784 -91 
Q 1150 -91 751 415 
Q 353 922 353 1747 
Q 353 2572 751 3078 
Q 1150 3584 1784 3584 
Q 2172 3584 2448 3432 
Q 2725 3281 2906 2969 
z
M 947 1747 
Q 947 1113 1208 752 
Q 1469 391 1925 391 
Q 2381 391 2643 752 
Q 2906 1113 2906 1747 
Q 2906 2381 2643 2742 
Q 2381 3103 1925 3103 
Q 1469 3103 1208 2742 
Q 947 2381 947 1747 
z
" transform="scale(0.015625)"/>
      <path id="DejaVuSans-68" d="M 3513 2113 
L 3513 0 
L 2938 0 
L 2938 2094 
Q 2938 2591 2744 2837 
Q 2550 3084 2163 3084 
Q 1697 3084 1428 2787 
Q 1159 2491 1159 1978 
L 1159 0 
L 581 0 
L 581 4863 
L 1159 4863 
L 1159 2956 
Q 1366 3272 1645 3428 
Q 1925 3584 2291 3584 
Q 2894 3584 3203 3211 
Q 3513 2838 3513 2113 
z
" transform="scale(0.015625)"/>
     </defs>
     <use xlink:href="#DejaVuSans-50" transform="translate(0 0.015625)"/>
     <use xlink:href="#DejaVuSans-65" transform="translate(60.302734 0.015625)"/>
     <use xlink:href="#DejaVuSans-61" transform="translate(121.826172 0.015625)"/>
     <use xlink:href="#DejaVuSans-6b" transform="translate(183.105469 0.015625)"/>
     <use xlink:href="#DejaVuSans-20" transform="translate(241.015625 0.015625)"/>
     <use xlink:href="#DejaVuSans-77" transform="translate(272.802734 0.015625)"/>
     <use xlink:href="#DejaVuSans-69" transform="translate(354.589844 0.015625)"/>
     <use xlink:href="#DejaVuSans-64" transform="translate(382.373047 0.015625)"/>
     <use xlink:href="#DejaVuSans-74" transform="translate(445.849609 0.015625)"/>
     <use xlink:href="#DejaVuSans-68" transform="translate(485.058594 0.015625)"/>
     <use xlink:href="#DejaVuSans-3a" transform="translate(548.4375 0.015625)"/>
     <use xlink:href="#DejaVuSans-20" transform="translate(582.128906 0.015625)"/>
     <use xlink:href="#DejaVuSans-31" transform="translate(613.916016 0.015625)"/>
     <use xlink:href="#DejaVuSans-39" transform="translate(677.539062 0.015625)"/>
     <use xlink:href="#DejaVuSans-33" transform="translate(741.162109 0.015625)"/>
     <use xlink:href="#DejaVuSans-b1" transform="translate(804.785156 0.015625)"/>
     <use xlink:href="#DejaVuSans-32" transform="translate(888.574219 0.015625)"/>
     <use xlink:href="#DejaVuSans-30" transform="translate(952.197266 0.015625)"/>
     <use xlink:href="#DejaVuSans-20" transform="translate(1015.820312 0.015625)"/>
     <use xlink:href="#DejaVuSans-6b" transform="translate(1047.607422 0.015625)"/>
     <use xlink:href="#DejaVuSans-48" transform="translate(1105.517578 0.015625)"/>
     <use xlink:href="#DejaVuSans-7a" transform="translate(1180.712891 0.015625)"/>
    </g>
    <!--  -->
    <g transform="translate(418.75725 96.279663) scale(0.1 -0.1)"/>
   </g>
  </g>
  <g id="text_21">
   <!-- S21 Pulsed spectroscopy q00 -->
   <g transform="translate(128.626875 16.318125) scale(0.12 -0.12)">
    <use xlink:href="#DejaVuSans-53"/>
    <use xlink:href="#DejaVuSans-32" x="63.476562"/>
    <use xlink:href="#DejaVuSans-31" x="127.099609"/>
    <use xlink:href="#DejaVuSans-20" x="190.722656"/>
    <use xlink:href="#DejaVuSans-50" x="222.509766"/>
    <use xlink:href="#DejaVuSans-75" x="281.0625"/>
    <use xlink:href="#DejaVuSans-6c" x="344.441406"/>
    <use xlink:href="#DejaVuSans-73" x="372.224609"/>
    <use xlink:href="#DejaVuSans-65" x="424.324219"/>
    <use xlink:href="#DejaVuSans-64" x="485.847656"/>
    <use xlink:href="#DejaVuSans-20" x="549.324219"/>
    <use xlink:href="#DejaVuSans-73" x="581.111328"/>
    <use xlink:href="#DejaVuSans-70" x="633.210938"/>
    <use xlink:href="#DejaVuSans-65" x="696.6875"/>
    <use xlink:href="#DejaVuSans-63" x="758.210938"/>
    <use xlink:href="#DejaVuSans-74" x="813.191406"/>
    <use xlink:href="#DejaVuSans-72" x="852.400391"/>
    <use xlink:href="#DejaVuSans-6f" x="891.263672"/>
    <use xlink:href="#DejaVuSans-73" x="952.445312"/>
    <use xlink:href="#DejaVuSans-63" x="1004.544922"/>
    <use xlink:href="#DejaVuSans-6f" x="1059.525391"/>
    <use xlink:href="#DejaVuSans-70" x="1120.707031"/>
    <use xlink:href="#DejaVuSans-79" x="1184.183594"/>
    <use xlink:href="#DejaVuSans-20" x="1243.363281"/>
    <use xlink:href="#DejaVuSans-71" x="1275.150391"/>
    <use xlink:href="#DejaVuSans-30" x="1338.626953"/>
    <use xlink:href="#DejaVuSans-30" x="1402.25"/>
   </g>
   <!-- tuid: 20241114-111947-005-cfeef0 -->
   <g transform="translate(110.90625 29.7555) scale(0.12 -0.12)">
    <defs>
     <path id="DejaVuSans-37" d="M 525 4666 
L 3525 4666 
L 3525 4397 
L 1831 0 
L 1172 0 
L 2766 4134 
L 525 4134 
L 525 4666 
z
" transform="scale(0.015625)"/>
    </defs>
    <use xlink:href="#DejaVuSans-74"/>
    <use xlink:href="#DejaVuSans-75" x="39.208984"/>
    <use xlink:href="#DejaVuSans-69" x="102.587891"/>
    <use xlink:href="#DejaVuSans-64" x="130.371094"/>
    <use xlink:href="#DejaVuSans-3a" x="193.847656"/>
    <use xlink:href="#DejaVuSans-20" x="227.539062"/>
    <use xlink:href="#DejaVuSans-32" x="259.326172"/>
    <use xlink:href="#DejaVuSans-30" x="322.949219"/>
    <use xlink:href="#DejaVuSans-32" x="386.572266"/>
    <use xlink:href="#DejaVuSans-34" x="450.195312"/>
    <use xlink:href="#DejaVuSans-31" x="513.818359"/>
    <use xlink:href="#DejaVuSans-31" x="577.441406"/>
    <use xlink:href="#DejaVuSans-31" x="641.064453"/>
    <use xlink:href="#DejaVuSans-34" x="704.6875"/>
    <use xlink:href="#DejaVuSans-2d" x="768.310547"/>
    <use xlink:href="#DejaVuSans-31" x="804.394531"/>
    <use xlink:href="#DejaVuSans-31" x="868.017578"/>
    <use xlink:href="#DejaVuSans-31" x="931.640625"/>
    <use xlink:href="#DejaVuSans-39" x="995.263672"/>
    <use xlink:href="#DejaVuSans-34" x="1058.886719"/>
    <use xlink:href="#DejaVuSans-37" x="1122.509766"/>
    <use xlink:href="#DejaVuSans-2d" x="1186.132812"/>
    <use xlink:href="#DejaVuSans-30" x="1222.216797"/>
    <use xlink:href="#DejaVuSans-30" x="1285.839844"/>
    <use xlink:href="#DejaVuSans-35" x="1349.462891"/>
    <use xlink:href="#DejaVuSans-2d" x="1413.085938"/>
    <use xlink:href="#DejaVuSans-63" x="1449.169922"/>
    <use xlink:href="#DejaVuSans-66" x="1504.150391"/>
    <use xlink:href="#DejaVuSans-65" x="1539.355469"/>
    <use xlink:href="#DejaVuSans-65" x="1600.878906"/>
    <use xlink:href="#DejaVuSans-66" x="1662.402344"/>
    <use xlink:href="#DejaVuSans-30" x="1697.607422"/>
   </g>
  </g>
 </g>
 <defs>
  <clipPath id="pc57e8965c6">
   <rect x="43.78125" y="41.76" width="357.12" height="266.112"/>
  </clipPath>
 </defs>
</svg>
